<?xml version="1.0" encoding="utf-8"?>
<!-- Generator: Adobe Illustrator 12.0.0, SVG Export Plug-In . SVG Version: 6.00 Build 51448)  -->
<!DOCTYPE svg PUBLIC "-//W3C//DTD SVG 1.1//EN" "http://www.w3.org/Graphics/SVG/1.1/DTD/svg11.dtd" [
	<!ENTITY ns_svg "http://www.w3.org/2000/svg">
	<!ENTITY ns_xlink "http://www.w3.org/1999/xlink">
]>
<svg  version="1.1" id="Layer_1" xmlns="&ns_svg;" xmlns:xlink="&ns_xlink;" width="765.928" height="209.226"
	 viewBox="0 0 765.928 209.226" overflow="visible" enable-background="new 0 0 765.928 209.226" xml:space="preserve">
<g>
	<path fill="none" d="M735.993,127.882c0,0,18.134-11.675,23.545-3.111c5.406,8.57,4.808,17.044-20.045,29.196
		c-22.92,11.215-12.725-23.353-6.363-23.353"/>
	<g>
		<polygon fill="#010101" stroke="#010101" stroke-width="0.5" points="735.479,125.392 733.004,131.471 731.758,130.011 
			725.62,135.249 724.016,133.37 730.155,128.131 728.907,126.671 		"/>
	</g>
	<g>
		<polygon fill="#010101" stroke="#010101" stroke-width="0.5" points="724.405,148.92 728.89,153.712 727.042,154.232 729.229,162 
			726.851,162.67 724.664,154.901 722.815,155.424 		"/>
	</g>
	<g>
		<polygon fill="#010101" stroke="#010101" stroke-width="0.5" points="747.233,152.148 750.804,146.641 751.754,148.31 
			758.768,144.316 759.99,146.463 752.977,150.457 753.929,152.125 		"/>
	</g>
	<g>
		<polygon fill="#010101" stroke="#010101" stroke-width="0.5" points="762.721,131.712 759.232,126.152 761.145,125.994 
			760.481,117.951 762.942,117.747 763.608,125.79 765.522,125.63 		"/>
	</g>
	<g>
		<polygon fill="#010101" stroke="#010101" stroke-width="0.5" points="740.704,122.418 737.088,127.896 736.152,126.22 
			729.106,130.157 727.901,128 734.946,124.063 734.007,122.387 		"/>
	</g>
</g>
<g>
	<path fill="none" d="M559.801,102.557c-15.426-3.133-27.48,35.962-28.181,50.39c-0.699,14.428,37.249,17.056,42.74-11.735
		C578.813,117.871,575.23,105.688,559.801,102.557z"/>
	<g>
		<polygon fill="#010101" stroke="#010101" stroke-width="0.5" points="561.888,106.361 568.45,106.554 567.516,108.231 
			574.571,112.153 573.371,114.312 566.316,110.391 565.384,112.071 		"/>
	</g>
	<g>
		<polygon fill="#010101" stroke="#010101" stroke-width="0.5" points="573.392,124.224 575.826,130.32 573.915,130.132 
			573.124,138.164 570.666,137.922 571.456,129.89 569.544,129.703 		"/>
	</g>
	<g>
		<polygon fill="#010101" stroke="#010101" stroke-width="0.5" points="569.841,148.622 568.133,154.96 566.717,153.664 
			561.269,159.617 559.447,157.95 564.895,151.996 563.476,150.7 		"/>
	</g>
	<g>
		<polygon fill="#010101" stroke="#010101" stroke-width="0.5" points="550.255,161.188 544.097,163.46 544.335,161.555 
			536.328,160.553 536.634,158.103 544.642,159.104 544.878,157.197 		"/>
	</g>
	<g>
		<polygon fill="#010101" stroke="#010101" stroke-width="0.5" points="534.385,150.558 532.392,144.304 534.285,144.627 
			535.645,136.673 538.08,137.089 536.72,145.044 538.614,145.366 		"/>
	</g>
	<g>
		<polygon fill="#010101" stroke="#010101" stroke-width="0.5" points="540.87,126.149 540.625,119.59 542.362,120.409 
			545.806,113.11 548.04,114.164 544.596,121.463 546.334,122.281 		"/>
	</g>
	<g>
		<polygon fill="#010101" stroke="#010101" stroke-width="0.5" points="553.962,106.792 558.74,102.291 559.266,104.138 
			567.028,101.926 567.705,104.301 559.944,106.514 560.472,108.361 		"/>
	</g>
</g>
<g>
	<path fill="none" d="M406.686,62.909c0,0-6.997,125.146-26.685,130.854c-5.715-0.633-15.245,0.638-38.117-2.544
		c-14.603-24.133,32.402-40.019,32.402-40.019l101.003,3.185c0,0,13.344,3.162,8.259,18.415
		c-5.083,15.256-48.918,20.963-52.088,20.963c-3.173,0,10.158-127.037,10.158-127.037"/>
	<g>
		<polygon fill="#010101" stroke="#010101" stroke-width="0.5" points="437.782,80.941 440.103,87.081 438.196,86.857 
			437.257,94.873 434.804,94.586 435.742,86.57 433.833,86.349 		"/>
	</g>
	<g>
		<polygon fill="#010101" stroke="#010101" stroke-width="0.5" points="435.213,106.812 437.555,112.943 435.648,112.727 
			434.737,120.746 432.284,120.467 433.193,112.448 431.284,112.233 		"/>
	</g>
	<g>
		<polygon fill="#010101" stroke="#010101" stroke-width="0.5" points="432.769,132.7 435.145,138.818 433.237,138.612 
			432.371,146.637 429.915,146.371 430.78,138.348 428.87,138.144 		"/>
	</g>
	<g>
		<polygon fill="#010101" stroke="#010101" stroke-width="0.5" points="430.529,158.616 432.966,164.711 431.055,164.523 
			430.27,172.556 427.811,172.315 428.596,164.283 426.685,164.099 		"/>
	</g>
	<g>
		<polygon fill="#010101" stroke="#010101" stroke-width="0.5" points="428.944,184.729 431.882,190.599 429.962,190.572 
			429.851,198.642 427.381,198.607 427.493,190.538 425.572,190.514 		"/>
	</g>
	<g>
		<polygon fill="#010101" stroke="#010101" stroke-width="0.5" points="448.657,193.207 453.768,189.089 454.15,190.971 
			462.06,189.366 462.551,191.786 454.642,193.393 455.026,195.274 		"/>
	</g>
	<g>
		<polygon fill="#010101" stroke="#010101" stroke-width="0.5" points="473.418,184.093 476.769,178.448 477.785,180.078 
			484.635,175.812 485.941,177.908 479.09,182.176 480.108,183.805 		"/>
	</g>
	<g>
		<polygon fill="#010101" stroke="#010101" stroke-width="0.5" points="483.942,162.026 479.086,157.609 480.887,156.942 
			478.085,149.374 480.402,148.517 483.205,156.085 485.005,155.416 		"/>
	</g>
	<g>
		<polygon fill="#010101" stroke="#010101" stroke-width="0.5" points="460.788,151.56 454.824,154.301 454.914,152.384 
			446.852,152.004 446.968,149.537 455.03,149.915 455.119,147.996 		"/>
	</g>
	<g>
		<polygon fill="#010101" stroke="#010101" stroke-width="0.5" points="434.811,150.739 428.847,153.48 428.937,151.563 
			420.875,151.184 420.992,148.717 429.053,149.095 429.142,147.176 		"/>
	</g>
	<g>
		<polygon fill="#010101" stroke="#010101" stroke-width="0.5" points="408.833,149.921 402.87,152.662 402.959,150.745 
			394.898,150.365 395.014,147.898 403.076,148.276 403.165,146.357 		"/>
	</g>
	<g>
		<polygon fill="#010101" stroke="#010101" stroke-width="0.5" points="382.857,149.103 376.893,151.844 376.983,149.927 
			368.922,149.547 369.038,147.08 377.1,147.458 377.188,145.539 		"/>
	</g>
	<g>
		<polygon fill="#010101" stroke="#010101" stroke-width="0.5" points="357.522,156.962 353.976,162.485 353.019,160.821 
			346.023,164.847 344.792,162.706 351.786,158.68 350.826,157.016 		"/>
	</g>
	<g>
		<polygon fill="#010101" stroke="#010101" stroke-width="0.5" points="339.645,176.004 341.286,182.359 339.415,181.931 
			337.611,189.797 335.204,189.245 337.006,181.379 335.133,180.951 		"/>
	</g>
	<g>
		<polygon fill="#010101" stroke="#010101" stroke-width="0.5" points="352.591,194.699 358.735,192.388 358.509,194.294 
			366.523,195.245 366.232,197.698 358.217,196.748 357.993,198.655 		"/>
	</g>
	<g>
		<polygon fill="#010101" stroke="#010101" stroke-width="0.5" points="378.347,194.431 382.529,189.372 383.28,191.139 
			390.708,187.98 391.673,190.253 384.247,193.412 385,195.18 		"/>
	</g>
	<g>
		<polygon fill="#010101" stroke="#010101" stroke-width="0.5" points="393.873,173.16 392.879,166.672 394.698,167.286 
			397.283,159.642 399.623,160.433 397.039,168.078 398.859,168.691 		"/>
	</g>
	<g>
		<polygon fill="#010101" stroke="#010101" stroke-width="0.5" points="399.704,147.577 397.93,141.258 399.81,141.647 
			401.449,133.745 403.867,134.246 402.229,142.148 404.111,142.537 		"/>
	</g>
	<g>
		<polygon fill="#010101" stroke="#010101" stroke-width="0.5" points="403.559,121.748 401.428,115.54 403.328,115.821 
			404.512,107.838 406.956,108.201 405.772,116.184 407.672,116.464 		"/>
	</g>
	<g>
		<polygon fill="#010101" stroke="#010101" stroke-width="0.5" points="406.425,95.84 404.091,89.705 405.999,89.924 406.92,81.907 
			409.374,82.188 408.453,90.207 410.362,90.424 		"/>
	</g>
	<g>
		<polygon fill="#010101" stroke="#010101" stroke-width="0.5" points="408.612,69.861 406.065,63.811 407.978,63.964 
			408.62,55.918 411.082,56.115 410.441,64.16 412.356,64.311 		"/>
	</g>
</g>
<g>
	<path fill="none" d="M86.148,30.659c0,0-19.792,131.863-15.453,151.664c4.346,19.8-50.242,17.374-63.76-4.837
		c-13.517-22.21,55.062-33.319,55.062-33.319s51.323-11.544,54.101-0.974c4.827,18.356,10.624,28.991,0,31.884
		c-10.624,2.896-9.178-7.243-7.726-18.84c7.243-50.712,9.172-116.884,9.172-116.884"/>
	<g>
		<polygon fill="#010101" stroke="#010101" stroke-width="0.5" points="114.91,45.98 117.597,51.969 115.68,51.861 115.227,59.919 
			112.761,59.78 113.213,51.723 111.295,51.617 		"/>
	</g>
	<g>
		<polygon fill="#010101" stroke="#010101" stroke-width="0.5" points="113.661,71.891 116.225,77.934 114.311,77.786 
			113.692,85.833 111.229,85.644 111.847,77.597 109.932,77.452 		"/>
	</g>
	<g>
		<polygon fill="#010101" stroke="#010101" stroke-width="0.5" points="111.971,97.773 114.401,103.871 112.49,103.681 
			111.694,111.712 109.236,111.469 110.032,103.438 108.12,103.25 		"/>
	</g>
	<g>
		<polygon fill="#010101" stroke="#010101" stroke-width="0.5" points="109.724,123.622 112.048,129.761 110.141,129.539 
			109.208,137.555 106.754,137.27 107.687,129.253 105.779,129.032 		"/>
	</g>
	<g>
		<polygon fill="#010101" stroke="#010101" stroke-width="0.5" points="106.716,149.424 109.009,155.574 107.103,155.342 
			106.127,163.354 103.676,163.055 104.65,155.044 102.743,154.813 		"/>
	</g>
	<g>
		<polygon fill="#010101" stroke="#010101" stroke-width="0.5" points="111.058,178.688 115.775,174.123 116.326,175.962 
			124.057,173.646 124.766,176.013 117.035,178.329 117.588,180.169 		"/>
	</g>
	<g>
		<polygon fill="#010101" stroke="#010101" stroke-width="0.5" points="122.462,156.861 118.033,152.018 119.888,151.519 
			117.792,143.725 120.178,143.084 122.273,150.877 124.128,150.377 		"/>
	</g>
	<g>
		<polygon fill="#010101" stroke="#010101" stroke-width="0.5" points="106.129,136.804 100.199,139.616 100.266,137.697 
			92.201,137.414 92.288,134.945 100.353,135.229 100.418,133.309 		"/>
	</g>
	<g>
		<polygon fill="#010101" stroke="#010101" stroke-width="0.5" points="79.891,138.643 74.5,142.389 74.253,140.484 66.25,141.526 
			65.931,139.077 73.934,138.034 73.684,136.13 		"/>
	</g>
	<g>
		<polygon fill="#010101" stroke="#010101" stroke-width="0.5" points="54.142,143.308 49.06,147.461 48.665,145.582 
			40.767,147.242 40.259,144.825 48.157,143.164 47.759,141.285 		"/>
	</g>
	<g>
		<polygon fill="#010101" stroke="#010101" stroke-width="0.5" points="28.934,150.617 24.472,155.431 23.822,153.624 
			16.228,156.355 15.392,154.031 22.986,151.299 22.333,149.492 		"/>
	</g>
	<g>
		<polygon fill="#010101" stroke="#010101" stroke-width="0.5" points="6.929,164.9 7.479,171.44 5.706,170.704 2.607,178.155 
			0.327,177.207 3.425,169.755 1.65,169.02 		"/>
	</g>
	<g>
		<polygon fill="#010101" stroke="#010101" stroke-width="0.5" points="16.057,188.377 22.604,188.842 21.603,190.479 
			28.488,194.689 27.2,196.797 20.314,192.588 19.313,194.228 		"/>
	</g>
	<g>
		<polygon fill="#010101" stroke="#010101" stroke-width="0.5" points="41.351,197.16 47.395,194.6 47.247,196.514 55.293,197.137 
			55.103,199.599 47.056,198.978 46.91,200.893 		"/>
	</g>
	<g>
		<polygon fill="#010101" stroke="#010101" stroke-width="0.5" points="66.083,191.746 68.409,185.607 69.69,187.037 
			75.701,181.651 77.35,183.491 71.339,188.878 72.623,190.307 		"/>
	</g>
	<g>
		<polygon fill="#010101" stroke="#010101" stroke-width="0.5" points="72.693,166.599 70.114,160.563 72.029,160.705 
			72.627,152.656 75.09,152.84 74.493,160.888 76.409,161.028 		"/>
	</g>
	<g>
		<polygon fill="#010101" stroke="#010101" stroke-width="0.5" points="74.584,140.771 72.238,134.642 74.146,134.857 
			75.053,126.837 77.507,127.115 76.602,135.135 78.51,135.349 		"/>
	</g>
	<g>
		<polygon fill="#010101" stroke="#010101" stroke-width="0.5" points="77.311,114.974 75.087,108.798 76.99,109.052 
			78.055,101.052 80.503,101.377 79.439,109.377 81.344,109.629 		"/>
	</g>
	<g>
		<polygon fill="#010101" stroke="#010101" stroke-width="0.5" points="80.459,89.204 78.31,83.002 80.21,83.278 81.371,75.292 
			83.814,75.647 82.655,83.634 84.556,83.908 		"/>
	</g>
	<g>
		<polygon fill="#010101" stroke="#010101" stroke-width="0.5" points="83.878,63.459 81.778,57.241 83.676,57.532 84.901,49.555 
			87.342,49.93 86.118,57.907 88.017,58.196 		"/>
	</g>
	<g>
		<polygon fill="#010101" stroke="#010101" stroke-width="0.5" points="87.496,37.746 85.457,31.507 87.352,31.816 88.654,23.852 
			91.091,24.25 89.79,32.215 91.686,32.523 		"/>
	</g>
</g>
<g>
	<path fill="none" d="M302.497,40.925c0,0,28.131-12.795,30.692,23.016c2.564,35.806-106.138,21.73-118.929,28.131
		c-12.795,6.395,10.231,85.688-11.514,101.034c-21.746,15.346-21.746,7.676-48.596,5.113c-8.961-47.315,90.802-40.925,90.802-40.925
		s31.976-15.336,39.643,8.962c7.669,24.297-38.372,35.806-38.372,35.806L250.069,0"/>
	<g>
		<polygon fill="#010101" stroke="#010101" stroke-width="0.5" points="247.407,15.489 250.223,21.418 248.304,21.352 
			248.025,29.417 245.557,29.333 245.835,21.267 243.916,21.202 		"/>
	</g>
	<g>
		<polygon fill="#010101" stroke="#010101" stroke-width="0.5" points="246.912,41.475 249.728,47.404 247.809,47.337 
			247.53,55.403 245.062,55.318 245.34,47.252 243.42,47.188 		"/>
	</g>
	<g>
		<polygon fill="#010101" stroke="#010101" stroke-width="0.5" points="246.418,67.46 249.234,73.389 247.315,73.323 
			247.036,81.388 244.568,81.303 244.846,73.237 242.926,73.173 		"/>
	</g>
	<g>
		<polygon fill="#010101" stroke="#010101" stroke-width="0.5" points="245.923,93.445 248.739,99.375 246.82,99.308 
			246.541,107.374 244.073,107.289 244.351,99.223 242.431,99.158 		"/>
	</g>
	<g>
		<polygon fill="#010101" stroke="#010101" stroke-width="0.5" points="245.429,119.431 248.245,125.36 246.326,125.293 
			246.047,133.359 243.579,133.273 243.856,125.208 241.937,125.144 		"/>
	</g>
	<g>
		<polygon fill="#010101" stroke="#010101" stroke-width="0.5" points="244.935,145.415 247.75,151.344 245.832,151.277 
			245.553,159.344 243.084,159.258 243.362,151.192 241.443,151.128 		"/>
	</g>
	<g>
		<polygon fill="#010101" stroke="#010101" stroke-width="0.5" points="244.439,171.4 247.255,177.329 245.336,177.263 
			245.058,185.329 242.589,185.243 242.867,177.178 240.948,177.113 		"/>
	</g>
	<g>
		<polygon fill="#010101" stroke="#010101" stroke-width="0.5" points="241.462,199.195 247.908,200.431 246.72,201.938 
			253.059,206.934 251.531,208.874 245.191,203.88 244.003,205.39 		"/>
	</g>
	<g>
		<polygon fill="#010101" stroke="#010101" stroke-width="0.5" points="267.158,196.207 270.813,190.755 271.737,192.438 
			278.811,188.552 280,190.717 272.927,194.604 273.853,196.286 		"/>
	</g>
	<g>
		<polygon fill="#010101" stroke="#010101" stroke-width="0.5" points="286.127,176.789 283.677,170.7 285.588,170.883 
			286.358,162.849 288.816,163.084 288.048,171.118 289.96,171.3 		"/>
	</g>
	<g>
		<polygon fill="#010101" stroke="#010101" stroke-width="0.5" points="275.283,152.753 268.785,153.68 269.418,151.867 
			261.8,149.204 262.615,146.872 270.233,149.535 270.866,147.721 		"/>
	</g>
	<g>
		<polygon fill="#010101" stroke="#010101" stroke-width="0.5" points="249.075,153.684 243.806,157.598 243.498,155.702 
			235.532,156.995 235.136,154.558 243.102,153.264 242.792,151.368 		"/>
	</g>
	<g>
		<polygon fill="#010101" stroke="#010101" stroke-width="0.5" points="223.443,154.899 217.795,158.243 217.687,156.326 
			209.629,156.783 209.489,154.317 217.547,153.859 217.436,151.941 		"/>
	</g>
	<g>
		<polygon fill="#010101" stroke="#010101" stroke-width="0.5" points="197.384,157.762 192.14,161.708 191.82,159.815 
			183.862,161.157 183.451,158.723 191.409,157.379 191.087,155.485 		"/>
	</g>
	<g>
		<polygon fill="#010101" stroke="#010101" stroke-width="0.5" points="171.473,164.858 168.154,170.521 167.129,168.897 
			160.303,173.202 158.986,171.113 165.812,166.808 164.785,165.184 		"/>
	</g>
	<g>
		<polygon fill="#010101" stroke="#010101" stroke-width="0.5" points="153.477,184.91 155.632,191.11 153.731,190.836 
			152.578,198.823 150.133,198.471 151.286,190.482 149.385,190.21 		"/>
	</g>
	<g>
		<polygon fill="#010101" stroke="#010101" stroke-width="0.5" points="166.5,202.516 172.764,200.552 172.431,202.443 
			180.379,203.842 179.952,206.274 172.003,204.877 171.672,206.769 		"/>
	</g>
	<g>
		<polygon fill="#010101" stroke="#010101" stroke-width="0.5" points="193.359,201.367 196.94,195.866 197.887,197.536 
			204.908,193.557 206.126,195.705 199.106,199.686 200.055,201.356 		"/>
	</g>
	<g>
		<polygon fill="#010101" stroke="#010101" stroke-width="0.5" points="210.991,181.94 210.139,175.433 211.944,176.087 
			214.695,168.499 217.017,169.341 214.267,176.929 216.074,177.582 		"/>
	</g>
	<g>
		<polygon fill="#010101" stroke="#010101" stroke-width="0.5" points="214.736,155.573 211.626,149.792 213.546,149.763 
			213.421,141.692 215.89,141.654 216.017,149.724 217.938,149.692 		"/>
	</g>
	<g>
		<polygon fill="#010101" stroke="#010101" stroke-width="0.5" points="213.583,129.529 210.27,123.863 212.187,123.765 
			211.774,115.705 214.241,115.579 214.654,123.638 216.573,123.538 		"/>
	</g>
	<g>
		<polygon fill="#010101" stroke="#010101" stroke-width="0.5" points="212.909,104.385 211.257,98.032 213.129,98.458 
			214.919,90.588 217.328,91.136 215.539,99.006 217.412,99.43 		"/>
	</g>
	<g>
		<polygon fill="#010101" stroke="#010101" stroke-width="0.5" points="227.725,92.686 233.533,89.628 233.545,91.548 
			241.616,91.495 241.632,93.965 233.562,94.019 233.577,95.94 		"/>
	</g>
	<g>
		<polygon fill="#010101" stroke="#010101" stroke-width="0.5" points="253.695,92.17 259.522,89.149 259.523,91.069 
			267.594,91.065 267.595,93.536 259.524,93.54 259.527,95.46 		"/>
	</g>
	<g>
		<polygon fill="#010101" stroke="#010101" stroke-width="0.5" points="279.772,91.154 285.447,87.855 285.541,89.773 
			293.602,89.381 293.722,91.848 285.661,92.241 285.756,94.159 		"/>
	</g>
	<g>
		<polygon fill="#010101" stroke="#010101" stroke-width="0.5" points="305.78,87.794 311.024,83.847 311.343,85.74 319.301,84.396 
			319.712,86.831 311.755,88.176 312.077,90.07 		"/>
	</g>
	<g>
		<polygon fill="#010101" stroke="#010101" stroke-width="0.5" points="330.772,76.113 330.285,69.568 332.051,70.322 335.221,62.9 
			337.492,63.87 334.323,71.292 336.09,72.045 		"/>
	</g>
	<g>
		<polygon fill="#010101" stroke="#010101" stroke-width="0.5" points="331.652,49.749 326.158,46.157 327.83,45.213 
			323.863,38.185 326.014,36.971 329.981,43.999 331.653,43.053 		"/>
	</g>
	<g>
		<polygon fill="#010101" stroke="#010101" stroke-width="0.5" points="308.129,36.417 303.57,41.14 302.958,39.321 295.31,41.898 
			294.521,39.558 302.168,36.979 301.553,35.16 		"/>
	</g>
</g>
<g>
	<line fill="none" x1="685.28" y1="114.869" x2="666.899" y2="155.938"/>
	<g>
		<polygon fill="#010101" stroke="#010101" stroke-width="0.5" points="674.038,145.778 673.764,139.221 675.504,140.032 
			678.916,132.718 681.154,133.762 677.744,141.076 679.486,141.886 		"/>
	</g>
	<g>
		<polygon fill="#010101" stroke="#010101" stroke-width="0.5" points="684.655,122.056 684.381,115.498 686.122,116.309 
			689.533,108.995 691.771,110.039 688.361,117.354 690.103,118.164 		"/>
	</g>
</g>
<g>
	<path fill="none" d="M621.519,125.398c-2.486,31.079,14.918,26.105,14.918,26.105"/>
	<g>
		<polygon fill="#010101" stroke="#010101" stroke-width="0.5" points="634.72,151.83 628.243,150.77 629.39,149.229 
			622.917,144.409 624.392,142.428 630.866,147.248 632.011,145.706 		"/>
	</g>
	<g>
		<polygon fill="#010101" stroke="#010101" stroke-width="0.5" points="624.386,132.018 621.029,126.378 622.946,126.265 
			622.47,118.208 624.936,118.063 625.413,126.119 627.33,126.004 		"/>
	</g>
</g>
</svg>
