<?xml version="1.0" encoding="utf-8"?>
<!-- Generator: Adobe Illustrator 12.0.0, SVG Export Plug-In . SVG Version: 6.00 Build 51448)  -->
<!DOCTYPE svg PUBLIC "-//W3C//DTD SVG 1.1//EN" "http://www.w3.org/Graphics/SVG/1.1/DTD/svg11.dtd" [
	<!ENTITY ns_svg "http://www.w3.org/2000/svg">
	<!ENTITY ns_xlink "http://www.w3.org/1999/xlink">
]>
<svg  version="1.1" id="Layer_1" xmlns="&ns_svg;" xmlns:xlink="&ns_xlink;" width="472.267" height="82.238"
	 viewBox="0 0 472.267 82.238" overflow="visible" enable-background="new 0 0 472.267 82.238" xml:space="preserve">
<g>
	<g>
		<path fill="none" d="M460.297,42.595c0,0,7.051-4.54,9.154-1.21c2.102,3.332,1.869,6.627-7.793,11.352
			c-8.912,4.36-4.949-9.08-2.475-9.08"/>
		<path d="M458.529,44.362c2.233-1.42,6.575-3.806,8.91-1.537c0.969,0.941,1.413,2.695,1.273,3.991
			c-0.083,0.772-0.479,1.476-0.904,2.106c-1.113,1.651,3.043-2.696,1.207-1.253c-0.661,0.52-1.378,0.966-2.091,1.409
			c-2.3,1.431-8.322,5.159-8.989,0.188c-0.194-1.452,0.202-3,0.685-4.356c0.229-0.644,0.535-1.258,0.895-1.837
			c0.879-1.417,2.327-1.292-2.667,2.56c0.168-0.13,0.36-0.188,0.568-0.209c0.456-0.045,1.481-1.446,1.785-1.75
			c0.277-0.277,1.35-1.746,1.75-1.785c-0.47,0.046-0.787,0.374-1.11,0.688c-1.094,1.057-2.183,2.128-3.227,3.235
			c-1.149,1.218-1.721,2.905-2.061,4.514c-0.321,1.521-0.434,3.616,0.938,4.669c2.112,1.62,6.246-1.402,7.897-2.38
			c2.564-1.519,4.574-3.632,6.644-5.743c1.385-1.413,2.532-2.945,2.163-5.022c-0.974-5.479-6.99-3.02-10.132-1.021
			C460.686,41.704,459.895,43.494,458.529,44.362L458.529,44.362z"/>
	</g>
</g>
<g>
	<g>
		<path fill="none" d="M247.25,34.972c-5.998-1.218-10.686,13.982-10.957,19.592c-0.272,5.61,14.482,6.632,16.617-4.563
			C254.642,40.926,253.248,36.189,247.25,34.972z"/>
		<path d="M249.018,33.204c-4.712-0.564-9.523,7.257-11.161,10.771c-2.054,4.406-6.491,14.146,0.382,16.154
			C251.761,64.079,263.646,36.712,249.018,33.204c-0.878-0.211-2.72,3.731-3.535,3.535c6.755,1.62,6.763,7.952,5.886,13.763
			c-0.243,1.614-0.653,3.09-1.367,4.557c-0.248,0.464-0.531,0.905-0.85,1.324c1.717-2.454,1.626-1.546,0.209-0.745
			c-2.101,1.188-4.672,1.443-7.018,1.082c-5.412-0.835-4.301-5.519-3.299-9.522c0.722-2.885,1.782-5.687,3.114-8.342
			c0.772-1.54,3.47-3.997,0.108-1.24c0.933-0.765,2.046-1.015,3.216-0.875C246.534,36.865,248.025,33.085,249.018,33.204z"/>
	</g>
</g>
<g>
	<g>
		<path fill="none" d="M174.374,14.367c0,0-2.721,48.658-10.375,50.877c-2.223-0.246-5.928,0.248-14.82-0.988
			c-5.678-9.383,12.598-15.561,12.598-15.561l39.271,1.238c0,0,5.188,1.23,3.211,7.16c-1.977,5.932-19.02,8.15-20.252,8.15
			c-1.234,0,3.949-49.393,3.949-49.393"/>
		<path d="M172.606,16.135c-0.636,11.224-1.746,22.49-3.686,33.564c-0.565,3.228-1.26,6.435-2.168,9.584
			c-0.391,1.354-0.871,2.679-1.428,3.974c-1.076,2.501-3.048,2.877,1.052-0.061c-1.674,1.199-7.093,0.106-8.992-0.015
			c-2.748-0.176-6.173,0.35-7.25-2.469c-0.61-1.599-0.192-3.31,0.476-4.798c0.258-0.496,0.559-0.965,0.901-1.407
			c-1.604,2.274-0.507,0.628,0.444-0.042c1.396-0.983,2.932-1.771,4.465-2.514c1.071-0.519,2.64-1.519,3.882-1.479
			c5.617,0.177,11.234,0.354,16.852,0.531c6.554,0.206,13.109,0.413,19.663,0.62c4.83,0.152,8.51,4.294,4.558,9.018
			c1.095-1.101,2.19-2.201,3.285-3.303c-4.407,4.213-12.946,5.871-18.886,6.138c-0.512,0.022,0.417-12.061,0.476-12.806
			c0.967-12.211,2.197-24.405,3.474-36.587c-0.132,1.263-3.398,2.225-3.535,3.535c-1.277,12.183-2.489,24.377-3.474,36.587
			c-0.111,1.376-1.905,11.994-0.475,12.806c1.416,0.804,6.424-1.008,7.866-1.34c3.595-0.828,7.994-1.965,10.774-4.55
			c3.347-3.111,9.539-9.866,2.312-12.838c-0.973-0.399-2.359-0.181-3.377-0.213c-3.416-0.107-6.833-0.216-10.249-0.323
			c-7.478-0.235-14.956-0.472-22.434-0.707c-4.344-0.138-7.009,1.035-10.878,3.393c-2.686,1.636-4.904,3.977-7.058,6.239
			c-1.417,1.488-2.463,3.017-2.838,5.073c-0.805,4.409,2.755,4.533,6.093,4.858c2.664,0.26,8.828,1.571,11.048-0.403
			c1.769-1.573,3.676-3.344,4.847-5.424c4.43-7.866,4.938-18.823,5.978-27.582c0.813-6.84,1.43-13.718,1.819-20.596
			C176.073,13.815,172.678,14.869,172.606,16.135L172.606,16.135z"/>
	</g>
</g>
<g>
	<g>
		<path fill="none" d="M33.438,6.275c0,0-7.695,51.27-6.008,58.969c1.689,7.698-19.535,6.755-24.791-1.881
			s21.408-12.955,21.408-12.955s19.955-4.488,21.035-0.378c1.877,7.137,4.131,11.271,0,12.396s-3.568-2.816-3.004-7.325
			c2.816-19.718,3.566-45.446,3.566-45.446"/>
		<path d="M31.67,8.043c-1.432,9.555-2.725,19.133-3.898,28.723c-0.848,6.925-1.628,13.866-2.111,20.827
			c-0.16,2.3-0.269,4.606-0.229,6.912c0.034,2.02,0.863,3.959-0.666,5.642c1.159-1.156,2.318-2.313,3.477-3.468
			C22.275,71.604,10.266,67.938,5.457,63c-1.135-1.165-1.845-2.612-1.681-4.242c0.056-0.555,0.365-1.064,0.634-1.534
			c-1.646,2.866-1.918,1.664,0.126,0.446c3.42-2.038,7.46-3.136,11.285-4.12c4.922-1.268,10.067-2.199,15.09-2.915
			c3.512-0.5,8.25-1.413,11.593,0.199c1.693,0.817,1.982,5.064,2.452,6.699c0.558,1.941,1.267,4.233-0.165,5.929
			c1.179-1.179,2.357-2.357,3.536-3.536c-5.404,3.574-4.887-3.312-4.482-6.592c0.846-6.843,1.626-13.671,2.177-20.546
			c0.664-8.283,1.142-16.594,1.39-24.9c-0.035,1.186-3.499,2.297-3.535,3.535c-0.233,7.793-0.697,15.582-1.271,23.356
			c-0.469,6.353-1.084,12.693-1.878,19.014c-0.418,3.332-2.935,12.452,3.43,10.089c1.541-0.572,3.032-2.727,4.112-3.888
			c2.398-2.579-0.422-9.448-1.582-12.103c-1.761-4.034-16.358-0.175-19.479,0.453c-9.891,1.993-18.991,4.073-25.922,11.863
			c-5.498,6.18,8.157,11.016,12.08,11.713c6.435,1.144,10.627-0.565,14.817-5.175c2.066-2.273,0.758-8.117,0.913-11.078
			c0.357-6.787,1.157-13.559,1.954-20.306c1.218-10.305,2.617-20.593,4.155-30.854C35.01,5.81,31.872,6.696,31.67,8.043L31.67,8.043
			z"/>
	</g>
</g>
<g>
	<g>
		<path fill="none" d="M127.193,17.68c0,0,10.938-4.975,11.934,8.949c0.996,13.922-41.268,8.449-46.242,10.938
			c-4.975,2.486,3.979,33.316-4.477,39.283s-8.455,2.984-18.895,1.988c-3.484-18.396,35.305-15.912,35.305-15.912
			s12.434-5.963,15.414,3.484c2.982,9.447-14.92,13.922-14.92,13.922l1.496-78.564"/>
		<path d="M125.426,19.447c2.715-1.189,5.892-1.22,8.397,0.441c2.68,1.776,3.24,5.611,3.537,8.508
			c0.1,0.974-0.117,1.905-0.466,2.804c-1.096,2.818,3.144-1.997,0.284-0.227c-4.476,2.771-10.586,3.139-15.684,3.542
			c-5.982,0.474-11.998,0.415-17.994,0.489c-6.076,0.075-13.139,0.658-13.908,8.238c-0.605,5.972,0.526,12.219,0.794,18.19
			c0.232,5.18,0.68,12.034-2.795,16.332c0.583-0.595,1.167-1.189,1.75-1.785c-0.151,0.152-0.303,0.304-0.454,0.455
			c0.595-0.583,1.19-1.166,1.786-1.75c-3.03,2.418-6.39,4.354-10.346,3.883c-2.035-0.242-4.05-0.796-6.073-1.131
			c-1.307-0.216-2.865,0.312-3.103-1.202c-0.16-1.014-0.087-2.039,0.041-3.051c0.174-1.374,0.811-2.633,1.561-3.773
			c-1.311,1.996-1.049,0.98,0.104,0.219c0.64-0.422,1.333-0.762,2.018-1.104c3.256-1.626,6.939-2.401,10.503-2.992
			c5.505-0.914,11.176-1.096,16.747-0.885c1.138,0.043,1.803-0.345,2.917-0.739c3.409-1.205,7.282-1.673,10.529,0.178
			c3.395,1.934,3.884,6.62,2.168,9.736c-1.272,2.309,2.125-1.54-0.143,0.118c-0.735,0.537-1.541,0.979-2.333,1.424
			c-1.671,0.937-3.472,1.647-5.271,2.297c-0.412,0.148-2.917,1.265-2.905,0.638c0.026-1.386,0.053-2.771,0.079-4.157
			c0.271-14.268,0.543-28.534,0.815-42.801c0.199-10.447,0.398-20.895,0.597-31.341c-0.022,1.173-3.512,2.309-3.535,3.535
			c-0.468,24.546-0.935,49.092-1.402,73.638c-0.028,1.446-0.055,2.893-0.083,4.338c-0.023,1.21,1.439,0.174,2.28-0.102
			c5.844-1.913,10.029-5.181,14.197-9.533c2.336-2.44,2.726-5.242,1.546-8.336c-1.586-4.161-6.347-4.572-10.102-3.941
			c-1.476,0.248-3.58,1.636-5,1.553c-1.695-0.099-3.396-0.11-5.093-0.104c-8.759,0.036-19.656,0.586-26.758,6.335
			c-2.097,1.697-4.297,3.869-5.783,6.13c-1.219,1.854-1.424,4.109-1.229,6.259c0.126,1.398,7.33,2.024,9.176,2.333
			c8.148,1.357,15.936-7.862,16.925-15.099c0.792-5.791,0.085-11.819-0.325-17.615c-0.26-3.678-1.563-9.861,0.72-13.149
			c-0.427,0.438-0.854,0.876-1.281,1.315c0.085-0.085,0.169-0.17,0.254-0.255c-0.752,0.74-1.503,1.48-2.255,2.221
			c1.629-1.062,4.236-0.848,6.086-0.916c3.717-0.135,7.442-0.097,11.161-0.153c7.995-0.121,16.89-0.062,24.351-3.315
			c3.623-1.579,8.577-6.082,8.467-10.276c-0.178-6.829-5.206-11.897-11.934-8.949C127.527,16.54,126.834,18.83,125.426,19.447
			L125.426,19.447z"/>
	</g>
</g>
<g>
	<g>
		<line fill="none" x1="390.454" y1="47.912" x2="383.308" y2="69.35"/>
		<path d="M388.687,49.68c-2.383,7.146-4.765,14.292-7.146,21.438c0.466-1.397,3.059-2.105,3.535-3.535
			c2.383-7.146,4.765-14.292,7.146-21.438C391.756,47.542,389.163,48.25,388.687,49.68L388.687,49.68z"/>
	</g>
</g>
<g>
	<g>
		<path fill="none" d="M316.462,39.404c-0.967,12.084,5.8,10.15,5.8,10.15"/>
		<path d="M314.694,41.172c-0.236,3.4,0.188,11.69,5.8,10.15c0.561-0.153,1.392-1.356,1.785-1.75
			c0.368-0.367,1.237-1.645,1.75-1.785c-5.612,1.54-6.035-6.75-5.8-10.15c-0.026,0.381-1.521,1.486-1.785,1.75
			C316.154,39.676,314.725,40.734,314.694,41.172L314.694,41.172z"/>
	</g>
</g>
</svg>
