<?xml version="1.0" encoding="utf-8"?>
<!-- Generator: Adobe Illustrator 12.0.0, SVG Export Plug-In . SVG Version: 6.00 Build 51448)  -->
<!DOCTYPE svg PUBLIC "-//W3C//DTD SVG 1.1//EN" "http://www.w3.org/Graphics/SVG/1.1/DTD/svg11.dtd" [
	<!ENTITY ns_svg "http://www.w3.org/2000/svg">
	<!ENTITY ns_xlink "http://www.w3.org/1999/xlink">
]>
<svg  version="1.1" id="Layer_1" xmlns="&ns_svg;" xmlns:xlink="&ns_xlink;" width="980.479" height="588.648"
	 viewBox="0 0 980.479 588.648" overflow="visible" enable-background="new 0 0 980.479 588.648" xml:space="preserve">
<g>
	<path fill="none" d="M34.641,121.06c9.591,0,43.16,1.592,44.761,17.587c1.602,15.999-35.17,20.801-44.761,23.979
		c-9.596,3.203-30.379,7.989-19.186-12.795C26.639,129.054,25.045,121.06,34.641,121.06z M34.641,121.06
		c0,0,59.15,20.79,79.938,17.587c20.795-3.211,54.371-12.796,71.956-4.798c17.586,8.001-59.161,51.153-59.161,51.153L122.581,4.338"
		/>
	<g>
		<polygon fill="#010101" stroke="#010101" stroke-width="0.5" points="120.112,0.525 123.195,6.32 121.275,6.341 121.364,14.411 
			118.894,14.438 118.804,6.369 116.884,6.392 		"/>
	</g>
	<g>
		<polygon fill="#010101" stroke="#010101" stroke-width="0.5" points="120.801,26.506 123.884,32.301 121.964,32.322 
			122.053,40.392 119.583,40.419 119.494,32.349 117.573,32.372 		"/>
	</g>
	<g>
		<polygon fill="#010101" stroke="#010101" stroke-width="0.5" points="121.49,52.486 124.573,58.281 122.653,58.302 
			122.742,66.372 120.272,66.399 120.182,58.33 118.262,58.353 		"/>
	</g>
	<g>
		<polygon fill="#010101" stroke="#010101" stroke-width="0.5" points="122.179,78.469 125.262,84.264 123.342,84.285 
			123.431,92.354 120.961,92.382 120.872,84.312 118.951,84.335 		"/>
	</g>
	<g>
		<polygon fill="#010101" stroke="#010101" stroke-width="0.5" points="122.869,104.449 125.952,110.244 124.032,110.265 
			124.121,118.335 121.651,118.362 121.561,110.292 119.641,110.315 		"/>
	</g>
	<g>
		<polygon fill="#010101" stroke="#010101" stroke-width="0.5" points="123.558,130.43 126.641,136.225 124.721,136.246 
			124.81,144.315 122.34,144.343 122.25,136.273 120.33,136.296 		"/>
	</g>
	<g>
		<polygon fill="#010101" stroke="#010101" stroke-width="0.5" points="124.248,156.41 127.331,162.205 125.411,162.226 
			125.5,170.296 123.03,170.323 122.94,162.253 121.02,162.276 		"/>
	</g>
	<g>
		<polygon fill="#010101" stroke="#010101" stroke-width="0.5" points="123.863,181.667 130.419,181.987 129.454,183.647 
			136.43,187.705 135.188,189.84 128.211,185.783 127.247,187.444 		"/>
	</g>
	<g>
		<polygon fill="#010101" stroke="#010101" stroke-width="0.5" points="148.619,174.985 152.017,169.369 153.018,171.007 
			159.904,166.797 161.192,168.904 154.307,173.115 155.311,174.753 		"/>
	</g>
	<g>
		<polygon fill="#010101" stroke="#010101" stroke-width="0.5" points="170.296,160.317 173.197,154.429 174.336,155.975 
			180.833,151.188 182.298,153.176 175.802,157.964 176.942,159.509 		"/>
	</g>
	<g>
		<polygon fill="#010101" stroke="#010101" stroke-width="0.5" points="188.384,141.736 186.212,135.542 188.113,135.811 
			189.245,127.82 191.69,128.167 190.559,136.157 192.461,136.425 		"/>
	</g>
	<g>
		<polygon fill="#010101" stroke="#010101" stroke-width="0.5" points="168.504,128.877 162.616,131.779 162.655,129.859 
			154.586,129.698 154.635,127.228 162.704,127.389 162.741,125.469 		"/>
	</g>
	<g>
		<polygon fill="#010101" stroke="#010101" stroke-width="0.5" points="142.291,131.292 136.943,135.097 136.674,133.196 
			128.683,134.325 128.337,131.879 136.328,130.75 136.058,128.848 		"/>
	</g>
	<g>
		<polygon fill="#010101" stroke="#010101" stroke-width="0.5" points="116.927,135.629 111.283,138.98 111.171,137.063 
			103.115,137.529 102.972,135.063 111.029,134.597 110.916,132.679 		"/>
	</g>
	<g>
		<polygon fill="#010101" stroke="#010101" stroke-width="0.5" points="91.747,134.31 85.409,136.017 85.818,134.141 
			77.933,132.419 78.46,130.006 86.345,131.727 86.753,129.85 		"/>
	</g>
	<g>
		<polygon fill="#010101" stroke="#010101" stroke-width="0.5" points="66.617,128.411 60.177,129.682 60.714,127.838 
			52.965,125.584 53.655,123.212 61.404,125.466 61.939,123.621 		"/>
	</g>
	<g>
		<polygon fill="#010101" stroke="#010101" stroke-width="0.5" points="41.854,120.999 35.351,121.891 35.994,120.082 
			28.39,117.378 29.218,115.051 36.822,117.754 37.464,115.943 		"/>
	</g>
	<g>
		<polygon fill="#010101" stroke="#010101" stroke-width="0.5" points="22.883,128.582 22.96,135.145 21.245,134.282 
			17.617,141.491 15.41,140.38 19.038,133.171 17.321,132.309 		"/>
	</g>
	<g>
		<polygon fill="#010101" stroke="#010101" stroke-width="0.5" points="12.213,152.702 13.485,159.141 11.642,158.605 
			9.388,166.354 7.017,165.665 9.269,157.916 7.424,157.381 		"/>
	</g>
	<g>
		<polygon fill="#010101" stroke="#010101" stroke-width="0.5" points="29.305,166.451 34.262,162.148 34.713,164.015 
			42.558,162.121 43.138,164.521 35.292,166.416 35.745,168.283 		"/>
	</g>
	<g>
		<polygon fill="#010101" stroke="#010101" stroke-width="0.5" points="54.49,159.813 59.342,155.393 59.837,157.248 
			67.635,155.166 68.272,157.552 60.475,159.635 60.972,161.49 		"/>
	</g>
	<g>
		<polygon fill="#010101" stroke="#010101" stroke-width="0.5" points="78.102,146.619 78.081,140.055 79.789,140.932 
			83.478,133.754 85.675,134.884 81.986,142.062 83.696,142.938 		"/>
	</g>
	<g>
		<polygon fill="#010101" stroke="#010101" stroke-width="0.5" points="67.612,124.38 61.068,124.887 61.816,123.119 
			54.385,119.972 55.349,117.697 62.78,120.844 63.528,119.075 		"/>
	</g>
	<g>
		<polygon fill="#010101" stroke="#010101" stroke-width="0.5" points="41.557,119.01 35.554,121.665 35.672,119.749 
			27.617,119.251 27.769,116.787 35.824,117.283 35.94,115.365 		"/>
	</g>
</g>
<g>
	<path fill="none" d="M304.841,128.189c0,0,19.841-10.753,27.957-5.169c8.115,5.571,8.673,22.07,2.88,26.527
		c-5.796,4.448-24.274,6.055-40.513,12.753c-16.238,6.688,91.555-6.067,115.911-0.496c24.355,5.571,39.725-12.913,43.204-27.41
		c3.479-14.5-3.781-21.643-20.018-21.643c-16.227,0-22.024,8.913-22.024,8.913"/>
	<g>
		<polygon fill="#010101" stroke="#010101" stroke-width="0.5" points="426.748,116.501 432.015,112.584 432.324,114.479 
			440.289,113.182 440.686,115.62 432.72,116.918 433.032,118.813 		"/>
	</g>
	<g>
		<polygon fill="#010101" stroke="#010101" stroke-width="0.5" points="449.523,118.338 454.421,122.707 452.628,123.392 
			455.505,130.932 453.198,131.813 450.32,124.272 448.526,124.959 		"/>
	</g>
	<g>
		<polygon fill="#010101" stroke="#010101" stroke-width="0.5" points="449.005,140.957 448.319,147.484 446.716,146.428 
			442.275,153.167 440.212,151.808 444.653,145.068 443.047,144.013 		"/>
	</g>
	<g>
		<polygon fill="#010101" stroke="#010101" stroke-width="0.5" points="432.346,158.082 427.267,162.24 426.871,160.361 
			418.974,162.028 418.464,159.612 426.36,157.944 425.961,156.065 		"/>
	</g>
	<g>
		<polygon fill="#010101" stroke="#010101" stroke-width="0.5" points="407.284,159.078 401.166,161.456 401.372,159.546 
			393.347,158.682 393.612,156.226 401.636,157.09 401.84,155.18 		"/>
	</g>
	<g>
		<polygon fill="#010101" stroke="#010101" stroke-width="0.5" points="381.056,158.094 375.266,161.185 375.242,159.265 
			367.172,159.365 367.142,156.895 375.211,156.794 375.186,154.874 		"/>
	</g>
	<g>
		<polygon fill="#010101" stroke="#010101" stroke-width="0.5" points="355.031,159.149 349.318,162.38 349.248,160.461 
			341.183,160.758 341.092,158.29 349.157,157.993 349.084,156.073 		"/>
	</g>
	<g>
		<polygon fill="#010101" stroke="#010101" stroke-width="0.5" points="329.078,160.622 323.372,163.867 323.297,161.948 
			315.232,162.264 315.136,159.795 323.2,159.479 323.123,157.56 		"/>
	</g>
	<g>
		<polygon fill="#010101" stroke="#010101" stroke-width="0.5" points="303.261,161.766 297.37,164.661 297.411,162.742 
			289.342,162.57 289.394,160.101 297.463,160.271 297.502,158.351 		"/>
	</g>
	<g>
		<polygon fill="#010101" stroke="#010101" stroke-width="0.5" points="311.226,159.768 316.068,155.336 316.568,157.19 
			324.36,155.091 325.003,157.476 317.21,159.576 317.712,161.431 		"/>
	</g>
	<g>
		<polygon fill="#010101" stroke="#010101" stroke-width="0.5" points="335.094,150.135 337.374,143.98 338.666,145.4 
			344.637,139.97 346.298,141.797 340.329,147.228 341.623,148.647 		"/>
	</g>
	<g>
		<polygon fill="#010101" stroke="#010101" stroke-width="0.5" points="336.539,124.177 330.025,123.363 331.113,121.781 
			324.462,117.209 325.862,115.174 332.513,119.745 333.6,118.161 		"/>
	</g>
	<g>
		<polygon fill="#010101" stroke="#010101" stroke-width="0.5" points="309.904,123.05 305.933,128.276 305.11,126.541 297.818,130 
			296.76,127.77 304.051,124.309 303.226,122.574 		"/>
	</g>
</g>
<g>
	<path fill="none" d="M311.343,501.567c9.59,0,43.16,1.591,44.76,17.589c1.602,15.995-35.17,20.802-44.76,23.976
		c-9.597,3.207-30.38,7.989-19.187-12.792C303.341,509.564,301.747,501.567,311.343,501.567z M311.343,501.567
		c0,0,59.148,20.789,79.938,17.589c20.795-3.211,54.371-12.795,71.957-4.802c17.585,8.002-59.162,51.156-59.162,51.156
		l-4.793-180.664"/>
	<g>
		<polygon fill="#010101" stroke="#010101" stroke-width="0.5" points="396.814,381.038 399.898,386.832 397.978,386.854 
			398.066,394.924 395.596,394.951 395.507,386.881 393.585,386.903 		"/>
	</g>
	<g>
		<polygon fill="#010101" stroke="#010101" stroke-width="0.5" points="397.503,407.019 400.587,412.813 398.667,412.834 
			398.755,420.904 396.286,420.932 396.197,412.861 394.275,412.884 		"/>
	</g>
	<g>
		<polygon fill="#010101" stroke="#010101" stroke-width="0.5" points="398.193,433.001 401.277,438.795 399.357,438.816 
			399.445,446.887 396.975,446.914 396.886,438.844 394.964,438.866 		"/>
	</g>
	<g>
		<polygon fill="#010101" stroke="#010101" stroke-width="0.5" points="398.882,458.981 401.964,464.775 400.044,464.797 
			400.133,472.867 397.664,472.895 397.574,464.824 395.654,464.847 		"/>
	</g>
	<g>
		<polygon fill="#010101" stroke="#010101" stroke-width="0.5" points="399.572,484.962 402.654,490.756 400.734,490.777 
			400.823,498.848 398.353,498.875 398.263,490.805 396.343,490.827 		"/>
	</g>
	<g>
		<polygon fill="#010101" stroke="#010101" stroke-width="0.5" points="400.261,510.942 403.343,516.736 401.423,516.758 
			401.512,524.828 399.042,524.855 398.953,516.785 397.033,516.808 		"/>
	</g>
	<g>
		<polygon fill="#010101" stroke="#010101" stroke-width="0.5" points="400.949,536.923 404.033,542.717 402.113,542.738 
			402.201,550.809 399.731,550.836 399.642,542.766 397.72,542.788 		"/>
	</g>
	<g>
		<polygon fill="#010101" stroke="#010101" stroke-width="0.5" points="400.567,562.174 407.123,562.495 406.158,564.154 
			413.133,568.213 411.892,570.348 404.916,566.29 403.951,567.951 		"/>
	</g>
	<g>
		<polygon fill="#010101" stroke="#010101" stroke-width="0.5" points="425.323,555.493 428.72,549.877 429.722,551.515 
			436.607,547.305 437.896,549.412 431.011,553.623 432.015,555.261 		"/>
	</g>
	<g>
		<polygon fill="#010101" stroke="#010101" stroke-width="0.5" points="447,540.823 449.901,534.936 451.04,536.481 
			457.537,531.694 459.002,533.683 452.505,538.471 453.646,540.016 		"/>
	</g>
	<g>
		<polygon fill="#010101" stroke="#010101" stroke-width="0.5" points="465.084,522.241 462.914,516.047 464.814,516.316 
			465.946,508.326 468.392,508.672 467.26,516.663 469.163,516.931 		"/>
	</g>
	<g>
		<polygon fill="#010101" stroke="#010101" stroke-width="0.5" points="445.208,509.385 439.321,512.287 439.359,510.368 
			431.291,510.206 431.339,507.737 439.409,507.897 439.445,505.977 		"/>
	</g>
	<g>
		<polygon fill="#010101" stroke="#010101" stroke-width="0.5" points="418.993,511.802 413.644,515.606 413.375,513.705 
			405.384,514.835 405.039,512.389 413.03,511.259 412.759,509.357 		"/>
	</g>
	<g>
		<polygon fill="#010101" stroke="#010101" stroke-width="0.5" points="393.628,516.14 387.984,519.49 387.873,517.573 
			379.816,518.039 379.673,515.573 387.73,515.106 387.618,513.189 		"/>
	</g>
	<g>
		<polygon fill="#010101" stroke="#010101" stroke-width="0.5" points="368.45,514.82 362.112,516.526 362.521,514.65 
			354.636,512.929 355.163,510.516 363.048,512.236 363.456,510.359 		"/>
	</g>
	<g>
		<polygon fill="#010101" stroke="#010101" stroke-width="0.5" points="343.319,508.918 336.88,510.189 337.416,508.346 
			329.667,506.091 330.357,503.72 338.106,505.973 338.641,504.128 		"/>
	</g>
	<g>
		<polygon fill="#010101" stroke="#010101" stroke-width="0.5" points="318.556,501.509 312.053,502.401 312.697,500.592 
			305.092,497.889 305.92,495.562 313.524,498.265 314.166,496.454 		"/>
	</g>
	<g>
		<polygon fill="#010101" stroke="#010101" stroke-width="0.5" points="299.584,509.09 299.661,515.653 297.946,514.79 
			294.317,521.999 292.111,520.889 295.739,513.679 294.022,512.817 		"/>
	</g>
	<g>
		<polygon fill="#010101" stroke="#010101" stroke-width="0.5" points="288.916,533.209 290.188,539.648 288.344,539.112 
			286.09,546.862 283.719,546.173 285.971,538.423 284.126,537.889 		"/>
	</g>
	<g>
		<polygon fill="#010101" stroke="#010101" stroke-width="0.5" points="306.008,546.957 310.965,542.654 311.416,544.521 
			319.261,542.627 319.84,545.028 311.996,546.923 312.448,548.79 		"/>
	</g>
	<g>
		<polygon fill="#010101" stroke="#010101" stroke-width="0.5" points="331.19,540.321 336.042,535.901 336.538,537.756 
			344.335,535.675 344.972,538.061 337.175,540.144 337.672,541.999 		"/>
	</g>
	<g>
		<polygon fill="#010101" stroke="#010101" stroke-width="0.5" points="354.802,527.128 354.782,520.563 356.489,521.441 
			360.179,514.264 362.375,515.394 358.687,522.571 360.396,523.448 		"/>
	</g>
	<g>
		<polygon fill="#010101" stroke="#010101" stroke-width="0.5" points="344.316,504.888 337.772,505.395 338.521,503.627 
			331.089,500.479 332.053,498.204 339.484,501.352 340.232,499.582 		"/>
	</g>
	<g>
		<polygon fill="#010101" stroke="#010101" stroke-width="0.5" points="318.259,499.517 312.256,502.171 312.374,500.255 
			304.319,499.758 304.471,497.293 312.526,497.788 312.643,495.871 		"/>
	</g>
</g>
<g>
	<line fill="none" x1="292.983" y1="579.476" x2="420.66" y2="583.231"/>
	<g>
		<polygon fill="#010101" stroke="#010101" stroke-width="0.5" points="403.779,580.367 397.822,583.121 397.908,581.203 
			389.845,580.841 389.957,578.373 398.019,578.735 398.103,576.815 		"/>
	</g>
	<g>
		<polygon fill="#010101" stroke="#010101" stroke-width="0.5" points="377.8,579.604 371.843,582.357 371.929,580.439 
			363.867,580.077 363.978,577.609 372.041,577.972 372.125,576.052 		"/>
	</g>
	<g>
		<polygon fill="#010101" stroke="#010101" stroke-width="0.5" points="351.822,578.839 345.864,581.593 345.951,579.675 
			337.888,579.313 337.999,576.845 346.062,577.207 346.146,575.287 		"/>
	</g>
	<g>
		<polygon fill="#010101" stroke="#010101" stroke-width="0.5" points="325.844,578.075 319.886,580.829 319.972,578.911 
			311.91,578.549 312.021,576.081 320.083,576.443 320.167,574.523 		"/>
	</g>
	<g>
		<polygon fill="#010101" stroke="#010101" stroke-width="0.5" points="299.865,577.311 293.907,580.064 293.994,578.146 
			285.931,577.784 286.042,575.316 294.104,575.679 294.189,573.759 		"/>
	</g>
</g>
<g>
	<line fill="none" x1="591.271" y1="169.426" x2="718.947" y2="173.182"/>
	<g>
		<polygon fill="#010101" stroke="#010101" stroke-width="0.5" points="702.066,170.318 696.109,173.073 696.195,171.155 
			688.133,170.792 688.244,168.325 696.307,168.687 696.391,166.767 		"/>
	</g>
	<g>
		<polygon fill="#010101" stroke="#010101" stroke-width="0.5" points="676.088,169.553 670.131,172.307 670.217,170.389 
			662.154,170.026 662.266,167.559 670.328,167.921 670.412,166.001 		"/>
	</g>
	<g>
		<polygon fill="#010101" stroke="#010101" stroke-width="0.5" points="650.109,168.789 644.15,171.543 644.238,169.625 
			636.176,169.263 636.285,166.795 644.348,167.157 644.434,165.238 		"/>
	</g>
	<g>
		<polygon fill="#010101" stroke="#010101" stroke-width="0.5" points="624.131,168.025 618.172,170.78 618.26,168.862 
			610.197,168.499 610.307,166.032 618.369,166.394 618.455,164.474 		"/>
	</g>
	<g>
		<polygon fill="#010101" stroke="#010101" stroke-width="0.5" points="598.152,167.26 592.193,170.014 592.281,168.096 
			584.219,167.733 584.328,165.266 592.391,165.628 592.477,163.708 		"/>
	</g>
</g>
<g>
	<g>
		<path fill="none" d="M599.674,56.635c0,0-55.102,30.752-53.213,60.82c1.883,30.072,7.912,61.572,28.506,57.009
			c7.932-4.07,17.666-9.417,24.707-15.205c10.959-15.635,19.063-22.616,6.1-42.778c-6.137-9.54-37.445,23.047-37.445,23.047"/>
		<g>
			<polygon fill="#010101" stroke="#010101" stroke-width="0.5" points="577.35,133.942 579.877,127.884 581.109,129.355 
				587.295,124.171 588.881,126.063 582.697,131.249 583.934,132.72 			"/>
		</g>
		<g>
			<polygon fill="#010101" stroke="#010101" stroke-width="0.5" points="596.604,119.283 601.971,115.504 602.23,117.406 
				610.227,116.316 610.561,118.764 602.564,119.854 602.824,121.757 			"/>
		</g>
		<g>
			<polygon fill="#010101" stroke="#010101" stroke-width="0.5" points="609.436,131.438 612.285,137.352 610.367,137.296 
				610.133,145.363 607.664,145.292 607.896,137.224 605.977,137.17 			"/>
		</g>
		<g>
			<polygon fill="#010101" stroke="#010101" stroke-width="0.5" points="601.574,153.679 599.445,159.887 598.119,158.499 
				592.281,164.072 590.576,162.286 596.412,156.712 595.084,155.324 			"/>
		</g>
		<g>
			<polygon fill="#010101" stroke="#010101" stroke-width="0.5" points="581.109,168.396 577.365,173.789 576.469,172.091 
				569.334,175.861 568.18,173.678 575.314,169.907 574.416,168.209 			"/>
		</g>
		<g>
			<polygon fill="#010101" stroke="#010101" stroke-width="0.5" points="561.584,166.635 555.91,163.335 557.529,162.306 
				553.201,155.494 555.285,154.169 559.615,160.98 561.236,159.948 			"/>
		</g>
		<g>
			<polygon fill="#010101" stroke="#010101" stroke-width="0.5" points="552.113,143.813 548.197,138.546 550.092,138.237 
				548.795,130.272 551.232,129.875 552.531,137.84 554.426,137.53 			"/>
		</g>
		<g>
			<polygon fill="#010101" stroke="#010101" stroke-width="0.5" points="549.795,118.823 547.338,112.737 549.248,112.917 
				550.008,104.883 552.467,105.115 551.709,113.15 553.621,113.329 			"/>
		</g>
		<g>
			<polygon fill="#010101" stroke="#010101" stroke-width="0.5" points="557.152,95.977 558.508,89.555 559.994,90.771 
				565.105,84.526 567.018,86.091 561.906,92.336 563.393,93.551 			"/>
		</g>
		<g>
			<polygon fill="#010101" stroke="#010101" stroke-width="0.5" points="574.568,77.472 577.137,71.432 578.359,72.911 
				584.58,67.769 586.152,69.672 579.934,74.815 581.16,76.294 			"/>
		</g>
		<g>
			<polygon fill="#010101" stroke="#010101" stroke-width="0.5" points="595.055,62.177 598.578,56.639 599.543,58.299 
				606.521,54.247 607.762,56.382 600.783,60.436 601.75,62.096 			"/>
		</g>
	</g>
	<g>
		<path fill="none" d="M698.547,118.192c0,0,21.934-17.875,36-5.979c17.799,15.061,16.895,57.656-30.646,56.11
			c-41.119-1.339-12.941-50.111-3.213-50.111"/>
		<g>
			<polygon fill="#010101" stroke="#010101" stroke-width="0.5" points="694.766,120.071 692.41,126.198 691.137,124.762 
				685.1,130.119 683.461,128.272 689.496,122.914 688.221,121.479 			"/>
		</g>
		<g>
			<polygon fill="#010101" stroke="#010101" stroke-width="0.5" points="680.82,143.458 683.453,149.47 681.537,149.345 
				681.012,157.398 678.547,157.237 679.072,149.184 677.154,149.061 			"/>
		</g>
		<g>
			<polygon fill="#010101" stroke="#010101" stroke-width="0.5" points="691.564,167.387 698.004,166.121 697.467,167.963 
				705.215,170.224 704.523,172.595 696.775,170.335 696.238,172.18 			"/>
		</g>
		<g>
			<polygon fill="#010101" stroke="#010101" stroke-width="0.5" points="717.949,168.419 723.271,164.579 723.553,166.479 
				731.537,165.296 731.898,167.74 723.914,168.922 724.197,170.822 			"/>
		</g>
		<g>
			<polygon fill="#010101" stroke="#010101" stroke-width="0.5" points="740.314,154.872 741.207,148.369 742.777,149.476 
				747.43,142.881 749.447,144.305 744.795,150.9 746.367,152.006 			"/>
		</g>
		<g>
			<polygon fill="#010101" stroke="#010101" stroke-width="0.5" points="746.701,128.261 741.785,123.91 743.576,123.219 
				740.672,115.689 742.977,114.8 745.883,122.33 747.674,121.636 			"/>
		</g>
		<g>
			<polygon fill="#010101" stroke="#010101" stroke-width="0.5" points="729.166,106.346 723.125,108.916 723.271,107.001 
				715.223,106.392 715.41,103.929 723.457,104.538 723.6,102.623 			"/>
		</g>
		<g>
			<polygon fill="#010101" stroke="#010101" stroke-width="0.5" points="702.713,112.303 699.639,118.102 698.545,116.523 
				691.908,121.113 690.504,119.082 697.141,114.491 696.045,112.912 			"/>
		</g>
	</g>
</g>
<g>
	<g>
		<path fill="none" d="M24.373,300.868c0,0,21.937-14.953,35.998-4.997c17.801,12.588,16.894,48.227-30.646,46.932
			c-41.121-1.118-12.941-41.922-3.212-41.922"/>
		<g>
			<polygon fill="#010101" stroke="#010101" stroke-width="0.5" points="12.595,310.843 11.788,317.357 10.205,316.271 
				5.639,322.927 3.603,321.529 8.167,314.874 6.582,313.789 			"/>
		</g>
		<g>
			<polygon fill="#010101" stroke="#010101" stroke-width="0.5" points="9.482,338.08 16.008,338.782 14.948,340.383 
				21.676,344.841 20.312,346.899 13.583,342.443 12.524,344.045 			"/>
		</g>
		<g>
			<polygon fill="#010101" stroke="#010101" stroke-width="0.5" points="35.598,344.387 41.02,340.688 41.251,342.594 
				49.263,341.621 49.561,344.073 41.549,345.046 41.783,346.953 			"/>
		</g>
		<g>
			<polygon fill="#010101" stroke="#010101" stroke-width="0.5" points="60.991,336.911 64.167,331.168 65.232,332.766 
				71.949,328.292 73.318,330.348 66.602,334.822 67.668,336.42 			"/>
		</g>
		<g>
			<polygon fill="#010101" stroke="#010101" stroke-width="0.5" points="72.372,312.944 68.396,307.723 70.287,307.393 
				68.898,299.442 71.332,299.018 72.721,306.967 74.613,306.635 			"/>
		</g>
		<g>
			<polygon fill="#010101" stroke="#010101" stroke-width="0.5" points="55.625,290.462 49.607,293.083 49.736,291.168 
				41.684,290.626 41.85,288.162 49.902,288.703 50.029,286.786 			"/>
		</g>
		<g>
			<polygon fill="#010101" stroke="#010101" stroke-width="0.5" points="29.006,295.34 25.467,300.867 24.507,299.204 
				17.517,303.238 16.282,301.099 23.272,297.064 22.311,295.401 			"/>
		</g>
	</g>
	<g>
		<path fill="none" d="M73.663,341.993c17.549-0.732,47.494-1.701,71.85,3.871c24.356,5.571,39.728-12.914,43.206-27.406
			c3.477-14.505-3.781-21.647-20.014-21.647"/>
		<g>
			<polygon fill="#010101" stroke="#010101" stroke-width="0.5" points="169.514,299.364 175.817,297.531 175.445,299.415 
				183.363,300.978 182.884,303.4 174.966,301.839 174.596,303.724 			"/>
		</g>
		<g>
			<polygon fill="#010101" stroke="#010101" stroke-width="0.5" points="186.328,310.351 189.274,316.216 187.354,316.192 
				187.253,324.262 184.784,324.231 184.884,316.161 182.963,316.14 			"/>
		</g>
		<g>
			<polygon fill="#010101" stroke="#010101" stroke-width="0.5" points="178.354,332.319 176.622,338.65 175.21,337.35 
				169.739,343.282 167.923,341.607 173.394,335.674 171.98,334.373 			"/>
		</g>
		<g>
			<polygon fill="#010101" stroke="#010101" stroke-width="0.5" points="158.185,343.578 152.292,346.469 152.334,344.549 
				144.265,344.372 144.319,341.903 152.388,342.079 152.428,340.158 			"/>
		</g>
		<g>
			<polygon fill="#010101" stroke="#010101" stroke-width="0.5" points="132.647,341.639 126.418,343.709 126.719,341.813 
				118.748,340.549 119.134,338.109 127.105,339.372 127.404,337.475 			"/>
		</g>
		<g>
			<polygon fill="#010101" stroke="#010101" stroke-width="0.5" points="106.528,339.435 100.565,342.179 100.654,340.261 
				92.593,339.884 92.708,337.417 100.77,337.793 100.857,335.874 			"/>
		</g>
		<g>
			<polygon fill="#010101" stroke="#010101" stroke-width="0.5" points="80.413,339.446 74.619,342.53 74.597,340.61 66.527,340.7 
				66.5,338.23 74.569,338.14 74.546,336.219 			"/>
		</g>
	</g>
</g>
<g>
	<path fill="none" d="M286.832,292.473c0,0,21.932-14.952,35.993-5.001c17.807,12.596,16.898,48.227-30.642,46.937
		c-41.124-1.123-12.943-41.923-3.216-41.923"/>
	<g>
		<polygon fill="#010101" stroke="#010101" stroke-width="0.5" points="275.051,302.448 274.244,308.962 272.661,307.876 
			268.096,314.531 266.059,313.135 270.624,306.479 269.038,305.394 		"/>
	</g>
	<g>
		<polygon fill="#010101" stroke="#010101" stroke-width="0.5" points="271.942,329.682 278.468,330.385 277.408,331.985 
			284.135,336.442 282.771,338.502 276.043,334.045 274.983,335.646 		"/>
	</g>
	<g>
		<polygon fill="#010101" stroke="#010101" stroke-width="0.5" points="298.058,335.991 303.479,332.292 303.711,334.198 
			311.723,333.226 312.021,335.677 304.009,336.65 304.243,338.558 		"/>
	</g>
	<g>
		<polygon fill="#010101" stroke="#010101" stroke-width="0.5" points="323.451,328.516 326.628,322.772 327.692,324.37 
			334.409,319.896 335.778,321.951 329.062,326.427 330.128,328.024 		"/>
	</g>
	<g>
		<polygon fill="#010101" stroke="#010101" stroke-width="0.5" points="334.83,304.551 330.853,299.329 332.744,298.998 
			331.355,291.048 333.788,290.623 335.178,298.573 337.07,298.24 		"/>
	</g>
	<g>
		<polygon fill="#010101" stroke="#010101" stroke-width="0.5" points="318.083,282.063 312.066,284.685 312.195,282.769 
			304.143,282.229 304.308,279.764 312.36,280.304 312.487,278.387 		"/>
	</g>
	<g>
		<polygon fill="#010101" stroke="#010101" stroke-width="0.5" points="291.465,286.944 287.927,292.472 286.967,290.81 
			279.977,294.843 278.742,292.704 285.732,288.669 284.77,287.006 		"/>
	</g>
</g>
<g>
	<line fill="none" x1="307.409" y1="337.863" x2="435.088" y2="341.62"/>
	<g>
		<polygon fill="#010101" stroke="#010101" stroke-width="0.5" points="418.204,338.756 412.246,341.51 412.332,339.592 
			404.269,339.229 404.38,336.762 412.443,337.124 412.527,335.205 		"/>
	</g>
	<g>
		<polygon fill="#010101" stroke="#010101" stroke-width="0.5" points="392.225,337.992 386.267,340.746 386.353,338.828 
			378.291,338.466 378.402,335.998 386.464,336.36 386.548,334.441 		"/>
	</g>
	<g>
		<polygon fill="#010101" stroke="#010101" stroke-width="0.5" points="366.247,337.227 360.289,339.98 360.375,338.063 
			352.313,337.7 352.423,335.232 360.486,335.595 360.57,333.676 		"/>
	</g>
	<g>
		<polygon fill="#010101" stroke="#010101" stroke-width="0.5" points="340.268,336.463 334.31,339.217 334.396,337.299 
			326.334,336.937 326.445,334.469 334.507,334.831 334.591,332.912 		"/>
	</g>
	<g>
		<polygon fill="#010101" stroke="#010101" stroke-width="0.5" points="314.29,335.699 308.332,338.453 308.417,336.535 
			300.355,336.173 300.466,333.705 308.529,334.067 308.613,332.148 		"/>
	</g>
</g>
<g>
	<path fill="none" d="M418.902,297.87c0,0,21.933-14.953,35.998-5.002c17.802,12.596,16.894,48.227-30.649,46.937
		c-41.117-1.122-12.938-41.919-3.211-41.919"/>
	<g>
		<polygon fill="#010101" stroke="#010101" stroke-width="0.5" points="407.122,307.848 406.315,314.362 404.731,313.276 
			400.166,319.931 398.129,318.534 402.694,311.878 401.109,310.793 		"/>
	</g>
	<g>
		<polygon fill="#010101" stroke="#010101" stroke-width="0.5" points="404.014,335.081 410.541,335.784 409.48,337.385 
			416.208,341.843 414.843,343.901 408.115,339.444 407.055,341.047 		"/>
	</g>
	<g>
		<polygon fill="#010101" stroke="#010101" stroke-width="0.5" points="430.127,341.388 435.549,337.688 435.781,339.595 
			443.792,338.622 444.09,341.073 436.079,342.047 436.312,343.954 		"/>
	</g>
	<g>
		<polygon fill="#010101" stroke="#010101" stroke-width="0.5" points="455.523,333.91 458.701,328.167 459.765,329.765 
			466.482,325.291 467.851,327.347 461.134,331.821 462.201,333.419 		"/>
	</g>
	<g>
		<polygon fill="#010101" stroke="#010101" stroke-width="0.5" points="466.901,309.942 462.924,304.721 464.816,304.391 
			463.428,296.44 465.861,296.016 467.25,303.966 469.142,303.633 		"/>
	</g>
	<g>
		<polygon fill="#010101" stroke="#010101" stroke-width="0.5" points="450.154,287.459 444.136,290.082 444.265,288.166 
			436.212,287.625 436.378,285.161 444.43,285.701 444.557,283.784 		"/>
	</g>
	<g>
		<polygon fill="#010101" stroke="#010101" stroke-width="0.5" points="423.536,292.341 419.997,297.869 419.037,296.206 
			412.047,300.24 410.812,298.102 417.802,294.066 416.84,292.404 		"/>
	</g>
</g>
<g>
	<g>
		<path fill="none" d="M555.324,300.64c6.711,1.351,24.895,39.769,24.895,39.769"/>
		<g>
			<polygon fill="#010101" stroke="#010101" stroke-width="0.5" points="575.791,326.441 570.473,322.593 572.188,321.729 
				568.559,314.521 570.766,313.41 574.395,320.619 576.109,319.753 			"/>
		</g>
		<g>
			<polygon fill="#010101" stroke="#010101" stroke-width="0.5" points="561.801,303.813 555.586,301.701 556.971,300.371 
				551.381,294.551 553.162,292.84 558.754,298.66 560.137,297.328 			"/>
		</g>
	</g>
	<g>
		<path fill="none" d="M571.607,295.797c0,0,20.166-14.485,28.57,1.566c8.404,16.043,6.039,22.1-3.135,29.741
			c-9.164,7.639-16.824,13.304-16.824,13.304"/>
		<g>
			<polygon fill="#010101" stroke="#010101" stroke-width="0.5" points="583.6,340.822 586.424,334.897 587.582,336.428 
				594.016,331.556 595.508,333.524 589.074,338.397 590.236,339.928 			"/>
		</g>
		<g>
			<polygon fill="#010101" stroke="#010101" stroke-width="0.5" points="603.58,323.139 603.424,316.577 605.15,317.419 
				608.691,310.167 610.91,311.25 607.371,318.503 609.098,319.344 			"/>
		</g>
		<g>
			<polygon fill="#010101" stroke="#010101" stroke-width="0.5" points="601.172,297.382 595.418,294.223 597.014,293.153 
				592.52,286.45 594.57,285.075 599.066,291.777 600.66,290.706 			"/>
		</g>
		<g>
			<polygon fill="#010101" stroke="#010101" stroke-width="0.5" points="576.18,290.217 572.703,295.784 571.725,294.132 
				564.779,298.243 563.521,296.117 570.465,292.006 569.486,290.354 			"/>
		</g>
	</g>
</g>
<g>
	<path fill="none" d="M593.008,342.085c17.549-0.736,47.496-1.702,71.854,3.869c24.352,5.568,39.725-12.912,43.203-27.409
		c3.48-14.5-3.779-21.644-20.014-21.644"/>
	<g>
		<polygon fill="#010101" stroke="#010101" stroke-width="0.5" points="688.859,299.453 695.162,297.619 694.791,299.503 
			702.709,301.066 702.23,303.489 694.313,301.927 693.943,303.813 		"/>
	</g>
	<g>
		<polygon fill="#010101" stroke="#010101" stroke-width="0.5" points="705.676,310.44 708.621,316.307 706.701,316.282 
			706.598,324.353 704.129,324.321 704.23,316.251 702.309,316.229 		"/>
	</g>
	<g>
		<polygon fill="#010101" stroke="#010101" stroke-width="0.5" points="697.699,332.408 695.967,338.74 694.555,337.438 
			689.084,343.371 687.27,341.697 692.738,335.764 691.326,334.463 		"/>
	</g>
	<g>
		<polygon fill="#010101" stroke="#010101" stroke-width="0.5" points="677.529,343.668 671.637,346.559 671.68,344.64 
			663.611,344.463 663.664,341.993 671.732,342.169 671.773,340.249 		"/>
	</g>
	<g>
		<polygon fill="#010101" stroke="#010101" stroke-width="0.5" points="651.992,341.727 645.764,343.797 646.064,341.9 
			638.094,340.638 638.48,338.198 646.451,339.46 646.75,337.563 		"/>
	</g>
	<g>
		<polygon fill="#010101" stroke="#010101" stroke-width="0.5" points="625.873,339.524 619.91,342.269 620,340.351 
			611.938,339.974 612.055,337.507 620.115,337.883 620.203,335.964 		"/>
	</g>
	<g>
		<polygon fill="#010101" stroke="#010101" stroke-width="0.5" points="599.758,339.537 593.965,342.622 593.943,340.702 
			585.873,340.792 585.846,338.322 593.914,338.231 593.891,336.311 		"/>
	</g>
</g>
<g>
	<polyline fill="none" points="45.95,525.301 71.88,555.311 99.613,518.589 	"/>
	<g>
		<polygon fill="#010101" stroke="#010101" stroke-width="0.5" points="97.187,517.875 95.983,524.328 94.469,523.147 
			89.506,529.511 87.558,527.992 92.521,521.628 91.005,520.448 		"/>
	</g>
	<g>
		<polygon fill="#010101" stroke="#010101" stroke-width="0.5" points="81.522,538.615 80.319,545.067 78.805,543.887 
			73.842,550.251 71.894,548.732 76.857,542.367 75.341,541.188 		"/>
	</g>
	<g>
		<polygon fill="#010101" stroke="#010101" stroke-width="0.5" points="69.188,548.576 63.132,546.046 64.604,544.813 
			59.423,538.625 61.317,537.04 66.499,543.227 67.97,541.992 		"/>
	</g>
	<g>
		<polygon fill="#010101" stroke="#010101" stroke-width="0.5" points="52.196,528.91 46.14,526.38 47.612,525.147 42.431,518.959 
			44.324,517.374 49.506,523.561 50.978,522.326 		"/>
	</g>
</g>
<g>
	<line fill="none" x1="7.314" y1="584.604" x2="134.99" y2="588.358"/>
	<g>
		<polygon fill="#010101" stroke="#010101" stroke-width="0.5" points="118.11,585.495 112.152,588.249 112.238,586.331 
			104.176,585.969 104.287,583.502 112.349,583.863 112.434,581.944 		"/>
	</g>
	<g>
		<polygon fill="#010101" stroke="#010101" stroke-width="0.5" points="92.131,584.73 86.173,587.484 86.26,585.566 78.197,585.204 
			78.308,582.737 86.371,583.099 86.455,581.18 		"/>
	</g>
	<g>
		<polygon fill="#010101" stroke="#010101" stroke-width="0.5" points="66.152,583.967 60.194,586.721 60.28,584.803 52.218,584.44 
			52.329,581.974 60.391,582.335 60.476,580.416 		"/>
	</g>
	<g>
		<polygon fill="#010101" stroke="#010101" stroke-width="0.5" points="40.173,583.203 34.215,585.957 34.302,584.039 
			26.239,583.677 26.35,581.21 34.413,581.571 34.497,579.652 		"/>
	</g>
	<g>
		<polygon fill="#010101" stroke="#010101" stroke-width="0.5" points="14.195,582.439 8.237,585.193 8.323,583.275 0.261,582.913 
			0.372,580.446 8.434,580.808 8.519,578.889 		"/>
	</g>
</g>
<g>
	<path fill="none" d="M814.59,125.306c0,0,19.842-10.754,27.957-5.17c8.115,5.572,8.674,22.07,2.881,26.527
		c-5.797,4.448-24.275,6.055-40.514,12.754c-16.238,6.688,91.555-6.068,115.91-0.496c24.355,5.57,39.725-12.913,43.205-27.41
		c3.479-14.5-3.781-21.643-20.018-21.643c-16.227,0-13.615,40.982-13.615,40.982"/>
	<g>
		<polygon fill="#010101" stroke="#010101" stroke-width="0.5" points="932.975,138.705 930.537,132.61 932.449,132.797 
			933.236,124.765 935.693,125.006 934.908,133.039 936.82,133.224 		"/>
	</g>
	<g>
		<polygon fill="#010101" stroke="#010101" stroke-width="0.5" points="938.129,115.858 941.834,110.44 942.742,112.131 
			949.852,108.313 951.021,110.489 943.912,114.308 944.822,116 		"/>
	</g>
	<g>
		<polygon fill="#010101" stroke="#010101" stroke-width="0.5" points="959.271,115.455 964.17,119.824 962.377,120.508 
			965.254,128.048 962.945,128.929 960.068,121.389 958.273,122.076 		"/>
	</g>
	<g>
		<polygon fill="#010101" stroke="#010101" stroke-width="0.5" points="958.754,138.075 958.066,144.602 956.463,143.545 
			952.023,150.285 949.961,148.925 954.4,142.186 952.795,141.13 		"/>
	</g>
	<g>
		<polygon fill="#010101" stroke="#010101" stroke-width="0.5" points="942.092,155.199 937.012,159.357 936.615,157.478 
			928.719,159.145 928.209,156.729 936.105,155.061 935.707,153.182 		"/>
	</g>
	<g>
		<polygon fill="#010101" stroke="#010101" stroke-width="0.5" points="917.031,156.195 910.914,158.572 911.119,156.664 
			903.096,155.798 903.359,153.343 911.383,154.207 911.588,152.296 		"/>
	</g>
	<g>
		<polygon fill="#010101" stroke="#010101" stroke-width="0.5" points="890.805,155.21 885.016,158.301 884.99,156.381 
			876.922,156.481 876.891,154.011 884.961,153.911 884.936,151.991 		"/>
	</g>
	<g>
		<polygon fill="#010101" stroke="#010101" stroke-width="0.5" points="864.779,156.267 859.066,159.498 858.996,157.58 
			850.93,157.875 850.84,155.408 858.904,155.11 858.832,153.191 		"/>
	</g>
	<g>
		<polygon fill="#010101" stroke="#010101" stroke-width="0.5" points="838.824,157.74 833.119,160.984 833.043,159.066 
			824.979,159.381 824.883,156.913 832.947,156.596 832.869,154.677 		"/>
	</g>
	<g>
		<polygon fill="#010101" stroke="#010101" stroke-width="0.5" points="813.008,158.882 807.117,161.778 807.158,159.858 
			799.09,159.687 799.143,157.217 807.211,157.388 807.25,155.467 		"/>
	</g>
	<g>
		<polygon fill="#010101" stroke="#010101" stroke-width="0.5" points="820.979,156.885 825.82,152.454 826.32,154.307 
			834.113,152.208 834.756,154.592 826.963,156.693 827.465,158.547 		"/>
	</g>
	<g>
		<polygon fill="#010101" stroke="#010101" stroke-width="0.5" points="844.844,147.25 847.123,141.095 848.414,142.516 
			854.385,137.085 856.047,138.913 850.078,144.343 851.371,145.763 		"/>
	</g>
	<g>
		<polygon fill="#010101" stroke="#010101" stroke-width="0.5" points="846.287,121.294 839.773,120.48 840.861,118.898 
			834.211,114.326 835.609,112.291 842.262,116.862 843.348,115.278 		"/>
	</g>
	<g>
		<polygon fill="#010101" stroke="#010101" stroke-width="0.5" points="819.652,120.167 815.682,125.393 814.857,123.659 
			807.566,127.118 806.508,124.887 813.799,121.426 812.973,119.692 		"/>
	</g>
</g>
<g>
	<path fill="none" d="M647.811,434.841c0,0-55.643,31.044-53.732,61.407c1.902,30.354,7.988,62.162,28.777,57.557
		c8.008-4.105,17.842-9.509,24.955-15.353c11.064-15.787,19.719-26.647,8.086-36.825c-8.617-7.541-42.164,15.996-42.164,15.996"/>
	<g>
		<polygon fill="#010101" stroke="#010101" stroke-width="0.5" points="620.713,515.907 624.184,510.336 625.164,511.986 
			632.102,507.865 633.363,509.988 626.426,514.11 627.408,515.761 		"/>
	</g>
	<g>
		<polygon fill="#010101" stroke="#010101" stroke-width="0.5" points="642.514,503.45 648.133,500.058 648.258,501.974 
			656.311,501.448 656.473,503.912 648.418,504.439 648.545,506.355 		"/>
	</g>
	<g>
		<polygon fill="#010101" stroke="#010101" stroke-width="0.5" points="656.238,512.408 659.621,518.032 657.705,518.154 
			658.219,526.209 655.754,526.366 655.24,518.312 653.322,518.436 		"/>
	</g>
	<g>
		<polygon fill="#010101" stroke="#010101" stroke-width="0.5" points="648.162,533.837 646.109,540.071 644.768,538.7 639,544.346 
			637.273,542.582 643.039,536.935 641.693,535.563 		"/>
	</g>
	<g>
		<polygon fill="#010101" stroke="#010101" stroke-width="0.5" points="627.693,548.453 623.949,553.845 623.053,552.147 
			615.916,555.917 614.762,553.732 621.898,549.963 621,548.265 		"/>
	</g>
	<g>
		<polygon fill="#010101" stroke="#010101" stroke-width="0.5" points="608.604,544.808 602.93,541.508 604.549,540.478 
			600.223,533.666 602.307,532.342 606.635,539.153 608.256,538.121 		"/>
	</g>
	<g>
		<polygon fill="#010101" stroke="#010101" stroke-width="0.5" points="599.646,521.794 595.73,516.527 597.625,516.219 
			596.328,508.253 598.766,507.855 600.064,515.821 601.959,515.511 		"/>
	</g>
	<g>
		<polygon fill="#010101" stroke="#010101" stroke-width="0.5" points="597.623,496.829 595.166,490.742 597.078,490.923 
			597.836,482.889 600.295,483.121 599.537,491.155 601.449,491.334 		"/>
	</g>
	<g>
		<polygon fill="#010101" stroke="#010101" stroke-width="0.5" points="605.205,474.099 606.563,467.677 608.047,468.893 
			613.16,462.648 615.07,464.213 609.959,470.458 611.447,471.674 		"/>
	</g>
	<g>
		<polygon fill="#010101" stroke="#010101" stroke-width="0.5" points="622.686,455.653 625.254,449.612 626.477,451.093 
			632.697,445.95 634.271,447.854 628.051,452.997 629.277,454.476 		"/>
	</g>
	<g>
		<polygon fill="#010101" stroke="#010101" stroke-width="0.5" points="643.191,440.382 646.717,434.845 647.68,436.505 
			654.66,432.453 655.9,434.589 648.92,438.642 649.887,440.302 		"/>
	</g>
</g>
<g>
	<line fill="none" x1="562.303" y1="570.491" x2="691.215" y2="574.284"/>
	<g>
		<polygon fill="#010101" stroke="#010101" stroke-width="0.5" points="673.098,571.383 667.139,574.138 667.225,572.22 
			659.164,571.856 659.273,569.39 667.336,569.751 667.42,567.832 		"/>
	</g>
	<g>
		<polygon fill="#010101" stroke="#010101" stroke-width="0.5" points="647.119,570.618 641.16,573.373 641.246,571.455 
			633.186,571.092 633.295,568.625 641.357,568.986 641.441,567.067 		"/>
	</g>
	<g>
		<polygon fill="#010101" stroke="#010101" stroke-width="0.5" points="621.139,569.854 615.182,572.608 615.268,570.69 
			607.205,570.327 607.316,567.86 615.379,568.222 615.463,566.303 		"/>
	</g>
	<g>
		<polygon fill="#010101" stroke="#010101" stroke-width="0.5" points="595.16,569.09 589.203,571.845 589.289,569.927 
			581.227,569.563 581.338,567.097 589.4,567.458 589.484,565.539 		"/>
	</g>
	<g>
		<polygon fill="#010101" stroke="#010101" stroke-width="0.5" points="569.182,568.325 563.225,571.08 563.311,569.162 
			555.248,568.799 555.359,566.332 563.422,566.693 563.506,564.774 		"/>
	</g>
</g>
<g>
	<g>
		<g>
			<path fill="none" d="M782.945,296.219c6.781,1.364,17.625,29.837,17.625,29.837"/>
			<g>
				<polygon fill="#010101" stroke="#010101" stroke-width="0.5" points="801.861,323.022 796.865,318.767 798.643,318.041 
					795.596,310.568 797.883,309.636 800.932,317.108 802.709,316.381 				"/>
			</g>
			<g>
				<polygon fill="#010101" stroke="#010101" stroke-width="0.5" points="789.543,299.137 783.25,297.271 784.582,295.888 
					778.768,290.291 780.479,288.512 786.295,294.107 787.625,292.722 				"/>
			</g>
		</g>
		<g>
			<path fill="none" d="M799.395,291.333c0,0,20.357-14.62,28.846,1.582c8.486,16.198,6.1,22.313-3.164,30.025
				c-9.258,7.717-16.986,13.438-16.986,13.438"/>
			<g>
				<polygon fill="#010101" stroke="#010101" stroke-width="0.5" points="812.129,336.266 814.951,330.34 816.111,331.87 
					822.545,326.997 824.035,328.966 817.604,333.84 818.766,335.37 				"/>
			</g>
			<g>
				<polygon fill="#010101" stroke="#010101" stroke-width="0.5" points="831.758,318.376 831.602,311.814 833.326,312.656 
					836.867,305.404 839.088,306.488 835.547,313.74 837.273,314.582 				"/>
			</g>
			<g>
				<polygon fill="#010101" stroke="#010101" stroke-width="0.5" points="829.002,292.729 823.248,289.569 824.842,288.5 
					820.348,281.797 822.398,280.422 826.895,287.124 828.488,286.052 				"/>
			</g>
			<g>
				<polygon fill="#010101" stroke="#010101" stroke-width="0.5" points="803.967,285.753 800.49,291.32 799.512,289.668 
					792.566,293.778 791.309,291.653 798.254,287.542 797.273,285.89 				"/>
			</g>
		</g>
	</g>
	<g>
		<line fill="none" x1="816.123" y1="338.481" x2="945.035" y2="342.27"/>
		<g>
			<polygon fill="#010101" stroke="#010101" stroke-width="0.5" points="926.918,339.369 920.961,342.124 921.047,340.206 
				912.984,339.844 913.096,337.376 921.158,337.737 921.242,335.818 			"/>
		</g>
		<g>
			<polygon fill="#010101" stroke="#010101" stroke-width="0.5" points="900.939,338.605 894.982,341.36 895.068,339.442 
				887.006,339.08 887.117,336.612 895.18,336.974 895.264,335.055 			"/>
		</g>
		<g>
			<polygon fill="#010101" stroke="#010101" stroke-width="0.5" points="874.961,337.842 869.004,340.597 869.09,338.679 
				861.027,338.316 861.139,335.849 869.201,336.21 869.285,334.291 			"/>
		</g>
		<g>
			<polygon fill="#010101" stroke="#010101" stroke-width="0.5" points="848.982,337.079 843.023,339.834 843.109,337.916 
				835.047,337.554 835.158,335.086 843.221,335.447 843.305,333.528 			"/>
		</g>
		<g>
			<polygon fill="#010101" stroke="#010101" stroke-width="0.5" points="823.004,336.315 817.045,339.07 817.131,337.152 
				809.068,336.79 809.18,334.322 817.242,334.684 817.326,332.765 			"/>
		</g>
	</g>
	<g>
		<path fill="none" d="M966.854,220.08c0,0-55.629,31.053-53.727,61.408c1.898,30.361,7.988,62.162,28.781,57.561
			c8.012-4.113,17.842-9.513,24.945-15.353c11.066-15.791,19.729-26.647,8.092-36.825c-8.617-7.541-42.168,15.992-42.168,15.992"/>
		<g>
			<polygon fill="#010101" stroke="#010101" stroke-width="0.5" points="939.758,301.15 943.229,295.579 944.209,297.229 
				951.148,293.109 952.408,295.232 945.471,299.354 946.453,301.005 			"/>
		</g>
		<g>
			<polygon fill="#010101" stroke="#010101" stroke-width="0.5" points="961.559,288.692 967.18,285.301 967.303,287.217 
				975.357,286.691 975.518,289.156 967.465,289.682 967.592,291.599 			"/>
		</g>
		<g>
			<polygon fill="#010101" stroke="#010101" stroke-width="0.5" points="975.287,297.646 978.67,303.271 976.754,303.393 
				977.268,311.446 974.803,311.604 974.289,303.549 972.371,303.673 			"/>
		</g>
		<g>
			<polygon fill="#010101" stroke="#010101" stroke-width="0.5" points="967.213,319.077 965.16,325.313 963.818,323.94 
				958.051,329.587 956.322,327.822 962.088,322.175 960.744,320.804 			"/>
		</g>
		<g>
			<polygon fill="#010101" stroke="#010101" stroke-width="0.5" points="948.307,335.719 942.918,339.468 942.67,337.564 
				934.668,338.609 934.348,336.16 942.35,335.114 942.1,333.21 			"/>
		</g>
		<g>
			<polygon fill="#010101" stroke="#010101" stroke-width="0.5" points="927.654,330.051 921.979,326.752 923.6,325.722 
				919.271,318.91 921.355,317.586 925.686,324.396 927.305,323.364 			"/>
		</g>
		<g>
			<polygon fill="#010101" stroke="#010101" stroke-width="0.5" points="918.693,307.043 914.777,301.775 916.672,301.467 
				915.377,293.502 917.814,293.104 919.111,301.07 921.006,300.76 			"/>
		</g>
		<g>
			<polygon fill="#010101" stroke="#010101" stroke-width="0.5" points="916.672,282.075 914.217,275.988 916.127,276.17 
				916.889,268.135 919.346,268.367 918.588,276.402 920.5,276.581 			"/>
		</g>
		<g>
			<polygon fill="#010101" stroke="#010101" stroke-width="0.5" points="924.256,259.345 925.613,252.923 927.098,254.139 
				932.211,247.895 934.121,249.459 929.01,255.704 930.498,256.919 			"/>
		</g>
		<g>
			<polygon fill="#010101" stroke="#010101" stroke-width="0.5" points="941.73,240.897 944.299,234.856 945.521,236.336 
				951.742,231.193 953.316,233.097 947.098,238.24 948.322,239.719 			"/>
		</g>
		<g>
			<polygon fill="#010101" stroke="#010101" stroke-width="0.5" points="962.238,225.622 965.762,220.084 966.725,221.744 
				973.703,217.69 974.945,219.826 967.967,223.881 968.932,225.541 			"/>
		</g>
	</g>
</g>
<g>
	<g>
		<path fill="none" d="M809.395,523.99c0,0,16.885-9.516,23.793-4.568c6.91,4.926,7.383,19.538,2.453,23.479
			c-4.932,3.94-24.939,10.429-38.762,16.35c-34.031,14.588,112.34,3.374,143.803,5.617"/>
		<g>
			<polygon fill="#010101" stroke="#010101" stroke-width="0.5" points="932.947,562.213 927.068,565.133 927.102,563.213 
				919.033,563.075 919.074,560.605 927.145,560.742 927.174,558.822 			"/>
		</g>
		<g>
			<polygon fill="#010101" stroke="#010101" stroke-width="0.5" points="906.902,562.578 901.1,565.646 901.084,563.727 
				893.014,563.796 892.992,561.326 901.063,561.256 901.045,559.335 			"/>
		</g>
		<g>
			<polygon fill="#010101" stroke="#010101" stroke-width="0.5" points="880.908,563.316 875.123,566.417 875.096,564.498 
				867.025,564.611 866.99,562.142 875.061,562.027 875.031,560.106 			"/>
		</g>
		<g>
			<polygon fill="#010101" stroke="#010101" stroke-width="0.5" points="854.955,564.068 849.139,567.106 849.131,565.187 
				841.061,565.213 841.053,562.743 849.123,562.716 849.115,560.795 			"/>
		</g>
		<g>
			<polygon fill="#010101" stroke="#010101" stroke-width="0.5" points="829.035,564.463 823.137,567.344 823.182,565.424 
				815.113,565.233 815.172,562.765 823.24,562.954 823.283,561.034 			"/>
		</g>
		<g>
			<polygon fill="#010101" stroke="#010101" stroke-width="0.5" points="803.533,564.304 797.145,565.812 797.613,563.949 
				789.785,561.982 790.389,559.587 798.215,561.554 798.682,559.689 			"/>
		</g>
		<g>
			<polygon fill="#010101" stroke="#010101" stroke-width="0.5" points="805.037,558.557 809.416,553.667 810.098,555.463 
				817.643,552.601 818.52,554.91 810.973,557.772 811.656,559.568 			"/>
		</g>
		<g>
			<polygon fill="#010101" stroke="#010101" stroke-width="0.5" points="829.344,548.769 833.246,543.491 834.092,545.216 
				841.338,541.662 842.426,543.88 835.18,547.434 836.027,549.157 			"/>
		</g>
		<g>
			<polygon fill="#010101" stroke="#010101" stroke-width="0.5" points="839.469,524.75 833.814,521.417 835.439,520.396 
				831.152,513.56 833.244,512.247 837.533,519.084 839.16,518.062 			"/>
		</g>
		<g>
			<polygon fill="#010101" stroke="#010101" stroke-width="0.5" points="814.459,518.854 810.484,524.078 809.662,522.343 
				802.369,525.798 801.313,523.566 808.605,520.11 807.781,518.375 			"/>
		</g>
	</g>
	<g>
		<path fill="none" d="M964.629,448.432c0,0-55.637,31.045-53.73,61.407c1.902,30.354,7.992,62.163,28.781,57.561
			c8.008-4.109,17.842-9.513,24.949-15.352c11.066-15.791,19.721-26.651,8.092-36.83c-8.617-7.54-42.168,15.997-42.168,15.997"/>
		<g>
			<polygon fill="#010101" stroke="#010101" stroke-width="0.5" points="937.539,529.498 941.008,523.926 941.988,525.576 
				948.928,521.455 950.189,523.579 943.25,527.701 944.232,529.352 			"/>
		</g>
		<g>
			<polygon fill="#010101" stroke="#010101" stroke-width="0.5" points="959.34,517.042 964.959,513.649 965.084,515.565 
				973.137,515.04 973.299,517.504 965.244,518.031 965.371,519.948 			"/>
		</g>
		<g>
			<polygon fill="#010101" stroke="#010101" stroke-width="0.5" points="973.059,526.002 976.441,531.627 974.525,531.749 
				975.037,539.803 972.572,539.96 972.059,531.905 970.143,532.029 			"/>
		</g>
		<g>
			<polygon fill="#010101" stroke="#010101" stroke-width="0.5" points="964.984,547.431 962.934,553.666 961.59,552.294 
				955.822,557.94 954.096,556.176 959.861,550.528 958.516,549.157 			"/>
		</g>
		<g>
			<polygon fill="#010101" stroke="#010101" stroke-width="0.5" points="946.078,564.071 940.689,567.819 940.441,565.915 
				932.438,566.96 932.119,564.511 940.121,563.466 939.871,561.561 			"/>
		</g>
		<g>
			<polygon fill="#010101" stroke="#010101" stroke-width="0.5" points="925.426,558.4 919.752,555.101 921.371,554.071 
				917.043,547.259 919.129,545.935 923.457,552.746 925.078,551.714 			"/>
		</g>
		<g>
			<polygon fill="#010101" stroke="#010101" stroke-width="0.5" points="916.469,535.389 912.551,530.121 914.445,529.813 
				913.148,521.847 915.588,521.45 916.885,529.415 918.781,529.104 			"/>
		</g>
		<g>
			<polygon fill="#010101" stroke="#010101" stroke-width="0.5" points="914.445,510.422 911.986,504.335 913.898,504.516 
				914.658,496.481 917.117,496.714 916.359,504.748 918.271,504.927 			"/>
		</g>
		<g>
			<polygon fill="#010101" stroke="#010101" stroke-width="0.5" points="922.027,487.691 923.383,481.27 924.867,482.485 
				929.98,476.241 931.893,477.806 926.779,484.051 928.268,485.266 			"/>
		</g>
		<g>
			<polygon fill="#010101" stroke="#010101" stroke-width="0.5" points="939.504,469.245 942.072,463.204 943.297,464.685 
				949.516,459.542 951.09,461.445 944.871,466.589 946.096,468.067 			"/>
		</g>
		<g>
			<polygon fill="#010101" stroke="#010101" stroke-width="0.5" points="960.012,453.973 963.535,448.436 964.5,450.096 
				971.479,446.043 972.719,448.18 965.74,452.232 966.707,453.893 			"/>
		</g>
	</g>
</g>
</svg>
