<?xml version="1.0" encoding="utf-8"?>
<!-- Generator: Adobe Illustrator 12.0.0, SVG Export Plug-In . SVG Version: 6.00 Build 51448)  -->
<!DOCTYPE svg PUBLIC "-//W3C//DTD SVG 1.1//EN" "http://www.w3.org/Graphics/SVG/1.1/DTD/svg11.dtd" [
	<!ENTITY ns_svg "http://www.w3.org/2000/svg">
	<!ENTITY ns_xlink "http://www.w3.org/1999/xlink">
]>
<svg  version="1.1" id="Layer_1" xmlns="&ns_svg;" xmlns:xlink="&ns_xlink;" width="762.067" height="118.749"
	 viewBox="0 0 762.067 118.749" overflow="visible" enable-background="new 0 0 762.067 118.749" xml:space="preserve">
<g>
	<path fill="none" d="M160.095,30.394c0,0-41.096,22.937-39.689,45.361c1.406,22.425,5.902,45.919,21.259,42.518
		c5.917-3.034,13.178-7.026,18.43-11.341c8.174-11.663,14.216-16.865,4.547-31.905c-4.575-7.115-27.926,17.188-27.926,17.188"/>
	<g>
		<polygon fill="#010101" stroke="#010101" stroke-width="0.25" points="143.334,87.537 144.558,84.492 145.184,85.219 
			148.242,82.586 149.048,83.522 145.99,86.155 146.618,86.882 		"/>
	</g>
	<g>
		<polygon fill="#010101" stroke="#010101" stroke-width="0.25" points="153.295,79.494 154.93,76.648 155.449,77.456 
			158.843,75.273 159.511,76.313 156.117,78.495 156.637,79.302 		"/>
	</g>
	<g>
		<polygon fill="#010101" stroke="#010101" stroke-width="0.25" points="162.384,77.022 165.625,77.54 165.055,78.312 
			168.301,80.709 167.567,81.702 164.321,79.305 163.751,80.079 		"/>
	</g>
	<g>
		<polygon fill="#010101" stroke="#010101" stroke-width="0.25" points="167.438,86.887 169.073,89.732 168.114,89.774 
			168.29,93.805 167.057,93.859 166.88,89.828 165.92,89.871 		"/>
	</g>
	<g>
		<polygon fill="#010101" stroke="#010101" stroke-width="0.25" points="164.519,98.417 164.06,101.667 163.278,101.111 
			160.938,104.399 159.932,103.683 162.271,100.395 161.488,99.838 		"/>
	</g>
	<g>
		<polygon fill="#010101" stroke="#010101" stroke-width="0.25" points="156.517,107.745 154.782,110.531 154.292,109.706 
			150.823,111.767 150.192,110.705 153.661,108.643 153.169,107.818 		"/>
	</g>
	<g>
		<polygon fill="#010101" stroke="#010101" stroke-width="0.25" points="145.449,114.555 143.715,117.341 143.225,116.516 
			139.755,118.578 139.125,117.515 142.594,115.454 142.102,114.628 		"/>
	</g>
	<g>
		<polygon fill="#010101" stroke="#010101" stroke-width="0.25" points="134.768,115.987 131.517,115.537 132.071,114.753 
			128.776,112.423 129.489,111.415 132.784,113.745 133.338,112.959 		"/>
	</g>
	<g>
		<polygon fill="#010101" stroke="#010101" stroke-width="0.25" points="127.52,106.417 124.996,104.32 125.88,103.947 
			124.311,100.229 125.448,99.749 127.018,103.466 127.902,103.092 		"/>
	</g>
	<g>
		<polygon fill="#010101" stroke="#010101" stroke-width="0.25" points="123.8,94.297 121.842,91.664 122.79,91.509 122.141,87.527 
			123.36,87.328 124.009,91.311 124.957,91.156 		"/>
	</g>
	<g>
		<polygon fill="#010101" stroke="#010101" stroke-width="0.25" points="122.203,81.492 120.438,78.726 121.394,78.639 
			121.032,74.62 122.262,74.509 122.625,78.528 123.581,78.441 		"/>
	</g>
	<g>
		<polygon fill="#010101" stroke="#010101" stroke-width="0.25" points="123.394,69.207 122.743,65.99 123.666,66.254 
			124.775,62.374 125.962,62.713 124.854,66.594 125.777,66.856 		"/>
	</g>
	<g>
		<polygon fill="#010101" stroke="#010101" stroke-width="0.25" points="128.831,58.232 129.509,55.021 130.252,55.629 
			132.808,52.507 133.764,53.289 131.208,56.412 131.952,57.019 		"/>
	</g>
	<g>
		<polygon fill="#010101" stroke="#010101" stroke-width="0.25" points="137.241,48.693 138.524,45.673 139.136,46.413 
			142.246,43.841 143.033,44.793 139.924,47.365 140.536,48.104 		"/>
	</g>
	<g>
		<polygon fill="#010101" stroke="#010101" stroke-width="0.25" points="147.081,40.403 148.673,37.533 149.205,38.333 
			152.566,36.101 153.25,37.129 149.888,39.362 150.42,40.162 		"/>
	</g>
	<g>
		<polygon fill="#010101" stroke="#010101" stroke-width="0.25" points="157.785,33.165 159.547,30.396 160.029,31.226 
			163.519,29.2 164.139,30.268 160.649,32.294 161.132,33.125 		"/>
	</g>
</g>
<g>
	<path fill="none" d="M494.126,82.457c0,0,68.006-4.953,81.516-3.14c13.512,1.791-18.915,29.721-37.38,33.324
		c-6.757-15.313,0-111.25,0-111.25"/>
	<g>
		<polygon fill="#010101" stroke="#010101" stroke-width="0.25" points="537.151,0.261 538.418,3.289 537.461,3.21 537.132,7.232 
			535.901,7.132 536.229,3.11 535.272,3.033 		"/>
	</g>
	<g>
		<polygon fill="#010101" stroke="#010101" stroke-width="0.25" points="536.339,13.239 537.627,16.258 536.67,16.187 
			536.369,20.21 535.138,20.119 535.438,16.094 534.48,16.024 		"/>
	</g>
	<g>
		<polygon fill="#010101" stroke="#010101" stroke-width="0.25" points="535.631,26.228 536.951,29.232 535.993,29.171 
			535.736,33.198 534.504,33.119 534.761,29.092 533.802,29.032 		"/>
	</g>
	<g>
		<polygon fill="#010101" stroke="#010101" stroke-width="0.25" points="535.015,39.217 536.359,42.211 535.401,42.157 
			535.177,46.187 533.943,46.118 534.168,42.089 533.208,42.036 		"/>
	</g>
	<g>
		<polygon fill="#010101" stroke="#010101" stroke-width="0.25" points="534.569,52.214 535.938,55.197 534.979,55.151 
			534.787,59.182 533.554,59.123 533.745,55.092 532.786,55.047 		"/>
	</g>
	<g>
		<polygon fill="#010101" stroke="#010101" stroke-width="0.25" points="534.227,65.236 535.674,68.181 534.714,68.161 
			534.629,72.195 533.395,72.169 533.479,68.135 532.519,68.116 		"/>
	</g>
	<g>
		<polygon fill="#010101" stroke="#010101" stroke-width="0.25" points="534.155,78.231 535.603,81.176 534.643,81.156 
			534.558,85.19 533.323,85.165 533.408,81.13 532.447,81.111 		"/>
	</g>
	<g>
		<polygon fill="#010101" stroke="#010101" stroke-width="0.25" points="534.466,91.279 536.065,94.145 535.105,94.174 
			535.23,98.208 533.996,98.246 533.871,94.212 532.911,94.244 		"/>
	</g>
	<g>
		<polygon fill="#010101" stroke="#010101" stroke-width="0.25" points="535.457,104.385 537.453,106.991 536.508,107.159 
			537.214,111.132 535.998,111.348 535.292,107.375 534.347,107.543 		"/>
	</g>
	<g>
		<polygon fill="#010101" stroke="#010101" stroke-width="0.25" points="542.755,112.196 544.979,109.782 545.307,110.684 
			549.1,109.306 549.521,110.466 545.729,111.845 546.058,112.748 		"/>
	</g>
	<g>
		<polygon fill="#010101" stroke="#010101" stroke-width="0.25" points="554.729,106.704 556.425,103.893 556.927,104.711 
			560.367,102.602 561.013,103.655 557.572,105.765 558.075,106.583 		"/>
	</g>
	<g>
		<polygon fill="#010101" stroke="#010101" stroke-width="0.25" points="565.652,99.369 566.894,96.331 567.516,97.062 
			570.59,94.447 571.39,95.387 568.316,98.002 568.939,98.734 		"/>
	</g>
	<g>
		<polygon fill="#010101" stroke="#010101" stroke-width="0.25" points="575.359,90.329 575.762,87.072 576.553,87.614 
			578.835,84.286 579.854,84.984 577.572,88.313 578.365,88.855 		"/>
	</g>
	<g>
		<polygon fill="#010101" stroke="#010101" stroke-width="0.25" points="575.57,79.649 572.288,79.643 572.731,78.791 
			569.152,76.928 569.723,75.833 573.302,77.695 573.744,76.843 		"/>
	</g>
	<g>
		<polygon fill="#010101" stroke="#010101" stroke-width="0.25" points="562.383,77.798 559.482,79.334 559.474,78.375 
			555.438,78.411 555.428,77.176 559.463,77.139 559.453,76.179 		"/>
	</g>
	<g>
		<polygon fill="#010101" stroke="#010101" stroke-width="0.25" points="549.379,78.137 546.496,79.706 546.477,78.746 
			542.442,78.828 542.417,77.594 546.451,77.511 546.431,76.551 		"/>
	</g>
	<g>
		<polygon fill="#010101" stroke="#010101" stroke-width="0.25" points="536.384,78.712 533.52,80.313 533.489,79.354 
			529.456,79.481 529.417,78.247 533.45,78.119 533.418,77.159 		"/>
	</g>
	<g>
		<polygon fill="#010101" stroke="#010101" stroke-width="0.25" points="523.393,79.398 520.547,81.033 520.505,80.074 
			516.474,80.248 516.42,79.014 520.451,78.839 520.409,77.88 		"/>
	</g>
	<g>
		<polygon fill="#010101" stroke="#010101" stroke-width="0.25" points="510.413,80.175 507.579,81.829 507.53,80.87 503.5,81.073 
			503.438,79.839 507.469,79.636 507.419,78.677 		"/>
	</g>
	<g>
		<polygon fill="#010101" stroke="#010101" stroke-width="0.25" points="497.441,81.037 494.614,82.703 494.563,81.745 
			490.533,81.965 490.466,80.732 494.494,80.511 494.441,79.552 		"/>
	</g>
</g>
<g>
	<path fill="none" d="M203.902,83.915c0,0,12.475-7.033,17.576-3.381c5.105,3.645,5.457,14.435,1.813,17.347
		c-3.645,2.91-15.261,3.965-25.47,8.34c-25.14,10.775,51.853-5.322,72.873-0.322"/>
	<g>
		<polygon fill="#010101" stroke="#010101" stroke-width="0.25" points="269.287,104.593 266.238,105.81 266.333,104.855 
			262.317,104.459 262.438,103.231 266.454,103.625 266.547,102.669 		"/>
	</g>
	<g>
		<polygon fill="#010101" stroke="#010101" stroke-width="0.25" points="256.177,103.841 253.312,105.442 253.282,104.482 
			249.249,104.609 249.21,103.375 253.243,103.248 253.212,102.288 		"/>
	</g>
	<g>
		<polygon fill="#010101" stroke="#010101" stroke-width="0.25" points="243.172,104.504 240.346,106.173 240.293,105.215 
			236.264,105.439 236.196,104.206 240.225,103.982 240.17,103.023 		"/>
	</g>
	<g>
		<polygon fill="#010101" stroke="#010101" stroke-width="0.25" points="230.2,105.66 227.416,107.396 227.339,106.439 
			223.317,106.76 223.219,105.529 227.241,105.208 227.164,104.25 		"/>
	</g>
	<g>
		<polygon fill="#010101" stroke="#010101" stroke-width="0.25" points="217.26,106.995 214.498,108.766 214.409,107.81 
			210.391,108.182 210.277,106.952 214.295,106.58 214.206,105.624 		"/>
	</g>
	<g>
		<polygon fill="#010101" stroke="#010101" stroke-width="0.25" points="204.359,108.258 201.55,109.956 201.487,108.998 
			197.46,109.26 197.38,108.029 201.406,107.764 201.343,106.806 		"/>
	</g>
	<g>
		<polygon fill="#010101" stroke="#010101" stroke-width="0.25" points="194.576,109.643 196.291,106.844 196.787,107.667 
			200.242,105.582 200.88,106.639 197.425,108.724 197.922,109.546 		"/>
	</g>
	<g>
		<polygon fill="#010101" stroke="#010101" stroke-width="0.25" points="206.222,104.85 208.593,102.581 208.863,103.502 
			212.735,102.366 213.083,103.55 209.211,104.687 209.483,105.609 		"/>
	</g>
	<g>
		<polygon fill="#010101" stroke="#010101" stroke-width="0.25" points="218.609,100.785 220.893,98.427 221.198,99.337 
			225.024,98.056 225.417,99.227 221.59,100.509 221.896,101.419 		"/>
	</g>
	<g>
		<polygon fill="#010101" stroke="#010101" stroke-width="0.25" points="226.148,90.705 224.451,87.896 225.409,87.833 
			225.145,83.806 226.376,83.725 226.641,87.751 227.6,87.688 		"/>
	</g>
	<g>
		<polygon fill="#010101" stroke="#010101" stroke-width="0.25" points="219.615,79.14 216.536,80.276 216.655,79.324 
			212.651,78.822 212.804,77.597 216.809,78.098 216.927,77.145 		"/>
	</g>
	<g>
		<polygon fill="#010101" stroke="#010101" stroke-width="0.25" points="206.434,81.346 204.447,83.958 204.036,83.091 
			200.389,84.819 199.86,83.703 203.506,81.975 203.094,81.107 		"/>
	</g>
</g>
<g>
	<path fill="none" d="M290.774,103.245c13.086-0.547,35.42-1.269,53.585,2.888c18.166,4.154,29.629-9.631,32.225-20.441
		c2.593-10.816-2.819-16.144-14.929-16.144"/>
	<g>
		<polygon fill="#010101" stroke="#010101" stroke-width="0.25" points="362.461,71.035 365.7,70.504 365.402,71.417 
			369.238,72.669 368.854,73.843 365.019,72.591 364.721,73.504 		"/>
	</g>
	<g>
		<polygon fill="#010101" stroke="#010101" stroke-width="0.25" points="373.563,74.363 375.476,77.031 374.525,77.168 
			375.104,81.162 373.882,81.339 373.303,77.346 372.353,77.484 		"/>
	</g>
	<g>
		<polygon fill="#010101" stroke="#010101" stroke-width="0.25" points="374.933,86.357 374.938,89.638 374.085,89.199 
			372.236,92.785 371.138,92.219 372.987,88.632 372.133,88.193 		"/>
	</g>
	<g>
		<polygon fill="#010101" stroke="#010101" stroke-width="0.25" points="368.794,97.006 367.355,99.956 366.783,99.185 
			363.543,101.59 362.807,100.599 366.046,98.193 365.473,97.422 		"/>
	</g>
	<g>
		<polygon fill="#010101" stroke="#010101" stroke-width="0.25" points="358.865,103.984 356.031,105.639 355.982,104.68 
			351.952,104.885 351.89,103.652 355.919,103.447 355.87,102.488 		"/>
	</g>
	<g>
		<polygon fill="#010101" stroke="#010101" stroke-width="0.25" points="346.017,104.828 343.048,106.225 343.084,105.266 
			339.052,105.112 339.099,103.878 343.131,104.031 343.167,103.072 		"/>
	</g>
	<g>
		<polygon fill="#010101" stroke="#010101" stroke-width="0.25" points="333.188,103.693 330.106,104.822 330.228,103.87 
			326.225,103.359 326.381,102.134 330.384,102.644 330.504,101.691 		"/>
	</g>
	<g>
		<polygon fill="#010101" stroke="#010101" stroke-width="0.25" points="320.273,102.25 317.191,103.378 317.313,102.426 
			313.31,101.916 313.466,100.691 317.469,101.201 317.59,100.248 		"/>
	</g>
	<g>
		<polygon fill="#010101" stroke="#010101" stroke-width="0.25" points="307.161,101.85 304.243,103.352 304.245,102.392 
			300.21,102.381 300.213,101.146 304.249,101.157 304.25,100.197 		"/>
	</g>
	<g>
		<polygon fill="#010101" stroke="#010101" stroke-width="0.25" points="294.167,102.017 291.249,103.519 291.251,102.559 
			287.216,102.548 287.219,101.313 291.254,101.324 291.256,100.364 		"/>
	</g>
</g>
<g>
	<line fill="none" x1="3.657" y1="111.786" x2="98.882" y2="114.584"/>
	<g>
		<polygon fill="#010101" stroke="#010101" stroke-width="0.25" points="98.023,113.375 95.044,114.752 95.087,113.793 
			91.056,113.613 91.112,112.379 95.143,112.56 95.185,111.6 		"/>
	</g>
	<g>
		<polygon fill="#010101" stroke="#010101" stroke-width="0.25" points="85.034,112.994 82.055,114.371 82.098,113.412 
			78.066,113.231 78.122,111.998 82.153,112.178 82.195,111.218 		"/>
	</g>
	<g>
		<polygon fill="#010101" stroke="#010101" stroke-width="0.25" points="72.044,112.612 69.065,113.989 69.108,113.03 
			65.077,112.849 65.133,111.616 69.164,111.796 69.206,110.836 		"/>
	</g>
	<g>
		<polygon fill="#010101" stroke="#010101" stroke-width="0.25" points="59.055,112.23 56.076,113.607 56.119,112.648 
			52.088,112.467 52.144,111.234 56.175,111.415 56.217,110.455 		"/>
	</g>
	<g>
		<polygon fill="#010101" stroke="#010101" stroke-width="0.25" points="46.066,111.848 43.087,113.225 43.13,112.266 
			39.099,112.085 39.154,110.852 43.186,111.033 43.228,110.073 		"/>
	</g>
	<g>
		<polygon fill="#010101" stroke="#010101" stroke-width="0.25" points="33.076,111.466 30.097,112.843 30.14,111.884 
			26.109,111.704 26.165,110.47 30.196,110.651 30.238,109.691 		"/>
	</g>
	<g>
		<polygon fill="#010101" stroke="#010101" stroke-width="0.25" points="20.087,111.084 17.108,112.461 17.151,111.502 
			13.12,111.322 13.175,110.088 17.207,110.269 17.249,109.309 		"/>
	</g>
	<g>
		<polygon fill="#010101" stroke="#010101" stroke-width="0.25" points="7.098,110.703 4.119,112.08 4.162,111.121 0.13,110.94 
			0.186,109.707 4.217,109.887 4.259,108.927 		"/>
	</g>
</g>
<g>
	<polyline fill="none" points="606.21,83.06 625.549,105.444 646.234,78.058 	"/>
	<g>
		<polygon fill="#010101" stroke="#010101" stroke-width="0.25" points="640.158,84.139 639.557,87.365 638.8,86.774 
			636.317,89.957 635.344,89.197 637.825,86.015 637.067,85.425 		"/>
	</g>
	<g>
		<polygon fill="#010101" stroke="#010101" stroke-width="0.25" points="632.326,94.508 631.725,97.734 630.968,97.144 
			628.485,100.326 627.512,99.566 629.993,96.384 629.235,95.794 		"/>
	</g>
	<g>
		<polygon fill="#010101" stroke="#010101" stroke-width="0.25" points="626.568,101.431 623.681,102.992 623.664,102.032 
			619.629,102.101 619.607,100.867 623.643,100.796 623.625,99.835 		"/>
	</g>
	<g>
		<polygon fill="#010101" stroke="#010101" stroke-width="0.25" points="617.829,94.698 614.801,93.432 615.536,92.816 
			612.946,89.722 613.894,88.929 616.483,92.023 617.22,91.406 		"/>
	</g>
	<g>
		<polygon fill="#010101" stroke="#010101" stroke-width="0.25" points="609.333,84.865 606.305,83.599 607.041,82.983 
			604.45,79.889 605.397,79.096 607.988,82.19 608.724,81.573 		"/>
	</g>
</g>
<g>
	<path fill="none" d="M741.915,72.938c33.52,8.042,10.405,39.883-4.768,37.932"/>
	<g>
		<polygon fill="#010101" stroke="#010101" stroke-width="0.25" points="740.618,111.209 743.104,109.068 743.326,110.001 
			747.252,109.069 747.537,110.27 743.611,111.204 743.835,112.137 		"/>
	</g>
	<g>
		<polygon fill="#010101" stroke="#010101" stroke-width="0.25" points="752.202,104.93 753.354,101.857 753.997,102.57 
			756.993,99.867 757.82,100.784 754.825,103.487 755.469,104.2 		"/>
	</g>
	<g>
		<polygon fill="#010101" stroke="#010101" stroke-width="0.25" points="760.076,93.465 758.694,90.489 759.653,90.53 
			759.829,86.499 761.063,86.552 760.888,90.583 761.848,90.625 		"/>
	</g>
	<g>
		<polygon fill="#010101" stroke="#010101" stroke-width="0.25" points="756.542,80.784 753.525,79.492 754.267,78.882 
			751.704,75.765 752.658,74.98 755.221,78.098 755.963,77.487 		"/>
	</g>
	<g>
		<polygon fill="#010101" stroke="#010101" stroke-width="0.25" points="745.483,73.467 742.202,73.406 742.659,72.562 
			739.111,70.639 739.7,69.553 743.248,71.476 743.704,70.631 		"/>
	</g>
</g>
<g>
	<g>
		<path fill="none" d="M675.586,79.696c4.841,0.974,12.581,21.297,12.581,21.297"/>
		<g>
			<polygon fill="#010101" stroke="#010101" stroke-width="0.25" points="685.773,92.609 683.156,90.628 684.022,90.215 
				682.285,86.573 683.399,86.042 685.138,89.683 686.004,89.269 			"/>
		</g>
		<g>
			<polygon fill="#010101" stroke="#010101" stroke-width="0.25" points="678.754,81.421 675.694,80.233 676.415,79.598 
				673.747,76.571 674.674,75.754 677.342,78.782 678.062,78.146 			"/>
		</g>
	</g>
	<g>
		<path fill="none" d="M687.326,76.207c0,0,14.532-10.438,20.591,1.128c6.06,11.565,4.354,15.931-2.256,21.438
			c-6.608,5.508-12.13,9.591-12.13,9.591"/>
		<g>
			<polygon fill="#010101" stroke="#010101" stroke-width="0.25" points="699.972,104.86 701.345,101.879 701.934,102.637 
				705.119,100.16 705.877,101.134 702.692,103.613 703.283,104.37 			"/>
		</g>
		<g>
			<polygon fill="#010101" stroke="#010101" stroke-width="0.25" points="709.344,95.553 709.82,92.306 710.6,92.867 712.956,89.59 
				713.958,90.312 711.603,93.587 712.383,94.148 			"/>
		</g>
		<g>
			<polygon fill="#010101" stroke="#010101" stroke-width="0.25" points="710.679,82.831 708.479,80.395 709.408,80.151 
				708.384,76.248 709.579,75.935 710.603,79.838 711.531,79.593 			"/>
		</g>
		<g>
			<polygon fill="#010101" stroke="#010101" stroke-width="0.25" points="703.06,72.391 699.799,72.765 700.14,71.868 
				696.369,70.432 696.809,69.278 700.58,70.713 700.921,69.815 			"/>
		</g>
		<g>
			<polygon fill="#010101" stroke="#010101" stroke-width="0.25" points="689.613,73.417 687.874,76.2 687.385,75.374 
				683.913,77.43 683.283,76.367 686.756,74.311 686.266,73.485 			"/>
		</g>
	</g>
</g>
<g>
	<path fill="none" d="M433.588,74.26c0,0,16.357-13.332,26.847-4.459c13.275,11.231,12.602,43-22.857,41.849
		c-30.668-0.999-9.65-37.378-2.395-37.378"/>
	<g>
		<polygon fill="#010101" stroke="#010101" stroke-width="0.25" points="435.707,72.469 434.124,75.344 433.591,74.546 
			430.236,76.79 429.55,75.764 432.903,73.52 432.368,72.722 		"/>
	</g>
	<g>
		<polygon fill="#010101" stroke="#010101" stroke-width="0.25" points="426.123,81.577 425.816,84.844 425.009,84.325 
			422.826,87.719 421.787,87.05 423.97,83.657 423.162,83.138 		"/>
	</g>
	<g>
		<polygon fill="#010101" stroke="#010101" stroke-width="0.25" points="421.208,93.835 421.935,97.036 421.006,96.794 
			419.989,100.7 418.794,100.388 419.81,96.483 418.88,96.242 		"/>
	</g>
	<g>
		<polygon fill="#010101" stroke="#010101" stroke-width="0.25" points="423.862,106.622 426.991,107.614 426.313,108.293 
			429.166,111.146 428.294,112.019 425.439,109.167 424.761,109.847 		"/>
	</g>
	<g>
		<polygon fill="#010101" stroke="#010101" stroke-width="0.25" points="436.038,112.234 439.084,111.011 438.991,111.967 
			443.008,112.354 442.89,113.583 438.873,113.197 438.782,114.153 		"/>
	</g>
	<g>
		<polygon fill="#010101" stroke="#010101" stroke-width="0.25" points="449.183,110.945 451.845,109.025 451.985,109.974 
			455.977,109.383 456.157,110.605 452.166,111.197 452.308,112.146 		"/>
	</g>
	<g>
		<polygon fill="#010101" stroke="#010101" stroke-width="0.25" points="461.051,105.242 462.388,102.245 462.986,102.995 
			466.141,100.479 466.911,101.444 463.756,103.96 464.355,104.711 		"/>
	</g>
	<g>
		<polygon fill="#010101" stroke="#010101" stroke-width="0.25" points="468.128,94.166 467.647,90.918 468.556,91.231 
			469.868,87.415 471.035,87.816 469.724,91.632 470.633,91.944 		"/>
	</g>
	<g>
		<polygon fill="#010101" stroke="#010101" stroke-width="0.25" points="468.458,80.614 466.001,78.438 466.896,78.093 
			465.444,74.328 466.597,73.884 468.049,77.648 468.945,77.302 		"/>
	</g>
	<g>
		<polygon fill="#010101" stroke="#010101" stroke-width="0.25" points="460.92,69.882 457.696,69.268 458.289,68.513 
			455.116,66.02 455.88,65.048 459.053,67.542 459.646,66.786 		"/>
	</g>
	<g>
		<polygon fill="#010101" stroke="#010101" stroke-width="0.25" points="448.077,66.375 445.529,68.444 445.334,67.504 
			441.383,68.321 441.133,67.112 445.084,66.294 444.889,65.354 		"/>
	</g>
	<g>
		<polygon fill="#010101" stroke="#010101" stroke-width="0.25" points="435.672,71.315 434.134,74.215 433.588,73.425 
			430.27,75.721 429.567,74.705 432.886,72.409 432.338,71.62 		"/>
	</g>
</g>
</svg>
