<?xml version="1.0" encoding="utf-8"?>
<!-- Generator: Adobe Illustrator 12.0.0, SVG Export Plug-In . SVG Version: 6.00 Build 51448)  -->
<!DOCTYPE svg PUBLIC "-//W3C//DTD SVG 1.1//EN" "http://www.w3.org/Graphics/SVG/1.1/DTD/svg11.dtd" [
	<!ENTITY ns_svg "http://www.w3.org/2000/svg">
	<!ENTITY ns_xlink "http://www.w3.org/1999/xlink">
]>
<svg  version="1.1" id="Layer_1" xmlns="&ns_svg;" xmlns:xlink="&ns_xlink;" width="724.691" height="165.866"
	 viewBox="0 0 724.691 165.866" overflow="visible" enable-background="new 0 0 724.691 165.866" xml:space="preserve">
<g>
	<path fill="none" d="M55.624,59.735c0,0-15.131-19.338-22.698-23.537c-7.567-4.2-30.266,23.537-32.788,42.879
		c-2.522,19.345,30.259,41.188,47.92,47.92c17.659,6.733,75.662,18.489,86.596,14.288c10.933-4.199,16.815-13.448,16.815-13.448"/>
	<g>
		<polygon fill="#010101" stroke="#010101" stroke-width="0.5" points="147.4,129.171 145.248,135.373 143.926,133.979 
			138.069,139.532 136.37,137.739 142.227,132.186 140.903,130.793 		"/>
	</g>
	<g>
		<polygon fill="#010101" stroke="#010101" stroke-width="0.5" points="126.668,139.47 120.732,142.273 120.803,140.354 
			112.738,140.057 112.829,137.589 120.894,137.885 120.963,135.965 		"/>
	</g>
	<g>
		<polygon fill="#010101" stroke="#010101" stroke-width="0.5" points="101.2,137.006 94.901,138.85 95.27,136.966 87.349,135.417 
			87.824,132.993 95.744,134.542 96.111,132.656 		"/>
	</g>
	<g>
		<polygon fill="#010101" stroke="#010101" stroke-width="0.5" points="75.813,132.049 69.431,133.581 69.892,131.716 
			62.058,129.778 62.651,127.38 70.485,129.318 70.945,127.453 		"/>
	</g>
	<g>
		<polygon fill="#010101" stroke="#010101" stroke-width="0.5" points="51.155,125.269 44.615,125.822 45.351,124.048 
			37.898,120.953 38.846,118.671 46.299,121.767 47.034,119.992 		"/>
	</g>
	<g>
		<polygon fill="#010101" stroke="#010101" stroke-width="0.5" points="28.708,113.577 22.227,112.539 23.368,110.995 
			16.88,106.196 18.349,104.21 24.837,109.008 25.978,107.463 		"/>
	</g>
	<g>
		<polygon fill="#010101" stroke="#010101" stroke-width="0.5" points="9.19,97.887 3.824,94.107 5.528,93.222 1.808,86.06 
			4,84.921 7.72,92.083 9.424,91.196 		"/>
	</g>
	<g>
		<polygon fill="#010101" stroke="#010101" stroke-width="0.5" points="3.878,75.315 2.947,68.817 4.76,69.45 7.419,61.83 
			9.751,62.643 7.093,70.264 8.908,70.895 		"/>
	</g>
	<g>
		<polygon fill="#010101" stroke="#010101" stroke-width="0.5" points="14.875,52.959 16.247,46.541 17.73,47.761 22.857,41.529 
			24.765,43.098 19.638,49.331 21.123,50.549 		"/>
	</g>
	<g>
		<polygon fill="#010101" stroke="#010101" stroke-width="0.5" points="31.068,41.412 37.415,39.739 36.996,41.613 44.871,43.376 
			44.332,45.786 36.456,44.024 36.038,45.899 		"/>
	</g>
	<g>
		<polygon fill="#010101" stroke="#010101" stroke-width="0.5" points="49.508,55.908 55.472,58.651 53.957,59.831 58.916,66.198 
			56.968,67.716 52.008,61.349 50.494,62.531 		"/>
	</g>
</g>
<g>
	<path fill="none" d="M217.156,60.274c0,0,17.664,31.943,16.816,43.708c-0.843,11.777-8.408,42.045-21.018,36.154
		c-12.609-5.889-27.752-26.898-19.338-41.198c8.407-14.288,49.607-42.864,55.488-54.642c5.886-11.777,8.408-15.977-4.202-21.021
		c-12.609-5.044-22.703,5.044-29.427,13.455c-6.729,8.411,2.522,18.5,2.522,18.5"/>
	<g>
		<polygon fill="#010101" stroke="#010101" stroke-width="0.5" points="217.091,47.397 213.872,41.677 215.791,41.611 
			215.512,33.545 217.98,33.459 218.26,41.525 220.18,41.457 		"/>
	</g>
	<g>
		<polygon fill="#010101" stroke="#010101" stroke-width="0.5" points="227.605,28.616 231.216,23.135 232.154,24.81 
			239.196,20.868 240.402,23.022 233.361,26.966 234.301,28.641 		"/>
	</g>
	<g>
		<polygon fill="#010101" stroke="#010101" stroke-width="0.5" points="247.663,27.507 253.209,31.017 251.552,31.985 
			255.622,38.954 253.489,40.2 249.418,33.231 247.76,34.202 		"/>
	</g>
	<g>
		<polygon fill="#010101" stroke="#010101" stroke-width="0.5" points="243.356,47.315 241.72,53.672 240.29,52.392 234.908,58.406 
			233.068,56.76 238.448,50.744 237.015,49.465 		"/>
	</g>
	<g>
		<polygon fill="#010101" stroke="#010101" stroke-width="0.5" points="224.966,65.163 222.511,71.25 221.26,69.793 215.137,75.05 
			213.528,73.176 219.65,67.918 218.398,66.462 		"/>
	</g>
	<g>
		<polygon fill="#010101" stroke="#010101" stroke-width="0.5" points="205.478,82.553 203.403,88.781 202.065,87.404 
			196.278,93.03 194.557,91.259 200.343,85.632 199.002,84.256 		"/>
	</g>
	<g>
		<polygon fill="#010101" stroke="#010101" stroke-width="0.5" points="188.808,104.821 192.112,110.493 190.195,110.587 
			190.595,118.648 188.128,118.771 187.727,110.71 185.809,110.807 		"/>
	</g>
	<g>
		<polygon fill="#010101" stroke="#010101" stroke-width="0.5" points="197.627,130.685 203.876,132.695 202.513,134.047 
			208.199,139.776 206.446,141.516 200.76,135.789 199.398,137.143 		"/>
	</g>
	<g>
		<polygon fill="#010101" stroke="#010101" stroke-width="0.5" points="220.605,138.913 223.879,133.223 224.916,134.839 
			231.708,130.48 233.042,132.559 226.25,136.918 227.29,138.534 		"/>
	</g>
	<g>
		<polygon fill="#010101" stroke="#010101" stroke-width="0.5" points="233.902,115.963 232.424,109.568 234.284,110.044 
			236.287,102.226 238.679,102.839 236.677,110.658 238.539,111.132 		"/>
	</g>
	<g>
		<polygon fill="#010101" stroke="#010101" stroke-width="0.5" points="233.04,89.174 228.131,84.816 229.924,84.127 
			227.029,76.594 229.335,75.708 232.23,83.241 234.022,82.551 		"/>
	</g>
	<g>
		<polygon fill="#010101" stroke="#010101" stroke-width="0.5" points="222.442,65.185 217.102,61.369 218.811,60.495 
			215.139,53.309 217.338,52.185 221.011,59.371 222.721,58.495 		"/>
	</g>
</g>
<g>
	<path fill="none" d="M557.05,63.785c0,0,12.986-15.068,27.52-12.989s8.301,27.521-5.719,36.355
		c-14.025,8.83-16.611,9.343-20.766,27.521c-4.157,18.178-0.523,23.361,17.132,26.996c17.653,3.635,49.33-12.977,49.33-12.977"/>
	<g>
		<polygon fill="#010101" stroke="#010101" stroke-width="0.5" points="611.94,131.728 607.634,136.682 606.926,134.897 
			599.423,137.871 598.514,135.575 606.016,132.6 605.306,130.815 		"/>
	</g>
	<g>
		<polygon fill="#010101" stroke="#010101" stroke-width="0.5" points="587.954,138.885 582.177,142.003 582.145,140.083 
			574.076,140.221 574.034,137.752 582.103,137.614 582.068,135.693 		"/>
	</g>
	<g>
		<polygon fill="#010101" stroke="#010101" stroke-width="0.5" points="565.576,134.398 559.148,133.071 560.357,131.58 
			554.089,126.496 555.646,124.578 561.914,129.661 563.123,128.167 		"/>
	</g>
	<g>
		<polygon fill="#010101" stroke="#010101" stroke-width="0.5" points="560.686,114.275 559.631,107.796 561.456,108.394 
			563.967,100.725 566.315,101.494 563.804,109.164 565.629,109.759 		"/>
	</g>
	<g>
		<polygon fill="#010101" stroke="#010101" stroke-width="0.5" points="572.7,94.021 576.003,88.349 577.032,89.97 583.847,85.647 
			585.169,87.732 578.356,92.057 579.386,93.677 		"/>
	</g>
	<g>
		<polygon fill="#010101" stroke="#010101" stroke-width="0.5" points="591.542,74.877 591.042,68.333 592.809,69.083 
			595.965,61.655 598.238,62.621 595.083,70.049 596.852,70.798 		"/>
	</g>
	<g>
		<polygon fill="#010101" stroke="#010101" stroke-width="0.5" points="586.474,50.984 580.088,52.503 580.553,50.641 
			572.722,48.689 573.319,46.292 581.151,48.243 581.613,46.379 		"/>
	</g>
	<g>
		<polygon fill="#010101" stroke="#010101" stroke-width="0.5" points="560.258,57.324 558.115,63.528 556.792,62.136 
			550.943,67.697 549.241,65.907 555.089,60.345 553.764,58.955 		"/>
	</g>
</g>
<g>
	<path fill="none" d="M458.874,35.871c0,0,32.709,22.854,33.23,34.276c0.521,11.422-26.987,37.91-38.42,27.521
		c-11.433-10.388,1.565-32.187,7.786-37.388c6.226-5.199,43.659-41.586,43.659-41.586"/>
	<g>
		<polygon fill="#010101" stroke="#010101" stroke-width="0.5" points="493.034,27.113 490.837,33.298 489.527,31.896 
			483.63,37.406 481.944,35.602 487.839,30.09 486.527,28.688 		"/>
	</g>
	<g>
		<polygon fill="#010101" stroke="#010101" stroke-width="0.5" points="474.297,45.096 472.053,51.265 470.752,49.852 
			464.814,55.317 463.142,53.5 469.08,48.034 467.778,46.622 		"/>
	</g>
	<g>
		<polygon fill="#010101" stroke="#010101" stroke-width="0.5" points="455.747,63.886 454.997,70.407 453.404,69.335 
			448.897,76.03 446.848,74.651 451.354,67.955 449.759,66.884 		"/>
	</g>
	<g>
		<polygon fill="#010101" stroke="#010101" stroke-width="0.5" points="447.503,90.12 452.659,94.182 450.911,94.975 
			454.242,102.326 451.993,103.345 448.66,95.995 446.911,96.789 		"/>
	</g>
	<g>
		<polygon fill="#010101" stroke="#010101" stroke-width="0.5" points="470.456,98.973 474.016,93.458 474.969,95.125 
			481.974,91.118 483.201,93.262 476.196,97.27 477.151,98.936 		"/>
	</g>
	<g>
		<polygon fill="#010101" stroke="#010101" stroke-width="0.5" points="489.875,80.681 490.052,74.12 491.732,75.048 
			495.636,67.985 497.797,69.18 493.895,76.244 495.577,77.171 		"/>
	</g>
	<g>
		<polygon fill="#010101" stroke="#010101" stroke-width="0.5" points="485.459,55.431 479.221,53.389 480.591,52.044 
			474.935,46.287 476.697,44.556 482.353,50.312 483.722,48.964 		"/>
	</g>
	<g>
		<polygon fill="#010101" stroke="#010101" stroke-width="0.5" points="465.77,37.985 459.3,36.876 460.458,35.346 454.023,30.476 
			455.513,28.506 461.95,33.375 463.107,31.842 		"/>
	</g>
</g>
<g>
	<path fill="none" d="M695.946,5.224c0,0-46.92,59.774-14.892,107.994c14.755,12.445,3.28,42.041-22.346,37.242
		c-14.521-10.6,33.787-52.862,57.93-36.865c24.146,16-31.862-49.485-15.999-35.92"/>
	<g>
		<polygon fill="#010101" stroke="#010101" stroke-width="0.5" points="707.658,78.582 701.093,78.535 701.989,76.837 
			694.85,73.073 696.001,70.888 703.141,74.651 704.036,72.951 		"/>
	</g>
	<g>
		<polygon fill="#010101" stroke="#010101" stroke-width="0.5" points="704.848,90.996 710.639,94.087 709.057,95.175 
			713.63,101.825 711.595,103.224 707.021,96.575 705.44,97.666 		"/>
	</g>
	<g>
		<polygon fill="#010101" stroke="#010101" stroke-width="0.5" points="724.287,108.938 721.832,115.026 720.581,113.569 
			714.458,118.827 712.849,116.953 718.971,111.694 717.718,110.238 		"/>
	</g>
	<g>
		<polygon fill="#010101" stroke="#010101" stroke-width="0.5" points="701.815,107.874 696.782,112.086 696.365,110.212 
			688.487,111.964 687.951,109.554 695.829,107.8 695.409,105.926 		"/>
	</g>
	<g>
		<polygon fill="#010101" stroke="#010101" stroke-width="0.5" points="676.535,116.746 673.565,122.6 672.444,121.041 
			665.891,125.752 664.45,123.747 671.001,119.035 669.878,117.476 		"/>
	</g>
	<g>
		<polygon fill="#010101" stroke="#010101" stroke-width="0.5" points="657.588,135.606 657.342,142.166 655.671,141.218 
			651.693,148.241 649.544,147.023 653.522,140 651.85,139.055 		"/>
	</g>
	<g>
		<polygon fill="#010101" stroke="#010101" stroke-width="0.5" points="670.108,151.682 674.706,146.998 675.303,148.823 
			682.972,146.308 683.742,148.655 676.073,151.17 676.673,152.995 		"/>
	</g>
	<g>
		<polygon fill="#010101" stroke="#010101" stroke-width="0.5" points="689.304,132.455 686.329,126.604 688.249,126.618 
			688.309,118.547 690.779,118.566 690.719,126.636 692.64,126.649 		"/>
	</g>
	<g>
		<polygon fill="#010101" stroke="#010101" stroke-width="0.5" points="681.202,107.649 676.164,103.441 677.934,102.699 
			674.815,95.255 677.092,94.301 680.213,101.744 681.984,100.999 		"/>
	</g>
	<g>
		<polygon fill="#010101" stroke="#010101" stroke-width="0.5" points="673.488,83.95 670.077,78.341 671.993,78.21 671.441,70.159 
			673.905,69.99 674.458,78.042 676.374,77.908 		"/>
	</g>
	<g>
		<polygon fill="#010101" stroke="#010101" stroke-width="0.5" points="674.447,58.786 672.552,52.501 674.439,52.854 
			675.925,44.922 678.353,45.377 676.868,53.31 678.756,53.661 		"/>
	</g>
	<g>
		<polygon fill="#010101" stroke="#010101" stroke-width="0.5" points="682.043,34.674 681.716,28.118 683.462,28.916 
			686.813,21.573 689.06,22.599 685.71,29.941 687.459,30.737 		"/>
	</g>
	<g>
		<polygon fill="#010101" stroke="#010101" stroke-width="0.5" points="693.857,12.129 694.938,5.655 696.474,6.807 701.317,0.35 
			703.292,1.832 698.452,8.289 699.989,9.44 		"/>
	</g>
</g>
<g>
	<path fill="none" d="M364.086,29.54c3.416,23.545,10.889,22.39,13.468,45.445c20.689,24.685-41.345-26.014-48.48-8.02
		s-5.238,20.803-1.796,46.778c3.446,25.975,22.447,52.123,22.447,52.123"/>
	<g>
		<polygon fill="#010101" stroke="#010101" stroke-width="0.5" points="350.055,161.994 344.452,158.575 346.094,157.58 
			341.911,150.677 344.022,149.397 348.207,156.298 349.848,155.301 		"/>
	</g>
	<g>
		<polygon fill="#010101" stroke="#010101" stroke-width="0.5" points="337.834,139.469 332.746,135.324 334.507,134.56 
			331.295,127.156 333.561,126.172 336.773,133.577 338.535,132.81 		"/>
	</g>
	<g>
		<polygon fill="#010101" stroke="#010101" stroke-width="0.5" points="330.278,115.286 326.264,110.093 328.152,109.749 
			326.707,101.809 329.136,101.367 330.583,109.306 332.473,108.959 		"/>
	</g>
	<g>
		<polygon fill="#010101" stroke="#010101" stroke-width="0.5" points="326.948,90.098 324.123,84.173 326.042,84.236 
			326.308,76.17 328.776,76.251 328.511,84.318 330.431,84.379 		"/>
	</g>
	<g>
		<polygon fill="#010101" stroke="#010101" stroke-width="0.5" points="330.707,67.032 335.902,63.02 336.245,64.909 
			344.186,63.468 344.627,65.898 336.687,67.34 337.031,69.23 		"/>
	</g>
	<g>
		<polygon fill="#010101" stroke="#010101" stroke-width="0.5" points="354.031,71.38 360.594,71.286 359.735,73.003 
			366.955,76.612 365.85,78.821 358.631,75.213 357.773,76.932 		"/>
	</g>
	<g>
		<polygon fill="#010101" stroke="#010101" stroke-width="0.5" points="378.488,85.708 379,79.164 380.63,80.178 384.89,73.323 
			386.988,74.626 382.729,81.481 384.362,82.494 		"/>
	</g>
	<g>
		<polygon fill="#010101" stroke="#010101" stroke-width="0.5" points="376.65,59.64 371.708,55.32 373.495,54.618 370.543,47.106 
			372.842,46.203 375.794,53.714 377.582,53.01 		"/>
	</g>
	<g>
		<polygon fill="#010101" stroke="#010101" stroke-width="0.5" points="367.925,35.647 363.75,30.582 365.628,30.179 
			363.936,22.288 366.351,21.77 368.044,29.661 369.921,29.256 		"/>
	</g>
</g>
</svg>
