<?xml version="1.0" encoding="utf-8"?>
<!-- Generator: Adobe Illustrator 12.0.0, SVG Export Plug-In . SVG Version: 6.00 Build 51448)  -->
<!DOCTYPE svg PUBLIC "-//W3C//DTD SVG 1.1//EN" "http://www.w3.org/Graphics/SVG/1.1/DTD/svg11.dtd" [
	<!ENTITY ns_svg "http://www.w3.org/2000/svg">
	<!ENTITY ns_xlink "http://www.w3.org/1999/xlink">
]>
<svg  version="1.1" id="Layer_1" xmlns="&ns_svg;" xmlns:xlink="&ns_xlink;" width="675.982" height="55.977"
	 viewBox="0 0 675.982 55.977" overflow="visible" enable-background="new 0 0 675.982 55.977" xml:space="preserve">
<g>
	<g>
		<path fill="none" d="M101.06,11.934c0,0-17.135,9.563-16.549,18.914c0.586,9.35,2.461,19.146,8.865,17.729
			c2.467-1.266,5.494-2.93,7.684-4.729c3.408-4.863,5.928-7.033,1.896-13.304c-1.907-2.967-11.645,7.166-11.645,7.166"/>
		<path d="M102.827,10.166c-5.733,3.236-10.822,7.63-15.241,12.492c-4.236,4.66-5.103,8.421-4.428,14.616
			c0.514,4.714,2.542,16.154,9.724,12.405c6.448-3.365,19.182-13.118,11.535-21.229c-2.459-2.607-12.775,8.851-14.641,10.777
			c-0.643,0.664,0.564-0.517,0.658-0.61c0.811-0.801,1.619-1.605,2.412-2.425c-2.115,2.185,2.393-1.881,3.272-2.535
			c1.23-0.915,2.768-1.983,4.368-1.848c2.014,0.172,2.768,5.19,2.738,6.696c-0.051,2.585-2.533,5.147-3.933,7.109
			c1.178-1.179,2.357-2.356,3.535-3.535c-3.614,2.769-8.764,7.177-12.698,2.84c-3.449-3.803-3.514-11.067-3.851-15.84
			c-0.513-7.264,7.532-12.285,13.014-15.379C100.698,12.908,101.438,10.95,102.827,10.166L102.827,10.166z"/>
	</g>
</g>
<g>
	<g>
		<path fill="none" d="M369.413,35.568c0,0,28.356-2.064,33.99-1.309c5.634,0.746-7.888,12.393-15.587,13.895
			c-2.816-6.385,0-46.387,0-46.387"/>
		<path d="M367.646,37.336c8.348-0.604,16.709-1.117,25.074-1.389c1.768-0.057,9.472-1.205,10.239,1.062
			c0.214,0.63-0.422,1.52-0.711,2.006c-0.713,0.893-0.56,0.841,0.459-0.154c-0.805,0.724-1.639,1.411-2.503,2.063
			c-2.406,1.873-5.074,3.414-7.872,4.616c-2.392,1.027-2.882,1.061-3.331-1.359c-0.351-1.887-0.436-3.831-0.531-5.743
			c-0.271-5.337-0.139-10.701,0.009-16.04c0.207-7.47,0.584-14.942,1.105-22.397c-0.086,1.229-3.446,2.256-3.535,3.535
			c-0.597,8.521-0.996,17.062-1.186,25.602c-0.124,5.558-0.197,11.165,0.349,16.705c0.135,1.367,0.055,4.265,1.715,3.873
			c3.185-0.753,6.155-2.731,8.804-4.567c3.341-2.316,6.301-5.339,9.028-8.342c3.865-4.257-0.261-4.475-3.925-4.479
			c-9.882-0.014-19.802,0.761-29.653,1.475C369.899,33.894,368.877,37.247,367.646,37.336L367.646,37.336z"/>
	</g>
</g>
<g>
	<g>
		<path fill="none" d="M228.562,47.646c5.457-0.229,14.77-0.529,22.344,1.203s12.354-4.016,13.437-8.523
			c1.081-4.51-1.176-6.73-6.225-6.73"/>
		<path d="M226.794,49.414c6.434-0.26,12.844-0.276,19.234,0.614c5.524,0.77,9.477,1.4,13.78-2.721
			c4.724-4.522,11.462-15,0.076-15.479c-1.154-0.049-2.437,3.582-3.535,3.535c3.232,0.137,6.064,0.9,6.486,4.497
			c0.2,1.705-0.622,3.534-1.348,5.018c-0.534,1.091-1.152,1.409-3.369,2.159c-4.001,1.354-9.308-0.734-13.393-1.088
			c-4.78-0.414-9.61-0.264-14.397-0.07C229.08,45.929,227.992,49.366,226.794,49.414L226.794,49.414z"/>
	</g>
</g>
<g>
	<g>
		<line fill="none" x1="1.768" y1="53.041" x2="41.473" y2="54.209"/>
		<path d="M0,54.809c13.235,0.39,26.47,0.779,39.705,1.168c1.169,0.034,2.42-3.568,3.535-3.535
			c-13.235-0.39-26.47-0.779-39.705-1.168C2.366,51.239,1.115,54.842,0,54.809L0,54.809z"/>
	</g>
</g>
<g>
	<g>
		<polyline fill="none" points="445.782,38.912 453.847,48.245 462.472,36.826 		"/>
		<path d="M444.015,40.68c2.688,3.111,5.376,6.223,8.064,9.333c-0.029-0.033,3.237-3.141,3.535-3.535
			c2.875-3.807,5.75-7.613,8.625-11.419c-0.991,1.313-2.538,2.215-3.535,3.535c-2.875,3.807-5.75,7.613-8.625,11.419
			c1.179-1.179,2.356-2.356,3.535-3.535c-2.688-3.111-5.376-6.223-8.064-9.333C447.604,37.207,443.91,40.56,444.015,40.68
			L444.015,40.68z"/>
	</g>
</g>
<g>
	<g>
		<path fill="none" d="M599.149,24.916c16.13,3.869,5.008,19.191-2.294,18.252"/>
		<path d="M597.382,26.684c4.851,1.284,9.305,4.231,8.008,9.823c-0.223,0.961-0.685,1.857-1.165,2.71
			c-0.208,0.348-0.433,0.686-0.672,1.013c-1.325,1.896,2.354-1.929,0.539-0.566c-1.569,1.179-3.5,1.895-5.469,1.737
			c-1.105-0.089-2.487,3.619-3.535,3.535c4.777,0.383,8.838-4.453,11.628-7.758c1.762-2.087,2.782-4.825,2.364-7.552
			c-0.593-3.873-4.876-5.608-8.163-6.478C600.076,22.926,598.159,26.89,597.382,26.684L597.382,26.684z"/>
	</g>
</g>
<g>
	<g>
		<g>
			<path fill="none" d="M512.222,25.963c3.041,0.611,7.904,13.381,7.904,13.381"/>
			<path d="M510.454,27.73c2.44,0.726,3.951,4.63,4.969,6.668c1.09,2.182,2.063,4.436,2.936,6.713
				c-0.23-0.602,3.79-2.869,3.535-3.535c-0.807-2.106-1.717-4.176-2.689-6.21c-1.028-2.151-2.654-6.41-5.215-7.171
				C513.197,23.959,511.183,27.947,510.454,27.73L510.454,27.73z"/>
		</g>
	</g>
	<g>
		<g>
			<path fill="none" d="M519.599,23.771c0,0,9.131-6.559,12.938,0.708s2.734,10.009-1.418,13.47
				c-4.152,3.459-7.621,6.025-7.621,6.025"/>
			<path d="M517.831,25.539c4.969-3.484,10.609-3.937,13.595,2.019c1.575,3.143,2.466,6.516,0.434,9.616
				c0.566-0.525,1.134-1.051,1.701-1.576c-0.939,0.807-1.891,1.597-2.855,2.372c-0.923,0.751-1.859,1.484-2.796,2.218
				c-0.873,0.684-1.755,1.357-2.645,2.02c-1.327,0.986-2.217,2.556-3.535,3.535c3.182-2.365,6.427-4.774,9.28-7.532
				c2.001-1.934,4.439-3.919,5.407-6.598c1.481-4.102-2.071-10.986-6.122-12.174c-2.912-0.854-6.59,0.925-8.929,2.566
				C520.018,22.95,519.169,24.601,517.831,25.539L517.831,25.539z"/>
		</g>
	</g>
</g>
<g>
	<g>
		<path fill="none" d="M307.796,31.389c0,0,6.82-5.559,11.194-1.859c5.536,4.684,5.254,17.93-9.53,17.449
			c-12.788-0.416-4.024-15.584-0.999-15.584"/>
		<path d="M306.028,33.156c3.977-3.165,9.596-4.752,12.875,0.087c1.232,1.817,1.676,4.088,1.62,6.246
			c-0.03,1.127-0.335,2.22-0.741,3.262c-0.208,0.535-0.515,1.023-0.82,1.506c-1.047,1.66,3.295-2.42,0.335-0.657
			c-3.962,2.358-13.026,3.157-14.649-2.454c-0.592-2.044,0.185-4.388,0.987-6.255c0.424-0.986,0.991-1.907,1.601-2.787
			c1.275-1.839-3.06,2.548-1.516,1.429c0.293-0.213,0.616-0.331,0.972-0.37c1.315-0.145,2.267-3.396,3.535-3.535
			c-1.821,0.2-3.702,2.914-4.846,4.082c-1.775,1.811-3.061,3.881-3.889,6.287c-3.082,8.954,7.5,10.123,13.655,7.452
			c2.539-1.102,4.523-3.602,6.393-5.549c1.98-2.063,2.694-4.813,2.474-7.609c-0.239-3.036-1.958-6.04-4.709-7.406
			c-3.073-1.525-7.357,0.839-9.743,2.737C308.265,30.654,307.32,32.129,306.028,33.156L306.028,33.156z"/>
	</g>
</g>
<g>
	<g>
		<line fill="none" x1="674.215" y1="23.77" x2="667.068" y2="45.207"/>
		<path d="M672.447,25.537c-2.382,7.146-4.765,14.292-7.146,21.438c0.466-1.397,3.059-2.105,3.535-3.535
			c2.382-7.146,4.765-14.292,7.146-21.438C675.517,23.399,672.924,24.108,672.447,25.537L672.447,25.537z"/>
	</g>
</g>
<g>
	<g>
		<path fill="none" d="M154.018,38.604c0,0,5.201-2.932,7.328-1.409c2.129,1.519,2.275,6.019,0.756,7.232s-6.363,1.653-10.62,3.478
			c-10.482,4.492,21.621-2.219,30.386-0.135"/>
		<path d="M152.25,40.371c2.018-1.096,4.193-1.961,6.517-1.762c3.151,0.271,2.975,5.873,1.567,7.585
			c1.178-1.179,2.357-2.356,3.535-3.535c-4.167,2.455-9.846,1.813-13.444,5.369c-1.858,1.837-4.323,3.347-0.428,3.202
			c9.795-0.365,20.353-3.713,30.102-1.693c0.926,0.192,2.671-3.715,3.535-3.535c-6.252-1.296-13.248-0.017-19.509,0.653
			c-3.129,0.335-6.254,0.713-9.391,0.964c-0.309,0.024-4.08,0.333-3.419-0.451c-1.178,1.179-2.357,2.357-3.535,3.536
			c2.599-2.045,6.543-2.553,9.647-3.356c2.604-0.676,3.762-1.957,5.581-3.798c1.898-1.921,2.215-3.883,1.334-6.523
			c-1.25-3.748-6.283-1.426-8.558-0.19C154.372,37.604,153.644,39.614,152.25,40.371L152.25,40.371z"/>
	</g>
</g>
</svg>
