<?xml version="1.0" encoding="utf-8"?>
<!-- Generator: Adobe Illustrator 12.0.0, SVG Export Plug-In . SVG Version: 6.00 Build 51448)  -->
<!DOCTYPE svg PUBLIC "-//W3C//DTD SVG 1.1//EN" "http://www.w3.org/Graphics/SVG/1.1/DTD/svg11.dtd" [
	<!ENTITY ns_svg "http://www.w3.org/2000/svg">
	<!ENTITY ns_xlink "http://www.w3.org/1999/xlink">
]>
<svg  version="1.1" id="Layer_1" xmlns="&ns_svg;" xmlns:xlink="&ns_xlink;" width="404" height="72.364" viewBox="0 0 404 72.364"
	 overflow="visible" enable-background="new 0 0 404 72.364" xml:space="preserve">
<g>
	<g>
		<path fill="none" d="M21.886,32.496c0,0-5.473-6.994-8.21-8.513C10.94,22.465,2.731,32.496,1.819,39.492
			s10.943,14.896,17.331,17.33c6.387,2.436,27.364,6.688,31.318,5.168s6.082-4.863,6.082-4.863"/>
		<path d="M23.654,30.729c-2.162-2.744-5.211-7.56-8.66-8.656c-2.191-0.697-6.021,4.265-7.318,5.576
			c-3.461,3.493-6.181,7.762-7.435,12.541c-1.552,5.916,4.735,10.885,8.88,13.883c8.826,6.385,20.572,8.17,31.121,9.563
			c4.412,0.582,8.641,1.13,12.188-2.142c2.032-1.874,4.331-3.832,5.888-6.134c-0.912,1.349-2.615,2.175-3.535,3.535
			c-0.124,0.188-0.255,0.37-0.395,0.547c1.274-1.725-1.771,0.604-2.152,0.781c-1.058,0.489-2.533,0.326-3.655,0.302
			c-3.914-0.086-7.846-0.819-11.687-1.511c-8.15-1.469-16.092-3.248-23.147-7.737c-3.817-2.43-7.457-5.591-9.501-9.685
			c-1.924-3.854,0.504-8.376,2.433-11.703c1.565-2.7,3.509-5.583,6.547-3.188c2.635,2.078,4.825,4.938,6.894,7.563
			C20.021,34.139,23.799,30.912,23.654,30.729L23.654,30.729z"/>
	</g>
</g>
<g>
	<g>
		<path fill="none" d="M97.598,33.611c0,0,6.389,11.553,6.082,15.808c-0.305,4.259-3.041,15.206-7.602,13.075
			c-4.561-2.129-10.037-9.729-6.994-14.899c3.041-5.167,17.941-15.503,20.068-19.763c2.129-4.259,3.041-5.777-1.52-7.602
			s-8.211,1.824-10.643,4.865c-2.434,3.043,0.912,6.691,0.912,6.691"/>
		<path d="M95.83,35.379c4.8,8.742,9.337,19.188,1.845,28.055c1.156-1.158,2.312-2.317,3.468-3.477
			c-3.489,3.061-7.548-2.314-9.321-4.982c-1.388-2.088-1.956-4.5-1.755-6.969c0.082-1.002,0.625-1.931,1.155-2.752
			c0.286-0.441,2.545-2.734,1.099-1.382c5.243-4.902,10.842-9.345,15.874-14.479c1.926-1.964,3.153-3.927,4.199-6.504
			c0.769-1.894-0.226-2.955-1.784-3.885c-2.693-1.609-5.379-1.062-7.914,0.443c-2.03,1.206-3.811,3.428-5.442,5.115
			c-2.715,2.81-3.95,5.678-1.118,8.992c-0.061-0.07,3.645-3.408,3.535-3.535c-4.926-5.767,1.785-9.997,7.403-7.48
			c2.887,1.293,1.992,3.581,0.909,5.862c-0.612,1.289-1.214,2.22-2.161,3.295c1.704-1.935-1.534,1.259-1.896,1.578
			c-3.72,3.266-7.529,6.417-11.042,9.91c-2.753,2.738-6.111,5.396-6.446,9.509c-0.334,4.102,5.169,12.969,9.999,11.636
			c2.082-0.574,4.704-4.147,5.867-5.888c5.972-8.933,1.622-18.294-2.938-26.598C99.572,32.22,95.588,34.939,95.83,35.379
			L95.83,35.379z"/>
	</g>
</g>
<g>
	<g>
		<path fill="none" d="M306.439,27.358c0,0,4.697-5.449,9.953-4.697s3.002,9.953-2.068,13.148c-5.072,3.193-6.008,3.379-7.51,9.953
			c-1.504,6.574-0.189,8.449,6.195,9.764s17.842-4.693,17.842-4.693"/>
		<path d="M308.148,25.659c-2.717,3.039,0.03,0.465,1.56-0.346c1.801-0.954,3.87-1.159,5.815-0.647
			c3.57,0.939,1.767,6.533,0.818,8.598c-0.579,1.259-1.348,1.442-3.158,2.625c-0.812,0.53-1.493,1.143-2.184,1.81
			c-1.104,1.066-2.303,2.122-3.285,3.304c-2.252,2.705-2.937,6.74-3.225,10.149c-0.306,3.627,2.418,5.004,5.46,5.852
			c6.272,1.748,13.623-1.55,19.134-4.401c1.42-0.734,2.136-2.812,3.535-3.535c-5.266,2.725-11.813,5.566-17.842,4.693
			c-3.199-0.464-6.271-1.718-6.741-5.184c-0.462-3.393,1.023-8.479,3.214-11.11c-1.095,1.102-2.19,2.202-3.285,3.304
			c5.068-4.898,14.245-8.331,13.066-17.136c-0.773-5.776-9.218-1.436-11.479,0.632c-1.664,1.522-3.318,3.112-4.821,4.794
			C305.515,28.181,307.145,26.781,308.148,25.659L308.148,25.659z"/>
	</g>
</g>
<g>
	<g>
		<path fill="none" d="M241.316,27.303c0,0,11.83,8.266,12.018,12.396c0.189,4.131-9.76,13.711-13.895,9.953
			s0.566-11.641,2.816-13.521s15.789-15.041,15.789-15.041"/>
		<path d="M239.549,29.07c4.211,2.965,9.292,6.507,11.695,11.177c2.621,5.092-7.08,11.023-10.792,6.772
			c-2.557-2.929,0.214-8.135,1.898-10.72c-1.63,2.501-1.648,1.439-0.284,0.183c1.045-0.962,2.073-1.944,3.104-2.922
			c3.811-3.618,7.588-7.273,11.356-10.936c0.817-0.794,1.624-1.601,2.425-2.412c0.093-0.094,1.272-1.302,0.61-0.658
			c-5.118,4.973-10.126,10.156-15.539,14.809c-4.154,3.571-12.34,12.787-5.724,17.505c4.55,3.244,13.144-7.081,15.429-10.313
			c4.516-6.39-6.152-12.858-10.645-16.021C242.82,25.35,239.751,29.213,239.549,29.07L239.549,29.07z"/>
	</g>
</g>
<g>
	<g>
		<path fill="none" d="M392.578,1.768c0,0-16.969,21.618-5.387,39.058c5.338,4.501,1.188,15.205-8.08,13.47
			c-5.252-3.834,12.219-19.119,20.951-13.333s-11.523-17.897-5.787-12.991"/>
		<path d="M390.811,3.535c-6.705,8.645-11.045,20.502-8.735,31.403c1.37,6.466,8.249,10.705,4.323,17.531
			c1.091-1.896-0.415-0.253-2.024,0.121c-1.387,0.321-3.3,0.414-4.179-0.827c-0.535-0.756-0.23-1.863,0.008-2.65
			c0.257-0.852,2.611-3.787,0.5-1.788c4.184-3.961,11.101-7.495,16.822-5.041c0.586,0.252,2.28,1.864,2.991,1.203
			c1.114-1.035,2.179-2.134,3.235-3.227c1.274-1.319-2.747-5.893-3.484-6.94c-0.729-1.035-5.768-6.502-5.239-7.783
			c-1.178,1.178-2.356,2.357-3.535,3.535c0.354-0.009,0.771,0.464,1.015,0.665c0.147,0.123,3.445-3.61,3.535-3.535
			c-0.242-0.201-0.659-0.675-1.015-0.665c-0.579,0.016-3.291,2.945-3.535,3.535c-0.469,1.134,3.773,5.734,4.405,6.613
			c0.948,1.32,5.302,6.04,4.551,7.859c1.179-1.179,2.356-2.357,3.535-3.536c-0.692,0.491-2.405-0.961-2.923-1.261
			c-2.14-1.237-4.884-0.91-7.166-0.392c-4.382,0.996-8.186,3.92-11.316,7.014c-2.323,2.297-5.118,4.646-6.092,7.874
			c-1.649,5.468,7.381,2.005,9.257,0.167c2.644-2.592,5.197-4.85,5.569-8.774c0.278-2.938-1.74-4.594-3.134-6.833
			c-1.924-3.091-2.807-6.701-3.181-10.28c-0.996-9.515,3.59-20.102,9.347-27.524C393.336,1.302,391.826,2.226,390.811,3.535
			L390.811,3.535z"/>
	</g>
</g>
<g>
	<g>
		<path fill="none" d="M164.621,21.291c1.84,8.516,5.863,8.098,7.252,16.436c11.141,8.928-22.262-9.408-26.104-2.9
			s-2.82,7.523-0.967,16.918c1.855,9.395,12.086,18.852,12.086,18.852"/>
		<path d="M162.854,23.059c1.189,4.779,4.176,7.985,6.141,12.342c0.947,2.101,0.756,3.709,2.492,5.267
			c0.285,0.256,0.935,0.757,0.864,1.208c1.095-1.102,2.19-2.202,3.285-3.304c-0.982,0.938-11.871-4.016-13.395-4.523
			c-3.423-1.138-11.249-4.443-14.454-1.345c-4.504,4.353-7.129,8.568-5.923,15.116c1.804,9.792,5.949,17.698,13.257,24.543
			c0.067,0.063,3.523-3.547,3.535-3.535c-4.802-4.498-8.967-10.021-11.344-16.174c-2.461-6.37-3.723-14.067,0.45-19.911
			c-0.882,0.892-1.763,1.784-2.645,2.675c0.092-0.091,0.184-0.181,0.275-0.272c-0.297,0.287-0.594,0.573-0.891,0.86
			c3.271-2.336,9.235,0.039,12.587,1.061c4.71,1.437,9.24,3.542,14.004,4.783c1.48,0.386,5.283-2.899,4.657-3.939
			c-0.359-0.598-1.054-1.075-1.572-1.516c-1.2-1.02-1.415-4.014-2.119-5.576c-1.818-4.034-4.557-6.825-5.67-11.297
			C166.588,20.325,162.638,22.194,162.854,23.059L162.854,23.059z"/>
	</g>
</g>
</svg>
