<?xml version="1.0" encoding="utf-8"?>
<!-- Generator: Adobe Illustrator 12.0.0, SVG Export Plug-In . SVG Version: 6.00 Build 51448)  -->
<!DOCTYPE svg PUBLIC "-//W3C//DTD SVG 1.1//EN" "http://www.w3.org/Graphics/SVG/1.1/DTD/svg11.dtd" [
	<!ENTITY ns_svg "http://www.w3.org/2000/svg">
	<!ENTITY ns_xlink "http://www.w3.org/1999/xlink">
]>
<svg  version="1.1" id="Layer_1" xmlns="&ns_svg;" xmlns:xlink="&ns_xlink;" width="890.93" height="356.4"
	 viewBox="0 0 890.93 356.4" overflow="visible" enable-background="new 0 0 890.93 356.4" xml:space="preserve">
<g>
	<g>
		<path fill="none" d="M152.333,225.178c-4.063,4.633,11.297,85.488-9.277,84.334c-14.746-0.832-17.096-11.596-19.13-22.316
			c-2.035-10.723,39.71-8.4,44.635-8.693c5.507,3.186,9.27,9.566,7.534,15.359c-1.736,5.793-11.02,11.012-6.958,5.215
			c4.063-5.797,3.189-74.48,4.639-79.119"/>
		<g>
			<polygon fill="#010101" stroke="#010101" stroke-width="0.25" points="172.39,222.85 173.649,225.881 172.693,225.8 
				172.354,229.822 171.123,229.717 171.462,225.697 170.504,225.617 			"/>
		</g>
		<g>
			<polygon fill="#010101" stroke="#010101" stroke-width="0.25" points="171.79,235.881 173.184,238.852 172.225,238.815 
				172.067,242.847 170.833,242.798 170.99,238.766 170.031,238.73 			"/>
		</g>
		<g>
			<polygon fill="#010101" stroke="#010101" stroke-width="0.25" points="171.482,248.87 172.868,251.844 171.909,251.804 
				171.74,255.835 170.506,255.784 170.675,251.752 169.715,251.712 			"/>
		</g>
		<g>
			<polygon fill="#010101" stroke="#010101" stroke-width="0.25" points="171.139,261.86 172.525,264.834 171.566,264.794 
				171.396,268.826 170.163,268.774 170.332,264.743 169.372,264.703 			"/>
		</g>
		<g>
			<polygon fill="#010101" stroke="#010101" stroke-width="0.25" points="170.655,274.809 171.952,277.824 170.995,277.755 
				170.706,281.78 169.474,281.692 169.762,277.667 168.804,277.599 			"/>
		</g>
		<g>
			<polygon fill="#010101" stroke="#010101" stroke-width="0.25" points="169.871,287.691 170.967,290.784 170.016,290.653 
				169.462,294.65 168.239,294.48 168.792,290.483 167.841,290.352 			"/>
		</g>
		<g>
			<polygon fill="#010101" stroke="#010101" stroke-width="0.25" points="167.302,299.397 170.563,299.762 170.03,300.56 
				173.384,302.803 172.698,303.83 169.343,301.587 168.81,302.386 			"/>
		</g>
		<g>
			<polygon fill="#010101" stroke="#010101" stroke-width="0.25" points="177.129,292.567 175.322,289.828 176.276,289.727 
				175.853,285.713 177.081,285.584 177.505,289.597 178.46,289.495 			"/>
		</g>
		<g>
			<polygon fill="#010101" stroke="#010101" stroke-width="0.25" points="172.115,280.476 169.02,279.382 169.721,278.726 
				166.96,275.783 167.861,274.938 170.622,277.881 171.322,277.223 			"/>
		</g>
		<g>
			<polygon fill="#010101" stroke="#010101" stroke-width="0.25" points="159.442,277.33 156.52,278.822 156.525,277.862 
				152.49,277.837 152.497,276.602 156.533,276.626 156.537,275.666 			"/>
		</g>
		<g>
			<polygon fill="#010101" stroke="#010101" stroke-width="0.25" points="146.38,277.704 143.564,279.389 143.505,278.431 
				139.477,278.679 139.401,277.447 143.429,277.199 143.369,276.24 			"/>
		</g>
		<g>
			<polygon fill="#010101" stroke="#010101" stroke-width="0.25" points="133.329,279.411 130.856,281.568 130.628,280.635 
				126.708,281.593 126.415,280.393 130.335,279.436 130.106,278.502 			"/>
		</g>
		<g>
			<polygon fill="#010101" stroke="#010101" stroke-width="0.25" points="122.882,287.905 125.014,290.4 124.079,290.618 
				124.995,294.548 123.792,294.829 122.876,290.899 121.94,291.118 			"/>
		</g>
		<g>
			<polygon fill="#010101" stroke="#010101" stroke-width="0.25" points="127.059,300.501 129.91,302.126 129.104,302.648 
				131.299,306.035 130.263,306.707 128.068,303.32 127.262,303.843 			"/>
		</g>
		<g>
			<polygon fill="#010101" stroke="#010101" stroke-width="0.25" points="137.192,308.763 140.445,308.326 140.121,309.229 
				143.919,310.591 143.503,311.753 139.704,310.392 139.381,311.296 			"/>
		</g>
		<g>
			<polygon fill="#010101" stroke="#010101" stroke-width="0.25" points="150.01,306.262 150.372,303 151.17,303.533 
				153.409,300.176 154.437,300.861 152.198,304.218 152.998,304.75 			"/>
		</g>
		<g>
			<polygon fill="#010101" stroke="#010101" stroke-width="0.25" points="153.984,293.615 153.153,290.44 154.09,290.652 
				154.978,286.715 156.182,286.987 155.295,290.923 156.232,291.134 			"/>
		</g>
		<g>
			<polygon fill="#010101" stroke="#010101" stroke-width="0.25" points="154.966,280.48 153.53,277.53 154.489,277.553 
				154.59,273.519 155.824,273.55 155.724,277.584 156.685,277.607 			"/>
		</g>
		<g>
			<polygon fill="#010101" stroke="#010101" stroke-width="0.25" points="154.946,267.409 153.312,264.563 154.271,264.521 
				154.095,260.49 155.329,260.436 155.505,264.467 156.464,264.424 			"/>
		</g>
		<g>
			<polygon fill="#010101" stroke="#010101" stroke-width="0.25" points="154.179,254.436 152.544,251.59 153.503,251.548 
				153.328,247.517 154.562,247.463 154.738,251.495 155.697,251.452 			"/>
		</g>
		<g>
			<polygon fill="#010101" stroke="#010101" stroke-width="0.25" points="153.378,241.46 151.731,238.622 152.69,238.577 
				152.498,234.545 153.731,234.487 153.924,238.517 154.884,238.47 			"/>
		</g>
		<g>
			<polygon fill="#010101" stroke="#010101" stroke-width="0.25" points="153.224,228.673 152.012,225.624 152.967,225.719 
				153.369,221.704 154.598,221.827 154.197,225.841 155.152,225.936 			"/>
		</g>
	</g>
	<g>
		<path fill="none" d="M126.622,225.874c0,0,9.521-5.16,13.416-2.479c3.895,2.672,4.163,10.59,1.382,12.727
			s-11.648,2.908-19.442,6.121c-7.794,3.211,43.937-2.91,55.627-0.238c11.689,2.676,19.064-6.195,20.734-13.152
			c1.67-6.959-1.814-10.387-9.605-10.387c-7.789,0-10.573,4.277-10.573,4.277"/>
		<g>
			<polygon fill="#010101" stroke="#010101" stroke-width="0.25" points="178.31,223.207 180.199,220.523 180.642,221.375 
				184.223,219.513 184.792,220.609 181.212,222.47 181.656,223.323 			"/>
		</g>
		<g>
			<polygon fill="#010101" stroke="#010101" stroke-width="0.25" points="189.658,219.99 192.896,219.458 192.599,220.372 
				196.435,221.624 196.051,222.798 192.215,221.545 191.918,222.459 			"/>
		</g>
		<g>
			<polygon fill="#010101" stroke="#010101" stroke-width="0.25" points="197.194,226.284 198.201,229.408 197.254,229.249 
				196.588,233.228 195.37,233.024 196.036,229.044 195.089,228.887 			"/>
		</g>
		<g>
			<polygon fill="#010101" stroke="#010101" stroke-width="0.25" points="191.91,236.688 190.471,239.637 189.898,238.867 
				186.659,241.273 185.923,240.282 189.162,237.875 188.588,237.105 			"/>
		</g>
		<g>
			<polygon fill="#010101" stroke="#010101" stroke-width="0.25" points="180.913,240.809 177.978,242.279 177.992,241.319 
				173.957,241.262 173.974,240.028 178.009,240.083 178.021,239.123 			"/>
		</g>
		<g>
			<polygon fill="#010101" stroke="#010101" stroke-width="0.25" points="167.96,240.247 165.002,241.669 165.031,240.709 
				160.997,240.59 161.034,239.356 165.067,239.475 165.095,238.515 			"/>
		</g>
		<g>
			<polygon fill="#010101" stroke="#010101" stroke-width="0.25" points="154.913,240.53 152.027,242.095 152.009,241.135 
				147.975,241.211 147.951,239.977 151.986,239.9 151.967,238.94 			"/>
		</g>
		<g>
			<polygon fill="#010101" stroke="#010101" stroke-width="0.25" points="141.908,241.182 139.06,242.813 139.02,241.854 
				134.988,242.024 134.936,240.79 138.967,240.62 138.926,239.66 			"/>
		</g>
		<g>
			<polygon fill="#010101" stroke="#010101" stroke-width="0.25" points="128.952,241.812 126.072,243.384 126.051,242.424 
				122.016,242.513 121.989,241.278 126.023,241.19 126.001,240.229 			"/>
		</g>
		<g>
			<polygon fill="#010101" stroke="#010101" stroke-width="0.25" points="127.797,241.741 130.193,239.497 130.453,240.421 
				134.337,239.327 134.672,240.515 130.789,241.61 131.05,242.535 			"/>
		</g>
		<g>
			<polygon fill="#010101" stroke="#010101" stroke-width="0.25" points="140.402,237.734 141.38,234.601 142.063,235.277 
				144.902,232.41 145.78,233.279 142.94,236.146 143.624,236.821 			"/>
		</g>
		<g>
			<polygon fill="#010101" stroke="#010101" stroke-width="0.25" points="142.505,224.276 139.26,223.789 139.823,223.011 
				136.555,220.644 137.28,219.644 140.548,222.011 141.11,221.233 			"/>
		</g>
		<g>
			<polygon fill="#010101" stroke="#010101" stroke-width="0.25" points="129.194,223.344 127.167,225.925 126.769,225.052 
				123.096,226.723 122.585,225.6 126.257,223.927 125.858,223.054 			"/>
		</g>
	</g>
</g>
<g>
	<g>
		<path fill="none" d="M271.062,229.038l-1.525,105.566c0,0,3.807,6.275,7.242,5.717c3.437-0.545,14.209-10.316,12.192-15.627
			c-2.016-5.307-22.068-9.287-30.49-9.91c-8.422-0.619-19.429-1.896-29.344,1.156c-9.915,3.037-14.863,8.369-17.151,14.475
			c-2.288,6.1,7.626,11.432,15.625,11.432s14.226-5.443,18.672-17.908s2.767-23.59,0.386-40.779
			c0.763-11.063,7.243-9.537,13.72-9.152c6.48,0.385,9.904,6.488,20.197,8.385c10.296,1.91,30.156,0.795,35.445-2.666
			s2.761-5.99-0.756-12.961c-1.146-6.475-6.48-3.807-6.48-3.807"/>
		<g>
			<polygon fill="#010101" stroke="#010101" stroke-width="0.25" points="312.108,264.857 315.125,266.152 314.382,266.76 
				316.943,269.879 315.988,270.663 313.428,267.544 312.686,268.155 			"/>
		</g>
		<g>
			<polygon fill="#010101" stroke="#010101" stroke-width="0.25" points="317.498,274.736 317.324,278.013 316.497,277.527 
				314.454,281.007 313.389,280.382 315.431,276.902 314.602,276.417 			"/>
		</g>
		<g>
			<polygon fill="#010101" stroke="#010101" stroke-width="0.25" points="308.221,280.741 305.582,282.692 305.431,281.744 
				301.446,282.381 301.251,281.162 305.235,280.524 305.083,279.576 			"/>
		</g>
		<g>
			<polygon fill="#010101" stroke="#010101" stroke-width="0.25" points="295.516,282.064 292.576,283.521 292.593,282.561 
				288.558,282.49 288.58,281.254 292.615,281.326 292.631,280.366 			"/>
		</g>
		<g>
			<polygon fill="#010101" stroke="#010101" stroke-width="0.25" points="282.84,281.474 279.645,282.222 279.88,281.292 
				275.969,280.3 276.272,279.104 280.184,280.094 280.418,279.163 			"/>
		</g>
		<g>
			<polygon fill="#010101" stroke="#010101" stroke-width="0.25" points="270.844,277.087 267.57,277.313 267.952,276.432 
				264.25,274.826 264.742,273.693 268.443,275.298 268.825,274.417 			"/>
		</g>
		<g>
			<polygon fill="#010101" stroke="#010101" stroke-width="0.25" points="258.281,272.735 255.287,274.078 255.341,273.12 
				251.312,272.892 251.382,271.659 255.411,271.886 255.464,270.927 			"/>
		</g>
		<g>
			<polygon fill="#010101" stroke="#010101" stroke-width="0.25" points="246.901,278.716 247.361,281.966 246.456,281.649 
				245.121,285.457 243.956,285.048 245.29,281.24 244.383,280.923 			"/>
		</g>
		<g>
			<polygon fill="#010101" stroke="#010101" stroke-width="0.25" points="246.417,291.942 248.185,294.707 247.229,294.794 
				247.595,298.813 246.365,298.924 245.999,294.906 245.042,294.995 			"/>
		</g>
		<g>
			<polygon fill="#010101" stroke="#010101" stroke-width="0.25" points="247.509,304.682 248.914,307.648 247.955,307.614 
				247.81,311.646 246.576,311.602 246.72,307.57 245.76,307.537 			"/>
		</g>
		<g>
			<polygon fill="#010101" stroke="#010101" stroke-width="0.25" points="246.05,317.423 247.069,320.543 246.121,320.388 
				245.469,324.371 244.25,324.17 244.902,320.188 243.954,320.035 			"/>
		</g>
		<g>
			<polygon fill="#010101" stroke="#010101" stroke-width="0.25" points="241.929,329.017 241.704,332.291 240.884,331.792 
				238.787,335.24 237.731,334.598 239.828,331.15 239.007,330.652 			"/>
		</g>
		<g>
			<polygon fill="#010101" stroke="#010101" stroke-width="0.25" points="234.336,337.874 232.155,340.327 231.812,339.43 
				228.044,340.874 227.602,339.721 231.37,338.276 231.025,337.379 			"/>
		</g>
		<g>
			<polygon fill="#010101" stroke="#010101" stroke-width="0.25" points="222.756,340.214 219.483,340.45 219.862,339.568 
				216.155,337.974 216.643,336.839 220.35,338.433 220.729,337.55 			"/>
		</g>
		<g>
			<polygon fill="#010101" stroke="#010101" stroke-width="0.25" points="212.553,333.912 211.67,330.75 212.61,330.947 
				213.435,326.997 214.644,327.249 213.82,331.199 214.76,331.394 			"/>
		</g>
		<g>
			<polygon fill="#010101" stroke="#010101" stroke-width="0.25" points="218.542,323.804 219.752,320.753 220.381,321.478 
				223.428,318.832 224.238,319.764 221.192,322.411 221.823,323.135 			"/>
		</g>
		<g>
			<polygon fill="#010101" stroke="#010101" stroke-width="0.25" points="229.198,317.723 231.552,315.437 231.83,316.356 
				235.693,315.191 236.049,316.374 232.186,317.539 232.464,318.458 			"/>
		</g>
		<g>
			<polygon fill="#010101" stroke="#010101" stroke-width="0.25" points="241.616,315.324 244.5,313.755 244.519,314.715 
				248.553,314.635 248.578,315.87 244.543,315.951 244.563,316.911 			"/>
		</g>
		<g>
			<polygon fill="#010101" stroke="#010101" stroke-width="0.25" points="254.484,315.743 257.499,314.447 257.43,315.404 
				261.455,315.695 261.366,316.926 257.341,316.636 257.273,317.594 			"/>
		</g>
		<g>
			<polygon fill="#010101" stroke="#010101" stroke-width="0.25" points="267.203,317.206 270.38,316.386 270.166,317.322 
				274.099,318.225 273.822,319.428 269.889,318.526 269.675,319.462 			"/>
		</g>
		<g>
			<polygon fill="#010101" stroke="#010101" stroke-width="0.25" points="279.527,320.271 282.808,320.193 282.387,321.055 
				286.013,322.826 285.471,323.935 281.845,322.166 281.424,323.029 			"/>
		</g>
		<g>
			<polygon fill="#010101" stroke="#010101" stroke-width="0.25" points="287.247,326.82 287.99,330.016 287.06,329.78 
				286.062,333.69 284.866,333.384 285.862,329.474 284.932,329.238 			"/>
		</g>
		<g>
			<polygon fill="#010101" stroke="#010101" stroke-width="0.25" points="280.742,336.535 278.989,339.309 278.505,338.48 
				275.022,340.518 274.398,339.453 277.881,337.415 277.395,336.585 			"/>
		</g>
		<g>
			<polygon fill="#010101" stroke="#010101" stroke-width="0.25" points="271.75,335.854 269.441,333.521 270.357,333.236 
				269.156,329.383 270.335,329.015 271.537,332.868 272.453,332.581 			"/>
		</g>
		<g>
			<polygon fill="#010101" stroke="#010101" stroke-width="0.25" points="270.882,323.417 269.46,320.458 270.42,320.487 
				270.541,316.454 271.775,316.491 271.655,320.524 272.615,320.552 			"/>
		</g>
		<g>
			<polygon fill="#010101" stroke="#010101" stroke-width="0.25" points="271.07,310.423 269.648,307.465 270.608,307.494 
				270.729,303.46 271.963,303.498 271.843,307.531 272.803,307.559 			"/>
		</g>
		<g>
			<polygon fill="#010101" stroke="#010101" stroke-width="0.25" points="271.258,297.429 269.836,294.471 270.795,294.5 
				270.917,290.466 272.151,290.503 272.03,294.537 272.99,294.565 			"/>
		</g>
		<g>
			<polygon fill="#010101" stroke="#010101" stroke-width="0.25" points="271.445,284.436 270.023,281.478 270.983,281.506 
				271.104,277.473 272.338,277.51 272.218,281.543 273.178,281.572 			"/>
		</g>
		<g>
			<polygon fill="#010101" stroke="#010101" stroke-width="0.25" points="271.633,271.442 270.211,268.484 271.171,268.512 
				271.292,264.479 272.526,264.516 272.406,268.549 273.366,268.578 			"/>
		</g>
		<g>
			<polygon fill="#010101" stroke="#010101" stroke-width="0.25" points="271.82,258.449 270.399,255.491 271.358,255.519 
				271.479,251.486 272.714,251.523 272.593,255.556 273.553,255.584 			"/>
		</g>
		<g>
			<polygon fill="#010101" stroke="#010101" stroke-width="0.25" points="272.009,245.455 270.587,242.497 271.546,242.525 
				271.667,238.492 272.902,238.529 272.781,242.562 273.741,242.59 			"/>
		</g>
		<g>
			<polygon fill="#010101" stroke="#010101" stroke-width="0.25" points="272.196,232.461 270.774,229.503 271.734,229.532 
				271.855,225.499 273.089,225.536 272.969,229.569 273.929,229.597 			"/>
		</g>
	</g>
	<g>
		<path fill="none" d="M239.835,232.2c0,0,9.521-5.158,13.417-2.48c3.895,2.674,4.163,10.592,1.381,12.729
			c-2.78,2.137-11.648,2.91-19.441,6.121c-7.794,3.209,43.937-2.912,55.626-0.238c11.688,2.674,19.065-6.195,20.735-13.154
			c1.669-6.959-1.814-10.387-9.605-10.387c-7.79,0-10.573,4.277-10.573,4.277"/>
		<g>
			<polygon fill="#010101" stroke="#010101" stroke-width="0.25" points="291.525,229.531 293.414,226.847 293.856,227.699 
				297.437,225.837 298.007,226.932 294.427,228.794 294.871,229.646 			"/>
		</g>
		<g>
			<polygon fill="#010101" stroke="#010101" stroke-width="0.25" points="302.873,226.314 306.111,225.784 305.813,226.696 
				309.649,227.949 309.266,229.123 305.43,227.871 305.133,228.784 			"/>
		</g>
		<g>
			<polygon fill="#010101" stroke="#010101" stroke-width="0.25" points="310.408,232.61 311.416,235.733 310.469,235.575 
				309.802,239.554 308.584,239.35 309.25,235.371 308.303,235.212 			"/>
		</g>
		<g>
			<polygon fill="#010101" stroke="#010101" stroke-width="0.25" points="305.124,243.013 303.684,245.963 303.112,245.192 
				299.873,247.598 299.136,246.607 302.375,244.201 301.802,243.43 			"/>
		</g>
		<g>
			<polygon fill="#010101" stroke="#010101" stroke-width="0.25" points="294.126,247.135 291.191,248.604 291.205,247.644 
				287.17,247.588 287.187,246.353 291.222,246.409 291.234,245.449 			"/>
		</g>
		<g>
			<polygon fill="#010101" stroke="#010101" stroke-width="0.25" points="281.172,246.573 278.215,247.995 278.243,247.036 
				274.21,246.916 274.247,245.681 278.28,245.8 278.308,244.84 			"/>
		</g>
		<g>
			<polygon fill="#010101" stroke="#010101" stroke-width="0.25" points="268.126,246.855 265.241,248.419 265.223,247.459 
				261.188,247.537 261.165,246.301 265.199,246.225 265.18,245.264 			"/>
		</g>
		<g>
			<polygon fill="#010101" stroke="#010101" stroke-width="0.25" points="255.121,247.507 252.272,249.138 252.232,248.179 
				248.2,248.349 248.148,247.115 252.18,246.945 252.139,245.985 			"/>
		</g>
		<g>
			<polygon fill="#010101" stroke="#010101" stroke-width="0.25" points="242.165,248.136 239.285,249.709 239.264,248.75 
				235.229,248.838 235.202,247.603 239.237,247.514 239.215,246.554 			"/>
		</g>
		<g>
			<polygon fill="#010101" stroke="#010101" stroke-width="0.25" points="241.012,248.067 243.408,245.823 243.668,246.748 
				247.552,245.653 247.887,246.841 244.003,247.936 244.265,248.861 			"/>
		</g>
		<g>
			<polygon fill="#010101" stroke="#010101" stroke-width="0.25" points="253.617,244.057 254.595,240.924 255.277,241.6 
				258.117,238.733 258.994,239.602 256.155,242.469 256.838,243.145 			"/>
		</g>
		<g>
			<polygon fill="#010101" stroke="#010101" stroke-width="0.25" points="255.719,230.6 252.473,230.113 253.036,229.335 
				249.768,226.968 250.492,225.968 253.761,228.335 254.323,227.557 			"/>
		</g>
		<g>
			<polygon fill="#010101" stroke="#010101" stroke-width="0.25" points="242.408,229.671 240.38,232.252 239.983,231.378 
				236.31,233.049 235.798,231.925 239.471,230.253 239.073,229.38 			"/>
		</g>
	</g>
</g>
<g>
	<g>
		<path fill="none" d="M371.297,223.026c0,0-2.896,86.07,1.742,92.449c4.639,6.381-15.938,8.41-20.866,8.119
			c-4.932-0.293-14.778-4.645-13.042-13.625c1.736-8.979,6.951-13.324,12.75-11.299c5.799,2.029,57.099-2.031,65.501-0.582
			c8.404,1.449-28.401,29.568-27.533,22.609c0.868-6.957,0.286-95.061,0.286-95.061"/>
		<g>
			<polygon fill="#010101" stroke="#010101" stroke-width="0.25" points="388.988,227.875 390.469,230.804 389.51,230.795 
				389.471,234.831 388.236,234.819 388.274,230.784 387.314,230.775 			"/>
		</g>
		<g>
			<polygon fill="#010101" stroke="#010101" stroke-width="0.25" points="389.032,240.894 390.511,243.824 389.551,243.814 
				389.507,247.848 388.272,247.835 388.315,243.8 387.355,243.791 			"/>
		</g>
		<g>
			<polygon fill="#010101" stroke="#010101" stroke-width="0.25" points="389.085,253.887 390.558,256.821 389.598,256.808 
				389.547,260.843 388.312,260.828 388.362,256.792 387.402,256.782 			"/>
		</g>
		<g>
			<polygon fill="#010101" stroke="#010101" stroke-width="0.25" points="389.123,266.882 390.596,269.815 389.636,269.803 
				389.585,273.838 388.35,273.823 388.4,269.788 387.44,269.776 			"/>
		</g>
		<g>
			<polygon fill="#010101" stroke="#010101" stroke-width="0.25" points="389.13,279.873 390.594,282.81 389.634,282.795 
				389.569,286.83 388.335,286.81 388.398,282.776 387.438,282.761 			"/>
		</g>
		<g>
			<polygon fill="#010101" stroke="#010101" stroke-width="0.25" points="389.114,292.865 390.566,295.807 389.606,295.789 
				389.528,299.823 388.293,299.799 388.372,295.765 387.411,295.747 			"/>
		</g>
		<g>
			<polygon fill="#010101" stroke="#010101" stroke-width="0.25" points="389.029,305.855 390.471,308.803 389.511,308.781 
				389.418,312.815 388.184,312.787 388.276,308.752 387.316,308.731 			"/>
		</g>
		<g>
			<polygon fill="#010101" stroke="#010101" stroke-width="0.25" points="388.296,319.067 391.309,320.371 390.564,320.977 
				393.116,324.104 392.159,324.884 389.607,321.758 388.864,322.366 			"/>
		</g>
		<g>
			<polygon fill="#010101" stroke="#010101" stroke-width="0.25" points="400.56,318.191 402.151,315.321 402.682,316.121 
				406.042,313.886 406.727,314.915 403.366,317.149 403.899,317.948 			"/>
		</g>
		<g>
			<polygon fill="#010101" stroke="#010101" stroke-width="0.25" points="410.955,310.156 412.13,307.091 412.768,307.809 
				415.783,305.128 416.604,306.051 413.588,308.733 414.228,309.45 			"/>
		</g>
		<g>
			<polygon fill="#010101" stroke="#010101" stroke-width="0.25" points="418.553,299.517 415.417,298.548 416.091,297.865 
				413.216,295.033 414.082,294.153 416.958,296.984 417.631,296.299 			"/>
		</g>
		<g>
			<polygon fill="#010101" stroke="#010101" stroke-width="0.25" points="405.653,296.67 402.761,298.221 402.747,297.262 
				398.712,297.32 398.694,296.084 402.729,296.027 402.714,295.066 			"/>
		</g>
		<g>
			<polygon fill="#010101" stroke="#010101" stroke-width="0.25" points="392.659,297.071 389.773,298.635 389.755,297.675 
				385.721,297.751 385.697,296.516 389.732,296.44 389.713,295.48 			"/>
		</g>
		<g>
			<polygon fill="#010101" stroke="#010101" stroke-width="0.25" points="379.667,297.561 376.789,299.137 376.767,298.178 
				372.733,298.272 372.704,297.037 376.738,296.943 376.715,295.983 			"/>
		</g>
		<g>
			<polygon fill="#010101" stroke="#010101" stroke-width="0.25" points="366.699,297.922 363.794,299.451 363.788,298.491 
				359.753,298.516 359.745,297.281 363.78,297.255 363.773,296.294 			"/>
		</g>
		<g>
			<polygon fill="#010101" stroke="#010101" stroke-width="0.25" points="353.702,297.575 350.858,299.213 350.815,298.253 
				346.784,298.434 346.729,297.2 350.76,297.02 350.717,296.06 			"/>
		</g>
		<g>
			<polygon fill="#010101" stroke="#010101" stroke-width="0.25" points="341.553,302.426 341.559,305.708 340.706,305.268 
				338.856,308.855 337.758,308.289 339.608,304.703 338.754,304.263 			"/>
		</g>
		<g>
			<polygon fill="#010101" stroke="#010101" stroke-width="0.25" points="338.61,315.732 341.386,317.483 340.558,317.968 
				342.599,321.45 341.534,322.074 339.493,318.593 338.665,319.08 			"/>
		</g>
		<g>
			<polygon fill="#010101" stroke="#010101" stroke-width="0.25" points="349.257,324.351 352.344,323.236 352.218,324.187 
				356.219,324.715 356.057,325.94 352.057,325.413 351.932,326.365 			"/>
		</g>
		<g>
			<polygon fill="#010101" stroke="#010101" stroke-width="0.25" points="362.497,323.838 365.16,321.921 365.3,322.871 
				369.292,322.284 369.472,323.505 365.479,324.093 365.621,325.043 			"/>
		</g>
		<g>
			<polygon fill="#010101" stroke="#010101" stroke-width="0.25" points="373.972,317.212 372.452,314.304 373.412,314.3 
				373.397,310.265 374.632,310.261 374.647,314.296 375.607,314.292 			"/>
		</g>
		<g>
			<polygon fill="#010101" stroke="#010101" stroke-width="0.25" points="372.393,304.327 370.802,301.456 371.762,301.429 
				371.648,297.395 372.883,297.361 372.997,301.394 373.957,301.367 			"/>
		</g>
		<g>
			<polygon fill="#010101" stroke="#010101" stroke-width="0.25" points="371.788,291.369 370.254,288.468 371.214,288.459 
				371.18,284.424 372.414,284.415 372.449,288.45 373.41,288.44 			"/>
		</g>
		<g>
			<polygon fill="#010101" stroke="#010101" stroke-width="0.25" points="371.664,278.398 370.186,275.467 371.146,275.478 
				371.191,271.443 372.426,271.457 372.381,275.492 373.342,275.501 			"/>
		</g>
		<g>
			<polygon fill="#010101" stroke="#010101" stroke-width="0.25" points="371.631,265.424 370.207,262.467 371.167,262.496 
				371.284,258.461 372.519,258.498 372.401,262.531 373.361,262.558 			"/>
		</g>
		<g>
			<polygon fill="#010101" stroke="#010101" stroke-width="0.25" points="371.808,252.431 370.384,249.474 371.343,249.502 
				371.461,245.468 372.695,245.504 372.578,249.538 373.538,249.565 			"/>
		</g>
		<g>
			<polygon fill="#010101" stroke="#010101" stroke-width="0.25" points="372.048,239.451 370.655,236.48 371.614,236.517 
				371.773,232.485 373.007,232.534 372.848,236.566 373.808,236.603 			"/>
		</g>
		<g>
			<polygon fill="#010101" stroke="#010101" stroke-width="0.25" points="372.377,226.467 371.002,223.487 371.961,223.531 
				372.145,219.5 373.378,219.556 373.195,223.587 374.154,223.63 			"/>
		</g>
	</g>
	<g>
		<path fill="none" d="M345.168,235.239c0,0,9.521-5.16,13.416-2.48c3.894,2.674,4.162,10.592,1.383,12.729
			c-2.781,2.137-11.649,2.908-19.443,6.121c-7.793,3.211,43.938-2.91,55.628-0.238c11.688,2.674,19.064-6.195,20.734-13.152
			c1.67-6.961-1.815-10.387-9.606-10.387c-7.788,0-10.571,4.277-10.571,4.277"/>
		<g>
			<polygon fill="#010101" stroke="#010101" stroke-width="0.25" points="396.859,232.572 398.748,229.887 399.191,230.74 
				402.771,228.877 403.341,229.973 399.761,231.835 400.205,232.687 			"/>
		</g>
		<g>
			<polygon fill="#010101" stroke="#010101" stroke-width="0.25" points="408.206,229.356 411.445,228.825 411.147,229.738 
				414.983,230.99 414.6,232.164 410.764,230.912 410.467,231.826 			"/>
		</g>
		<g>
			<polygon fill="#010101" stroke="#010101" stroke-width="0.25" points="415.74,235.651 416.748,238.774 415.801,238.616 
				415.134,242.595 413.916,242.391 414.583,238.412 413.635,238.253 			"/>
		</g>
		<g>
			<polygon fill="#010101" stroke="#010101" stroke-width="0.25" points="410.455,246.054 409.016,249.003 408.443,248.233 
				405.204,250.639 404.467,249.647 407.707,247.241 407.133,246.47 			"/>
		</g>
		<g>
			<polygon fill="#010101" stroke="#010101" stroke-width="0.25" points="399.458,250.174 396.523,251.643 396.536,250.683 
				392.501,250.627 392.519,249.393 396.553,249.448 396.565,248.488 			"/>
		</g>
		<g>
			<polygon fill="#010101" stroke="#010101" stroke-width="0.25" points="386.504,249.613 383.546,251.035 383.575,250.076 
				379.541,249.956 379.578,248.721 383.611,248.84 383.639,247.88 			"/>
		</g>
		<g>
			<polygon fill="#010101" stroke="#010101" stroke-width="0.25" points="373.456,249.895 370.571,251.459 370.553,250.5 
				366.519,250.577 366.495,249.342 370.53,249.265 370.51,248.304 			"/>
		</g>
		<g>
			<polygon fill="#010101" stroke="#010101" stroke-width="0.25" points="360.451,250.547 357.604,252.178 357.563,251.219 
				353.531,251.389 353.479,250.155 357.511,249.985 357.47,249.025 			"/>
		</g>
		<g>
			<polygon fill="#010101" stroke="#010101" stroke-width="0.25" points="347.496,251.176 344.616,252.75 344.595,251.79 
				340.561,251.877 340.533,250.643 344.568,250.555 344.546,249.594 			"/>
		</g>
		<g>
			<polygon fill="#010101" stroke="#010101" stroke-width="0.25" points="346.346,251.105 348.741,248.862 349.001,249.786 
				352.886,248.692 353.22,249.88 349.336,250.975 349.598,251.899 			"/>
		</g>
		<g>
			<polygon fill="#010101" stroke="#010101" stroke-width="0.25" points="358.95,247.098 359.928,243.965 360.61,244.64 
				363.449,241.773 364.327,242.642 361.488,245.509 362.171,246.185 			"/>
		</g>
		<g>
			<polygon fill="#010101" stroke="#010101" stroke-width="0.25" points="361.052,233.64 357.806,233.153 358.369,232.375 
				355.102,230.007 355.826,229.007 359.094,231.375 359.657,230.596 			"/>
		</g>
		<g>
			<polygon fill="#010101" stroke="#010101" stroke-width="0.25" points="347.741,232.709 345.714,235.292 345.316,234.417 
				341.644,236.089 341.132,234.965 344.805,233.293 344.406,232.419 			"/>
		</g>
	</g>
</g>
<g>
	<path fill="none" d="M5.44,35.191c0,0,9.521-5.16,13.416-2.48c3.894,2.674,4.162,10.59,1.383,12.729
		c-2.782,2.137-11.649,2.908-19.444,6.121c-7.792,3.211,43.939-2.912,55.628-0.238c11.688,2.674,19.063-6.197,20.733-13.152
		c1.67-6.959-1.814-10.387-9.606-10.387c-7.787,0-10.57,4.275-10.57,4.275"/>
	<g>
		<polygon fill="#010101" stroke="#010101" stroke-width="0.25" points="57.131,32.523 59.02,29.84 59.463,30.691 63.043,28.831 
			63.613,29.926 60.033,31.788 60.477,32.64 		"/>
	</g>
	<g>
		<polygon fill="#010101" stroke="#010101" stroke-width="0.25" points="68.478,29.309 71.717,28.778 71.418,29.69 75.255,30.943 
			74.872,32.117 71.035,30.865 70.738,31.778 		"/>
	</g>
	<g>
		<polygon fill="#010101" stroke="#010101" stroke-width="0.25" points="76.012,35.604 77.019,38.727 76.072,38.568 75.405,42.548 
			74.187,42.344 74.854,38.364 73.906,38.207 		"/>
	</g>
	<g>
		<polygon fill="#010101" stroke="#010101" stroke-width="0.25" points="70.726,46.006 69.287,48.956 68.714,48.186 65.475,50.592 
			64.739,49.6 67.978,47.194 67.404,46.423 		"/>
	</g>
	<g>
		<polygon fill="#010101" stroke="#010101" stroke-width="0.25" points="59.729,50.126 56.794,51.596 56.807,50.636 52.772,50.58 
			52.79,49.345 56.824,49.4 56.836,48.44 		"/>
	</g>
	<g>
		<polygon fill="#010101" stroke="#010101" stroke-width="0.25" points="46.775,49.564 43.817,50.986 43.846,50.027 39.812,49.907 
			39.849,48.672 43.882,48.792 43.91,47.832 		"/>
	</g>
	<g>
		<polygon fill="#010101" stroke="#010101" stroke-width="0.25" points="33.728,49.847 30.843,51.412 30.825,50.452 26.791,50.528 
			26.767,49.293 30.801,49.217 30.782,48.256 		"/>
	</g>
	<g>
		<polygon fill="#010101" stroke="#010101" stroke-width="0.25" points="20.723,50.5 17.875,52.131 17.834,51.171 13.803,51.341 
			13.751,50.108 17.783,49.938 17.741,48.978 		"/>
	</g>
	<g>
		<polygon fill="#010101" stroke="#010101" stroke-width="0.25" points="7.768,51.129 4.887,52.702 4.866,51.742 0.832,51.831 
			0.805,50.596 4.839,50.507 4.817,49.547 		"/>
	</g>
	<g>
		<polygon fill="#010101" stroke="#010101" stroke-width="0.25" points="6.618,51.057 9.013,48.814 9.273,49.738 13.158,48.644 
			13.493,49.833 9.609,50.927 9.87,51.852 		"/>
	</g>
	<g>
		<polygon fill="#010101" stroke="#010101" stroke-width="0.25" points="19.223,47.051 20.201,43.917 20.883,44.593 23.722,41.726 
			24.6,42.595 21.761,45.462 22.444,46.137 		"/>
	</g>
	<g>
		<polygon fill="#010101" stroke="#010101" stroke-width="0.25" points="21.324,33.592 18.078,33.105 18.641,32.328 15.374,29.96 
			16.098,28.96 19.366,31.328 19.929,30.549 		"/>
	</g>
	<g>
		<polygon fill="#010101" stroke="#010101" stroke-width="0.25" points="8.013,32.663 5.986,35.244 5.588,34.37 1.916,36.042 
			1.404,34.917 5.077,33.246 4.678,32.372 		"/>
	</g>
</g>
<g>
	<path fill="none" d="M139.546,3.232c0,0-26.444,14.758-25.538,29.189c0.904,14.428,3.797,29.547,13.679,27.357
		c3.808-1.951,8.48-4.52,11.859-7.297c5.26-7.504,9.374-12.666,3.846-17.504c-4.097-3.584-20.044,7.604-20.044,7.604"/>
	<g>
		<polygon fill="#010101" stroke="#010101" stroke-width="0.25" points="131.399,39.223 133.351,36.584 133.773,37.446 
			137.396,35.669 137.94,36.777 134.317,38.555 134.742,39.417 		"/>
	</g>
	<g>
		<polygon fill="#010101" stroke="#010101" stroke-width="0.25" points="140.777,37.018 144.016,37.548 143.442,38.318 
			146.678,40.729 145.94,41.72 142.704,39.309 142.131,40.08 		"/>
	</g>
	<g>
		<polygon fill="#010101" stroke="#010101" stroke-width="0.25" points="142.034,46.152 141.75,49.422 140.938,48.908 
			138.779,52.317 137.735,51.656 139.895,48.247 139.083,47.734 		"/>
	</g>
	<g>
		<polygon fill="#010101" stroke="#010101" stroke-width="0.25" points="133.563,54.775 131.828,57.561 131.338,56.735 
			127.868,58.796 127.238,57.735 130.707,55.673 130.215,54.848 		"/>
	</g>
	<g>
		<polygon fill="#010101" stroke="#010101" stroke-width="0.25" points="123.023,57.933 119.9,56.924 120.582,56.249 
			117.743,53.381 118.621,52.512 121.46,55.379 122.142,54.703 		"/>
	</g>
	<g>
		<polygon fill="#010101" stroke="#010101" stroke-width="0.25" points="117.479,47.191 115.327,44.714 116.26,44.488 
			115.312,40.566 116.512,40.275 117.461,44.197 118.394,43.971 		"/>
	</g>
	<g>
		<polygon fill="#010101" stroke="#010101" stroke-width="0.25" points="115.205,34.855 114.044,31.785 114.998,31.896 
			115.467,27.889 116.694,28.032 116.225,32.041 117.179,32.151 		"/>
	</g>
	<g>
		<polygon fill="#010101" stroke="#010101" stroke-width="0.25" points="118.856,23.202 119.114,19.93 119.929,20.438 
			122.062,17.012 123.11,17.664 120.978,21.09 121.794,21.597 		"/>
	</g>
	<g>
		<polygon fill="#010101" stroke="#010101" stroke-width="0.25" points="127.104,13.765 128.329,10.72 128.955,11.448 
			132.014,8.816 132.819,9.752 129.76,12.384 130.388,13.112 		"/>
	</g>
	<g>
		<polygon fill="#010101" stroke="#010101" stroke-width="0.25" points="137.264,6.025 138.999,3.239 139.489,4.065 142.959,2.005 
			143.589,3.067 140.12,5.127 140.61,5.953 		"/>
	</g>
</g>
<g>
	<line fill="none" x1="124.742" y1="95.424" x2="113.714" y2="128.506"/>
	<g>
		<polygon fill="#010101" stroke="#010101" stroke-width="0.25" points="116.568,123.687 116.107,120.437 117.014,120.755 
			118.349,116.947 119.514,117.355 118.179,121.164 119.086,121.48 		"/>
	</g>
	<g>
		<polygon fill="#010101" stroke="#010101" stroke-width="0.25" points="120.678,111.358 120.218,108.109 121.124,108.427 
			122.459,104.619 123.625,105.027 122.29,108.835 123.196,109.152 		"/>
	</g>
	<g>
		<polygon fill="#010101" stroke="#010101" stroke-width="0.25" points="124.788,99.03 124.327,95.781 125.233,96.099 
			126.569,92.291 127.734,92.699 126.399,96.507 127.306,96.824 		"/>
	</g>
</g>
<g>
	<path fill="none" d="M381.223,56.014c4.603,0,20.713,0.762,21.48,8.439c0.77,7.676-16.878,9.982-21.48,11.508
		c-4.605,1.537-14.578,3.834-9.208-6.141C377.383,59.852,376.617,56.014,381.223,56.014z M381.223,56.014
		c0,0,28.386,9.977,38.362,8.439c9.979-1.539,26.093-6.139,34.532-2.303c8.438,3.84-28.393,24.549-28.393,24.549L423.426,0"/>
	<g>
		<polygon fill="#010101" stroke="#010101" stroke-width="0.25" points="422.301,2.248 423.843,5.145 422.883,5.156 422.927,9.191 
			421.692,9.205 421.647,5.169 420.688,5.181 		"/>
	</g>
	<g>
		<polygon fill="#010101" stroke="#010101" stroke-width="0.25" points="422.646,15.238 424.188,18.136 423.228,18.146 
			423.272,22.181 422.037,22.195 421.992,18.16 421.032,18.171 		"/>
	</g>
	<g>
		<polygon fill="#010101" stroke="#010101" stroke-width="0.25" points="422.99,28.229 424.532,31.126 423.572,31.137 
			423.616,35.172 422.381,35.186 422.337,31.15 421.376,31.162 		"/>
	</g>
	<g>
		<polygon fill="#010101" stroke="#010101" stroke-width="0.25" points="423.335,41.219 424.876,44.117 423.917,44.127 
			423.961,48.162 422.726,48.176 422.682,44.141 421.721,44.152 		"/>
	</g>
	<g>
		<polygon fill="#010101" stroke="#010101" stroke-width="0.25" points="423.679,54.209 425.221,57.107 424.261,57.117 
			424.305,61.152 423.07,61.166 423.025,57.131 422.065,57.143 		"/>
	</g>
	<g>
		<polygon fill="#010101" stroke="#010101" stroke-width="0.25" points="424.023,67.2 425.565,70.098 424.605,70.108 
			424.649,74.143 423.415,74.157 423.37,70.122 422.41,70.133 		"/>
	</g>
	<g>
		<polygon fill="#010101" stroke="#010101" stroke-width="0.25" points="424.368,80.19 425.91,83.088 424.95,83.098 424.994,87.133 
			423.759,87.147 423.715,83.112 422.754,83.124 		"/>
	</g>
	<g>
		<polygon fill="#010101" stroke="#010101" stroke-width="0.25" points="431.898,84.417 433.627,81.627 434.119,82.452 
			437.584,80.385 438.217,81.445 434.752,83.513 435.245,84.337 		"/>
	</g>
	<g>
		<polygon fill="#010101" stroke="#010101" stroke-width="0.25" points="442.857,77.321 444.428,74.439 444.965,75.235 
			448.31,72.977 449.001,74 445.656,76.259 446.195,77.054 		"/>
	</g>
	<g>
		<polygon fill="#010101" stroke="#010101" stroke-width="0.25" points="454.239,69.328 453.94,66.059 454.829,66.421 
			456.351,62.684 457.494,63.15 455.973,66.887 456.863,67.249 		"/>
	</g>
	<g>
		<polygon fill="#010101" stroke="#010101" stroke-width="0.25" points="448.33,60.154 445.22,61.203 445.366,60.254 
			441.377,59.639 441.566,58.418 445.554,59.033 445.699,58.083 		"/>
	</g>
	<g>
		<polygon fill="#010101" stroke="#010101" stroke-width="0.25" points="435.133,60.605 432.407,62.434 432.299,61.479 
			428.29,61.934 428.15,60.708 432.16,60.252 432.051,59.298 		"/>
	</g>
	<g>
		<polygon fill="#010101" stroke="#010101" stroke-width="0.25" points="422.446,63.041 419.6,64.675 419.558,63.716 
			415.526,63.891 415.473,62.657 419.504,62.481 419.462,61.522 		"/>
	</g>
	<g>
		<polygon fill="#010101" stroke="#010101" stroke-width="0.25" points="409.771,62.376 406.65,63.392 406.806,62.445 
			402.824,61.79 403.024,60.571 407.006,61.226 407.161,60.278 		"/>
	</g>
	<g>
		<polygon fill="#010101" stroke="#010101" stroke-width="0.25" points="397.22,59.631 394.004,60.288 394.266,59.365 
			390.384,58.264 390.721,57.076 394.603,58.176 394.864,57.252 		"/>
	</g>
	<g>
		<polygon fill="#010101" stroke="#010101" stroke-width="0.25" points="384.83,55.972 381.58,56.429 381.898,55.524 
			378.092,54.185 378.501,53.02 382.308,54.358 382.626,53.452 		"/>
	</g>
	<g>
		<polygon fill="#010101" stroke="#010101" stroke-width="0.25" points="377.913,56.291 377.189,59.492 376.456,58.874 
			373.855,61.96 372.911,61.165 375.511,58.078 374.775,57.46 		"/>
	</g>
	<g>
		<polygon fill="#010101" stroke="#010101" stroke-width="0.25" points="371.582,68.027 372.129,71.263 371.215,70.97 
			369.982,74.812 368.806,74.435 370.039,70.592 369.124,70.3 		"/>
	</g>
	<g>
		<polygon fill="#010101" stroke="#010101" stroke-width="0.25" points="375.744,77.621 378.683,76.16 378.667,77.12 
			382.701,77.188 382.681,78.422 378.646,78.355 378.631,79.316 		"/>
	</g>
	<g>
		<polygon fill="#010101" stroke="#010101" stroke-width="0.25" points="388.769,75.159 391.143,72.893 391.412,73.814 
			395.285,72.684 395.631,73.87 391.758,75 392.028,75.922 		"/>
	</g>
	<g>
		<polygon fill="#010101" stroke="#010101" stroke-width="0.25" points="400.792,69.282 401.264,66.034 402.043,66.594 
			404.396,63.315 405.399,64.035 403.047,67.314 403.829,67.873 		"/>
	</g>
	<g>
		<polygon fill="#010101" stroke="#010101" stroke-width="0.25" points="397.622,57.58 394.412,58.265 394.666,57.339 
			390.775,56.272 391.102,55.081 394.993,56.148 395.246,55.221 		"/>
	</g>
	<g>
		<polygon fill="#010101" stroke="#010101" stroke-width="0.25" points="384.699,55.053 381.673,56.324 381.75,55.367 
			377.728,55.044 377.827,53.813 381.849,54.136 381.925,53.178 		"/>
	</g>
</g>
<g>
	<path fill="none" d="M400.95,93.048c-9.313-1.554-15.056,19.361-14.939,27.05s22.842,8.807,25.05-6.57
		C412.854,101.064,410.268,94.602,400.95,93.048z"/>
	<g>
		<polygon fill="#010101" stroke="#010101" stroke-width="0.25" points="397.654,92.273 400.91,92.684 400.365,93.475 
			403.688,95.765 402.987,96.782 399.664,94.492 399.12,95.283 		"/>
	</g>
	<g>
		<polygon fill="#010101" stroke="#010101" stroke-width="0.25" points="407.58,98.976 410.313,100.791 409.475,101.257 
			411.433,104.785 410.354,105.384 408.395,101.856 407.555,102.324 		"/>
	</g>
	<g>
		<polygon fill="#010101" stroke="#010101" stroke-width="0.25" points="410.284,110.625 411.056,113.814 410.124,113.585 
			409.163,117.505 407.963,117.21 408.924,113.292 407.991,113.063 		"/>
	</g>
	<g>
		<polygon fill="#010101" stroke="#010101" stroke-width="0.25" points="405.322,121.209 403.126,123.648 402.788,122.75 
			399.011,124.169 398.577,123.014 402.354,121.593 402.014,120.694 		"/>
	</g>
	<g>
		<polygon fill="#010101" stroke="#010101" stroke-width="0.25" points="393.535,123.758 390.442,124.857 390.573,123.906 
			386.576,123.355 386.744,122.132 390.742,122.682 390.872,121.73 		"/>
	</g>
	<g>
		<polygon fill="#010101" stroke="#010101" stroke-width="0.25" points="387.746,116.798 386.771,113.664 387.717,113.833 
			388.426,109.86 389.642,110.078 388.933,114.05 389.878,114.218 		"/>
	</g>
	<g>
		<polygon fill="#010101" stroke="#010101" stroke-width="0.25" points="391.113,104.666 390.96,101.387 391.832,101.789 
			393.519,98.123 394.641,98.639 392.954,102.305 393.827,102.706 		"/>
	</g>
	<g>
		<polygon fill="#010101" stroke="#010101" stroke-width="0.25" points="398.584,95.771 400.402,93.039 400.867,93.879 
			404.398,91.925 404.996,93.005 401.466,94.96 401.932,95.8 		"/>
	</g>
</g>
<g>
	<g>
		<path fill="none" d="M309.665,41.109c3.222,0.648,8.377,14.18,8.377,14.18"/>
		<g>
			<polygon fill="#010101" stroke="#010101" stroke-width="0.25" points="319.046,54.619 316.573,52.461 317.466,52.109 
				315.986,48.354 317.135,47.902 318.615,51.656 319.508,51.303 			"/>
		</g>
		<g>
			<polygon fill="#010101" stroke="#010101" stroke-width="0.25" points="312.833,42.834 309.773,41.646 310.494,41.011 
				307.826,37.983 308.753,37.167 311.421,40.194 312.141,39.559 			"/>
		</g>
	</g>
	<g>
		<path fill="none" d="M317.481,38.787c0,0,9.677-6.951,13.712,0.75c4.033,7.699,2.896,10.605-1.504,14.273
			c-4.4,3.666-8.075,6.387-8.075,6.387"/>
		<g>
			<polygon fill="#010101" stroke="#010101" stroke-width="0.25" points="321.628,61.675 323.077,58.73 323.647,59.503 
				326.895,57.108 327.627,58.102 324.38,60.497 324.951,61.27 			"/>
		</g>
		<g>
			<polygon fill="#010101" stroke="#010101" stroke-width="0.25" points="331.697,52.998 332.173,49.75 332.952,50.311 
				335.309,47.035 336.311,47.756 333.955,51.032 334.735,51.592 			"/>
		</g>
		<g>
			<polygon fill="#010101" stroke="#010101" stroke-width="0.25" points="332.169,40.274 329.264,38.746 330.052,38.197 
				327.746,34.886 328.759,34.181 331.066,37.491 331.853,36.941 			"/>
		</g>
		<g>
			<polygon fill="#010101" stroke="#010101" stroke-width="0.25" points="319.854,36.07 318.029,38.798 317.566,37.957 
				314.031,39.902 313.436,38.82 316.971,36.875 316.507,36.034 			"/>
		</g>
	</g>
</g>
<g>
	<path fill="none" d="M304.468,78.463c0,0,10.88-7.008,14.125-1.867s2.886,10.227-12.026,17.518
		c-13.752,6.729-7.636-14.014-3.819-14.014"/>
	<g>
		<polygon fill="#010101" stroke="#010101" stroke-width="0.25" points="297.843,85.937 298.488,89.154 297.565,88.889 
			296.451,92.767 295.264,92.426 296.378,88.547 295.455,88.283 		"/>
	</g>
	<g>
		<polygon fill="#010101" stroke="#010101" stroke-width="0.25" points="304.203,96.032 306.509,93.697 306.805,94.61 
			310.643,93.364 311.024,94.539 307.187,95.785 307.484,96.698 		"/>
	</g>
	<g>
		<polygon fill="#010101" stroke="#010101" stroke-width="0.25" points="316.118,89.744 317.078,86.606 317.764,87.278 
			320.587,84.395 321.47,85.259 318.646,88.142 319.333,88.813 		"/>
	</g>
	<g>
		<polygon fill="#010101" stroke="#010101" stroke-width="0.25" points="319.745,77.495 316.651,76.4 317.352,75.744 
			314.593,72.798 315.494,71.954 318.253,74.899 318.953,74.242 		"/>
	</g>
	<g>
		<polygon fill="#010101" stroke="#010101" stroke-width="0.25" points="306.876,75.778 305.015,78.481 304.563,77.634 
			301.002,79.532 300.421,78.442 303.982,76.543 303.529,75.696 		"/>
	</g>
</g>
<g>
	<path fill="none" d="M520.635,42.814c24.892,5.971,7.728,29.615-3.539,28.166"/>
	<g>
		<polygon fill="#010101" stroke="#010101" stroke-width="0.25" points="518.523,71.839 521.01,69.696 521.231,70.63 
			525.157,69.698 525.442,70.899 521.517,71.833 521.74,72.767 		"/>
	</g>
	<g>
		<polygon fill="#010101" stroke="#010101" stroke-width="0.25" points="530.097,65.22 530.537,61.968 531.323,62.52 
			533.644,59.219 534.653,59.929 532.333,63.23 533.12,63.782 		"/>
	</g>
	<g>
		<polygon fill="#010101" stroke="#010101" stroke-width="0.25" points="533.534,52.38 531.227,50.047 532.143,49.761 
			530.943,45.909 532.122,45.542 533.322,49.394 534.239,49.107 		"/>
	</g>
	<g>
		<polygon fill="#010101" stroke="#010101" stroke-width="0.25" points="524.203,43.342 520.922,43.281 521.379,42.437 
			517.831,40.514 518.42,39.428 521.968,41.35 522.425,40.505 		"/>
	</g>
</g>
<g>
	<path fill="none" d="M513.58,104.932c0,0,10.88-7.006,14.125-1.865c3.244,5.141,2.885,10.227-12.026,17.518
		c-13.752,6.729-7.636-14.014-3.819-14.014"/>
	<g>
		<polygon fill="#010101" stroke="#010101" stroke-width="0.25" points="506.955,112.406 507.601,115.624 506.678,115.358 
			505.563,119.237 504.376,118.896 505.49,115.017 504.567,114.753 		"/>
	</g>
	<g>
		<polygon fill="#010101" stroke="#010101" stroke-width="0.25" points="513.313,122.503 515.62,120.168 515.916,121.082 
			519.755,119.836 520.136,121.01 516.298,122.256 516.595,123.17 		"/>
	</g>
	<g>
		<polygon fill="#010101" stroke="#010101" stroke-width="0.25" points="525.229,116.215 526.189,113.077 526.876,113.749 
			529.699,110.866 530.581,111.73 527.759,114.613 528.445,115.285 		"/>
	</g>
	<g>
		<polygon fill="#010101" stroke="#010101" stroke-width="0.25" points="528.857,103.966 525.764,102.871 526.464,102.214 
			523.706,99.269 524.607,98.425 527.366,101.37 528.066,100.712 		"/>
	</g>
	<g>
		<polygon fill="#010101" stroke="#010101" stroke-width="0.25" points="515.989,102.247 514.128,104.95 513.677,104.103 
			510.115,106 509.534,104.91 513.096,103.012 512.643,102.165 		"/>
	</g>
</g>
<g>
	<path fill="none" d="M42.287,52.893c-9.256-1.881-16.49,21.578-16.909,30.234s22.35,10.232,25.645-7.041
		C53.694,62.078,51.544,54.77,42.287,52.893z"/>
	<g>
		<polygon fill="#010101" stroke="#010101" stroke-width="0.25" points="45.138,56.678 48.348,57.364 47.737,58.105 50.854,60.669 
			50.069,61.623 46.953,59.06 46.343,59.802 		"/>
	</g>
	<g>
		<polygon fill="#010101" stroke="#010101" stroke-width="0.25" points="49.904,66.21 51.349,69.157 50.389,69.136 50.3,73.17 
			49.065,73.143 49.154,69.109 48.193,69.088 		"/>
	</g>
	<g>
		<polygon fill="#010101" stroke="#010101" stroke-width="0.25" points="48.448,78.22 48.271,81.498 47.443,81.01 45.396,84.488 
			44.332,83.861 46.378,80.384 45.55,79.897 		"/>
	</g>
	<g>
		<polygon fill="#010101" stroke="#010101" stroke-width="0.25" points="40.425,86.545 38.274,89.024 37.919,88.132 34.169,89.623 
			33.713,88.475 37.463,86.984 37.108,86.092 		"/>
	</g>
	<g>
		<polygon fill="#010101" stroke="#010101" stroke-width="0.25" points="29.484,87.088 26.626,85.475 27.43,84.95 25.222,81.572 
			26.256,80.896 28.464,84.274 29.267,83.748 		"/>
	</g>
	<g>
		<polygon fill="#010101" stroke="#010101" stroke-width="0.25" points="27.856,76.147 27.178,72.936 28.103,73.192 29.178,69.303 
			30.368,69.631 29.294,73.521 30.22,73.776 		"/>
	</g>
	<g>
		<polygon fill="#010101" stroke="#010101" stroke-width="0.25" points="31.838,64.18 32.152,60.913 32.958,61.434 35.149,58.045 
			36.187,58.716 33.996,62.105 34.803,62.625 		"/>
	</g>
	<g>
		<polygon fill="#010101" stroke="#010101" stroke-width="0.25" points="39.601,55.299 41.745,52.815 42.102,53.706 45.848,52.208 
			46.307,53.354 42.561,54.853 42.918,55.745 		"/>
	</g>
</g>
<g>
	<g>
		<path fill="none" d="M711.602,18.34c0,0-26.442,14.76-25.537,29.189c0.903,14.43,3.798,29.545,13.681,27.359
			c3.807-1.955,8.479-4.523,11.856-7.299c5.26-7.506,9.148-10.852,2.928-20.531c-2.944-4.578-17.971,11.061-17.971,11.061"/>
		<g>
			<polygon fill="#010101" stroke="#010101" stroke-width="0.25" points="696.74,59.606 697.796,56.499 698.461,57.191 
				701.371,54.396 702.227,55.286 699.317,58.082 699.983,58.774 			"/>
		</g>
		<g>
			<polygon fill="#010101" stroke="#010101" stroke-width="0.25" points="706.234,51.101 707.869,48.255 708.389,49.063 
				711.782,46.88 712.45,47.919 709.057,50.102 709.577,50.909 			"/>
		</g>
		<g>
			<polygon fill="#010101" stroke="#010101" stroke-width="0.25" points="714.562,50.334 717.01,52.52 716.113,52.862 
				717.55,56.633 716.396,57.073 714.959,53.302 714.062,53.645 			"/>
		</g>
		<g>
			<polygon fill="#010101" stroke="#010101" stroke-width="0.25" points="714.424,61.402 713.965,64.652 713.183,64.095 
				710.843,67.383 709.837,66.667 712.176,63.379 711.393,62.823 			"/>
		</g>
		<g>
			<polygon fill="#010101" stroke="#010101" stroke-width="0.25" points="705.618,69.884 703.885,72.67 703.395,71.845 
				699.925,73.907 699.294,72.845 702.763,70.783 702.271,69.958 			"/>
		</g>
		<g>
			<polygon fill="#010101" stroke="#010101" stroke-width="0.25" points="695.08,73.042 691.957,72.033 692.64,71.357 
				689.801,68.49 690.679,67.621 693.518,70.488 694.199,69.812 			"/>
		</g>
		<g>
			<polygon fill="#010101" stroke="#010101" stroke-width="0.25" points="689.536,62.3 687.384,59.823 688.317,59.597 
				687.368,55.675 688.568,55.385 689.518,59.307 690.451,59.08 			"/>
		</g>
		<g>
			<polygon fill="#010101" stroke="#010101" stroke-width="0.25" points="687.262,49.964 686.102,46.894 687.055,47.006 
				687.524,42.998 688.751,43.142 688.282,47.149 689.235,47.26 			"/>
		</g>
		<g>
			<polygon fill="#010101" stroke="#010101" stroke-width="0.25" points="690.912,38.311 691.171,35.039 691.985,35.546 
				694.118,32.121 695.166,32.773 693.034,36.199 693.851,36.706 			"/>
		</g>
		<g>
			<polygon fill="#010101" stroke="#010101" stroke-width="0.25" points="699.16,28.874 700.385,25.829 701.011,26.556 
				704.069,23.925 704.875,24.861 701.816,27.493 702.443,28.22 			"/>
		</g>
		<g>
			<polygon fill="#010101" stroke="#010101" stroke-width="0.25" points="709.319,21.133 711.055,18.347 711.545,19.173 
				715.015,17.113 715.645,18.175 712.175,20.235 712.666,21.061 			"/>
		</g>
	</g>
	<g>
		<path fill="none" d="M759.052,47.883c0,0,10.527-8.578,17.277-2.869c8.542,7.225,8.107,27.67-14.708,26.928
			c-19.733-0.643-6.21-24.053-1.54-24.053"/>
		<g>
			<polygon fill="#010101" stroke="#010101" stroke-width="0.25" points="760.727,45.837 759.374,48.827 758.779,48.073 
				755.61,50.572 754.846,49.603 758.014,47.104 757.418,46.35 			"/>
		</g>
		<g>
			<polygon fill="#010101" stroke="#010101" stroke-width="0.25" points="752.185,55.91 752.24,59.191 751.38,58.765 
				749.585,62.378 748.479,61.829 750.274,58.215 749.413,57.789 			"/>
		</g>
		<g>
			<polygon fill="#010101" stroke="#010101" stroke-width="0.25" points="752.952,69.445 756.229,69.279 755.832,70.153 
				759.504,71.826 758.992,72.949 755.319,71.277 754.922,72.151 			"/>
		</g>
		<g>
			<polygon fill="#010101" stroke="#010101" stroke-width="0.25" points="765.833,72.23 768.389,70.17 768.579,71.111 
				772.534,70.308 772.78,71.519 768.825,72.322 769.018,73.263 			"/>
		</g>
		<g>
			<polygon fill="#010101" stroke="#010101" stroke-width="0.25" points="777.91,66.96 778.579,63.748 779.323,64.354 
				781.87,61.223 782.828,62.002 780.281,65.133 781.027,65.738 			"/>
		</g>
		<g>
			<polygon fill="#010101" stroke="#010101" stroke-width="0.25" points="782.238,54.282 780.046,51.839 780.976,51.599 
				779.963,47.692 781.158,47.383 782.171,51.289 783.101,51.047 			"/>
		</g>
		<g>
			<polygon fill="#010101" stroke="#010101" stroke-width="0.25" points="774.466,43.351 771.269,44.09 771.507,43.16 
				767.598,42.158 767.904,40.962 771.813,41.963 772.051,41.033 			"/>
		</g>
		<g>
			<polygon fill="#010101" stroke="#010101" stroke-width="0.25" points="761.213,44.995 759.599,47.853 759.074,47.049 
				755.695,49.255 755.021,48.222 758.398,46.015 757.872,45.211 			"/>
		</g>
	</g>
</g>
<g>
	<line fill="none" x1="704.453" y1="75.989" x2="765.727" y2="77.792"/>
	<g>
		<polygon fill="#010101" stroke="#010101" stroke-width="0.25" points="759.852,76.434 756.872,77.812 756.915,76.853 
			752.884,76.671 752.939,75.438 756.971,75.618 757.013,74.659 		"/>
	</g>
	<g>
		<polygon fill="#010101" stroke="#010101" stroke-width="0.25" points="746.862,76.052 743.883,77.43 743.926,76.471 
			739.895,76.289 739.95,75.056 743.981,75.236 744.023,74.277 		"/>
	</g>
	<g>
		<polygon fill="#010101" stroke="#010101" stroke-width="0.25" points="733.872,75.67 730.894,77.048 730.937,76.089 
			726.905,75.907 726.961,74.674 730.992,74.854 731.034,73.895 		"/>
	</g>
	<g>
		<polygon fill="#010101" stroke="#010101" stroke-width="0.25" points="720.883,75.288 717.904,76.665 717.947,75.706 
			713.916,75.524 713.972,74.291 718.003,74.472 718.045,73.512 		"/>
	</g>
	<g>
		<polygon fill="#010101" stroke="#010101" stroke-width="0.25" points="707.894,74.906 704.915,76.283 704.958,75.324 
			700.927,75.143 700.982,73.909 705.014,74.09 705.056,73.13 		"/>
	</g>
</g>
<g>
	<path fill="none" d="M725.373,102.004c0,0,10.881-7.006,14.125-1.865c3.245,5.141,2.887,10.225-12.024,17.516
		c-13.752,6.729-7.638-14.012-3.819-14.012"/>
	<g>
		<polygon fill="#010101" stroke="#010101" stroke-width="0.25" points="718.75,109.476 719.396,112.693 718.473,112.428 
			717.357,116.306 716.171,115.965 717.285,112.086 716.362,111.822 		"/>
	</g>
	<g>
		<polygon fill="#010101" stroke="#010101" stroke-width="0.25" points="725.107,119.576 727.413,117.24 727.71,118.153 
			731.548,116.908 731.929,118.083 728.091,119.328 728.389,120.242 		"/>
	</g>
	<g>
		<polygon fill="#010101" stroke="#010101" stroke-width="0.25" points="737.023,113.288 737.984,110.15 738.67,110.821 
			741.493,107.938 742.376,108.802 739.553,111.686 740.239,112.357 		"/>
	</g>
	<g>
		<polygon fill="#010101" stroke="#010101" stroke-width="0.25" points="740.65,101.037 737.557,99.942 738.257,99.286 
			735.499,96.341 736.399,95.497 739.159,98.441 739.859,97.784 		"/>
	</g>
	<g>
		<polygon fill="#010101" stroke="#010101" stroke-width="0.25" points="727.782,99.32 725.92,102.022 725.469,101.175 
			721.907,103.072 721.327,101.982 724.888,100.085 724.436,99.238 		"/>
	</g>
</g>
<g>
	<g>
		<path fill="none" d="M811.649,48.893c0,0,10.527-7.174,17.275-2.4c8.542,6.047,8.107,23.146-14.708,22.527
			c-19.733-0.539-6.21-20.119-1.541-20.119"/>
		<g>
			<polygon fill="#010101" stroke="#010101" stroke-width="0.25" points="808.559,50.512 807.641,53.663 806.946,53 804.162,55.922 
				803.269,55.07 806.052,52.148 805.355,51.486 			"/>
		</g>
		<g>
			<polygon fill="#010101" stroke="#010101" stroke-width="0.25" points="802.325,63.815 805.284,65.236 804.518,65.813 
				806.944,69.037 805.957,69.78 803.53,66.556 802.764,67.134 			"/>
		</g>
		<g>
			<polygon fill="#010101" stroke="#010101" stroke-width="0.25" points="814.219,69.27 817.27,68.059 817.173,69.014 
				821.188,69.417 821.065,70.646 817.05,70.243 816.955,71.199 			"/>
		</g>
		<g>
			<polygon fill="#010101" stroke="#010101" stroke-width="0.25" points="827.112,66.946 828.993,64.256 829.438,65.106 
				833.013,63.233 833.586,64.327 830.012,66.2 830.459,67.05 			"/>
		</g>
		<g>
			<polygon fill="#010101" stroke="#010101" stroke-width="0.25" points="834.571,56.211 833.149,53.254 834.109,53.282 
				834.229,49.249 835.464,49.286 835.344,53.319 836.304,53.347 			"/>
		</g>
		<g>
			<polygon fill="#010101" stroke="#010101" stroke-width="0.25" points="827.377,44.976 824.209,45.834 824.413,44.896 
				820.469,44.041 820.73,42.834 824.674,43.688 824.877,42.75 			"/>
		</g>
		<g>
			<polygon fill="#010101" stroke="#010101" stroke-width="0.25" points="814.034,46.187 812.196,48.906 811.737,48.063 
				808.193,49.993 807.604,48.909 811.146,46.978 810.687,46.135 			"/>
		</g>
	</g>
	<g>
		<path fill="none" d="M835.305,68.631c8.421-0.352,22.792-0.816,34.48,1.857s19.065-6.197,20.735-13.154
			c1.668-6.959-1.814-10.387-9.606-10.387"/>
		<g>
			<polygon fill="#010101" stroke="#010101" stroke-width="0.25" points="877.555,47.146 880.793,46.616 880.495,47.529 
				884.331,48.781 883.948,49.955 880.112,48.703 879.814,49.616 			"/>
		</g>
		<g>
			<polygon fill="#010101" stroke="#010101" stroke-width="0.25" points="888.271,50.81 890.184,53.477 889.233,53.615 
				889.813,57.608 888.591,57.786 888.011,53.792 887.061,53.931 			"/>
		</g>
		<g>
			<polygon fill="#010101" stroke="#010101" stroke-width="0.25" points="886.919,62.071 886.184,65.269 885.451,64.648 
				882.84,67.724 881.898,66.924 884.51,63.848 883.777,63.228 			"/>
		</g>
		<g>
			<polygon fill="#010101" stroke="#010101" stroke-width="0.25" points="877.485,68.792 874.651,70.448 874.604,69.489 
				870.573,69.693 870.511,68.46 874.541,68.255 874.491,67.296 			"/>
		</g>
		<g>
			<polygon fill="#010101" stroke="#010101" stroke-width="0.25" points="864.749,68.734 861.667,69.863 861.789,68.911 
				857.786,68.401 857.942,67.176 861.945,67.686 862.065,66.733 			"/>
		</g>
		<g>
			<polygon fill="#010101" stroke="#010101" stroke-width="0.25" points="851.76,67.449 848.754,68.767 848.816,67.809 
				844.789,67.548 844.869,66.316 848.896,66.577 848.957,65.618 			"/>
		</g>
		<g>
			<polygon fill="#010101" stroke="#010101" stroke-width="0.25" points="838.696,67.404 835.778,68.906 835.781,67.946 
				831.745,67.936 831.749,66.701 835.784,66.711 835.786,65.75 			"/>
		</g>
	</g>
</g>
<g>
	<path fill="none" d="M837.542,103.161c0,0,10.881-7.008,14.126-1.869c3.243,5.143,2.885,10.229-12.026,17.52
		c-13.752,6.73-7.637-14.014-3.819-14.014"/>
	<g>
		<polygon fill="#010101" stroke="#010101" stroke-width="0.25" points="830.917,110.636 831.563,113.854 830.64,113.589 
			829.524,117.467 828.338,117.126 829.452,113.248 828.529,112.983 		"/>
	</g>
	<g>
		<polygon fill="#010101" stroke="#010101" stroke-width="0.25" points="837.278,120.73 839.584,118.394 839.881,119.307 
			843.719,118.062 844.101,119.236 840.263,120.482 840.56,121.396 		"/>
	</g>
	<g>
		<polygon fill="#010101" stroke="#010101" stroke-width="0.25" points="849.194,114.44 850.154,111.302 850.84,111.974 
			853.663,109.09 854.546,109.955 851.723,112.838 852.41,113.509 		"/>
	</g>
	<g>
		<polygon fill="#010101" stroke="#010101" stroke-width="0.25" points="852.819,102.191 849.726,101.096 850.426,100.44 
			847.667,97.495 848.568,96.651 851.327,99.596 852.027,98.938 		"/>
	</g>
	<g>
		<polygon fill="#010101" stroke="#010101" stroke-width="0.25" points="839.951,100.476 838.089,103.179 837.638,102.332 
			834.076,104.229 833.495,103.14 837.057,101.242 836.604,100.394 		"/>
	</g>
</g>
<g>
	<g>
		<path fill="none" d="M472.383,242.956c0,0,10.526-7.174,17.276-2.398c8.542,6.045,8.107,23.145-14.708,22.525
			c-19.733-0.537-6.21-20.119-1.541-20.119"/>
		<g>
			<polygon fill="#010101" stroke="#010101" stroke-width="0.25" points="469.293,244.575 468.376,247.725 467.681,247.063 
				464.897,249.985 464.003,249.132 466.787,246.21 466.091,245.549 			"/>
		</g>
		<g>
			<polygon fill="#010101" stroke="#010101" stroke-width="0.25" points="463.059,257.878 466.018,259.298 465.251,259.876 
				467.677,263.1 466.691,263.842 464.264,260.619 463.497,261.198 			"/>
		</g>
		<g>
			<polygon fill="#010101" stroke="#010101" stroke-width="0.25" points="474.953,263.333 478.004,262.121 477.907,263.076 
				481.923,263.479 481.8,264.708 477.784,264.305 477.689,265.261 			"/>
		</g>
		<g>
			<polygon fill="#010101" stroke="#010101" stroke-width="0.25" points="487.848,261.008 489.728,258.319 490.174,259.169 
				493.748,257.295 494.321,258.389 490.747,260.263 491.194,261.114 			"/>
		</g>
		<g>
			<polygon fill="#010101" stroke="#010101" stroke-width="0.25" points="495.306,250.275 493.884,247.317 494.844,247.345 
				494.964,243.312 496.198,243.349 496.078,247.382 497.038,247.41 			"/>
		</g>
		<g>
			<polygon fill="#010101" stroke="#010101" stroke-width="0.25" points="488.11,239.04 484.942,239.898 485.146,238.959 
				481.202,238.104 481.464,236.897 485.407,237.752 485.61,236.813 			"/>
		</g>
		<g>
			<polygon fill="#010101" stroke="#010101" stroke-width="0.25" points="474.768,240.249 472.931,242.968 472.471,242.125 
				468.927,244.055 468.337,242.971 471.88,241.041 471.42,240.198 			"/>
		</g>
	</g>
	<g>
		<path fill="none" d="M496.038,262.692c8.421-0.35,22.792-0.814,34.479,1.861c11.689,2.672,19.068-6.199,20.737-13.154
			c1.667-6.959-1.814-10.391-9.605-10.391"/>
		<g>
			<polygon fill="#010101" stroke="#010101" stroke-width="0.25" points="538.291,241.207 541.53,240.677 541.232,241.589 
				545.067,242.843 544.685,244.017 540.849,242.764 540.551,243.677 			"/>
		</g>
		<g>
			<polygon fill="#010101" stroke="#010101" stroke-width="0.25" points="549.006,244.874 550.918,247.541 549.969,247.678 
				550.548,251.671 549.325,251.849 548.746,247.856 547.795,247.995 			"/>
		</g>
		<g>
			<polygon fill="#010101" stroke="#010101" stroke-width="0.25" points="547.651,256.134 546.916,259.333 546.184,258.711 
				543.572,261.788 542.631,260.988 545.242,257.912 544.51,257.291 			"/>
		</g>
		<g>
			<polygon fill="#010101" stroke="#010101" stroke-width="0.25" points="538.219,262.856 535.385,264.511 535.337,263.552 
				531.307,263.757 531.243,262.524 535.273,262.319 535.224,261.36 			"/>
		</g>
		<g>
			<polygon fill="#010101" stroke="#010101" stroke-width="0.25" points="525.482,262.798 522.4,263.927 522.522,262.975 
				518.52,262.464 518.676,261.239 522.679,261.75 522.799,260.796 			"/>
		</g>
		<g>
			<polygon fill="#010101" stroke="#010101" stroke-width="0.25" points="512.493,261.512 509.487,262.831 509.55,261.873 
				505.523,261.611 505.604,260.378 509.63,260.639 509.691,259.681 			"/>
		</g>
		<g>
			<polygon fill="#010101" stroke="#010101" stroke-width="0.25" points="499.431,261.465 496.512,262.966 496.515,262.006 
				492.479,261.996 492.482,260.76 496.518,260.771 496.52,259.811 			"/>
		</g>
	</g>
</g>
<g>
	<path fill="none" d="M508.693,244.426c0,0-11.875,79.119-9.271,91.002c2.607,11.879-30.146,10.424-38.258-2.902
		s33.037-19.992,33.037-19.992s30.796-6.928,32.461-0.584c2.898,11.014,6.376,17.395,0,19.131
		c-6.374,1.734-5.505-4.348-4.634-11.305c4.346-30.43,5.503-70.133,5.503-70.133"/>
	<g>
		<polygon fill="#010101" stroke="#010101" stroke-width="0.25" points="526.244,252.992 527.577,255.991 526.619,255.933 
			526.378,259.961 525.145,259.887 525.386,255.86 524.427,255.803 		"/>
	</g>
	<g>
		<polygon fill="#010101" stroke="#010101" stroke-width="0.25" points="525.602,265.963 526.913,268.971 525.955,268.908 
			525.685,272.934 524.453,272.851 524.723,268.825 523.764,268.761 		"/>
	</g>
	<g>
		<polygon fill="#010101" stroke="#010101" stroke-width="0.25" points="524.805,278.905 526.047,281.942 525.091,281.856 
			524.729,285.875 523.499,285.764 523.86,281.746 522.903,281.661 		"/>
	</g>
	<g>
		<polygon fill="#010101" stroke="#010101" stroke-width="0.25" points="523.841,291.864 525.083,294.902 524.126,294.816 
			523.765,298.834 522.534,298.724 522.896,294.705 521.939,294.62 		"/>
	</g>
	<g>
		<polygon fill="#010101" stroke="#010101" stroke-width="0.25" points="522.537,304.746 523.662,307.829 522.71,307.707 
			522.194,311.708 520.969,311.55 521.484,307.548 520.532,307.426 		"/>
	</g>
	<g>
		<polygon fill="#010101" stroke="#010101" stroke-width="0.25" points="521.054,317.695 522.282,320.738 521.326,320.648 
			520.946,324.666 519.717,324.549 520.097,320.532 519.14,320.442 		"/>
	</g>
	<g>
		<polygon fill="#010101" stroke="#010101" stroke-width="0.25" points="522.997,330.649 526.278,330.587 525.853,331.448 
			529.47,333.237 528.922,334.343 525.305,332.555 524.88,333.417 		"/>
	</g>
	<g>
		<polygon fill="#010101" stroke="#010101" stroke-width="0.25" points="530.735,322.891 528.719,320.302 529.663,320.126 
			528.925,316.16 530.139,315.934 530.877,319.901 531.821,319.724 		"/>
	</g>
	<g>
		<polygon fill="#010101" stroke="#010101" stroke-width="0.25" points="525.833,310.283 522.554,310.419 522.96,309.549 
			519.303,307.843 519.825,306.724 523.482,308.429 523.888,307.559 		"/>
	</g>
	<g>
		<polygon fill="#010101" stroke="#010101" stroke-width="0.25" points="512.662,308.41 509.886,310.161 509.805,309.204 
			505.784,309.545 505.68,308.315 509.7,307.973 509.618,307.016 		"/>
	</g>
	<g>
		<polygon fill="#010101" stroke="#010101" stroke-width="0.25" points="499.716,310.284 497.085,312.245 496.93,311.297 
			492.947,311.951 492.747,310.732 496.729,310.079 496.573,309.13 		"/>
	</g>
	<g>
		<polygon fill="#010101" stroke="#010101" stroke-width="0.25" points="486.908,312.873 484.406,314.996 484.191,314.06 
			480.259,314.963 479.981,313.759 483.915,312.856 483.698,311.92 		"/>
	</g>
	<g>
		<polygon fill="#010101" stroke="#010101" stroke-width="0.25" points="474.353,316.623 472.096,319.005 471.78,318.099 
			467.969,319.424 467.563,318.258 471.374,316.932 471.058,316.025 		"/>
	</g>
	<g>
		<polygon fill="#010101" stroke="#010101" stroke-width="0.25" points="462.023,322.745 461.912,326.025 461.075,325.554 
			459.098,329.072 458.021,328.467 459.998,324.95 459.16,324.479 		"/>
	</g>
	<g>
		<polygon fill="#010101" stroke="#010101" stroke-width="0.25" points="463.061,335.541 466.272,336.218 465.664,336.961 
			468.786,339.517 468.004,340.473 464.881,337.917 464.274,338.661 		"/>
	</g>
	<g>
		<polygon fill="#010101" stroke="#010101" stroke-width="0.25" points="474.444,342.317 477.64,341.566 477.404,342.497 
			481.317,343.485 481.015,344.682 477.103,343.695 476.868,344.626 		"/>
	</g>
	<g>
		<polygon fill="#010101" stroke="#010101" stroke-width="0.25" points="487.581,344.172 490.29,342.321 490.406,343.274 
			494.412,342.785 494.562,344.01 490.557,344.5 490.674,345.454 		"/>
	</g>
	<g>
		<polygon fill="#010101" stroke="#010101" stroke-width="0.25" points="499.702,338.405 499.021,335.194 499.946,335.449 
			501.018,331.558 502.208,331.886 501.137,335.777 502.063,336.031 		"/>
	</g>
	<g>
		<polygon fill="#010101" stroke="#010101" stroke-width="0.25" points="500.506,325.267 499.132,322.287 500.091,322.331 
			500.276,318.3 501.511,318.357 501.325,322.388 502.284,322.431 		"/>
	</g>
	<g>
		<polygon fill="#010101" stroke="#010101" stroke-width="0.25" points="501.384,312.365 500.162,309.319 501.118,309.412 
			501.507,305.395 502.736,305.514 502.348,309.531 503.304,309.623 		"/>
	</g>
	<g>
		<polygon fill="#010101" stroke="#010101" stroke-width="0.25" points="502.67,299.475 501.55,296.39 502.502,296.514 
			503.022,292.512 504.247,292.672 503.727,296.673 504.679,296.796 		"/>
	</g>
	<g>
		<polygon fill="#010101" stroke="#010101" stroke-width="0.25" points="504.158,286.576 503.063,283.482 504.014,283.614 
			504.567,279.616 505.79,279.786 505.237,283.783 506.188,283.914 		"/>
	</g>
	<g>
		<polygon fill="#010101" stroke="#010101" stroke-width="0.25" points="505.816,273.696 504.745,270.593 505.695,270.733 
			506.281,266.741 507.503,266.919 506.918,270.913 507.868,271.051 		"/>
	</g>
	<g>
		<polygon fill="#010101" stroke="#010101" stroke-width="0.25" points="507.546,260.829 506.505,257.716 507.454,257.865 
			508.078,253.877 509.298,254.069 508.674,258.055 509.623,258.204 		"/>
	</g>
	<g>
		<polygon fill="#010101" stroke="#010101" stroke-width="0.25" points="509.37,247.969 508.348,244.851 509.296,245.004 
			509.943,241.022 511.162,241.22 510.515,245.203 511.463,245.356 		"/>
	</g>
</g>
<g>
	<path fill="none" d="M583.782,247.075c0,0,8.027-4.525,11.31-2.176c3.285,2.344,3.511,9.287,1.166,11.162
		c-2.344,1.871-11.854,4.955-18.423,7.771c-16.177,6.932,53.399,1.602,68.348,2.67"/>
	<g>
		<polygon fill="#010101" stroke="#010101" stroke-width="0.25" points="636.831,265.236 633.909,266.729 633.914,265.769 
			629.879,265.747 629.886,264.512 633.921,264.534 633.926,263.574 		"/>
	</g>
	<g>
		<polygon fill="#010101" stroke="#010101" stroke-width="0.25" points="623.819,265.537 620.924,267.082 620.912,266.122 
			616.877,266.171 616.861,264.936 620.896,264.886 620.884,263.926 		"/>
	</g>
	<g>
		<polygon fill="#010101" stroke="#010101" stroke-width="0.25" points="610.828,265.895 607.932,267.439 607.921,266.479 
			603.886,266.527 603.871,265.292 607.906,265.244 607.894,264.284 		"/>
	</g>
	<g>
		<polygon fill="#010101" stroke="#010101" stroke-width="0.25" points="597.87,266.183 594.933,267.647 594.947,266.688 
			590.913,266.625 590.932,265.39 594.967,265.453 594.98,264.492 		"/>
	</g>
	<g>
		<polygon fill="#010101" stroke="#010101" stroke-width="0.25" points="584.96,265.974 581.944,267.269 582.014,266.312 
			577.989,266.02 578.078,264.789 582.104,265.08 582.172,264.122 		"/>
	</g>
	<g>
		<polygon fill="#010101" stroke="#010101" stroke-width="0.25" points="579.493,264.454 581.691,262.017 582.028,262.916 
			585.807,261.499 586.24,262.655 582.462,264.072 582.8,264.971 		"/>
	</g>
	<g>
		<polygon fill="#010101" stroke="#010101" stroke-width="0.25" points="591.589,259.527 593.639,256.964 594.028,257.841 
			597.717,256.203 598.218,257.332 594.53,258.97 594.921,259.847 		"/>
	</g>
	<g>
		<polygon fill="#010101" stroke="#010101" stroke-width="0.25" points="598.144,248.628 595.572,246.588 596.448,246.196 
			594.795,242.514 595.921,242.008 597.575,245.689 598.451,245.294 		"/>
	</g>
	<g>
		<polygon fill="#010101" stroke="#010101" stroke-width="0.25" points="586.414,244.608 584.325,247.14 583.949,246.257 
			580.237,247.84 579.753,246.705 583.464,245.121 583.086,244.238 		"/>
	</g>
</g>
<g>
	<path fill="none" d="M657.567,211.157c0,0-26.442,14.758-25.538,29.188s3.798,29.547,13.681,27.359
		c3.807-1.953,8.479-4.521,11.857-7.297c5.26-7.506,9.375-12.668,3.846-17.506c-4.097-3.582-20.043,7.604-20.043,7.604"/>
	<g>
		<polygon fill="#010101" stroke="#010101" stroke-width="0.25" points="649.421,247.146 651.373,244.507 651.796,245.369 
			655.418,243.591 655.962,244.701 652.34,246.478 652.764,247.34 		"/>
	</g>
	<g>
		<polygon fill="#010101" stroke="#010101" stroke-width="0.25" points="658.799,244.941 662.038,245.471 661.464,246.241 
			664.7,248.652 663.963,249.642 660.727,247.232 660.153,248.002 		"/>
	</g>
	<g>
		<polygon fill="#010101" stroke="#010101" stroke-width="0.25" points="660.055,254.076 659.771,257.345 658.96,256.832 
			656.8,260.24 655.757,259.58 657.916,256.17 657.104,255.657 		"/>
	</g>
	<g>
		<polygon fill="#010101" stroke="#010101" stroke-width="0.25" points="651.585,262.699 649.851,265.485 649.36,264.66 
			645.891,266.721 645.26,265.66 648.729,263.597 648.237,262.772 		"/>
	</g>
	<g>
		<polygon fill="#010101" stroke="#010101" stroke-width="0.25" points="641.046,265.857 637.923,264.848 638.604,264.173 
			635.766,261.305 636.644,260.437 639.482,263.304 640.164,262.627 		"/>
	</g>
	<g>
		<polygon fill="#010101" stroke="#010101" stroke-width="0.25" points="635.502,255.116 633.35,252.638 634.282,252.413 
			633.333,248.49 634.533,248.2 635.483,252.122 636.416,251.895 		"/>
	</g>
	<g>
		<polygon fill="#010101" stroke="#010101" stroke-width="0.25" points="633.227,242.779 632.066,239.709 633.02,239.821 
			633.489,235.813 634.716,235.957 634.246,239.964 635.2,240.076 		"/>
	</g>
	<g>
		<polygon fill="#010101" stroke="#010101" stroke-width="0.25" points="636.877,231.125 637.136,227.854 637.951,228.362 
			640.084,224.936 641.132,225.588 639,229.014 639.815,229.521 		"/>
	</g>
	<g>
		<polygon fill="#010101" stroke="#010101" stroke-width="0.25" points="645.126,221.689 646.351,218.644 646.977,219.372 
			650.036,216.741 650.842,217.677 647.782,220.309 648.409,221.036 		"/>
	</g>
	<g>
		<polygon fill="#010101" stroke="#010101" stroke-width="0.25" points="655.285,213.95 657.021,211.164 657.511,211.989 
			660.98,209.93 661.61,210.991 658.141,213.052 658.632,213.877 		"/>
	</g>
</g>
<g>
	<path fill="none" d="M611.126,249.528c0,0-11.875,79.117-9.271,91c2.606,11.881-30.147,10.424-38.258-2.902
		s33.037-19.992,33.037-19.992s30.795-6.926,32.462-0.584c2.896,11.014,6.374,17.395,0,19.131
		c-6.375,1.736-5.507-4.348-4.636-11.305c4.346-30.43,5.503-70.133,5.503-70.133"/>
	<g>
		<polygon fill="#010101" stroke="#010101" stroke-width="0.25" points="628.677,258.09 630.01,261.089 629.052,261.032 
			628.81,265.06 627.577,264.986 627.818,260.958 626.859,260.902 		"/>
	</g>
	<g>
		<polygon fill="#010101" stroke="#010101" stroke-width="0.25" points="628.034,271.062 629.346,274.07 628.388,274.006 
			628.118,278.033 626.886,277.95 627.155,273.923 626.197,273.86 		"/>
	</g>
	<g>
		<polygon fill="#010101" stroke="#010101" stroke-width="0.25" points="627.237,284.003 628.479,287.042 627.523,286.956 
			627.161,290.974 625.932,290.864 626.293,286.844 625.336,286.759 		"/>
	</g>
	<g>
		<polygon fill="#010101" stroke="#010101" stroke-width="0.25" points="626.273,296.962 627.516,300 626.56,299.915 
			626.197,303.933 624.967,303.823 625.329,299.803 624.372,299.718 		"/>
	</g>
	<g>
		<polygon fill="#010101" stroke="#010101" stroke-width="0.25" points="624.97,309.845 626.095,312.928 625.143,312.805 
			624.627,316.807 623.401,316.65 623.917,312.647 622.965,312.526 		"/>
	</g>
	<g>
		<polygon fill="#010101" stroke="#010101" stroke-width="0.25" points="623.486,322.793 624.715,325.837 623.759,325.747 
			623.379,329.764 622.149,329.648 622.529,325.63 621.573,325.542 		"/>
	</g>
	<g>
		<polygon fill="#010101" stroke="#010101" stroke-width="0.25" points="625.429,335.749 628.71,335.686 628.284,336.547 
			631.901,338.335 631.354,339.442 627.737,337.655 627.313,338.516 		"/>
	</g>
	<g>
		<polygon fill="#010101" stroke="#010101" stroke-width="0.25" points="633.169,327.993 631.152,325.404 632.096,325.228 
			631.358,321.261 632.572,321.035 633.311,325.002 634.255,324.826 		"/>
	</g>
	<g>
		<polygon fill="#010101" stroke="#010101" stroke-width="0.25" points="628.269,315.382 624.989,315.519 625.395,314.649 
			621.737,312.944 622.26,311.825 625.917,313.529 626.322,312.658 		"/>
	</g>
	<g>
		<polygon fill="#010101" stroke="#010101" stroke-width="0.25" points="615.097,313.51 612.32,315.26 612.239,314.304 
			608.219,314.645 608.114,313.415 612.135,313.073 612.053,312.116 		"/>
	</g>
	<g>
		<polygon fill="#010101" stroke="#010101" stroke-width="0.25" points="602.151,315.383 599.52,317.344 599.364,316.397 
			595.382,317.049 595.183,315.831 599.164,315.178 599.008,314.23 		"/>
	</g>
	<g>
		<polygon fill="#010101" stroke="#010101" stroke-width="0.25" points="589.345,317.971 586.842,320.095 586.627,319.16 
			582.694,320.063 582.418,318.859 586.351,317.956 586.135,317.02 		"/>
	</g>
	<g>
		<polygon fill="#010101" stroke="#010101" stroke-width="0.25" points="576.787,321.722 574.53,324.105 574.215,323.198 
			570.403,324.524 569.998,323.357 573.81,322.032 573.493,321.125 		"/>
	</g>
	<g>
		<polygon fill="#010101" stroke="#010101" stroke-width="0.25" points="564.459,327.843 564.347,331.124 563.51,330.653 
			561.532,334.17 560.456,333.565 562.433,330.047 561.595,329.578 		"/>
	</g>
	<g>
		<polygon fill="#010101" stroke="#010101" stroke-width="0.25" points="565.493,340.64 568.705,341.318 568.097,342.061 
			571.219,344.618 570.437,345.573 567.313,343.017 566.706,343.76 		"/>
	</g>
	<g>
		<polygon fill="#010101" stroke="#010101" stroke-width="0.25" points="576.877,347.417 580.072,346.666 579.837,347.596 
			583.749,348.584 583.447,349.782 579.534,348.794 579.301,349.726 		"/>
	</g>
	<g>
		<polygon fill="#010101" stroke="#010101" stroke-width="0.25" points="590.012,349.273 592.722,347.421 592.838,348.375 
			596.844,347.885 596.993,349.111 592.987,349.6 593.105,350.553 		"/>
	</g>
	<g>
		<polygon fill="#010101" stroke="#010101" stroke-width="0.25" points="602.136,343.506 601.454,340.295 602.38,340.55 
			603.451,336.66 604.642,336.988 603.57,340.878 604.497,341.132 		"/>
	</g>
	<g>
		<polygon fill="#010101" stroke="#010101" stroke-width="0.25" points="602.938,330.369 601.565,327.388 602.524,327.432 
			602.71,323.401 603.943,323.458 603.758,327.489 604.718,327.533 		"/>
	</g>
	<g>
		<polygon fill="#010101" stroke="#010101" stroke-width="0.25" points="603.817,317.467 602.596,314.42 603.551,314.513 
			603.94,310.497 605.17,310.616 604.781,314.632 605.737,314.724 		"/>
	</g>
	<g>
		<polygon fill="#010101" stroke="#010101" stroke-width="0.25" points="605.104,304.577 603.983,301.492 604.935,301.616 
			605.456,297.614 606.681,297.774 606.16,301.775 607.112,301.898 		"/>
	</g>
	<g>
		<polygon fill="#010101" stroke="#010101" stroke-width="0.25" points="606.591,291.677 605.495,288.583 606.445,288.715 
			606.999,284.718 608.223,284.887 607.669,288.884 608.621,289.015 		"/>
	</g>
	<g>
		<polygon fill="#010101" stroke="#010101" stroke-width="0.25" points="608.249,278.797 607.178,275.696 608.128,275.834 
			608.714,271.842 609.936,272.021 609.351,276.014 610.301,276.153 		"/>
	</g>
	<g>
		<polygon fill="#010101" stroke="#010101" stroke-width="0.25" points="609.979,265.93 608.938,262.818 609.887,262.966 
			610.511,258.98 611.73,259.17 611.107,263.158 612.056,263.305 		"/>
	</g>
	<g>
		<polygon fill="#010101" stroke="#010101" stroke-width="0.25" points="611.803,253.071 610.78,249.953 611.728,250.106 
			612.376,246.124 613.595,246.322 612.947,250.304 613.896,250.458 		"/>
	</g>
</g>
<g>
	<g>
		<g>
			<path fill="none" d="M686.978,247.909c3.222,0.646,14.281,23.949,14.281,23.949"/>
			<g>
				<polygon fill="#010101" stroke="#010101" stroke-width="0.25" points="702.928,272.582 700.325,270.582 701.194,270.175 
					699.484,266.52 700.603,265.997 702.313,269.652 703.183,269.244 				"/>
			</g>
			<g>
				<polygon fill="#010101" stroke="#010101" stroke-width="0.25" points="697.059,260.927 694.365,259.052 695.215,258.605 
					693.334,255.034 694.427,254.458 696.308,258.029 697.157,257.581 				"/>
			</g>
			<g>
				<polygon fill="#010101" stroke="#010101" stroke-width="0.25" points="690.131,249.66 687.082,248.447 687.808,247.818 
					685.164,244.769 686.098,243.959 688.74,247.008 689.466,246.379 				"/>
			</g>
		</g>
		<g>
			<path fill="none" d="M694.795,245.584c0,0,9.674-6.951,13.71,0.75c4.032,7.701,2.896,10.607-1.504,14.275
				c-4.399,3.666-8.074,6.385-8.074,6.385"/>
			<g>
				<polygon fill="#010101" stroke="#010101" stroke-width="0.25" points="698.939,268.473 700.39,265.529 700.959,266.302 
					704.207,263.908 704.939,264.902 701.692,267.296 702.263,268.069 				"/>
			</g>
			<g>
				<polygon fill="#010101" stroke="#010101" stroke-width="0.25" points="709.008,259.797 709.483,256.549 710.263,257.11 
					712.619,253.834 713.622,254.555 711.267,257.832 712.047,258.391 				"/>
			</g>
			<g>
				<polygon fill="#010101" stroke="#010101" stroke-width="0.25" points="709.481,247.073 706.577,245.544 707.365,244.997 
					705.059,241.685 706.072,240.979 708.379,244.29 709.166,243.741 				"/>
			</g>
			<g>
				<polygon fill="#010101" stroke="#010101" stroke-width="0.25" points="697.167,242.868 695.343,245.595 694.88,244.754 
					691.345,246.7 690.749,245.618 694.284,243.671 693.819,242.831 				"/>
			</g>
		</g>
	</g>
	<g>
		<line fill="none" x1="702.746" y1="267.995" x2="764.018" y2="269.797"/>
		<g>
			<polygon fill="#010101" stroke="#010101" stroke-width="0.25" points="758.144,268.441 755.165,269.818 755.208,268.859 
				751.177,268.677 751.232,267.444 755.264,267.625 755.306,266.665 			"/>
		</g>
		<g>
			<polygon fill="#010101" stroke="#010101" stroke-width="0.25" points="745.154,268.059 742.176,269.436 742.219,268.477 
				738.188,268.295 738.243,267.062 742.274,267.243 742.316,266.283 			"/>
		</g>
		<g>
			<polygon fill="#010101" stroke="#010101" stroke-width="0.25" points="732.165,267.677 729.186,269.054 729.229,268.095 
				725.197,267.914 725.253,266.68 729.284,266.861 729.326,265.901 			"/>
		</g>
		<g>
			<polygon fill="#010101" stroke="#010101" stroke-width="0.25" points="719.176,267.294 716.196,268.671 716.239,267.712 
				712.208,267.531 712.264,266.297 716.295,266.478 716.337,265.518 			"/>
		</g>
		<g>
			<polygon fill="#010101" stroke="#010101" stroke-width="0.25" points="706.187,266.913 703.207,268.29 703.25,267.331 
				699.219,267.149 699.274,265.916 703.306,266.096 703.348,265.136 			"/>
		</g>
	</g>
	<g>
		<path fill="none" d="M774.392,211.719c0,0-26.444,14.756-25.539,29.188c0.904,14.428,3.798,29.547,13.68,27.359
			c3.807-1.953,8.479-4.521,11.859-7.299c5.26-7.504,9.375-12.666,3.845-17.506c-4.096-3.582-20.042,7.605-20.042,7.605"/>
		<g>
			<polygon fill="#010101" stroke="#010101" stroke-width="0.25" points="766.247,247.706 768.198,245.067 768.621,245.929 
				772.244,244.152 772.788,245.26 769.165,247.038 769.589,247.9 			"/>
		</g>
		<g>
			<polygon fill="#010101" stroke="#010101" stroke-width="0.25" points="775.623,245.504 778.861,246.035 778.288,246.805 
				781.524,249.215 780.786,250.206 777.55,247.795 776.978,248.567 			"/>
		</g>
		<g>
			<polygon fill="#010101" stroke="#010101" stroke-width="0.25" points="776.878,254.638 776.594,257.909 775.783,257.394 
				773.623,260.803 772.58,260.142 774.739,256.733 773.928,256.22 			"/>
		</g>
		<g>
			<polygon fill="#010101" stroke="#010101" stroke-width="0.25" points="768.407,263.261 766.673,266.047 766.183,265.222 
				762.714,267.284 762.083,266.222 765.552,264.161 765.06,263.335 			"/>
		</g>
		<g>
			<polygon fill="#010101" stroke="#010101" stroke-width="0.25" points="757.868,266.418 754.745,265.41 755.428,264.735 
				752.589,261.867 753.466,260.998 756.306,263.866 756.987,263.189 			"/>
		</g>
		<g>
			<polygon fill="#010101" stroke="#010101" stroke-width="0.25" points="752.325,255.677 750.172,253.2 751.105,252.974 
				750.156,249.051 751.356,248.761 752.306,252.683 753.239,252.457 			"/>
		</g>
		<g>
			<polygon fill="#010101" stroke="#010101" stroke-width="0.25" points="750.05,243.34 748.89,240.271 749.843,240.382 
				750.313,236.375 751.539,236.518 751.07,240.526 752.024,240.637 			"/>
		</g>
		<g>
			<polygon fill="#010101" stroke="#010101" stroke-width="0.25" points="753.699,231.687 753.958,228.416 754.773,228.923 
				756.906,225.498 757.954,226.15 755.822,229.576 756.638,230.083 			"/>
		</g>
		<g>
			<polygon fill="#010101" stroke="#010101" stroke-width="0.25" points="761.949,222.25 763.174,219.206 763.8,219.934 
				766.859,217.302 767.665,218.239 764.605,220.871 765.232,221.598 			"/>
		</g>
		<g>
			<polygon fill="#010101" stroke="#010101" stroke-width="0.25" points="772.109,214.511 773.845,211.726 774.335,212.552 
				777.805,210.492 778.435,211.554 774.965,213.614 775.456,214.44 			"/>
		</g>
	</g>
</g>
<g>
	<path fill="none" d="M723.405,255.174c0,0-11.875,79.121-9.271,91.002c2.606,11.881-30.148,10.426-38.258-2.904
		c-8.111-13.324,33.036-19.99,33.036-19.99s30.795-6.928,32.462-0.582c2.897,11.014,6.375,17.393,0,19.131
		c-6.375,1.736-5.506-4.348-4.636-11.307c4.347-30.426,5.504-70.131,5.504-70.131"/>
	<g>
		<polygon fill="#010101" stroke="#010101" stroke-width="0.25" points="740.956,263.744 742.289,266.743 741.331,266.685 
			741.089,270.713 739.856,270.639 740.098,266.612 739.139,266.555 		"/>
	</g>
	<g>
		<polygon fill="#010101" stroke="#010101" stroke-width="0.25" points="740.313,276.714 741.625,279.723 740.667,279.659 
			740.396,283.685 739.165,283.603 739.435,279.577 738.476,279.513 		"/>
	</g>
	<g>
		<polygon fill="#010101" stroke="#010101" stroke-width="0.25" points="739.517,289.657 740.759,292.695 739.803,292.608 
			739.44,296.627 738.211,296.516 738.572,292.498 737.615,292.413 		"/>
	</g>
	<g>
		<polygon fill="#010101" stroke="#010101" stroke-width="0.25" points="738.552,302.616 739.794,305.654 738.838,305.567 
			738.476,309.586 737.246,309.475 737.607,305.457 736.65,305.372 		"/>
	</g>
	<g>
		<polygon fill="#010101" stroke="#010101" stroke-width="0.25" points="737.249,315.498 738.373,318.582 737.421,318.458 
			736.905,322.46 735.681,322.302 736.196,318.3 735.243,318.178 		"/>
	</g>
	<g>
		<polygon fill="#010101" stroke="#010101" stroke-width="0.25" points="735.764,328.447 736.992,331.49 736.037,331.399 
			735.657,335.417 734.428,335.3 734.807,331.283 733.851,331.194 		"/>
	</g>
	<g>
		<polygon fill="#010101" stroke="#010101" stroke-width="0.25" points="737.709,341.399 740.99,341.337 740.565,342.198 
			744.183,343.987 743.635,345.093 740.018,343.305 739.593,344.167 		"/>
	</g>
	<g>
		<polygon fill="#010101" stroke="#010101" stroke-width="0.25" points="745.448,333.64 743.431,331.051 744.375,330.875 
			743.637,326.909 744.851,326.682 745.589,330.65 746.533,330.473 		"/>
	</g>
	<g>
		<polygon fill="#010101" stroke="#010101" stroke-width="0.25" points="740.545,321.033 737.266,321.168 737.672,320.298 
			734.015,318.592 734.537,317.473 738.194,319.179 738.6,318.308 		"/>
	</g>
	<g>
		<polygon fill="#010101" stroke="#010101" stroke-width="0.25" points="727.373,319.158 724.597,320.909 724.516,319.952 
			720.495,320.292 720.391,319.062 724.411,318.721 724.329,317.764 		"/>
	</g>
	<g>
		<polygon fill="#010101" stroke="#010101" stroke-width="0.25" points="714.428,321.032 711.796,322.993 711.641,322.045 
			707.659,322.698 707.459,321.48 711.441,320.827 711.285,319.878 		"/>
	</g>
	<g>
		<polygon fill="#010101" stroke="#010101" stroke-width="0.25" points="701.62,323.62 699.118,325.744 698.903,324.808 
			694.971,325.711 694.694,324.507 698.627,323.604 698.411,322.668 		"/>
	</g>
	<g>
		<polygon fill="#010101" stroke="#010101" stroke-width="0.25" points="689.064,327.371 686.808,329.753 686.492,328.846 
			682.682,330.172 682.275,329.005 686.087,327.679 685.771,326.773 		"/>
	</g>
	<g>
		<polygon fill="#010101" stroke="#010101" stroke-width="0.25" points="676.736,333.494 676.624,336.774 675.788,336.303 
			673.811,339.821 672.733,339.215 674.711,335.698 673.873,335.228 		"/>
	</g>
	<g>
		<polygon fill="#010101" stroke="#010101" stroke-width="0.25" points="677.775,346.289 680.986,346.967 680.378,347.709 
			683.5,350.267 682.717,351.222 679.595,348.666 678.987,349.41 		"/>
	</g>
	<g>
		<polygon fill="#010101" stroke="#010101" stroke-width="0.25" points="689.158,353.066 692.353,352.316 692.118,353.247 
			696.03,354.234 695.728,355.431 691.815,354.444 691.581,355.375 		"/>
	</g>
	<g>
		<polygon fill="#010101" stroke="#010101" stroke-width="0.25" points="702.293,354.921 705.003,353.07 705.119,354.023 
			709.124,353.534 709.274,354.759 705.269,355.249 705.387,356.203 		"/>
	</g>
	<g>
		<polygon fill="#010101" stroke="#010101" stroke-width="0.25" points="714.415,349.153 713.733,345.943 714.659,346.198 
			715.73,342.307 716.921,342.634 715.851,346.525 716.776,346.779 		"/>
	</g>
	<g>
		<polygon fill="#010101" stroke="#010101" stroke-width="0.25" points="715.218,336.015 713.845,333.035 714.804,333.08 
			714.989,329.048 716.223,329.105 716.037,333.136 716.997,333.179 		"/>
	</g>
	<g>
		<polygon fill="#010101" stroke="#010101" stroke-width="0.25" points="716.097,323.114 714.875,320.067 715.83,320.16 
			716.22,316.143 717.449,316.262 717.06,320.279 718.016,320.371 		"/>
	</g>
	<g>
		<polygon fill="#010101" stroke="#010101" stroke-width="0.25" points="717.383,310.223 716.262,307.138 717.214,307.262 
			717.735,303.26 718.959,303.42 718.438,307.421 719.392,307.544 		"/>
	</g>
	<g>
		<polygon fill="#010101" stroke="#010101" stroke-width="0.25" points="718.87,297.324 717.774,294.23 718.726,294.362 
			719.278,290.365 720.502,290.534 719.949,294.531 720.9,294.662 		"/>
	</g>
	<g>
		<polygon fill="#010101" stroke="#010101" stroke-width="0.25" points="720.528,284.444 719.457,281.341 720.407,281.481 
			720.993,277.489 722.215,277.667 721.63,281.66 722.58,281.798 		"/>
	</g>
	<g>
		<polygon fill="#010101" stroke="#010101" stroke-width="0.25" points="722.258,271.577 721.217,268.464 722.165,268.613 
			722.789,264.625 724.009,264.817 723.386,268.803 724.335,268.951 		"/>
	</g>
	<g>
		<polygon fill="#010101" stroke="#010101" stroke-width="0.25" points="724.082,258.717 723.06,255.598 724.007,255.752 
			724.654,251.77 725.873,251.967 725.227,255.951 726.175,256.104 		"/>
	</g>
</g>
<g>
	<line fill="none" x1="188.453" y1="66.989" x2="249.727" y2="68.792"/>
	<g>
		<polygon fill="#010101" stroke="#010101" stroke-width="0.25" points="243.851,67.434 240.872,68.812 240.915,67.853 
			236.884,67.671 236.939,66.438 240.971,66.618 241.013,65.659 		"/>
	</g>
	<g>
		<polygon fill="#010101" stroke="#010101" stroke-width="0.25" points="230.862,67.052 227.883,68.43 227.926,67.471 
			223.895,67.289 223.95,66.056 227.981,66.236 228.023,65.277 		"/>
	</g>
	<g>
		<polygon fill="#010101" stroke="#010101" stroke-width="0.25" points="217.872,66.67 214.893,68.048 214.936,67.089 
			210.905,66.907 210.96,65.674 214.992,65.854 215.034,64.895 		"/>
	</g>
	<g>
		<polygon fill="#010101" stroke="#010101" stroke-width="0.25" points="204.883,66.288 201.904,67.665 201.947,66.706 
			197.916,66.524 197.971,65.291 202.002,65.472 202.044,64.512 		"/>
	</g>
	<g>
		<polygon fill="#010101" stroke="#010101" stroke-width="0.25" points="191.894,65.906 188.915,67.283 188.958,66.324 
			184.927,66.143 184.982,64.909 189.013,65.09 189.055,64.13 		"/>
	</g>
</g>
<g>
	<path fill="none" d="M227.546,3.232c0,0-26.444,14.758-25.538,29.189c0.904,14.428,3.797,29.547,13.679,27.357
		c3.808-1.951,8.48-4.52,11.859-7.297c5.26-7.504,9.374-12.666,3.846-17.504c-4.097-3.584-20.044,7.604-20.044,7.604"/>
	<g>
		<polygon fill="#010101" stroke="#010101" stroke-width="0.25" points="219.399,39.223 221.351,36.584 221.773,37.446 
			225.396,35.669 225.94,36.777 222.317,38.555 222.742,39.417 		"/>
	</g>
	<g>
		<polygon fill="#010101" stroke="#010101" stroke-width="0.25" points="228.777,37.018 232.016,37.548 231.442,38.318 
			234.678,40.729 233.94,41.719 230.704,39.309 230.131,40.08 		"/>
	</g>
	<g>
		<polygon fill="#010101" stroke="#010101" stroke-width="0.25" points="230.034,46.152 229.75,49.422 228.938,48.908 
			226.779,52.317 225.735,51.656 227.895,48.247 227.083,47.734 		"/>
	</g>
	<g>
		<polygon fill="#010101" stroke="#010101" stroke-width="0.25" points="221.562,54.775 219.828,57.561 219.337,56.735 
			215.868,58.796 215.237,57.735 218.707,55.673 218.215,54.848 		"/>
	</g>
	<g>
		<polygon fill="#010101" stroke="#010101" stroke-width="0.25" points="211.023,57.933 207.9,56.924 208.582,56.249 
			205.743,53.381 206.621,52.512 209.46,55.379 210.142,54.703 		"/>
	</g>
	<g>
		<polygon fill="#010101" stroke="#010101" stroke-width="0.25" points="205.479,47.191 203.327,44.714 204.26,44.488 
			203.312,40.566 204.512,40.275 205.461,44.197 206.394,43.971 		"/>
	</g>
	<g>
		<polygon fill="#010101" stroke="#010101" stroke-width="0.25" points="203.205,34.855 202.044,31.785 202.998,31.896 
			203.467,27.889 204.694,28.032 204.225,32.041 205.179,32.151 		"/>
	</g>
	<g>
		<polygon fill="#010101" stroke="#010101" stroke-width="0.25" points="206.856,23.202 207.114,19.93 207.929,20.438 
			210.062,17.012 211.11,17.664 208.978,21.09 209.794,21.597 		"/>
	</g>
	<g>
		<polygon fill="#010101" stroke="#010101" stroke-width="0.25" points="215.104,13.765 216.329,10.72 216.955,11.448 
			220.014,8.816 220.82,9.752 217.761,12.384 218.388,13.112 		"/>
	</g>
	<g>
		<polygon fill="#010101" stroke="#010101" stroke-width="0.25" points="225.263,6.025 226.999,3.239 227.488,4.065 230.958,2.005 
			231.589,3.067 228.119,5.127 228.61,5.953 		"/>
	</g>
</g>
<g>
	<line fill="none" x1="212.742" y1="95.424" x2="201.714" y2="128.506"/>
	<g>
		<polygon fill="#010101" stroke="#010101" stroke-width="0.25" points="204.568,123.687 204.107,120.437 205.014,120.755 
			206.349,116.947 207.514,117.355 206.179,121.164 207.086,121.48 		"/>
	</g>
	<g>
		<polygon fill="#010101" stroke="#010101" stroke-width="0.25" points="208.678,111.359 208.218,108.109 209.124,108.427 
			210.459,104.619 211.625,105.028 210.29,108.836 211.196,109.153 		"/>
	</g>
	<g>
		<polygon fill="#010101" stroke="#010101" stroke-width="0.25" points="212.788,99.031 212.327,95.781 213.233,96.099 
			214.569,92.291 215.734,92.7 214.399,96.508 215.306,96.825 		"/>
	</g>
</g>
<g>
	<line fill="none" x1="291.453" y1="65.989" x2="352.727" y2="67.792"/>
	<g>
		<polygon fill="#010101" stroke="#010101" stroke-width="0.25" points="346.851,66.434 343.872,67.812 343.915,66.853 
			339.884,66.671 339.939,65.438 343.971,65.618 344.013,64.659 		"/>
	</g>
	<g>
		<polygon fill="#010101" stroke="#010101" stroke-width="0.25" points="333.862,66.052 330.883,67.43 330.926,66.471 
			326.895,66.289 326.95,65.056 330.981,65.236 331.023,64.277 		"/>
	</g>
	<g>
		<polygon fill="#010101" stroke="#010101" stroke-width="0.25" points="320.872,65.67 317.893,67.048 317.937,66.089 
			313.905,65.907 313.96,64.674 317.992,64.854 318.034,63.895 		"/>
	</g>
	<g>
		<polygon fill="#010101" stroke="#010101" stroke-width="0.25" points="307.883,65.288 304.904,66.665 304.947,65.706 
			300.916,65.524 300.971,64.291 305.002,64.472 305.044,63.512 		"/>
	</g>
	<g>
		<polygon fill="#010101" stroke="#010101" stroke-width="0.25" points="294.894,64.906 291.915,66.283 291.958,65.324 
			287.927,65.143 287.982,63.909 292.013,64.09 292.055,63.13 		"/>
	</g>
</g>
<g>
	<path fill="none" d="M598.782,50.075c0,0,8.027-4.525,11.31-2.176c3.285,2.344,3.511,9.287,1.166,11.162
		c-2.344,1.871-11.854,4.955-18.423,7.771c-16.177,6.932,53.399,1.602,68.348,2.67"/>
	<g>
		<polygon fill="#010101" stroke="#010101" stroke-width="0.25" points="651.831,68.235 648.908,69.729 648.914,68.769 
			644.879,68.747 644.886,67.512 648.921,67.534 648.925,66.573 		"/>
	</g>
	<g>
		<polygon fill="#010101" stroke="#010101" stroke-width="0.25" points="638.819,68.537 635.924,70.082 635.912,69.122 
			631.877,69.171 631.861,67.936 635.896,67.886 635.884,66.926 		"/>
	</g>
	<g>
		<polygon fill="#010101" stroke="#010101" stroke-width="0.25" points="625.828,68.895 622.933,70.439 622.921,69.479 
			618.886,69.527 618.871,68.292 622.906,68.244 622.894,67.283 		"/>
	</g>
	<g>
		<polygon fill="#010101" stroke="#010101" stroke-width="0.25" points="612.87,69.183 609.934,70.647 609.948,69.688 
			605.913,69.625 605.933,68.391 609.967,68.453 609.981,67.492 		"/>
	</g>
	<g>
		<polygon fill="#010101" stroke="#010101" stroke-width="0.25" points="599.96,68.974 596.944,70.269 597.014,69.312 
			592.989,69.02 593.078,67.789 597.104,68.08 597.172,67.122 		"/>
	</g>
	<g>
		<polygon fill="#010101" stroke="#010101" stroke-width="0.25" points="594.492,67.453 596.69,65.016 597.027,65.915 
			600.806,64.499 601.239,65.655 597.461,67.072 597.799,67.971 		"/>
	</g>
	<g>
		<polygon fill="#010101" stroke="#010101" stroke-width="0.25" points="606.589,62.527 608.639,59.964 609.028,60.841 
			612.717,59.203 613.218,60.332 609.53,61.97 609.921,62.848 		"/>
	</g>
	<g>
		<polygon fill="#010101" stroke="#010101" stroke-width="0.25" points="613.144,51.628 610.572,49.589 611.448,49.195 
			609.795,45.514 610.921,45.008 612.575,48.689 613.451,48.294 		"/>
	</g>
	<g>
		<polygon fill="#010101" stroke="#010101" stroke-width="0.25" points="601.414,47.608 599.325,50.14 598.949,49.257 
			595.237,50.84 594.753,49.704 598.464,48.121 598.086,47.237 		"/>
	</g>
</g>
<g>
	<path fill="none" d="M593.58,104.932c0,0,10.88-7.006,14.125-1.865c3.244,5.141,2.885,10.227-12.026,17.518
		c-13.752,6.729-7.636-14.014-3.819-14.014"/>
	<g>
		<polygon fill="#010101" stroke="#010101" stroke-width="0.25" points="586.955,112.406 587.601,115.624 586.678,115.358 
			585.563,119.237 584.376,118.896 585.49,115.017 584.567,114.753 		"/>
	</g>
	<g>
		<polygon fill="#010101" stroke="#010101" stroke-width="0.25" points="593.313,122.503 595.62,120.168 595.916,121.082 
			599.755,119.836 600.136,121.01 596.298,122.256 596.595,123.17 		"/>
	</g>
	<g>
		<polygon fill="#010101" stroke="#010101" stroke-width="0.25" points="605.229,116.215 606.189,113.077 606.876,113.749 
			609.699,110.866 610.581,111.73 607.759,114.613 608.445,115.285 		"/>
	</g>
	<g>
		<polygon fill="#010101" stroke="#010101" stroke-width="0.25" points="608.857,103.966 605.764,102.871 606.464,102.214 
			603.706,99.269 604.607,98.425 607.366,101.37 608.066,100.712 		"/>
	</g>
	<g>
		<polygon fill="#010101" stroke="#010101" stroke-width="0.25" points="595.989,102.247 594.128,104.95 593.677,104.103 
			590.115,106 589.534,104.91 593.096,103.012 592.643,102.165 		"/>
	</g>
</g>
</svg>
