<?xml version="1.0" encoding="utf-8"?>
<!-- Generator: Adobe Illustrator 12.0.0, SVG Export Plug-In . SVG Version: 6.00 Build 51448)  -->
<!DOCTYPE svg PUBLIC "-//W3C//DTD SVG 1.1//EN" "http://www.w3.org/Graphics/SVG/1.1/DTD/svg11.dtd" [
	<!ENTITY ns_svg "http://www.w3.org/2000/svg">
	<!ENTITY ns_xlink "http://www.w3.org/1999/xlink">
]>
<svg  version="1.1" id="Layer_1" xmlns="&ns_svg;" xmlns:xlink="&ns_xlink;" width="441.262" height="504.036"
	 viewBox="0 0 441.262 504.036" overflow="visible" enable-background="new 0 0 441.262 504.036" xml:space="preserve">
<g>
	<path fill="none" d="M88.188,110.273c0,0,248.667,135.489,252.631,203.206c3.965,67.711-205.167,224.749-292.083,163.154
		c-86.915-61.587,11.901-190.819,59.193-221.654C155.258,224.156,439.843,8.437,439.843,8.437"/>
	<g>
		<polygon fill="#010101" stroke="#010101" stroke-width="1.25" points="440.189,0.757 432.899,15.458 430.061,11.586 
			413.788,23.514 410.137,18.534 426.41,6.604 423.567,2.734 		"/>
	</g>
	<g>
		<polygon fill="#010101" stroke="#010101" stroke-width="1.25" points="388.372,39.942 381.057,54.631 378.226,50.755 
			361.933,62.655 358.291,57.669 374.583,45.767 371.747,41.892 		"/>
	</g>
	<g>
		<polygon fill="#010101" stroke="#010101" stroke-width="1.25" points="336.494,79.05 329.156,93.727 326.331,89.847 
			310.018,101.72 306.384,96.728 322.695,84.853 319.865,80.973 		"/>
	</g>
	<g>
		<polygon fill="#010101" stroke="#010101" stroke-width="1.25" points="284.552,118.062 277.181,132.722 274.365,128.835 
			258.026,140.672 254.403,135.672 270.741,123.833 267.919,119.947 		"/>
	</g>
	<g>
		<polygon fill="#010101" stroke="#010101" stroke-width="1.25" points="232.517,156.948 225.114,171.593 222.306,167.7 
			205.941,179.5 202.33,174.492 218.693,162.689 215.88,158.797 		"/>
	</g>
	<g>
		<polygon fill="#010101" stroke="#010101" stroke-width="1.25" points="180.35,195.633 172.863,210.234 170.078,206.325 
			153.646,218.033 150.063,213.004 166.494,201.295 163.703,197.386 		"/>
	</g>
	<g>
		<polygon fill="#010101" stroke="#010101" stroke-width="1.25" points="127.947,233.819 120.143,248.254 117.444,244.285 
			100.759,255.63 97.287,250.524 113.97,239.178 111.266,235.209 		"/>
	</g>
	<g>
		<polygon fill="#010101" stroke="#010101" stroke-width="1.25" points="75.771,274.66 71.557,290.52 68.005,287.292 
			54.435,302.224 49.866,298.071 63.434,283.138 59.876,279.912 		"/>
	</g>
	<g>
		<polygon fill="#010101" stroke="#010101" stroke-width="1.25" points="35.587,327.307 35.138,343.71 30.938,341.386 
			21.17,359.041 15.768,356.052 25.533,338.396 21.328,336.075 		"/>
	</g>
	<g>
		<polygon fill="#010101" stroke="#010101" stroke-width="1.25" points="11.062,389.396 16.804,404.769 12.039,404.191 
			9.614,424.222 3.484,423.479 5.907,403.449 1.139,402.877 		"/>
	</g>
	<g>
		<polygon fill="#010101" stroke="#010101" stroke-width="1.25" points="23.287,454.257 37.452,462.541 33.395,465.105 
			44.175,482.16 38.956,485.459 28.174,468.405 24.117,470.976 		"/>
	</g>
	<g>
		<polygon fill="#010101" stroke="#010101" stroke-width="1.25" points="77.434,491.559 93.326,487.474 92.249,492.15 
			111.911,496.679 110.525,502.696 90.863,498.17 89.79,502.852 		"/>
	</g>
	<g>
		<polygon fill="#010101" stroke="#010101" stroke-width="1.25" points="144.244,488.89 156.076,477.519 157.437,482.122 
			176.785,476.399 178.536,482.32 159.189,488.045 160.556,492.648 		"/>
	</g>
	<g>
		<polygon fill="#010101" stroke="#010101" stroke-width="1.25" points="205.275,463.633 214.475,450.044 216.766,454.262 
			234.495,444.629 237.443,450.055 219.715,459.689 222.012,463.906 		"/>
	</g>
	<g>
		<polygon fill="#010101" stroke="#010101" stroke-width="1.25" points="260.719,428.177 267.634,413.295 270.569,417.094 
			286.535,404.758 290.31,409.644 274.346,421.981 277.287,425.778 		"/>
	</g>
	<g>
		<polygon fill="#010101" stroke="#010101" stroke-width="1.25" points="309.418,383.774 313.588,367.903 317.149,371.122 
			330.677,356.153 335.258,360.293 321.732,375.264 325.298,378.479 		"/>
	</g>
	<g>
		<polygon fill="#010101" stroke="#010101" stroke-width="1.25" points="346.173,325.362 337.867,311.211 342.66,310.957 
			341.594,290.809 347.76,290.482 348.828,310.631 353.624,310.372 		"/>
	</g>
	<g>
		<polygon fill="#010101" stroke="#010101" stroke-width="1.25" points="318.263,264.919 302.928,259.078 306.508,255.881 
			293.071,240.831 297.676,236.719 311.116,251.767 314.695,248.564 		"/>
	</g>
	<g>
		<polygon fill="#010101" stroke="#010101" stroke-width="1.25" points="269.702,220.542 253.634,217.208 256.662,213.483 
			241.006,200.756 244.901,195.965 260.558,208.69 263.583,204.961 		"/>
	</g>
	<g>
		<polygon fill="#010101" stroke="#010101" stroke-width="1.25" points="216.762,182.208 200.502,179.998 203.264,176.072 
			186.762,164.463 190.314,159.413 206.818,171.02 209.577,167.089 		"/>
	</g>
	<g>
		<polygon fill="#010101" stroke="#010101" stroke-width="1.25" points="162.017,146.71 145.669,145.292 148.237,141.236 
			131.191,130.441 134.495,125.225 151.542,136.018 154.106,131.958 		"/>
	</g>
	<g>
		<polygon fill="#010101" stroke="#010101" stroke-width="1.25" points="105.961,113.335 89.566,112.64 91.953,108.475 
			74.447,98.443 77.518,93.085 95.024,103.116 97.408,98.946 		"/>
	</g>
</g>
</svg>
