<?xml version="1.0" encoding="utf-8"?>
<!-- Generator: Adobe Illustrator 12.0.0, SVG Export Plug-In . SVG Version: 6.00 Build 51448)  -->
<!DOCTYPE svg PUBLIC "-//W3C//DTD SVG 1.1//EN" "http://www.w3.org/Graphics/SVG/1.1/DTD/svg11.dtd" [
	<!ENTITY ns_svg "http://www.w3.org/2000/svg">
	<!ENTITY ns_xlink "http://www.w3.org/1999/xlink">
]>
<svg  version="1.1" id="Layer_1" xmlns="&ns_svg;" xmlns:xlink="&ns_xlink;" width="236.294" height="602.987"
	 viewBox="0 0 236.294 602.987" overflow="visible" enable-background="new 0 0 236.294 602.987" xml:space="preserve">
<g>
	<g>
		<path fill="none" d="M163.935,19.902c13.99,98.846,44.587,93.996,55.147,190.786c84.715,103.633-169.29-109.212-198.502-33.669
			C-8.634,252.561-0.867,264.352,13.227,373.4c14.11,109.048,91.909,218.828,91.909,218.828"/>
		<g>
			<polygon fill="#010101" stroke="#010101" stroke-width="1.25" points="118.9,601.879 104.569,593.888 108.573,591.24 
				97.446,574.409 102.597,571.004 113.725,587.834 117.729,585.181 			"/>
		</g>
		<g>
			<polygon fill="#010101" stroke="#010101" stroke-width="1.25" points="84.27,547.636 70.808,538.252 75.056,536.019 
				65.666,518.16 71.131,515.286 80.523,533.144 84.771,530.903 			"/>
		</g>
		<g>
			<polygon fill="#010101" stroke="#010101" stroke-width="1.25" points="55.286,490.081 42.646,479.616 47.065,477.741 
				39.185,459.167 44.868,456.756 52.751,475.328 57.17,473.448 			"/>
		</g>
		<g>
			<polygon fill="#010101" stroke="#010101" stroke-width="1.25" points="32.4,430.071 21.039,418.23 25.643,416.873 
				19.937,397.521 25.859,395.773 31.568,415.126 36.173,413.763 			"/>
		</g>
		<g>
			<polygon fill="#010101" stroke="#010101" stroke-width="1.25" points="18.436,367.729 9.218,354.154 13.984,353.587 
				11.599,333.552 17.729,332.821 20.118,352.855 24.886,352.283 			"/>
		</g>
		<g>
			<polygon fill="#010101" stroke="#010101" stroke-width="1.25" points="10,303.445 1.083,289.67 5.86,289.208 3.916,269.125 
				10.062,268.53 12.009,288.612 16.788,288.144 			"/>
		</g>
		<g>
			<polygon fill="#010101" stroke="#010101" stroke-width="1.25" points="8.286,240.558 3.962,224.728 8.655,225.735 
				12.887,206.007 18.924,207.303 14.695,227.03 19.391,228.033 			"/>
		</g>
		<g>
			<polygon fill="#010101" stroke="#010101" stroke-width="1.25" points="28.207,182.005 29.362,165.636 33.458,168.139 
				43.978,150.921 49.247,154.141 38.729,171.359 42.83,173.858 			"/>
		</g>
		<g>
			<polygon fill="#010101" stroke="#010101" stroke-width="1.25" points="76.567,171.547 92.873,169.702 91.158,174.185 
				110.003,181.393 107.798,187.16 88.952,179.955 87.241,184.442 			"/>
		</g>
		<g>
			<polygon fill="#010101" stroke="#010101" stroke-width="1.25" points="135.481,196.816 151.887,197.183 149.584,201.394 
				167.288,211.073 164.326,216.491 146.621,206.814 144.322,211.03 			"/>
		</g>
		<g>
			<polygon fill="#010101" stroke="#010101" stroke-width="1.25" points="192.609,227.807 209.015,228.103 206.731,232.324 
				224.476,241.926 221.538,247.356 203.792,237.757 201.511,241.983 			"/>
		</g>
		<g>
			<polygon fill="#010101" stroke="#010101" stroke-width="1.25" points="230.443,219.525 217.986,208.844 222.437,207.045 
				214.876,188.339 220.601,186.025 228.164,204.731 232.614,202.927 			"/>
		</g>
		<g>
			<polygon fill="#010101" stroke="#010101" stroke-width="1.25" points="215.062,157.193 203.451,145.598 208.025,144.142 
				201.906,124.916 207.791,123.043 213.912,142.269 218.486,140.807 			"/>
		</g>
		<g>
			<polygon fill="#010101" stroke="#010101" stroke-width="1.25" points="190.131,97.119 178.313,85.734 182.86,84.196 
				176.396,65.083 182.245,63.105 188.711,82.217 193.259,80.674 			"/>
		</g>
		<g>
			<polygon fill="#010101" stroke="#010101" stroke-width="1.25" points="172.908,35.546 162.992,22.471 167.722,21.655 
				164.291,1.772 170.375,0.722 173.809,20.604 178.541,19.783 			"/>
		</g>
	</g>
</g>
</svg>
