<?xml version="1.0" encoding="utf-8"?>
<!-- Generator: Adobe Illustrator 12.0.0, SVG Export Plug-In . SVG Version: 6.00 Build 51448)  -->
<!DOCTYPE svg PUBLIC "-//W3C//DTD SVG 1.1//EN" "http://www.w3.org/Graphics/SVG/1.1/DTD/svg11.dtd" [
	<!ENTITY ns_svg "http://www.w3.org/2000/svg">
	<!ENTITY ns_xlink "http://www.w3.org/1999/xlink">
]>
<svg  version="1.1" id="Layer_1" xmlns="&ns_svg;" xmlns:xlink="&ns_xlink;" width="325.087" height="596.258"
	 viewBox="0 0 325.087 596.258" overflow="visible" enable-background="new 0 0 325.087 596.258" xml:space="preserve">
<g>
	<path fill="none" d="M141.857,187.929c0,0,86.559,156.53,82.405,214.188c-4.134,57.712-41.203,206.028-102.997,177.162
		c-61.79-28.852-135.993-131.811-94.762-201.88c41.198-70.016,243.092-210.045,271.909-267.762
		c28.843-57.713,41.203-78.29-20.592-103.009c-61.79-24.719-111.252,24.719-144.2,65.932
		c-32.972,41.215,12.361,90.653,12.361,90.653"/>
	<g>
		<polygon fill="#010101" stroke="#010101" stroke-width="1.25" points="130.115,127.515 121.179,113.752 125.956,113.283 
			123.984,93.203 130.129,92.6 132.104,112.679 136.882,112.205 		"/>
	</g>
	<g>
		<polygon fill="#010101" stroke="#010101" stroke-width="1.25" points="142.498,71.271 146.457,55.346 150.06,58.517 
			163.389,43.369 168.024,47.448 154.698,62.597 158.306,65.766 		"/>
	</g>
	<g>
		<polygon fill="#010101" stroke="#010101" stroke-width="1.25" points="186.958,26.821 196.001,13.128 198.341,17.32 
			215.958,7.486 218.968,12.877 201.352,22.713 203.696,26.904 		"/>
	</g>
	<g>
		<polygon fill="#010101" stroke="#010101" stroke-width="1.25" points="243.851,8.1 258.853,1.448 258.562,6.239 278.7,7.462 
			278.326,13.626 258.188,12.405 257.901,17.199 		"/>
	</g>
	<g>
		<polygon fill="#010101" stroke="#010101" stroke-width="1.25" points="302.961,21.645 317.236,29.737 313.214,32.356 
			324.222,49.265 319.047,52.634 308.037,35.727 304.015,38.351 		"/>
	</g>
	<g>
		<polygon fill="#010101" stroke="#010101" stroke-width="1.25" points="307.828,75.707 308.517,92.102 304.166,90.075 
			295.646,108.363 290.049,105.756 298.566,87.466 294.212,85.443 		"/>
	</g>
	<g>
		<polygon fill="#010101" stroke="#010101" stroke-width="1.25" points="276.404,129.906 271.579,145.59 268.155,142.227 
			254.018,156.622 249.612,152.295 263.748,137.898 260.318,134.537 		"/>
	</g>
	<g>
		<polygon fill="#010101" stroke="#010101" stroke-width="1.25" points="230.668,175.37 224.65,190.636 221.495,187.019 
			206.291,200.283 202.232,195.63 217.434,182.365 214.273,178.749 		"/>
	</g>
	<g>
		<polygon fill="#010101" stroke="#010101" stroke-width="1.25" points="181.957,218.214 175.668,233.371 172.578,229.698 
			157.14,242.689 153.165,237.965 168.6,224.972 165.504,221.301 		"/>
	</g>
	<g>
		<polygon fill="#010101" stroke="#010101" stroke-width="1.25" points="132.841,260.799 126.635,275.99 123.524,272.334 
			108.157,285.408 104.156,280.705 119.522,267.629 116.406,263.975 		"/>
	</g>
	<g>
		<polygon fill="#010101" stroke="#010101" stroke-width="1.25" points="84.423,304.364 78.649,319.724 75.437,316.158 
			60.445,329.662 56.313,325.074 71.302,311.568 68.084,308.004 		"/>
	</g>
	<g>
		<polygon fill="#010101" stroke="#010101" stroke-width="1.25" points="38.382,351.621 35.454,367.768 31.654,364.834 
			19.325,380.806 14.437,377.032 26.764,361.06 22.96,358.129 		"/>
	</g>
	<g>
		<polygon fill="#010101" stroke="#010101" stroke-width="1.25" points="10.031,412.56 16.861,427.48 12.067,427.247 
			11.084,447.399 4.917,447.099 5.897,426.946 1.101,426.718 		"/>
	</g>
	<g>
		<polygon fill="#010101" stroke="#010101" stroke-width="1.25" points="21.791,478.273 34.486,488.67 30.078,490.568 38.058,509.1 
			32.386,511.542 24.404,493.012 19.996,494.916 		"/>
	</g>
	<g>
		<polygon fill="#010101" stroke="#010101" stroke-width="1.25" points="57.087,534.499 72.289,540.679 68.638,543.796 
			81.739,559.14 77.043,563.149 63.941,547.807 60.292,550.929 		"/>
	</g>
	<g>
		<polygon fill="#010101" stroke="#010101" stroke-width="1.25" points="107.552,579.636 123.869,577.895 122.126,582.367 
			140.924,589.695 138.682,595.448 119.883,588.122 118.143,592.599 		"/>
	</g>
	<g>
		<polygon fill="#010101" stroke="#010101" stroke-width="1.25" points="172.633,569.713 175.834,553.619 179.584,556.615 
			192.182,540.855 197.005,544.711 184.409,560.473 188.163,563.467 		"/>
	</g>
	<g>
		<polygon fill="#010101" stroke="#010101" stroke-width="1.25" points="204.558,511.659 202.902,495.333 207.365,497.1 
			214.791,478.34 220.532,480.612 213.108,499.373 217.576,501.136 		"/>
	</g>
	<g>
		<polygon fill="#010101" stroke="#010101" stroke-width="1.25" points="223.224,448.429 218.704,432.654 223.409,433.603 
			227.397,413.824 233.45,415.044 229.464,434.823 234.173,435.768 		"/>
	</g>
	<g>
		<polygon fill="#010101" stroke="#010101" stroke-width="1.25" points="227.784,382.225 218.193,368.909 222.942,368.21 
			220.002,348.249 226.111,347.349 229.053,367.31 233.804,366.604 		"/>
	</g>
	<g>
		<polygon fill="#010101" stroke="#010101" stroke-width="1.25" points="209.749,318.793 197.684,307.67 202.196,306.033 
			195.315,287.066 201.12,284.96 208.003,303.927 212.516,302.284 		"/>
	</g>
	<g>
		<polygon fill="#010101" stroke="#010101" stroke-width="1.25" points="184.106,258.637 171.227,248.469 175.601,246.492 
			167.291,228.106 172.917,225.563 181.229,243.947 185.603,241.965 		"/>
	</g>
	<g>
		<polygon fill="#010101" stroke="#010101" stroke-width="1.25" points="155.196,200.068 141.748,190.665 146,188.437 
			136.636,170.565 142.105,167.699 151.471,185.57 155.722,183.337 		"/>
	</g>
</g>
</svg>
