<?xml version="1.0" encoding="utf-8"?>
<!-- Generator: Adobe Illustrator 12.0.0, SVG Export Plug-In . SVG Version: 6.00 Build 51448)  -->
<!DOCTYPE svg PUBLIC "-//W3C//DTD SVG 1.1//EN" "http://www.w3.org/Graphics/SVG/1.1/DTD/svg11.dtd" [
	<!ENTITY ns_svg "http://www.w3.org/2000/svg">
	<!ENTITY ns_xlink "http://www.w3.org/1999/xlink">
]>
<svg  version="1.1" id="Layer_1" xmlns="&ns_svg;" xmlns:xlink="&ns_xlink;" width="272.429" height="590.759"
	 viewBox="0 0 272.429 590.759" overflow="visible" enable-background="new 0 0 272.429 590.759" xml:space="preserve">
<g>
	<path fill="none" d="M168.262,12.838c0,0-181.476,231.192-57.597,417.694c57.068,48.136,12.687,162.606-86.428,144.048
		c-56.166-40.998,130.681-204.461,224.059-142.586c93.394,61.881-123.236-191.402-61.88-138.934"/>
	<g>
		<polygon fill="#010101" stroke="#010101" stroke-width="1.25" points="177.433,303.071 191.771,311.053 187.768,313.703 
			198.907,330.526 193.758,333.935 182.618,317.113 178.617,319.768 		"/>
	</g>
	<g>
		<polygon fill="#010101" stroke="#010101" stroke-width="1.25" points="215.092,356.126 229.55,363.888 225.589,366.599 
			236.985,383.25 231.889,386.737 220.492,370.087 216.532,372.804 		"/>
	</g>
	<g>
		<polygon fill="#010101" stroke="#010101" stroke-width="1.25" points="251.289,409.634 265.272,418.22 261.161,420.697 
			271.572,437.979 266.284,441.166 255.87,423.884 251.759,426.367 		"/>
	</g>
	<g>
		<polygon fill="#010101" stroke="#010101" stroke-width="1.25" points="249.083,425.938 232.731,427.301 234.578,422.871 
			215.954,415.109 218.329,409.41 236.954,417.168 238.796,412.734 		"/>
	</g>
	<g>
		<polygon fill="#010101" stroke="#010101" stroke-width="1.25" points="183.875,415.32 170.066,424.185 169.622,419.406 
			149.532,421.274 148.96,415.125 169.05,413.255 168.6,408.474 		"/>
	</g>
	<g>
		<polygon fill="#010101" stroke="#010101" stroke-width="1.25" points="119.73,433.734 110.325,447.18 108.098,442.928 
			90.225,452.29 87.36,446.82 105.232,437.457 103,433.205 		"/>
	</g>
	<g>
		<polygon fill="#010101" stroke="#010101" stroke-width="1.25" points="63.767,469.584 58.113,484.99 54.873,481.449 
			39.988,495.07 35.82,490.514 50.703,476.892 47.457,473.352 		"/>
	</g>
	<g>
		<polygon fill="#010101" stroke="#010101" stroke-width="1.25" points="20.644,520.017 20.208,536.42 16.007,534.1 6.254,551.763 
			0.849,548.779 10.599,531.115 6.393,528.798 		"/>
	</g>
	<g>
		<polygon fill="#010101" stroke="#010101" stroke-width="1.25" points="31.673,580.742 46.588,573.898 46.359,578.693 
			66.512,579.657 66.217,585.824 46.064,584.863 45.839,589.66 		"/>
	</g>
	<g>
		<polygon fill="#010101" stroke="#010101" stroke-width="1.25" points="97.424,566.721 104.836,552.081 107.642,555.975 
			124.014,544.184 127.622,549.195 111.251,560.988 114.062,564.881 		"/>
	</g>
	<g>
		<polygon fill="#010101" stroke="#010101" stroke-width="1.25" points="137.599,512.398 132.929,496.667 137.643,497.571 
			141.442,477.755 147.506,478.917 143.709,498.733 148.427,499.632 		"/>
	</g>
	<g>
		<polygon fill="#010101" stroke="#010101" stroke-width="1.25" points="129.847,444.906 114.932,438.064 118.716,435.111 
			106.303,419.205 111.17,415.406 123.585,431.31 127.368,428.351 		"/>
	</g>
	<g>
		<polygon fill="#010101" stroke="#010101" stroke-width="1.25" points="96.162,391.702 83.899,380.796 88.381,379.079 
			81.162,360.238 86.928,358.029 94.149,376.869 98.632,375.145 		"/>
	</g>
	<g>
		<polygon fill="#010101" stroke="#010101" stroke-width="1.25" points="77.531,331.36 68.874,317.42 73.659,317.047 
			72.092,296.932 78.248,296.452 79.817,316.567 84.605,316.189 		"/>
	</g>
	<g>
		<polygon fill="#010101" stroke="#010101" stroke-width="1.25" points="74.598,267.568 68.267,252.429 73.05,252.822 74.7,232.713 
			80.854,233.218 79.207,253.327 83.993,253.714 		"/>
	</g>
	<g>
		<polygon fill="#010101" stroke="#010101" stroke-width="1.25" points="83.514,204.476 80.088,188.427 84.717,189.697 
			90.053,170.239 96.008,171.872 90.674,191.33 95.307,192.596 		"/>
	</g>
	<g>
		<polygon fill="#010101" stroke="#010101" stroke-width="1.25" points="102.878,143.397 101.743,127.027 106.147,128.935 
			114.167,110.42 119.833,112.875 111.816,131.389 116.225,133.293 		"/>
	</g>
	<g>
		<polygon fill="#010101" stroke="#010101" stroke-width="1.25" points="130.071,85.122 130.586,68.721 134.777,71.061 
			144.616,53.447 150.007,56.458 140.17,74.073 144.365,76.411 		"/>
	</g>
	<g>
		<polygon fill="#010101" stroke="#010101" stroke-width="1.25" points="162.755,30.013 165.725,13.875 169.517,16.817 
			181.886,0.877 186.764,4.662 174.397,20.604 178.194,23.544 		"/>
	</g>
</g>
</svg>
