<?xml version="1.0" encoding="utf-8"?>
<!-- Generator: Adobe Illustrator 12.0.0, SVG Export Plug-In . SVG Version: 6.00 Build 51448)  -->
<!DOCTYPE svg PUBLIC "-//W3C//DTD SVG 1.1//EN" "http://www.w3.org/Graphics/SVG/1.1/DTD/svg11.dtd" [
	<!ENTITY ns_svg "http://www.w3.org/2000/svg">
	<!ENTITY ns_xlink "http://www.w3.org/1999/xlink">
]>
<svg  version="1.1" id="Layer_1" xmlns="&ns_svg;" xmlns:xlink="&ns_xlink;" width="423.313" height="559.909"
	 viewBox="0 0 423.313 559.909" overflow="visible" enable-background="new 0 0 423.313 559.909" xml:space="preserve">
<g>
	<path fill="none" d="M20.102,91.515c0,0,77.578-90.011,164.396-77.592c86.816,12.42,49.586,164.401-34.163,217.179
		c-83.784,52.749-99.232,55.817-124.049,164.4C1.452,504.095,23.159,535.058,128.628,556.774
		c105.456,21.71,294.686-77.521,294.686-77.521"/>
	<g>
		<polygon fill="#010101" stroke="#010101" stroke-width="1.25" points="397.636,485.259 387.367,498.058 385.424,493.669 
			366.975,501.835 364.476,496.189 382.924,488.021 380.976,483.631 		"/>
	</g>
	<g>
		<polygon fill="#010101" stroke="#010101" stroke-width="1.25" points="338.373,510.942 327.329,523.08 325.663,518.578 
			306.741,525.583 304.598,519.792 323.518,512.786 321.846,508.284 		"/>
	</g>
	<g>
		<polygon fill="#010101" stroke="#010101" stroke-width="1.25" points="277.52,532.329 265.618,543.626 264.285,539.015 
			244.902,544.618 243.188,538.686 262.569,533.081 261.231,528.469 		"/>
	</g>
	<g>
		<polygon fill="#010101" stroke="#010101" stroke-width="1.25" points="215.688,548.948 202.095,558.14 201.536,553.373 
			181.497,555.721 180.778,549.588 200.817,547.238 200.253,542.468 		"/>
	</g>
	<g>
		<polygon fill="#010101" stroke="#010101" stroke-width="1.25" points="152.336,553.004 137.043,558.954 137.555,554.181 
			117.494,552.028 118.153,545.889 138.214,548.04 138.722,543.264 		"/>
	</g>
	<g>
		<polygon fill="#010101" stroke="#010101" stroke-width="1.25" points="90.425,539.85 74.192,542.252 75.752,537.713 
			56.671,531.157 58.677,525.317 77.759,531.872 79.315,527.329 		"/>
	</g>
	<g>
		<polygon fill="#010101" stroke="#010101" stroke-width="1.25" points="38.287,510.62 24.175,502.247 28.248,499.708 
			17.576,482.584 22.816,479.319 33.49,496.44 37.563,493.896 		"/>
	</g>
	<g>
		<polygon fill="#010101" stroke="#010101" stroke-width="1.25" points="22.965,453.115 17.306,437.711 22.068,438.314 
			24.601,418.297 30.727,419.073 28.196,439.089 32.961,439.688 		"/>
	</g>
	<g>
		<polygon fill="#010101" stroke="#010101" stroke-width="1.25" points="33.801,389.936 30.319,373.901 34.952,375.154 
			40.22,355.677 46.18,357.29 40.915,376.766 45.552,378.015 		"/>
	</g>
	<g>
		<polygon fill="#010101" stroke="#010101" stroke-width="1.25" points="52.887,329.062 52.025,312.675 56.397,314.656 
			64.724,296.278 70.348,298.827 62.023,317.206 66.4,319.182 		"/>
	</g>
	<g>
		<polygon fill="#010101" stroke="#010101" stroke-width="1.25" points="88.28,279.378 95.682,264.732 98.49,268.625 
			114.854,256.823 118.466,261.831 102.104,273.635 104.917,277.527 		"/>
	</g>
	<g>
		<polygon fill="#010101" stroke="#010101" stroke-width="1.25" points="142.413,243.762 150.141,229.286 152.861,233.241 
			169.484,221.807 172.984,226.894 156.361,238.33 159.087,242.284 		"/>
	</g>
	<g>
		<polygon fill="#010101" stroke="#010101" stroke-width="1.25" points="193.724,200.787 196.158,184.559 200.046,187.374 
			211.881,171.034 216.882,174.656 205.048,190.997 208.94,193.81 		"/>
	</g>
	<g>
		<polygon fill="#010101" stroke="#010101" stroke-width="1.25" points="226.236,143.126 224.641,126.794 229.097,128.577 
			236.592,109.845 242.324,112.138 234.832,130.872 239.293,132.651 		"/>
	</g>
	<g>
		<polygon fill="#010101" stroke="#010101" stroke-width="1.25" points="240.619,76.768 230.855,63.579 235.595,62.818 
			232.396,42.897 238.491,41.917 241.693,61.838 246.435,61.072 		"/>
	</g>
	<g>
		<polygon fill="#010101" stroke="#010101" stroke-width="1.25" points="208.645,16.492 192.334,18.299 194.06,13.82 175.23,6.57 
			177.449,0.808 196.278,8.056 198,3.572 		"/>
	</g>
	<g>
		<polygon fill="#010101" stroke="#010101" stroke-width="1.25" points="141.663,9.959 129.498,20.973 128.274,16.331 
			108.765,21.475 107.19,15.504 126.699,10.358 125.47,5.716 		"/>
	</g>
	<g>
		<polygon fill="#010101" stroke="#010101" stroke-width="1.25" points="80.73,35.304 71.82,49.083 69.44,44.916 51.918,54.919 
			48.856,49.558 66.377,39.551 63.991,35.383 		"/>
	</g>
	<g>
		<polygon fill="#010101" stroke="#010101" stroke-width="1.25" points="27.281,74.967 22.731,90.733 19.248,87.431 5.364,102.07 
			0.884,97.821 14.766,83.18 11.278,79.879 		"/>
	</g>
</g>
</svg>
