<?xml version="1.0" encoding="utf-8"?>
<!-- Generator: Adobe Illustrator 12.0.0, SVG Export Plug-In . SVG Version: 6.00 Build 51448)  -->
<!DOCTYPE svg PUBLIC "-//W3C//DTD SVG 1.1//EN" "http://www.w3.org/Graphics/SVG/1.1/DTD/svg11.dtd" [
	<!ENTITY ns_svg "http://www.w3.org/2000/svg">
	<!ENTITY ns_xlink "http://www.w3.org/1999/xlink">
]>
<svg  version="1.1" id="Layer_1" xmlns="&ns_svg;" xmlns:xlink="&ns_xlink;" width="323.649" height="490.759"
	 viewBox="0 0 323.649 490.759" overflow="visible" enable-background="new 0 0 323.649 490.759" xml:space="preserve">
<g>
	<path fill="none" d="M270.744,121.25c0,0-72.92-93.194-109.385-113.432C124.89-12.424,15.496,121.25,3.344,214.465
		c-12.156,93.229,25.864,200.37,110.978,232.81c85.104,32.452,151.304,56.247,204,36"/>
	<g>
		<polygon fill="#010101" stroke="#010101" stroke-width="1.25" points="322.357,476.354 309.535,486.596 308.6,481.888 
			288.81,485.816 287.607,479.76 307.397,475.829 306.457,471.119 		"/>
	</g>
	<g>
		<polygon fill="#010101" stroke="#010101" stroke-width="1.25" points="260.303,483.832 244.785,489.164 245.488,484.416 
			225.529,481.461 226.433,475.353 246.392,478.306 247.091,473.555 		"/>
	</g>
	<g>
		<polygon fill="#010101" stroke="#010101" stroke-width="1.25" points="197.939,470.427 181.715,472.886 183.259,468.341 
			164.156,461.849 166.143,456.003 185.247,462.492 186.787,457.943 		"/>
	</g>
	<g>
		<polygon fill="#010101" stroke="#010101" stroke-width="1.25" points="136.781,449.309 120.464,451.056 122.206,446.582 
			103.405,439.261 105.646,433.507 124.447,440.826 126.185,436.35 		"/>
	</g>
	<g>
		<polygon fill="#010101" stroke="#010101" stroke-width="1.25" points="81.851,419.656 65.769,416.393 68.78,412.654 
			53.068,399.997 56.942,395.188 72.655,407.845 75.664,404.102 		"/>
	</g>
	<g>
		<polygon fill="#010101" stroke="#010101" stroke-width="1.25" points="40.519,373.46 26.865,364.357 31.066,362.035 
			21.309,344.376 26.713,341.39 36.473,359.048 40.674,356.721 		"/>
	</g>
	<g>
		<polygon fill="#010101" stroke="#010101" stroke-width="1.25" points="16.174,315.548 5.765,302.862 10.46,301.865 6.271,282.129 
			12.311,280.847 16.502,300.582 21.199,299.58 		"/>
	</g>
	<g>
		<polygon fill="#010101" stroke="#010101" stroke-width="1.25" points="7.714,252.909 0.991,237.94 5.784,238.208 6.91,218.063 
			13.075,218.408 11.951,238.553 16.746,238.816 		"/>
	</g>
	<g>
		<polygon fill="#010101" stroke="#010101" stroke-width="1.25" points="15.266,190.292 12.609,174.099 17.172,175.587 
			23.43,156.406 29.3,158.32 23.044,177.502 27.612,178.987 		"/>
	</g>
	<g>
		<polygon fill="#010101" stroke="#010101" stroke-width="1.25" points="38.938,131.353 40.056,114.981 44.158,117.474 
			54.637,100.232 59.914,103.439 49.437,120.682 53.543,123.172 		"/>
	</g>
	<g>
		<polygon fill="#010101" stroke="#010101" stroke-width="1.25" points="74.094,77.742 77.409,61.671 81.137,64.694 93.846,49.024 
			98.642,52.913 85.935,68.585 89.668,71.606 		"/>
	</g>
	<g>
		<polygon fill="#010101" stroke="#010101" stroke-width="1.25" points="117.094,31.18 124.113,16.348 127.021,20.166 
			143.074,7.943 146.814,12.855 130.764,25.081 133.677,28.898 		"/>
	</g>
	<g>
		<polygon fill="#010101" stroke="#010101" stroke-width="1.25" points="166.782,18.712 182.78,22.367 179.678,26.03 
			195.076,39.068 191.086,43.78 175.687,30.744 172.587,34.413 		"/>
	</g>
	<g>
		<polygon fill="#010101" stroke="#010101" stroke-width="1.25" points="213.128,62.903 228.449,68.783 224.861,71.971 
			238.26,87.055 233.644,91.156 220.243,76.073 216.656,79.267 		"/>
	</g>
	<g>
		<polygon fill="#010101" stroke="#010101" stroke-width="1.25" points="255.515,111.588 270.38,118.537 266.576,121.463 
			278.875,137.458 273.98,141.222 261.679,125.229 257.875,128.16 		"/>
	</g>
</g>
<g>
	<line fill="none" x1="246.461" y1="19.842" x2="268.182" y2="140.707"/>
	<g>
		<polygon fill="#010101" stroke="#010101" stroke-width="1.25" points="266.801,99.515 256.999,86.355 261.736,85.58 
			258.476,65.669 264.569,64.671 267.832,84.582 272.57,83.801 		"/>
	</g>
	<g>
		<polygon fill="#010101" stroke="#010101" stroke-width="1.25" points="255.307,35.562 245.504,22.402 250.242,21.627 
			246.982,1.716 253.075,0.718 256.337,20.629 261.076,19.848 		"/>
	</g>
</g>
</svg>
