<?xml version="1.0" encoding="utf-8"?>
<!-- Generator: Adobe Illustrator 12.0.0, SVG Export Plug-In . SVG Version: 6.00 Build 51448)  -->
<!DOCTYPE svg PUBLIC "-//W3C//DTD SVG 1.1//EN" "http://www.w3.org/Graphics/SVG/1.1/DTD/svg11.dtd" [
	<!ENTITY ns_svg "http://www.w3.org/2000/svg">
	<!ENTITY ns_xlink "http://www.w3.org/1999/xlink">
]>
<svg  version="1.1" id="Layer_1" xmlns="&ns_svg;" xmlns:xlink="&ns_xlink;" width="637.981" height="583.056"
	 viewBox="0 0 637.981 583.056" overflow="visible" enable-background="new 0 0 637.981 583.056" xml:space="preserve">
<g>
	<path fill="none" d="M297.314,18.164c0,0-29.419,526.209-112.206,550.209c-24.028-2.664-64.099,2.679-160.27-10.699
		c-61.4-101.471,136.242-168.271,136.242-168.271l424.693,13.392c0,0,56.106,13.298,34.729,77.43
		c-21.37,64.148-205.688,88.148-219.017,88.148c-13.343,0,42.715-534.166,42.715-534.166"/>
	<g>
		<polygon fill="#010101" stroke="#010101" stroke-width="1.25" points="439.354,23.608 445.116,38.973 440.35,38.402 
			437.952,58.435 431.821,57.701 434.217,37.667 429.448,37.102 		"/>
	</g>
	<g>
		<polygon fill="#010101" stroke="#010101" stroke-width="1.25" points="432.688,88.253 438.49,103.603 433.722,103.044 
			431.375,123.084 425.242,122.366 427.587,102.326 422.817,101.772 		"/>
	</g>
	<g>
		<polygon fill="#010101" stroke="#010101" stroke-width="1.25" points="426.181,152.918 432.016,168.255 427.248,167.707 
			424.944,187.751 418.81,187.046 421.111,167.002 416.339,166.458 		"/>
	</g>
	<g>
		<polygon fill="#010101" stroke="#010101" stroke-width="1.25" points="419.839,217.595 425.717,232.916 420.948,232.381 
			418.7,252.432 412.564,251.745 414.809,231.693 410.036,231.164 		"/>
	</g>
	<g>
		<polygon fill="#010101" stroke="#010101" stroke-width="1.25" points="413.683,282.295 419.599,297.601 414.828,297.078 
			412.629,317.134 406.492,316.461 408.687,296.405 403.913,295.887 		"/>
	</g>
	<g>
		<polygon fill="#010101" stroke="#010101" stroke-width="1.25" points="407.769,347.027 413.763,362.302 408.99,361.804 
			406.895,381.872 400.753,381.23 402.846,361.163 398.069,360.669 		"/>
	</g>
	<g>
		<polygon fill="#010101" stroke="#010101" stroke-width="1.25" points="402.196,411.807 408.306,427.037 403.528,426.575 
			401.586,446.658 395.44,446.063 397.38,425.98 392.599,425.523 		"/>
	</g>
	<g>
		<polygon fill="#010101" stroke="#010101" stroke-width="1.25" points="397.207,476.674 403.536,491.814 398.751,491.421 
			397.098,511.53 390.945,511.024 392.595,490.915 387.809,490.527 		"/>
	</g>
	<g>
		<polygon fill="#010101" stroke="#010101" stroke-width="1.25" points="393.971,541.879 401.137,556.642 396.338,556.517 
			395.814,576.686 389.641,576.526 390.164,556.356 385.363,556.236 		"/>
	</g>
	<g>
		<polygon fill="#010101" stroke="#010101" stroke-width="1.25" points="440.467,569.153 453.647,559.377 454.413,564.116 
			474.331,560.898 475.316,566.994 455.398,570.213 456.169,574.954 		"/>
	</g>
	<g>
		<polygon fill="#010101" stroke="#010101" stroke-width="1.25" points="504.476,555.191 516.653,544.191 517.872,548.833 
			537.386,543.711 538.954,549.683 519.44,554.808 520.664,559.452 		"/>
	</g>
	<g>
		<polygon fill="#010101" stroke="#010101" stroke-width="1.25" points="566.771,533.394 576.607,520.258 578.695,524.581 
			596.862,515.802 599.548,521.362 581.382,530.142 583.476,534.464 		"/>
	</g>
	<g>
		<polygon fill="#010101" stroke="#010101" stroke-width="1.25" points="620.939,492.061 619.417,475.722 623.866,477.525 
			631.445,458.827 637.167,461.146 629.59,479.845 634.042,481.645 		"/>
	</g>
	<g>
		<polygon fill="#010101" stroke="#010101" stroke-width="1.25" points="623.599,422.932 608.155,417.386 611.673,414.122 
			597.949,399.333 602.474,395.132 616.201,409.919 619.717,406.649 		"/>
	</g>
	<g>
		<polygon fill="#010101" stroke="#010101" stroke-width="1.25" points="563.071,396.16 548.162,403.014 548.387,398.219 
			528.233,397.27 528.524,391.103 548.678,392.049 548.899,387.252 		"/>
	</g>
	<g>
		<polygon fill="#010101" stroke="#010101" stroke-width="1.25" points="498.125,394.113 483.216,400.967 483.442,396.172 
			463.288,395.223 463.579,389.056 483.733,390.002 483.954,385.206 		"/>
	</g>
	<g>
		<polygon fill="#010101" stroke="#010101" stroke-width="1.25" points="433.184,392.066 418.275,398.92 418.5,394.125 
			398.346,393.176 398.637,387.009 418.792,387.956 419.012,383.159 		"/>
	</g>
	<g>
		<polygon fill="#010101" stroke="#010101" stroke-width="1.25" points="368.243,390.015 353.333,396.87 353.559,392.075 
			333.405,391.125 333.696,384.958 353.849,385.905 354.071,381.108 		"/>
	</g>
	<g>
		<polygon fill="#010101" stroke="#010101" stroke-width="1.25" points="303.297,387.968 288.388,394.823 288.614,390.028 
			268.46,389.079 268.75,382.912 288.904,383.858 289.125,379.061 		"/>
	</g>
	<g>
		<polygon fill="#010101" stroke="#010101" stroke-width="1.25" points="238.356,385.921 223.447,392.776 223.672,387.981 
			203.519,387.032 203.809,380.865 223.963,381.811 224.184,377.014 		"/>
	</g>
	<g>
		<polygon fill="#010101" stroke="#010101" stroke-width="1.25" points="172.383,382.552 159.024,392.082 158.347,387.33 
			138.372,390.177 137.5,384.065 157.475,381.214 156.792,376.461 		"/>
	</g>
	<g>
		<polygon fill="#010101" stroke="#010101" stroke-width="1.25" points="109.93,405.179 100.296,418.463 98.142,414.173 
			80.111,423.228 77.341,417.709 95.37,408.654 93.211,404.364 		"/>
	</g>
	<g>
		<polygon fill="#010101" stroke="#010101" stroke-width="1.25" points="53.104,440.037 47.62,455.502 44.341,451.998 
			29.607,465.782 25.389,461.273 40.121,447.487 36.836,443.983 		"/>
	</g>
	<g>
		<polygon fill="#010101" stroke="#010101" stroke-width="1.25" points="13.324,493.802 16.72,509.857 12.093,508.579 
			6.721,528.026 0.769,526.382 6.139,506.934 1.509,505.66 		"/>
	</g>
	<g>
		<polygon fill="#010101" stroke="#010101" stroke-width="1.25" points="24.672,553.832 40.753,557.097 37.741,560.834 
			53.451,573.496 49.576,578.303 33.865,565.644 30.856,569.387 		"/>
	</g>
	<g>
		<polygon fill="#010101" stroke="#010101" stroke-width="1.25" points="88.997,570.504 104.159,564.227 103.749,569.01 
			123.852,570.732 123.325,576.884 103.222,575.165 102.817,579.95 		"/>
	</g>
	<g>
		<polygon fill="#010101" stroke="#010101" stroke-width="1.25" points="154.132,573.068 169.033,566.195 168.813,570.99 
			188.968,571.914 188.686,578.082 168.53,577.16 168.315,581.958 		"/>
	</g>
	<g>
		<polygon fill="#010101" stroke="#010101" stroke-width="1.25" points="215.4,547.934 215.22,531.526 219.506,533.687 
			228.589,515.67 234.103,518.45 225.022,536.467 229.312,538.625 		"/>
	</g>
	<g>
		<polygon fill="#010101" stroke="#010101" stroke-width="1.25" points="239.37,486.487 236.188,470.389 240.797,471.729 
			246.427,452.354 252.356,454.077 246.729,473.452 251.341,474.788 		"/>
	</g>
	<g>
		<polygon fill="#010101" stroke="#010101" stroke-width="1.25" points="255.056,423.105 250.943,407.219 255.623,408.289 
			260.117,388.619 266.137,389.994 261.645,409.664 266.327,410.729 		"/>
	</g>
	<g>
		<polygon fill="#010101" stroke="#010101" stroke-width="1.25" points="267.291,358.984 262.343,343.338 267.073,344.158 
			270.52,324.279 276.604,325.333 273.159,345.213 277.891,346.029 		"/>
	</g>
	<g>
		<polygon fill="#010101" stroke="#010101" stroke-width="1.25" points="276.78,294.56 271.46,279.037 276.208,279.744 
			279.18,259.788 285.288,260.697 282.317,280.653 287.068,281.356 		"/>
	</g>
	<g>
		<polygon fill="#010101" stroke="#010101" stroke-width="1.25" points="284.832,229.94 279.133,214.551 283.897,215.142 
			286.378,195.119 292.506,195.878 290.027,215.902 294.793,216.487 		"/>
	</g>
	<g>
		<polygon fill="#010101" stroke="#010101" stroke-width="1.25" points="291.568,165.25 285.686,149.93 290.457,150.464 
			292.699,130.413 298.834,131.099 296.595,151.15 301.368,151.679 		"/>
	</g>
	<g>
		<polygon fill="#010101" stroke="#010101" stroke-width="1.25" points="297.311,100.443 291.212,85.209 295.99,85.675 
			297.949,65.594 304.094,66.193 302.138,86.274 306.918,86.735 		"/>
	</g>
	<g>
		<polygon fill="#010101" stroke="#010101" stroke-width="1.25" points="302.213,35.525 295.775,20.431 300.561,20.79 302.068,0.67 
			308.225,1.131 306.721,21.251 311.51,21.604 		"/>
	</g>
</g>
</svg>
