<?xml version="1.0" encoding="utf-8"?>
<!-- Generator: Adobe Illustrator 12.0.0, SVG Export Plug-In . SVG Version: 6.00 Build 51448)  -->
<!DOCTYPE svg PUBLIC "-//W3C//DTD SVG 1.1//EN" "http://www.w3.org/Graphics/SVG/1.1/DTD/svg11.dtd" [
	<!ENTITY ns_svg "http://www.w3.org/2000/svg">
	<!ENTITY ns_xlink "http://www.w3.org/1999/xlink">
]>
<svg  version="1.1" id="Layer_1" xmlns="&ns_svg;" xmlns:xlink="&ns_xlink;" width="159.906" height="293.845"
	 viewBox="0 0 159.906 293.845" overflow="visible" enable-background="new 0 0 159.906 293.845" xml:space="preserve">
<g>
	<path fill="none" d="M4.767,18.244c-25.859,323.207,155.139,271.488,155.139,271.488"/>
	<g>
		<polygon fill="#010101" stroke="#010101" stroke-width="1.25" points="134.635,287.262 119.226,292.905 119.833,288.144 
			99.82,285.589 100.602,279.464 120.616,282.016 121.219,277.252 		"/>
	</g>
	<g>
		<polygon fill="#010101" stroke="#010101" stroke-width="1.25" points="76.695,268.312 60.372,266.63 63.005,262.618 
			46.135,251.55 49.521,246.387 66.393,257.453 69.023,253.434 		"/>
	</g>
	<g>
		<polygon fill="#010101" stroke="#010101" stroke-width="1.25" points="35.432,224.076 22.957,213.416 27.404,211.61 
			19.813,192.916 25.533,190.592 33.127,209.286 37.575,207.474 		"/>
	</g>
	<g>
		<polygon fill="#010101" stroke="#010101" stroke-width="1.25" points="16.22,163.628 6.481,150.421 11.222,149.669 8.058,129.743 
			14.156,128.774 17.322,148.701 22.064,147.943 		"/>
	</g>
	<g>
		<polygon fill="#010101" stroke="#010101" stroke-width="1.25" points="9.18,99.848 1.052,85.593 5.848,85.4 5.036,65.24 
			11.205,64.991 12.02,85.151 16.818,84.953 		"/>
	</g>
	<g>
		<polygon fill="#010101" stroke="#010101" stroke-width="1.25" points="10.006,35.503 3.271,20.54 8.063,20.804 9.174,0.658 
			15.339,0.998 14.231,21.144 19.027,21.403 		"/>
	</g>
</g>
</svg>
