<?xml version="1.0" encoding="utf-8"?>
<!-- Generator: Adobe Illustrator 12.0.0, SVG Export Plug-In . SVG Version: 6.00 Build 51448)  -->
<!DOCTYPE svg PUBLIC "-//W3C//DTD SVG 1.1//EN" "http://www.w3.org/Graphics/SVG/1.1/DTD/svg11.dtd" [
	<!ENTITY ns_svg "http://www.w3.org/2000/svg">
	<!ENTITY ns_xlink "http://www.w3.org/1999/xlink">
]>
<svg  version="1.1" id="Layer_1" xmlns="&ns_svg;" xmlns:xlink="&ns_xlink;" width="102.077" height="282.282"
	 viewBox="0 0 102.077 282.282" overflow="visible" enable-background="new 0 0 102.077 282.282" xml:space="preserve">
<g>
	<line fill="none" x1="86.321" y1="16.459" x2="0" y2="275.375"/>
	<g>
		<polygon fill="#010101" stroke="#010101" stroke-width="1.25" points="4.347,281.051 2.047,264.804 6.576,266.393 13.254,247.354 
			19.081,249.396 12.405,268.437 16.938,270.021 		"/>
	</g>
	<g>
		<polygon fill="#010101" stroke="#010101" stroke-width="1.25" points="24.897,219.412 22.598,203.165 27.127,204.754 
			33.805,185.715 39.631,187.758 32.956,206.798 37.489,208.383 		"/>
	</g>
	<g>
		<polygon fill="#010101" stroke="#010101" stroke-width="1.25" points="45.448,157.771 43.148,141.524 47.678,143.113 
			54.356,124.074 60.183,126.117 53.506,145.157 58.04,146.742 		"/>
	</g>
	<g>
		<polygon fill="#010101" stroke="#010101" stroke-width="1.25" points="65.995,96.133 63.695,79.886 68.225,81.475 74.902,62.436 
			80.729,64.479 74.054,83.519 78.587,85.104 		"/>
	</g>
	<g>
		<polygon fill="#010101" stroke="#010101" stroke-width="1.25" points="86.546,34.495 84.246,18.247 88.775,19.836 95.453,0.797 
			101.28,2.84 94.604,21.88 99.138,23.465 		"/>
	</g>
</g>
</svg>
