<?xml version="1.0" encoding="utf-8"?>
<!-- Generator: Adobe Illustrator 12.0.0, SVG Export Plug-In . SVG Version: 6.00 Build 51448)  -->
<!DOCTYPE svg PUBLIC "-//W3C//DTD SVG 1.1//EN" "http://www.w3.org/Graphics/SVG/1.1/DTD/svg11.dtd" [
	<!ENTITY ns_svg "http://www.w3.org/2000/svg">
	<!ENTITY ns_xlink "http://www.w3.org/1999/xlink">
]>
<svg  version="1.1" id="Layer_1" xmlns="&ns_svg;" xmlns:xlink="&ns_xlink;" width="424.423" height="588.899"
	 viewBox="0 0 424.423 588.899" overflow="visible" enable-background="new 0 0 424.423 588.899" xml:space="preserve">
<g>
	<path fill="none" d="M284.711,17.727c0,0-66.936,445.949-52.26,512.913c14.695,66.963-169.917,58.76-215.633-16.355
		C-28.894,439.17,203.033,401.6,203.033,401.6s173.57-39.042,182.965-3.291c16.325,62.076,35.926,98.043,0,107.826
		c-35.933,9.79-31.04-24.494-26.132-63.715c24.499-171.505,31.023-395.293,31.023-395.293"/>
	<g>
		<polygon fill="#010101" stroke="#010101" stroke-width="1.25" points="383.469,87.196 390.115,102.2 385.324,101.907 
			384.094,122.046 377.931,121.67 379.159,101.531 374.365,101.243 		"/>
	</g>
	<g>
		<polygon fill="#010101" stroke="#010101" stroke-width="1.25" points="380.247,152.026 386.728,167.102 381.941,166.757 
			380.491,186.881 374.332,186.438 375.78,166.313 370.99,165.973 		"/>
	</g>
	<g>
		<polygon fill="#010101" stroke="#010101" stroke-width="1.25" points="376.29,216.793 382.551,231.962 377.769,231.547 
			376.026,251.648 369.875,251.115 371.615,231.014 366.831,230.604 		"/>
	</g>
	<g>
		<polygon fill="#010101" stroke="#010101" stroke-width="1.25" points="371.304,281.505 377.38,296.749 372.604,296.276 
			370.616,316.354 364.471,315.746 366.457,295.667 361.677,295.2 		"/>
	</g>
	<g>
		<polygon fill="#010101" stroke="#010101" stroke-width="1.25" points="365.415,346.068 371.128,361.451 366.364,360.866 
			363.902,380.891 357.774,380.137 360.233,360.112 355.466,359.531 		"/>
	</g>
	<g>
		<polygon fill="#010101" stroke="#010101" stroke-width="1.25" points="358.027,410.49 363.403,425.993 358.653,425.303 
			355.754,445.271 349.644,444.383 352.54,424.417 347.787,423.731 		"/>
	</g>
	<g>
		<polygon fill="#010101" stroke="#010101" stroke-width="1.25" points="350.912,476.233 359.568,490.173 354.782,490.546 
			356.348,510.662 350.192,511.141 348.624,491.026 343.836,491.404 		"/>
	</g>
	<g>
		<polygon fill="#010101" stroke="#010101" stroke-width="1.25" points="398.794,503.286 402.241,487.242 405.944,490.295 
			418.78,474.728 423.543,478.657 410.709,494.225 414.418,497.276 		"/>
	</g>
	<g>
		<polygon fill="#010101" stroke="#010101" stroke-width="1.25" points="403.362,437.924 392.348,425.759 396.989,424.536 
			391.845,405.026 397.815,403.452 402.962,422.96 407.604,421.731 		"/>
	</g>
	<g>
		<polygon fill="#010101" stroke="#010101" stroke-width="1.25" points="369.171,380.642 353.568,385.721 354.348,380.986 
			334.44,377.707 335.443,371.614 355.352,374.891 356.127,370.152 		"/>
	</g>
	<g>
		<polygon fill="#010101" stroke="#010101" stroke-width="1.25" points="302.9,379.361 289.172,388.35 288.684,383.576 
			268.612,385.625 267.984,379.483 288.056,377.43 287.563,372.654 		"/>
	</g>
	<g>
		<polygon fill="#010101" stroke="#010101" stroke-width="1.25" points="238.154,388.542 225.116,398.505 224.282,393.779 
			204.412,397.283 203.34,391.203 223.209,387.696 222.37,382.967 		"/>
	</g>
	<g>
		<polygon fill="#010101" stroke="#010101" stroke-width="1.25" points="174.24,401.177 161.513,411.537 160.535,406.837 
			140.782,410.95 139.524,404.905 159.276,400.791 158.292,396.089 		"/>
	</g>
	<g>
		<polygon fill="#010101" stroke="#010101" stroke-width="1.25" points="110.89,417.737 99.151,429.203 97.752,424.611 
			78.451,430.489 76.652,424.582 95.953,418.702 94.549,414.109 		"/>
	</g>
	<g>
		<polygon fill="#010101" stroke="#010101" stroke-width="1.25" points="49.474,442.558 40.855,456.522 38.388,452.405 
			21.081,462.776 17.907,457.479 35.213,447.106 32.74,442.99 		"/>
	</g>
	<g>
		<polygon fill="#010101" stroke="#010101" stroke-width="1.25" points="8.866,493.595 16.826,507.945 12.028,508.082 
			12.603,528.25 6.431,528.425 5.854,508.257 1.053,508.399 		"/>
	</g>
	<g>
		<polygon fill="#010101" stroke="#010101" stroke-width="1.25" points="45.109,549.206 61.426,550.945 58.779,554.949 
			75.609,566.076 72.205,571.227 55.373,560.102 52.728,564.111 		"/>
	</g>
	<g>
		<polygon fill="#010101" stroke="#010101" stroke-width="1.25" points="106.491,575.011 122.381,570.917 121.307,575.594 
			140.971,580.111 139.589,586.128 119.924,581.615 118.854,586.296 		"/>
	</g>
	<g>
		<polygon fill="#010101" stroke="#010101" stroke-width="1.25" points="172.727,581.063 186.526,572.182 186.976,576.961 
			207.063,575.07 207.642,581.217 187.555,583.111 188.01,587.891 		"/>
	</g>
	<g>
		<polygon fill="#010101" stroke="#010101" stroke-width="1.25" points="230.127,552.05 229.813,535.644 234.117,537.77 
			243.053,519.68 248.589,522.415 239.655,540.505 243.963,542.628 		"/>
	</g>
	<g>
		<polygon fill="#010101" stroke="#010101" stroke-width="1.25" points="236.763,486.49 229.905,471.582 234.699,471.806 
			235.644,451.652 241.811,451.941 240.87,472.095 245.667,472.315 		"/>
	</g>
	<g>
		<polygon fill="#010101" stroke="#010101" stroke-width="1.25" points="240.504,421.94 234.409,406.705 239.186,407.171 
			241.148,387.09 247.293,387.691 245.334,407.772 250.114,408.234 		"/>
	</g>
	<g>
		<polygon fill="#010101" stroke="#010101" stroke-width="1.25" points="246.586,357.391 240.847,342.018 245.612,342.596 
			248.041,322.566 254.17,323.309 251.744,343.339 256.512,343.913 		"/>
	</g>
	<g>
		<polygon fill="#010101" stroke="#010101" stroke-width="1.25" points="253.752,292.902 248.243,277.445 252.999,278.093 
			255.725,258.102 261.842,258.936 259.119,278.928 263.877,279.572 		"/>
	</g>
	<g>
		<polygon fill="#010101" stroke="#010101" stroke-width="1.25" points="261.671,228.447 256.266,212.954 261.018,213.634 
			263.879,193.662 269.991,194.538 267.132,214.51 271.886,215.187 		"/>
	</g>
	<g>
		<polygon fill="#010101" stroke="#010101" stroke-width="1.25" points="270.048,164.068 264.76,148.534 269.506,149.25 
			272.518,129.3 278.624,130.222 275.614,150.172 280.363,150.884 		"/>
	</g>
	<g>
		<polygon fill="#010101" stroke="#010101" stroke-width="1.25" points="278.882,99.73 273.684,84.167 278.425,84.91 
			281.553,64.978 287.652,65.935 284.528,85.867 289.273,86.607 		"/>
	</g>
	<g>
		<polygon fill="#010101" stroke="#010101" stroke-width="1.25" points="288.06,35.45 282.979,19.847 287.716,20.626 290.993,0.718 
			297.086,1.721 293.811,21.63 298.55,22.405 		"/>
	</g>
</g>
</svg>
