<?xml version="1.0" encoding="utf-8"?>
<!-- Generator: Adobe Illustrator 12.0.0, SVG Export Plug-In . SVG Version: 6.00 Build 51448)  -->
<!DOCTYPE svg PUBLIC "-//W3C//DTD SVG 1.1//EN" "http://www.w3.org/Graphics/SVG/1.1/DTD/svg11.dtd" [
	<!ENTITY ns_svg "http://www.w3.org/2000/svg">
	<!ENTITY ns_xlink "http://www.w3.org/1999/xlink">
]>
<svg  version="1.1" id="Layer_1" xmlns="&ns_svg;" xmlns:xlink="&ns_xlink;" width="245.804" height="326.09"
	 viewBox="0 0 245.804 326.09" overflow="visible" enable-background="new 0 0 245.804 326.09" xml:space="preserve">
<g>
	<g>
		<path fill="none" d="M151.628,15.862C76.866,0.677,18.44,190.166,15.046,260.089c-3.393,69.931,180.537,82.666,207.148-56.875
			C243.774,90.089,226.408,31.036,151.628,15.862z"/>
		<g>
			<polygon fill="#010101" stroke="#010101" stroke-width="1.25" points="165.154,26.789 181.425,24.664 179.788,29.175 
				198.754,36.057 196.648,41.862 177.681,34.982 176.047,39.498 			"/>
		</g>
		<g>
			<polygon fill="#010101" stroke="#010101" stroke-width="1.25" points="212.111,61.651 224.096,72.86 219.573,74.464 
				226.319,93.48 220.5,95.544 213.751,76.53 209.227,78.14 			"/>
		</g>
		<g>
			<polygon fill="#010101" stroke="#010101" stroke-width="1.25" points="224.033,122.77 231.199,137.533 226.401,137.408 
				225.875,157.577 219.704,157.417 220.226,137.247 215.425,137.127 			"/>
		</g>
		<g>
			<polygon fill="#010101" stroke="#010101" stroke-width="1.25" points="219.989,186.319 223.757,202.29 219.102,201.12 
				214.184,220.688 208.196,219.182 213.112,199.615 208.453,198.449 			"/>
		</g>
		<g>
			<polygon fill="#010101" stroke="#010101" stroke-width="1.25" points="199.499,245.232 197.245,261.486 193.326,258.713 
				181.672,275.184 176.631,271.618 188.284,255.146 184.361,252.376 			"/>
		</g>
		<g>
			<polygon fill="#010101" stroke="#010101" stroke-width="1.25" points="156.084,287.966 145.951,300.873 143.961,296.503 
				125.598,304.863 123.04,299.244 141.402,290.882 139.408,286.513 			"/>
		</g>
		<g>
			<polygon fill="#010101" stroke="#010101" stroke-width="1.25" points="96.642,304.386 82.024,311.842 82.054,307.042 
				61.878,306.916 61.917,300.741 82.093,300.866 82.119,296.063 			"/>
		</g>
		<g>
			<polygon fill="#010101" stroke="#010101" stroke-width="1.25" points="39.931,289.061 23.845,285.821 26.851,282.079 
				11.121,269.444 14.988,264.629 30.719,277.263 33.723,273.516 			"/>
		</g>
		<g>
			<polygon fill="#010101" stroke="#010101" stroke-width="1.25" points="23.843,238.288 18.925,222.632 23.653,223.461 
				27.139,203.588 33.221,204.656 29.737,224.529 34.468,225.353 			"/>
		</g>
		<g>
			<polygon fill="#010101" stroke="#010101" stroke-width="1.25" points="37.495,175.726 34.946,159.515 39.499,161.035 
				45.884,141.895 51.741,143.849 45.358,162.989 49.916,164.504 			"/>
		</g>
		<g>
			<polygon fill="#010101" stroke="#010101" stroke-width="1.25" points="59.384,115.342 58.744,98.946 63.089,100.985 
				71.663,82.721 77.252,85.345 68.68,103.61 73.029,105.646 			"/>
		</g>
		<g>
			<polygon fill="#010101" stroke="#010101" stroke-width="1.25" points="89.185,59.639 93.177,43.722 96.774,46.901 
				110.134,31.782 114.761,35.871 101.403,50.991 105.004,54.167 			"/>
		</g>
		<g>
			<polygon fill="#010101" stroke="#010101" stroke-width="1.25" points="135.158,23.21 149.167,14.666 149.501,19.454 
				169.628,18.048 170.059,24.208 149.932,25.616 150.271,30.407 			"/>
		</g>
	</g>
</g>
</svg>
