<?xml version="1.0" encoding="utf-8"?>
<!-- Generator: Adobe Illustrator 12.0.0, SVG Export Plug-In . SVG Version: 6.00 Build 51448)  -->
<!DOCTYPE svg PUBLIC "-//W3C//DTD SVG 1.1//EN" "http://www.w3.org/Graphics/SVG/1.1/DTD/svg11.dtd" [
	<!ENTITY ns_svg "http://www.w3.org/2000/svg">
	<!ENTITY ns_xlink "http://www.w3.org/1999/xlink">
]>
<svg  version="1.1" id="Layer_1" xmlns="&ns_svg;" xmlns:xlink="&ns_xlink;" width="323.542" height="303.512"
	 viewBox="0 0 323.542 303.512" overflow="visible" enable-background="new 0 0 323.542 303.512" xml:space="preserve">
<g>
	<g>
		<path fill="none" d="M99.231,63.862c0,0,145.137-93.44,188.445-24.895c43.267,68.586,38.475,136.408-160.433,233.664
			C-56.196,362.394,25.4,85.728,76.315,85.728"/>
		<g>
			<polygon fill="#010101" stroke="#010101" stroke-width="1.25" points="80.41,77.664 69.583,89.995 67.837,85.524 49.043,92.864 
				46.797,87.113 65.59,79.771 63.838,75.3 			"/>
		</g>
		<g>
			<polygon fill="#010101" stroke="#010101" stroke-width="1.25" points="33.228,124.311 33.301,140.72 29.029,138.531 
				19.829,156.487 14.334,153.672 23.532,135.715 19.256,133.529 			"/>
		</g>
		<g>
			<polygon fill="#010101" stroke="#010101" stroke-width="1.25" points="11.556,187.217 16.744,202.785 12.002,202.038 
				8.86,221.968 2.761,221.007 5.9,201.076 1.156,200.333 			"/>
		</g>
		<g>
			<polygon fill="#010101" stroke="#010101" stroke-width="1.25" points="12.687,254.016 24.682,265.214 20.16,266.823 
				26.922,285.832 21.104,287.901 14.34,268.894 9.817,270.508 			"/>
		</g>
		<g>
			<polygon fill="#010101" stroke="#010101" stroke-width="1.25" points="63.421,293.529 78.319,286.65 78.102,291.445 
				98.257,292.36 97.978,298.528 77.822,297.615 77.609,302.413 			"/>
		</g>
		<g>
			<polygon fill="#010101" stroke="#010101" stroke-width="1.25" points="128.032,277.809 138.329,265.032 140.262,269.426 
				158.73,261.3 161.216,266.952 142.75,275.079 144.689,279.474 			"/>
		</g>
		<g>
			<polygon fill="#010101" stroke="#010101" stroke-width="1.25" points="186.194,247.685 195.203,233.969 197.553,238.154 
				215.145,228.274 218.168,233.658 200.578,243.54 202.933,247.725 			"/>
		</g>
		<g>
			<polygon fill="#010101" stroke="#010101" stroke-width="1.25" points="241.634,212.186 248.416,197.243 251.384,201.015 
				267.24,188.537 271.058,193.389 255.205,205.869 258.178,209.64 			"/>
		</g>
		<g>
			<polygon fill="#010101" stroke="#010101" stroke-width="1.25" points="289.831,166.759 292.318,150.539 296.196,153.367 
				308.085,137.065 313.074,140.704 301.187,157.007 305.07,159.832 			"/>
		</g>
		<g>
			<polygon fill="#010101" stroke="#010101" stroke-width="1.25" points="315.125,104.05 306.754,89.936 311.546,89.66 
				310.39,69.518 316.555,69.163 317.713,89.307 322.507,89.026 			"/>
		</g>
		<g>
			<polygon fill="#010101" stroke="#010101" stroke-width="1.25" points="294.119,40.559 279.482,33.141 283.378,30.337 
				271.594,13.96 276.606,10.354 288.392,26.729 292.287,23.92 			"/>
		</g>
		<g>
			<polygon fill="#010101" stroke="#010101" stroke-width="1.25" points="235.574,8.696 221.312,16.813 221.123,12.017 
				200.961,12.811 200.718,6.641 220.879,5.844 220.685,1.046 			"/>
		</g>
		<g>
			<polygon fill="#010101" stroke="#010101" stroke-width="1.25" points="170.418,22.056 159.501,34.307 157.789,29.822 
				138.941,37.023 136.737,31.255 155.583,24.053 153.865,19.568 			"/>
		</g>
		<g>
			<polygon fill="#010101" stroke="#010101" stroke-width="1.25" points="110.589,49.853 101.969,63.815 99.502,59.698 
				82.193,70.065 79.021,64.769 96.328,54.398 93.855,50.281 			"/>
		</g>
	</g>
</g>
</svg>
