<?xml version="1.0" encoding="utf-8"?>
<!-- Generator: Adobe Illustrator 12.0.0, SVG Export Plug-In . SVG Version: 6.00 Build 51448)  -->
<!DOCTYPE svg PUBLIC "-//W3C//DTD SVG 1.1//EN" "http://www.w3.org/Graphics/SVG/1.1/DTD/svg11.dtd" [
	<!ENTITY ns_svg "http://www.w3.org/2000/svg">
	<!ENTITY ns_xlink "http://www.w3.org/1999/xlink">
]>
<svg  version="1.1" id="Layer_1" xmlns="&ns_svg;" xmlns:xlink="&ns_xlink;" width="527.391" height="579.499"
	 viewBox="0 0 527.391 579.499" overflow="visible" enable-background="new 0 0 527.391 579.499" xml:space="preserve">
<g>
	<path fill="none" d="M426.487,114.14c0,0,78.454-35.686,85.599,64.192c7.152,99.864-296.017,60.607-331.691,78.457
		c-35.687,17.835,28.534,238.982-32.112,281.783c-60.648,42.8-60.648,21.408-135.533,14.263
		c-24.993-131.961,253.247-114.139,253.247-114.139s89.179-42.771,110.562,24.993c21.392,67.765-107.019,99.862-107.019,99.862
		L280.263,0"/>
	<g>
		<polygon fill="#010101" stroke="#010101" stroke-width="1.25" points="274.311,1.849 281.351,16.672 276.553,16.506 
			275.856,36.67 269.686,36.457 270.38,16.292 265.581,16.131 		"/>
	</g>
	<g>
		<polygon fill="#010101" stroke="#010101" stroke-width="1.25" points="273.073,66.814 280.113,81.637 275.315,81.471 
			274.618,101.635 268.448,101.422 269.142,81.257 264.342,81.096 		"/>
	</g>
	<g>
		<polygon fill="#010101" stroke="#010101" stroke-width="1.25" points="271.838,131.775 278.878,146.598 274.081,146.432 
			273.383,166.596 267.213,166.383 267.908,146.218 263.108,146.057 		"/>
	</g>
	<g>
		<polygon fill="#010101" stroke="#010101" stroke-width="1.25" points="270.6,196.74 277.64,211.563 272.842,211.396 
			272.145,231.561 265.975,231.348 266.669,211.183 261.87,211.022 		"/>
	</g>
	<g>
		<polygon fill="#010101" stroke="#010101" stroke-width="1.25" points="269.366,261.701 276.406,276.523 271.608,276.357 
			270.911,296.521 264.741,296.309 265.435,276.144 260.635,275.983 		"/>
	</g>
	<g>
		<polygon fill="#010101" stroke="#010101" stroke-width="1.25" points="268.127,326.665 275.167,341.488 270.37,341.322 
			269.672,361.486 263.502,361.273 264.197,341.109 259.397,340.948 		"/>
	</g>
	<g>
		<polygon fill="#010101" stroke="#010101" stroke-width="1.25" points="266.893,391.63 273.933,406.453 269.135,406.287 
			268.438,426.451 262.268,426.238 262.962,406.074 258.163,405.913 		"/>
	</g>
	<g>
		<polygon fill="#010101" stroke="#010101" stroke-width="1.25" points="265.655,456.591 272.695,471.414 267.897,471.248 
			267.2,491.412 261.03,491.199 261.724,471.035 256.924,470.874 		"/>
	</g>
	<g>
		<polygon fill="#010101" stroke="#010101" stroke-width="1.25" points="264.42,521.556 271.46,536.379 266.663,536.213 
			265.965,556.377 259.795,556.164 260.49,536 255.69,535.839 		"/>
	</g>
	<g>
		<polygon fill="#010101" stroke="#010101" stroke-width="1.25" points="293.671,562.112 304.723,549.982 306.386,554.485 
			325.313,547.493 327.453,553.285 308.527,560.279 310.196,564.782 		"/>
	</g>
	<g>
		<polygon fill="#010101" stroke="#010101" stroke-width="1.25" points="352.159,530.85 358.794,515.842 361.799,519.584 
			377.532,506.952 381.398,511.767 365.667,524.4 368.677,528.143 		"/>
	</g>
	<g>
		<polygon fill="#010101" stroke="#010101" stroke-width="1.25" points="383.052,471.219 372.002,459.087 376.64,457.849 
			371.438,438.354 377.404,436.763 382.608,456.256 387.247,455.014 		"/>
	</g>
	<g>
		<polygon fill="#010101" stroke="#010101" stroke-width="1.25" points="338.27,422.484 322.677,427.596 323.448,422.858 
			303.533,419.619 304.524,413.524 324.439,416.762 325.205,412.021 		"/>
	</g>
	<g>
		<polygon fill="#010101" stroke="#010101" stroke-width="1.25" points="274.773,433.1 259.809,439.833 260.073,435.041 
			239.927,433.93 240.267,427.765 260.414,428.873 260.672,424.078 		"/>
	</g>
	<g>
		<polygon fill="#010101" stroke="#010101" stroke-width="1.25" points="209.238,432.244 195.002,440.407 194.798,435.611 
			174.64,436.472 174.376,430.303 194.534,429.44 194.325,424.643 		"/>
	</g>
	<g>
		<polygon fill="#010101" stroke="#010101" stroke-width="1.25" points="143.747,437.789 130.648,447.672 129.843,442.94 
			109.952,446.321 108.917,440.234 128.808,436.851 127.998,432.117 		"/>
	</g>
	<g>
		<polygon fill="#010101" stroke="#010101" stroke-width="1.25" points="78.957,452.807 68.717,465.629 66.764,461.244 
			48.333,469.452 45.821,463.812 64.251,455.602 62.293,451.217 		"/>
	</g>
	<g>
		<polygon fill="#010101" stroke="#010101" stroke-width="1.25" points="23.47,490.327 21.379,506.603 17.433,503.87 5.945,520.456 
			0.87,516.94 12.355,500.353 8.404,497.623 		"/>
	</g>
	<g>
		<polygon fill="#010101" stroke="#010101" stroke-width="1.25" points="13.519,558.905 29.041,553.581 28.335,558.329 
			48.292,561.296 47.385,567.403 27.427,564.438 26.726,569.189 		"/>
	</g>
	<g>
		<polygon fill="#010101" stroke="#010101" stroke-width="1.25" points="78.804,571.136 92.89,562.718 93.181,567.51 
			113.32,566.287 113.694,572.45 93.556,573.675 93.852,578.468 		"/>
	</g>
	<g>
		<polygon fill="#010101" stroke="#010101" stroke-width="1.25" points="143.095,549.945 149.195,534.711 152.331,538.345 
			167.605,525.163 171.64,529.838 156.366,543.021 159.507,546.653 		"/>
	</g>
	<g>
		<polygon fill="#010101" stroke="#010101" stroke-width="1.25" points="177.702,492.281 172.114,476.853 176.874,477.478 
			179.499,457.473 185.621,458.276 182.998,478.281 187.76,478.901 		"/>
	</g>
	<g>
		<polygon fill="#010101" stroke="#010101" stroke-width="1.25" points="180.984,426.728 173.372,412.19 178.172,412.17 
			178.083,391.993 184.257,391.966 184.349,412.142 189.151,412.115 		"/>
	</g>
	<g>
		<polygon fill="#010101" stroke="#010101" stroke-width="1.25" points="177.754,361.58 169.519,347.387 174.313,347.157 
			173.348,327.004 179.516,326.709 180.483,346.861 185.279,346.627 		"/>
	</g>
	<g>
		<polygon fill="#010101" stroke="#010101" stroke-width="1.25" points="175.118,297.576 168.957,282.367 173.736,282.813 
			175.612,262.725 181.759,263.298 179.886,283.388 184.668,283.829 		"/>
	</g>
	<g>
		<polygon fill="#010101" stroke="#010101" stroke-width="1.25" points="202.128,258.409 216.453,250.403 216.604,255.201 
			236.77,254.562 236.966,260.733 216.8,261.375 216.957,266.174 		"/>
	</g>
	<g>
		<polygon fill="#010101" stroke="#010101" stroke-width="1.25" points="266.855,256.79 281.471,249.331 281.442,254.131 
			301.618,254.254 301.581,260.428 281.405,260.308 281.38,265.11 		"/>
	</g>
	<g>
		<polygon fill="#010101" stroke="#010101" stroke-width="1.25" points="332.012,255.538 346.371,247.594 346.501,252.392 
			366.67,251.839 366.84,258.011 346.671,258.566 346.808,263.367 		"/>
	</g>
	<g>
		<polygon fill="#010101" stroke="#010101" stroke-width="1.25" points="397.253,250.898 410.923,241.82 411.442,246.592 
			431.5,244.412 432.167,250.55 412.11,252.732 412.633,257.506 		"/>
	</g>
	<g>
		<polygon fill="#010101" stroke="#010101" stroke-width="1.25" points="462.254,238.056 473.18,225.813 474.89,230.298 
			493.743,223.111 495.943,228.881 477.09,236.07 478.806,240.556 		"/>
	</g>
	<g>
		<polygon fill="#010101" stroke="#010101" stroke-width="1.25" points="517.756,194.665 510.531,179.931 515.33,180.037 
			515.775,159.866 521.948,160.002 521.505,180.173 526.306,180.274 		"/>
	</g>
	<g>
		<polygon fill="#010101" stroke="#010101" stroke-width="1.25" points="502.97,129.058 488.148,122.016 491.971,119.114 
			479.772,103.043 484.69,99.31 496.891,115.379 500.713,112.471 		"/>
	</g>
	<g>
		<polygon fill="#010101" stroke="#010101" stroke-width="1.25" points="440.158,102.375 429.192,114.583 427.497,110.092 
			408.621,117.218 406.44,111.441 425.315,104.313 423.614,99.822 		"/>
	</g>
</g>
</svg>
