<?xml version="1.0" encoding="utf-8"?>
<!-- Generator: Adobe Illustrator 12.0.0, SVG Export Plug-In . SVG Version: 6.00 Build 51448)  -->
<!DOCTYPE svg PUBLIC "-//W3C//DTD SVG 1.1//EN" "http://www.w3.org/Graphics/SVG/1.1/DTD/svg11.dtd" [
	<!ENTITY ns_svg "http://www.w3.org/2000/svg">
	<!ENTITY ns_xlink "http://www.w3.org/1999/xlink">
]>
<svg  version="1.1" id="Layer_1" xmlns="&ns_svg;" xmlns:xlink="&ns_xlink;" width="477.524" height="320.132"
	 viewBox="0 0 477.524 320.132" overflow="visible" enable-background="new 0 0 477.524 320.132" xml:space="preserve">
<g>
	<polyline fill="none" points="9.676,58.48 235.727,320.132 477.524,0 	"/>
	<g>
		<polygon fill="#010101" stroke="#010101" stroke-width="1.25" points="463.637,8.564 460.627,24.695 456.843,21.744 
			444.434,37.652 439.564,33.855 451.972,17.945 448.183,14.995 		"/>
	</g>
	<g>
		<polygon fill="#010101" stroke="#010101" stroke-width="1.25" points="424.477,60.412 421.467,76.543 417.683,73.591 
			405.273,89.5 400.404,85.703 412.812,69.792 409.022,66.843 		"/>
	</g>
	<g>
		<polygon fill="#010101" stroke="#010101" stroke-width="1.25" points="385.316,112.259 382.307,128.391 378.522,125.439 
			366.113,141.348 361.244,137.55 373.651,121.64 369.862,118.69 		"/>
	</g>
	<g>
		<polygon fill="#010101" stroke="#010101" stroke-width="1.25" points="346.156,164.107 343.146,180.239 339.362,177.287 
			326.953,193.196 322.084,189.398 334.491,173.488 330.702,170.538 		"/>
	</g>
	<g>
		<polygon fill="#010101" stroke="#010101" stroke-width="1.25" points="306.996,215.955 303.986,232.086 300.202,229.134 
			287.793,245.043 282.924,241.246 295.331,225.335 291.542,222.385 		"/>
	</g>
	<g>
		<polygon fill="#010101" stroke="#010101" stroke-width="1.25" points="267.832,267.802 264.822,283.934 261.038,280.982 
			248.629,296.891 243.76,293.093 256.167,277.183 252.378,274.233 		"/>
	</g>
	<g>
		<polygon fill="#010101" stroke="#010101" stroke-width="1.25" points="237.679,313.336 222.538,307.009 226.218,303.928 
			213.267,288.458 218.001,284.494 230.954,299.962 234.634,296.876 		"/>
	</g>
	<g>
		<polygon fill="#010101" stroke="#010101" stroke-width="1.25" points="195.201,264.168 180.061,257.841 183.741,254.76 
			170.79,239.29 175.524,235.326 188.477,250.794 192.156,247.708 		"/>
	</g>
	<g>
		<polygon fill="#010101" stroke="#010101" stroke-width="1.25" points="152.724,215.004 137.583,208.677 141.264,205.596 
			128.313,190.125 133.046,186.162 146,201.63 149.679,198.544 		"/>
	</g>
	<g>
		<polygon fill="#010101" stroke="#010101" stroke-width="1.25" points="110.247,165.836 95.106,159.509 98.786,156.428 
			85.835,140.958 90.569,136.994 103.522,152.462 107.202,149.376 		"/>
	</g>
	<g>
		<polygon fill="#010101" stroke="#010101" stroke-width="1.25" points="67.77,116.668 52.628,110.341 56.309,107.26 43.357,91.79 
			48.092,87.826 61.045,103.294 64.725,100.208 		"/>
	</g>
	<g>
		<polygon fill="#010101" stroke="#010101" stroke-width="1.25" points="25.292,67.5 10.151,61.173 13.832,58.092 0.88,42.621 
			5.615,38.658 18.568,54.126 22.247,51.04 		"/>
	</g>
</g>
</svg>
