<?xml version="1.0" encoding="utf-8"?>
<!-- Generator: Adobe Illustrator 12.0.0, SVG Export Plug-In . SVG Version: 6.00 Build 51448)  -->
<!DOCTYPE svg PUBLIC "-//W3C//DTD SVG 1.1//EN" "http://www.w3.org/Graphics/SVG/1.1/DTD/svg11.dtd" [
	<!ENTITY ns_svg "http://www.w3.org/2000/svg">
	<!ENTITY ns_xlink "http://www.w3.org/1999/xlink">
]>
<svg  version="1.1" id="Layer_1" xmlns="&ns_svg;" xmlns:xlink="&ns_xlink;" width="662.646" height="275.456"
	 viewBox="0 0 662.646 275.456" overflow="visible" enable-background="new 0 0 662.646 275.456" xml:space="preserve">
<g>
	<g>
		<path fill="none" d="M94.21,51.454c0,0,106.172-59.848,149.584-28.766c43.45,31.014,46.44,122.847,15.426,147.63
			c-31.017,24.766-129.883,33.742-216.767,70.974c-213.956,91.702,441.303-45.29,620.192-2.745"/>
		<g>
			<polygon fill="#010101" stroke="#010101" stroke-width="1.25" points="648.326,230.5 632.745,235.647 633.504,230.907 
				613.583,227.714 614.559,221.617 634.482,224.809 635.237,220.066 			"/>
		</g>
		<g>
			<polygon fill="#010101" stroke="#010101" stroke-width="1.25" points="583.034,224.943 568.11,231.765 568.346,226.971 
				548.194,225.978 548.498,219.811 568.65,220.801 568.881,216.004 			"/>
		</g>
		<g>
			<polygon fill="#010101" stroke="#010101" stroke-width="1.25" points="517.729,225.378 503.25,233.099 503.193,228.3 
				483.018,228.539 482.944,222.365 503.119,222.123 503.057,217.321 			"/>
		</g>
		<g>
			<polygon fill="#010101" stroke="#010101" stroke-width="1.25" points="452.633,228.744 438.452,236.999 438.215,232.205 
				418.064,233.196 417.76,227.029 437.912,226.035 437.671,221.239 			"/>
		</g>
		<g>
			<polygon fill="#010101" stroke="#010101" stroke-width="1.25" points="387.717,233.796 373.733,242.38 373.384,237.593 
				353.261,239.056 352.814,232.897 372.937,231.433 372.583,226.643 			"/>
		</g>
		<g>
			<polygon fill="#010101" stroke="#010101" stroke-width="1.25" points="322.95,239.889 309.086,248.668 308.671,243.886 
				288.57,245.631 288.037,239.479 308.137,237.732 307.717,232.948 			"/>
		</g>
		<g>
			<polygon fill="#010101" stroke="#010101" stroke-width="1.25" points="258.285,246.623 244.477,255.49 244.032,250.711 
				223.942,252.583 223.369,246.436 243.458,244.561 243.008,239.779 			"/>
		</g>
		<g>
			<polygon fill="#010101" stroke="#010101" stroke-width="1.25" points="193.696,253.656 179.884,262.517 179.441,257.737 
				159.351,259.599 158.781,253.451 178.871,251.587 178.422,246.806 			"/>
		</g>
		<g>
			<polygon fill="#010101" stroke="#010101" stroke-width="1.25" points="129.156,260.532 115.239,269.226 114.853,264.441 
				94.742,266.061 94.247,259.906 114.357,258.284 113.967,253.498 			"/>
		</g>
		<g>
			<polygon fill="#010101" stroke="#010101" stroke-width="1.25" points="64.763,266.474 50.401,274.412 50.271,269.614 
				30.103,270.158 29.936,263.986 50.104,263.439 49.97,258.64 			"/>
		</g>
		<g>
			<polygon fill="#010101" stroke="#010101" stroke-width="1.25" points="4.59,273.895 8.488,257.955 12.104,261.112 
				25.375,245.915 30.026,249.976 16.757,265.175 20.377,268.33 			"/>
		</g>
		<g>
			<polygon fill="#010101" stroke="#010101" stroke-width="1.25" points="56.48,242.365 67.675,230.368 69.285,234.89 
				88.293,228.123 90.364,233.939 71.357,240.709 72.972,245.231 			"/>
		</g>
		<g>
			<polygon fill="#010101" stroke="#010101" stroke-width="1.25" points="117.476,221.6 129.672,210.62 130.882,215.265 
				150.406,210.177 151.964,216.151 132.44,221.242 133.657,225.888 			"/>
		</g>
		<g>
			<polygon fill="#010101" stroke="#010101" stroke-width="1.25" points="180.22,205.028 192.558,194.209 193.708,198.869 
				213.297,194.036 214.776,200.03 195.188,204.866 196.343,209.527 			"/>
		</g>
		<g>
			<polygon fill="#010101" stroke="#010101" stroke-width="1.25" points="243.586,185.523 253.008,172.089 255.23,176.344 
				273.115,167.006 275.973,172.479 258.089,181.819 260.316,186.074 			"/>
		</g>
		<g>
			<polygon fill="#010101" stroke="#010101" stroke-width="1.25" points="282.395,132.037 277.288,116.442 282.025,117.214 
				285.269,97.3 291.363,98.293 288.122,118.207 292.862,118.974 			"/>
		</g>
		<g>
			<polygon fill="#010101" stroke="#010101" stroke-width="1.25" points="278.445,64.683 265.787,54.24 270.202,52.357 
				262.288,33.798 267.968,31.376 275.884,49.935 280.299,48.046 			"/>
		</g>
		<g>
			<polygon fill="#010101" stroke="#010101" stroke-width="1.25" points="235.078,12.513 219.173,16.553 220.264,11.879 
				200.615,7.295 202.018,1.282 221.667,5.863 222.753,1.186 			"/>
		</g>
		<g>
			<polygon fill="#010101" stroke="#010101" stroke-width="1.25" points="168.22,14.669 156.208,25.85 154.92,21.226 
				135.484,26.639 133.827,20.691 153.263,15.275 151.97,10.65 			"/>
		</g>
		<g>
			<polygon fill="#010101" stroke="#010101" stroke-width="1.25" points="106.388,38.152 96.948,51.574 94.732,47.316 
				76.834,56.631 73.983,51.153 91.88,41.837 89.659,37.58 			"/>
		</g>
	</g>
</g>
</svg>
