<?xml version="1.0" encoding="utf-8"?>
<!-- Generator: Adobe Illustrator 12.0.0, SVG Export Plug-In . SVG Version: 6.00 Build 51448)  -->
<!DOCTYPE svg PUBLIC "-//W3C//DTD SVG 1.1//EN" "http://www.w3.org/Graphics/SVG/1.1/DTD/svg11.dtd" [
	<!ENTITY ns_svg "http://www.w3.org/2000/svg">
	<!ENTITY ns_xlink "http://www.w3.org/1999/xlink">
]>
<svg  version="1.1" id="Layer_1" xmlns="&ns_svg;" xmlns:xlink="&ns_xlink;" width="299.749" height="539.562"
	 viewBox="0 0 299.749 539.562" overflow="visible" enable-background="new 0 0 299.749 539.562" xml:space="preserve">
<g>
	<path fill="none" d="M241.265,6.476c0,0-248.363,138.616-239.86,274.14c8.497,135.522,35.669,277.507,128.479,256.951
		c35.756-18.339,79.642-42.464,111.38-68.535c49.4-70.484,85.909-101.931,27.483-192.814
		C241.095,233.22,99.974,380.085,99.974,380.085"/>
	<g>
		<polygon fill="#010101" stroke="#010101" stroke-width="1.25" points="106.99,381.117 112.388,365.621 115.687,369.108 
			130.345,355.244 134.588,359.729 119.932,373.595 123.235,377.081 		"/>
	</g>
	<g>
		<polygon fill="#010101" stroke="#010101" stroke-width="1.25" points="154.187,336.942 160.396,321.752 163.506,325.409 
			178.876,312.338 182.876,317.042 167.508,330.114 170.623,333.769 		"/>
	</g>
	<g>
		<polygon fill="#010101" stroke="#010101" stroke-width="1.25" points="204.149,296.909 212.581,282.831 215.103,286.915 
			232.27,276.313 235.514,281.567 218.349,292.169 220.876,296.253 		"/>
	</g>
	<g>
		<polygon fill="#010101" stroke="#010101" stroke-width="1.25" points="255.89,273.243 271.224,279.084 267.644,282.282 
			281.08,297.333 276.475,301.445 263.036,286.395 259.457,289.597 		"/>
	</g>
	<g>
		<polygon fill="#010101" stroke="#010101" stroke-width="1.25" points="286.601,326.642 297.929,338.514 293.321,339.859 
			298.974,359.227 293.046,360.957 287.392,341.589 282.782,342.94 		"/>
	</g>
	<g>
		<polygon fill="#010101" stroke="#010101" stroke-width="1.25" points="285.962,385.625 287.264,401.983 282.84,400.121 
			275.011,418.715 269.32,416.32 277.147,397.724 272.72,395.865 		"/>
	</g>
	<g>
		<polygon fill="#010101" stroke="#010101" stroke-width="1.25" points="254.436,440.499 251.83,456.7 247.973,453.843 
			235.966,470.058 231.003,466.383 243.009,450.167 239.146,447.314 		"/>
	</g>
	<g>
		<polygon fill="#010101" stroke="#010101" stroke-width="1.25" points="210.388,484.082 202.147,498.272 199.57,494.222 
			182.548,505.054 179.233,499.845 196.254,489.011 193.671,484.962 		"/>
	</g>
	<g>
		<polygon fill="#010101" stroke="#010101" stroke-width="1.25" points="155.238,517.333 145.728,530.706 143.534,526.436 
			125.588,535.657 122.766,530.165 140.711,520.942 138.512,516.672 		"/>
	</g>
	<g>
		<polygon fill="#010101" stroke="#010101" stroke-width="1.25" points="99.329,531.469 82.977,532.843 84.82,528.412 
			66.191,520.663 68.562,514.961 87.192,522.708 89.032,518.272 		"/>
	</g>
	<g>
		<polygon fill="#010101" stroke="#010101" stroke-width="1.25" points="53.131,494.453 40.046,484.549 44.379,482.484 
			35.695,464.272 41.268,461.614 49.955,479.825 54.287,477.753 		"/>
	</g>
	<g>
		<polygon fill="#010101" stroke="#010101" stroke-width="1.25" points="30.066,435.168 19.253,422.826 23.914,421.677 
			19.089,402.086 25.084,400.61 29.911,420.201 34.573,419.047 		"/>
	</g>
	<g>
		<polygon fill="#010101" stroke="#010101" stroke-width="1.25" points="17.058,372.238 7.641,358.799 12.398,358.162 
			9.717,338.165 15.836,337.343 18.52,357.34 23.279,356.698 		"/>
	</g>
	<g>
		<polygon fill="#010101" stroke="#010101" stroke-width="1.25" points="9.526,308.138 1.065,294.078 5.856,293.772 4.571,273.636 
			10.733,273.244 12.02,293.378 16.813,293.068 		"/>
	</g>
	<g>
		<polygon fill="#010101" stroke="#010101" stroke-width="1.25" points="12.539,245.975 9.216,229.906 13.837,231.205 
			19.297,211.781 25.241,213.452 19.783,232.876 24.408,234.171 		"/>
	</g>
	<g>
		<polygon fill="#010101" stroke="#010101" stroke-width="1.25" points="37.912,188.922 40.188,172.671 44.103,175.449 
			55.778,158.994 60.814,162.567 49.14,179.023 53.06,181.798 		"/>
	</g>
	<g>
		<polygon fill="#010101" stroke="#010101" stroke-width="1.25" points="77.501,138.916 82.683,123.346 86.03,126.786 
			100.493,112.718 104.798,117.145 90.337,131.214 93.689,134.653 		"/>
	</g>
	<g>
		<polygon fill="#010101" stroke="#010101" stroke-width="1.25" points="124.586,95.141 131.465,80.242 134.409,84.033 
			150.344,71.658 154.132,76.534 138.198,88.912 141.147,92.702 		"/>
	</g>
	<g>
		<polygon fill="#010101" stroke="#010101" stroke-width="1.25" points="175.848,55.856 183.65,41.421 186.351,45.39 
			203.034,34.043 206.506,39.149 189.824,50.498 192.528,54.466 		"/>
	</g>
	<g>
		<polygon fill="#010101" stroke="#010101" stroke-width="1.25" points="229.444,20.098 238.529,6.433 240.856,10.631 258.503,0.85 
			261.497,6.25 243.851,16.033 246.184,20.231 		"/>
	</g>
</g>
</svg>
