<?xml version="1.0" encoding="utf-8"?>
<!-- Generator: Adobe Illustrator 12.0.0, SVG Export Plug-In . SVG Version: 6.00 Build 51448)  -->
<!DOCTYPE svg PUBLIC "-//W3C//DTD SVG 1.1//EN" "http://www.w3.org/Graphics/SVG/1.1/DTD/svg11.dtd" [
	<!ENTITY ns_svg "http://www.w3.org/2000/svg">
	<!ENTITY ns_xlink "http://www.w3.org/1999/xlink">
]>
<svg  version="1.1" id="Layer_1" xmlns="&ns_svg;" xmlns:xlink="&ns_xlink;" width="621.254" height="261.767"
	 viewBox="0 0 621.254 261.767" overflow="visible" enable-background="new 0 0 621.254 261.767" xml:space="preserve">
<g>
	<path fill="none" d="M18.638,236.375c91.152-3.808,246.718-8.833,373.244,20.113c126.531,28.937,206.379-67.082,224.454-142.387
		C634.397,38.768,596.701,1.659,512.355,1.659"/>
	<g>
		<polygon fill="#010101" stroke="#010101" stroke-width="1.25" points="505.916,7.074 521.146,0.963 520.684,5.74 540.767,7.682 
			540.173,13.827 520.09,11.889 519.633,16.669 		"/>
	</g>
	<g>
		<polygon fill="#010101" stroke="#010101" stroke-width="1.25" points="567.846,15.34 584.255,15.268 582.066,19.539 
			600.022,28.74 597.206,34.235 579.249,25.037 577.063,29.313 		"/>
	</g>
	<g>
		<polygon fill="#010101" stroke="#010101" stroke-width="1.25" points="610.546,53.874 620.146,67.182 615.397,67.885 
			618.351,87.844 612.243,88.748 609.287,68.79 604.537,69.498 		"/>
	</g>
	<g>
		<polygon fill="#010101" stroke="#010101" stroke-width="1.25" points="609.727,115.213 612.026,131.461 607.497,129.872 
			600.818,148.911 594.992,146.868 601.668,127.828 597.135,126.243 		"/>
	</g>
	<g>
		<polygon fill="#010101" stroke="#010101" stroke-width="1.25" points="583.869,172.427 580.94,188.573 577.141,185.64 
			564.812,201.611 559.924,197.838 572.251,181.866 568.447,178.935 		"/>
	</g>
	<g>
		<polygon fill="#010101" stroke="#010101" stroke-width="1.25" points="540.691,218.061 533.581,232.85 530.696,229.013 
			514.569,241.138 510.859,236.204 526.984,224.077 524.095,220.241 		"/>
	</g>
	<g>
		<polygon fill="#010101" stroke="#010101" stroke-width="1.25" points="486.579,248.115 473.967,258.613 472.938,253.925 
			453.23,258.253 451.906,252.222 471.612,247.892 470.577,243.203 		"/>
	</g>
	<g>
		<polygon fill="#010101" stroke="#010101" stroke-width="1.25" points="424.426,254.333 408.99,259.902 409.62,255.143 
			389.618,252.494 390.43,246.373 410.431,249.02 411.057,244.258 		"/>
	</g>
	<g>
		<polygon fill="#010101" stroke="#010101" stroke-width="1.25" points="360.561,244.811 344.806,249.4 345.733,244.691 
			325.938,240.791 327.132,234.732 346.928,238.63 347.852,233.917 		"/>
	</g>
	<g>
		<polygon fill="#010101" stroke="#010101" stroke-width="1.25" points="295.861,235.484 280.488,241.223 281.066,236.458 
			261.036,234.03 261.779,227.901 281.809,230.327 282.382,225.558 		"/>
	</g>
	<g>
		<polygon fill="#010101" stroke="#010101" stroke-width="1.25" points="230.808,230.199 215.769,236.764 216.087,231.975 
			195.955,230.637 196.364,224.477 216.497,225.812 216.81,221.02 		"/>
	</g>
	<g>
		<polygon fill="#010101" stroke="#010101" stroke-width="1.25" points="165.646,227.954 150.883,235.118 151.008,230.319 
			130.839,229.791 131,223.619 151.17,224.144 151.291,219.343 		"/>
	</g>
	<g>
		<polygon fill="#010101" stroke="#010101" stroke-width="1.25" points="100.502,228.046 85.952,235.633 85.939,230.833 
			65.763,230.887 65.746,224.712 85.922,224.657 85.904,219.854 		"/>
	</g>
	<g>
		<polygon fill="#010101" stroke="#010101" stroke-width="1.25" points="35.449,229.84 21.04,237.692 20.939,232.893 0.768,233.315 
			0.638,227.142 20.81,226.717 20.705,221.917 		"/>
	</g>
</g>
</svg>
