<?xml version="1.0" encoding="utf-8"?>
<!-- Generator: Adobe Illustrator 12.0.0, SVG Export Plug-In . SVG Version: 6.00 Build 51448)  -->
<!DOCTYPE svg PUBLIC "-//W3C//DTD SVG 1.1//EN" "http://www.w3.org/Graphics/SVG/1.1/DTD/svg11.dtd" [
	<!ENTITY ns_svg "http://www.w3.org/2000/svg">
	<!ENTITY ns_xlink "http://www.w3.org/1999/xlink">
]>
<svg  version="1.1" id="Layer_1" xmlns="&ns_svg;" xmlns:xlink="&ns_xlink;" width="208.808" height="503.318"
	 viewBox="0 0 208.808 503.318" overflow="visible" enable-background="new 0 0 208.808 503.318" xml:space="preserve">
<g>
	<g>
		<path fill="none" d="M42.188,17.119C338.761,119.714,134.252,525.978,0,501.071"/>
		<g>
			<polygon fill="#010101" stroke="#010101" stroke-width="1.25" points="44.771,500.237 55.559,487.873 57.319,492.338 
				76.09,484.94 78.354,490.684 59.584,498.084 61.35,502.55 			"/>
		</g>
		<g>
			<polygon fill="#010101" stroke="#010101" stroke-width="1.25" points="100.261,462.92 104.849,447.165 108.324,450.476 
				122.243,435.871 126.713,440.13 112.795,454.738 116.275,458.047 			"/>
		</g>
		<g>
			<polygon fill="#010101" stroke="#010101" stroke-width="1.25" points="142.211,411.793 143.372,395.425 147.466,397.928 
				157.991,380.714 163.258,383.935 152.737,401.15 156.836,403.651 			"/>
		</g>
		<g>
			<polygon fill="#010101" stroke="#010101" stroke-width="1.25" points="172.683,353.162 170.64,336.879 175.144,338.54 
				182.123,319.609 187.916,321.744 180.94,340.676 185.448,342.333 			"/>
		</g>
		<g>
			<polygon fill="#010101" stroke="#010101" stroke-width="1.25" points="192.158,290.478 188.018,274.599 192.699,275.66 
				197.16,255.983 203.181,257.348 198.723,277.026 203.408,278.083 			"/>
		</g>
		<g>
			<polygon fill="#010101" stroke="#010101" stroke-width="1.25" points="199.403,224.93 191.954,210.309 196.753,210.341 
				196.891,190.166 203.065,190.207 202.93,210.383 207.733,210.411 			"/>
		</g>
		<g>
			<polygon fill="#010101" stroke="#010101" stroke-width="1.25" points="191.248,159.259 180.245,147.085 184.887,145.865 
				179.759,126.351 185.731,124.782 190.861,144.295 195.504,143.07 			"/>
		</g>
		<g>
			<polygon fill="#010101" stroke="#010101" stroke-width="1.25" points="162.977,99.5 148.671,91.461 152.684,88.827 
				141.612,71.96 146.774,68.572 157.847,85.438 161.86,82.798 			"/>
		</g>
		<g>
			<polygon fill="#010101" stroke="#010101" stroke-width="1.25" points="117.518,51.108 101.35,48.306 104.253,44.483 
				88.187,32.279 91.921,27.362 107.99,39.564 110.89,35.737 			"/>
		</g>
		<g>
			<polygon fill="#010101" stroke="#010101" stroke-width="1.25" points="60.151,18.77 43.752,19.372 45.802,15.032 27.558,6.415 
				30.195,0.832 48.44,9.447 50.486,5.102 			"/>
		</g>
	</g>
</g>
</svg>
