<?xml version="1.0" encoding="utf-8"?>
<!-- Generator: Adobe Illustrator 12.0.0, SVG Export Plug-In . SVG Version: 6.00 Build 51448)  -->
<!DOCTYPE svg PUBLIC "-//W3C//DTD SVG 1.1//EN" "http://www.w3.org/Graphics/SVG/1.1/DTD/svg11.dtd" [
	<!ENTITY ns_svg "http://www.w3.org/2000/svg">
	<!ENTITY ns_xlink "http://www.w3.org/1999/xlink">
]>
<svg  version="1.1" id="Layer_1" xmlns="&ns_svg;" xmlns:xlink="&ns_xlink;" width="503.442" height="483.041"
	 viewBox="0 0 503.442 483.041" overflow="visible" enable-background="new 0 0 503.442 483.041" xml:space="preserve">
<g>
	<g>
		<path fill="none" d="M137.336,90.42c0,0,165.555-134.924,271.711-45.134c134.361,113.671,127.54,435.21-231.337,423.551
			c-310.39-10.107-97.677-378.3-24.239-378.3"/>
		<g>
			<polygon fill="#010101" stroke="#010101" stroke-width="1.25" points="118.086,101.756 111.948,116.975 108.821,113.333 
				93.513,126.476 89.491,121.791 104.797,108.646 101.666,105.006 			"/>
		</g>
		<g>
			<polygon fill="#010101" stroke="#010101" stroke-width="1.25" points="73.558,150.908 71.625,167.203 67.652,164.509 
				56.326,181.206 51.216,177.74 62.541,161.041 58.563,158.35 			"/>
		</g>
		<g>
			<polygon fill="#010101" stroke="#010101" stroke-width="1.25" points="40.794,207.967 41.385,224.366 37.046,222.313 
				28.417,240.551 22.836,237.91 31.463,219.671 27.12,217.622 			"/>
		</g>
		<g>
			<polygon fill="#010101" stroke="#010101" stroke-width="1.25" points="17.918,269.71 21.424,285.741 16.789,284.495 
				11.55,303.979 5.587,302.375 10.824,282.891 6.185,281.649 			"/>
		</g>
		<g>
			<polygon fill="#010101" stroke="#010101" stroke-width="1.25" points="8.446,335.567 16.79,349.697 11.997,349.962 
				13.115,370.108 6.95,370.451 5.83,350.305 1.035,350.577 			"/>
		</g>
		<g>
			<polygon fill="#010101" stroke="#010101" stroke-width="1.25" points="24.099,400.725 38.149,409.202 34.058,411.71 
				44.603,428.912 39.339,432.138 28.792,414.939 24.7,417.454 			"/>
		</g>
		<g>
			<polygon fill="#010101" stroke="#010101" stroke-width="1.25" points="70.992,449.189 87.397,448.822 85.286,453.132 
				103.404,462.009 100.688,467.554 82.568,458.679 80.459,462.994 			"/>
		</g>
		<g>
			<polygon fill="#010101" stroke="#010101" stroke-width="1.25" points="134.278,469.874 149.694,464.252 149.08,469.012 
				169.091,471.594 168.301,477.717 148.29,475.139 147.681,479.902 			"/>
		</g>
		<g>
			<polygon fill="#010101" stroke="#010101" stroke-width="1.25" points="199.825,474.013 214.257,466.204 214.344,471.003 
				234.517,470.639 234.628,476.813 214.456,477.179 214.547,481.981 			"/>
		</g>
		<g>
			<polygon fill="#010101" stroke="#010101" stroke-width="1.25" points="265.404,469.452 278.5,459.563 279.307,464.295 
				299.196,460.907 300.233,466.994 280.344,470.384 281.155,475.118 			"/>
		</g>
		<g>
			<polygon fill="#010101" stroke="#010101" stroke-width="1.25" points="329.434,454.268 340.62,442.261 342.233,446.783 
				361.235,440.001 363.312,445.816 344.31,452.6 345.928,457.122 			"/>
		</g>
		<g>
			<polygon fill="#010101" stroke="#010101" stroke-width="1.25" points="388.925,426.103 397.585,412.166 400.04,416.29 
				417.378,405.97 420.535,411.276 403.199,421.597 405.659,425.722 			"/>
		</g>
		<g>
			<polygon fill="#010101" stroke="#010101" stroke-width="1.25" points="439.068,382.896 443.061,366.979 446.657,370.158 
				460.018,355.039 464.645,359.126 451.286,374.248 454.888,377.423 			"/>
		</g>
		<g>
			<polygon fill="#010101" stroke="#010101" stroke-width="1.25" points="474.908,327.098 473.964,310.715 478.346,312.674 
				486.58,294.255 492.217,296.775 483.984,315.195 488.371,317.151 			"/>
		</g>
		<g>
			<polygon fill="#010101" stroke="#010101" stroke-width="1.25" points="492.371,263.158 486.641,247.782 491.405,248.362 
				493.845,228.333 499.974,229.08 497.536,249.108 502.304,249.684 			"/>
		</g>
		<g>
			<polygon fill="#010101" stroke="#010101" stroke-width="1.25" points="492.492,196.775 482.687,183.618 487.423,182.841 
				484.157,162.931 490.251,161.932 493.519,181.841 498.257,181.059 			"/>
		</g>
		<g>
			<polygon fill="#010101" stroke="#010101" stroke-width="1.25" points="475.883,133.122 463.868,121.946 468.387,120.329 
				461.59,101.332 467.403,99.251 474.203,118.248 478.723,116.625 			"/>
		</g>
		<g>
			<polygon fill="#010101" stroke="#010101" stroke-width="1.25" points="443.249,75.618 428.523,68.376 432.386,65.526 
				420.404,49.292 425.372,45.625 437.355,61.858 441.217,59.002 			"/>
		</g>
		<g>
			<polygon fill="#010101" stroke="#010101" stroke-width="1.25" points="395.144,29.783 378.799,28.321 381.378,24.273 
				364.36,13.433 367.678,8.226 384.696,19.063 387.271,15.01 			"/>
		</g>
		<g>
			<polygon fill="#010101" stroke="#010101" stroke-width="1.25" points="331.104,9.564 316.404,16.859 316.487,12.06 
				296.314,11.711 296.421,5.538 316.594,5.884 316.672,1.082 			"/>
		</g>
		<g>
			<polygon fill="#010101" stroke="#010101" stroke-width="1.25" points="265.647,18.07 253.354,28.939 252.185,24.284 
				232.616,29.198 231.112,23.21 250.68,18.293 249.506,13.637 			"/>
		</g>
		<g>
			<polygon fill="#010101" stroke="#010101" stroke-width="1.25" points="204.021,41.732 194.337,54.98 192.199,50.683 
				174.135,59.669 171.384,54.141 189.447,45.152 187.304,40.855 			"/>
		</g>
		<g>
			<polygon fill="#010101" stroke="#010101" stroke-width="1.25" points="147.149,75.29 140.052,90.084 137.164,86.25 
				121.047,98.389 117.333,93.457 133.448,81.316 130.555,77.483 			"/>
		</g>
	</g>
</g>
</svg>
