<?xml version="1.0" encoding="utf-8"?>
<!-- Generator: Adobe Illustrator 12.0.0, SVG Export Plug-In . SVG Version: 6.00 Build 51448)  -->
<!DOCTYPE svg PUBLIC "-//W3C//DTD SVG 1.1//EN" "http://www.w3.org/Graphics/SVG/1.1/DTD/svg11.dtd" [
	<!ENTITY ns_svg "http://www.w3.org/2000/svg">
	<!ENTITY ns_xlink "http://www.w3.org/1999/xlink">
]>
<svg  version="1.1" id="Layer_1" xmlns="&ns_svg;" xmlns:xlink="&ns_xlink;" width="550.657" height="551.123"
	 viewBox="0 0 550.657 551.123" overflow="visible" enable-background="new 0 0 550.657 551.123" xml:space="preserve">
<g>
	<g>
		<path fill="none" d="M14.296,69.177c60.7,12.213,208,418,208,418"/>
		<g>
			<polygon fill="#010101" stroke="#010101" stroke-width="1.25" points="227.942,485.413 215.989,474.169 220.518,472.578 
				213.827,453.543 219.652,451.496 226.345,470.53 230.874,468.932 			"/>
		</g>
		<g>
			<polygon fill="#010101" stroke="#010101" stroke-width="1.25" points="205.003,424.525 192.883,413.462 197.387,411.803 
				190.411,392.871 196.205,390.736 203.183,409.667 207.687,408.002 			"/>
		</g>
		<g>
			<polygon fill="#010101" stroke="#010101" stroke-width="1.25" points="181.198,363.952 168.875,353.116 173.347,351.373 
				166.022,332.573 171.776,330.332 179.103,349.13 183.576,347.382 			"/>
		</g>
		<g>
			<polygon fill="#010101" stroke="#010101" stroke-width="1.25" points="156.379,303.824 143.92,293.145 148.37,291.345 
				140.807,272.64 146.531,270.326 154.096,289.03 158.546,287.225 			"/>
		</g>
		<g>
			<polygon fill="#010101" stroke="#010101" stroke-width="1.25" points="130.434,244.079 117.689,233.742 122.088,231.823 
				114.021,213.33 119.68,210.861 127.75,229.353 132.15,227.428 			"/>
		</g>
		<g>
			<polygon fill="#010101" stroke="#010101" stroke-width="1.25" points="102.69,185.067 89.534,175.261 93.851,173.163 
				85.033,155.016 90.587,152.317 99.407,170.463 103.724,168.36 			"/>
		</g>
		<g>
			<polygon fill="#010101" stroke="#010101" stroke-width="1.25" points="71.916,127.334 58.009,118.622 62.143,116.183 
				51.888,98.807 57.206,95.668 67.462,113.043 71.596,110.598 			"/>
		</g>
		<g>
			<polygon fill="#010101" stroke="#010101" stroke-width="1.25" points="31.986,72.686 15.614,71.576 18.105,67.473 0.858,57.002 
				4.063,51.724 21.311,62.193 23.798,58.085 			"/>
		</g>
	</g>
	<g>
		<path fill="none" d="M168.296,35.177c0,0,264.02-77.048,340,68c75.997,145.04-7.104,272.945-90,342
			c-82.878,69.073-242,102-242,102"/>
		<g>
			<polygon fill="#010101" stroke="#010101" stroke-width="1.25" points="206.747,545.91 218.973,534.963 220.17,539.612 
				239.708,534.576 241.25,540.554 221.712,545.593 222.916,550.242 			"/>
		</g>
		<g>
			<polygon fill="#010101" stroke="#010101" stroke-width="1.25" points="269.199,526.868 280.756,515.217 282.227,519.787 
				301.433,513.604 303.324,519.481 284.12,525.667 285.596,530.236 			"/>
		</g>
		<g>
			<polygon fill="#010101" stroke="#010101" stroke-width="1.25" points="330.263,503.368 340.795,490.784 342.646,495.212 
				361.262,487.43 363.643,493.127 345.028,500.912 346.886,505.34 			"/>
		</g>
		<g>
			<polygon fill="#010101" stroke="#010101" stroke-width="1.25" points="389.059,473.127 396.813,458.666 399.526,462.625 
				416.171,451.223 419.661,456.316 403.018,467.721 405.735,471.68 			"/>
		</g>
		<g>
			<polygon fill="#010101" stroke="#010101" stroke-width="1.25" points="440.617,432.533 446.401,417.176 449.611,420.745 
				464.611,407.25 468.741,411.84 453.743,425.336 456.958,428.903 			"/>
		</g>
		<g>
			<polygon fill="#010101" stroke="#010101" stroke-width="1.25" points="484.934,383.272 486.928,366.984 490.891,369.694 
				502.279,353.04 507.376,356.525 495.989,373.18 499.956,375.887 			"/>
		</g>
		<g>
			<polygon fill="#010101" stroke="#010101" stroke-width="1.25" points="518.245,326.652 517.806,310.248 522.126,312.341 
				530.924,294.184 536.48,296.876 527.685,315.035 532.008,317.125 			"/>
		</g>
		<g>
			<polygon fill="#010101" stroke="#010101" stroke-width="1.25" points="538.848,263.738 533.955,248.075 538.682,248.912 
				542.198,229.044 548.278,230.12 544.764,249.988 549.493,250.82 			"/>
		</g>
		<g>
			<polygon fill="#010101" stroke="#010101" stroke-width="1.25" points="542.201,197.286 532.633,183.955 537.382,183.263 
				534.475,163.297 540.585,162.407 543.495,182.373 548.246,181.676 			"/>
		</g>
		<g>
			<polygon fill="#010101" stroke="#010101" stroke-width="1.25" points="526.659,133.229 514.417,122.302 518.902,120.593 
				511.716,101.74 517.485,99.541 524.674,118.393 529.159,116.677 			"/>
		</g>
		<g>
			<polygon fill="#010101" stroke="#010101" stroke-width="1.25" points="495.222,74.55 479.839,68.835 483.394,65.609 
				469.832,50.669 474.403,46.52 487.967,61.457 491.52,58.226 			"/>
		</g>
		<g>
			<polygon fill="#010101" stroke="#010101" stroke-width="1.25" points="442.375,34.182 425.967,34.315 428.14,30.035 
				410.149,20.9 412.945,15.395 430.937,24.528 433.106,20.244 			"/>
		</g>
		<g>
			<polygon fill="#010101" stroke="#010101" stroke-width="1.25" points="378.961,14.106 363.427,19.393 364.144,14.646 
				344.194,11.632 345.116,5.527 365.066,8.539 365.779,3.79 			"/>
		</g>
		<g>
			<polygon fill="#010101" stroke="#010101" stroke-width="1.25" points="313.437,9.366 298.834,16.853 298.854,12.053 
				278.679,11.967 278.704,5.792 298.88,5.876 298.896,1.074 			"/>
		</g>
		<g>
			<polygon fill="#010101" stroke="#010101" stroke-width="1.25" points="247.894,13.619 234.38,22.926 233.781,18.164 
				213.762,20.683 212.991,14.557 233.009,12.036 232.405,7.271 			"/>
		</g>
		<g>
			<polygon fill="#010101" stroke="#010101" stroke-width="1.25" points="183.174,24.979 170.938,35.914 169.744,31.264 
				150.202,36.281 148.666,30.301 168.208,25.281 167.009,20.631 			"/>
		</g>
	</g>
</g>
</svg>
