<?xml version="1.0" encoding="utf-8"?>
<!-- Generator: Adobe Illustrator 12.0.0, SVG Export Plug-In . SVG Version: 6.00 Build 51448)  -->
<!DOCTYPE svg PUBLIC "-//W3C//DTD SVG 1.1//EN" "http://www.w3.org/Graphics/SVG/1.1/DTD/svg11.dtd" [
	<!ENTITY ns_svg "http://www.w3.org/2000/svg">
	<!ENTITY ns_xlink "http://www.w3.org/1999/xlink">
]>
<svg  version="1.1" id="Layer_1" xmlns="&ns_svg;" xmlns:xlink="&ns_xlink;" width="143.848" height="14.153"
	 viewBox="0 0 143.848 14.153" overflow="visible" enable-background="new 0 0 143.848 14.153" xml:space="preserve">
<g>
	<path fill="none" d="M10.974,9.236l132.875,3.906"/>
	<g>
		<polygon fill="#010101" stroke="#010101" stroke-width="0.75" points="138.197,9.423 129.26,13.554 129.389,10.677 
			117.296,10.134 117.462,6.433 129.556,6.975 129.682,4.097 		"/>
	</g>
	<g>
		<polygon fill="#010101" stroke="#010101" stroke-width="0.75" points="99.23,8.277 90.293,12.408 90.422,9.531 78.33,8.988 
			78.496,5.287 90.589,5.829 90.715,2.95 		"/>
	</g>
	<g>
		<polygon fill="#010101" stroke="#010101" stroke-width="0.75" points="60.262,7.132 51.325,11.263 51.454,8.386 39.36,7.843 
			39.527,4.142 51.621,4.684 51.747,1.806 		"/>
	</g>
	<g>
		<polygon fill="#010101" stroke="#010101" stroke-width="0.75" points="21.293,5.985 12.356,10.117 12.485,7.24 0.392,6.696 
			0.558,2.996 12.652,3.538 12.778,0.659 		"/>
	</g>
</g>
</svg>
