<?xml version="1.0" encoding="utf-8"?>
<!-- Generator: Adobe Illustrator 12.0.0, SVG Export Plug-In . SVG Version: 6.00 Build 51448)  -->
<!DOCTYPE svg PUBLIC "-//W3C//DTD SVG 1.1//EN" "http://www.w3.org/Graphics/SVG/1.1/DTD/svg11.dtd" [
	<!ENTITY ns_svg "http://www.w3.org/2000/svg">
	<!ENTITY ns_xlink "http://www.w3.org/1999/xlink">
]>
<svg  version="1.1" id="Layer_1" xmlns="&ns_svg;" xmlns:xlink="&ns_xlink;" width="465.962" height="579.349"
	 viewBox="0 0 465.962 579.349" overflow="visible" enable-background="new 0 0 465.962 579.349" xml:space="preserve">
<g>
	<g>
		<path fill="none" d="M18.971,413.336c0,0,346.747-25.257,415.63-16.015c68.891,9.135-96.446,151.541-190.594,169.915
			c-34.45-78.081,0-567.236,0-567.236"/>
		<g>
			<polygon fill="#010101" stroke="#010101" stroke-width="1.25" points="236.546,23.422 242.922,38.542 238.137,38.164 
				236.546,58.278 230.391,57.791 231.979,37.677 227.191,37.304 			"/>
		</g>
		<g>
			<polygon fill="#010101" stroke="#010101" stroke-width="1.25" points="232.645,88.332 239.157,103.394 234.368,103.059 
				232.96,123.186 226.801,122.755 228.207,102.628 223.416,102.298 			"/>
		</g>
		<g>
			<polygon fill="#010101" stroke="#010101" stroke-width="1.25" points="229.286,153.275 235.937,168.276 231.145,167.985 
				229.921,188.125 223.758,187.75 224.979,167.611 220.186,167.325 			"/>
		</g>
		<g>
			<polygon fill="#010101" stroke="#010101" stroke-width="1.25" points="226.509,218.241 233.278,233.189 228.484,232.937 
				227.421,253.084 221.255,252.759 222.316,232.611 217.521,232.363 			"/>
		</g>
		<g>
			<polygon fill="#010101" stroke="#010101" stroke-width="1.25" points="224.382,283.24 231.301,298.119 226.506,297.915 
				225.645,318.072 219.476,317.81 220.334,297.651 215.536,297.451 			"/>
		</g>
		<g>
			<polygon fill="#010101" stroke="#010101" stroke-width="1.25" points="223.106,348.273 230.22,363.061 225.422,362.919 
				224.824,383.086 218.652,382.903 219.248,362.736 214.447,362.599 			"/>
		</g>
		<g>
			<polygon fill="#010101" stroke="#010101" stroke-width="1.25" points="223.029,413.426 230.586,427.992 225.786,427.995 
				225.797,448.171 219.622,448.175 219.608,427.998 214.807,428.006 			"/>
		</g>
		<g>
			<polygon fill="#010101" stroke="#010101" stroke-width="1.25" points="225.04,478.661 233.331,492.822 228.537,493.07 
				229.579,513.22 223.413,513.539 222.368,493.39 217.573,493.643 			"/>
		</g>
		<g>
			<polygon fill="#010101" stroke="#010101" stroke-width="1.25" points="232.552,543.843 242.69,556.745 237.976,557.643 
				241.747,577.464 235.682,578.618 231.907,558.798 227.19,559.7 			"/>
		</g>
		<g>
			<polygon fill="#010101" stroke="#010101" stroke-width="1.25" points="283.541,559.389 294.349,547.041 296.102,551.509 
				314.884,544.141 317.139,549.889 298.357,557.26 300.115,561.729 			"/>
		</g>
		<g>
			<polygon fill="#010101" stroke="#010101" stroke-width="1.25" points="342.052,529.025 350.379,514.886 352.931,518.951 
				370.02,508.224 373.303,513.453 356.215,524.183 358.772,528.247 			"/>
		</g>
		<g>
			<polygon fill="#010101" stroke="#010101" stroke-width="1.25" points="395.423,490.671 401.729,475.521 404.814,479.198 
				420.268,466.226 424.238,470.954 408.787,483.929 411.878,487.604 			"/>
		</g>
		<g>
			<polygon fill="#010101" stroke="#010101" stroke-width="1.25" points="441.072,443.163 444.044,427.025 447.836,429.968 
				460.207,414.03 465.085,417.815 452.715,433.756 456.512,436.696 			"/>
		</g>
		<g>
			<polygon fill="#010101" stroke="#010101" stroke-width="1.25" points="425.592,390.455 410.611,397.152 410.888,392.36 
				390.744,391.199 391.1,385.035 411.243,386.193 411.514,381.398 			"/>
		</g>
		<g>
			<polygon fill="#010101" stroke="#010101" stroke-width="1.25" points="360.29,389.69 345.722,397.244 345.72,392.443 
				325.544,392.452 325.541,386.277 345.718,386.267 345.711,381.465 			"/>
		</g>
		<g>
			<polygon fill="#010101" stroke="#010101" stroke-width="1.25" points="295.22,391.577 280.822,399.448 280.715,394.649 
				260.543,395.101 260.405,388.928 280.576,388.475 280.464,383.674 			"/>
		</g>
		<g>
			<polygon fill="#010101" stroke="#010101" stroke-width="1.25" points="230.229,394.445 215.936,402.505 215.766,397.708 
				195.602,398.422 195.383,392.252 215.547,391.534 215.371,386.735 			"/>
		</g>
		<g>
			<polygon fill="#010101" stroke="#010101" stroke-width="1.25" points="165.308,397.948 151.078,406.12 150.87,401.324 
				130.713,402.198 130.445,396.029 150.603,395.153 150.39,390.355 			"/>
		</g>
		<g>
			<polygon fill="#010101" stroke="#010101" stroke-width="1.25" points="100.417,401.91 86.233,410.163 85.999,405.369 
				65.846,406.357 65.544,400.19 85.696,399.199 85.456,394.403 			"/>
		</g>
		<g>
			<polygon fill="#010101" stroke="#010101" stroke-width="1.25" points="35.543,406.218 21.418,414.569 21.149,409.777 
				1.004,410.905 0.659,404.741 20.804,403.609 20.53,398.815 			"/>
		</g>
	</g>
</g>
</svg>
