<svg xmlns="http://www.w3.org/2000/svg" width="2144.721" height="427.105" overflow="visible" xml:space="preserve"><path fill="none" d="M1613.835 55.02c-6.116.196-7.11 14.214-6.06 19.085 1.05 4.872 15.633 2.695 15.085-7.355-.443-8.149-2.908-11.926-9.025-11.73z"/><path d="M1615.603 53.252c-4.599.49-8.205 7.038-9.165 10.926-.845 3.424-1.002 7.146-.607 10.643.308 2.718 2.359 3.488 4.875 3.543 5.171.114 9.898-4.269 12.665-8.291 2.256-3.278 1.257-8.315.08-11.798-1.216-3.597-4.252-5.027-7.848-5.023-1.206.001-2.383 3.534-3.535 3.535 5.975-.007 8.119 4.096 8.842 9.52.383 2.873.2 5.449-1.47 7.877 1.825-1.661 2.161-2.067 1.006-1.221-.563.387-1.193.666-1.813.943-1.002.449-2.089.677-3.167.84-4.313.652-6.036-1.402-6.258-5.385-.264-4.737.268-10.812 3.397-14.61l-2.221 2.255.426-.423-1.315 1.281c.808-.641 1.546-.968 2.573-1.078 1.312-.138 2.27-3.399 3.535-3.534z"/><path fill="none" d="M1840.285 25.616s5.201-2.932 7.328-1.409c2.129 1.519 2.275 6.019.756 7.232-1.52 1.213-6.363 1.653-10.619 3.478-10.482 4.492 40.635 1.822 49.398 3.907"/><path d="M1838.517 27.383c2.018-1.096 4.193-1.962 6.518-1.762 3.15.271 2.975 5.874 1.566 7.585l3.535-3.535c-3.561 2.097-8.426 1.586-11.77 4.121-1.318 1-2.49 2.399-3.618 3.612-1.116 1.2 8.565 1.883 9.235 1.913 7.666.339 15.352.266 23.023.339 5.996.057 12.474-.348 18.373.935.912.198 2.687-3.72 3.535-3.535-9.369-2.037-19.922-.938-29.441-1.024-5.211-.047-10.434-.09-15.633-.457-.841-.06-6.124-1.105-5.979-1.252l-3.03 3.005c2.709-2.054 6.879-2.385 10.068-3.323 1.871-.55 3.055-2.105 4.377-3.443 1.898-1.92 2.215-3.883 1.334-6.523-1.25-3.749-6.283-1.427-8.559-.191-1.411.767-2.139 2.778-3.534 3.535z"/><path fill="none" d="M6.237 29.221s5.201-2.932 7.328-1.409c2.129 1.519 2.275 6.019.756 7.232-1.52 1.213-6.363 1.653-10.62 3.478-10.482 4.492 21.621-2.219 30.386-.135"/><path d="M4.469 30.989c2.018-1.096 4.193-1.962 6.517-1.762 3.151.271 2.975 5.874 1.567 7.585l3.535-3.535c-4.167 2.455-9.846 1.813-13.444 5.369-1.858 1.836-4.323 3.347-.428 3.202 9.795-.365 20.353-3.713 30.102-1.693.926.192 2.671-3.714 3.535-3.535-6.252-1.296-13.248-.017-19.509.653-3.129.335-6.254.713-9.391.964-.309.025-4.08.333-3.419-.451L0 41.321c2.599-2.044 6.543-2.552 9.647-3.356 2.604-.675 3.762-1.957 5.581-3.797 1.898-1.92 2.215-3.883 1.334-6.523-1.25-3.749-6.283-1.427-8.558-.191-1.412.767-2.141 2.778-3.535 3.535z"/><path fill="none" d="M24.884 38.208c5.457-.228 14.77-.528 22.344 1.204s12.354-4.016 13.437-8.523c1.081-4.51-1.176-6.731-6.225-6.731"/><path d="M23.117 39.976c6.433-.259 12.843-.276 19.234.614 5.524.77 9.477 1.401 13.78-2.72 4.724-4.523 11.462-15.001.076-15.481-1.154-.049-2.437 3.582-3.535 3.535 3.232.137 6.064.901 6.486 4.499.2 1.705-.622 3.534-1.348 5.017-.534 1.091-1.152 1.41-3.369 2.16-4.001 1.354-9.308-.734-13.393-1.088-4.78-.414-9.61-.264-14.397-.071-1.248.049-2.337 3.487-3.534 3.535z"/><path fill="none" d="M1887.646 15.728c-2.402-.687-9.758 2.732-10.148 8.978s3.123 12.881 10.539 12.491c7.417-.39 8.588-4.294 8.197-12.491s-3.123-7.416-8.588-8.978z"/><path d="M1889.414 13.96c-4.66-.776-9.131 4.593-11.834 7.768-2.777 3.262-2.115 8.153-.533 11.772 1.827 4.184 6.014 5.719 10.289 5.378 4.347-.346 9.122-4.713 10.301-8.879 1.016-3.585.735-8.586-.51-12.057-1.091-3.037-5.079-3.266-7.713-3.982-.83-.226-2.768 3.744-3.535 3.535 3.801 1.032 7.09 1.26 8.195 5.575 1.018 3.973 1.195 10.357-1.604 13.688l3.469-3.477c-3.797 3.509-10.271 2.603-13.709-.846-3.908-3.918-3.927-10.941-.473-14.999l-3.004 3.03c1.74-1.708 4.586-3.395 7.125-2.972.987.166 2.612-3.688 3.536-3.534z"/><path fill="none" d="M1526.618 35.57s28.357-2.066 33.99-1.311c5.635.748-7.887 12.393-15.586 13.896-2.816-6.387 0-46.389 0-46.389"/><path d="M1524.85 37.338c8.348-.605 16.709-1.119 25.075-1.39 1.769-.057 9.471-1.206 10.239 1.062.214.63-.422 1.52-.711 2.006-.713.893-.56.841.459-.154a37.692 37.692 0 0 1-2.503 2.063c-2.407 1.874-5.074 3.414-7.872 4.617-2.392 1.028-2.883 1.061-3.332-1.359-.35-1.887-.434-3.832-.531-5.744-.27-5.337-.138-10.701.01-16.041.207-7.47.584-14.942 1.105-22.397-.086 1.229-3.446 2.256-3.535 3.535a537.528 537.528 0 0 0-1.186 25.602c-.124 5.558-.197 11.166.349 16.706.135 1.367.055 4.266 1.715 3.874 3.185-.753 6.155-2.731 8.804-4.567 3.341-2.317 6.301-5.34 9.027-8.343 3.866-4.256-.26-4.475-3.925-4.48-9.881-.013-19.802.762-29.653 1.477-1.281.091-2.303 3.444-3.535 3.533z"/><path fill="none" d="M1669.426 25.965c3.041.611 7.904 13.381 7.904 13.381"/><path d="M1667.659 27.732c2.44.726 3.951 4.63 4.969 6.668a75.44 75.44 0 0 1 2.936 6.712c-.23-.602 3.79-2.869 3.535-3.535a84.64 84.64 0 0 0-2.689-6.21c-1.028-2.152-2.654-6.41-5.215-7.171-.793-.235-2.808 3.753-3.536 3.536z"/><path fill="none" d="M1676.803 23.771s9.131-6.558 12.938.709 2.734 10.01-1.418 13.469c-4.152 3.461-7.621 6.026-7.621 6.026"/><path d="M1675.036 25.539c4.969-3.484 10.609-3.935 13.595 2.02 1.575 3.143 2.466 6.517.434 9.616l1.7-1.577c-.938.806-1.89 1.596-2.854 2.372a198.58 198.58 0 0 1-2.797 2.219c-.873.684-1.754 1.357-2.645 2.019-1.327.986-2.217 2.556-3.535 3.535 3.182-2.364 6.428-4.775 9.28-7.532 2.001-1.934 4.439-3.919 5.407-6.597 1.481-4.103-2.071-10.987-6.122-12.175-2.912-.854-6.589.925-8.929 2.565-1.348.945-2.196 2.597-3.534 3.535z"/><path fill="none" d="M92.395 24.184s5.201-2.932 7.328-1.409c2.129 1.519 2.275 6.019.756 7.232-1.52 1.213-6.363 1.653-10.62 3.478-10.482 4.492 21.621-2.219 30.386-.135"/><path d="M90.627 25.951c2.018-1.096 4.193-1.962 6.517-1.762 3.151.271 2.976 5.874 1.567 7.585l3.535-3.535c-4.167 2.455-9.846 1.813-13.444 5.369-1.858 1.836-4.323 3.347-.428 3.202 9.795-.365 20.353-3.713 30.102-1.693.926.192 2.671-3.714 3.535-3.535-6.252-1.296-13.248-.017-19.509.653-3.129.335-6.254.713-9.391.964-.309.025-4.08.333-3.418-.451l-3.536 3.536c2.599-2.044 6.543-2.552 9.647-3.356 2.604-.675 3.762-1.957 5.581-3.797 1.898-1.92 2.215-3.883 1.334-6.523-1.25-3.749-6.283-1.427-8.558-.191-1.411.766-2.14 2.777-3.534 3.534z"/><path fill="none" d="M120.605 22.958s5.201-2.932 7.328-1.409c2.129 1.519 2.275 6.019.756 7.232-1.52 1.213-6.363 1.653-10.62 3.478-10.482 4.492 21.621-2.219 30.386-.135"/><path d="M118.838 24.725c2.018-1.096 4.193-1.962 6.517-1.762 3.151.271 2.975 5.874 1.567 7.585l3.535-3.535c-4.167 2.455-9.846 1.813-13.444 5.369-1.858 1.836-4.323 3.347-.428 3.202 9.795-.365 20.353-3.713 30.102-1.693.926.192 2.671-3.714 3.535-3.535-6.252-1.296-13.248-.017-19.509.653-3.129.335-6.254.713-9.391.964-.309.025-4.08.333-3.419-.451l-3.535 3.536c2.599-2.044 6.543-2.552 9.647-3.356 2.604-.675 3.762-1.957 5.581-3.797 1.898-1.92 2.215-3.883 1.334-6.523-1.25-3.749-6.283-1.427-8.558-.191-1.412.766-2.14 2.777-3.534 3.534z"/><path fill="none" d="M167.078 22.067s5.201-2.932 7.328-1.409c2.129 1.519 2.275 6.019.756 7.232-1.52 1.213-6.363 1.653-10.62 3.478-10.482 4.492 21.621-2.219 30.386-.135"/><path d="M165.311 23.835c2.018-1.096 4.193-1.962 6.517-1.762 3.151.271 2.976 5.874 1.567 7.585l3.535-3.535c-4.167 2.455-9.846 1.813-13.444 5.369-1.858 1.836-4.323 3.347-.428 3.202 9.795-.365 20.353-3.713 30.102-1.693.926.192 2.671-3.714 3.535-3.535-6.252-1.296-13.248-.017-19.509.653-3.129.335-6.254.713-9.391.964-.309.025-4.08.333-3.418-.451l-3.536 3.536c2.599-2.044 6.543-2.552 9.647-3.356 2.604-.675 3.762-1.957 5.581-3.797 1.898-1.92 2.215-3.883 1.334-6.523-1.25-3.749-6.283-1.427-8.558-.191-1.412.766-2.14 2.777-3.534 3.534z"/><path fill="none" d="M185.726 31.054c5.457-.228 14.77-.528 22.344 1.204s12.354-4.016 13.437-8.523c1.081-4.51-1.176-6.731-6.225-6.731"/><path d="M183.958 32.822c6.434-.258 12.844-.275 19.234.615 5.524.77 9.477 1.401 13.78-2.72 4.724-4.523 11.462-15.001.076-15.481-1.154-.049-2.437 3.582-3.535 3.535 3.232.137 6.064.901 6.486 4.499.2 1.705-.622 3.534-1.348 5.017-.534 1.091-1.152 1.41-3.369 2.16-4.001 1.354-9.308-.734-13.393-1.088-4.78-.414-9.61-.264-14.397-.071-1.247.048-2.337 3.486-3.534 3.534z"/><path fill="none" d="M1257.09 185.154s6.82-5.559 11.195-1.859c5.535 4.683 5.254 17.93-9.531 17.449-12.787-.416-4.023-15.585-.998-15.585"/><path d="M1255.323 186.922c3.977-3.164 9.597-4.752 12.876.086 1.231 1.818 1.677 4.088 1.62 6.247-.029 1.126-.336 2.22-.74 3.261-.208.535-.516 1.023-.82 1.507-1.048 1.659 3.295-2.42.335-.657-3.962 2.357-13.026 3.157-14.649-2.454-.591-2.045.185-4.388.987-6.256.424-.986.991-1.907 1.602-2.786 1.275-1.84-3.06 2.547-1.516 1.428.293-.213.616-.33.972-.37 1.315-.145 2.267-3.396 3.535-3.535-1.821.2-3.702 2.915-4.846 4.082a16.508 16.508 0 0 0-3.89 6.287c-3.081 8.955 7.499 10.124 13.655 7.453 2.538-1.102 4.522-3.602 6.393-5.55 1.979-2.063 2.694-4.812 2.474-7.609-.239-3.036-1.957-6.039-4.709-7.405-3.073-1.525-7.357.839-9.743 2.737-1.299 1.032-2.245 2.507-3.536 3.534z"/><path fill="none" d="M726.705 6.357s6.821-5.559 11.194-1.859c5.536 4.683 5.254 17.93-9.531 17.449-12.788-.416-4.024-15.585-.999-15.585"/><path d="M724.937 8.125c3.976-3.164 9.596-4.752 12.875.086 1.231 1.817 1.676 4.088 1.62 6.247-.029 1.126-.335 2.219-.74 3.261-.208.535-.515 1.023-.82 1.506-1.048 1.66 3.294-2.42.335-.658-3.962 2.358-13.026 3.158-14.649-2.454-.592-2.044.185-4.388.987-6.256.424-.986.991-1.907 1.601-2.787 1.275-1.839-3.06 2.547-1.516 1.428.293-.212.616-.331.972-.37 1.315-.145 2.267-3.396 3.535-3.535-1.821.2-3.702 2.915-4.846 4.082a16.498 16.498 0 0 0-3.889 6.287c-3.082 8.955 7.5 10.124 13.655 7.453 2.538-1.102 4.522-3.602 6.393-5.549 1.979-2.063 2.694-4.812 2.474-7.609-.239-3.037-1.958-6.04-4.709-7.406-3.073-1.525-7.357.839-9.743 2.737-1.298 1.035-2.243 2.509-3.535 3.537z"/><path fill="none" d="M734.509 20.293c7.313-.228 19.791-.528 29.94 1.204s16.555-4.016 18.004-8.523c1.449-4.51-1.575-6.731-8.341-6.731"/><path d="M732.742 22.061c7.772-.235 15.535-.275 23.291.361 7.115.583 14.819 2.854 20.854-2.43 2.218-1.942 4.486-4.066 6.204-6.469 4.466-6.246-1.764-8.905-7.208-9.048-1.173-.031-2.417 3.565-3.535 3.535 3.499.093 8.398.408 8.694 4.813.121 1.797-1.051 3.628-2.041 5.012 1.216-1.7-1.171.322-1.574.538-1.14.608-2.403.933-3.642 1.256-5.996 1.565-13.256-.761-19.356-1.091-6.042-.327-12.106-.195-18.149-.012-1.241.037-2.352 3.499-3.538 3.535z"/><path fill="none" d="M1226.104 162.259s-17.135 9.563-16.549 18.914c.586 9.35 2.461 19.146 8.865 17.729 2.467-1.266 5.494-2.93 7.684-4.729 3.408-4.863 5.928-7.033 1.896-13.304-1.908-2.967-11.645 7.166-11.645 7.166"/><path d="M1227.872 160.491c-5.732 3.235-10.822 7.63-15.241 12.491-4.235 4.66-5.103 8.422-4.428 14.616.514 4.714 2.541 16.154 9.724 12.405 6.446-3.364 19.184-13.119 11.535-21.229-2.46-2.607-12.775 8.85-14.641 10.777-.643.664.564-.518.658-.609a157.62 157.62 0 0 0 2.412-2.426c-2.115 2.186 2.392-1.881 3.272-2.535 1.229-.916 2.768-1.983 4.368-1.848 2.014.172 2.768 5.189 2.737 6.695-.051 2.586-2.533 5.148-3.933 7.11l3.535-3.535c-3.614 2.769-8.765 7.177-12.698 2.84-3.448-3.802-3.514-11.067-3.851-15.84-.513-7.265 7.532-12.284 13.014-15.379 1.408-.792 2.148-2.749 3.537-3.533z"/><path fill="none" d="m1222.141 200.327 39.705 1.168"/><path d="m1220.374 202.095 39.705 1.168c1.17.034 2.421-3.568 3.535-3.535l-39.705-1.168c-1.17-.035-2.421 3.568-3.535 3.535z"/><path fill="none" d="M1383.277 28.855c5.457-.227 14.77-.527 22.344 1.205s12.354-4.016 13.436-8.523c1.082-4.51-1.176-6.732-6.225-6.732"/><path d="M1381.509 30.623c6.434-.257 12.844-.274 19.234.616 5.523.77 9.477 1.401 13.779-2.72 4.725-4.524 11.463-15.002.076-15.482-1.154-.049-2.438 3.582-3.535 3.535 3.232.137 6.064.902 6.486 4.499.2 1.705-.621 3.534-1.348 5.018-.534 1.09-1.151 1.409-3.368 2.159-4.001 1.354-9.308-.734-13.393-1.088-4.78-.415-9.61-.264-14.397-.072-1.247.049-2.336 3.487-3.534 3.535z"/><path fill="none" d="M1316.537 15.237s5.201-2.933 7.328-1.409c2.129 1.52 2.275 6.019.756 7.232-1.52 1.213-6.363 1.653-10.619 3.478-10.482 4.492 21.621-2.22 30.385-.135"/><path d="M1314.769 17.004c2.018-1.096 4.193-1.962 6.517-1.762 3.151.271 2.976 5.874 1.567 7.585l3.535-3.535c-4.167 2.454-9.846 1.813-13.443 5.369-1.857 1.836-4.322 3.347-.427 3.202 9.794-.365 20.352-3.713 30.101-1.693.926.192 2.671-3.714 3.535-3.535-6.251-1.296-13.247-.017-19.508.653-3.129.334-6.254.713-9.392.964-.309.024-4.079.333-3.418-.451l-3.536 3.536c2.599-2.044 6.543-2.552 9.646-3.357 2.604-.675 3.762-1.956 5.581-3.797 1.898-1.92 2.215-3.883 1.335-6.523-1.251-3.749-6.283-1.427-8.559-.191-1.412.768-2.14 2.778-3.534 3.535z"/><path fill="none" d="M1744.326 32.068s5.201-2.932 7.328-1.409c2.129 1.519 2.275 6.019.756 7.232-1.52 1.213-6.363 1.653-10.621 3.478-10.482 4.492 40.635 1.822 49.4 3.907"/><path d="M1742.558 33.836c2.018-1.096 4.193-1.962 6.516-1.762 3.152.271 2.977 5.874 1.568 7.585l3.535-3.535c-3.561 2.097-8.426 1.586-11.77 4.121-1.318 1-2.492 2.399-3.619 3.612-1.115 1.2 8.566 1.883 9.234 1.913 7.667.339 15.354.266 23.025.339 5.994.057 12.473-.348 18.373.935.91.198 2.686-3.72 3.535-3.535-9.369-2.037-19.922-.938-29.443-1.024-5.211-.047-10.432-.09-15.632-.457-.841-.06-6.124-1.105-5.979-1.252l-3.029 3.005c2.709-2.054 6.878-2.385 10.066-3.323 1.872-.55 3.055-2.105 4.377-3.443 1.898-1.92 2.216-3.883 1.335-6.523-1.251-3.749-6.282-1.427-8.558-.191-1.413.767-2.14 2.778-3.534 3.535z"/><path fill="none" d="M243.422 23.271s5.201-2.932 7.328-1.409c2.129 1.519 2.275 6.019.756 7.232-1.52 1.213-6.363 1.653-10.62 3.478-10.482 4.492 21.621-2.219 30.386-.135"/><path d="M241.654 25.039c2.018-1.096 4.193-1.962 6.517-1.762 3.151.271 2.976 5.874 1.567 7.585l3.535-3.535c-4.167 2.455-9.846 1.813-13.444 5.369-1.858 1.836-4.323 3.347-.428 3.202 9.795-.365 20.353-3.713 30.102-1.693.926.192 2.671-3.714 3.535-3.535-6.252-1.296-13.248-.017-19.509.653-3.129.335-6.254.713-9.391.964-.309.025-4.08.333-3.418-.451l-3.536 3.536c2.599-2.044 6.543-2.552 9.647-3.356 2.604-.675 3.762-1.957 5.581-3.797 1.898-1.92 2.215-3.883 1.334-6.523-1.25-3.749-6.283-1.427-8.558-.191-1.412.766-2.14 2.777-3.534 3.534z"/><path fill="none" d="M262.069 32.258c5.457-.228 14.77-.528 22.344 1.204s12.354-4.016 13.437-8.523c1.081-4.51-1.176-6.731-6.225-6.731"/><path d="M260.302 34.026c6.434-.258 12.844-.275 19.234.615 5.524.77 9.477 1.401 13.78-2.72 4.724-4.523 11.462-15.001.076-15.481-1.154-.049-2.437 3.582-3.535 3.535 3.232.137 6.064.901 6.486 4.498.2 1.706-.622 3.534-1.348 5.018-.534 1.09-1.152 1.409-3.369 2.159-4.001 1.354-9.308-.734-13.393-1.088-4.78-.414-9.61-.264-14.397-.071-1.248.05-2.337 3.487-3.534 3.535z"/><path fill="none" d="M1791.686 22.18c-2.403-.687-9.758 2.732-10.148 8.978s3.122 12.881 10.539 12.491 8.587-4.294 8.196-12.491c-.39-8.197-3.122-7.416-8.587-8.978z"/><path d="M1793.454 20.413c-4.661-.777-9.132 4.593-11.835 7.768-2.777 3.262-2.115 8.152-.533 11.772 1.828 4.184 6.014 5.719 10.289 5.378 4.348-.346 9.123-4.713 10.302-8.879 1.015-3.585.735-8.586-.511-12.057-1.09-3.038-5.079-3.267-7.712-3.982-.831-.226-2.769 3.744-3.535 3.535 3.8 1.032 7.09 1.26 8.195 5.575 1.018 3.973 1.194 10.357-1.604 13.688l3.468-3.477c-3.796 3.509-10.27 2.603-13.709-.846-3.908-3.918-3.926-10.941-.472-14.999l-3.005 3.03c1.74-1.708 4.587-3.395 7.126-2.972.986.165 2.611-3.689 3.536-3.534z"/><path fill="none" d="M329.078 22.067s5.201-2.932 7.328-1.409c2.129 1.519 2.275 6.019.756 7.232-1.52 1.213-6.363 1.653-10.62 3.478-10.482 4.492 21.621-2.219 30.386-.135"/><path d="M327.311 23.835c2.018-1.096 4.193-1.962 6.517-1.762 3.151.271 2.975 5.874 1.567 7.585l3.535-3.535c-4.167 2.455-9.846 1.813-13.444 5.369-1.858 1.836-4.323 3.347-.428 3.202 9.795-.365 20.353-3.713 30.102-1.693.926.192 2.671-3.714 3.535-3.535-6.252-1.296-13.248-.017-19.509.653-3.129.335-6.254.713-9.391.964-.309.025-4.08.333-3.419-.451l-3.535 3.536c2.599-2.044 6.543-2.552 9.647-3.356 2.604-.675 3.762-1.957 5.581-3.797 1.898-1.92 2.215-3.883 1.334-6.523-1.25-3.749-6.283-1.427-8.558-.191-1.412.766-2.14 2.777-3.534 3.534z"/><path fill="none" d="M347.726 31.054c5.457-.228 14.77-.528 22.344 1.204s12.354-4.016 13.437-8.523c1.081-4.51-1.176-6.731-6.225-6.731"/><path d="M345.958 32.822c6.434-.258 12.844-.275 19.234.615 5.524.77 9.477 1.401 13.78-2.72 4.724-4.523 11.462-15.001.076-15.481-1.154-.049-2.437 3.582-3.535 3.535 3.232.137 6.064.901 6.486 4.498.2 1.706-.622 3.534-1.348 5.017-.534 1.091-1.152 1.41-3.369 2.16-4.001 1.354-9.308-.734-13.393-1.088-4.78-.414-9.61-.264-14.397-.071-1.247.049-2.337 3.487-3.534 3.535z"/><path fill="none" d="M1726.751 168.401s-17.137 9.564-16.549 18.914c.586 9.352 2.461 19.146 8.863 17.729 2.467-1.266 5.496-2.93 7.686-4.729 3.408-4.863 5.928-7.032 1.896-13.303-1.908-2.967-11.645 7.166-11.645 7.166"/><path d="M1728.519 166.634c-5.733 3.236-10.822 7.63-15.242 12.492-4.235 4.66-5.102 8.422-4.427 14.616.514 4.713 2.54 16.153 9.722 12.404 6.446-3.364 19.187-13.117 11.537-21.227-2.46-2.608-12.775 8.85-14.641 10.776-.643.663.564-.517.658-.61.811-.801 1.619-1.605 2.412-2.425-2.115 2.185 2.392-1.881 3.272-2.536 1.229-.914 2.768-1.982 4.368-1.846 2.014.17 2.768 5.188 2.737 6.695-.051 2.584-2.533 5.146-3.933 7.108l3.535-3.535c-3.614 2.768-8.766 7.177-12.698 2.841-3.449-3.803-3.514-11.068-3.851-15.841-.513-7.265 7.532-12.284 13.014-15.379 1.408-.792 2.148-2.749 3.537-3.533z"/><path fill="none" d="M1785.555 181.173s6.822-5.559 11.195-1.859c5.535 4.682 5.254 17.93-9.531 17.449-12.787-.416-4.023-15.586-.998-15.586"/><path d="M1783.788 182.94c3.977-3.163 9.597-4.753 12.876.087 1.232 1.816 1.677 4.087 1.62 6.246-.029 1.126-.336 2.219-.74 3.261-.208.536-.516 1.023-.82 1.507-1.048 1.659 3.295-2.42.335-.658-3.962 2.359-13.026 3.158-14.649-2.453-.592-2.045.185-4.389.987-6.256.424-.987.991-1.908 1.602-2.787 1.275-1.84-3.06 2.547-1.516 1.428.293-.213.616-.33.972-.37 1.315-.145 2.267-3.396 3.535-3.535-1.821.2-3.702 2.915-4.846 4.082a16.512 16.512 0 0 0-3.89 6.288c-3.081 8.955 7.499 10.125 13.655 7.453 2.538-1.102 4.522-3.602 6.393-5.55 1.979-2.063 2.694-4.812 2.474-7.609-.239-3.036-1.957-6.04-4.708-7.405-3.073-1.525-7.358.84-9.744 2.737-1.3 1.032-2.244 2.506-3.536 3.534z"/><path fill="none" d="M419.686 19.323s5.201-2.932 7.328-1.409c2.129 1.519 2.275 6.019.756 7.232s-6.363 1.653-10.62 3.478c-10.482 4.492 21.621-2.219 30.386-.135"/><path d="M417.918 21.09c2.018-1.096 4.193-1.961 6.517-1.762 3.151.271 2.975 5.873 1.567 7.585l3.535-3.535c-4.167 2.455-9.846 1.813-13.444 5.369-1.858 1.837-4.323 3.347-.428 3.202 9.795-.365 20.353-3.713 30.102-1.693.926.192 2.671-3.715 3.535-3.535-6.252-1.296-13.248-.017-19.509.653-3.129.335-6.254.713-9.391.964-.309.024-4.08.333-3.419-.451l-3.535 3.536c2.599-2.045 6.543-2.553 9.647-3.356 2.604-.676 3.762-1.957 5.581-3.798 1.898-1.921 2.215-3.883 1.334-6.523-1.25-3.748-6.283-1.426-8.558-.19-1.411.767-2.14 2.777-3.534 3.534z"/><path fill="none" d="M438.333 28.309c5.457-.227 14.77-.527 22.344 1.205s12.354-4.016 13.437-8.523c1.081-4.51-1.176-6.732-6.225-6.732"/><path d="M436.565 30.077c6.434-.258 12.844-.274 19.234.616 5.524.77 9.477 1.4 13.78-2.721 4.724-4.522 11.462-15.001.076-15.481-1.154-.049-2.437 3.582-3.535 3.535 3.233.137 6.064.902 6.486 4.499.2 1.705-.622 3.534-1.348 5.018-.534 1.091-1.152 1.409-3.369 2.159-4.001 1.354-9.308-.734-13.393-1.088-4.78-.414-9.61-.264-14.397-.072-1.247.049-2.336 3.487-3.534 3.535z"/><path fill="none" d="M1018.42 164.112s-17.136 9.563-16.549 18.914c.586 9.35 2.461 19.146 8.864 17.729 2.467-1.266 5.495-2.93 7.685-4.729 3.408-4.863 5.928-7.033 1.896-13.304-1.907-2.967-11.645 7.166-11.645 7.166"/><path d="M1020.188 162.345c-5.733 3.235-10.822 7.63-15.241 12.491-4.236 4.66-5.103 8.422-4.428 14.616.514 4.714 2.541 16.154 9.723 12.405 6.447-3.365 19.184-13.117 11.536-21.229-2.459-2.607-12.775 8.851-14.641 10.777-.644.664.563-.518.658-.609a153.23 153.23 0 0 0 2.412-2.426c-2.115 2.185 2.393-1.881 3.272-2.535 1.23-.916 2.768-1.983 4.368-1.848 2.015.172 2.768 5.189 2.737 6.695-.051 2.586-2.533 5.148-3.933 7.11l3.535-3.535c-3.614 2.769-8.765 7.177-12.698 2.84-3.449-3.803-3.514-11.067-3.851-15.84-.513-7.265 7.532-12.284 13.014-15.379 1.408-.792 2.148-2.749 3.537-3.533z"/><path fill="none" d="M1116.113 12.733c2.471.496 6.424 10.873 6.424 10.873"/><path d="M1114.345 14.5c1.982.589 3.211 3.763 4.037 5.418a60.849 60.849 0 0 1 2.387 5.455c-.23-.602 3.79-2.869 3.535-3.535a68.9 68.9 0 0 0-2.186-5.047c-.836-1.748-2.157-5.208-4.238-5.826-.793-.235-2.806 3.752-3.535 3.535z"/><path fill="none" d="M1122.107 10.951s7.42-5.329 10.514.575c3.094 5.906 2.223 8.135-1.152 10.946a152.331 152.331 0 0 1-6.192 4.897"/><path d="M1120.339 12.718c4.037-2.831 8.623-3.199 11.048 1.641 1.28 2.555 2.004 5.296.353 7.815l2.031-1.933a90.062 90.062 0 0 1-2.307 1.916c-.75.61-1.512 1.207-2.272 1.803-.709.556-1.425 1.104-2.148 1.642-1.327.986-2.218 2.556-3.535 3.535 2.603-1.936 5.253-3.909 7.588-6.165 1.794-1.733 4.14-3.571 5.009-5.979 1.205-3.335-1.682-8.93-4.975-9.895-2.365-.694-5.354.752-7.256 2.085-1.348.945-2.198 2.597-3.536 3.535z"/><path fill="none" d="M827.182 21.708c8.613-.227 23.311-.527 35.265 1.205 11.955 1.732 19.499-4.016 21.207-8.523 1.706-4.51-1.855-6.732-9.824-6.732"/><path d="M825.414 23.475c8.506-.219 17.008-.272 25.506.228 8.702.511 17.118 2.856 25.244-1.501 2.755-1.479 5.598-4.344 7.543-6.797 5.576-7.03-1.861-9.386-8.111-9.516-1.18-.024-2.41 3.559-3.535 3.535 3.862.08 10.917.275 10.109 5.801-.12.82-.578 1.603-.971 2.313-.729.982-.613.949.345-.102-.588.45-1.203.859-1.844 1.229-2.655 1.65-5.797 2.323-8.854 2.69-6.877.827-14.464-1.156-21.396-1.438-6.829-.276-13.671-.154-20.501.021-1.233.033-2.354 3.507-3.535 3.537z"/><path fill="none" d="M1129.759 29.641c7.313-.227 19.791-.527 29.94 1.205s16.555-4.016 18.005-8.523c1.448-4.51-1.576-6.732-8.342-6.732"/><path d="M1127.992 31.409c7.771-.234 15.535-.274 23.291.361 7.115.584 14.818 2.854 20.854-2.429 2.218-1.942 4.485-4.066 6.203-6.47 4.466-6.245-1.764-8.905-7.209-9.049-1.173-.031-2.416 3.564-3.535 3.535 3.5.093 8.398.408 8.695 4.813.12 1.797-1.052 3.628-2.041 5.013 1.215-1.701-1.172.321-1.574.537-1.141.608-2.403.933-3.643 1.256-5.996 1.565-13.256-.761-19.356-1.091-6.042-.327-12.106-.195-18.149-.013-1.239.039-2.351 3.502-3.536 3.537z"/><path fill="none" d="M1011.152 200.093c7.313-.228 19.791-.528 29.941 1.204 10.148 1.732 16.555-4.016 18.004-8.523 1.449-4.51-1.575-6.731-8.341-6.731"/><path d="M1009.384 201.86c7.771-.235 15.535-.275 23.291.36 7.115.584 14.818 2.854 20.854-2.43 2.219-1.941 4.486-4.065 6.204-6.469 4.466-6.245-1.765-8.904-7.209-9.048-1.173-.031-2.417 3.565-3.535 3.535 3.499.093 8.398.407 8.694 4.813.121 1.797-1.051 3.628-2.041 5.013 1.216-1.701-1.171.322-1.574.537-1.14.608-2.402.933-3.643 1.256-5.995 1.565-13.256-.76-19.356-1.091-6.041-.327-12.105-.194-18.149-.012-1.239.038-2.349 3.5-3.536 3.536z"/><path fill="none" d="M183.055 196.073c5.457-.227 14.77-.527 22.344 1.205s12.355-4.016 13.438-8.523c1.08-4.51-1.176-6.732-6.225-6.732"/><path d="M181.288 197.841c6.434-.257 12.844-.274 19.234.616 5.524.77 9.477 1.4 13.781-2.721 4.725-4.522 11.462-15.002.077-15.481-1.154-.049-2.437 3.581-3.535 3.535 3.233.137 6.063.902 6.486 4.499.2 1.705-.621 3.534-1.347 5.018-.534 1.091-1.154 1.41-3.37 2.159-4.001 1.354-9.308-.733-13.393-1.088-4.78-.415-9.61-.265-14.397-.072-1.25.049-2.339 3.487-3.536 3.535z"/><path fill="none" d="m1606.504 33.075 8.063 16.287 8.625-19.927"/><path d="m1604.737 34.842 8.063 16.287c-.175-.353 3.275-2.935 3.535-3.535l8.625-19.927c-.609 1.408-2.914 2.101-3.535 3.535l-8.625 19.927 3.535-3.535-8.063-16.287c.221.445-3.788 3.026-3.535 3.535z"/><path fill="none" d="M89.172 188.79s5.201-2.934 7.328-1.41c2.129 1.52 2.275 6.02.756 7.232s-6.363 1.654-10.621 3.479c-10.482 4.492 21.621-2.221 30.387-.135"/><path d="M87.405 190.558c2.017-1.097 4.193-1.963 6.517-1.763 3.151.271 2.976 5.874 1.567 7.585l3.535-3.535c-4.167 2.454-9.847 1.813-13.445 5.37-1.858 1.836-4.323 3.347-.428 3.201 9.795-.365 20.354-3.714 30.103-1.692.926.192 2.671-3.714 3.535-3.535-6.252-1.297-13.248-.018-19.509.653-3.129.334-6.254.713-9.392.963-.309.025-4.08.334-3.418-.45l-3.536 3.536c2.599-2.045 6.544-2.553 9.648-3.357 2.604-.676 3.762-1.957 5.581-3.798 1.898-1.921 2.215-3.882 1.334-6.522-1.25-3.75-6.283-1.428-8.558-.19-1.412.766-2.14 2.777-3.534 3.534z"/><path fill="none" d="m1593.129 49.824 39.705 1.167"/><path d="m1591.362 51.591 39.705 1.167c1.17.035 2.421-3.568 3.535-3.535l-39.705-1.167c-1.17-.035-2.421 3.569-3.535 3.535z"/><path fill="none" d="M515.045 20.715s5.201-2.932 7.328-1.408c2.129 1.519 2.275 6.018.756 7.232-1.52 1.213-6.363 1.652-10.62 3.477-10.482 4.492 21.621-2.219 30.386-.135"/><path d="M513.278 22.483c2.018-1.096 4.193-1.961 6.517-1.761 3.152.271 2.975 5.873 1.567 7.585l3.535-3.535c-4.167 2.453-9.846 1.813-13.444 5.368-1.858 1.837-4.323 3.347-.428 3.202 9.795-.365 20.353-3.713 30.102-1.693.926.192 2.671-3.715 3.535-3.535-6.252-1.296-13.248-.017-19.509.653-3.129.335-6.254.713-9.391.964-.309.024-4.08.333-3.419-.451l-3.535 3.536c2.599-2.045 6.543-2.553 9.647-3.356 2.604-.675 3.762-1.956 5.581-3.797 1.898-1.921 2.215-3.884 1.334-6.523-1.25-3.748-6.283-1.427-8.558-.191-1.412.766-2.14 2.777-3.534 3.534z"/><path fill="none" d="M533.693 29.703c5.457-.228 14.77-.528 22.344 1.204s12.354-4.016 13.437-8.523c1.081-4.51-1.176-6.731-6.225-6.731"/><path d="M531.925 31.47c6.434-.259 12.844-.275 19.234.615 5.524.77 9.477 1.4 13.78-2.721 4.724-4.522 11.462-15 .076-15.48-1.154-.049-2.437 3.582-3.535 3.535 3.232.137 6.064.901 6.486 4.498.2 1.705-.622 3.534-1.348 5.018-.534 1.091-1.152 1.409-3.369 2.159-4.001 1.354-9.308-.734-13.393-1.088-4.78-.414-9.61-.264-14.397-.071-1.247.05-2.336 3.487-3.534 3.535z"/><path fill="none" d="M163.361 183.032s6.821-5.559 11.194-1.859c5.536 4.684 5.254 17.93-9.531 17.449-12.788-.416-4.024-15.584-.999-15.584"/><path d="M161.593 184.8c3.977-3.165 9.596-4.753 12.875.087 1.231 1.817 1.676 4.088 1.62 6.246-.029 1.127-.335 2.22-.74 3.262-.208.535-.515 1.023-.82 1.506-1.048 1.66 3.294-2.42.335-.658-3.962 2.359-13.026 3.158-14.649-2.453-.592-2.045.185-4.387.987-6.256.424-.986.991-1.906 1.601-2.786 1.275-1.839-3.06 2.548-1.516 1.429.293-.213.616-.33.972-.37 1.315-.145 2.267-3.396 3.535-3.535-1.821.2-3.702 2.915-4.846 4.082a16.502 16.502 0 0 0-3.889 6.286c-3.082 8.955 7.5 10.124 13.655 7.453 2.538-1.102 4.522-3.602 6.393-5.549 1.979-2.063 2.694-4.813 2.474-7.609-.239-3.037-1.958-6.041-4.709-7.406-3.073-1.525-7.357.84-9.743 2.737-1.298 1.032-2.243 2.505-3.535 3.534z"/><path fill="none" d="M1501.109 166.324c2.473.497 6.424 10.875 6.424 10.875"/><path d="M1499.341 168.092c1.983.59 3.211 3.764 4.039 5.42a60.994 60.994 0 0 1 2.385 5.455c-.23-.602 3.79-2.869 3.535-3.535a68.286 68.286 0 0 0-2.186-5.047c-.836-1.749-2.157-5.209-4.238-5.828-.792-.237-2.806 3.752-3.535 3.535z"/><path fill="none" d="M1507.105 164.543s7.42-5.33 10.514.576c3.092 5.904 2.221 8.134-1.152 10.945-3.375 2.812-6.193 4.896-6.193 4.896"/><path d="M1505.337 166.311c4.037-2.832 8.622-3.199 11.047 1.642 1.28 2.554 2.003 5.296.353 7.813l2.032-1.932a98.385 98.385 0 0 1-2.307 1.916c-.751.61-1.512 1.207-2.273 1.803a103.22 103.22 0 0 1-2.148 1.641c-1.327.986-2.217 2.556-3.535 3.535 2.603-1.935 5.254-3.908 7.588-6.164 1.794-1.733 4.14-3.571 5.009-5.98 1.204-3.334-1.682-8.928-4.974-9.894-2.366-.694-5.354.751-7.256 2.085-1.349.945-2.198 2.597-3.536 3.535z"/><path fill="none" d="M1546.914 166.442c2.471.497 6.424 10.874 6.424 10.874"/><path d="M1545.146 168.21c1.982.591 3.21 3.763 4.038 5.419a61.128 61.128 0 0 1 2.386 5.455c-.23-.602 3.79-2.869 3.535-3.535a68.24 68.24 0 0 0-2.187-5.047c-.836-1.748-2.156-5.209-4.237-5.827-.792-.236-2.806 3.752-3.535 3.535z"/><path fill="none" d="M1552.908 164.66s7.42-5.329 10.514.576 2.223 8.135-1.152 10.945c-3.375 2.813-6.193 4.897-6.193 4.897"/><path d="M1551.14 166.428c4.038-2.832 8.622-3.197 11.048 1.642 1.28 2.554 2.004 5.296.353 7.814l2.031-1.933c-.759.65-1.528 1.29-2.307 1.916-.75.611-1.512 1.207-2.273 1.804-.709.556-1.425 1.103-2.148 1.641-1.327.986-2.217 2.556-3.535 3.535 2.603-1.935 5.255-3.909 7.589-6.165 1.793-1.732 4.14-3.571 5.01-5.979 1.204-3.334-1.684-8.929-4.976-9.895-2.366-.694-5.354.752-7.256 2.085-1.349.945-2.198 2.597-3.536 3.535z"/><path fill="none" d="M1305.477 172.105c2.471.496 6.422 10.873 6.422 10.873"/><path d="M1303.709 173.873c1.982.59 3.21 3.763 4.037 5.418a60.832 60.832 0 0 1 2.385 5.455c-.23-.602 3.79-2.869 3.535-3.535a68.23 68.23 0 0 0-2.186-5.047c-.835-1.748-2.155-5.208-4.236-5.826-.791-.236-2.806 3.752-3.535 3.535z"/><path fill="none" d="M1311.471 170.324s7.42-5.33 10.514.574c3.094 5.906 2.221 8.135-1.152 10.947-3.375 2.811-6.193 4.896-6.193 4.896"/><path d="M1309.704 172.092c4.037-2.832 8.622-3.199 11.048 1.64 1.28 2.556 2.003 5.296.352 7.815l2.032-1.932a96.364 96.364 0 0 1-2.307 1.916c-.751.609-1.512 1.206-2.273 1.803-.709.555-1.425 1.104-2.148 1.641-1.327.986-2.217 2.555-3.535 3.535 2.603-1.936 5.254-3.908 7.588-6.164 1.794-1.734 4.14-3.572 5.01-5.98 1.204-3.334-1.682-8.93-4.975-9.895-2.366-.693-5.354.752-7.256 2.086-1.35.945-2.198 2.597-3.536 3.535z"/><path fill="none" d="m1316.575 188.721 39.705 1.166"/><path d="m1314.807 190.488 39.705 1.166c1.17.035 2.421-3.568 3.535-3.535l-39.705-1.166c-1.17-.035-2.421 3.568-3.535 3.535z"/><path fill="none" d="m1509.564 182.63 39.705 1.167"/><path d="m1507.796 184.397 39.705 1.167c1.17.035 2.421-3.568 3.535-3.535l-39.705-1.167c-1.169-.034-2.42 3.569-3.535 3.535z"/><path fill="none" d="M172.279 199.197c7.313-.228 19.791-.528 29.94 1.204s16.555-4.016 18.004-8.523c1.449-4.51-1.575-6.731-8.341-6.731"/><path d="M170.512 200.965c7.772-.235 15.535-.275 23.291.36 7.116.584 14.819 2.854 20.854-2.429 2.218-1.942 4.486-4.066 6.204-6.469 4.465-6.246-1.764-8.905-7.209-9.049-1.173-.031-2.417 3.564-3.535 3.535 3.499.093 8.398.408 8.694 4.813.121 1.797-1.051 3.628-2.041 5.012 1.216-1.699-1.171.322-1.574.538-1.14.608-2.403.933-3.642 1.257-5.996 1.564-13.256-.762-19.356-1.092-6.042-.327-12.106-.195-18.149-.012-1.24.038-2.351 3.501-3.537 3.536z"/><g><path fill="none" d="M487.196 177.224c5.457-.227 14.77-.527 22.344 1.205s12.354-4.016 13.436-8.523c1.082-4.51-1.176-6.732-6.225-6.732"/><path d="M485.428 178.991c6.434-.257 12.844-.274 19.234.616 5.524.77 9.477 1.4 13.78-2.721 4.724-4.523 11.462-15.002.076-15.481-1.154-.049-2.437 3.581-3.535 3.535 3.233.137 6.065.901 6.487 4.499.2 1.705-.622 3.534-1.348 5.018-.534 1.09-1.151 1.409-3.368 2.159-4.001 1.354-9.308-.733-13.393-1.088-4.78-.415-9.61-.265-14.397-.072-1.249.05-2.339 3.487-3.536 3.535z"/></g><g><path fill="none" d="M389.795 166.423s5.201-2.933 7.328-1.409c2.129 1.52 2.275 6.019.756 7.232-1.52 1.213-6.363 1.653-10.619 3.478-10.482 4.492 21.621-2.22 30.385-.135"/><path d="M388.028 168.19c2.018-1.096 4.193-1.962 6.517-1.762 3.151.271 2.976 5.874 1.567 7.585l3.535-3.535c-4.167 2.453-9.845 1.813-13.443 5.369-1.858 1.836-4.323 3.348-.428 3.201 9.795-.365 20.352-3.713 30.101-1.692.926.192 2.671-3.714 3.535-3.535-6.251-1.296-13.247-.017-19.508.653-3.129.334-6.254.713-9.391.964-.309.024-4.08.333-3.419-.451-1.178 1.179-2.357 2.356-3.535 3.536 2.598-2.045 6.542-2.553 9.646-3.357 2.604-.675 3.762-1.956 5.581-3.797 1.898-1.92 2.215-3.883 1.334-6.523-1.25-3.748-6.283-1.427-8.558-.19-1.412.767-2.14 2.778-3.534 3.534z"/></g><g><path fill="none" d="m2103.531 425.662 39.705 1.168"/><path stroke="#000" stroke-width=".15" d="m2144.564 426.159-1.788.826.026-.575-2.419-.109.034-.74 2.418.109.026-.576zM2136.77 425.93l-1.788.826.026-.575-2.419-.11.034-.74 2.419.109.025-.576zM2128.976 425.7l-1.787.827.025-.576-2.418-.108.034-.74 2.418.108.025-.576zM2121.183 425.471l-1.788.826.026-.575-2.419-.109.034-.74 2.419.108.025-.576zM2113.389 425.242l-1.788.826.026-.575-2.419-.109.034-.74 2.419.109.025-.576zM2105.595 425.013l-1.787.826.025-.575-2.417-.11.033-.74 2.418.109.025-.576z"/></g><g><path fill="none" d="M611.55 17.124s5.201-2.933 7.328-1.409c2.129 1.52 2.275 6.019.756 7.232-1.52 1.213-6.363 1.653-10.62 3.478-10.482 4.492 21.621-2.22 30.386-.135"/><path d="M609.783 18.891c2.018-1.096 4.193-1.962 6.517-1.762 3.151.271 2.976 5.873 1.567 7.585l3.535-3.535c-4.167 2.454-9.846 1.813-13.444 5.369-1.858 1.837-4.323 3.347-.428 3.201 9.795-.365 20.353-3.713 30.102-1.692.926.192 2.671-3.715 3.535-3.535-6.252-1.296-13.248-.017-19.509.653-3.129.335-6.254.713-9.391.964-.309.024-4.08.333-3.418-.451a11783.22 11783.22 0 0 1-3.536 3.535c2.599-2.044 6.543-2.552 9.647-3.356 2.604-.675 3.762-1.956 5.581-3.797 1.898-1.921 2.215-3.883 1.334-6.522-1.25-3.75-6.283-1.428-8.558-.191-1.412.767-2.14 2.777-3.534 3.534z"/><g><path fill="none" d="M630.198 26.111c5.457-.229 14.77-.529 22.344 1.203s12.354-4.016 13.437-8.523c1.081-4.51-1.176-6.73-6.225-6.73"/><path d="M628.43 27.878c6.434-.26 12.844-.276 19.234.614 5.524.77 9.477 1.4 13.78-2.721 4.725-4.522 11.462-15 .076-15.479-1.154-.049-2.437 3.582-3.535 3.535 3.232.137 6.064.9 6.486 4.497.2 1.705-.622 3.534-1.348 5.018-.534 1.091-1.152 1.409-3.369 2.159-4.001 1.354-9.308-.734-13.393-1.088-4.78-.414-9.61-.264-14.397-.07-1.248.05-2.336 3.488-3.534 3.535z"/></g></g><g><path fill="none" d="M952.294 172.458c-2.399-.703-9.776 2.666-10.208 8.908-.432 6.244 3.037 12.902 10.456 12.563 7.419-.342 8.615-4.238 8.28-12.438-.336-8.197-3.073-7.435-8.528-9.033z"/><path d="M954.062 170.69c-4.334-.753-9.538 4.415-11.864 7.712-5.325 7.551.604 17.877 9.642 17.217 4.36-.319 9.128-4.673 10.337-8.836 1.039-3.578.792-8.58-.431-12.06-1.069-3.044-5.055-3.3-7.684-4.033-.82-.229-2.779 3.746-3.535 3.535 3.793 1.058 7.08 1.308 8.157 5.629.991 3.979 1.126 10.365-1.694 13.678 1.156-1.159 2.313-2.317 3.468-3.478-5.229 4.771-13.229 1.491-15.734-4.349-1.368-3.188-1.237-7.016.433-10.021-1.117.848-1.145.891-.082.128.721-.504 1.539-.849 2.346-1.182.982-.406 2.059-.588 3.106-.406.974.171 2.621-3.693 3.535-3.534z"/></g><g><path fill="none" d="M911.473 170.729c-2.399-.703-9.776 2.666-10.208 8.91-.432 6.242 3.037 12.9 10.456 12.561 7.419-.342 8.615-4.238 8.28-12.436-.336-8.201-3.074-7.437-8.528-9.035z"/><path d="M913.24 168.962c-4.334-.753-9.538 4.415-11.863 7.712-5.324 7.551.603 17.877 9.642 17.217 4.36-.319 9.128-4.672 10.337-8.835 1.039-3.578.792-8.581-.431-12.061-1.07-3.046-5.055-3.301-7.685-4.033-.82-.229-2.779 3.746-3.535 3.535 3.794 1.058 7.081 1.308 8.158 5.63.991 3.979 1.125 10.364-1.694 13.677 1.156-1.159 2.312-2.317 3.468-3.478-5.229 4.771-13.228 1.492-15.734-4.348-1.368-3.189-1.236-7.016.433-10.021-1.117.849-1.145.891-.082.129.721-.504 1.539-.849 2.346-1.183.982-.406 2.059-.588 3.105-.406.975.169 2.621-3.694 3.535-3.535z"/></g><g><path fill="none" d="M1456.079 154.173s-17.137 9.563-16.549 18.914c.586 9.35 2.461 19.146 8.863 17.729 2.467-1.266 5.496-2.93 7.686-4.729 3.408-4.863 5.928-7.033 1.896-13.304-1.908-2.967-11.645 7.166-11.645 7.166"/><path d="M1457.846 152.405c-5.733 3.235-10.822 7.63-15.242 12.491-4.235 4.66-5.102 8.422-4.427 14.616.514 4.713 2.54 16.153 9.722 12.405 6.446-3.364 19.187-13.118 11.537-21.229-2.46-2.607-12.775 8.85-14.641 10.777-.643.664.564-.518.658-.609a157.62 157.62 0 0 0 2.412-2.426c-2.115 2.186 2.392-1.881 3.272-2.535 1.229-.916 2.768-1.983 4.368-1.848 2.014.172 2.768 5.189 2.738 6.695-.052 2.586-2.533 5.148-3.934 7.11l3.535-3.535c-3.614 2.768-8.766 7.177-12.698 2.84-3.448-3.803-3.514-11.067-3.851-15.84-.513-7.265 7.531-12.284 13.014-15.379 1.408-.792 2.149-2.749 3.537-3.533z"/></g><g><path fill="none" d="M1034.517 9.734s6.82-5.559 11.193-1.859c5.536 4.683 5.254 17.93-9.53 17.449-12.788-.416-4.024-15.585-.999-15.585"/><path d="M1032.75 11.501c3.976-3.164 9.596-4.752 12.875.087 1.231 1.816 1.676 4.087 1.619 6.246-.029 1.127-.335 2.219-.74 3.262-.207.535-.515 1.022-.819 1.506-1.048 1.659 3.294-2.42.335-.658-3.962 2.359-13.026 3.158-14.65-2.453-.591-2.045.186-4.388.988-6.256.424-.986.99-1.907 1.602-2.787 1.275-1.839-3.061 2.548-1.516 1.429a1.98 1.98 0 0 1 .971-.37c1.316-.145 2.268-3.396 3.535-3.535-1.82.2-3.701 2.915-4.846 4.082a16.498 16.498 0 0 0-3.889 6.287c-3.082 8.955 7.5 10.124 13.655 7.453 2.538-1.102 4.522-3.602 6.393-5.55 1.979-2.063 2.694-4.812 2.474-7.609-.239-3.036-1.957-6.039-4.709-7.405-3.072-1.525-7.357.839-9.742 2.737-1.3 1.033-2.245 2.507-3.536 3.534z"/></g><g><path fill="none" d="M1219.095 18.454c2.471.496 6.424 10.874 6.424 10.874"/><path d="M1217.328 20.221c1.982.589 3.211 3.763 4.038 5.419a61.002 61.002 0 0 1 2.386 5.455c-.23-.602 3.79-2.869 3.535-3.535a68.9 68.9 0 0 0-2.186-5.047c-.836-1.748-2.157-5.209-4.238-5.827-.793-.235-2.807 3.752-3.535 3.535z"/><g><path fill="none" d="M1225.089 16.672s7.42-5.33 10.514.575 2.223 8.134-1.152 10.946c-3.374 2.811-6.192 4.896-6.192 4.896"/><path d="M1223.322 18.44c4.038-2.832 8.622-3.199 11.048 1.641 1.28 2.555 2.003 5.296.353 7.814l2.031-1.932a94.425 94.425 0 0 1-2.307 1.916c-.75.61-1.512 1.206-2.272 1.803-.709.555-1.425 1.103-2.148 1.641-1.327.986-2.218 2.556-3.535 3.535 2.603-1.936 5.254-3.908 7.588-6.164 1.794-1.733 4.14-3.572 5.009-5.98 1.205-3.334-1.682-8.929-4.975-9.895-2.365-.693-5.354.753-7.256 2.086-1.349.945-2.198 2.596-3.536 3.535z"/></g></g><g><path fill="none" d="M1401.815 181.054s5.201-2.932 7.328-1.408c2.129 1.519 2.275 6.018.756 7.232-1.52 1.213-6.363 1.652-10.62 3.477-10.482 4.492 42.979-1.219 51.743.865"/><path d="M1400.047 182.821c2.018-1.096 4.193-1.962 6.517-1.761 3.151.271 2.975 5.873 1.567 7.585l3.535-3.535c-5.433 3.198-11.41 2.212-15.392 7.731-.659.914 9.595 1.008 10.384.987 7.982-.203 15.955-.704 23.933-1.034 6.008-.248 12.721-1.076 18.663.192.917.196 2.681-3.718 3.535-3.535-3.913-.836-8.176-.503-12.144-.412-6.165.141-12.326.475-18.486.767-5.467.26-10.94.544-16.416.555-.461 0-6.659-.049-5.933-1.055-1.156 1.158-2.313 2.317-3.468 3.477 2.387-2.193 7.08-2.456 10.086-3.34 1.872-.549 3.055-2.104 4.377-3.442 1.898-1.921 2.215-3.884 1.335-6.523-1.251-3.749-6.283-1.427-8.559-.191-1.412.766-2.14 2.777-3.534 3.534z"/></g><g><path fill="none" d="m911.244 192.958 39.697 1.432"/><path d="m909.477 194.726 39.696 1.432c1.162.042 2.429-3.575 3.536-3.535l-39.697-1.432c-1.162-.043-2.429 3.575-3.535 3.535z"/></g><g><path fill="none" d="M1042.321 23.671c7.313-.229 19.791-.529 29.94 1.203s16.555-4.016 18.004-8.523c1.449-4.51-1.574-6.73-8.34-6.73"/><path d="M1040.553 25.439c7.772-.236 15.534-.276 23.29.36 7.115.583 14.819 2.854 20.854-2.43 2.219-1.942 4.486-4.066 6.205-6.47 4.465-6.245-1.766-8.903-7.209-9.047-1.174-.031-2.418 3.564-3.535 3.535 3.498.093 8.398.407 8.693 4.812.121 1.797-1.051 3.628-2.041 5.013 1.217-1.701-1.17.321-1.574.537-1.139.608-2.402.933-3.642 1.256-5.995 1.565-13.256-.761-19.356-1.091-6.041-.327-12.105-.194-18.149-.011-1.239.038-2.349 3.5-3.536 3.536z"/></g><g><path fill="none" d="M1231.627 32.02c7.313-.228 19.791-.528 29.94 1.204s16.555-4.016 18.004-8.523c1.449-4.51-1.574-6.731-8.34-6.731"/><path d="M1229.86 33.788c7.772-.235 15.534-.275 23.29.36 7.116.584 14.819 2.854 20.854-2.429 2.219-1.942 4.486-4.066 6.205-6.47 4.465-6.245-1.765-8.904-7.209-9.048-1.174-.031-2.418 3.564-3.535 3.535 3.498.093 8.398.408 8.693 4.813.121 1.797-1.051 3.628-2.041 5.013 1.217-1.701-1.17.321-1.574.537-1.139.608-2.402.933-3.642 1.256-5.995 1.565-13.256-.761-19.356-1.091-6.041-.327-12.105-.195-18.149-.012-1.239.038-2.35 3.499-3.536 3.536z"/></g><g><path fill="none" d="M800.021 201.067c7.313-.228 19.791-.528 29.94 1.204s16.555-4.016 18.004-8.523c1.449-4.51-1.575-6.731-8.341-6.731"/><path d="M798.253 202.835c7.772-.235 15.535-.275 23.291.36 7.115.584 14.819 2.854 20.854-2.43 2.218-1.941 4.486-4.065 6.204-6.469 4.465-6.245-1.764-8.904-7.209-9.048-1.173-.031-2.417 3.565-3.535 3.535 3.499.093 8.398.408 8.694 4.813.121 1.797-1.051 3.628-2.041 5.013 1.216-1.701-1.171.322-1.574.537-1.14.608-2.403.933-3.642 1.256-5.996 1.565-13.256-.76-19.356-1.091-6.042-.327-12.106-.194-18.149-.012-1.24.038-2.351 3.5-3.537 3.536z"/></g><g><path fill="none" d="M686.462 189.44c5.457-.227 14.77-.527 22.344 1.205s12.354-4.016 13.437-8.523c1.081-4.51-1.176-6.732-6.225-6.732"/><path d="M684.695 191.208c6.434-.257 12.844-.274 19.234.616 5.524.77 9.477 1.4 13.78-2.721 4.724-4.523 11.462-15.002.076-15.481-1.154-.049-2.437 3.581-3.535 3.535 3.233.137 6.064.901 6.486 4.499.2 1.705-.622 3.534-1.348 5.018-.534 1.09-1.152 1.409-3.369 2.159-4.001 1.354-9.308-.733-13.393-1.088-4.78-.415-9.61-.265-14.397-.072-1.248.05-2.337 3.487-3.534 3.535z"/></g><g><path fill="none" d="M611.918 180.397s5.201-2.932 7.328-1.408c2.129 1.52 2.275 6.018.756 7.232-1.52 1.213-6.363 1.652-10.62 3.477-10.482 4.492 21.621-2.219 30.386-.135"/><path d="M610.151 182.165c2.018-1.096 4.193-1.962 6.517-1.761 3.151.271 2.975 5.873 1.567 7.585l3.535-3.535c-4.167 2.454-9.846 1.813-13.444 5.368-1.858 1.836-4.323 3.348-.428 3.201 9.795-.364 20.353-3.712 30.102-1.692.926.192 2.671-3.714 3.535-3.535-6.252-1.296-13.248-.017-19.509.653-3.129.335-6.254.713-9.391.964-.309.024-4.08.333-3.419-.451-1.178 1.179-2.357 2.356-3.535 3.536 2.599-2.045 6.543-2.553 9.647-3.356 2.604-.675 3.762-1.956 5.581-3.797 1.898-1.921 2.215-3.883 1.334-6.522-1.25-3.75-6.282-1.428-8.558-.192-1.412.765-2.14 2.777-3.534 3.534z"/></g><g><path fill="none" d="M268.565 54.883c3.498 10.919 5.8 10.15 5.8 10.15"/><path d="M266.798 56.65c1.006 3.089 2.062 6.514 4.14 9.086.306.378 1.054 1.242 1.66 1.064.57-.167 1.382-1.347 1.785-1.75.377-.377 1.227-1.632 1.75-1.785-.554.162-1.209-.568-1.518-.901-2.247-2.426-3.289-6.202-4.282-9.249.224.686-3.78 2.785-3.535 3.535z"/><g><path fill="none" d="M276.101 61.268c6.258-9.607 4.208-10.907 4.208-10.907"/><path d="M277.868 59.5c1.772-2.752 3.811-5.78 4.451-9.056.09-.46.25-1.51-.243-1.851-.276-.191-3.32 3.684-3.535 3.535.501.347.316 1.382.243 1.851-.513 3.243-2.724 6.374-4.451 9.056.877-1.361 2.649-2.159 3.535-3.535z"/></g></g><g><path fill="none" d="M186.088 43.352s-10.569 34.173 1.952 26.933c0 0 10.235-.998 7.026-7.417"/><path d="M184.32 45.12c-1.086 3.531-1.977 7.127-2.749 10.739-.989 4.626-2.761 11.29-.547 15.804 1.399 2.853 7.481.111 9.62-.751 3.611-1.456 7.788-5.922 6.188-9.81.231.561-3.792 2.91-3.535 3.535.702 1.708.863 3.046-.236 4.599l1.281-1.315-.507.51a4687 4687 0 0 0 2.255-2.221c-2.236 1.705-5.925 2.619-8.661 3.26-3.555.833-3.741-4.361-3.739-6.563.008-7.127 2.082-14.544 4.165-21.321-.427 1.389-3.097 2.11-3.535 3.534z"/></g><g><path fill="none" d="M33.816 53.529s1.259 3.787 3.36 7.117c2.104 3.332 1.871 6.627-7.793 11.352-8.91 4.36-2.684-17.953-.211-17.953"/><path d="M32.049 55.296c.854 2.494 2.012 4.856 3.36 7.117.796 1.336 1.26 2.613.923 4.171-.288 1.33-2.091 2.499.766.068-1.401 1.192-3.077 2.073-4.686 2.941-1.343.725-2.997 1.695-4.496.852-2.376-1.337-1.33-6.459-.984-8.486.515-3.019 1.353-6.826 3.339-9.263l-1.281 1.315.179-.18a4687 4687 0 0 0-2.255 2.221c.169-.129.282-.203.492-.24 1.365-.24 2.213-3.302 3.535-3.535-1.325.233-2.794 2.5-3.7 3.424-1.219 1.244-1.847 2.813-2.433 4.433-1.229 3.393-3.527 10.503-.686 13.637 1.875 2.069 6.436-1.545 7.874-2.451 2.198-1.383 3.989-3.378 5.794-5.219 4.698-4.793-.447-9.212-2.205-14.341.226.662-3.785 2.811-3.536 3.536z"/></g><g><path fill="none" d="m1706.625 218.726-3.504 14.013"/><path d="m1704.857 220.493-3.504 14.014c.342-1.367 3.185-2.131 3.535-3.535l3.504-14.014c-.342 1.367-3.184 2.131-3.535 3.535z"/></g><g><path fill="none" d="M1240.618 210.048s-10.568 34.174 1.951 26.934c0 0 10.236-.998 7.026-7.416"/><path d="M1238.85 211.815c-1.086 3.531-1.977 7.127-2.749 10.739-.989 4.626-2.761 11.29-.547 15.805 1.398 2.853 7.48.11 9.62-.752 3.611-1.456 7.788-5.922 6.188-9.81.23.561-3.793 2.91-3.535 3.535.702 1.709.863 3.046-.236 4.599l1.281-1.315-.508.51 2.255-2.221c-2.235 1.705-5.926 2.619-8.661 3.26-3.555.833-3.741-4.361-3.738-6.563.008-7.128 2.082-14.544 4.165-21.321-.427 1.389-3.097 2.111-3.535 3.534z"/></g><g><path fill="none" d="M1675.514 60.159s1.26 3.787 3.361 7.117c2.104 3.332 1.871 6.627-7.793 11.352-8.91 4.36-2.684-17.953-.211-17.953"/><path d="M1673.747 61.926c.854 2.494 2.013 4.856 3.361 7.117.797 1.336 1.26 2.613.923 4.171-.288 1.33-2.091 2.499.766.068-1.401 1.192-3.077 2.073-4.687 2.941-1.343.725-2.996 1.695-4.495.852-2.377-1.337-1.331-6.459-.985-8.486.516-3.019 1.354-6.826 3.34-9.263l-1.281 1.315.179-.18a4687 4687 0 0 0-2.255 2.221c.17-.129.282-.203.492-.24 1.365-.24 2.213-3.302 3.535-3.535-1.325.233-2.794 2.5-3.7 3.424-1.219 1.244-1.847 2.813-2.434 4.433-1.229 3.393-3.526 10.503-.686 13.637 1.875 2.069 6.436-1.545 7.874-2.451 2.197-1.383 3.989-3.378 5.793-5.219 4.698-4.793-.446-9.212-2.205-14.341.226.661-3.784 2.812-3.535 3.536z"/></g><g><path fill="none" d="M1763.143 66.543c3.497 10.919 5.8 10.15 5.8 10.15"/><path d="M1761.375 68.311c1.007 3.089 2.062 6.515 4.14 9.086.307.378 1.055 1.242 1.66 1.064.57-.167 1.383-1.347 1.785-1.75.377-.378 1.227-1.632 1.75-1.785-.554.162-1.209-.567-1.518-.901-2.248-2.426-3.289-6.202-4.282-9.249.224.685-3.78 2.785-3.535 3.535z"/><g><path fill="none" d="M1770.678 72.929c6.259-9.607 4.208-10.907 4.208-10.907"/><path d="M1772.446 71.162c1.772-2.753 3.812-5.781 4.451-9.057.091-.461.25-1.51-.243-1.851-.275-.191-3.32 3.685-3.535 3.535.502.347.316 1.382.242 1.851-.512 3.243-2.723 6.374-4.45 9.057.877-1.363 2.649-2.16 3.535-3.535z"/></g></g><g><path fill="none" d="M1641.046 218.575s1.259 3.786 3.36 7.116c2.104 3.332 1.871 6.627-7.793 11.352-8.91 4.36-2.684-17.952-.211-17.952"/><path d="M1639.279 220.343c.854 2.493 2.012 4.856 3.36 7.116.797 1.336 1.26 2.613.923 4.171-.288 1.33-2.091 2.499.766.069-1.401 1.191-3.077 2.072-4.687 2.94-1.343.725-2.996 1.695-4.495.852-2.377-1.337-1.331-6.459-.985-8.486.515-3.019 1.354-6.825 3.34-9.263l-1.281 1.315.179-.18a4687 4687 0 0 0-2.255 2.221c.17-.13.282-.203.492-.24 1.365-.24 2.213-3.303 3.535-3.535-1.325.233-2.794 2.5-3.7 3.425-1.219 1.243-1.847 2.813-2.434 4.433-1.229 3.393-3.526 10.502-.686 13.637 1.875 2.069 6.436-1.546 7.874-2.451 2.197-1.383 3.989-3.377 5.794-5.218 4.697-4.793-.447-9.212-2.205-14.341.227.66-3.784 2.81-3.535 3.535z"/></g><g><path fill="none" d="m1790.545 213.224-3.503 14.013"/><path d="m1788.778 214.991-3.504 14.014c.342-1.367 3.185-2.131 3.535-3.535l3.504-14.014c-.342 1.367-3.185 2.131-3.535 3.535z"/></g><g><path fill="none" d="M746.951 33.569s-10.569 34.173 1.952 26.933c0 0 10.235-.998 7.026-7.417"/><path d="M745.184 35.337c-1.086 3.531-1.977 7.127-2.749 10.739-.989 4.626-2.761 11.29-.547 15.804 1.399 2.853 7.481.111 9.62-.751 3.611-1.456 7.788-5.922 6.188-9.81.231.561-3.792 2.91-3.535 3.535.702 1.708.863 3.046-.236 4.599l1.281-1.315-.507.51a4687 4687 0 0 0 2.255-2.221c-2.236 1.705-5.925 2.619-8.661 3.26-3.555.833-3.741-4.361-3.739-6.563.008-7.127 2.082-14.544 4.165-21.321-.427 1.389-3.098 2.11-3.535 3.534z"/></g><g><path fill="none" d="m352.62 48.876-3.504 14.014"/><path d="m350.852 50.644-3.503 14.014c.341-1.366 3.184-2.131 3.535-3.535l3.503-14.014c-.342 1.366-3.184 2.13-3.535 3.535z"/></g><g><path fill="none" d="M1864.621 48.06s1.259 3.787 3.36 7.117c2.104 3.332 1.871 6.627-7.793 11.352-8.91 4.359-2.684-17.953-.211-17.953"/><path d="M1862.853 49.828c.854 2.494 2.012 4.856 3.36 7.117.796 1.336 1.26 2.613.923 4.171-.287 1.329-2.091 2.499.766.068-1.4 1.192-3.076 2.073-4.686 2.94-1.344.725-2.997 1.695-4.496.852-2.377-1.337-1.33-6.459-.984-8.486.514-3.018 1.353-6.826 3.339-9.262l-1.28 1.315.178-.18-2.255 2.221c.169-.13.282-.203.492-.24 1.364-.24 2.213-3.302 3.535-3.535-1.325.233-2.794 2.5-3.7 3.424-1.219 1.244-1.847 2.814-2.434 4.434-1.229 3.393-3.526 10.503-.686 13.637 1.875 2.069 6.436-1.545 7.873-2.45 2.199-1.384 3.99-3.378 5.795-5.219 4.697-4.793-.447-9.212-2.205-14.341.227.659-3.783 2.809-3.535 3.534z"/></g><g><path fill="none" d="M102.65 45.625s-10.569 34.173 1.952 26.933c0 0 10.235-.998 7.026-7.417"/><path d="M100.882 47.393c-1.086 3.531-1.977 7.127-2.749 10.739-.989 4.626-2.761 11.29-.547 15.804 1.399 2.853 7.481.111 9.62-.751 3.611-1.456 7.788-5.922 6.188-9.81.231.561-3.792 2.91-3.535 3.535.702 1.708.863 3.046-.236 4.599l1.281-1.315-.507.51a4687 4687 0 0 0 2.255-2.221c-2.236 1.705-5.925 2.619-8.661 3.26-3.555.833-3.741-4.361-3.739-6.563.008-7.127 2.082-14.544 4.165-21.321-.427 1.389-3.097 2.11-3.535 3.534z"/></g><g><path fill="none" d="M1392.884 44.589s-10.569 34.173 1.951 26.933c0 0 10.235-.998 7.025-7.417"/><path d="M1391.117 46.357c-1.086 3.531-1.977 7.127-2.749 10.738-.989 4.627-2.761 11.291-.548 15.805 1.399 2.853 7.481.111 9.621-.751 3.611-1.456 7.787-5.922 6.188-9.81.23.561-3.793 2.91-3.535 3.535.702 1.708.863 3.046-.236 4.599l1.281-1.315-.507.51 2.255-2.221c-2.236 1.705-5.926 2.619-8.661 3.26-3.555.833-3.741-4.361-3.738-6.563.008-7.128 2.082-14.544 4.165-21.321-.429 1.389-3.099 2.11-3.536 3.534z"/></g><g><path fill="none" d="M1321.278 37.677s-10.569 34.173 1.951 26.933c0 0 10.235-.998 7.025-7.417"/><path d="M1319.51 39.445c-1.086 3.531-1.977 7.127-2.749 10.738-.989 4.627-2.761 11.291-.547 15.805 1.398 2.853 7.48.111 9.62-.751 3.611-1.456 7.787-5.922 6.188-9.81.23.561-3.793 2.91-3.535 3.535.702 1.708.863 3.046-.235 4.599l1.28-1.315-.507.51 2.254-2.221c-2.235 1.705-5.925 2.619-8.66 3.26-3.555.833-3.741-4.361-3.738-6.563.008-7.128 2.082-14.544 4.165-21.321-.427 1.389-3.098 2.11-3.536 3.534z"/></g><g><path fill="none" d="M1151.084 219.276s1.26 3.787 3.361 7.117c2.104 3.332 1.871 6.627-7.793 11.352-8.91 4.359-2.684-17.953-.211-17.953"/><path d="M1149.317 221.044c.854 2.494 2.013 4.856 3.361 7.117.797 1.336 1.26 2.613.923 4.171-.288 1.33-2.091 2.499.766.069-1.401 1.191-3.077 2.072-4.687 2.94-1.343.725-2.996 1.695-4.495.851-2.377-1.337-1.331-6.458-.985-8.486.515-3.019 1.354-6.825 3.34-9.263l-1.281 1.315.179-.18a4687 4687 0 0 0-2.255 2.221c.17-.13.282-.203.492-.24 1.365-.24 2.213-3.303 3.535-3.535-1.325.233-2.794 2.5-3.7 3.425-1.219 1.243-1.847 2.813-2.434 4.433-1.229 3.393-3.526 10.503-.686 13.638 1.875 2.068 6.436-1.546 7.873-2.451 2.198-1.383 3.99-3.377 5.795-5.218 4.697-4.793-.448-9.213-2.206-14.342.227.66-3.784 2.81-3.535 3.535z"/></g><g><path fill="none" d="M1169.676 188.867s6.821-5.559 11.195-1.859c5.535 4.683 5.254 17.93-9.531 17.449-12.787-.416-4.023-15.585-.998-15.585"/><path d="M1167.909 190.635c3.977-3.164 9.597-4.753 12.876.086 1.231 1.818 1.677 4.088 1.62 6.247-.029 1.126-.336 2.22-.74 3.261-.208.535-.516 1.023-.82 1.507-1.048 1.659 3.295-2.42.335-.657-3.962 2.358-13.026 3.157-14.649-2.454-.591-2.045.185-4.388.987-6.256.424-.986.991-1.907 1.602-2.786 1.275-1.84-3.06 2.547-1.516 1.428.293-.213.616-.33.972-.37 1.315-.145 2.267-3.396 3.535-3.535-1.821.2-3.702 2.915-4.846 4.082a16.508 16.508 0 0 0-3.89 6.287c-3.081 8.955 7.499 10.124 13.655 7.453 2.538-1.102 4.522-3.602 6.393-5.55 1.979-2.063 2.694-4.812 2.474-7.609-.239-3.036-1.957-6.039-4.708-7.405-3.073-1.525-7.358.839-9.744 2.737-1.299 1.032-2.244 2.506-3.536 3.534z"/></g><g><path fill="none" d="M1137.576 169.313s-17.135 9.563-16.549 18.914c.586 9.35 2.461 19.146 8.865 17.729 2.467-1.266 5.494-2.93 7.684-4.729 3.408-4.863 5.928-7.033 1.896-13.303-1.907-2.967-11.645 7.166-11.645 7.166"/><path d="M1139.343 167.546c-5.732 3.235-10.822 7.63-15.241 12.491-4.235 4.66-5.103 8.422-4.428 14.616.514 4.714 2.541 16.154 9.724 12.405 6.447-3.365 19.182-13.117 11.535-21.227-2.459-2.608-12.775 8.85-14.641 10.776-.643.663.564-.517.658-.61.811-.801 1.619-1.605 2.412-2.425-2.115 2.185 2.393-1.881 3.272-2.536 1.23-.914 2.768-1.982 4.368-1.846 2.014.17 2.768 5.188 2.737 6.694-.051 2.585-2.533 5.147-3.933 7.109l3.535-3.535c-3.614 2.769-8.765 7.177-12.698 2.84-3.448-3.802-3.514-11.067-3.851-15.84-.513-7.265 7.532-12.284 13.014-15.379 1.408-.792 2.149-2.749 3.537-3.533z"/></g><g><path fill="none" d="m1131.385 204.611 39.705 1.167"/><path d="M1129.618 206.379c13.234.39 26.47.778 39.705 1.167 1.17.034 2.421-3.568 3.535-3.535-13.234-.39-26.47-.778-39.705-1.167-1.17-.034-2.421 3.568-3.535 3.535z"/></g><g><path fill="none" d="M1473.901 54.917s1.259 3.787 3.36 7.117c2.104 3.332 1.871 6.627-7.793 11.352-8.91 4.36-2.684-17.953-.211-17.953"/><path d="M1472.133 56.685c.854 2.494 2.012 4.856 3.36 7.117.797 1.336 1.26 2.613.923 4.171-.288 1.33-2.091 2.499.766.068-1.401 1.192-3.077 2.073-4.686 2.941-1.344.725-2.997 1.695-4.496.852-2.377-1.337-1.33-6.459-.984-8.486.514-3.019 1.353-6.826 3.339-9.263l-1.281 1.315.179-.18a4687 4687 0 0 0-2.255 2.221c.169-.129.282-.203.492-.24 1.365-.24 2.213-3.302 3.535-3.535-1.325.233-2.794 2.5-3.7 3.424-1.219 1.244-1.847 2.813-2.434 4.433-1.229 3.393-3.526 10.503-.686 13.637 1.875 2.069 6.436-1.545 7.873-2.451 2.198-1.383 3.99-3.378 5.795-5.219 4.697-4.793-.447-9.212-2.205-14.341.227.662-3.784 2.811-3.535 3.536z"/></g><g><path fill="none" d="M1463.69 21.546s6.821-5.559 11.194-1.859c5.535 4.682 5.254 17.93-9.531 17.449-12.787-.416-4.023-15.586-.998-15.586"/><path d="M1461.922 23.314c3.977-3.164 9.596-4.752 12.875.086 1.232 1.817 1.676 4.087 1.62 6.246-.029 1.126-.336 2.219-.74 3.261-.208.536-.516 1.023-.82 1.506-1.048 1.66 3.295-2.419.335-.657-3.962 2.358-13.026 3.158-14.649-2.454-.591-2.045.185-4.389.987-6.257.424-.986.991-1.907 1.602-2.787 1.275-1.839-3.06 2.547-1.516 1.428.293-.213.616-.331.972-.37 1.315-.145 2.267-3.396 3.535-3.535-1.821.2-3.702 2.915-4.846 4.082a16.504 16.504 0 0 0-3.89 6.288c-3.081 8.955 7.499 10.125 13.655 7.454 2.538-1.102 4.522-3.602 6.393-5.55 1.979-2.063 2.694-4.812 2.474-7.609-.239-3.036-1.957-6.04-4.708-7.405-3.073-1.525-7.358.839-9.743 2.737-1.298 1.034-2.244 2.508-3.536 3.536z"/></g><g><path fill="none" d="M1418.891 184.916s-7.695 51.27-6.008 58.969c1.689 7.699-19.535 6.756-24.791-1.881-5.256-8.635 21.408-12.955 21.408-12.955s19.955-4.488 21.035-.377c1.877 7.137 4.131 11.271 0 12.396s-3.568-2.816-3.004-7.326c2.816-19.717 3.566-45.445 3.566-45.445"/><path d="M1417.124 186.684a1071.727 1071.727 0 0 0-3.898 28.724c-.848 6.925-1.628 13.865-2.111 20.826-.159 2.3-.268 4.606-.229 6.912.034 2.021.862 3.959-.667 5.642l3.478-3.468c-5.967 4.926-17.977 1.26-22.785-3.678-1.136-1.166-1.846-2.613-1.682-4.242.057-.555.365-1.065.635-1.534-1.646 2.865-1.918 1.663.126.445 3.421-2.038 7.461-3.136 11.285-4.12 4.923-1.267 10.067-2.199 15.091-2.914 3.512-.501 8.25-1.414 11.594.199 1.693.817 1.981 5.064 2.451 6.699.558 1.941 1.268 4.233-.165 5.929l3.536-3.536c-5.404 3.575-4.888-3.313-4.482-6.593.846-6.843 1.626-13.671 2.177-20.545a498.864 498.864 0 0 0 1.39-24.9c-.035 1.186-3.498 2.297-3.535 3.535-.233 7.793-.697 15.582-1.271 23.356a372.752 372.752 0 0 1-1.878 19.013c-.419 3.332-2.935 12.453 3.43 10.09 1.541-.572 3.032-2.727 4.112-3.888 2.398-2.579-.423-9.448-1.582-12.104-1.761-4.033-16.358-.175-19.479.453-9.891 1.993-18.991 4.074-25.922 11.863-5.498 6.18 8.157 11.017 12.08 11.714 6.434 1.144 10.627-.565 14.816-5.175 2.065-2.273.758-8.118.913-11.079.357-6.787 1.156-13.559 1.954-20.306a1000.263 1000.263 0 0 1 4.154-30.854c-.197 1.303-3.335 2.189-3.536 3.536z"/></g><g><path fill="none" d="M116.096 192.054s-2.721 48.657-10.375 50.876c-2.223-.246-5.928.248-14.82-.99-5.678-9.383 12.598-15.559 12.598-15.559l39.271 1.238s5.188 1.229 3.211 7.16-19.02 8.15-20.252 8.15c-1.234 0 3.949-49.394 3.949-49.394"/><path d="M114.329 193.821c-.636 11.224-1.746 22.489-3.686 33.563-.565 3.228-1.26 6.435-2.169 9.584a33.767 33.767 0 0 1-1.427 3.974c-1.076 2.501-3.048 2.877 1.052-.061-1.674 1.199-7.093.106-8.992-.016-2.748-.176-6.173.349-7.25-2.47-.61-1.599-.192-3.31.476-4.797.258-.496.559-.965.901-1.407-1.604 2.274-.507.628.444-.042 1.396-.983 2.932-1.77 4.465-2.513 1.071-.52 2.64-1.519 3.882-1.479l16.852.531 19.663.62c4.83.152 8.51 4.293 4.558 9.018l3.285-3.303c-4.406 4.213-12.946 5.871-18.886 6.138-.512.022.417-12.061.476-12.806.967-12.212 2.197-24.406 3.474-36.588-.132 1.263-3.398 2.225-3.535 3.535-1.277 12.184-2.489 24.378-3.474 36.588-.111 1.376-1.906 11.994-.475 12.806 1.416.804 6.424-1.008 7.866-1.34 3.595-.828 7.995-1.965 10.774-4.55 3.346-3.111 9.54-9.868 2.312-12.838-.973-.399-2.359-.181-3.377-.213l-10.249-.323-22.434-.707c-4.343-.138-7.009 1.035-10.878 3.392-2.686 1.636-4.904 3.977-7.058 6.239-1.417 1.488-2.463 3.016-2.838 5.072-.805 4.409 2.755 4.533 6.093 4.859 2.664.26 8.828 1.573 11.048-.402 1.769-1.573 3.676-3.344 4.847-5.424 4.43-7.866 4.938-18.822 5.978-27.581.813-6.84 1.43-13.718 1.819-20.596-.071 1.218-3.466 2.272-3.537 3.537z"/></g><g><path fill="none" d="M441.427 26.938s-2.721 48.659-10.375 50.878c-2.223-.246-5.928.248-14.82-.99-5.678-9.383 12.598-15.559 12.598-15.559l39.271 1.238s5.188 1.229 3.211 7.16-19.02 8.15-20.252 8.15c-1.234 0 3.949-49.396 3.949-49.396"/><path d="M439.659 28.706c-.636 11.224-1.747 22.49-3.686 33.564-.565 3.229-1.26 6.436-2.168 9.585a33.693 33.693 0 0 1-1.428 3.973c-1.076 2.502-3.048 2.878 1.052-.06-1.674 1.199-7.093.106-8.992-.016-2.748-.176-6.173.349-7.25-2.47-.61-1.599-.192-3.31.476-4.797.258-.496.559-.965.901-1.407-1.604 2.274-.507.628.444-.042 1.396-.983 2.932-1.77 4.465-2.513 1.071-.52 2.64-1.519 3.882-1.479l16.852.531 19.663.62c4.831.152 8.51 4.293 4.558 9.018l3.285-3.303c-4.407 4.213-12.946 5.871-18.886 6.138-.512.022.417-12.061.476-12.807.967-12.212 2.197-24.406 3.474-36.589-.132 1.264-3.398 2.225-3.535 3.535-1.277 12.184-2.489 24.379-3.474 36.59-.111 1.375-1.906 11.994-.475 12.806 1.416.804 6.424-1.008 7.866-1.34 3.595-.828 7.994-1.965 10.774-4.55 3.346-3.111 9.54-9.868 2.312-12.838-.973-.399-2.359-.181-3.377-.213l-10.249-.323-22.434-.707c-4.343-.138-7.01 1.035-10.879 3.392-2.685 1.636-4.903 3.977-7.057 6.239-1.417 1.488-2.463 3.016-2.838 5.072-.805 4.409 2.755 4.533 6.094 4.859 2.663.26 8.828 1.573 11.048-.402 1.769-1.573 3.676-3.344 4.847-5.424 4.43-7.866 4.938-18.823 5.978-27.582a334.928 334.928 0 0 0 1.819-20.597c-.072 1.216-3.467 2.271-3.538 3.537z"/></g><g><path fill="none" d="M1029.555 190.173s-2.721 48.658-10.375 50.877c-2.223-.246-5.928.248-14.82-.99-5.678-9.383 12.598-15.559 12.598-15.559l39.271 1.238s5.188 1.229 3.211 7.16-19.02 8.15-20.252 8.15c-1.234 0 3.949-49.395 3.949-49.395"/><path d="M1027.788 191.94c-.636 11.224-1.746 22.49-3.686 33.564-.565 3.228-1.26 6.435-2.169 9.584a33.593 33.593 0 0 1-1.428 3.974c-1.076 2.501-3.047 2.877 1.053-.061-1.674 1.199-7.094.106-8.992-.016-2.748-.176-6.174.349-7.25-2.47-.609-1.599-.191-3.31.477-4.797a9.41 9.41 0 0 1 .9-1.407c-1.604 2.274-.507.628.444-.042 1.396-.983 2.933-1.77 4.465-2.513 1.071-.52 2.64-1.519 3.882-1.479l16.852.531 19.663.62c4.831.152 8.511 4.293 4.558 9.018l3.285-3.303c-4.406 4.213-12.946 5.871-18.886 6.138-.512.022.417-12.061.476-12.807.967-12.211 2.197-24.405 3.474-36.588-.132 1.263-3.397 2.225-3.535 3.535-1.277 12.184-2.489 24.378-3.474 36.589-.111 1.375-1.906 11.994-.476 12.806 1.415.804 6.425-1.008 7.866-1.34 3.595-.828 7.994-1.965 10.773-4.55 3.346-3.111 9.54-9.868 2.313-12.838-.973-.399-2.359-.181-3.378-.213l-10.249-.323-22.434-.707c-4.344-.138-7.01 1.035-10.879 3.392-2.686 1.636-4.904 3.977-7.058 6.239-1.417 1.488-2.463 3.016-2.839 5.072-.805 4.409 2.756 4.533 6.094 4.859 2.664.26 8.828 1.572 11.049-.402 1.768-1.573 3.676-3.344 4.847-5.424 4.43-7.866 4.938-18.823 5.978-27.582.813-6.84 1.43-13.718 1.819-20.596-.07 1.218-3.464 2.272-3.535 3.537z"/></g><g><path fill="none" d="M849.744 19.632s-2.721 48.658-10.375 50.877c-2.223-.246-5.928.248-14.82-.99-5.678-9.383 12.598-15.559 12.598-15.559l39.271 1.238s5.188 1.229 3.211 7.16-19.02 8.15-20.252 8.15c-1.234 0 3.949-49.395 3.949-49.395"/><path d="M847.977 21.4c-.636 11.224-1.747 22.49-3.686 33.564-.565 3.228-1.26 6.435-2.168 9.584a33.772 33.772 0 0 1-1.428 3.974c-1.076 2.501-3.048 2.877 1.052-.061-1.674 1.199-7.093.106-8.992-.016-2.748-.176-6.173.349-7.25-2.47-.61-1.599-.192-3.31.476-4.797.258-.496.559-.965.901-1.407-1.604 2.274-.507.628.444-.042 1.396-.983 2.932-1.77 4.465-2.513 1.071-.52 2.64-1.519 3.882-1.479l16.852.531 19.663.62c4.831.152 8.51 4.293 4.558 9.018l3.285-3.303c-4.407 4.213-12.946 5.871-18.886 6.138-.512.022.417-12.061.476-12.807.967-12.211 2.197-24.405 3.474-36.588-.132 1.264-3.398 2.225-3.535 3.535-1.277 12.184-2.489 24.378-3.474 36.589-.111 1.375-1.905 11.994-.475 12.806 1.416.804 6.424-1.008 7.866-1.34 3.595-.828 7.994-1.965 10.774-4.55 3.346-3.111 9.54-9.868 2.312-12.838-.973-.399-2.359-.181-3.377-.213l-10.249-.323-22.434-.707c-4.343-.138-7.01 1.035-10.879 3.392-2.685 1.636-4.903 3.977-7.057 6.239-1.417 1.488-2.463 3.016-2.838 5.072-.805 4.409 2.755 4.533 6.094 4.859 2.663.26 8.828 1.573 11.048-.402 1.769-1.573 3.676-3.344 4.847-5.424 4.43-7.866 4.938-18.823 5.978-27.582.813-6.84 1.43-13.718 1.819-20.596-.072 1.217-3.467 2.271-3.538 3.537z"/></g><g><path fill="none" d="M825.621 7.959s6.708-5.559 11.01-1.859c5.443 4.684 5.167 17.93-9.375 17.449-12.576-.416-3.957-15.584-.981-15.584"/><path d="M823.854 9.727c3.915-3.168 9.447-4.739 12.663.087 1.215 1.823 1.648 4.092 1.592 6.246-.029 1.126-.329 2.218-.729 3.262-.204.534-.506 1.022-.806 1.506-1.045 1.684 3.329-2.438.388-.657-4.071 2.464-13.341 3.107-14.5-2.939-.403-2.105.429-4.398 1.299-6.274.44-.949 1.011-1.833 1.629-2.674 1.388-1.89-3.494 3.041-1.837 1.82.288-.212.604-.331.956-.37 1.317-.147 2.265-3.394 3.535-3.535-1.805.202-3.683 2.926-4.816 4.082-1.766 1.802-3.023 3.894-3.833 6.287-2.996 8.848 7.242 10.182 13.429 7.452 4.782-2.109 9.185-7.909 8.779-13.158-.233-3.014-1.903-6.029-4.63-7.406-3.025-1.527-7.252.853-9.583 2.737-1.292 1.043-2.252 2.495-3.536 3.534z"/></g><g><path fill="none" d="M636.862 19.878s-7.695 51.27-6.008 58.969c1.689 7.698-19.535 6.755-24.791-1.881s21.408-12.955 21.408-12.955 19.955-4.488 21.035-.378c1.877 7.137 4.131 11.271 0 12.396s-3.568-2.816-3.004-7.325c2.816-19.718 3.566-45.446 3.566-45.446"/><path d="M635.095 21.646a1072.279 1072.279 0 0 0-3.898 28.724c-.848 6.925-1.628 13.865-2.111 20.826-.16 2.3-.269 4.606-.229 6.912.034 2.02.863 3.959-.666 5.642l3.477-3.468c-5.967 4.925-17.976 1.26-22.786-3.679-1.135-1.165-1.845-2.612-1.681-4.242.056-.555.365-1.064.634-1.534-1.646 2.866-1.918 1.664.126.446 3.42-2.038 7.46-3.136 11.285-4.12 4.922-1.268 10.067-2.199 15.09-2.915 3.512-.5 8.25-1.413 11.593.199 1.693.817 1.981 5.064 2.452 6.699.558 1.941 1.267 4.233-.165 5.929l3.536-3.536c-5.404 3.574-4.887-3.312-4.482-6.592.846-6.843 1.625-13.671 2.177-20.546a497.67 497.67 0 0 0 1.39-24.9c-.035 1.186-3.499 2.298-3.535 3.535-.233 7.793-.697 15.582-1.271 23.356a372.679 372.679 0 0 1-1.878 19.014c-.418 3.332-2.935 12.452 3.43 10.089 1.541-.572 3.032-2.727 4.112-3.888 2.398-2.579-.422-9.448-1.582-12.103-1.761-4.034-16.358-.175-19.479.453-9.891 1.993-18.991 4.073-25.922 11.863-5.498 6.18 8.157 11.016 12.08 11.713 6.435 1.144 10.627-.565 14.817-5.175 2.066-2.273.757-8.117.913-11.078.357-6.787 1.157-13.559 1.954-20.306a1000.272 1000.272 0 0 1 4.155-30.854c-.196 1.303-3.335 2.189-3.536 3.536z"/></g><g><path fill="none" d="M565.118 30.17s10.938-4.975 11.934 8.949c.998 13.922-41.268 8.449-46.24 10.938-4.975 2.486 3.977 33.316-4.477 39.283-8.455 5.967-8.455 2.984-18.895 1.988-3.484-18.396 35.305-15.912 35.305-15.912s12.432-5.963 15.414 3.484c2.98 9.447-14.92 13.922-14.92 13.922l1.494-78.564"/><path d="M563.351 31.938c2.715-1.189 5.892-1.22 8.397.44 2.68 1.777 3.24 5.611 3.537 8.509.1.974-.117 1.905-.466 2.805-1.096 2.817 3.144-1.997.284-.227-4.476 2.77-10.586 3.139-15.684 3.542-5.982.474-11.998.415-17.994.489-6.076.074-13.138.658-13.907 8.237-.606 5.972.525 12.219.793 18.19.232 5.18.68 12.034-2.794 16.332l1.75-1.785-.454.455 1.785-1.75c-3.029 2.418-6.39 4.354-10.346 3.883-2.035-.242-4.05-.796-6.073-1.131-1.307-.216-2.865.312-3.103-1.202-.16-1.014-.088-2.039.041-3.051.174-1.374.811-2.633 1.561-3.773-1.311 1.996-1.049.98.104.219.64-.422 1.333-.762 2.018-1.104 3.256-1.626 6.939-2.401 10.503-2.992 5.505-.914 11.176-1.096 16.747-.885 1.138.043 1.803-.345 2.917-.739 3.409-1.205 7.282-1.672 10.529.178 3.395 1.934 3.884 6.619 2.168 9.736-1.272 2.31 2.125-1.54-.143.118-.736.537-1.541.979-2.334 1.424-1.671.937-3.472 1.647-5.27 2.297-.413.148-2.917 1.265-2.905.638l.079-4.157.814-42.801.596-31.342c-.022 1.174-3.512 2.31-3.535 3.535l-1.4 73.638-.083 4.338c-.022 1.21 1.439.174 2.281-.102 5.844-1.913 10.028-5.181 14.196-9.533 2.336-2.44 2.727-5.242 1.547-8.336-1.587-4.16-6.346-4.572-10.102-3.941-1.476.248-3.58 1.636-5 1.553-1.695-.099-3.396-.11-5.093-.104-8.758.036-19.656.586-26.758 6.335-2.098 1.698-4.297 3.869-5.783 6.13-1.219 1.854-1.424 4.109-1.229 6.259.126 1.398 7.33 2.024 9.176 2.333 8.148 1.357 15.935-7.862 16.925-15.099.792-5.791.084-11.819-.325-17.615-.26-3.678-1.563-9.86.72-13.149l-1.281 1.314.254-.255-2.255 2.221c1.629-1.062 4.235-.848 6.085-.915 3.717-.136 7.441-.098 11.16-.153 7.995-.121 16.89-.062 24.351-3.315 3.622-1.579 8.577-6.082 8.466-10.276-.179-6.828-5.206-11.897-11.934-8.949-1.432.626-2.125 2.916-3.533 3.533z"/></g><g><path fill="none" d="M977.519 21.272s10.938-4.975 11.934 8.949c.998 13.922-41.267 8.449-46.24 10.938-4.975 2.486 3.977 33.316-4.477 39.283-8.455 5.967-8.455 2.984-18.895 1.988-3.484-18.396 35.304-15.912 35.304-15.912s12.432-5.963 15.414 3.484c2.98 9.447-14.92 13.922-14.92 13.922l1.494-78.564"/><path d="M975.751 23.04c2.715-1.189 5.893-1.22 8.397.44 2.68 1.777 3.239 5.611 3.536 8.509.1.974-.116 1.905-.466 2.805-1.095 2.817 3.145-1.997.284-.227-4.475 2.77-10.586 3.139-15.684 3.542-5.982.474-11.997.415-17.994.489-6.075.074-13.138.658-13.906 8.237-.606 5.972.525 12.219.793 18.19.232 5.18.68 12.034-2.794 16.332l1.75-1.785-.454.455 1.785-1.75c-3.029 2.418-6.389 4.354-10.346 3.883-2.035-.242-4.05-.796-6.073-1.131-1.307-.216-2.865.312-3.103-1.202-.16-1.014-.087-2.039.041-3.051.174-1.374.811-2.633 1.561-3.773-1.311 1.996-1.049.98.104.219.64-.422 1.333-.762 2.018-1.104 3.256-1.626 6.939-2.401 10.503-2.992 5.505-.914 11.176-1.096 16.747-.885 1.139.043 1.803-.345 2.917-.739 3.409-1.205 7.281-1.672 10.528.178 3.396 1.934 3.885 6.619 2.168 9.736-1.271 2.31 2.125-1.54-.143.118-.735.537-1.541.979-2.334 1.424-1.67.937-3.471 1.647-5.27 2.297-.412.148-2.916 1.265-2.904.638l.079-4.157.813-42.801.596-31.342c-.021 1.174-3.512 2.31-3.535 3.535l-1.4 73.638-.082 4.338c-.023 1.21 1.439.174 2.28-.102 5.844-1.913 10.028-5.181 14.196-9.533 2.336-2.44 2.727-5.242 1.547-8.336-1.587-4.16-6.346-4.572-10.102-3.941-1.476.248-3.58 1.636-5 1.553-1.695-.099-3.396-.11-5.093-.104-8.759.036-19.656.586-26.759 6.335-2.097 1.697-4.297 3.869-5.782 6.13-1.219 1.854-1.424 4.109-1.229 6.259.126 1.398 7.33 2.024 9.176 2.333 8.148 1.357 15.935-7.862 16.925-15.099.792-5.791.085-11.819-.325-17.615-.26-3.678-1.563-9.86.72-13.149l-1.281 1.314.254-.255a4687 4687 0 0 0-2.255 2.221c1.629-1.062 4.235-.848 6.085-.915 3.717-.136 7.442-.098 11.161-.153 7.994-.121 16.889-.062 24.351-3.315 3.622-1.579 8.577-6.082 8.466-10.276-.179-6.828-5.205-11.897-11.934-8.949-1.431.625-2.124 2.915-3.533 3.533z"/></g><g><path fill="none" d="M818.04 177.229s-7.695 51.27-6.008 58.969c1.689 7.698-19.535 6.755-24.791-1.881s21.408-12.955 21.408-12.955 19.955-4.488 21.035-.378c1.877 7.137 4.131 11.271 0 12.396s-3.568-2.816-3.004-7.325c2.816-19.718 3.566-45.446 3.566-45.446"/><path d="M816.272 178.996a1071.176 1071.176 0 0 0-3.898 28.724c-.848 6.925-1.628 13.865-2.111 20.826-.16 2.3-.269 4.606-.229 6.912.034 2.02.863 3.959-.666 5.642l3.477-3.468c-5.967 4.925-17.976 1.26-22.786-3.679-1.135-1.165-1.845-2.612-1.681-4.242.056-.555.365-1.064.634-1.534-1.646 2.866-1.918 1.664.126.446 3.42-2.038 7.46-3.136 11.285-4.12 4.922-1.268 10.067-2.199 15.09-2.915 3.512-.5 8.25-1.413 11.593.199 1.693.817 1.982 5.064 2.452 6.699.558 1.941 1.267 4.233-.165 5.929l3.536-3.536c-5.404 3.574-4.887-3.312-4.482-6.592.846-6.843 1.626-13.671 2.177-20.546a497.67 497.67 0 0 0 1.39-24.9c-.035 1.187-3.499 2.298-3.535 3.535-.233 7.793-.697 15.582-1.271 23.356a372.679 372.679 0 0 1-1.878 19.014c-.418 3.332-2.935 12.452 3.43 10.089 1.541-.572 3.032-2.727 4.112-3.888 2.398-2.579-.422-9.448-1.582-12.103-1.761-4.034-16.358-.175-19.479.453-9.891 1.993-18.991 4.073-25.922 11.863-5.498 6.18 8.157 11.016 12.08 11.713 6.435 1.144 10.627-.565 14.817-5.175 2.066-2.273.758-8.117.913-11.078.357-6.787 1.157-13.559 1.954-20.306a1000.272 1000.272 0 0 1 4.155-30.854c-.195 1.304-3.334 2.189-3.536 3.536z"/></g><g><path fill="none" d="M438.996 187.749s10.938-4.975 11.934 8.949c.998 13.922-41.268 8.449-46.24 10.938-4.975 2.486 3.977 33.316-4.477 39.283-8.455 5.967-8.455 2.984-18.895 1.988-3.484-18.396 35.305-15.912 35.305-15.912s12.432-5.963 15.414 3.484c2.98 9.447-14.92 13.922-14.92 13.922l1.494-78.564"/><path d="M437.228 189.517c2.715-1.189 5.892-1.22 8.397.44 2.68 1.777 3.24 5.611 3.537 8.509.1.974-.117 1.905-.466 2.805-1.095 2.817 3.145-1.997.285-.228-4.476 2.771-10.586 3.14-15.684 3.543-5.982.474-11.998.415-17.994.489-6.076.074-13.138.658-13.907 8.237-.606 5.972.525 12.219.793 18.19.232 5.18.68 12.034-2.794 16.332l1.75-1.785-.454.455 1.785-1.75c-3.029 2.418-6.389 4.354-10.346 3.883-2.035-.242-4.05-.796-6.073-1.131-1.307-.216-2.865.312-3.103-1.202-.16-1.014-.088-2.039.041-3.051.174-1.374.811-2.633 1.561-3.773-1.311 1.996-1.049.98.104.219.64-.422 1.333-.762 2.018-1.104 3.256-1.626 6.939-2.401 10.503-2.992 5.505-.914 11.176-1.096 16.747-.885 1.138.043 1.803-.345 2.917-.739 3.409-1.205 7.282-1.672 10.529.178 3.395 1.934 3.884 6.619 2.168 9.736-1.272 2.31 2.125-1.54-.143.118-.736.537-1.541.979-2.334 1.424-1.671.937-3.472 1.647-5.27 2.297-.413.148-2.917 1.265-2.905.638l.079-4.157.814-42.801.596-31.342c-.022 1.173-3.512 2.31-3.535 3.535l-1.4 73.638-.083 4.338c-.023 1.21 1.439.174 2.28-.102 5.844-1.913 10.028-5.181 14.196-9.533 2.336-2.44 2.727-5.242 1.547-8.336-1.587-4.16-6.346-4.572-10.102-3.941-1.476.248-3.58 1.636-5 1.553-1.695-.099-3.396-.11-5.093-.104-8.758.036-19.656.586-26.758 6.335-2.098 1.697-4.297 3.869-5.783 6.13-1.219 1.854-1.424 4.109-1.229 6.259.126 1.398 7.33 2.024 9.176 2.333 8.148 1.357 15.935-7.862 16.925-15.099.792-5.791.084-11.819-.325-17.615-.26-3.678-1.563-9.86.72-13.149l-1.281 1.314.254-.255a4687 4687 0 0 0-2.255 2.221c1.629-1.062 4.235-.848 6.085-.915 3.717-.136 7.441-.098 11.16-.153 7.995-.121 16.89-.062 24.351-3.315 3.622-1.579 8.577-6.082 8.466-10.276-.179-6.829-5.206-11.897-11.934-8.949-1.431.625-2.125 2.915-3.533 3.533z"/></g><g><path fill="none" d="M1357.455 194.545s10.938-4.975 11.934 8.949c.998 13.922-41.268 8.449-46.24 10.938-4.975 2.486 3.977 33.316-4.477 39.283-8.455 5.967-8.455 2.984-18.895 1.988-3.484-18.396 35.305-15.912 35.305-15.912s12.432-5.963 15.414 3.484c2.98 9.447-14.92 13.922-14.92 13.922l1.494-78.564"/><path d="M1355.687 196.313c2.715-1.189 5.892-1.221 8.396.441 2.68 1.775 3.24 5.61 3.537 8.508.1.974-.116 1.905-.466 2.805-1.096 2.817 3.145-1.997.284-.227-4.476 2.77-10.586 3.139-15.684 3.542-5.982.474-11.997.415-17.994.489-6.075.074-13.138.658-13.907 8.237-.605 5.972.526 12.219.794 18.19.232 5.18.681 12.034-2.794 16.332l1.75-1.785-.454.455 1.785-1.75c-3.029 2.418-6.39 4.354-10.346 3.883-2.035-.242-4.05-.796-6.073-1.131-1.307-.216-2.865.312-3.103-1.202-.159-1.014-.088-2.039.04-3.051.175-1.374.812-2.633 1.562-3.773-1.312 1.996-1.05.98.104.219.64-.422 1.333-.762 2.017-1.104 3.257-1.626 6.939-2.401 10.504-2.992 5.505-.914 11.177-1.096 16.747-.885 1.138.043 1.803-.345 2.917-.739 3.408-1.205 7.281-1.672 10.528.178 3.395 1.934 3.885 6.619 2.168 9.736-1.272 2.31 2.125-1.54-.143.118-.735.537-1.541.979-2.334 1.424-1.671.937-3.472 1.647-5.27 2.297-.413.148-2.917 1.265-2.905.638l.079-4.157.814-42.801.596-31.342c-.022 1.174-3.512 2.309-3.535 3.535l-1.4 73.638-.083 4.338c-.022 1.21 1.439.174 2.28-.102 5.845-1.913 10.029-5.181 14.196-9.533 2.337-2.44 2.728-5.242 1.548-8.336-1.587-4.16-6.347-4.572-10.102-3.941-1.477.248-3.58 1.636-5 1.553-1.695-.099-3.396-.11-5.093-.104-8.759.036-19.656.586-26.759 6.335-2.098 1.698-4.298 3.869-5.783 6.13-1.219 1.854-1.424 4.109-1.229 6.259.126 1.398 7.329 2.024 9.176 2.333 8.147 1.357 15.935-7.862 16.924-15.099.792-5.791.085-11.819-.324-17.615-.26-3.678-1.563-9.86.721-13.149l-1.281 1.314.254-.255-2.255 2.221c1.63-1.062 4.235-.848 6.086-.915 3.717-.136 7.441-.098 11.16-.153 7.995-.121 16.89-.062 24.351-3.315 3.622-1.579 8.577-6.082 8.467-10.276-.18-6.828-5.205-11.897-11.934-8.949-1.432.625-2.126 2.915-3.534 3.533z"/></g><g><path fill="none" d="M635.335 181.276s-7.695 51.27-6.008 58.969c1.689 7.699-19.535 6.756-24.791-1.881-5.256-8.635 21.408-12.955 21.408-12.955s19.955-4.488 21.035-.377c1.877 7.137 4.131 11.271 0 12.396s-3.568-2.816-3.004-7.326c2.816-19.717 3.566-45.445 3.566-45.445"/><path d="M633.568 183.044a1072.279 1072.279 0 0 0-3.898 28.724c-.848 6.925-1.628 13.865-2.111 20.826-.16 2.3-.269 4.606-.229 6.912.034 2.021.863 3.959-.666 5.642l3.477-3.468c-5.967 4.926-17.977 1.26-22.786-3.678-1.135-1.166-1.845-2.613-1.681-4.242.056-.555.365-1.065.634-1.534-1.646 2.865-1.918 1.663.126.445 3.42-2.038 7.46-3.136 11.285-4.12 4.922-1.267 10.067-2.199 15.09-2.914 3.512-.501 8.25-1.414 11.593.199 1.693.817 1.981 5.064 2.452 6.699.558 1.941 1.267 4.233-.165 5.929l3.536-3.536c-5.404 3.575-4.887-3.313-4.482-6.593.846-6.843 1.626-13.671 2.177-20.545a497.736 497.736 0 0 0 1.39-24.9c-.035 1.187-3.499 2.298-3.535 3.535-.233 7.793-.697 15.582-1.271 23.356a372.752 372.752 0 0 1-1.878 19.013c-.418 3.332-2.935 12.453 3.43 10.09 1.541-.572 3.032-2.727 4.112-3.888 2.398-2.579-.423-9.448-1.582-12.104-1.761-4.033-16.358-.175-19.479.453-9.891 1.993-18.991 4.074-25.922 11.863-5.498 6.18 8.157 11.017 12.08 11.714 6.435 1.144 10.628-.565 14.817-5.175 2.066-2.274.757-8.118.913-11.079.357-6.787 1.157-13.559 1.954-20.306a1000.272 1000.272 0 0 1 4.155-30.854c-.196 1.303-3.334 2.189-3.536 3.536z"/></g><g><path fill="none" d="M1249.976 13.304s-7.695 51.27-6.008 58.969c1.689 7.699-19.535 6.756-24.791-1.881-5.256-8.635 21.408-12.955 21.408-12.955s19.955-4.488 21.035-.377c1.877 7.137 4.131 11.271 0 12.396s-3.568-2.816-3.004-7.326c2.816-19.717 3.566-45.445 3.566-45.445"/><path d="M1248.208 15.072a1072.279 1072.279 0 0 0-3.898 28.724c-.848 6.925-1.629 13.865-2.111 20.826-.159 2.3-.268 4.606-.229 6.912.033 2.021.862 3.959-.666 5.642l3.477-3.468c-5.967 4.926-17.977 1.26-22.785-3.678-1.135-1.166-1.846-2.613-1.682-4.242.057-.555.365-1.065.635-1.534-1.646 2.865-1.918 1.664.127.445 3.42-2.038 7.46-3.136 11.285-4.12 4.922-1.267 10.066-2.199 15.09-2.915 3.512-.5 8.25-1.413 11.594.2 1.693.817 1.981 5.064 2.451 6.699.559 1.941 1.268 4.233-.165 5.929l3.536-3.536c-5.404 3.575-4.888-3.313-4.482-6.593.846-6.843 1.626-13.671 2.177-20.545a498.864 498.864 0 0 0 1.39-24.9c-.035 1.186-3.498 2.298-3.535 3.535-.233 7.793-.697 15.582-1.271 23.356a372.752 372.752 0 0 1-1.878 19.013c-.419 3.332-2.935 12.453 3.43 10.09 1.54-.572 3.032-2.727 4.112-3.888 2.398-2.579-.424-9.448-1.582-12.104-1.761-4.033-16.357-.175-19.479.453-9.891 1.993-18.991 4.074-25.922 11.863-5.498 6.18 8.157 11.017 12.08 11.714 6.434 1.144 10.627-.565 14.816-5.175 2.066-2.274.758-8.118.913-11.079.356-6.787 1.157-13.559 1.954-20.306a1000.263 1000.263 0 0 1 4.154-30.854c-.196 1.302-3.334 2.189-3.536 3.536z"/></g><g><path fill="none" d="M698.999 179.781s-7.695 51.27-6.008 58.969c1.689 7.699-19.535 6.756-24.791-1.881-5.256-8.635 21.408-12.955 21.408-12.955s19.955-4.488 21.035-.377c1.877 7.137 4.131 11.271 0 12.396s-3.568-2.816-3.004-7.326c2.816-19.717 3.566-45.445 3.566-45.445"/><path d="M697.231 181.549a1071.176 1071.176 0 0 0-3.898 28.724c-.848 6.925-1.628 13.865-2.111 20.826-.16 2.3-.269 4.606-.229 6.912.034 2.021.863 3.959-.666 5.642l3.477-3.468c-5.967 4.926-17.977 1.26-22.786-3.678-1.135-1.166-1.845-2.613-1.681-4.242.056-.555.365-1.065.634-1.534-1.646 2.865-1.918 1.663.126.445 3.42-2.038 7.46-3.136 11.285-4.12 4.922-1.267 10.067-2.199 15.09-2.914 3.512-.501 8.25-1.414 11.593.199 1.693.817 1.981 5.064 2.452 6.699.558 1.941 1.267 4.233-.165 5.929l3.536-3.536c-5.404 3.575-4.887-3.313-4.482-6.593.846-6.843 1.626-13.671 2.177-20.545a497.67 497.67 0 0 0 1.39-24.9c-.035 1.186-3.499 2.297-3.535 3.535-.233 7.793-.697 15.582-1.271 23.356a372.752 372.752 0 0 1-1.878 19.013c-.418 3.332-2.935 12.453 3.43 10.09 1.541-.572 3.032-2.727 4.112-3.888 2.398-2.579-.423-9.448-1.582-12.104-1.761-4.033-16.358-.175-19.479.453-9.891 1.993-18.991 4.074-25.922 11.863-5.498 6.18 8.157 11.017 12.08 11.714 6.435 1.144 10.628-.565 14.817-5.175 2.066-2.273.757-8.118.913-11.079.357-6.787 1.157-13.559 1.954-20.306a1000.272 1000.272 0 0 1 4.155-30.854c-.196 1.303-3.334 2.189-3.536 3.536z"/></g><g><path fill="none" d="M518.692 185.639s10.938-4.975 11.934 8.949c.998 13.922-41.268 8.449-46.24 10.938-4.975 2.486 3.977 33.316-4.477 39.283-8.455 5.967-8.455 2.984-18.895 1.988-3.484-18.396 35.305-15.912 35.305-15.912s12.432-5.963 15.414 3.484c2.98 9.447-14.92 13.922-14.92 13.922l1.494-78.564"/><path d="M516.924 187.406c2.715-1.189 5.892-1.221 8.397.441 2.68 1.775 3.24 5.61 3.537 8.508.1.974-.117 1.905-.466 2.805-1.095 2.817 3.145-1.997.285-.227-4.476 2.77-10.586 3.139-15.684 3.542-5.982.474-11.998.415-17.994.489-6.076.074-13.138.658-13.907 8.237-.606 5.972.525 12.219.793 18.19.232 5.18.68 12.034-2.794 16.332l1.75-1.785-.454.455 1.785-1.75c-3.029 2.418-6.389 4.354-10.346 3.883-2.035-.242-4.05-.796-6.073-1.131-1.307-.216-2.865.312-3.103-1.202-.16-1.014-.088-2.039.041-3.051.174-1.374.811-2.633 1.561-3.773-1.311 1.996-1.049.98.104.219.64-.422 1.333-.762 2.018-1.104 3.256-1.626 6.939-2.401 10.503-2.992 5.505-.914 11.176-1.096 16.747-.885 1.138.043 1.803-.345 2.917-.739 3.409-1.205 7.282-1.672 10.529.178 3.395 1.934 3.884 6.619 2.168 9.736-1.272 2.31 2.125-1.54-.143.118-.736.537-1.541.979-2.334 1.424-1.671.937-3.472 1.647-5.27 2.297-.413.148-2.917 1.265-2.905.638l.079-4.157.814-42.801.596-31.342c-.022 1.174-3.512 2.309-3.535 3.535l-1.4 73.638-.083 4.338c-.023 1.21 1.439.174 2.28-.102 5.844-1.913 10.028-5.181 14.196-9.533 2.336-2.44 2.727-5.242 1.547-8.336-1.587-4.16-6.346-4.572-10.102-3.941-1.476.248-3.58 1.636-5 1.553-1.695-.099-3.396-.11-5.093-.104-8.758.036-19.656.586-26.758 6.335-2.098 1.698-4.297 3.869-5.783 6.13-1.219 1.854-1.424 4.109-1.229 6.259.126 1.398 7.33 2.024 9.176 2.333 8.148 1.357 15.935-7.862 16.925-15.099.792-5.791.084-11.819-.325-17.615-.26-3.678-1.563-9.86.72-13.149l-1.281 1.314.254-.255a4687 4687 0 0 0-2.255 2.221c1.629-1.062 4.235-.848 6.085-.915 3.717-.136 7.441-.098 11.16-.153 7.995-.121 16.89-.062 24.351-3.315 3.622-1.579 8.577-6.082 8.466-10.276-.179-6.828-5.206-11.897-11.934-8.949-1.431.626-2.124 2.916-3.533 3.533z"/></g><g><path fill="none" d="M189.518 192.748s-2.721 48.657-10.375 50.876c-2.223-.246-5.928.248-14.82-.99-5.678-9.383 12.598-15.559 12.598-15.559l39.271 1.238s5.188 1.229 3.211 7.16-19.02 8.15-20.252 8.15c-1.234 0 3.949-49.394 3.949-49.394"/><path d="M187.75 194.516c-.636 11.224-1.746 22.489-3.686 33.563-.565 3.228-1.26 6.435-2.169 9.584a33.767 33.767 0 0 1-1.427 3.974c-1.076 2.501-3.048 2.877 1.052-.061-1.674 1.199-7.093.106-8.992-.016-2.748-.176-6.173.349-7.25-2.47-.61-1.599-.192-3.31.476-4.797.258-.496.559-.965.901-1.407-1.604 2.274-.507.628.444-.042 1.396-.983 2.932-1.77 4.465-2.513 1.071-.52 2.64-1.519 3.882-1.479l16.852.531 19.663.62c4.83.152 8.51 4.293 4.558 9.018l3.285-3.303c-4.406 4.213-12.946 5.871-18.886 6.138-.512.022.417-12.061.476-12.806.967-12.212 2.197-24.406 3.474-36.588-.132 1.264-3.398 2.225-3.535 3.535-1.277 12.184-2.489 24.378-3.474 36.588-.111 1.376-1.906 11.994-.475 12.806 1.416.804 6.424-1.008 7.866-1.34 3.595-.828 7.995-1.965 10.774-4.55 3.346-3.111 9.54-9.868 2.312-12.838-.973-.399-2.359-.181-3.377-.213l-10.249-.323-22.434-.707c-4.343-.138-7.009 1.035-10.878 3.392-2.686 1.636-4.904 3.977-7.058 6.239-1.417 1.488-2.463 3.016-2.838 5.072-.805 4.409 2.755 4.533 6.093 4.859 2.664.26 8.828 1.572 11.048-.402 1.769-1.573 3.676-3.344 4.847-5.424 4.43-7.866 4.938-18.822 5.978-27.581.813-6.84 1.43-13.719 1.819-20.596-.07 1.216-3.465 2.271-3.537 3.537z"/></g><g><path fill="none" d="M1144.59 23.268s-2.721 48.658-10.375 50.877c-2.223-.246-5.928.248-14.82-.99-5.678-9.383 12.598-15.559 12.598-15.559l39.271 1.238s5.188 1.229 3.211 7.16-19.02 8.15-20.252 8.15c-1.234 0 3.949-49.395 3.949-49.395"/><path d="M1142.823 25.036c-.636 11.224-1.747 22.49-3.686 33.564-.565 3.228-1.26 6.435-2.169 9.584a33.593 33.593 0 0 1-1.428 3.974c-1.076 2.501-3.047 2.877 1.053-.061-1.674 1.199-7.094.106-8.992-.016-2.748-.176-6.174.349-7.25-2.47-.609-1.599-.191-3.31.477-4.797a9.41 9.41 0 0 1 .9-1.407c-1.604 2.274-.507.628.444-.042 1.396-.983 2.933-1.77 4.465-2.513 1.071-.52 2.64-1.519 3.882-1.479l16.852.531 19.663.62c4.831.152 8.511 4.293 4.558 9.018l3.285-3.303c-4.406 4.213-12.946 5.871-18.886 6.138-.512.022.417-12.061.476-12.807.967-12.211 2.197-24.405 3.474-36.588-.132 1.264-3.397 2.225-3.535 3.535-1.277 12.184-2.489 24.378-3.474 36.589-.111 1.375-1.906 11.994-.476 12.806 1.415.804 6.425-1.008 7.866-1.34 3.595-.828 7.994-1.965 10.773-4.55 3.346-3.111 9.541-9.868 2.313-12.838-.973-.399-2.359-.181-3.378-.213l-10.249-.323-22.434-.707c-4.344-.138-7.01 1.035-10.879 3.392-2.686 1.636-4.904 3.977-7.058 6.239-1.417 1.488-2.463 3.016-2.839 5.072-.805 4.409 2.756 4.533 6.094 4.859 2.664.26 8.828 1.573 11.049-.402 1.768-1.573 3.676-3.344 4.847-5.424 4.43-7.866 4.938-18.823 5.978-27.582.813-6.84 1.43-13.718 1.819-20.596-.069 1.216-3.464 2.271-3.535 3.537z"/></g><g><path fill="none" d="M1553.306 186.328s10.938-4.975 11.934 8.949c.998 13.922-41.268 8.449-46.24 10.938-4.975 2.486 3.977 33.316-4.477 39.283-8.455 5.967-8.455 2.984-18.895 1.988-3.484-18.396 35.305-15.912 35.305-15.912s12.432-5.963 15.414 3.484c2.98 9.447-14.92 13.922-14.92 13.922l1.494-78.564"/><path d="M1551.539 188.096c2.715-1.189 5.892-1.221 8.396.441 2.68 1.775 3.24 5.61 3.537 8.508.1.974-.116 1.905-.466 2.805-1.096 2.817 3.145-1.997.284-.227-4.476 2.77-10.586 3.139-15.684 3.542-5.982.474-11.997.415-17.994.489-6.075.074-13.138.658-13.907 8.237-.605 5.972.526 12.219.794 18.19.232 5.18.681 12.034-2.794 16.332l1.75-1.785-.454.455 1.785-1.75c-3.029 2.418-6.39 4.354-10.346 3.883-2.035-.242-4.05-.796-6.073-1.131-1.307-.216-2.865.312-3.103-1.202-.159-1.014-.088-2.039.04-3.051.175-1.374.812-2.633 1.562-3.773-1.312 1.996-1.05.98.104.219.64-.422 1.333-.762 2.017-1.104 3.257-1.626 6.939-2.401 10.504-2.992 5.505-.914 11.177-1.096 16.747-.885 1.138.043 1.803-.345 2.917-.739 3.408-1.205 7.281-1.672 10.528.178 3.395 1.934 3.885 6.619 2.168 9.736-1.272 2.31 2.125-1.54-.143.118-.735.537-1.541.979-2.334 1.424-1.671.937-3.472 1.647-5.27 2.297-.413.148-2.917 1.265-2.905.638l.079-4.157.814-42.801.596-31.342c-.022 1.174-3.512 2.309-3.535 3.535l-1.4 73.638-.083 4.338c-.022 1.21 1.439.174 2.28-.102 5.845-1.913 10.029-5.181 14.196-9.533 2.337-2.44 2.728-5.242 1.548-8.336-1.587-4.16-6.347-4.572-10.102-3.941-1.477.248-3.58 1.636-5 1.553-1.695-.099-3.396-.11-5.093-.104-8.759.036-19.656.586-26.759 6.335-2.098 1.698-4.298 3.869-5.782 6.13-1.22 1.854-1.424 4.109-1.229 6.259.126 1.398 7.329 2.024 9.176 2.333 8.147 1.357 15.935-7.862 16.924-15.099.792-5.791.085-11.819-.324-17.615-.26-3.678-1.563-9.86.72-13.149l-1.28 1.314.254-.255-2.255 2.221c1.63-1.062 4.235-.848 6.086-.915 3.717-.136 7.441-.098 11.16-.153 7.995-.121 16.89-.062 24.351-3.315 3.622-1.579 8.577-6.082 8.467-10.276-.18-6.828-5.205-11.897-11.934-8.949-1.434.625-2.127 2.916-3.535 3.533z"/></g><g><path fill="none" d="M1059.292 15.311s-7.695 51.27-6.008 58.969c1.689 7.697-19.535 6.754-24.791-1.881-5.256-8.637 21.408-12.955 21.408-12.955s19.955-4.488 21.035-.379c1.877 7.137 4.131 11.271 0 12.396s-3.568-2.816-3.004-7.324c2.816-19.719 3.566-45.447 3.566-45.447"/><path d="M1057.525 17.079a1068.227 1068.227 0 0 0-3.898 28.724c-.848 6.925-1.629 13.865-2.111 20.826-.16 2.3-.269 4.606-.229 6.912.034 2.02.862 3.959-.666 5.641 1.159-1.155 2.317-2.312 3.478-3.468-5.968 4.925-17.977 1.26-22.786-3.678-1.136-1.165-1.845-2.613-1.681-4.242.056-.555.365-1.064.635-1.534-1.646 2.865-1.919 1.664.126.445 3.42-2.037 7.46-3.136 11.285-4.12 4.923-1.267 10.067-2.198 15.091-2.914 3.512-.5 8.248-1.414 11.593.199 1.693.816 1.981 5.063 2.452 6.698.558 1.941 1.267 4.233-.166 5.929l3.536-3.536c-5.403 3.574-4.888-3.31-4.481-6.591.846-6.843 1.625-13.672 2.176-20.547a497.672 497.672 0 0 0 1.391-24.9c-.035 1.186-3.499 2.298-3.535 3.535-.234 7.793-.697 15.582-1.271 23.356a372.722 372.722 0 0 1-1.879 19.015c-.418 3.332-2.934 12.451 3.43 10.088 1.541-.572 3.032-2.727 4.112-3.888 2.398-2.579-.423-9.449-1.581-12.103-1.762-4.033-16.359-.174-19.479.454-9.891 1.993-18.992 4.072-25.922 11.863-5.498 6.18 8.156 11.015 12.079 11.712 6.435 1.144 10.628-.564 14.817-5.174 2.065-2.273.758-8.117.912-11.078.357-6.787 1.157-13.559 1.954-20.306a1000.272 1000.272 0 0 1 4.155-30.854c-.197 1.302-3.336 2.189-3.537 3.536z"/></g><g><path fill="none" d="M239.581 181.667s6.822-5.559 11.195-1.859c5.535 4.682 5.254 17.93-9.531 17.449-12.787-.416-4.023-15.586-.998-15.586"/><path d="M237.813 183.435c3.977-3.163 9.597-4.753 12.876.087 1.231 1.816 1.676 4.087 1.62 6.246-.03 1.126-.335 2.219-.741 3.261-.208.536-.515 1.023-.82 1.507-1.047 1.659 3.295-2.42.335-.658-3.962 2.359-13.026 3.158-14.649-2.453-.591-2.045.185-4.389.988-6.256.424-.987.991-1.908 1.601-2.787 1.275-1.84-3.06 2.547-1.516 1.428.293-.213.616-.33.972-.37 1.315-.145 2.267-3.396 3.535-3.535-1.821.2-3.702 2.915-4.846 4.082a16.51 16.51 0 0 0-3.889 6.288c-3.082 8.955 7.499 10.125 13.655 7.453 2.538-1.102 4.523-3.602 6.393-5.55 1.98-2.063 2.694-4.812 2.474-7.609-.239-3.036-1.958-6.04-4.708-7.405-3.073-1.525-7.359.84-9.744 2.737-1.299 1.032-2.245 2.505-3.536 3.534z"/></g><g><path fill="none" d="M266.309 193.52s-2.721 48.657-10.375 50.876c-2.223-.246-5.928.248-14.82-.99-5.678-9.383 12.598-15.559 12.598-15.559l39.271 1.238s5.188 1.229 3.211 7.16-19.02 8.15-20.252 8.15c-1.234 0 3.949-49.394 3.949-49.394"/><path d="M264.542 195.287c-.636 11.224-1.746 22.489-3.686 33.563-.565 3.228-1.26 6.435-2.169 9.584a33.767 33.767 0 0 1-1.427 3.974c-1.076 2.501-3.048 2.877 1.052-.061-1.674 1.199-7.093.106-8.992-.016-2.748-.176-6.173.349-7.25-2.47-.61-1.599-.192-3.31.476-4.797.258-.496.559-.965.901-1.407-1.604 2.274-.507.628.444-.042 1.396-.983 2.932-1.77 4.465-2.513 1.071-.52 2.64-1.519 3.882-1.479l16.852.531 19.663.62c4.83.152 8.51 4.293 4.558 9.018l3.285-3.303c-4.406 4.213-12.946 5.871-18.886 6.138-.512.022.417-12.061.476-12.806.967-12.212 2.197-24.406 3.474-36.588-.132 1.264-3.398 2.225-3.535 3.535-1.277 12.184-2.489 24.378-3.474 36.588-.111 1.376-1.906 11.994-.475 12.806 1.416.804 6.424-1.008 7.866-1.34 3.595-.828 7.995-1.965 10.774-4.55 3.346-3.111 9.54-9.868 2.312-12.838-.973-.399-2.359-.181-3.377-.213l-10.249-.323-22.434-.707c-4.343-.138-7.009 1.035-10.878 3.392-2.686 1.636-4.904 3.977-7.058 6.239-1.417 1.488-2.463 3.016-2.838 5.072-.805 4.409 2.755 4.533 6.093 4.859 2.664.26 8.828 1.572 11.048-.402 1.769-1.573 3.676-3.344 4.847-5.424 4.43-7.866 4.938-18.822 5.978-27.581.813-6.84 1.43-13.719 1.819-20.596-.071 1.217-3.466 2.271-3.537 3.537z"/></g><g><path fill="none" d="M925.973 188.69s-2.721 48.658-10.375 50.877c-2.223-.246-5.928.248-14.82-.99-5.678-9.383 12.598-15.559 12.598-15.559l39.271 1.238s5.188 1.229 3.211 7.16-19.02 8.15-20.252 8.15c-1.234 0 3.949-49.395 3.949-49.395"/><path d="M924.206 190.458c-.636 11.224-1.746 22.49-3.686 33.564-.565 3.228-1.26 6.435-2.168 9.584a33.772 33.772 0 0 1-1.428 3.974c-1.076 2.501-3.048 2.877 1.052-.061-1.674 1.199-7.093.106-8.992-.016-2.748-.176-6.173.349-7.25-2.47-.61-1.599-.192-3.31.476-4.797.258-.496.559-.965.901-1.407-1.604 2.274-.507.628.444-.042 1.396-.983 2.932-1.77 4.465-2.513 1.071-.52 2.64-1.519 3.882-1.479l16.852.531 19.663.62c4.831.152 8.511 4.293 4.558 9.018l3.285-3.303c-4.406 4.213-12.946 5.871-18.886 6.138-.512.022.417-12.061.476-12.807.967-12.211 2.197-24.405 3.474-36.588-.132 1.263-3.398 2.225-3.535 3.535-1.277 12.184-2.489 24.378-3.474 36.589-.111 1.375-1.906 11.994-.475 12.806 1.416.804 6.424-1.008 7.866-1.34 3.595-.828 7.994-1.965 10.774-4.55 3.346-3.111 9.54-9.868 2.313-12.838-.973-.399-2.359-.181-3.378-.213l-10.249-.323-22.434-.707c-4.343-.138-7.009 1.035-10.879 3.392-2.685 1.636-4.903 3.977-7.057 6.239-1.417 1.488-2.463 3.016-2.838 5.072-.805 4.409 2.755 4.533 6.093 4.859 2.664.26 8.828 1.572 11.048-.402 1.769-1.573 3.676-3.344 4.847-5.424 4.43-7.866 4.938-18.823 5.978-27.582.813-6.84 1.43-13.718 1.819-20.596-.071 1.218-3.466 2.271-3.537 3.537z"/></g><g><path fill="none" d="M1622.207 190.575c2.982 0 13.422.494 13.92 5.469s-10.938 6.469-13.92 7.457c-2.984.996-9.447 2.484-5.967-3.979 3.478-6.46 2.982-8.947 5.967-8.947zm0 0s18.395 6.465 24.859 5.469c6.467-.998 16.908-3.979 22.377-1.492 5.469 2.488-18.398 15.908-18.398 15.908l-1.49-56.183"/><path d="M1620.439 192.343c4.094.031 8.77.356 12.244 2.725.761.519 1.212 1.263 1.548 2.093.852 2.11-2.02 3.305 1.56.654-1.918 1.42-4.508 2.045-6.771 2.652-3.161.848-7.16 2.501-10.452 2.074-2.584-.335-1.226-3.42-.56-4.786 1.236-2.534 2.162-6.083 4.029-8.235l-3.478 3.467c.607-.473 1.116-.594 1.88-.644 1.274-.083 2.311-3.455 3.535-3.535-4.765.312-7.197 7.806-8.814 11.158-1.394 2.888-3.062 6.462 1.632 6.15 2.61-.173 5.37-1.295 7.908-1.915 4.76-1.162 9.786-3.356 12.543-7.714 4.13-6.524-9.773-7.653-13.269-7.68-1.195-.008-2.393 3.545-3.535 3.536z"/><path d="M1620.439 192.343c5.439 1.901 11.002 3.53 16.639 4.728 8.502 1.805 16.209-1.42 24.709-1.715 1.508-.053 6.794-.166 6.685 2.276-.054 1.189-2.676 3.296.896-.06-1.403 1.319-2.993 2.453-4.555 3.573-3.833 2.749-7.893 5.229-12 7.547.613-.346-.208-7.858-.228-8.594l-.504-19.002-.759-28.587c.03 1.118-3.566 2.362-3.535 3.535l.837 31.554.515 19.406.129 4.861c.021.827 1.802-.674 2.239-.931 1.773-1.043 24.12-15.617 19.704-18.151-3.945-2.265-10.292-.698-14.438.022-4.442.771-8.49 1.867-13.007 1.283-6.716-.869-13.414-3.054-19.792-5.282-.715-.248-2.885 3.764-3.535 3.537z"/></g><g><path fill="none" d="M803.961 166.451s-17.136 9.563-16.549 18.914c.586 9.35 2.461 19.146 8.864 17.729 2.467-1.266 5.495-2.93 7.685-4.729 3.408-4.863 5.928-7.033 1.896-13.304-1.908-2.967-11.645 7.166-11.645 7.166"/><path d="M805.729 164.684c-5.733 3.236-10.822 7.63-15.242 12.492-4.236 4.659-5.102 8.422-4.427 14.615.514 4.713 2.541 16.154 9.723 12.405 6.447-3.364 19.185-13.118 11.536-21.228-2.459-2.608-12.775 8.85-14.641 10.776-.643.663.564-.517.658-.61.811-.801 1.619-1.605 2.412-2.425-2.115 2.185 2.392-1.881 3.272-2.536 1.23-.914 2.768-1.982 4.368-1.846 2.014.17 2.768 5.189 2.738 6.695-.051 2.585-2.533 5.147-3.933 7.109l3.535-3.535c-3.614 2.768-8.765 7.177-12.698 2.84-3.449-3.803-3.514-11.066-3.851-15.84-.513-7.264 7.532-12.284 13.014-15.379 1.407-.791 2.147-2.75 3.536-3.533z"/></g><g><path fill="none" d="m247.141 196.999 39.705 1.166"/><path d="m245.374 198.767 39.705 1.166c1.169.034 2.42-3.567 3.535-3.535l-39.705-1.166c-1.17-.035-2.421 3.567-3.535 3.535z"/></g></svg>