<svg xmlns="http://www.w3.org/2000/svg" width="404" height="72.364" overflow="visible" xml:space="preserve"><path fill="none" d="M21.886 32.496s-5.473-6.994-8.21-8.513C10.94 22.465 2.731 32.496 1.819 39.492s10.943 14.896 17.331 17.33c6.387 2.436 27.364 6.688 31.318 5.168s6.082-4.863 6.082-4.863"/><path d="M23.654 30.729c-2.162-2.744-5.211-7.56-8.66-8.656-2.191-.697-6.021 4.265-7.318 5.576C4.215 31.142 1.495 35.411.241 40.19c-1.552 5.916 4.735 10.885 8.88 13.883 8.826 6.385 20.572 8.17 31.121 9.563 4.412.582 8.641 1.13 12.188-2.142 2.032-1.874 4.331-3.832 5.888-6.134-.912 1.349-2.615 2.175-3.535 3.535-.124.188-.255.37-.395.547 1.274-1.725-1.771.604-2.152.781-1.058.489-2.533.326-3.655.302-3.914-.086-7.846-.819-11.687-1.511-8.15-1.469-16.092-3.248-23.147-7.737-3.817-2.43-7.457-5.591-9.501-9.685-1.924-3.854.504-8.376 2.433-11.703 1.565-2.7 3.509-5.583 6.547-3.188 2.635 2.078 4.825 4.938 6.894 7.563-.099-.125 3.679-3.352 3.534-3.535z"/><path fill="none" d="M97.598 33.611s6.389 11.553 6.082 15.808c-.305 4.259-3.041 15.206-7.602 13.075-4.561-2.129-10.037-9.729-6.994-14.899 3.041-5.167 17.941-15.503 20.068-19.763 2.129-4.259 3.041-5.777-1.52-7.602s-8.211 1.824-10.643 4.865c-2.434 3.043.912 6.691.912 6.691"/><path d="M95.83 35.379c4.8 8.742 9.337 19.188 1.845 28.055l3.468-3.477c-3.489 3.061-7.548-2.314-9.321-4.982-1.388-2.088-1.956-4.5-1.755-6.969.082-1.002.625-1.931 1.155-2.752.286-.441 2.545-2.734 1.099-1.382 5.243-4.902 10.842-9.345 15.874-14.479 1.926-1.964 3.153-3.927 4.199-6.504.769-1.894-.226-2.955-1.784-3.885-2.693-1.609-5.379-1.062-7.914.443-2.03 1.206-3.811 3.428-5.442 5.115-2.715 2.81-3.95 5.678-1.118 8.992-.061-.07 3.645-3.408 3.535-3.535-4.926-5.767 1.785-9.997 7.403-7.48 2.887 1.293 1.992 3.581.909 5.862-.612 1.289-1.214 2.22-2.161 3.295 1.704-1.935-1.534 1.259-1.896 1.578-3.72 3.266-7.529 6.417-11.042 9.91-2.753 2.738-6.111 5.396-6.446 9.509-.334 4.102 5.169 12.969 9.999 11.636 2.082-.574 4.704-4.147 5.867-5.888 5.972-8.933 1.622-18.294-2.938-26.598.206.377-3.778 3.096-3.536 3.536z"/><path fill="none" d="M306.439 27.358s4.697-5.449 9.953-4.697 3.002 9.953-2.068 13.148c-5.072 3.193-6.008 3.379-7.51 9.953-1.504 6.574-.189 8.449 6.195 9.764s17.842-4.693 17.842-4.693"/><path d="M308.148 25.659c-2.717 3.039.03.465 1.56-.346 1.801-.954 3.87-1.159 5.815-.647 3.57.939 1.767 6.533.818 8.598-.579 1.259-1.348 1.442-3.158 2.625-.812.53-1.493 1.143-2.184 1.81-1.104 1.066-2.303 2.122-3.285 3.304-2.252 2.705-2.937 6.74-3.225 10.149-.306 3.627 2.418 5.004 5.46 5.852 6.272 1.748 13.623-1.55 19.134-4.401 1.42-.734 2.136-2.812 3.535-3.535-5.266 2.725-11.813 5.566-17.842 4.693-3.199-.464-6.271-1.718-6.741-5.184-.462-3.393 1.023-8.479 3.214-11.11l-3.285 3.304c5.068-4.898 14.245-8.331 13.066-17.136-.773-5.776-9.218-1.436-11.479.632-1.664 1.522-3.318 3.112-4.821 4.794.785-.88 2.415-2.28 3.418-3.402z"/><g><path fill="none" d="M241.316 27.303s11.83 8.266 12.018 12.396c.189 4.131-9.76 13.711-13.895 9.953s.566-11.641 2.816-13.521 15.789-15.041 15.789-15.041"/><path d="M239.549 29.07c4.211 2.965 9.292 6.507 11.695 11.177 2.621 5.092-7.08 11.023-10.792 6.772-2.557-2.929.214-8.135 1.898-10.72-1.63 2.501-1.648 1.439-.284.183 1.045-.962 2.073-1.944 3.104-2.922 3.811-3.618 7.588-7.273 11.356-10.936.817-.794 1.624-1.601 2.425-2.412.093-.094 1.272-1.302.61-.658-5.118 4.973-10.126 10.156-15.539 14.809-4.154 3.571-12.34 12.787-5.724 17.505 4.55 3.244 13.144-7.081 15.429-10.313 4.516-6.39-6.152-12.858-10.645-16.021-.262-.184-3.331 3.679-3.533 3.536z"/></g><g><path fill="none" d="M392.578 1.768s-16.969 21.618-5.387 39.058c5.338 4.501 1.188 15.205-8.08 13.47-5.252-3.834 12.219-19.119 20.951-13.333s-11.523-17.897-5.787-12.991"/><path d="M390.811 3.535c-6.705 8.645-11.045 20.502-8.735 31.403 1.37 6.466 8.249 10.705 4.323 17.531 1.091-1.896-.415-.253-2.024.121-1.387.321-3.3.414-4.179-.827-.535-.756-.23-1.863.008-2.65.257-.852 2.611-3.787.5-1.788 4.184-3.961 11.101-7.495 16.822-5.041.586.252 2.28 1.864 2.991 1.203 1.114-1.035 2.179-2.134 3.235-3.227 1.274-1.319-2.747-5.893-3.484-6.94-.729-1.035-5.768-6.502-5.239-7.783l-3.535 3.535c.354-.009.771.464 1.015.665.147.123 3.445-3.61 3.535-3.535-.242-.201-.659-.675-1.015-.665-.579.016-3.291 2.945-3.535 3.535-.469 1.134 3.773 5.734 4.405 6.613.948 1.32 5.302 6.04 4.551 7.859l3.535-3.536c-.692.491-2.405-.961-2.923-1.261-2.14-1.237-4.884-.91-7.166-.392-4.382.996-8.186 3.92-11.316 7.014-2.323 2.297-5.118 4.646-6.092 7.874-1.649 5.468 7.381 2.005 9.257.167 2.644-2.592 5.197-4.85 5.569-8.774.278-2.938-1.74-4.594-3.134-6.833-1.924-3.091-2.807-6.701-3.181-10.28-.996-9.515 3.59-20.102 9.347-27.524-1.01 1.303-2.52 2.227-3.535 3.536z"/></g><g><path fill="none" d="M164.621 21.291c1.84 8.516 5.863 8.098 7.252 16.436 11.141 8.928-22.262-9.408-26.104-2.9s-2.82 7.523-.967 16.918c1.855 9.395 12.086 18.852 12.086 18.852"/><path d="M162.854 23.059c1.189 4.779 4.176 7.985 6.141 12.342.947 2.101.756 3.709 2.492 5.267.285.256.935.757.864 1.208l3.285-3.304c-.982.938-11.871-4.016-13.395-4.523-3.423-1.138-11.249-4.443-14.454-1.345-4.504 4.353-7.129 8.568-5.923 15.116 1.804 9.792 5.949 17.698 13.257 24.543.067.063 3.523-3.547 3.535-3.535-4.802-4.498-8.967-10.021-11.344-16.174-2.461-6.37-3.723-14.067.45-19.911l-2.645 2.675.275-.272-.891.86c3.271-2.336 9.235.039 12.587 1.061 4.71 1.437 9.24 3.542 14.004 4.783 1.48.386 5.283-2.899 4.657-3.939-.359-.598-1.054-1.075-1.572-1.516-1.2-1.02-1.415-4.014-2.119-5.576-1.818-4.034-4.557-6.825-5.67-11.297.2.803-3.75 2.672-3.534 3.537z"/></g></svg>