<svg xmlns="http://www.w3.org/2000/svg" width="472.267" height="82.238" overflow="visible" xml:space="preserve"><path fill="none" d="M460.297 42.595s7.051-4.54 9.154-1.21c2.102 3.332 1.869 6.627-7.793 11.352-8.912 4.36-4.949-9.08-2.475-9.08"/><path d="M458.529 44.362c2.233-1.42 6.575-3.806 8.91-1.537.969.941 1.413 2.695 1.273 3.991-.083.772-.479 1.476-.904 2.106-1.113 1.651 3.043-2.696 1.207-1.253-.661.52-1.378.966-2.091 1.409-2.3 1.431-8.322 5.159-8.989.188-.194-1.452.202-3 .685-4.356a9.545 9.545 0 0 1 .895-1.837c.879-1.417 2.327-1.292-2.667 2.56.168-.13.36-.188.568-.209.456-.045 1.481-1.446 1.785-1.75.277-.277 1.35-1.746 1.75-1.785-.47.046-.787.374-1.11.688a98.437 98.437 0 0 0-3.227 3.235c-1.149 1.218-1.721 2.905-2.061 4.514-.321 1.521-.434 3.616.938 4.669 2.112 1.62 6.246-1.402 7.897-2.38 2.564-1.519 4.574-3.632 6.644-5.743 1.385-1.413 2.532-2.945 2.163-5.022-.974-5.479-6.99-3.02-10.132-1.021-1.377.875-2.168 2.665-3.534 3.533z"/><path fill="none" d="M247.25 34.972c-5.998-1.218-10.686 13.982-10.957 19.592-.272 5.61 14.482 6.632 16.617-4.563 1.732-9.075.338-13.812-5.66-15.029z"/><path d="M249.018 33.204c-4.712-.564-9.523 7.257-11.161 10.771-2.054 4.406-6.491 14.146.382 16.154 13.522 3.95 25.407-23.417 10.779-26.925-.878-.211-2.72 3.731-3.535 3.535 6.755 1.62 6.763 7.952 5.886 13.763-.243 1.614-.653 3.09-1.367 4.557a9.832 9.832 0 0 1-.85 1.324c1.717-2.454 1.626-1.546.209-.745-2.101 1.188-4.672 1.443-7.018 1.082-5.412-.835-4.301-5.519-3.299-9.522a40.662 40.662 0 0 1 3.114-8.342c.772-1.54 3.47-3.997.108-1.24.933-.765 2.046-1.015 3.216-.875 1.052.124 2.543-3.656 3.536-3.537z"/><path fill="none" d="M174.374 14.367s-2.721 48.658-10.375 50.877c-2.223-.246-5.928.248-14.82-.988-5.678-9.383 12.598-15.561 12.598-15.561l39.271 1.238s5.188 1.23 3.211 7.16c-1.977 5.932-19.02 8.15-20.252 8.15-1.234 0 3.949-49.393 3.949-49.393"/><path d="M172.606 16.135c-.636 11.224-1.746 22.49-3.686 33.564-.565 3.228-1.26 6.435-2.168 9.584a33.772 33.772 0 0 1-1.428 3.974c-1.076 2.501-3.048 2.877 1.052-.061-1.674 1.199-7.093.106-8.992-.015-2.748-.176-6.173.35-7.25-2.469-.61-1.599-.192-3.31.476-4.798.258-.496.559-.965.901-1.407-1.604 2.274-.507.628.444-.042 1.396-.983 2.932-1.771 4.465-2.514 1.071-.519 2.64-1.519 3.882-1.479l16.852.531 19.663.62c4.83.152 8.51 4.294 4.558 9.018l3.285-3.303c-4.407 4.213-12.946 5.871-18.886 6.138-.512.022.417-12.061.476-12.806.967-12.211 2.197-24.405 3.474-36.587-.132 1.263-3.398 2.225-3.535 3.535-1.277 12.183-2.489 24.377-3.474 36.587-.111 1.376-1.905 11.994-.475 12.806 1.416.804 6.424-1.008 7.866-1.34 3.595-.828 7.994-1.965 10.774-4.55 3.347-3.111 9.539-9.866 2.312-12.838-.973-.399-2.359-.181-3.377-.213l-10.249-.323-22.434-.707c-4.344-.138-7.009 1.035-10.878 3.393-2.686 1.636-4.904 3.977-7.058 6.239-1.417 1.488-2.463 3.017-2.838 5.073-.805 4.409 2.755 4.533 6.093 4.858 2.664.26 8.828 1.571 11.048-.403 1.769-1.573 3.676-3.344 4.847-5.424 4.43-7.866 4.938-18.823 5.978-27.582.813-6.84 1.43-13.718 1.819-20.596-.07 1.217-3.465 2.271-3.537 3.537z"/><path fill="none" d="M33.438 6.275s-7.695 51.27-6.008 58.969c1.689 7.698-19.535 6.755-24.791-1.881s21.408-12.955 21.408-12.955 19.955-4.488 21.035-.378c1.877 7.137 4.131 11.271 0 12.396s-3.568-2.816-3.004-7.325c2.816-19.718 3.566-45.446 3.566-45.446"/><path d="M31.67 8.043a1071.654 1071.654 0 0 0-3.898 28.723c-.848 6.925-1.628 13.866-2.111 20.827-.16 2.3-.269 4.606-.229 6.912.034 2.02.863 3.959-.666 5.642l3.477-3.468C22.275 71.604 10.266 67.938 5.457 63c-1.135-1.165-1.845-2.612-1.681-4.242.056-.555.365-1.064.634-1.534-1.646 2.866-1.918 1.664.126.446 3.42-2.038 7.46-3.136 11.285-4.12 4.922-1.268 10.067-2.199 15.09-2.915 3.512-.5 8.25-1.413 11.593.199 1.693.817 1.982 5.064 2.452 6.699.558 1.941 1.267 4.233-.165 5.929l3.536-3.536c-5.404 3.574-4.887-3.312-4.482-6.592.846-6.843 1.626-13.671 2.177-20.546a497.67 497.67 0 0 0 1.39-24.9c-.035 1.186-3.499 2.297-3.535 3.535-.233 7.793-.697 15.582-1.271 23.356a372.679 372.679 0 0 1-1.878 19.014c-.418 3.332-2.935 12.452 3.43 10.089 1.541-.572 3.032-2.727 4.112-3.888 2.398-2.579-.422-9.448-1.582-12.103-1.761-4.034-16.358-.175-19.479.453-9.891 1.993-18.991 4.073-25.922 11.863-5.498 6.18 8.157 11.016 12.08 11.713 6.435 1.144 10.627-.565 14.817-5.175 2.066-2.273.758-8.117.913-11.078.357-6.787 1.157-13.559 1.954-20.306a1000.272 1000.272 0 0 1 4.155-30.854c-.196 1.303-3.334 2.189-3.536 3.536z"/><g><path fill="none" d="M127.193 17.68s10.938-4.975 11.934 8.949c.996 13.922-41.268 8.449-46.242 10.938-4.975 2.486 3.979 33.316-4.477 39.283s-8.455 2.984-18.895 1.988c-3.484-18.396 35.305-15.912 35.305-15.912s12.434-5.963 15.414 3.484c2.982 9.447-14.92 13.922-14.92 13.922l1.496-78.564"/><path d="M125.426 19.447c2.715-1.189 5.892-1.22 8.397.441 2.68 1.776 3.24 5.611 3.537 8.508.1.974-.117 1.905-.466 2.804-1.096 2.818 3.144-1.997.284-.227-4.476 2.771-10.586 3.139-15.684 3.542-5.982.474-11.998.415-17.994.489-6.076.075-13.139.658-13.908 8.238-.605 5.972.526 12.219.794 18.19.232 5.18.68 12.034-2.795 16.332l1.75-1.785-.454.455 1.786-1.75c-3.03 2.418-6.39 4.354-10.346 3.883-2.035-.242-4.05-.796-6.073-1.131-1.307-.216-2.865.312-3.103-1.202-.16-1.014-.087-2.039.041-3.051.174-1.374.811-2.633 1.561-3.773-1.311 1.996-1.049.98.104.219.64-.422 1.333-.762 2.018-1.104 3.256-1.626 6.939-2.401 10.503-2.992 5.505-.914 11.176-1.096 16.747-.885 1.138.043 1.803-.345 2.917-.739 3.409-1.205 7.282-1.673 10.529.178 3.395 1.934 3.884 6.62 2.168 9.736-1.272 2.309 2.125-1.54-.143.118-.735.537-1.541.979-2.333 1.424-1.671.937-3.472 1.647-5.271 2.297-.412.148-2.917 1.265-2.905.638l.079-4.157.815-42.801.597-31.341c-.022 1.173-3.512 2.309-3.535 3.535l-1.402 73.638-.083 4.338c-.023 1.21 1.439.174 2.28-.102 5.844-1.913 10.029-5.181 14.197-9.533 2.336-2.44 2.726-5.242 1.546-8.336-1.586-4.161-6.347-4.572-10.102-3.941-1.476.248-3.58 1.636-5 1.553-1.695-.099-3.396-.11-5.093-.104-8.759.036-19.656.586-26.758 6.335-2.097 1.697-4.297 3.869-5.783 6.13-1.219 1.854-1.424 4.109-1.229 6.259.126 1.398 7.33 2.024 9.176 2.333 8.148 1.357 15.936-7.862 16.925-15.099.792-5.791.085-11.819-.325-17.615-.26-3.678-1.563-9.861.72-13.149l-1.281 1.315.254-.255a4687 4687 0 0 0-2.255 2.221c1.629-1.062 4.236-.848 6.086-.916 3.717-.135 7.442-.097 11.161-.153 7.995-.121 16.89-.062 24.351-3.315 3.623-1.579 8.577-6.082 8.467-10.276-.178-6.829-5.206-11.897-11.934-8.949-1.434.625-2.127 2.915-3.535 3.532z"/></g><g><path fill="none" d="m390.454 47.912-7.146 21.438"/><path d="m388.687 49.68-7.146 21.438c.466-1.397 3.059-2.105 3.535-3.535l7.146-21.438c-.466 1.397-3.059 2.105-3.535 3.535z"/></g><g><path fill="none" d="M316.462 39.404c-.967 12.084 5.8 10.15 5.8 10.15"/><path d="M314.694 41.172c-.236 3.4.188 11.69 5.8 10.15.561-.153 1.392-1.356 1.785-1.75.368-.367 1.237-1.645 1.75-1.785-5.612 1.54-6.035-6.75-5.8-10.15-.026.381-1.521 1.486-1.785 1.75-.29.289-1.719 1.347-1.75 1.785z"/></g></svg>