<svg xmlns="http://www.w3.org/2000/svg" width="980.479" height="588.648" overflow="visible" xml:space="preserve"><path fill="none" d="M34.641 121.06c9.591 0 43.16 1.592 44.761 17.587 1.602 15.999-35.17 20.801-44.761 23.979-9.596 3.203-30.379 7.989-19.186-12.795 11.184-20.777 9.59-28.771 19.186-28.771zm0 0s59.15 20.79 79.938 17.587c20.795-3.211 54.371-12.796 71.956-4.798 17.586 8.001-59.161 51.153-59.161 51.153L122.581 4.338"/><path fill="#010101" stroke="#010101" stroke-width=".5" d="m120.112.525 3.083 5.795-1.92.021.089 8.07-2.47.027-.09-8.069-1.92.023zM120.801 26.506l3.083 5.795-1.92.021.089 8.07-2.47.027-.089-8.07-1.921.023zM121.49 52.486l3.083 5.795-1.92.021.089 8.07-2.47.027-.09-8.069-1.92.023zM122.179 78.469l3.083 5.795-1.92.021.089 8.069-2.47.028-.089-8.07-1.921.023zM122.869 104.449l3.083 5.795-1.92.021.089 8.07-2.47.027-.09-8.07-1.92.023zM123.558 130.43l3.083 5.795-1.92.021.089 8.069-2.47.028-.09-8.07-1.92.023zM124.248 156.41l3.083 5.795-1.92.021.089 8.07-2.47.027-.09-8.07-1.92.023zM123.863 181.667l6.556.32-.965 1.66 6.976 4.058-1.242 2.135-6.977-4.057-.964 1.661zM148.619 174.985l3.398-5.616 1.001 1.638 6.886-4.21 1.288 2.107-6.885 4.211 1.004 1.638zM170.296 160.317l2.901-5.888 1.139 1.546 6.497-4.787 1.465 1.988-6.496 4.788 1.14 1.545zM188.384 141.736l-2.172-6.194 1.901.269 1.132-7.991 2.445.347-1.131 7.99 1.902.268zM168.504 128.877l-5.888 2.902.039-1.92-8.069-.161.049-2.47 8.069.161.037-1.92zM142.291 131.292l-5.348 3.805-.269-1.901-7.991 1.129-.346-2.446 7.991-1.129-.27-1.902zM116.927 135.629l-5.644 3.351-.112-1.917-8.056.466-.143-2.466 8.057-.466-.113-1.918zM91.747 134.31l-6.338 1.707.409-1.876-7.885-1.722.527-2.413 7.885 1.721.408-1.877zM66.617 128.411l-6.44 1.271.537-1.844-7.749-2.254.69-2.372 7.749 2.254.535-1.845zM41.854 120.999l-6.503.892.643-1.809-7.604-2.704.828-2.327 7.604 2.703.642-1.811zM22.883 128.582l.077 6.563-1.715-.863-3.628 7.209-2.207-1.111 3.628-7.209-1.717-.862zM12.213 152.702l1.272 6.439-1.843-.536-2.254 7.749-2.371-.689 2.252-7.749-1.845-.535zM29.305 166.451l4.957-4.303.451 1.867 7.845-1.894.58 2.4-7.846 1.895.453 1.867zM54.49 159.813l4.852-4.42.495 1.855 7.798-2.082.637 2.386-7.797 2.083.497 1.855z"/><path fill="#010101" stroke="#010101" stroke-width=".5" d="m78.102 146.619-.021-6.564 1.708.877 3.689-7.178 2.197 1.13-3.689 7.178 1.71.876zM67.612 124.38l-6.544.507.748-1.768-7.431-3.147.964-2.275 7.431 3.147.748-1.769zM41.557 119.01l-6.003 2.655.118-1.916-8.055-.498.152-2.464 8.055.496.116-1.918z"/><g><path fill="none" d="M304.841 128.189s19.841-10.753 27.957-5.169c8.115 5.571 8.673 22.07 2.88 26.527-5.796 4.448-24.274 6.055-40.513 12.753-16.238 6.688 91.555-6.067 115.911-.496 24.355 5.571 39.725-12.913 43.204-27.41 3.479-14.5-3.781-21.643-20.018-21.643-16.227 0-22.024 8.913-22.024 8.913"/><path fill="#010101" stroke="#010101" stroke-width=".5" d="m426.748 116.501 5.267-3.917.309 1.895 7.965-1.297.397 2.438-7.966 1.298.312 1.895zM449.523 118.338l4.898 4.369-1.793.685 2.877 7.54-2.307.881-2.878-7.541-1.794.687zM449.005 140.957l-.686 6.527-1.603-1.056-4.441 6.739-2.063-1.359 4.441-6.74-1.606-1.055zM432.346 158.082l-5.079 4.158-.396-1.879-7.897 1.667-.51-2.416 7.896-1.668-.399-1.879zM407.284 159.078l-6.118 2.378.206-1.91-8.025-.864.265-2.456 8.024.864.204-1.91zM381.056 158.094l-5.79 3.091-.024-1.92-8.07.1-.03-2.47 8.069-.101-.025-1.92zM355.031 159.149l-5.713 3.231-.07-1.919-8.065.297-.091-2.468 8.065-.297-.073-1.92zM329.078 160.622l-5.706 3.245-.075-1.919-8.065.316-.096-2.469 8.064-.316-.077-1.919zM303.261 161.766l-5.891 2.895.041-1.919-8.069-.172.052-2.469 8.069.17.039-1.92z"/><path fill="#010101" stroke="#010101" stroke-width=".5" d="m311.226 159.768 4.842-4.432.5 1.854 7.792-2.099.643 2.385-7.793 2.1.502 1.855zM335.094 150.135l2.28-6.155 1.292 1.42 5.971-5.43 1.661 1.827-5.969 5.431 1.294 1.419zM336.539 124.177l-6.514-.814 1.088-1.582-6.651-4.572 1.4-2.035 6.651 4.571 1.087-1.584zM309.904 123.05l-3.971 5.226-.823-1.735-7.292 3.459-1.058-2.23 7.291-3.461-.825-1.735z"/></g><g><path fill="none" d="M311.343 501.567c9.59 0 43.16 1.591 44.76 17.589 1.602 15.995-35.17 20.802-44.76 23.976-9.597 3.207-30.38 7.989-19.187-12.792 11.185-20.776 9.591-28.773 19.187-28.773zm0 0s59.148 20.789 79.938 17.589c20.795-3.211 54.371-12.795 71.957-4.802 17.585 8.002-59.162 51.156-59.162 51.156l-4.793-180.664"/><path fill="#010101" stroke="#010101" stroke-width=".5" d="m396.814 381.038 3.084 5.794-1.92.022.088 8.07-2.47.027-.089-8.07-1.922.022zM397.503 407.019l3.084 5.794-1.92.021.088 8.07-2.469.028-.089-8.071-1.922.023zM398.193 433.001l3.084 5.794-1.92.021.088 8.071-2.47.027-.089-8.07-1.922.022zM398.882 458.981l3.082 5.794-1.92.022.089 8.07-2.469.028-.09-8.071-1.92.023zM399.572 484.962l3.082 5.794-1.92.021.089 8.071-2.47.027-.09-8.07-1.92.022zM400.261 510.942l3.082 5.794-1.92.022.089 8.07-2.47.027-.089-8.07-1.92.023zM400.949 536.923l3.084 5.794-1.92.021.088 8.071-2.47.027-.089-8.07-1.922.022zM400.567 562.174l6.556.321-.965 1.659 6.975 4.059-1.241 2.135-6.976-4.058-.965 1.661zM425.323 555.493l3.397-5.616 1.002 1.638 6.885-4.21 1.289 2.107-6.885 4.211 1.004 1.638zM447 540.823l2.901-5.887 1.139 1.545 6.497-4.787 1.465 1.989-6.497 4.788 1.141 1.545zM465.084 522.241l-2.17-6.194 1.9.269 1.132-7.99 2.446.346-1.132 7.991 1.903.268zM445.208 509.385l-5.887 2.902.038-1.919-8.068-.162.048-2.469 8.07.16.036-1.92zM418.993 511.802l-5.349 3.804-.269-1.901-7.991 1.13-.345-2.446 7.991-1.13-.271-1.902zM393.628 516.14l-5.644 3.35-.111-1.917-8.057.466-.143-2.466 8.057-.467-.112-1.917zM368.45 514.82l-6.338 1.706.409-1.876-7.885-1.721.527-2.413 7.885 1.72.408-1.877zM343.319 508.918l-6.439 1.271.536-1.843-7.749-2.255.69-2.371 7.749 2.253.535-1.845zM318.556 501.509l-6.503.892.644-1.809-7.605-2.703.828-2.327 7.604 2.703.642-1.811zM299.584 509.09l.077 6.563-1.715-.863-3.629 7.209-2.206-1.11 3.628-7.21-1.717-.862zM288.916 533.209l1.272 6.439-1.844-.536-2.254 7.75-2.371-.689 2.252-7.75-1.845-.534zM306.008 546.957l4.957-4.303.451 1.867 7.845-1.894.579 2.401-7.844 1.895.452 1.867zM331.19 540.321l4.852-4.42.496 1.855 7.797-2.081.637 2.386-7.797 2.083.497 1.855z"/><path fill="#010101" stroke="#010101" stroke-width=".5" d="m354.802 527.128-.02-6.565 1.707.878 3.69-7.177 2.196 1.13-3.688 7.177 1.709.877zM344.316 504.888l-6.544.507.749-1.768-7.432-3.148.964-2.275 7.431 3.148.748-1.77zM318.259 499.517l-6.003 2.654.118-1.916-8.055-.497.152-2.465 8.055.495.117-1.917z"/></g><g><path fill="none" d="m292.983 579.476 127.677 3.755"/><path fill="#010101" stroke="#010101" stroke-width=".5" d="m403.779 580.367-5.957 2.754.086-1.918-8.063-.362.112-2.468 8.062.362.084-1.92zM377.8 579.604l-5.957 2.753.086-1.918-8.062-.362.111-2.468 8.063.363.084-1.92zM351.822 578.839l-5.958 2.754.087-1.918-8.063-.362.111-2.468 8.063.362.084-1.92zM325.844 578.075l-5.958 2.754.086-1.918-8.062-.362.111-2.468 8.062.362.084-1.92zM299.865 577.311l-5.958 2.753.087-1.918-8.063-.362.111-2.468 8.062.363.085-1.92z"/></g><g><path fill="none" d="m591.271 169.426 127.676 3.756"/><path fill="#010101" stroke="#010101" stroke-width=".5" d="m702.066 170.318-5.957 2.755.086-1.918-8.062-.363.111-2.467 8.063.362.084-1.92zM676.088 169.553l-5.957 2.754.086-1.918-8.063-.363.112-2.467 8.062.362.084-1.92zM650.109 168.789l-5.959 2.754.088-1.918-8.062-.362.109-2.468 8.063.362.086-1.919zM624.131 168.025l-5.959 2.755.088-1.918-8.063-.363.11-2.467 8.062.362.086-1.92zM598.152 167.26l-5.959 2.754.088-1.918-8.062-.363.109-2.467 8.063.362.086-1.92z"/></g><g><path fill="none" d="M599.674 56.635s-55.102 30.752-53.213 60.82c1.883 30.072 7.912 61.572 28.506 57.009 7.932-4.07 17.666-9.417 24.707-15.205 10.959-15.635 19.063-22.616 6.1-42.778-6.137-9.54-37.445 23.047-37.445 23.047"/><path fill="#010101" stroke="#010101" stroke-width=".5" d="m577.35 133.942 2.527-6.058 1.232 1.471 6.186-5.184 1.586 1.892-6.184 5.186 1.237 1.471zM596.604 119.283l5.367-3.779.259 1.902 7.997-1.09.334 2.448-7.997 1.09.26 1.903zM609.436 131.438l2.849 5.914-1.918-.056-.234 8.067-2.469-.071.232-8.068-1.919-.054zM601.574 153.679l-2.129 6.208-1.326-1.388-5.838 5.573-1.705-1.786 5.836-5.574-1.328-1.388zM581.109 168.396l-3.744 5.393-.896-1.698-7.135 3.77-1.154-2.183 7.134-3.771-.898-1.698zM561.584 166.635l-5.674-3.3 1.619-1.029-4.328-6.812 2.084-1.325 4.33 6.811 1.621-1.032zM552.113 143.813l-3.916-5.267 1.895-.309-1.297-7.965 2.437-.397 1.299 7.965 1.895-.31zM549.795 118.823l-2.457-6.086 1.91.18.76-8.034 2.459.232-.758 8.035 1.912.179zM557.152 95.977l1.356-6.422 1.486 1.216 5.111-6.245 1.913 1.565-5.112 6.245 1.487 1.215zM574.568 77.472l2.569-6.04 1.222 1.479 6.221-5.142 1.572 1.903-6.218 5.143 1.226 1.479zM595.055 62.177l3.523-5.538.965 1.66 6.978-4.052 1.241 2.135-6.979 4.054.967 1.66z"/><g><path fill="none" d="M698.547 118.192s21.934-17.875 36-5.979c17.799 15.061 16.895 57.656-30.646 56.11-41.119-1.339-12.941-50.111-3.213-50.111"/><path fill="#010101" stroke="#010101" stroke-width=".5" d="m694.766 120.071-2.356 6.127-1.273-1.436-6.037 5.357-1.639-1.847 6.035-5.358-1.275-1.435zM680.82 143.458l2.633 6.012-1.916-.125-.525 8.053-2.465-.161.525-8.053-1.918-.123zM691.564 167.387l6.44-1.266-.537 1.842 7.748 2.261-.692 2.371-7.748-2.26-.537 1.845zM717.949 168.419l5.322-3.84.282 1.9 7.984-1.183.361 2.444-7.984 1.182.283 1.9zM740.314 154.872l.893-6.503 1.57 1.107 4.653-6.595 2.017 1.424-4.652 6.595 1.572 1.106zM746.701 128.261l-4.916-4.351 1.791-.691-2.904-7.53 2.305-.889 2.906 7.53 1.791-.694zM729.166 106.346l-6.041 2.57.146-1.915-8.048-.609.187-2.463 8.047.609.143-1.915z"/><path fill="#010101" stroke="#010101" stroke-width=".5" d="m702.713 112.303-3.074 5.799-1.094-1.579-6.637 4.59-1.404-2.031 6.637-4.591-1.096-1.579z"/></g></g><g><path fill="none" d="M24.373 300.868s21.937-14.953 35.998-4.997c17.801 12.588 16.894 48.227-30.646 46.932-41.121-1.118-12.941-41.922-3.212-41.922"/><path fill="#010101" stroke="#010101" stroke-width=".5" d="m12.595 310.843-.807 6.514-1.583-1.086-4.566 6.656-2.036-1.398 4.564-6.655-1.585-1.085zM9.482 338.08l6.526.702-1.06 1.601 6.728 4.458-1.364 2.058-6.729-4.456-1.059 1.602zM35.598 344.387l5.422-3.699.231 1.906 8.012-.973.298 2.452-8.012.973.234 1.907zM60.991 336.911l3.176-5.743 1.065 1.598 6.717-4.474 1.369 2.056-6.716 4.474 1.066 1.598zM72.372 312.944l-3.976-5.221 1.891-.33-1.389-7.951 2.434-.424 1.389 7.949 1.892-.332zM55.625 290.462l-6.018 2.621.129-1.915-8.052-.542.166-2.464 8.052.541.127-1.917zM29.006 295.34l-3.539 5.527-.96-1.663-6.99 4.034-1.235-2.139 6.99-4.035-.961-1.663z"/><g><path fill="none" d="M73.663 341.993c17.549-.732 47.494-1.701 71.85 3.871 24.356 5.571 39.728-12.914 43.206-27.406 3.477-14.505-3.781-21.647-20.014-21.647"/><path fill="#010101" stroke="#010101" stroke-width=".5" d="m169.514 299.364 6.303-1.833-.372 1.884 7.918 1.563-.479 2.422-7.918-1.561-.37 1.885zM186.328 310.351l2.946 5.865-1.92-.024-.101 8.07-2.469-.031.1-8.07-1.921-.021zM178.354 332.319l-1.732 6.331-1.412-1.3-5.471 5.932-1.816-1.675 5.471-5.933-1.414-1.301zM158.185 343.578l-5.893 2.891.042-1.92-8.069-.177.054-2.469 8.069.176.04-1.921zM132.647 341.639l-6.229 2.07.301-1.896-7.971-1.264.386-2.44 7.971 1.263.299-1.897zM106.528 339.435l-5.963 2.744.089-1.918-8.061-.377.115-2.467 8.062.376.087-1.919zM80.413 339.446l-5.794 3.084-.022-1.92-8.07.09-.027-2.47 8.069-.09-.023-1.921z"/></g></g><g><path fill="none" d="M286.832 292.473s21.932-14.952 35.993-5.001c17.807 12.596 16.898 48.227-30.642 46.937-41.124-1.123-12.943-41.923-3.216-41.923"/><path fill="#010101" stroke="#010101" stroke-width=".5" d="m275.051 302.448-.807 6.514-1.583-1.086-4.565 6.655-2.037-1.396 4.565-6.656-1.586-1.085zM271.942 329.682l6.526.703-1.06 1.6 6.727 4.457-1.364 2.06-6.728-4.457-1.06 1.601zM298.058 335.991l5.421-3.699.232 1.906 8.012-.972.298 2.451-8.012.973.234 1.908zM323.451 328.516l3.177-5.744 1.064 1.598 6.717-4.474 1.369 2.055-6.716 4.476 1.066 1.597zM334.83 304.551l-3.977-5.222 1.891-.331-1.389-7.95 2.433-.425 1.39 7.95 1.892-.333zM318.083 282.063l-6.017 2.622.129-1.916-8.052-.54.165-2.465 8.052.54.127-1.917zM291.465 286.944l-3.538 5.528-.96-1.662-6.99 4.033-1.235-2.139 6.99-4.035-.962-1.663z"/></g><g><path fill="none" d="m307.409 337.863 127.679 3.757"/><path fill="#010101" stroke="#010101" stroke-width=".5" d="m418.204 338.756-5.958 2.754.086-1.918-8.063-.363.111-2.467 8.063.362.084-1.919zM392.225 337.992l-5.958 2.754.086-1.918-8.062-.362.111-2.468 8.062.362.084-1.919zM366.247 337.227l-5.958 2.753.086-1.917-8.062-.363.11-2.468 8.063.363.084-1.919zM340.268 336.463l-5.958 2.754.086-1.918-8.062-.362.111-2.468 8.062.362.084-1.919zM314.29 335.699l-5.958 2.754.085-1.918-8.062-.362.111-2.468 8.063.362.084-1.919z"/></g><g><path fill="none" d="M418.902 297.87s21.933-14.953 35.998-5.002c17.802 12.596 16.894 48.227-30.649 46.937-41.117-1.122-12.938-41.919-3.211-41.919"/><path fill="#010101" stroke="#010101" stroke-width=".5" d="m407.122 307.848-.807 6.514-1.584-1.086-4.565 6.655-2.037-1.397 4.565-6.656-1.585-1.085zM404.014 335.081l6.527.703-1.061 1.601 6.728 4.458-1.365 2.058-6.728-4.457-1.06 1.603zM430.127 341.388l5.422-3.7.232 1.907 8.011-.973.298 2.451-8.011.974.233 1.907zM455.523 333.91l3.178-5.743 1.064 1.598 6.717-4.474 1.369 2.056-6.717 4.474 1.067 1.598zM466.901 309.942l-3.977-5.221 1.892-.33-1.388-7.951 2.433-.424 1.389 7.95 1.892-.333zM450.154 287.459l-6.018 2.623.129-1.916-8.053-.541.166-2.464 8.052.54.127-1.917zM423.536 292.341l-3.539 5.528-.96-1.663-6.99 4.034-1.235-2.138 6.99-4.036-.962-1.662z"/></g><g><path fill="none" d="M555.324 300.64c6.711 1.351 24.895 39.769 24.895 39.769"/><path fill="#010101" stroke="#010101" stroke-width=".5" d="m575.791 326.441-5.318-3.848 1.715-.864-3.629-7.208 2.207-1.111 3.629 7.209 1.714-.866zM561.801 303.813l-6.215-2.112 1.385-1.33-5.59-5.82 1.781-1.711 5.592 5.82 1.383-1.332z"/><g><path fill="none" d="M571.607 295.797s20.166-14.485 28.57 1.566c8.404 16.043 6.039 22.1-3.135 29.741-9.164 7.639-16.824 13.304-16.824 13.304"/><path fill="#010101" stroke="#010101" stroke-width=".5" d="m583.6 340.822 2.824-5.925 1.158 1.531 6.434-4.872 1.492 1.968-6.434 4.873 1.162 1.531zM603.58 323.139l-.156-6.562 1.726.842 3.541-7.252 2.219 1.083-3.539 7.253 1.727.841zM601.172 297.382l-5.754-3.159 1.596-1.07-4.494-6.703 2.05-1.375 4.496 6.702 1.594-1.071zM576.18 290.217l-3.477 5.567-.978-1.652-6.946 4.111-1.258-2.126 6.944-4.111-.979-1.652z"/></g></g><g><path fill="none" d="M593.008 342.085c17.549-.736 47.496-1.702 71.854 3.869 24.352 5.568 39.725-12.912 43.203-27.409 3.48-14.5-3.779-21.644-20.014-21.644"/><path fill="#010101" stroke="#010101" stroke-width=".5" d="m688.859 299.453 6.303-1.834-.371 1.884 7.918 1.563-.479 2.423-7.917-1.562-.37 1.886zM705.676 310.44l2.945 5.867-1.92-.025-.103 8.071-2.469-.032.101-8.07-1.921-.022zM697.699 332.408l-1.732 6.332-1.412-1.302-5.471 5.933-1.814-1.674 5.468-5.933-1.412-1.301zM677.529 343.668l-5.892 2.891.043-1.919-8.069-.177.053-2.47 8.068.176.041-1.92zM651.992 341.727l-6.228 2.07.3-1.897-7.97-1.262.386-2.44 7.971 1.262.299-1.897zM625.873 339.524l-5.963 2.745.09-1.918-8.062-.377.117-2.467 8.06.376.088-1.919zM599.758 339.537l-5.793 3.085-.022-1.92-8.07.09-.027-2.47 8.068-.091-.023-1.92z"/></g><g><path fill="none" d="m45.95 525.301 25.93 30.01 27.733-36.722"/><path fill="#010101" stroke="#010101" stroke-width=".5" d="m97.187 517.875-1.204 6.453-1.514-1.181-4.963 6.364-1.948-1.519 4.963-6.364-1.516-1.18zM81.522 538.615l-1.203 6.452-1.514-1.18-4.963 6.364-1.948-1.519 4.963-6.365-1.516-1.179zM69.188 548.576l-6.056-2.53 1.472-1.233-5.181-6.188 1.894-1.585 5.182 6.187 1.471-1.235zM52.196 528.91l-6.056-2.53 1.472-1.233-5.181-6.188 1.893-1.585 5.182 6.187 1.472-1.235z"/></g><g><path fill="none" d="m7.314 584.604 127.676 3.754"/><path fill="#010101" stroke="#010101" stroke-width=".5" d="m118.11 585.495-5.958 2.754.086-1.918-8.062-.362.111-2.467 8.062.361.085-1.919zM92.131 584.73l-5.958 2.754.087-1.918-8.063-.362.111-2.467 8.063.362.084-1.919zM66.152 583.967l-5.958 2.754.086-1.918-8.062-.363.111-2.466 8.062.361.085-1.919zM40.173 583.203l-5.958 2.754.087-1.918-8.063-.362.111-2.467 8.063.361.084-1.919zM14.195 582.439l-5.958 2.754.086-1.918-8.062-.362.111-2.467 8.062.362.085-1.919z"/></g><g><path fill="none" d="M814.59 125.306s19.842-10.754 27.957-5.17c8.115 5.572 8.674 22.07 2.881 26.527-5.797 4.448-24.275 6.055-40.514 12.754-16.238 6.688 91.555-6.068 115.91-.496 24.355 5.57 39.725-12.913 43.205-27.41 3.479-14.5-3.781-21.643-20.018-21.643-16.227 0-13.615 40.982-13.615 40.982"/><path fill="#010101" stroke="#010101" stroke-width=".5" d="m932.975 138.705-2.438-6.095 1.912.187.787-8.032 2.457.241-.785 8.033 1.912.185zM938.129 115.858l3.705-5.418.908 1.691 7.11-3.818 1.169 2.176-7.109 3.819.91 1.692zM959.271 115.455l4.899 4.369-1.793.684 2.877 7.54-2.309.881-2.877-7.54-1.795.687zM958.754 138.075l-.688 6.527-1.603-1.057-4.44 6.74-2.062-1.36 4.439-6.739-1.605-1.056zM942.092 155.199l-5.08 4.158-.397-1.879-7.896 1.667-.51-2.416 7.896-1.668-.398-1.879zM917.031 156.195l-6.117 2.377.205-1.908-8.023-.866.263-2.455 8.024.864.205-1.911zM890.805 155.21l-5.789 3.091-.026-1.92-8.068.1-.031-2.47 8.07-.1-.025-1.92zM864.779 156.267l-5.713 3.231-.07-1.918-8.066.295-.09-2.467 8.064-.298-.072-1.919zM838.824 157.74l-5.705 3.244-.076-1.918-8.064.315-.096-2.468 8.064-.317-.078-1.919zM813.008 158.882l-5.891 2.896.041-1.92-8.068-.171.053-2.47 8.068.171.039-1.921z"/><path fill="#010101" stroke="#010101" stroke-width=".5" d="m820.979 156.885 4.841-4.431.5 1.853 7.793-2.099.643 2.384-7.793 2.101.502 1.854zM844.844 147.25l2.279-6.155 1.291 1.421 5.971-5.431 1.662 1.828-5.969 5.43 1.293 1.42zM846.287 121.294l-6.514-.814 1.088-1.582-6.65-4.572 1.398-2.035 6.653 4.571 1.086-1.584zM819.652 120.167l-3.97 5.226-.825-1.734-7.291 3.459-1.058-2.231 7.291-3.461-.826-1.734z"/></g><g><path fill="none" d="M647.811 434.841s-55.643 31.044-53.732 61.407c1.902 30.354 7.988 62.162 28.777 57.557 8.008-4.105 17.842-9.509 24.955-15.353 11.064-15.787 19.719-26.647 8.086-36.825-8.617-7.541-42.164 15.996-42.164 15.996"/><path fill="#010101" stroke="#010101" stroke-width=".5" d="m620.713 515.907 3.471-5.571.98 1.65 6.938-4.121 1.261 2.123-6.937 4.122.982 1.651zM642.514 503.45l5.619-3.392.125 1.916 8.053-.526.162 2.464-8.055.527.127 1.916zM656.238 512.408l3.383 5.624-1.916.122.514 8.055-2.465.157-.514-8.054-1.918.124zM648.162 533.837l-2.053 6.234-1.341-1.371-5.768 5.646-1.727-1.764 5.766-5.647-1.346-1.372zM627.693 548.453l-3.744 5.392-.896-1.698-7.137 3.77-1.154-2.185 7.136-3.769-.898-1.698zM608.604 544.808l-5.674-3.3 1.619-1.03-4.326-6.812 2.084-1.324 4.328 6.811 1.621-1.032zM599.646 521.794l-3.916-5.267 1.895-.308-1.297-7.966 2.438-.398 1.298 7.966 1.895-.31zM597.623 496.829l-2.457-6.087 1.912.181.758-8.034 2.459.232-.758 8.034 1.912.179zM605.205 474.099l1.358-6.422 1.484 1.216 5.113-6.245 1.91 1.565-5.111 6.245 1.488 1.216zM622.686 455.653l2.568-6.041 1.223 1.481 6.22-5.143 1.574 1.904-6.22 5.143 1.226 1.479zM643.191 440.382l3.526-5.537.963 1.66 6.98-4.052 1.24 2.136-6.98 4.053.967 1.66z"/></g><g><path fill="none" d="m562.303 570.491 128.912 3.793"/><path fill="#010101" stroke="#010101" stroke-width=".5" d="m673.098 571.383-5.959 2.755.086-1.918-8.061-.364.109-2.466 8.063.361.084-1.919zM647.119 570.618l-5.959 2.755.086-1.918-8.06-.363.109-2.467 8.062.361.084-1.919zM621.139 569.854l-5.957 2.754.086-1.918-8.063-.363.111-2.467 8.063.362.084-1.919zM595.16 569.09l-5.957 2.755.086-1.918-8.062-.364.111-2.466 8.062.361.084-1.919zM569.182 568.325l-5.957 2.755.086-1.918-8.063-.363.111-2.467 8.063.361.084-1.919z"/></g><g><path fill="none" d="M782.945 296.219c6.781 1.364 17.625 29.837 17.625 29.837"/><path fill="#010101" stroke="#010101" stroke-width=".5" d="m801.861 323.022-4.996-4.255 1.778-.726-3.047-7.473 2.287-.932 3.049 7.472 1.777-.727zM789.543 299.137l-6.293-1.866 1.332-1.383-5.814-5.597 1.711-1.779 5.816 5.595 1.33-1.385z"/><g><path fill="none" d="M799.395 291.333s20.357-14.62 28.846 1.582c8.486 16.198 6.1 22.313-3.164 30.025-9.258 7.717-16.986 13.438-16.986 13.438"/><path fill="#010101" stroke="#010101" stroke-width=".5" d="m812.129 336.266 2.822-5.926 1.16 1.53 6.434-4.873 1.49 1.969-6.431 4.874 1.162 1.53zM831.758 318.376l-.156-6.562 1.724.842 3.541-7.252 2.221 1.084-3.541 7.252 1.726.842zM829.002 292.729l-5.754-3.16 1.594-1.069-4.494-6.703 2.05-1.375 4.497 6.702 1.593-1.072zM803.967 285.753l-3.477 5.567-.978-1.652-6.946 4.11-1.257-2.125 6.945-4.111-.981-1.652z"/></g><g><path fill="none" d="m816.123 338.481 128.912 3.789"/><path fill="#010101" stroke="#010101" stroke-width=".5" d="m926.918 339.369-5.957 2.755.086-1.918-8.063-.362.112-2.468 8.062.361.084-1.919zM900.939 338.605l-5.957 2.755.086-1.918-8.062-.362.111-2.468 8.063.362.084-1.919zM874.961 337.842l-5.957 2.755.086-1.918-8.063-.363.112-2.467 8.062.361.084-1.919zM848.982 337.079l-5.959 2.755.086-1.918-8.062-.362.111-2.468 8.063.361.084-1.919zM823.004 336.315l-5.959 2.755.086-1.918-8.063-.362.112-2.468 8.062.362.084-1.919z"/></g><g><path fill="none" d="M966.854 220.08s-55.629 31.053-53.727 61.408c1.898 30.361 7.988 62.162 28.781 57.561 8.012-4.113 17.842-9.513 24.945-15.353 11.066-15.791 19.729-26.647 8.092-36.825-8.617-7.541-42.168 15.992-42.168 15.992"/><path fill="#010101" stroke="#010101" stroke-width=".5" d="m939.758 301.15 3.471-5.571.98 1.65 6.939-4.12 1.26 2.123-6.937 4.122.982 1.651zM961.559 288.692l5.621-3.391.123 1.916 8.054-.526.161 2.465-8.053.526.127 1.917zM975.287 297.646l3.383 5.625-1.916.122.514 8.053-2.465.158-.514-8.055-1.918.124zM967.213 319.077l-2.053 6.236-1.342-1.373-5.767 5.647-1.729-1.765 5.766-5.647-1.344-1.371zM948.307 335.719l-5.389 3.749-.248-1.904-8.002 1.045-.32-2.449 8.002-1.046-.25-1.904zM927.654 330.051l-5.675-3.299 1.621-1.03-4.329-6.812 2.084-1.324 4.331 6.81 1.619-1.032zM918.693 307.043l-3.916-5.268 1.895-.308-1.295-7.965 2.437-.398 1.297 7.966 1.895-.31zM916.672 282.075l-2.455-6.087 1.91.182.762-8.035 2.457.232-.758 8.035 1.912.179zM924.256 259.345l1.357-6.422 1.485 1.216 5.113-6.244 1.91 1.564-5.111 6.245 1.488 1.215zM941.73 240.897l2.569-6.041 1.222 1.48 6.221-5.143 1.574 1.904-6.218 5.143 1.224 1.479zM962.238 225.622l3.524-5.538.963 1.66 6.978-4.054 1.242 2.136-6.978 4.055.965 1.66z"/></g></g><g><path fill="none" d="M809.395 523.99s16.885-9.516 23.793-4.568c6.91 4.926 7.383 19.538 2.453 23.479-4.932 3.94-24.939 10.429-38.762 16.35-34.031 14.588 112.34 3.374 143.803 5.617"/><path fill="#010101" stroke="#010101" stroke-width=".5" d="m932.947 562.213-5.879 2.92.034-1.92-8.069-.138.041-2.47 8.071.137.029-1.92zM906.902 562.578l-5.802 3.068-.016-1.919-8.07.069-.022-2.47 8.071-.07-.018-1.921zM880.908 563.316l-5.785 3.101-.027-1.919-8.071.113-.035-2.469 8.071-.115-.03-1.921zM854.955 564.068l-5.816 3.038-.008-1.919-8.07.026-.008-2.47 8.07-.027-.008-1.921zM829.035 564.463l-5.898 2.881.045-1.92-8.069-.191.059-2.468 8.068.189.043-1.92zM803.533 564.304l-6.388 1.508.468-1.863-7.828-1.967.604-2.395 7.826 1.967.467-1.865zM805.037 558.557l4.379-4.89.682 1.796 7.545-2.862.877 2.309-7.547 2.862.683 1.796zM829.344 548.769l3.902-5.278.846 1.725 7.246-3.554 1.088 2.218-7.246 3.554.847 1.723zM839.469 524.75l-5.655-3.333 1.625-1.021-4.287-6.836 2.092-1.313 4.289 6.837 1.627-1.022zM814.459 518.854l-3.975 5.224-.822-1.735-7.293 3.455-1.056-2.232 7.292-3.456-.824-1.735z"/><g><path fill="none" d="M964.629 448.432s-55.637 31.045-53.73 61.407c1.902 30.354 7.992 62.163 28.781 57.561 8.008-4.109 17.842-9.513 24.949-15.352 11.066-15.791 19.721-26.651 8.092-36.83-8.617-7.54-42.168 15.997-42.168 15.997"/><path fill="#010101" stroke="#010101" stroke-width=".5" d="m937.539 529.498 3.469-5.572.98 1.65 6.94-4.121 1.261 2.124-6.939 4.122.982 1.651zM959.34 517.042l5.619-3.393.125 1.916 8.053-.525.162 2.464-8.055.527.127 1.917zM973.059 526.002l3.382 5.625-1.916.122.512 8.054-2.465.157-.513-8.055-1.916.124zM964.984 547.431l-2.05 6.235-1.344-1.372-5.768 5.646-1.726-1.764 5.765-5.648-1.345-1.371zM946.078 564.071l-5.389 3.748-.248-1.904-8.003 1.045-.319-2.449 8.002-1.045-.25-1.905zM925.426 558.4l-5.674-3.299 1.619-1.03-4.328-6.812 2.086-1.324 4.328 6.811 1.621-1.032zM916.469 535.389l-3.918-5.268 1.894-.308-1.297-7.966 2.44-.397 1.297 7.965 1.896-.311zM914.445 510.422l-2.459-6.087 1.912.181.76-8.035 2.459.233-.758 8.034 1.912.179zM922.027 487.691l1.356-6.421 1.484 1.215 5.113-6.244 1.913 1.565-5.114 6.245 1.489 1.215zM939.504 469.245l2.568-6.041 1.225 1.481 6.219-5.143 1.574 1.903-6.219 5.144 1.225 1.478zM960.012 453.973l3.523-5.537.965 1.66 6.979-4.053 1.24 2.137-6.979 4.052.967 1.661z"/></g></g></svg>