<svg xmlns="http://www.w3.org/2000/svg" width="724.691" height="165.866" overflow="visible" xml:space="preserve"><path fill="none" d="M55.624 59.735S40.493 40.397 32.926 36.198C25.359 31.998 2.66 59.735.138 79.077c-2.522 19.345 30.259 41.188 47.92 47.92 17.659 6.733 75.662 18.489 86.596 14.288 10.933-4.199 16.815-13.448 16.815-13.448"/><path fill="#010101" stroke="#010101" stroke-width=".5" d="m147.4 129.171-2.152 6.202-1.322-1.394-5.857 5.553-1.699-1.793 5.857-5.553-1.324-1.393zM126.668 139.47l-5.936 2.803.071-1.919-8.065-.297.091-2.468 8.065.296.069-1.92zM101.2 137.006l-6.299 1.844.369-1.884-7.921-1.549.475-2.424 7.92 1.549.367-1.886zM75.813 132.049l-6.382 1.532.461-1.865-7.834-1.938.593-2.398 7.834 1.938.46-1.865zM51.155 125.269l-6.54.553.736-1.774-7.453-3.095.948-2.282 7.453 3.096.735-1.775zM28.708 113.577l-6.481-1.038 1.141-1.544-6.488-4.799 1.469-1.986 6.488 4.798 1.141-1.545zM9.19 97.887l-5.366-3.78 1.704-.885-3.72-7.162L4 84.921l3.72 7.162 1.704-.887zM3.878 75.315l-.931-6.498 1.813.633 2.659-7.62 2.332.813-2.658 7.621 1.815.631zM14.875 52.959l1.372-6.418 1.483 1.22 5.127-6.232 1.908 1.569-5.127 6.233 1.485 1.218zM31.068 41.412l6.347-1.673-.419 1.874 7.875 1.763-.539 2.41-7.876-1.762-.418 1.875zM49.508 55.908l5.964 2.743-1.515 1.18 4.959 6.367-1.948 1.518-4.96-6.367-1.514 1.182z"/><g><path fill="none" d="M217.156 60.274s17.664 31.943 16.816 43.708c-.843 11.777-8.408 42.045-21.018 36.154-12.609-5.889-27.752-26.898-19.338-41.198 8.407-14.288 49.607-42.864 55.488-54.642 5.886-11.777 8.408-15.977-4.202-21.021-12.609-5.044-22.703 5.044-29.427 13.455-6.729 8.411 2.522 18.5 2.522 18.5"/><path fill="#010101" stroke="#010101" stroke-width=".5" d="m217.091 47.397-3.219-5.72 1.919-.066-.279-8.066 2.468-.086.28 8.066 1.92-.068zM227.605 28.616l3.611-5.481.938 1.675 7.042-3.942 1.206 2.154-7.041 3.944.94 1.675zM247.663 27.507l5.546 3.51-1.657.968 4.07 6.969-2.133 1.246-4.071-6.969-1.658.971zM243.356 47.315l-1.636 6.357-1.43-1.28-5.382 6.014-1.84-1.646 5.38-6.016-1.433-1.279zM224.966 65.163l-2.455 6.087-1.251-1.457-6.123 5.257-1.609-1.874 6.122-5.258-1.252-1.456zM205.478 82.553l-2.075 6.228-1.338-1.377-5.787 5.626-1.721-1.771 5.786-5.627-1.341-1.376zM188.808 104.821l3.304 5.672-1.917.094.4 8.061-2.467.123-.401-8.061-1.918.097zM197.627 130.685l6.249 2.01-1.363 1.352 5.686 5.729-1.753 1.74-5.686-5.727-1.362 1.354zM220.605 138.913l3.274-5.69 1.037 1.616 6.792-4.359 1.334 2.079-6.792 4.359 1.04 1.616zM233.902 115.963l-1.478-6.395 1.86.476 2.003-7.818 2.392.613-2.002 7.819 1.862.474zM233.04 89.174l-4.909-4.358 1.793-.689-2.895-7.533 2.306-.886 2.895 7.533 1.792-.69zM222.442 65.185l-5.34-3.816 1.709-.874-3.672-7.186 2.199-1.124 3.673 7.186 1.71-.876z"/></g><g><path fill="none" d="M557.05 63.785s12.986-15.068 27.52-12.989 8.301 27.521-5.719 36.355c-14.025 8.83-16.611 9.343-20.766 27.521-4.157 18.178-.523 23.361 17.132 26.996 17.653 3.635 49.33-12.977 49.33-12.977"/><path fill="#010101" stroke="#010101" stroke-width=".5" d="m611.94 131.728-4.306 4.954-.708-1.785-7.503 2.974-.909-2.296 7.502-2.975-.71-1.785zM587.954 138.885l-5.777 3.118-.032-1.92-8.069.138-.042-2.469 8.069-.138-.035-1.921zM565.576 134.398l-6.428-1.327 1.209-1.491-6.268-5.084 1.557-1.918 6.268 5.083 1.209-1.494zM560.686 114.275l-1.055-6.479 1.825.598 2.511-7.669 2.348.769-2.511 7.67 1.825.595zM572.7 94.021l3.303-5.672 1.029 1.621 6.815-4.323 1.322 2.085-6.813 4.325 1.03 1.62zM591.542 74.877l-.5-6.544 1.767.75 3.156-7.428 2.273.966-3.155 7.428 1.769.749zM586.474 50.984l-6.386 1.519.465-1.862-7.831-1.952.597-2.397 7.832 1.951.462-1.864zM560.258 57.324l-2.143 6.204-1.323-1.392-5.849 5.561-1.702-1.79 5.848-5.562-1.325-1.39z"/></g><g><path fill="none" d="M458.874 35.871s32.709 22.854 33.23 34.276c.521 11.422-26.987 37.91-38.42 27.521-11.433-10.388 1.565-32.187 7.786-37.388 6.226-5.199 43.659-41.586 43.659-41.586"/><path fill="#010101" stroke="#010101" stroke-width=".5" d="m493.034 27.113-2.197 6.185-1.31-1.402-5.897 5.51-1.686-1.804 5.895-5.512-1.312-1.402zM474.297 45.096l-2.244 6.169-1.301-1.413-5.938 5.465-1.672-1.817 5.938-5.466-1.302-1.412zM455.747 63.886l-.75 6.521-1.593-1.072-4.507 6.695-2.049-1.379 4.506-6.696-1.595-1.071zM447.503 90.12l5.156 4.062-1.748.793 3.331 7.351-2.249 1.019-3.333-7.35-1.749.794zM470.456 98.973l3.56-5.515.953 1.667 7.005-4.007 1.227 2.144-7.005 4.008.955 1.666zM489.875 80.681l.177-6.561 1.68.928 3.904-7.063 2.161 1.195-3.902 7.064 1.682.927zM485.459 55.431l-6.238-2.042 1.37-1.345-5.656-5.757 1.762-1.731 5.656 5.756 1.369-1.348zM465.77 37.985l-6.47-1.109 1.158-1.53-6.435-4.87 1.49-1.97 6.437 4.869 1.157-1.533z"/></g><g><path fill="none" d="M695.946 5.224s-46.92 59.774-14.892 107.994c14.755 12.445 3.28 42.041-22.346 37.242-14.521-10.6 33.787-52.862 57.93-36.865 24.146 16-31.862-49.485-15.999-35.92"/><path fill="#010101" stroke="#010101" stroke-width=".5" d="m707.658 78.582-6.565-.047.896-1.698-7.139-3.764 1.151-2.185 7.14 3.763.895-1.7zM704.848 90.996l5.791 3.091-1.582 1.088 4.573 6.65-2.035 1.399-4.574-6.649-1.581 1.091zM724.287 108.938l-2.455 6.088-1.251-1.457-6.123 5.258-1.609-1.874 6.122-5.259-1.253-1.456zM701.815 107.874l-5.033 4.212-.417-1.874-7.878 1.752-.536-2.41 7.878-1.754-.42-1.874zM676.535 116.746l-2.97 5.854-1.121-1.559-6.553 4.711-1.441-2.005 6.551-4.712-1.123-1.559zM657.588 135.606l-.246 6.56-1.671-.948-3.978 7.023-2.149-1.218 3.978-7.023-1.672-.945zM670.108 151.682l4.598-4.684.597 1.825 7.669-2.515.77 2.347-7.669 2.515.6 1.825zM689.304 132.455l-2.975-5.851 1.92.014.06-8.071 2.47.019-.06 8.07 1.921.013zM681.202 107.649l-5.038-4.208 1.77-.742-3.119-7.444 2.277-.954 3.121 7.443 1.771-.745zM673.488 83.95l-3.411-5.609 1.916-.131-.552-8.051 2.464-.169.553 8.052 1.916-.134zM674.447 58.786l-1.895-6.285 1.887.353 1.486-7.932 2.428.455-1.485 7.933 1.888.351zM682.043 34.674l-.327-6.556 1.746.798 3.351-7.343 2.247 1.026-3.35 7.342 1.749.796zM693.857 12.129l1.081-6.474 1.536 1.152L701.317.35l1.975 1.482-4.84 6.457 1.537 1.151z"/></g><g><path fill="none" d="M364.086 29.54c3.416 23.545 10.889 22.39 13.468 45.445 20.689 24.685-41.345-26.014-48.48-8.02s-5.238 20.803-1.796 46.778c3.446 25.975 22.447 52.123 22.447 52.123"/><path fill="#010101" stroke="#010101" stroke-width=".5" d="m350.055 161.994-5.603-3.419 1.642-.995-4.183-6.903 2.111-1.28 4.185 6.901 1.641-.997zM337.834 139.469l-5.088-4.145 1.761-.764-3.212-7.404 2.266-.984 3.212 7.405 1.762-.767zM330.278 115.286l-4.014-5.193 1.888-.344-1.445-7.94 2.429-.442 1.447 7.939 1.89-.347zM326.948 90.098l-2.825-5.925 1.919.063.266-8.066 2.468.081-.265 8.067 1.92.061zM330.707 67.032l5.195-4.012.343 1.889 7.941-1.441.441 2.43-7.94 1.442.344 1.89zM354.031 71.38l6.563-.094-.859 1.717 7.22 3.609-1.105 2.209-7.219-3.608-.858 1.719zM378.488 85.708l.512-6.544 1.63 1.014 4.26-6.855 2.098 1.303-4.259 6.855 1.633 1.013zM376.65 59.64l-4.942-4.32 1.787-.702-2.952-7.512 2.299-.903 2.952 7.511 1.788-.704zM367.925 35.647l-4.175-5.065 1.878-.403-1.692-7.891 2.415-.518 1.693 7.891 1.877-.405z"/></g></svg>