<svg xmlns="http://www.w3.org/2000/svg" width="675.982" height="55.977" overflow="visible" xml:space="preserve"><path fill="none" d="M101.06 11.934s-17.135 9.563-16.549 18.914c.586 9.35 2.461 19.146 8.865 17.729 2.467-1.266 5.494-2.93 7.684-4.729 3.408-4.863 5.928-7.033 1.896-13.304-1.907-2.967-11.645 7.166-11.645 7.166"/><path d="M102.827 10.166c-5.733 3.236-10.822 7.63-15.241 12.492-4.236 4.66-5.103 8.421-4.428 14.616.514 4.714 2.542 16.154 9.724 12.405 6.448-3.365 19.182-13.118 11.535-21.229-2.459-2.607-12.775 8.851-14.641 10.777-.643.664.564-.517.658-.61.811-.801 1.619-1.605 2.412-2.425-2.115 2.185 2.393-1.881 3.272-2.535 1.23-.915 2.768-1.983 4.368-1.848 2.014.172 2.768 5.19 2.738 6.696-.051 2.585-2.533 5.147-3.933 7.109l3.535-3.535c-3.614 2.769-8.764 7.177-12.698 2.84-3.449-3.803-3.514-11.067-3.851-15.84-.513-7.264 7.532-12.285 13.014-15.379 1.407-.792 2.147-2.75 3.536-3.534z"/><path fill="none" d="M369.413 35.568s28.356-2.064 33.99-1.309c5.634.746-7.888 12.393-15.587 13.895-2.816-6.385 0-46.387 0-46.387"/><path d="M367.646 37.336c8.348-.604 16.709-1.117 25.074-1.389 1.768-.057 9.472-1.205 10.239 1.062.214.63-.422 1.52-.711 2.006-.713.893-.56.841.459-.154a37.692 37.692 0 0 1-2.503 2.063c-2.406 1.873-5.074 3.414-7.872 4.616-2.392 1.027-2.882 1.061-3.331-1.359-.351-1.887-.436-3.831-.531-5.743-.271-5.337-.139-10.701.009-16.04.207-7.47.584-14.942 1.105-22.397-.086 1.229-3.446 2.256-3.535 3.535a537.467 537.467 0 0 0-1.186 25.602c-.124 5.558-.197 11.165.349 16.705.135 1.367.055 4.265 1.715 3.873 3.185-.753 6.155-2.731 8.804-4.567 3.341-2.316 6.301-5.339 9.028-8.342 3.865-4.257-.261-4.475-3.925-4.479-9.882-.014-19.802.761-29.653 1.475-1.282.091-2.304 3.444-3.535 3.533z"/><path fill="none" d="M228.562 47.646c5.457-.229 14.77-.529 22.344 1.203s12.354-4.016 13.437-8.523c1.081-4.51-1.176-6.73-6.225-6.73"/><path d="M226.794 49.414c6.434-.26 12.844-.276 19.234.614 5.524.77 9.477 1.4 13.78-2.721 4.724-4.522 11.462-15 .076-15.479-1.154-.049-2.437 3.582-3.535 3.535 3.232.137 6.064.9 6.486 4.497.2 1.705-.622 3.534-1.348 5.018-.534 1.091-1.152 1.409-3.369 2.159-4.001 1.354-9.308-.734-13.393-1.088-4.78-.414-9.61-.264-14.397-.07-1.248.05-2.336 3.487-3.534 3.535z"/><path fill="none" d="m1.768 53.041 39.705 1.168"/><path d="m0 54.809 39.705 1.168c1.169.034 2.42-3.568 3.535-3.535L3.535 51.274c-1.169-.035-2.42 3.568-3.535 3.535z"/><path fill="none" d="m445.782 38.912 8.065 9.333 8.625-11.419"/><path d="m444.015 40.68 8.064 9.333c-.029-.033 3.237-3.141 3.535-3.535l8.625-11.419c-.991 1.313-2.538 2.215-3.535 3.535l-8.625 11.419 3.535-3.535-8.064-9.333c.054.062-3.64 3.415-3.535 3.535z"/><g><path fill="none" d="M599.149 24.916c16.13 3.869 5.008 19.191-2.294 18.252"/><path d="M597.382 26.684c4.851 1.284 9.305 4.231 8.008 9.823-.223.961-.685 1.857-1.165 2.71-.208.348-.433.686-.672 1.013-1.325 1.896 2.354-1.929.539-.566-1.569 1.179-3.5 1.895-5.469 1.737-1.105-.089-2.487 3.619-3.535 3.535 4.777.383 8.838-4.453 11.628-7.758 1.762-2.087 2.782-4.825 2.364-7.552-.593-3.873-4.876-5.608-8.163-6.478-.841-.222-2.758 3.742-3.535 3.536z"/></g><g><path fill="none" d="M512.222 25.963c3.041.611 7.904 13.381 7.904 13.381"/><path d="M510.454 27.73c2.44.726 3.951 4.63 4.969 6.668a75.587 75.587 0 0 1 2.936 6.713c-.23-.602 3.79-2.869 3.535-3.535a84.828 84.828 0 0 0-2.689-6.21c-1.028-2.151-2.654-6.41-5.215-7.171-.793-.236-2.807 3.752-3.536 3.535z"/><g><path fill="none" d="M519.599 23.771s9.131-6.559 12.938.708 2.734 10.009-1.418 13.47c-4.152 3.459-7.621 6.025-7.621 6.025"/><path d="M517.831 25.539c4.969-3.484 10.609-3.937 13.595 2.019 1.575 3.143 2.466 6.516.434 9.616l1.701-1.576c-.939.807-1.891 1.597-2.855 2.372-.923.751-1.859 1.484-2.796 2.218-.873.684-1.755 1.357-2.645 2.02-1.327.986-2.217 2.556-3.535 3.535 3.182-2.365 6.427-4.774 9.28-7.532 2.001-1.934 4.439-3.919 5.407-6.598 1.481-4.102-2.071-10.986-6.122-12.174-2.912-.854-6.59.925-8.929 2.566-1.348.945-2.197 2.596-3.535 3.534z"/></g></g><g><path fill="none" d="M307.796 31.389s6.82-5.559 11.194-1.859c5.536 4.684 5.254 17.93-9.53 17.449-12.788-.416-4.024-15.584-.999-15.584"/><path d="M306.028 33.156c3.977-3.165 9.596-4.752 12.875.087 1.232 1.817 1.676 4.088 1.62 6.246-.03 1.127-.335 2.22-.741 3.262-.208.535-.515 1.023-.82 1.506-1.047 1.66 3.295-2.42.335-.657-3.962 2.358-13.026 3.157-14.649-2.454-.592-2.044.185-4.388.987-6.255.424-.986.991-1.907 1.601-2.787 1.275-1.839-3.06 2.548-1.516 1.429.293-.213.616-.331.972-.37 1.315-.145 2.267-3.396 3.535-3.535-1.821.2-3.702 2.914-4.846 4.082a16.498 16.498 0 0 0-3.889 6.287c-3.082 8.954 7.5 10.123 13.655 7.452 2.539-1.102 4.523-3.602 6.393-5.549 1.98-2.063 2.694-4.813 2.474-7.609-.239-3.036-1.958-6.04-4.709-7.406-3.073-1.525-7.357.839-9.743 2.737-1.297 1.032-2.242 2.507-3.534 3.534z"/></g><g><path fill="none" d="m674.215 23.77-7.147 21.437"/><path d="m672.447 25.537-7.146 21.438c.466-1.397 3.059-2.105 3.535-3.535l7.146-21.438c-.465 1.397-3.058 2.106-3.535 3.535z"/></g><g><path fill="none" d="M154.018 38.604s5.201-2.932 7.328-1.409c2.129 1.519 2.275 6.019.756 7.232s-6.363 1.653-10.62 3.478c-10.482 4.492 21.621-2.219 30.386-.135"/><path d="M152.25 40.371c2.018-1.096 4.193-1.961 6.517-1.762 3.151.271 2.975 5.873 1.567 7.585l3.535-3.535c-4.167 2.455-9.846 1.813-13.444 5.369-1.858 1.837-4.323 3.347-.428 3.202 9.795-.365 20.353-3.713 30.102-1.693.926.192 2.671-3.715 3.535-3.535-6.252-1.296-13.248-.017-19.509.653-3.129.335-6.254.713-9.391.964-.309.024-4.08.333-3.419-.451l-3.535 3.536c2.599-2.045 6.543-2.553 9.647-3.356 2.604-.676 3.762-1.957 5.581-3.798 1.898-1.921 2.215-3.883 1.334-6.523-1.25-3.748-6.283-1.426-8.558-.19-1.412.767-2.14 2.777-3.534 3.534z"/></g></svg>