<svg xmlns="http://www.w3.org/2000/svg" width="765.928" height="209.226" overflow="visible" xml:space="preserve"><path fill="none" d="M735.993 127.882s18.134-11.675 23.545-3.111c5.406 8.57 4.808 17.044-20.045 29.196-22.92 11.215-12.725-23.353-6.363-23.353"/><path fill="#010101" stroke="#010101" stroke-width=".5" d="m735.479 125.392-2.475 6.079-1.246-1.46-6.138 5.238-1.604-1.879 6.139-5.239-1.248-1.46zM724.405 148.92l4.485 4.792-1.848.52 2.187 7.768-2.378.67-2.187-7.769-1.849.523zM747.233 152.148l3.571-5.507.95 1.669 7.014-3.994 1.222 2.147-7.013 3.994.952 1.668zM762.721 131.712l-3.489-5.56 1.913-.158-.664-8.043 2.461-.204.666 8.043 1.914-.16z"/><path fill="#010101" stroke="#010101" stroke-width=".5" d="m740.704 122.418-3.616 5.478-.936-1.676-7.046 3.937-1.205-2.157 7.045-3.937-.939-1.676z"/><path fill="none" d="M559.801 102.557c-15.426-3.133-27.48 35.962-28.181 50.39-.699 14.428 37.249 17.056 42.74-11.735 4.453-23.341.87-35.524-14.559-38.655z"/><path fill="#010101" stroke="#010101" stroke-width=".5" d="m561.888 106.361 6.562.193-.934 1.677 7.055 3.922-1.2 2.159-7.055-3.921-.932 1.68zM573.392 124.224l2.434 6.096-1.911-.188-.791 8.032-2.458-.242.79-8.032-1.912-.187zM569.841 148.622l-1.708 6.338-1.416-1.296-5.448 5.953-1.822-1.667 5.448-5.954-1.419-1.296zM550.255 161.188l-6.158 2.272.238-1.905-8.007-1.002.306-2.45 8.008 1.001.236-1.907zM534.385 150.558l-1.993-6.254 1.893.323 1.36-7.954 2.435.416-1.36 7.955 1.894.322zM540.87 126.149l-.245-6.559 1.737.819 3.444-7.299 2.234 1.054-3.444 7.299 1.738.818z"/><path fill="#010101" stroke="#010101" stroke-width=".5" d="m553.962 106.792 4.778-4.501.526 1.847 7.762-2.212.677 2.375-7.761 2.213.528 1.847z"/><g><path fill="none" d="M406.686 62.909s-6.997 125.146-26.685 130.854c-5.715-.633-15.245.638-38.117-2.544-14.603-24.133 32.402-40.019 32.402-40.019l101.003 3.185s13.344 3.162 8.259 18.415c-5.083 15.256-48.918 20.963-52.088 20.963-3.173 0 10.158-127.037 10.158-127.037"/><path fill="#010101" stroke="#010101" stroke-width=".5" d="m437.782 80.941 2.321 6.14-1.907-.224-.939 8.016-2.453-.287.938-8.016-1.909-.221zM435.213 106.812l2.342 6.131-1.907-.216-.911 8.019-2.453-.279.909-8.019-1.909-.215zM432.769 132.7l2.376 6.118-1.908-.206-.866 8.025-2.456-.266.865-8.023-1.91-.204zM430.529 158.616l2.437 6.095-1.911-.188-.785 8.033-2.459-.241.785-8.032-1.911-.184zM428.944 184.729l2.938 5.87-1.92-.027-.111 8.07-2.47-.035.112-8.069-1.921-.024zM448.657 193.207l5.111-4.118.382 1.882 7.91-1.605.491 2.42-7.909 1.607.384 1.881zM473.418 184.093l3.351-5.645 1.016 1.63 6.85-4.266 1.306 2.096-6.851 4.268 1.018 1.629zM483.942 162.026l-4.856-4.417 1.801-.667-2.802-7.568 2.317-.857 2.803 7.568 1.8-.669zM460.788 151.56l-5.964 2.741.09-1.917-8.062-.38.116-2.467 8.062.378.089-1.919zM434.811 150.739l-5.964 2.741.09-1.917-8.062-.379.117-2.467 8.061.378.089-1.919zM408.833 149.921l-5.963 2.741.089-1.917-8.061-.38.116-2.467 8.062.378.089-1.919zM382.857 149.103l-5.964 2.741.09-1.917-8.061-.38.116-2.467 8.062.378.088-1.919zM357.522 156.962l-3.546 5.523-.957-1.664-6.996 4.026-1.231-2.141 6.994-4.026-.96-1.664zM339.645 176.004l1.641 6.355-1.871-.428-1.804 7.866-2.407-.552 1.802-7.866-1.873-.428zM352.591 194.699l6.144-2.311-.226 1.906 8.014.951-.291 2.453-8.015-.95-.224 1.907zM378.347 194.431l4.182-5.059.751 1.767 7.428-3.159.965 2.273-7.426 3.159.753 1.768zM393.873 173.16l-.994-6.488 1.819.614 2.585-7.644 2.34.791-2.584 7.645 1.82.613z"/><path fill="#010101" stroke="#010101" stroke-width=".5" d="m399.704 147.577-1.774-6.319 1.88.389 1.639-7.902 2.418.501-1.638 7.902 1.882.389zM403.559 121.748l-2.131-6.208 1.9.281 1.184-7.983 2.444.363-1.184 7.983 1.9.28zM406.425 95.84l-2.334-6.135 1.908.219.921-8.017 2.454.281-.921 8.019 1.909.217zM408.612 69.861l-2.547-6.05 1.913.153.642-8.046 2.462.197-.641 8.045 1.915.151z"/></g><g><path fill="none" d="M86.148 30.659S66.356 162.522 70.695 182.323c4.346 19.8-50.242 17.374-63.76-4.837-13.517-22.21 55.062-33.319 55.062-33.319s51.323-11.544 54.101-.974c4.827 18.356 10.624 28.991 0 31.884-10.624 2.896-9.178-7.243-7.726-18.84 7.243-50.712 9.172-116.884 9.172-116.884"/><path fill="#010101" stroke="#010101" stroke-width=".5" d="m114.91 45.98 2.687 5.989-1.917-.108-.453 8.058-2.466-.139.452-8.057-1.918-.106zM113.661 71.891l2.564 6.043-1.914-.148-.619 8.047-2.463-.189.618-8.047-1.915-.145zM111.971 97.773l2.43 6.098-1.911-.19-.796 8.031-2.458-.243.796-8.031-1.912-.188zM109.724 123.622l2.324 6.139-1.907-.222-.933 8.016-2.454-.285.933-8.017-1.908-.221zM106.716 149.424l2.293 6.15-1.906-.232-.976 8.012-2.451-.299.974-8.011-1.907-.231zM111.058 178.688l4.717-4.565.551 1.839 7.731-2.316.709 2.367-7.731 2.316.553 1.84zM122.462 156.861l-4.429-4.843 1.855-.499-2.096-7.794 2.386-.641 2.095 7.793 1.855-.5zM106.129 136.804l-5.93 2.812.067-1.919-8.065-.283.087-2.469 8.065.284.065-1.92zM79.891 138.643l-5.391 3.746-.247-1.905-8.003 1.042-.319-2.449 8.003-1.043-.25-1.904zM54.142 143.308l-5.082 4.153-.395-1.879-7.898 1.66-.508-2.417 7.898-1.661-.398-1.879zM28.934 150.617l-4.462 4.814-.65-1.807-7.594 2.731-.836-2.324 7.594-2.732-.653-1.807zM6.929 164.9l.55 6.54-1.773-.736-3.099 7.451-2.28-.948 3.098-7.452-1.775-.735zM16.057 188.377l6.547.465-1.001 1.637 6.885 4.21-1.288 2.108-6.886-4.209-1.001 1.64zM41.351 197.16l6.044-2.56-.148 1.914 8.046.623-.19 2.462-8.047-.621-.146 1.915zM66.083 191.746l2.326-6.139 1.281 1.43 6.011-5.386 1.649 1.84-6.011 5.387 1.284 1.429zM72.693 166.599l-2.579-6.036 1.915.142.598-8.049 2.463.184-.597 8.048 1.916.14z"/><path fill="#010101" stroke="#010101" stroke-width=".5" d="m74.584 140.771-2.346-6.129 1.908.215.907-8.02 2.454.278-.905 8.02 1.908.214zM77.311 114.974l-2.224-6.176 1.903.254 1.065-8 2.448.325-1.064 8 1.905.252zM80.459 89.204l-2.149-6.202 1.9.276 1.161-7.986 2.443.355-1.159 7.987 1.901.274zM83.878 63.459l-2.1-6.218 1.898.291 1.225-7.977 2.441.375-1.224 7.977 1.899.289zM87.496 37.746l-2.039-6.239 1.895.309 1.302-7.964 2.437.398-1.301 7.965 1.896.308z"/></g><g><path fill="none" d="M302.497 40.925s28.131-12.795 30.692 23.016c2.564 35.806-106.138 21.73-118.929 28.131-12.795 6.395 10.231 85.688-11.514 101.034C181 208.452 181 200.782 154.15 198.219c-8.961-47.315 90.802-40.925 90.802-40.925s31.976-15.336 39.643 8.962c7.669 24.297-38.372 35.806-38.372 35.806L250.069 0"/><path fill="#010101" stroke="#010101" stroke-width=".5" d="m247.407 15.489 2.816 5.929-1.919-.066-.279 8.065-2.468-.084.278-8.066-1.919-.065zM246.912 41.475l2.816 5.929-1.919-.067-.279 8.066-2.468-.085.278-8.066-1.92-.064zM246.418 67.46l2.816 5.929-1.919-.066-.279 8.065-2.468-.085.278-8.066-1.92-.064zM245.923 93.445l2.816 5.93-1.919-.067-.279 8.066-2.468-.085.278-8.066-1.92-.065zM245.429 119.431l2.816 5.929-1.919-.067-.279 8.066-2.468-.086.277-8.065-1.919-.064zM244.935 145.415l2.815 5.929-1.918-.067-.279 8.067-2.469-.086.278-8.066-1.919-.064zM244.439 171.4l2.816 5.929-1.919-.066-.278 8.066-2.469-.086.278-8.065-1.919-.065zM241.462 199.195l6.446 1.236-1.188 1.507 6.339 4.996-1.528 1.94-6.34-4.994-1.188 1.51zM267.158 196.207l3.655-5.452.924 1.683 7.074-3.886 1.189 2.165-7.073 3.887.926 1.682zM286.127 176.789l-2.45-6.089 1.911.183.77-8.034 2.458.235-.768 8.034 1.912.182zM275.283 152.753l-6.498.927.633-1.813-7.618-2.663.815-2.332 7.618 2.663.633-1.814z"/><path fill="#010101" stroke="#010101" stroke-width=".5" d="m249.075 153.684-5.269 3.914-.308-1.896-7.966 1.293-.396-2.437 7.966-1.294-.31-1.896zM223.443 154.899l-5.648 3.344-.108-1.917-8.058.457-.14-2.466 8.058-.458-.111-1.918zM197.384 157.762l-5.244 3.946-.32-1.893-7.958 1.342-.411-2.434 7.958-1.344-.322-1.894zM171.473 164.858l-3.319 5.663-1.025-1.624-6.826 4.305-1.317-2.089 6.826-4.305-1.027-1.624zM153.477 184.91l2.155 6.2-1.901-.274-1.153 7.987-2.445-.352 1.153-7.989-1.901-.272zM166.5 202.516l6.264-1.964-.333 1.891 7.948 1.399-.427 2.432-7.949-1.397-.331 1.892zM193.359 201.367l3.581-5.501.947 1.67 7.021-3.979 1.218 2.148-7.02 3.981.949 1.67zM210.991 181.94l-.852-6.507 1.805.654 2.751-7.588 2.322.842-2.75 7.588 1.807.653z"/><path fill="#010101" stroke="#010101" stroke-width=".5" d="m214.736 155.573-3.11-5.781 1.92-.029-.125-8.071 2.469-.038.127 8.07 1.921-.032zM213.583 129.529l-3.313-5.666 1.917-.098-.413-8.06 2.467-.126.413 8.059 1.919-.1zM212.909 104.385l-1.652-6.353 1.872.426 1.79-7.87 2.409.548-1.789 7.87 1.873.424zM227.725 92.686l5.808-3.058.012 1.92 8.071-.053.016 2.47-8.07.054.015 1.921zM253.695 92.17l5.827-3.021.001 1.92 8.071-.004.001 2.471-8.071.004.003 1.92zM279.772 91.154l5.675-3.299.094 1.918 8.061-.392.12 2.467-8.061.393.095 1.918zM305.78 87.794l5.244-3.947.319 1.893 7.958-1.344.411 2.435-7.957 1.345.322 1.894zM330.772 76.113l-.487-6.545 1.766.754 3.17-7.422 2.271.97-3.169 7.422 1.767.753zM331.652 49.749l-5.494-3.592 1.672-.944-3.967-7.028 2.151-1.214 3.967 7.028 1.672-.946zM308.129 36.417l-4.559 4.723-.612-1.819-7.648 2.577-.789-2.34 7.647-2.579-.615-1.819z"/></g><g><path fill="none" d="m685.28 114.869-18.381 41.069"/><path fill="#010101" stroke="#010101" stroke-width=".5" d="m674.038 145.778-.274-6.557 1.74.811 3.412-7.314 2.238 1.044-3.41 7.314 1.742.81zM684.655 122.056l-.274-6.558 1.741.811 3.411-7.314 2.238 1.044-3.41 7.315 1.742.81z"/></g><g><path fill="none" d="M621.519 125.398c-2.486 31.079 14.918 26.105 14.918 26.105"/><path fill="#010101" stroke="#010101" stroke-width=".5" d="m634.72 151.83-6.477-1.06 1.147-1.541-6.473-4.82 1.475-1.981 6.474 4.82 1.145-1.542zM624.386 132.018l-3.357-5.64 1.917-.113-.476-8.057 2.466-.145.477 8.056 1.917-.115z"/></g></svg>