<svg xmlns="http://www.w3.org/2000/svg" width="762.067" height="118.749" overflow="visible" xml:space="preserve"><path fill="none" d="M160.095 30.394s-41.096 22.937-39.689 45.361c1.406 22.425 5.902 45.919 21.259 42.518 5.917-3.034 13.178-7.026 18.43-11.341 8.174-11.663 14.216-16.865 4.547-31.905-4.575-7.115-27.926 17.188-27.926 17.188"/><path fill="#010101" stroke="#010101" stroke-width=".25" d="m143.334 87.537 1.224-3.045.626.727 3.058-2.633.806.936-3.058 2.633.628.727zM153.295 79.494l1.635-2.846.519.808 3.394-2.183.668 1.04-3.394 2.182.52.807zM162.384 77.022l3.241.518-.57.772 3.246 2.397-.734.993-3.246-2.397-.57.774zM167.438 86.887l1.635 2.845-.959.042.176 4.031-1.233.054-.177-4.031-.96.043zM164.519 98.417l-.459 3.25-.782-.556-2.34 3.288-1.006-.716 2.339-3.288-.783-.557zM156.517 107.745l-1.735 2.786-.49-.825-3.469 2.061-.631-1.062 3.469-2.062-.492-.825zM145.449 114.555l-1.734 2.786-.49-.825-3.47 2.062-.63-1.063 3.469-2.061-.492-.826zM134.768 115.987l-3.251-.45.554-.784-3.295-2.33.713-1.008 3.295 2.33.554-.786zM127.52 106.417l-2.524-2.097.884-.373-1.569-3.718 1.137-.48 1.57 3.717.884-.374zM123.8 94.297l-1.958-2.633.948-.155-.649-3.982 1.219-.199.649 3.983.948-.155zM122.203 81.492l-1.765-2.766.956-.087-.362-4.019 1.23-.111.363 4.019.956-.087zM123.394 69.207l-.651-3.217.923.264 1.109-3.88 1.187.339-1.108 3.881.923.262zM128.831 58.232l.678-3.211.743.608 2.556-3.122.956.782-2.556 3.123.744.607zM137.241 48.693l1.283-3.02.612.74 3.11-2.572.787.952-3.109 2.572.612.739zM147.081 40.403l1.592-2.87.532.8 3.361-2.232.684 1.028-3.362 2.233.532.8zM157.785 33.165l1.762-2.769.482.83 3.49-2.026.62 1.068-3.49 2.026.483.831z"/><g><path fill="none" d="M494.126 82.457s68.006-4.953 81.516-3.14c13.512 1.791-18.915 29.721-37.38 33.324-6.757-15.313 0-111.25 0-111.25"/><path fill="#010101" stroke="#010101" stroke-width=".25" d="m537.151.261 1.267 3.028-.957-.079-.329 4.022-1.231-.1.328-4.022-.957-.077zM536.339 13.239l1.288 3.019-.957-.071-.301 4.023-1.231-.091.3-4.025-.958-.07zM535.631 26.228l1.32 3.004-.958-.061-.257 4.027-1.232-.079.257-4.027-.959-.06zM535.015 39.217l1.344 2.994-.958-.054-.224 4.03-1.234-.069.225-4.029-.96-.053zM534.569 52.214l1.369 2.983-.959-.046-.192 4.031-1.233-.059.191-4.031-.959-.045zM534.227 65.236l1.447 2.945-.96-.02-.085 4.034-1.234-.026.084-4.034-.96-.019zM534.155 78.231l1.448 2.945-.96-.02-.085 4.034-1.235-.025.085-4.035-.961-.019zM534.466 91.279l1.599 2.866-.96.029.125 4.034-1.234.038-.125-4.034-.96.032zM535.457 104.385l1.996 2.606-.945.168.706 3.973-1.216.216-.706-3.973-.945.168zM542.755 112.196l2.224-2.414.328.902 3.793-1.378.421 1.16-3.792 1.379.329.903zM554.729 106.704l1.696-2.811.502.818 3.44-2.109.646 1.053-3.441 2.11.503.818zM565.652 99.369l1.242-3.038.622.731 3.074-2.615.8.94-3.074 2.615.623.732zM575.359 90.329l.403-3.257.791.542 2.282-3.328 1.019.698-2.282 3.329.793.542zM575.57 79.649l-3.282-.006.443-.852-3.579-1.863.571-1.095 3.579 1.862.442-.852zM562.383 77.798l-2.901 1.536-.008-.959-4.036.036-.01-1.235 4.035-.037-.01-.96zM549.379 78.137l-2.883 1.569-.019-.96-4.035.082-.025-1.234 4.034-.083-.02-.96z"/><path fill="#010101" stroke="#010101" stroke-width=".25" d="m536.384 78.712-2.864 1.601-.031-.959-4.033.127-.039-1.234 4.033-.128-.032-.96zM523.393 79.398l-2.846 1.635-.042-.959-4.031.174-.054-1.234 4.031-.175-.042-.959zM510.413 80.175l-2.834 1.654-.049-.959-4.03.203-.062-1.234 4.031-.203-.05-.959zM497.441 81.037l-2.827 1.666-.051-.958-4.03.22-.067-1.233 4.028-.221-.053-.959z"/></g><g><path fill="none" d="M203.902 83.915s12.475-7.033 17.576-3.381c5.105 3.645 5.457 14.435 1.813 17.347-3.645 2.91-15.261 3.965-25.47 8.34-25.14 10.775 51.853-5.322 72.873-.322"/><path fill="#010101" stroke="#010101" stroke-width=".25" d="m269.287 104.593-3.049 1.217.095-.955-4.016-.396.121-1.228 4.016.394.093-.956zM256.177 103.841l-2.865 1.601-.03-.96-4.033.127-.039-1.234 4.033-.127-.031-.96zM243.172 104.504l-2.826 1.669-.053-.958-4.029.224-.068-1.233 4.029-.224-.055-.959zM230.2 105.66l-2.784 1.736-.077-.957-4.022.321-.098-1.231 4.022-.321-.077-.958zM217.26 106.995l-2.762 1.771-.089-.956-4.018.372-.114-1.23 4.018-.372-.089-.956zM204.359 108.258l-2.809 1.698-.063-.958-4.027.262-.08-1.231 4.026-.265-.063-.958z"/><path fill="#010101" stroke="#010101" stroke-width=".25" d="m194.576 109.643 1.715-2.799.496.823 3.455-2.085.638 1.057-3.455 2.085.497.822zM206.222 104.85l2.371-2.269.27.921 3.872-1.136.348 1.184-3.872 1.137.272.922zM218.609 100.785l2.284-2.358.305.91 3.826-1.281.393 1.171-3.827 1.282.306.91zM226.148 90.705l-1.697-2.809.958-.063-.264-4.027 1.231-.081.265 4.026.959-.063zM219.615 79.14l-3.079 1.136.119-.952-4.004-.502.153-1.225 4.005.501.118-.953zM206.434 81.346l-1.987 2.612-.411-.867-3.647 1.728-.529-1.116 3.646-1.728-.412-.868z"/></g><g><path fill="none" d="M290.774 103.245c13.086-.547 35.42-1.269 53.585 2.888 18.166 4.154 29.629-9.631 32.225-20.441 2.593-10.816-2.819-16.144-14.929-16.144"/><path fill="#010101" stroke="#010101" stroke-width=".25" d="m362.461 71.035 3.239-.531-.298.913 3.836 1.252-.384 1.174-3.835-1.252-.298.913zM373.563 74.363l1.913 2.668-.951.137.579 3.994-1.222.177-.579-3.993-.95.138zM374.933 86.357l.005 3.281-.853-.439-1.849 3.586-1.098-.566 1.849-3.587-.854-.439zM368.794 97.006l-1.439 2.95-.572-.771-3.24 2.405-.736-.991 3.239-2.406-.573-.771zM358.865 103.984l-2.834 1.655-.049-.959-4.03.205-.062-1.233 4.029-.205-.049-.959zM346.017 104.828l-2.969 1.397.036-.959-4.032-.154.047-1.234 4.032.153.036-.959zM333.188 103.693l-3.082 1.129.122-.952-4.003-.511.156-1.225 4.003.51.12-.953zM320.273 102.25l-3.082 1.128.122-.952-4.003-.51.156-1.225 4.003.51.121-.953zM307.161 101.85l-2.918 1.502.002-.96-4.035-.011.003-1.235 4.036.011.001-.96zM294.167 102.017l-2.918 1.502.002-.96-4.035-.011.003-1.235 4.035.011.002-.96z"/></g><g><path fill="none" d="m3.657 111.786 95.225 2.798"/><path fill="#010101" stroke="#010101" stroke-width=".25" d="m98.023 113.375-2.979 1.377.043-.959-4.031-.18.056-1.234 4.031.181.042-.96zM85.034 112.994l-2.979 1.377.043-.959-4.032-.181.056-1.233 4.031.18.042-.96zM72.044 112.612l-2.979 1.377.043-.959-4.031-.181.056-1.233 4.031.18.042-.96zM59.055 112.23l-2.979 1.377.043-.959-4.031-.181.056-1.233 4.031.181.042-.96zM46.066 111.848l-2.979 1.377.043-.959-4.031-.181.055-1.233 4.032.181.042-.96zM33.076 111.466l-2.979 1.377.043-.959-4.031-.18.056-1.234 4.031.181.042-.96zM20.087 111.084l-2.979 1.377.043-.959-4.031-.18.055-1.234 4.032.181.042-.96zM7.098 110.703l-2.979 1.377.043-.959-4.032-.181.056-1.233 4.031.18.042-.96z"/></g><g><path fill="none" d="m606.21 83.06 19.339 22.384 20.685-27.386"/><path fill="#010101" stroke="#010101" stroke-width=".25" d="m640.158 84.139-.601 3.226-.757-.591-2.483 3.183-.973-.76 2.481-3.182-.758-.59zM632.326 94.508l-.601 3.226-.757-.59-2.483 3.182-.973-.76 2.481-3.182-.758-.59zM626.568 101.431l-2.887 1.561-.017-.96-4.035.069-.022-1.234 4.036-.071-.018-.961zM617.829 94.698l-3.028-1.266.735-.616-2.59-3.094.948-.793 2.589 3.094.737-.617zM609.333 84.865l-3.028-1.266.736-.616-2.591-3.094.947-.793 2.591 3.094.736-.617z"/></g><g><path fill="none" d="M741.915 72.938c33.52 8.042 10.405 39.883-4.768 37.932"/><path fill="#010101" stroke="#010101" stroke-width=".25" d="m740.618 111.209 2.486-2.141.222.933 3.926-.932.285 1.201-3.926.934.224.933zM752.202 104.93l1.152-3.073.643.713 2.996-2.703.827.917-2.995 2.703.644.713zM760.076 93.465l-1.382-2.976.959.041.176-4.031 1.234.053-.175 4.031.96.042zM756.542 80.784l-3.017-1.292.742-.61-2.563-3.117.954-.785 2.563 3.118.742-.611zM745.483 73.467l-3.281-.061.457-.844-3.548-1.923.589-1.086 3.548 1.923.456-.845z"/></g><g><path fill="none" d="M675.586 79.696c4.841.974 12.581 21.297 12.581 21.297"/><path fill="#010101" stroke="#010101" stroke-width=".25" d="m685.773 92.609-2.617-1.981.866-.413-1.737-3.642 1.114-.531 1.739 3.641.866-.414zM678.754 81.421l-3.06-1.188.721-.635-2.668-3.027.927-.817 2.668 3.028.72-.636z"/><g><path fill="none" d="M687.326 76.207s14.532-10.438 20.591 1.128c6.06 11.565 4.354 15.931-2.256 21.438-6.608 5.508-12.13 9.591-12.13 9.591"/><path fill="#010101" stroke="#010101" stroke-width=".25" d="m699.972 104.86 1.373-2.981.589.758 3.185-2.477.758.974-3.185 2.479.591.757zM709.344 95.553l.476-3.247.78.561 2.356-3.277 1.002.722-2.355 3.275.78.561zM710.679 82.831l-2.2-2.436.929-.244-1.024-3.903 1.195-.313 1.024 3.903.928-.245zM703.06 72.391l-3.261.374.341-.897-3.771-1.436.44-1.154 3.771 1.435.341-.898zM689.613 73.417l-1.739 2.783-.489-.826-3.472 2.056-.63-1.063 3.473-2.056-.49-.826z"/></g></g><g><path fill="none" d="M433.588 74.26s16.357-13.332 26.847-4.459c13.275 11.231 12.602 43-22.857 41.849-30.668-.999-9.65-37.378-2.395-37.378"/><path fill="#010101" stroke="#010101" stroke-width=".25" d="m435.707 72.469-1.583 2.875-.533-.798-3.355 2.244-.686-1.026 3.353-2.244-.535-.798zM426.123 81.577l-.307 3.267-.807-.519-2.183 3.394-1.039-.669 2.183-3.393-.808-.519zM421.208 93.835l.727 3.201-.929-.242-1.017 3.906-1.195-.312 1.016-3.905-.93-.241zM423.862 106.622l3.129.992-.678.679 2.853 2.853-.872.873-2.855-2.852-.678.68zM436.038 112.234l3.046-1.223-.093.956 4.017.387-.118 1.229-4.017-.386-.091.956zM449.183 110.945l2.662-1.92.14.949 3.992-.591.18 1.222-3.991.592.142.949zM461.051 105.242l1.337-2.997.598.75 3.155-2.516.77.965-3.155 2.516.599.751zM468.128 94.166l-.481-3.248.909.313 1.312-3.816 1.167.401-1.311 3.816.909.312zM468.458 80.614l-2.457-2.176.895-.345-1.452-3.765 1.153-.444 1.452 3.764.896-.346zM460.92 69.882l-3.224-.614.593-.755-3.173-2.493.764-.972 3.173 2.494.593-.756zM448.077 66.375l-2.548 2.069-.195-.94-3.951.817-.25-1.209 3.951-.818-.195-.94z"/><path fill="#010101" stroke="#010101" stroke-width=".25" d="m435.672 71.315-1.538 2.9-.546-.79-3.318 2.296-.703-1.016 3.319-2.296-.548-.789z"/></g></svg>