<svg xmlns="http://www.w3.org/2000/svg" width="988.646" height="420" overflow="visible" xml:space="preserve"><path fill="none" d="M575.604 352.261c-2.784 3.176 7.743 58.599-6.358 57.807-10.107-.57-11.719-7.948-13.113-15.297-1.395-7.351 27.219-5.758 30.596-5.959 3.774 2.184 6.354 6.558 5.164 10.528-1.19 3.971-7.554 7.548-4.77 3.574 2.785-3.974 2.186-51.053 3.18-54.231"/><path fill="#010101" stroke="#010101" stroke-width=".25" d="m589.353 350.665.864 2.077-.656-.055-.233 2.756-.844-.071.233-2.756-.656-.055zM588.941 359.597l.956 2.036-.657-.026-.107 2.764-.847-.032.109-2.765-.659-.024zM588.73 368.5l.952 2.038-.659-.026-.115 2.762-.845-.036.115-2.761-.658-.029zM588.496 377.404l.949 2.038-.656-.027-.117 2.764-.846-.035.115-2.764-.657-.027zM588.164 386.28l.889 2.067-.656-.047-.198 2.759-.845-.061.199-2.759-.657-.047zM587.627 395.11l.75 2.119-.651-.088-.379 2.739-.839-.116.38-2.741-.653-.089zM585.865 403.134l2.237.251-.367.546 2.3 1.538-.471.703-2.298-1.536-.367.547zM592.602 398.452l-1.239-1.878.654-.068-.29-2.752.841-.088.291 2.751.655-.07z"/><path fill="#010101" stroke="#010101" stroke-width=".25" d="m589.164 390.165-2.121-.75.48-.45-1.891-2.018.617-.579 1.893 2.018.479-.451zM580.479 388.008l-2.004 1.022.004-.657-2.766-.018.005-.846 2.766.017.002-.659zM571.524 388.264l-1.93 1.156-.039-.657-2.762.17-.052-.845 2.761-.17-.041-.657zM562.578 389.434l-1.694 1.479-.156-.64-2.687.658-.201-.824 2.687-.656-.158-.639zM555.418 395.257l1.461 1.709-.641.15.628 2.695-.824.192-.628-2.694-.642.15zM558.281 403.892l1.954 1.113-.551.357 1.504 2.322-.711.46-1.504-2.322-.553.36zM565.227 409.554l2.23-.3-.223.619 2.604.935-.285.796-2.604-.934-.222.62zM574.014 407.84l.247-2.236.547.365 1.535-2.301.704.469-1.535 2.301.549.366zM576.737 399.17l-.569-2.176.642.146.608-2.699.826.187-.609 2.697.642.145z"/><path fill="#010101" stroke="#010101" stroke-width=".25" d="m577.41 390.167-.984-2.021.658.015.068-2.765.846.021-.068 2.766.658.015zM577.396 381.207l-1.12-1.95.658-.028-.121-2.764.845-.037.121 2.763.659-.03zM576.871 372.315l-1.121-1.951.657-.028-.12-2.764.846-.036.121 2.763.657-.03zM576.322 363.421l-1.129-1.946.658-.031-.132-2.763.845-.04.131 2.762.659-.031zM576.217 354.656l-.832-2.091.655.066.275-2.752.843.084-.275 2.752.655.064z"/><path fill="none" d="M557.981 352.737s6.526-3.537 9.196-1.699c2.67 1.831 2.854 7.259.947 8.724s-7.984 1.993-13.326 4.196c-5.344 2.2 30.115-1.995 38.129-.164 8.012 1.834 13.067-4.247 14.212-9.016 1.146-4.77-1.243-7.119-6.583-7.119s-7.248 2.932-7.248 2.932"/><path fill="#010101" stroke="#010101" stroke-width=".25" d="m593.411 350.909 1.295-1.84.304.584 2.454-1.276.391.752-2.455 1.275.305.584zM601.189 348.704l2.22-.364-.204.626 2.63.858-.263.806-2.63-.859-.203.625zM606.355 353.018l.691 2.141-.65-.109-.457 2.728-.835-.14.458-2.728-.649-.107zM602.733 360.15l-.986 2.021-.393-.527-2.219 1.649-.506-.68 2.221-1.648-.393-.529zM595.195 362.975l-2.011 1.006.009-.657-2.765-.039.01-.847 2.767.04.008-.659zM586.316 362.589l-2.027.975.02-.658-2.764-.081.024-.846 2.765.081.019-.658zM577.373 362.783l-1.977 1.073-.013-.658-2.766.053-.015-.847 2.765-.052-.013-.659zM568.459 363.23l-1.952 1.118-.027-.657-2.764.117-.036-.847 2.763-.116-.027-.658zM559.578 363.662l-1.974 1.077-.014-.658-2.766.062-.017-.847 2.764-.061-.014-.658z"/><path fill="#010101" stroke="#010101" stroke-width=".25" d="m558.787 363.613 1.643-1.538.177.634 2.663-.751.23.815-2.662.751.179.633zM567.428 360.866l.67-2.146.467.463 1.947-1.966.601.596-1.945 1.965.467.463zM568.869 351.642l-2.225-.334.386-.534-2.239-1.622.496-.685 2.24 1.623.385-.533zM559.744 351.004l-1.389 1.768-.273-.598-2.518 1.145-.349-.769 2.516-1.147-.273-.598z"/><path fill="none" d="m650.158 338.223-1.046 72.361s2.609 4.302 4.965 3.918c2.355-.373 9.739-7.07 8.356-10.711-1.382-3.638-15.127-6.365-20.898-6.793-5.773-.424-13.317-1.3-20.114.793-6.796 2.082-10.188 5.736-11.757 9.921-1.568 4.182 5.228 7.836 10.711 7.836 5.482 0 9.751-3.73 12.799-12.274 3.047-8.545 1.896-16.17.264-27.953.523-7.582 4.966-6.537 9.405-6.273 4.441.264 6.789 4.448 13.844 5.748 7.058 1.309 20.67.544 24.296-1.828 3.626-2.371 1.894-4.105-.519-8.884-.785-4.438-4.441-2.609-4.441-2.609"/><path fill="#010101" stroke="#010101" stroke-width=".25" d="m678.293 362.776 2.068.887-.508.417 1.754 2.138-.655.537-1.754-2.137-.509.418zM681.987 369.547l-.119 2.247-.567-.334-1.4 2.386-.73-.429 1.399-2.385-.567-.333zM675.629 373.664l-1.81 1.337-.102-.65-2.733.437-.132-.836 2.731-.437-.105-.65zM666.92 374.57l-2.015.999.012-.659-2.766-.049.016-.846 2.765.049.011-.658zM658.231 374.166l-2.19.513.162-.638-2.682-.68.208-.82 2.682.68.16-.64zM650.009 371.159l-2.244.154.261-.603-2.537-1.102.337-.775 2.537 1.1.262-.604zM641.397 368.176l-2.052.921.037-.658-2.762-.155.049-.846 2.761.156.037-.657zM633.597 372.275l.316 2.228-.621-.217-.915 2.61-.799-.28.914-2.611-.621-.217zM633.266 381.341l1.212 1.895-.656.06.251 2.755-.844.076-.25-2.754-.656.061zM634.014 390.074l.963 2.032-.658-.023-.099 2.765-.846-.031.099-2.763-.659-.024zM633.014 398.808l.698 2.138-.649-.106-.448 2.729-.835-.136.447-2.73-.65-.106zM630.188 406.755l-.154 2.243-.561-.342-1.438 2.364-.723-.441 1.437-2.362-.562-.342zM624.984 412.825l-1.495 1.682-.235-.614-2.582.988-.304-.789 2.583-.99-.236-.616zM617.047 414.43l-2.243.161.259-.605-2.541-1.092.334-.778 2.541 1.093.26-.605zM610.053 410.109l-.605-2.166.645.134.564-2.708.828.173-.564 2.708.645.133zM614.158 403.181l.829-2.091.432.497 2.088-1.815.556.64-2.088 1.815.432.496zM621.462 399.014l1.614-1.569.191.631 2.647-.799.245.811-2.648.798.19.632zM629.975 397.368l1.976-1.075.013.658 2.765-.055.017.846-2.765.056.013.658zM638.795 397.655l2.066-.887-.047.655 2.758.199-.06.845-2.759-.199-.046.657zM647.513 398.658l2.178-.561-.147.64 2.695.62-.189.825-2.696-.619-.146.642zM655.96 400.759l2.249-.053-.288.591 2.485 1.214-.371.76-2.485-1.212-.289.59zM661.253 405.248l.508 2.191-.637-.162-.684 2.68-.82-.209.683-2.681-.638-.161zM656.794 411.907l-1.202 1.903-.332-.57-2.387 1.398-.429-.731 2.388-1.397-.333-.568zM650.629 411.44l-1.582-1.598.629-.196-.824-2.64.808-.253.823 2.641.628-.197z"/><path fill="#010101" stroke="#010101" stroke-width=".25" d="m650.034 402.915-.973-2.027.657.019.083-2.764.846.025-.083 2.766.659.018zM650.164 394.01l-.975-2.029.658.02.083-2.765.846.026-.083 2.764.659.02zM650.292 385.103l-.975-2.029.659.02.083-2.764.845.025-.082 2.764.658.021zM650.421 376.196l-.975-2.027.658.019.083-2.764.845.025-.082 2.765.658.019zM650.55 367.289l-.975-2.027.657.019.083-2.765.847.026-.083 2.765.658.019zM650.678 358.383l-.974-2.028.657.02.083-2.764.846.025-.082 2.764.658.02zM650.807 349.477l-.975-2.029.658.02.083-2.765.847.026-.083 2.764.658.021zM650.936 340.57l-.975-2.027.658.02.083-2.765.846.025-.083 2.764.658.019z"/><path fill="none" d="M625.524 352.132s6.526-3.536 9.195-1.7c2.671 1.833 2.854 7.261.947 8.725-1.906 1.465-7.984 1.995-13.325 4.196-5.344 2.199 30.116-1.996 38.129-.164 8.011 1.833 13.067-4.246 14.213-9.017 1.144-4.77-1.244-7.119-6.584-7.119-5.341 0-7.248 2.932-7.248 2.932"/><path fill="#010101" stroke="#010101" stroke-width=".25" d="m660.955 350.303 1.295-1.84.303.584 2.455-1.276.39.75-2.454 1.277.304.584zM668.733 348.098l2.22-.364-.204.625 2.63.859-.264.804-2.629-.857-.204.625zM673.898 352.412l.692 2.142-.65-.109-.457 2.728-.836-.14.457-2.727-.648-.11zM670.276 359.544l-.987 2.022-.392-.529-2.22 1.65-.504-.68 2.22-1.65-.394-.527zM662.738 362.369l-2.011 1.007.008-.658-2.765-.038.011-.847 2.766.038.009-.657zM653.858 361.984l-2.026.974.019-.656-2.764-.083.025-.846 2.764.081.019-.658zM644.916 362.178l-1.978 1.072-.012-.658-2.766.053-.015-.847 2.765-.052-.013-.659zM636.002 362.624l-1.953 1.118-.028-.657-2.763.116-.035-.846 2.763-.116-.029-.658zM627.121 363.056l-1.975 1.078-.014-.658-2.765.061-.018-.847 2.765-.061-.015-.658z"/><path fill="#010101" stroke="#010101" stroke-width=".25" d="m626.331 363.008 1.643-1.538.177.634 2.663-.75.229.815-2.662.749.18.635zM634.971 360.26l.671-2.148.467.463 1.947-1.966.6.597-1.946 1.965.469.463zM636.411 351.035l-2.224-.334.386-.532-2.24-1.623.496-.686 2.24 1.623.386-.534zM627.287 350.398l-1.39 1.77-.272-.6-2.517 1.146-.35-.771 2.516-1.145-.273-.599z"/><g><path fill="none" d="M720.577 346.725s-1.986 58.996 1.193 63.37c3.18 4.373-10.925 5.765-14.303 5.564-3.381-.201-10.129-3.183-8.939-9.339 1.189-6.154 4.764-9.133 8.739-7.745 3.976 1.392 39.139-1.393 44.897-.399 5.761.994-19.467 20.269-18.872 15.498.595-4.769.195-65.16.195-65.16"/><path fill="#010101" stroke="#010101" stroke-width=".25" d="m732.702 350.049 1.016 2.008-.657-.007-.027 2.765-.847-.007.026-2.766-.657-.006zM732.733 358.973l1.013 2.007-.657-.006-.03 2.765-.846-.009.028-2.765-.658-.007zM732.77 367.879l1.009 2.011-.658-.009-.036 2.765-.846-.01.034-2.766-.658-.008zM732.795 376.786l1.011 2.01-.66-.008-.035 2.766-.845-.01.034-2.767-.658-.007zM732.8 385.69l1.004 2.014-.658-.011-.044 2.765-.847-.013.044-2.764-.658-.011zM732.789 394.597l.995 2.015-.657-.012-.055 2.765-.845-.016.052-2.765-.657-.013zM732.73 403.5l.99 2.021-.658-.015-.065 2.765-.846-.02.064-2.766-.658-.013zM732.229 412.556l2.064.893-.51.417 1.749 2.143-.656.535-1.749-2.143-.51.416zM740.635 411.955l1.09-1.967.365.548 2.303-1.531.468.705-2.302 1.531.365.548zM747.76 406.447l.805-2.099.437.492 2.067-1.838.563.632-2.067 1.839.438.491zM752.968 399.155l-2.15-.663.462-.469-1.97-1.942.594-.602 1.97 1.941.462-.47zM744.126 397.204l-1.983 1.063-.008-.657-2.767.039-.013-.845 2.767-.041-.011-.659z"/><path fill="#010101" stroke="#010101" stroke-width=".25" d="m735.219 397.479-1.979 1.072-.011-.658-2.766.052-.016-.846 2.766-.052-.013-.658zM726.313 397.815l-1.972 1.081-.015-.659-2.765.066-.02-.848 2.766-.063-.016-.659zM717.425 398.063l-1.992 1.047-.003-.658-2.766.018-.006-.848 2.766-.017-.005-.658zM708.517 397.823l-1.951 1.124-.029-.657-2.764.123-.037-.846 2.764-.123-.03-.658zM700.188 401.15l.004 2.249-.585-.301-1.268 2.459-.752-.389 1.268-2.458-.585-.301zM698.172 410.271l1.902 1.2-.567.332 1.398 2.386-.73.427-1.4-2.385-.567.334zM705.469 416.178l2.116-.765-.086.652 2.742.363-.11.84-2.743-.362-.085.653zM714.544 415.827l1.826-1.314.095.651 2.738-.403.121.838-2.735.402.097.651zM722.409 411.285l-1.041-1.994.657-.003-.009-2.766.846-.001.011 2.765.658-.003z"/><path fill="#010101" stroke="#010101" stroke-width=".25" d="m721.327 402.452-1.091-1.968.659-.018-.078-2.766.846-.022.078 2.764.658-.018zM720.913 393.57l-1.052-1.988.659-.006-.024-2.766.846-.006.024 2.765.658-.006zM720.828 384.68l-1.013-2.01.658.008.031-2.766.847.01-.032 2.766.659.005zM720.806 375.787l-.977-2.027.658.019.08-2.765.846.025-.08 2.764.658.019zM720.926 366.881l-.975-2.027.656.019.082-2.766.845.026-.079 2.763.657.019zM721.092 357.982l-.955-2.036.657.026.108-2.764.846.033-.108 2.765.658.024zM721.316 349.083l-.942-2.043.657.031.126-2.763.846.039-.125 2.762.657.03z"/><g><path fill="none" d="M702.666 355.096s6.527-3.537 9.196-1.7c2.669 1.833 2.853 7.26.947 8.725-1.906 1.465-7.984 1.993-13.327 4.196-5.342 2.2 30.117-1.995 38.131-.163 8.011 1.832 13.067-4.247 14.212-9.016 1.144-4.771-1.244-7.12-6.585-7.12-5.338 0-7.246 2.933-7.246 2.933"/><path fill="#010101" stroke="#010101" stroke-width=".25" d="m738.098 353.269 1.295-1.841.303.585 2.454-1.278.391.752-2.454 1.276.304.584zM745.876 351.064l2.22-.365-.204.626 2.629.859-.262.803-2.63-.857-.203.627zM751.04 355.379l.69 2.14-.648-.108-.457 2.728-.835-.14.457-2.728-.65-.109zM747.418 362.51l-.988 2.021-.391-.528-2.222 1.649-.504-.68 2.22-1.65-.392-.528zM739.879 365.333l-2.012 1.008.009-.658-2.765-.039.011-.846 2.767.038.007-.658zM731 364.948l-2.027.975.019-.657-2.764-.082.025-.846 2.764.081.019-.658zM722.056 365.142l-1.977 1.073-.013-.657-2.765.051-.016-.845 2.765-.054-.013-.659zM713.142 365.589l-1.953 1.118-.027-.657-2.764.116-.035-.846 2.764-.116-.028-.658zM704.262 366.021l-1.974 1.078-.016-.659-2.764.061-.019-.847 2.766-.059-.015-.659z"/><path fill="#010101" stroke="#010101" stroke-width=".25" d="m703.474 365.972 1.641-1.538.179.632 2.663-.749.229.815-2.663.751.18.633zM712.113 363.225l.67-2.148.468.463 1.946-1.966.602.597-1.946 1.965.467.463zM713.554 354l-2.225-.334.387-.533-2.24-1.623.496-.686 2.24 1.623.386-.533zM704.43 353.362l-1.389 1.77-.272-.599-2.519 1.146-.351-.771 2.519-1.145-.274-.599z"/></g></g><g><path fill="none" d="M18.224 354.17s5.627-3.05 7.929-1.467c2.301 1.58 2.459 6.259.817 7.522-1.644 1.263-6.884 1.718-11.491 3.617-4.604 1.897 25.966-1.722 32.874-.14 6.908 1.58 11.266-3.664 12.253-7.773.987-4.112-1.072-6.139-5.677-6.139-4.602 0-6.247 2.527-6.247 2.527"/><path fill="#010101" stroke="#010101" stroke-width=".25" d="m48.771 352.593 1.117-1.586.261.503 2.116-1.1.337.649-2.116 1.099.262.504zM55.477 350.693l1.914-.314-.177.539 2.267.74-.226.695-2.267-.74-.175.539zM59.929 354.413l.595 1.847-.559-.095-.395 2.352-.719-.121.393-2.351-.559-.094zM56.806 360.561l-.851 1.743-.338-.455-1.915 1.422-.435-.586 1.915-1.423-.34-.455zM50.306 362.996l-1.734.868.008-.567-2.385-.033.011-.731 2.384.033.007-.568zM42.651 362.663l-1.748.841.017-.567-2.383-.072.021-.728 2.383.07.017-.567zM34.941 362.83l-1.705.926-.011-.568-2.384.044-.013-.729 2.383-.045-.011-.567zM27.255 363.216l-1.682.964-.024-.567-2.382.1-.032-.729 2.383-.1-.024-.568zM19.6 363.588l-1.703.93-.012-.567-2.384.052-.016-.73 2.384-.052-.013-.569z"/><path fill="#010101" stroke="#010101" stroke-width=".25" d="m18.92 363.546 1.415-1.325.154.545 2.296-.647.197.703-2.294.647.154.546zM26.369 361.178l.578-1.852.403.4 1.678-1.695.519.514-1.678 1.694.403.399zM27.61 353.225l-1.918-.287.333-.46-1.931-1.4.427-.591 1.933 1.4.332-.461zM19.744 352.675l-1.198 1.525-.234-.516-2.171.988-.302-.664 2.17-.988-.236-.516z"/></g><g><path fill="none" d="M90.541 329.521s-15.628 8.721-15.092 17.25c.534 8.525 2.243 17.461 8.083 16.167 2.25-1.153 5.012-2.671 7.009-4.313 3.108-4.435 5.539-7.485 2.272-10.345-2.421-2.117-11.846 4.494-11.846 4.494"/><path fill="#010101" stroke="#010101" stroke-width=".25" d="m85.727 350.791 1.152-1.561.251.51 2.141-1.051.321.656-2.141 1.051.25.509zM91.268 349.487l1.914.314-.338.455 1.912 1.425-.437.585-1.913-1.425-.338.456zM92.011 354.885l-.168 1.933-.48-.304-1.276 2.014-.616-.39 1.276-2.015-.48-.303zM87.005 359.98l-1.026 1.647-.289-.488-2.05 1.218-.372-.627 2.049-1.218-.291-.489zM80.776 361.847l-1.845-.596.403-.399-1.678-1.696.519-.511 1.678 1.693.403-.4zM77.5 355.5l-1.271-1.465.55-.134-.56-2.317.71-.172.56 2.317.552-.133zM76.156 348.209l-.685-1.814.562.066.279-2.369.724.086-.277 2.368.564.065zM78.314 341.322l.153-1.933.481.3 1.26-2.025.62.386-1.26 2.024.482.3zM83.188 335.745l.724-1.8.369.432 1.809-1.557.475.554-1.807 1.556.371.429zM89.192 331.172l1.026-1.647.289.489 2.051-1.217.373.627-2.051 1.217.29.488z"/></g><g><path fill="none" d="m83.849 369.351-6.517 11.997"/><path fill="#010101" stroke="#010101" stroke-width=".25" d="m79.019 379.601-.273-1.179.536.115.789-1.381.688.149-.788 1.381.535.114zM81.447 375.13l-.271-1.179.535.115.789-1.38.688.147-.789 1.381.536.115zM83.875 370.658l-.271-1.179.535.117.79-1.381.687.148-.788 1.38.535.115z"/></g><g><path fill="none" d="M367.437 350.889c2.72 0 12.24.451 12.694 4.988.454 4.535-9.975 5.898-12.694 6.801-2.721.907-8.615 2.265-5.441-3.63 3.172-5.892 2.72-8.159 5.441-8.159zm0 0s16.774 5.896 22.671 4.988c5.897-.91 15.42-3.629 20.407-1.361 4.986 2.269-16.779 14.507-16.779 14.507l-1.358-51.235"/><path fill="#010101" stroke="#010101" stroke-width=".25" d="m391.713 319.115.91 1.712-.567.007.026 2.385-.729.008-.027-2.385-.567.007zM391.916 326.792l.911 1.712-.567.006.026 2.385-.729.007-.027-2.383-.567.006zM392.119 334.469l.911 1.713-.567.006.026 2.384-.729.008-.026-2.385-.568.007zM392.324 342.146l.91 1.711-.567.006.026 2.386-.729.008-.026-2.384-.568.006zM392.526 349.822l.912 1.713-.568.006.026 2.385-.729.008-.027-2.385-.567.008zM392.73 357.5l.911 1.712-.567.006.027 2.385-.73.007-.027-2.384-.568.006zM392.934 365.176l.911 1.713-.568.006.027 2.384-.73.008-.026-2.385-.568.008zM397.384 367.674l1.021-1.649.292.488 2.047-1.222.374.627-2.048 1.222.291.487zM403.86 363.48l.929-1.703.317.471 1.976-1.335.409.606-1.976 1.335.318.468zM410.586 358.757l-.177-1.932.527.214.898-2.208.677.274-.9 2.209.527.213zM407.095 353.336l-1.839.619.087-.56-2.358-.364.113-.721 2.356.363.086-.561zM399.296 353.602l-1.611 1.081-.064-.564-2.369.269-.083-.726 2.37-.268-.064-.564zM391.798 355.041l-1.682.967-.024-.568-2.383.103-.031-.729 2.382-.103-.026-.567zM384.307 354.648l-1.844.601.092-.56-2.353-.386.119-.721 2.353.387.092-.561zM376.891 353.027l-1.901.387.155-.545-2.294-.65.199-.703 2.294.65.154-.546zM369.568 350.864l-1.92.271.188-.535-2.249-.792.241-.689 2.25.791.188-.535zM365.48 351.053l-.427 1.891-.434-.366-1.536 1.824-.559-.469 1.538-1.825-.435-.365zM361.739 357.988l.324 1.912-.541-.173-.728 2.271-.695-.224.728-2.27-.54-.172zM364.198 363.658l1.738-.863-.01.566 2.385.041-.012.73-2.385-.04-.01.568zM371.896 362.203l1.403-1.339.159.544 2.289-.668.204.7-2.289.669.16.545zM379.001 358.729l.278-1.918.462.33 1.39-1.938.594.426-1.391 1.937.462.331z"/><path fill="#010101" stroke="#010101" stroke-width=".25" d="m377.128 351.814-1.898.406.151-.548-2.3-.631.193-.703 2.3.63.151-.548zM369.491 350.32l-1.788.752.045-.565-2.376-.191.058-.728 2.377.191.045-.566z"/></g><g><path fill="none" d="M380.738 367.113c-3.44-.92-5.561 11.441-5.519 15.985.043 4.544 8.438 5.204 9.253-3.883.663-7.365-.293-11.185-3.734-12.102z"/><path fill="#010101" stroke="#010101" stroke-width=".25" d="m379.521 366.654 1.201.243-.201.467 1.228 1.355-.259.599-1.227-1.352-.201.468zM383.187 370.615l1.009 1.073-.31.275.724 2.086-.4.353-.723-2.084-.31.276zM384.186 377.5l.285 1.885-.346-.136-.354 2.316-.443-.173.355-2.317-.345-.134zM382.352 383.755l-.81 1.44-.125-.53-1.396.839-.161-.684 1.396-.839-.125-.531zM377.999 385.262l-1.142.648.048-.562-1.477-.325.062-.722 1.477.324.048-.562zM375.861 381.148l-.36-1.852.349.1.262-2.348.449.128-.262 2.347.349.1zM377.104 373.979l-.056-1.938.322.236.623-2.166.414.305-.623 2.168.323.236z"/><path fill="#010101" stroke="#010101" stroke-width=".25" d="m379.864 368.722.672-1.615.171.497 1.304-1.155.221.638-1.304 1.155.173.496z"/></g><g><path fill="none" d="M205.43 349.347c1.904.383 4.951 8.38 4.951 8.38"/><path fill="#010101" stroke="#010101" stroke-width=".25" d="m210.974 357.33-1.462-1.275.528-.207-.875-2.22.68-.267.874 2.218.529-.209zM207.302 350.366l-1.808-.702.426-.375-1.576-1.79.547-.482 1.577 1.79.425-.377z"/><g><path fill="none" d="M210.05 347.975s5.718-4.108 8.103.443c2.384 4.549 1.712 6.268-.889 8.435s-4.771 3.774-4.771 3.774"/><path fill="#010101" stroke="#010101" stroke-width=".25" d="m212.5 361.5.856-1.74.336.457 1.92-1.416.433.588-1.919 1.416.338.455zM218.45 356.372l.281-1.919.46.331 1.394-1.935.593.426-1.394 1.936.462.33zM218.729 348.854l-1.716-.905.466-.324-1.364-1.956.599-.417 1.363 1.957.466-.325zM211.452 346.369l-1.079 1.611-.273-.497-2.089 1.15-.353-.639 2.089-1.15-.274-.497z"/></g></g><g><path fill="none" d="M202.358 371.421s6.43-4.142 8.348-1.104c1.917 3.038 1.705 6.044-7.107 10.353-8.127 3.976-4.512-8.281-2.257-8.281"/><path fill="#010101" stroke="#010101" stroke-width=".25" d="m198.443 375.838.382 1.901-.546-.157-.658 2.292-.701-.202.658-2.291-.546-.156zM202.202 381.804l1.362-1.38.176.539 2.268-.736.225.695-2.268.736.177.539zM209.243 378.088l.569-1.856.404.398 1.669-1.704.521.512-1.669 1.703.407.396zM211.387 370.85l-1.828-.649.414-.387-1.63-1.74.532-.5 1.63 1.74.414-.387zM203.782 369.834l-1.1 1.598-.267-.5-2.104 1.121-.344-.645 2.104-1.121-.267-.501z"/></g><g><path fill="none" d="M167.828 346.614c14.71 3.528 4.566 17.501-2.092 16.646"/><path fill="#010101" stroke="#010101" stroke-width=".25" d="m166.58 363.766 1.469-1.266.132.552 2.319-.552.168.711-2.319.551.132.552zM173.42 359.854l.26-1.921.465.326 1.371-1.95.595.42-1.371 1.95.466.326zM175.45 352.268l-1.363-1.38.542-.169-.709-2.276.696-.217.709 2.276.542-.17zM169.937 346.926l-1.939-.037.27-.498-2.097-1.137.349-.642 2.095 1.136.27-.498z"/></g><g><path fill="none" d="M161.391 374.29s6.43-4.14 8.349-1.103c1.917 3.038 1.704 6.044-7.107 10.352-8.128 3.977-4.513-8.28-2.258-8.28"/><path fill="#010101" stroke="#010101" stroke-width=".25" d="m157.476 378.707.381 1.902-.544-.158-.66 2.293-.701-.201.658-2.293-.545-.156zM161.233 384.674l1.364-1.38.174.54 2.269-.736.226.694-2.269.736.176.54zM168.275 380.958l.568-1.854.405.397 1.669-1.704.521.511-1.668 1.704.406.396zM170.42 373.719l-1.829-.647.414-.387-1.629-1.742.532-.498 1.63 1.741.414-.389zM162.814 372.703l-1.099 1.598-.267-.501-2.104 1.122-.344-.645 2.105-1.122-.268-.5z"/></g><g><path fill="none" d="M39.999 364.631c-5.47-1.112-9.745 12.751-9.992 17.867-.248 5.115 13.208 6.047 15.154-4.162 1.579-8.277.308-12.596-5.162-13.705z"/><path fill="#010101" stroke="#010101" stroke-width=".25" d="m41.684 366.867 1.897.406-.361.438 1.842 1.515-.464.563-1.842-1.515-.36.439zM44.5 372.5l.854 1.742-.567-.013-.053 2.384-.73-.015.053-2.385-.568-.012zM43.64 379.598l-.105 1.936-.489-.288-1.21 2.056-.629-.37 1.21-2.055-.49-.289zM38.898 384.518l-1.27 1.464-.21-.527-2.216.881-.269-.678 2.215-.881-.21-.527zM32.433 384.838l-1.689-.952.475-.311-1.305-1.997.611-.398 1.305 1.996.475-.311zM31.472 378.373l-.402-1.898.547.152.635-2.299.704.193-.635 2.3.547.15zM33.824 371.301l.186-1.931.476.308 1.295-2.002.613.396-1.294 2.002.476.308zM38.412 366.052l1.267-1.468.211.527 2.214-.885.271.676-2.214.887.211.526z"/></g><g><path fill="none" d="M439.091 330.168s-15.626 8.723-15.091 17.25c.533 8.527 2.244 17.461 8.084 16.168 2.25-1.154 5.011-2.672 7.007-4.313 3.108-4.436 5.406-6.414 1.73-12.134-1.74-2.705-10.62 6.536-10.62 6.536"/><path fill="#010101" stroke="#010101" stroke-width=".25" d="m430.309 354.555.624-1.836.394.408 1.718-1.651.506.526-1.719 1.652.394.409zM435.92 349.527l.966-1.681.307.478 2.006-1.289.394.612-2.006 1.291.308.477zM440.84 349.076l1.448 1.291-.53.202.849 2.228-.683.261-.848-2.228-.531.201zM440.759 355.615l-.271 1.922-.462-.33-1.382 1.943-.595-.422 1.382-1.943-.463-.329zM435.556 360.629l-1.025 1.646-.289-.488-2.051 1.219-.373-.627 2.05-1.219-.29-.488zM429.328 362.494l-1.846-.596.404-.399-1.678-1.694.519-.514 1.677 1.694.403-.399zM426.051 356.146l-1.271-1.463.552-.134-.561-2.317.709-.171.561 2.316.551-.133zM424.708 348.856l-.686-1.813.563.065.278-2.368.724.085-.277 2.368.564.065zM426.865 341.97l.152-1.934.482.3 1.26-2.023.619.384-1.259 2.026.482.298zM431.739 336.393l.723-1.799.371.429 1.807-1.554.477.552-1.808 1.556.37.43zM437.743 331.818l1.025-1.646.29.488 2.05-1.218.373.628-2.051 1.218.29.487z"/><g><path fill="none" d="M467.133 347.627s6.221-5.07 10.21-1.695c5.048 4.27 4.791 16.352-8.692 15.913-11.661-.38-3.67-14.214-.909-14.214"/><path fill="#010101" stroke="#010101" stroke-width=".25" d="m468.123 346.418-.799 1.768-.352-.448-1.873 1.479-.452-.573 1.872-1.478-.352-.445zM463.075 352.371l.032 1.939-.508-.252-1.06 2.135-.655-.325 1.062-2.136-.509-.252zM463.529 360.369l1.935-.098-.234.516 2.17.988-.303.664-2.17-.988-.235.518zM471.14 362.015l1.51-1.218.113.557 2.337-.475.146.715-2.337.474.114.557zM478.278 358.9l.394-1.898.441.358 1.505-1.85.565.461-1.505 1.849.442.358zM480.834 351.408l-1.294-1.443.548-.143-.597-2.308.706-.183.598 2.308.549-.143zM476.242 344.949l-1.89.436.142-.549-2.311-.592.182-.707 2.309.592.141-.551z"/><path fill="#010101" stroke="#010101" stroke-width=".25" d="m468.41 345.92-.954 1.688-.31-.473-1.997 1.303-.399-.612 1.997-1.303-.311-.475z"/></g></g><g><path fill="none" d="m434.868 364.236 36.21 1.066"/><path fill="#010101" stroke="#010101" stroke-width=".25" d="m467.606 364.5-1.761.813.025-.567-2.382-.107.033-.729 2.382.108.024-.568zM459.929 364.273l-1.76.815.025-.567-2.382-.107.033-.729 2.382.106.024-.566zM452.252 364.049l-1.76.813.026-.567-2.383-.107.033-.729 2.383.107.025-.567zM444.577 363.822l-1.761.814.025-.567-2.382-.107.033-.73 2.383.108.024-.567zM436.9 363.596l-1.76.814.026-.566-2.382-.108.032-.728 2.382.105.025-.566z"/></g><g><path fill="none" d="M446.039 373.54s6.431-4.14 8.348-1.103c1.918 3.039 1.705 6.043-7.106 10.352-8.127 3.977-4.514-8.28-2.257-8.28"/><path fill="#010101" stroke="#010101" stroke-width=".25" d="m442.125 377.956.381 1.901-.546-.156-.659 2.291-.701-.201.659-2.292-.546-.157zM445.881 383.924l1.364-1.379.174.539 2.268-.736.226.695-2.268.734.176.541zM452.923 380.209l.569-1.855.405.398 1.668-1.705.521.512-1.669 1.703.407.396zM455.067 372.969l-1.828-.647.414-.388-1.631-1.741.532-.498 1.631 1.741.414-.389zM447.462 371.954l-1.1 1.598-.267-.501-2.104 1.121-.343-.645 2.103-1.121-.266-.501z"/></g><g><path fill="none" d="M495.699 352.739s6.221-4.239 10.209-1.419c5.049 3.574 4.791 13.68-8.691 13.313-11.662-.319-3.67-11.89-.91-11.89"/><path fill="#010101" stroke="#010101" stroke-width=".25" d="m493.873 353.695-.543 1.864-.41-.393-1.645 1.727-.529-.503 1.645-1.728-.411-.391zM490.189 361.558l1.749.839-.454.341 1.434 1.906-.582.438-1.434-1.904-.455.342zM497.217 364.781l1.804-.717-.058.566 2.373.238-.072.726-2.373-.238-.055.565zM504.838 363.408l1.111-1.59.264.502 2.111-1.106.34.645-2.113 1.108.263.502zM509.244 357.064l-.84-1.748.569.017.07-2.383.73.021-.072 2.384.569.016zM504.994 350.424l-1.873.508.121-.555-2.332-.505.156-.714 2.33.506.12-.555zM497.109 351.14l-1.086 1.607-.271-.499-2.096 1.141-.347-.641 2.093-1.141-.271-.498z"/><g><path fill="none" d="M509.678 364.404c4.977-.208 13.471-.482 20.379 1.098 6.906 1.58 11.266-3.662 12.252-7.773.986-4.113-1.072-6.139-5.676-6.139"/><path fill="#010101" stroke="#010101" stroke-width=".25" d="m534.646 351.707 1.915-.312-.176.539 2.265.74-.224.693-2.268-.74-.176.54zM540.98 353.872l1.129 1.576-.56.081.342 2.361-.723.104-.342-2.359-.562.082zM540.18 360.527l-.434 1.889-.433-.366-1.543 1.817-.557-.472 1.545-1.818-.434-.367zM534.605 364.5l-1.673.977-.03-.567-2.381.121-.037-.728 2.381-.121-.029-.567zM527.08 364.465l-1.822.667.072-.564-2.365-.3.092-.724 2.365.301.072-.563zM519.402 363.705l-1.775.779.037-.566-2.381-.154.047-.729 2.381.154.035-.566zM511.684 363.68l-1.725.886.002-.567-2.387-.007.004-.729 2.385.006v-.568z"/></g></g><g><path fill="none" d="M511 372.809s6.432-4.141 8.35-1.104c1.916 3.039 1.703 6.045-7.107 10.354-8.127 3.977-4.514-8.282-2.258-8.282"/><path fill="#010101" stroke="#010101" stroke-width=".25" d="m507.086 377.228.381 1.901-.545-.156-.658 2.291-.703-.201.66-2.292-.547-.157zM510.846 383.192l1.361-1.38.176.54 2.267-.737.227.695-2.268.737.176.539zM517.887 379.475l.568-1.855.404.398 1.668-1.705.522.511-1.668 1.704.406.398zM520.029 372.236l-1.828-.646.414-.389-1.631-1.74.534-.498 1.628 1.74.415-.389zM512.424 371.223l-1.1 1.597-.267-.5-2.104 1.121-.344-.644 2.106-1.121-.268-.502z"/></g><g><path fill="none" d="M770.053 351.89s6.541-4.458 10.735-1.491c5.308 3.757 5.038 14.383-9.139 13.997-12.262-.333-3.858-12.502-.959-12.502"/><path fill="#010101" stroke="#010101" stroke-width=".25" d="m768.134 352.896-.571 1.957-.432-.412-1.73 1.817-.555-.53 1.73-1.817-.432-.409zM764.26 361.162l1.838.883-.476.359 1.507 2.003-.612.462-1.509-2.005-.476.361zM771.65 364.552l1.896-.753-.061.593 2.496.25-.077.764-2.495-.251-.058.594zM779.662 363.107l1.168-1.671.278.528 2.221-1.164.357.679-2.222 1.165.278.529zM784.298 356.438l-.884-1.838.596.017.074-2.506.768.023-.075 2.507.596.016zM779.826 349.456l-1.968.533.125-.583-2.45-.532.163-.749 2.45.53.126-.583zM771.534 350.208l-1.14 1.689-.286-.524-2.203 1.199-.366-.673 2.202-1.2-.286-.523z"/><g><path fill="none" d="M784.752 364.152c5.232-.217 14.162-.506 21.424 1.157 7.265 1.66 11.849-3.852 12.887-8.174 1.036-4.324-1.127-6.456-5.969-6.456"/><path fill="#010101" stroke="#010101" stroke-width=".25" d="m811.007 350.803 2.013-.329-.186.567 2.384.778-.239.729-2.382-.777-.186.567zM817.664 353.081l1.189 1.657-.59.085.36 2.482-.76.11-.36-2.481-.59.086zM816.823 360.077l-.456 1.988-.455-.385-1.623 1.911-.586-.497 1.623-1.911-.455-.387zM810.962 364.255l-1.762 1.028-.029-.595-2.504.126-.039-.765 2.504-.127-.03-.597zM803.049 364.219l-1.915.702.075-.592-2.487-.317.096-.762 2.489.317.073-.592zM794.977 363.42l-1.869.819.039-.594-2.501-.164.049-.766 2.503.163.037-.596zM786.86 363.391l-1.813.933.001-.596-2.507-.007.002-.768 2.507.006.001-.597z"/></g></g><g><path fill="none" d="M792.615 352.803s-7.379 49.163-5.761 56.547c1.62 7.381-18.732 6.478-23.772-1.803-5.041-8.281 20.528-12.423 20.528-12.423s19.137-4.306 20.17-.363c1.802 6.844 3.962 10.809 0 11.888-3.96 1.077-3.42-2.702-2.879-7.024 2.701-18.909 3.419-43.579 3.419-43.579"/><path fill="#010101" stroke="#010101" stroke-width=".25" d="m803.522 358.125.828 1.864-.596-.036-.15 2.503-.766-.046.149-2.502-.595-.035zM803.122 366.186l.815 1.87-.595-.04-.168 2.502-.766-.052.168-2.502-.596-.04zM802.627 374.228l.772 1.887-.594-.053-.226 2.497-.764-.07.225-2.497-.595-.053zM802.028 382.28l.772 1.888-.594-.055-.226 2.498-.764-.068.225-2.498-.594-.053zM801.219 390.284l.698 1.916-.592-.075-.32 2.486-.762-.099.32-2.487-.591-.075zM800.296 398.33l.764 1.892-.595-.056-.236 2.496-.764-.072.236-2.496-.595-.056zM801.504 406.38l2.039-.038-.266.535 2.248 1.111-.34.687-2.247-1.111-.265.536zM806.312 401.56l-1.253-1.61.587-.108-.458-2.465.753-.141.459 2.465.586-.109z"/><path fill="#010101" stroke="#010101" stroke-width=".25" d="m803.267 393.726-2.038.085.251-.541-2.272-1.061.325-.695 2.273 1.058.251-.54zM795.082 392.561l-1.726 1.088-.05-.594-2.498.212-.065-.765 2.497-.212-.05-.595zM787.037 393.726l-1.635 1.218-.096-.589-2.475.406-.124-.757 2.474-.405-.096-.59zM779.079 395.334l-1.555 1.319-.133-.581-2.444.561-.173-.748 2.445-.561-.135-.581zM771.277 397.665l-1.402 1.48-.196-.563-2.369.823-.251-.724 2.368-.825-.197-.563zM763.615 401.468l-.068 2.039-.52-.292-1.229 2.185-.669-.376 1.228-2.186-.521-.292zM764.261 409.419l1.996.422-.378.462 1.939 1.588-.486.593-1.939-1.588-.377.463zM771.334 413.63l1.985-.467-.145.578 2.43.615-.188.745-2.431-.615-.145.578zM779.497 414.783l1.684-1.15.071.593 2.489-.305.093.761-2.488.305.073.592zM787.029 411.199l-.424-1.995.576.158.665-2.417.74.204-.666 2.417.576.158zM787.528 403.036l-.853-1.852.596.027.115-2.504.767.035-.115 2.505.595.026zM788.073 395.019l-.759-1.893.594.058.242-2.496.764.074-.241 2.496.594.057zM788.873 387.01l-.695-1.917.591.076.323-2.486.761.099-.324 2.487.592.075zM789.798 378.994l-.681-1.923.59.081.346-2.483.759.106-.344 2.484.592.081zM790.828 370.991l-.666-1.928.59.086.365-2.481.759.112-.363 2.482.59.086zM791.902 362.995l-.646-1.933.59.092.387-2.478.758.12-.387 2.476.589.092zM793.036 355.005l-.636-1.938.591.095.401-2.474.757.123-.401 2.474.589.096z"/></g><g><path fill="none" d="M848.004 347.306s5.218-2.942 7.351-1.414c2.136 1.522 2.282 6.035.758 7.253-1.523 1.217-7.703 3.222-11.973 5.051-10.514 4.505 34.703 1.041 44.418 1.735"/><path fill="#010101" stroke="#010101" stroke-width=".25" d="m882.481 359.107-1.9.971.004-.624-2.622-.015.005-.801 2.621.014.004-.625zM874.023 359.303l-1.88 1.005-.009-.624-2.621.032-.011-.803 2.623-.033-.009-.622zM865.581 359.536l-1.882 1.003-.008-.623-2.622.03-.008-.801 2.622-.032-.009-.624zM857.16 359.724l-1.909.952.01-.624-2.622-.04.012-.803 2.622.039.008-.624zM848.77 359.588l-1.96.842.044-.622-2.615-.19.058-.801 2.616.189.045-.622z"/><path fill="#010101" stroke="#010101" stroke-width=".25" d="m845.217 358.6 1.429-1.583.218.583 2.455-.921.283.752-2.456.921.219.584zM853.078 355.397l1.332-1.665.253.571 2.397-1.066.326.734-2.397 1.065.254.57zM857.337 348.315l-1.67-1.326.569-.255-1.075-2.392.732-.33 1.075 2.392.569-.256zM849.714 345.702l-1.358 1.646-.244-.575-2.412 1.03-.314-.739 2.412-1.029-.246-.574z"/></g><g><path fill="none" d="M895.957 323.962s-17.186 9.591-16.597 18.969c.587 9.379 2.467 19.203 8.89 17.781 2.476-1.27 5.511-2.939 7.707-4.742 3.418-4.879 6.092-8.233 2.5-11.377-2.663-2.328-13.027 4.941-13.027 4.941"/><path fill="#010101" stroke="#010101" stroke-width=".25" d="m890.662 347.351 1.27-1.714.274.559 2.354-1.156.353.723-2.352 1.154.275.562zM896.758 345.918l2.104.346-.373.5 2.104 1.566-.48.644-2.102-1.567-.373.501zM897.573 351.855l-.185 2.125-.526-.334-1.404 2.215-.678-.429 1.404-2.216-.528-.333zM892.069 357.459l-1.128 1.811-.318-.537-2.255 1.34-.409-.69 2.255-1.34-.32-.536zM885.219 359.512l-2.029-.657.443-.438-1.845-1.863.57-.565 1.845 1.864.443-.44zM881.616 352.531l-1.398-1.61.605-.147-.616-2.549.779-.188.618 2.548.607-.147zM880.139 344.513l-.755-1.994.619.072.305-2.605.798.093-.305 2.605.62.072zM882.511 336.939l.168-2.126.529.332 1.387-2.228.68.425-1.385 2.225.53.33zM887.871 330.807l.797-1.979.405.473 1.99-1.71.523.609-1.988 1.71.407.473zM894.474 325.778l1.128-1.811.318.536 2.255-1.338.41.689-2.255 1.34.318.535z"/></g><g><path fill="none" d="M864.128 349.899s-7.718 51.418-6.025 59.141c1.693 7.721-19.592 6.774-24.863-1.886-5.271-8.661 21.471-12.993 21.471-12.993s20.013-4.501 21.097-.379c1.882 7.157 4.142 11.305 0 12.432-4.144 1.129-3.579-2.825-3.013-7.347 2.824-19.776 3.576-45.579 3.576-45.579"/><path fill="#010101" stroke="#010101" stroke-width=".25" d="m875.534 355.465.866 1.948-.623-.038-.157 2.619-.802-.049.158-2.617-.623-.037zM875.116 363.894l.853 1.956-.623-.042-.176 2.616-.8-.054.175-2.616-.623-.041zM874.598 372.305l.807 1.974-.621-.054-.235 2.61-.799-.072.233-2.612-.621-.055zM873.971 380.727l.809 1.974-.622-.055-.236 2.611-.799-.072.234-2.612-.622-.055zM873.124 389.1l.732 2.004-.619-.082-.336 2.602-.796-.103.335-2.601-.618-.078zM872.161 397.515l.798 1.977-.621-.058-.248 2.611-.799-.076.247-2.612-.621-.057zM873.423 405.934l2.132-.041-.277.56 2.351 1.162-.355.72-2.351-1.161-.277.558zM878.453 400.894l-1.31-1.683.612-.114-.479-2.577.789-.148.48 2.578.613-.114z"/><path fill="#010101" stroke="#010101" stroke-width=".25" d="m875.268 392.698-2.131.089.263-.566-2.377-1.108.34-.726 2.377 1.107.263-.566zM866.708 391.481l-1.805 1.138-.052-.622-2.614.222-.067-.8 2.613-.222-.054-.622zM858.295 392.699l-1.711 1.274-.101-.616-2.587.425-.13-.793 2.588-.424-.102-.616zM849.972 394.381l-1.626 1.38-.14-.608-2.556.587-.18-.782 2.556-.587-.14-.608zM841.812 396.818l-1.468 1.549-.205-.591-2.478.864-.263-.759 2.477-.862-.205-.589zM833.799 400.797l-.073 2.132-.544-.306-1.286 2.285-.699-.393 1.285-2.286-.544-.305zM834.472 409.113l2.086.441-.395.482 2.029 1.661-.508.621-2.03-1.661-.394.484zM841.869 413.517l2.076-.488-.152.605 2.542.642-.196.778-2.543-.642-.153.606zM850.405 414.724l1.761-1.203.076.618 2.604-.318.096.797-2.603.319.077.619zM858.285 410.976l-.443-2.087.601.166.697-2.53.773.214-.695 2.529.601.165zM858.807 402.438l-.893-1.938.624.029.119-2.619.802.037-.12 2.619.624.029zM859.378 394.053l-.795-1.98.621.06.253-2.611.799.078-.251 2.61.62.061zM860.214 385.675l-.729-2.004.619.08.338-2.601.796.105-.339 2.599.621.081zM861.181 377.293l-.713-2.012.618.086.359-2.597.795.11-.359 2.597.619.086zM862.258 368.923l-.696-2.017.617.09.381-2.595.794.117-.38 2.595.617.09zM863.382 360.56l-.676-2.024.616.098.406-2.592.793.124-.406 2.592.616.095zM864.566 352.201l-.664-2.025.617.098.42-2.587.793.128-.421 2.588.616.101z"/></g><g><path fill="none" d="M918.575 348.649c1.966.395 8.711 14.607 8.711 14.607"/><path fill="#010101" stroke="#010101" stroke-width=".25" d="m928.304 363.698-1.587-1.219.53-.248-1.043-2.23.683-.319 1.042 2.23.53-.25zM924.725 356.59l-1.643-1.144.518-.272-1.148-2.178.667-.351 1.148 2.177.517-.273zM920.499 349.717l-1.86-.739.443-.383-1.613-1.861.57-.494 1.612 1.86.443-.383z"/><g><path fill="none" d="M923.344 347.231s5.901-4.239 8.363.458c2.458 4.697 1.766 6.469-.918 8.707-2.684 2.235-4.926 3.895-4.926 3.895"/><path fill="#010101" stroke="#010101" stroke-width=".25" d="m925.872 361.193.884-1.797.348.473 1.98-1.46.446.606-1.979 1.46.347.471zM932.014 355.901l.289-1.981.475.341 1.438-1.997.611.439-1.436 1.998.476.342zM932.301 348.139l-1.771-.932.481-.334-1.407-2.02.619-.431 1.406 2.019.481-.334zM924.79 345.574l-1.112 1.663-.282-.512-2.158 1.186-.362-.659 2.156-1.188-.283-.512z"/></g><g><path fill="none" d="m928.194 360.9 37.372 1.1"/><path fill="#010101" stroke="#010101" stroke-width=".25" d="m961.983 361.172-1.816.842.025-.586-2.458-.111.035-.753 2.459.111.025-.585zM954.062 360.94l-1.818.84.026-.585-2.458-.11.034-.753 2.458.11.026-.586zM946.139 360.707l-1.819.84.027-.584-2.459-.111.034-.753 2.458.11.026-.585zM938.216 360.475l-1.819.838.027-.584-2.459-.111.034-.752 2.459.11.025-.586zM930.293 360.24l-1.818.841.026-.585-2.459-.111.033-.752 2.461.11.024-.586z"/></g><g><path fill="none" d="M971.895 326.575s-16.13 9.001-15.578 17.804c.553 8.8 2.316 18.022 8.345 16.688 2.321-1.191 5.172-2.758 7.233-4.452 3.209-4.576 5.719-7.726 2.345-10.679-2.498-2.185-12.224 4.64-12.224 4.64"/><path fill="#010101" stroke="#010101" stroke-width=".25" d="m966.927 348.524 1.19-1.608.258.525 2.209-1.084.332.677-2.209 1.084.258.526zM972.646 347.183l1.975.323-.35.471 1.974 1.469-.45.604-1.975-1.47-.348.471zM973.411 352.754l-.174 1.995-.494-.314-1.317 2.08-.637-.404 1.317-2.08-.495-.312zM968.244 358.014l-1.058 1.699-.299-.504-2.116 1.259-.384-.649 2.116-1.256-.301-.504zM961.816 359.94l-1.905-.616.416-.411-1.731-1.75.535-.53 1.732 1.75.415-.414zM958.435 353.388l-1.313-1.511.569-.139-.579-2.391.731-.178.581 2.393.568-.139zM957.046 345.863l-.706-1.873.58.068.287-2.444.748.087-.286 2.445.583.068zM959.272 338.755l.159-1.996.498.309 1.3-2.089.639.399-1.301 2.089.497.309zM964.304 332.999l.749-1.858.381.445 1.866-1.606.491.572-1.865 1.606.382.443zM970.502 328.278l1.059-1.699.299.504 2.117-1.257.384.649-2.116 1.256.298.504z"/></g></g><g><path fill="none" d="M940.795 353.081s-7.243 48.261-5.654 55.508c1.59 7.246-18.39 6.358-23.336-1.771-4.948-8.127 20.15-12.194 20.15-12.194s18.784-4.226 19.801-.354c1.768 6.717 3.889 10.607 0 11.668-3.889 1.06-3.359-2.651-2.828-6.896 2.651-18.559 3.358-42.777 3.358-42.777"/><path fill="#010101" stroke="#010101" stroke-width=".25" d="m951.5 358.308.813 1.83-.584-.035-.148 2.457-.752-.046.148-2.456-.585-.035zM951.108 366.22l.799 1.835-.584-.039-.165 2.455-.75-.05.164-2.455-.585-.039zM950.622 374.113l.757 1.854-.583-.053-.221 2.451-.75-.067.22-2.451-.583-.052zM950.033 382.019l.758 1.853-.583-.054-.221 2.453-.75-.069.22-2.451-.583-.052zM949.239 389.876l.686 1.881-.581-.074-.315 2.439-.747-.096.315-2.441-.581-.074zM948.333 397.774l.749 1.856-.583-.056-.231 2.451-.749-.07.23-2.452-.583-.054zM949.52 405.674l2.001-.037-.26.525 2.208 1.09-.335.676-2.205-1.09-.261.525zM954.24 400.942l-1.23-1.58.576-.106-.451-2.42.741-.138.45 2.419.576-.106z"/><path fill="#010101" stroke="#010101" stroke-width=".25" d="m951.25 393.252-2.002.083.249-.53-2.23-1.042.317-.682 2.231 1.04.248-.532zM943.215 392.108l-1.694 1.068-.049-.584-2.451.209-.065-.751 2.452-.208-.051-.584zM935.319 393.252l-1.606 1.195-.095-.578-2.428.399-.122-.743 2.43-.399-.096-.578zM927.507 394.83l-1.528 1.296-.129-.571-2.399.55-.169-.734 2.399-.551-.132-.571zM919.849 397.117l-1.377 1.454-.193-.552-2.324.807-.248-.711 2.325-.809-.193-.552zM912.329 400.853l-.069 2.001-.51-.288-1.206 2.146-.657-.37 1.206-2.145-.511-.287zM912.962 408.657l1.959.414-.371.453 1.904 1.56-.477.582-1.905-1.56-.37.455zM919.905 412.791l1.949-.458-.143.568 2.386.602-.185.731-2.386-.602-.143.568zM927.918 413.923l1.652-1.13.071.582 2.443-.299.092.748-2.444.298.072.582zM935.312 410.404l-.416-1.958.564.156.653-2.373.727.199-.653 2.374.564.154zM935.801 402.391l-.838-1.819.586.028.112-2.458.752.034-.112 2.459.585.026zM936.337 394.521l-.745-1.859.583.057.237-2.449.749.073-.237 2.449.584.056zM937.121 386.658l-.683-1.882.581.076.318-2.44.746.097-.317 2.441.58.074zM938.028 378.791l-.668-1.887.58.08.338-2.438.746.102-.337 2.439.581.079zM939.039 370.934l-.653-1.892.581.085.356-2.435.745.109-.356 2.434.58.085zM940.096 363.086l-.636-1.898.578.089.381-2.431.744.117-.381 2.431.579.089zM941.208 355.242l-.624-1.902.577.093.395-2.428.744.12-.395 2.43.579.092z"/></g><g><path fill="none" d="m314.863 365.201 36.211 1.065"/><path fill="#010101" stroke="#010101" stroke-width=".25" d="m347.602 365.464-1.761.813.026-.566-2.382-.107.033-.729 2.382.107.025-.567zM339.926 365.238l-1.761.815.025-.568-2.381-.107.032-.73 2.383.108.024-.567zM332.249 365.012l-1.76.814.026-.566-2.382-.108.032-.728 2.382.107.025-.567zM324.573 364.787l-1.76.813.025-.566-2.382-.108.032-.729 2.383.108.025-.568zM316.897 364.561l-1.76.814.025-.566-2.382-.108.033-.729 2.382.106.025-.566z"/></g><g><path fill="none" d="M337.966 327.523s-15.627 8.721-15.092 17.25c.534 8.525 2.244 17.461 8.084 16.167 2.25-1.153 5.012-2.671 7.008-4.313 3.108-4.435 5.54-7.485 2.273-10.345-2.421-2.117-11.846 4.494-11.846 4.494"/><path fill="#010101" stroke="#010101" stroke-width=".25" d="m333.151 348.793 1.154-1.561.25.51 2.141-1.051.322.656-2.142 1.05.251.51zM338.694 347.488l1.913.315-.337.455 1.912 1.425-.437.585-1.912-1.425-.339.456zM339.437 352.887l-.168 1.933-.48-.304-1.276 2.014-.617-.39 1.277-2.015-.481-.303zM334.43 357.982l-1.025 1.647-.29-.488-2.05 1.218-.373-.627 2.051-1.218-.291-.489zM328.201 359.849l-1.845-.596.404-.399-1.679-1.696.519-.512 1.678 1.694.404-.4zM324.926 353.502l-1.272-1.465.551-.134-.559-2.317.708-.172.561 2.317.552-.133zM323.582 346.211l-.686-1.815.564.067.277-2.369.725.086-.277 2.368.563.065zM325.739 339.324l.153-1.933.481.3 1.261-2.025.62.386-1.261 2.024.483.3zM330.614 333.747l.724-1.8.37.432 1.808-1.557.475.554-1.807 1.556.371.429zM336.616 329.174l1.027-1.647.29.489 2.049-1.217.373.627-2.049 1.217.289.488z"/></g><g><path fill="none" d="m330.703 371.05-6.517 13.308"/><path fill="#010101" stroke="#010101" stroke-width=".25" d="m325.873 382.42-.272-1.308.535.128.789-1.532.688.165-.789 1.532.537.126zM328.302 377.46l-.273-1.307.536.127.789-1.531.689.164-.789 1.531.535.128zM330.73 372.5l-.272-1.308.536.128.789-1.531.688.163-.788 1.533.535.127z"/></g><g><path fill="none" d="m194.668 364.049 36.21 1.066"/><path fill="#010101" stroke="#010101" stroke-width=".25" d="m227.405 364.313-1.76.814.026-.566-2.383-.108.033-.73 2.383.107.025-.566zM219.729 364.087l-1.76.813.025-.566-2.382-.107.034-.729 2.381.106.025-.567zM212.053 363.861l-1.761.815.026-.568-2.381-.107.032-.729 2.382.107.025-.566zM204.377 363.635l-1.761.814.027-.566-2.383-.108.032-.729 2.383.106.024-.566zM196.701 363.409l-1.761.814.026-.567-2.383-.107.033-.729 2.382.107.025-.568z"/></g><g><path fill="none" d="M114.886 349.141s4.744-2.674 6.684-1.285c1.941 1.385 2.075 5.488.689 6.596-1.385 1.105-7.005 2.928-10.887 4.593-9.561 4.097 31.556.946 40.391 1.577"/><path fill="#010101" stroke="#010101" stroke-width=".25" d="m146.236 359.873-1.727.883.003-.568-2.384-.012.003-.731 2.385.014.003-.568zM138.546 360.051l-1.711.913-.007-.568-2.384.03-.009-.73 2.384-.029-.007-.567zM130.869 360.263l-1.711.913-.008-.569-2.383.03-.009-.731 2.385-.029-.008-.566zM123.211 360.434l-1.735.865.008-.568-2.384-.037.011-.729 2.384.037.009-.568zM115.582 360.31l-1.782.764.041-.565-2.379-.172.054-.729 2.378.173.041-.566z"/><path fill="#010101" stroke="#010101" stroke-width=".25" d="m112.351 359.41 1.298-1.439.2.531 2.233-.838.256.684-2.234.838.201.531zM119.5 356.5l1.211-1.516.23.519 2.18-.968.296.667-2.18.968.232.519zM123.373 350.059l-1.519-1.205.517-.233-.977-2.176.666-.299.977 2.176.518-.234zM116.441 347.684l-1.234 1.496-.223-.523-2.193.936-.286-.671 2.193-.936-.223-.522z"/></g><g><path fill="none" d="M121.472 371.07s6.43-4.141 8.348-1.102c1.917 3.037 1.704 6.043-7.107 10.352-8.127 3.977-4.513-8.281-2.257-8.281"/><path fill="#010101" stroke="#010101" stroke-width=".25" d="m117.557 375.487.381 1.902-.545-.157-.66 2.292-.701-.202.659-2.292-.545-.155zM121.314 381.455l1.364-1.381.175.54 2.268-.736.226.694-2.269.737.175.54zM128.356 377.738l.568-1.854.405.397 1.668-1.705.522.512-1.668 1.703.406.398zM130.5 370.5l-1.828-.648.414-.387-1.63-1.74.532-.5 1.63 1.74.415-.389zM122.896 369.484l-1.1 1.597-.267-.501-2.105 1.122-.343-.645 2.105-1.121-.268-.5z"/></g><g><path fill="none" d="M18.412 193.446c3.332 0 14.995.553 15.551 6.11.557 5.559-12.219 7.229-15.551 8.332-3.334 1.113-10.555 2.775-6.666-4.445 3.885-7.219 3.332-9.997 6.666-9.997zm0 0s20.551 7.224 27.773 6.11c7.225-1.115 18.89-4.445 25-1.667 6.11 2.78-20.555 17.772-20.555 17.772l-1.665-62.769"/><path fill="#020202" stroke="#020202" stroke-width=".5" d="m48.107 151.569 1.071 2.013-.667.008.031 2.804-.858.009-.031-2.804-.668.008zM48.346 160.596l1.071 2.013-.667.007.031 2.804-.858.009-.031-2.804-.667.009zM48.586 169.622l1.071 2.013-.667.008.031 2.804-.858.009-.032-2.804-.667.008zM48.825 178.649l1.071 2.014-.667.007.031 2.804-.858.009-.031-2.804-.667.008zM49.065 187.676l1.071 2.013-.667.007.031 2.804-.858.01-.032-2.804-.667.008zM49.304 196.702l1.071 2.014-.667.007.031 2.804-.858.01-.031-2.805-.667.008zM49.544 205.729l1.071 2.013-.667.008.031 2.803-.858.01-.032-2.805-.667.01zM49.41 214.504l2.278.111-.335.576 2.423 1.411-.431.742-2.424-1.41-.335.578zM58.011 212.182l1.181-1.952.348.571 2.392-1.463.447.73-2.391 1.465.348.569zM65.542 207.086l1.008-2.045.396.537 2.258-1.664.508.691-2.256 1.665.396.535zM71.827 200.631l-.755-2.152.661.093.393-2.777.85.121-.393 2.775.661.094zM64.92 196.163l-2.046 1.007.014-.667-2.804-.055.018-.859 2.803.057.012-.667zM55.813 197.002l-1.858 1.322-.094-.661-2.776.393-.121-.85 2.777-.393-.094-.66zM47 198.509l-1.96 1.163-.04-.664-2.798.16-.05-.856 2.799-.162-.039-.667zM38.252 198.05l-2.202.593.142-.651-2.739-.598.183-.839 2.739.598.142-.652zM29.521 196l-2.237.443.186-.641-2.692-.783.24-.825 2.692.784.186-.642zM20.917 193.425l-2.259.311.224-.629-2.642-.94.287-.808 2.642.939.224-.629zM14.326 196.06l.027 2.28-.596-.299-1.26 2.504-.767-.387 1.261-2.503-.597-.3zM10.62 204.441l.441 2.237-.64-.188-.783 2.694-.824-.241.783-2.691-.641-.186zM16.558 209.217l1.722-1.494.157.648 2.725-.658.202.834-2.726.658.157.649zM25.308 206.912l1.685-1.537.173.645 2.709-.723.221.828-2.709.725.173.644z"/><path fill="#020202" stroke="#020202" stroke-width=".5" d="m33.511 202.328-.007-2.281.593.305 1.282-2.495.763.393-1.281 2.494.594.305zM29.867 194.6l-2.274.177.26-.615-2.582-1.093.335-.791 2.582 1.094.26-.615zM20.814 192.734l-2.085.923.041-.666-2.799-.173.053-.856 2.799.173.04-.667z"/></g><g><path fill="none" d="M99.103 196.322s6.894-3.736 9.713-1.795c2.819 1.935 3.013 7.667 1 9.216-2.014 1.546-8.434 2.104-14.076 4.431-5.642 2.323 31.81-2.107 40.271-.173 8.462 1.937 13.802-4.485 15.011-9.523 1.208-5.038-1.314-7.519-6.955-7.519-5.638 0-7.652 3.097-7.652 3.097"/><path fill="#020202" stroke="#020202" stroke-width=".5" d="m141.457 192.262 1.83-1.361.108.659 2.767-.451.138.847-2.768.45.109.659zM149.37 192.9l1.701 1.518-.622.238.999 2.62-.801.306-1.001-2.62-.623.238zM149.19 200.758l-.238 2.268-.557-.367-1.543 2.342-.717-.473 1.543-2.341-.558-.367zM143.402 206.708l-1.764 1.445-.138-.653-2.744.579-.177-.839 2.743-.58-.138-.652zM134.695 207.055l-2.126.826.072-.664-2.788-.3.092-.854 2.787.3.071-.663zM125.583 206.713l-2.013 1.073-.007-.667-2.805.035-.01-.857 2.803-.036-.008-.667zM116.541 207.079l-1.986 1.122-.024-.666-2.802.103-.032-.857 2.803-.103-.026-.668zM107.523 207.591l-1.982 1.128-.026-.667-2.802.11-.033-.859 2.801-.11-.026-.666zM98.554 207.988l-2.047 1.006.014-.667-2.803-.059.018-.858 2.804.059.013-.667z"/><path fill="#020202" stroke="#020202" stroke-width=".5" d="m101.321 207.295 1.682-1.541.174.644 2.707-.728.223.828-2.707.73.174.643zM109.614 203.947l.792-2.138.448.493 2.075-1.886.577.635-2.074 1.887.45.492zM110.116 194.929l-2.263-.283.377-.55-2.311-1.588.487-.708 2.311 1.589.378-.551zM100.862 194.537l-1.38 1.816-.286-.603-2.533 1.202-.368-.775 2.533-1.202-.286-.603z"/></g><g><path fill="none" d="M737.635 186.695c2.716 0 12.222.45 12.674 4.98.454 4.528-9.958 5.89-12.674 6.789-2.717.908-8.601 2.262-5.433-3.623 3.168-5.881 2.716-8.146 5.433-8.146zm0 0s16.748 5.885 22.634 4.98c5.889-.91 15.396-3.623 20.374-1.36 4.979 2.265-16.751 14.484-16.751 14.484l-1.356-51.153"/><path fill="#020202" stroke="#020202" stroke-width=".5" d="m761.835 152.568.874 1.641-.545.007.026 2.284-.698.008-.026-2.285-.545.006zM762.031 159.924l.872 1.641-.543.007.026 2.284-.7.008-.026-2.284-.544.006zM762.226 167.282l.874 1.639-.545.007.025 2.285-.698.008-.027-2.285-.544.006zM762.421 174.638l.873 1.64-.544.006.026 2.285-.7.008-.025-2.285-.544.006zM762.616 181.994l.873 1.64-.544.006.026 2.285-.7.009-.025-2.286-.545.006zM762.812 189.35l.873 1.64-.544.007.025 2.284-.699.008-.025-2.286-.545.007zM763.007 196.706l.873 1.64-.543.007.024 2.285-.7.008-.025-2.286-.543.006zM762.898 203.855l1.856.091-.273.47 1.974 1.149-.35.605-1.975-1.149-.274.47zM769.908 201.963l.962-1.59.282.465 1.951-1.192.365.595-1.95 1.194.285.463zM776.045 197.81l.822-1.666.321.436 1.84-1.354.415.562-1.839 1.356.324.438zM781.165 192.548l-.614-1.753.538.077.321-2.263.693.098-.322 2.262.538.076zM775.538 188.909l-1.667.821.01-.542-2.283-.046.013-.699 2.285.044.01-.544zM768.115 189.593l-1.514 1.077-.078-.539-2.261.321-.099-.693 2.264-.32-.077-.538zM760.934 190.82l-1.598.95-.031-.543-2.283.131-.041-.697 2.282-.133-.032-.542zM753.805 190.447l-1.795.484.116-.531-2.233-.488.15-.683 2.232.487.117-.531zM746.688 188.777l-1.822.359.152-.522-2.194-.638.195-.671 2.194.638.151-.523zM739.677 186.678l-1.841.253.183-.513-2.154-.765.235-.658 2.152.765.183-.512zM734.307 188.826l.02 1.858-.484-.245-1.029 2.041-.625-.314 1.028-2.042-.487-.244zM731.286 195.654l.36 1.824-.523-.153-.638 2.196-.672-.196.638-2.194-.521-.152zM736.125 199.547l1.403-1.218.128.528 2.221-.536.164.679-2.222.537.129.529zM743.255 197.668l1.374-1.251.141.524 2.207-.588.179.674-2.207.591.142.525z"/><path fill="#020202" stroke="#020202" stroke-width=".5" d="m749.94 193.932-.005-1.859.483.249 1.045-2.032.622.319-1.045 2.034.484.248zM746.971 187.636l-1.853.143.213-.501-2.104-.891.272-.645 2.104.892.211-.501zM739.594 186.115l-1.7.751.034-.543-2.281-.14.043-.699 2.28.141.034-.542z"/></g><g><path fill="none" d="m732.437 208.754 36.15 1.063"/><path fill="#020202" stroke="#020202" stroke-width=".5" d="m763.808 209.007-1.687.779.025-.543-2.284-.103.033-.699 2.282.103.023-.544zM756.452 208.79l-1.687.78.024-.543-2.282-.102.031-.699 2.283.103.024-.546zM749.097 208.573l-1.688.781.025-.544-2.283-.102.032-.699 2.282.103.024-.544zM741.741 208.357l-1.687.781.025-.543-2.283-.104.032-.698 2.282.103.025-.544zM734.386 208.142l-1.687.778.025-.542-2.284-.104.032-.698 2.283.103.024-.543z"/></g><g><path fill="none" d="m182.783 209.234 44.358 1.306"/><path fill="#020202" stroke="#020202" stroke-width=".5" d="m221.277 209.544-2.07.958.03-.667-2.801-.126.038-.856 2.801.125.03-.667zM212.251 209.278l-2.07.957.03-.666-2.801-.127.038-.856 2.802.126.029-.668zM203.225 209.013l-2.07.957.03-.666-2.801-.126.038-.858 2.801.126.03-.667zM194.199 208.747l-2.07.958.031-.666-2.802-.126.038-.857 2.801.125.03-.666zM185.174 208.481l-2.071.957.031-.666-2.801-.126.038-.856 2.801.125.03-.667z"/></g><g><path fill="none" d="M185.702 170.047s-19.144 10.685-18.488 21.131c.654 10.448 2.749 21.392 9.904 19.807 2.756-1.414 6.138-3.272 8.584-5.283 3.808-5.432 6.623-7.857 2.119-14.862-2.132-3.315-13.009 8.007-13.009 8.007"/><path fill="#020202" stroke="#020202" stroke-width=".5" d="m177.946 196.906.878-2.105.428.512 2.149-1.802.551.658-2.148 1.802.429.511zM184.636 191.813l1.864-1.313.09.661 2.779-.379.115.851-2.777.379.089.661zM189.094 196.037l.99 2.054-.667-.02-.081 2.803-.858-.024.081-2.804-.667-.019zM186.362 203.764l-.739 2.157-.461-.483-2.028 1.936-.592-.62 2.027-1.937-.462-.482zM179.252 208.876l-1.301 1.875-.311-.591-2.479 1.31-.401-.758 2.479-1.311-.312-.589zM172.468 208.265l-1.971-1.147.563-.357-1.504-2.367.724-.46 1.504 2.366.564-.358zM169.178 200.336l-1.361-1.83.659-.107-.451-2.768.847-.138.451 2.768.658-.108zM168.373 191.653l-.854-2.114.664.063.263-2.792.855.081-.263 2.791.664.063zM170.929 183.716l.471-2.231.516.422 1.776-2.17.664.544-1.775 2.17.516.422zM176.979 177.287l.893-2.099.425.514 2.161-1.786.546.661-2.16 1.787.426.513zM184.098 171.973l1.223-1.924.336.576 2.424-1.408.431.742-2.424 1.409.335.577z"/><g><path fill="none" d="M220.054 191.435s7.621-6.21 12.508-2.078c6.184 5.233 5.87 20.031-10.647 19.495-14.286-.466-4.496-17.41-1.116-17.41"/><path fill="#020202" stroke="#020202" stroke-width=".5" d="m218.74 192.087-.818 2.129-.443-.499-2.097 1.861-.569-.641 2.096-1.862-.443-.499zM213.895 200.212l.915 2.09-.666-.044-.183 2.798-.856-.056.183-2.798-.667-.043zM217.628 208.526l2.237-.439-.186.639 2.692.786-.241.823-2.692-.785-.186.641zM226.795 208.884l1.849-1.333.098.659 2.774-.41.125.849-2.774.411.099.66zM234.565 204.178l.31-2.259.546.384 1.616-2.291.701.495-1.616 2.291.546.385zM236.784 194.932l-1.708-1.511.622-.24-1.009-2.617.801-.308 1.01 2.616.622-.241zM230.692 187.319l-2.099.892.051-.665-2.796-.212.065-.855 2.795.211.05-.665z"/><path fill="#020202" stroke="#020202" stroke-width=".5" d="m221.501 189.389-1.068 2.014-.38-.549-2.305 1.595-.489-.706 2.306-1.595-.38-.548z"/></g></g><g><path fill="none" d="M335.856 191.345s7.622-5.195 12.507-1.736c6.185 4.374 5.87 16.756-10.647 16.307-14.287-.389-4.496-14.565-1.116-14.565"/><path fill="#020202" stroke="#020202" stroke-width=".5" d="m331.764 194.811-.281 2.262-.549-.377-1.587 2.313-.707-.486 1.586-2.311-.551-.377zM330.682 204.274l2.268.244-.368.555 2.337 1.55-.474.715-2.338-1.548-.368.556zM339.756 206.465l1.884-1.285.08.663 2.783-.339.104.852-2.784.337.082.663zM348.578 203.867l1.104-1.995.369.555 2.334-1.554.476.714-2.334 1.555.371.554zM352.532 195.54l-1.381-1.813.657-.115-.483-2.762.846-.148.483 2.762.657-.115zM346.714 187.729l-2.091.911.045-.665-2.797-.189.057-.855 2.798.187.044-.666zM337.465 189.425l-1.229 1.92-.334-.578-2.428 1.402-.429-.743 2.428-1.403-.333-.577z"/><g><path fill="none" d="M352.981 205.634c6.097-.255 16.501-.592 24.963 1.345 8.462 1.935 13.803-4.487 15.011-9.522 1.208-5.039-1.314-7.521-6.954-7.521"/><path fill="#020202" stroke="#020202" stroke-width=".5" d="m386.283 190.823 2.189-.637-.129.654 2.751.544-.166.842-2.751-.543-.129.654zM392.125 194.64l1.022 2.038-.666-.009-.035 2.804-.858-.011.035-2.804-.668-.007zM389.354 202.272l-.602 2.2-.49-.451-1.901 2.06-.632-.582 1.902-2.061-.492-.453zM382.347 206.184l-2.048 1.004.015-.667-2.804-.061.019-.857 2.804.06.014-.667zM373.474 205.51l-2.164.719.105-.658-2.77-.439.134-.848 2.769.439.104-.66zM364.399 204.744l-2.072.954.031-.667-2.8-.131.04-.856 2.801.13.03-.667zM355.326 204.749l-2.013 1.07-.008-.666-2.804.032-.009-.859 2.803-.032-.007-.667z"/></g></g><g><path fill="none" d="M427.042 188.429s7.62-5.195 12.506-1.738c6.186 4.377 5.87 16.756-10.646 16.309-14.288-.391-4.497-14.566-1.117-14.566"/><path fill="#020202" stroke="#020202" stroke-width=".5" d="m422.949 191.894-.28 2.263-.55-.377-1.586 2.312-.707-.486 1.586-2.312-.551-.376zM421.869 201.356l2.267.245-.367.555 2.336 1.548-.473.717-2.338-1.549-.369.557zM430.943 203.548l1.883-1.285.081.662 2.784-.338.103.851-2.784.338.081.664zM439.765 200.95l1.104-1.994.37.555 2.334-1.555.475.714-2.334 1.556.371.554zM443.718 192.624l-1.381-1.813.657-.116-.483-2.761.846-.148.482 2.762.658-.115zM437.9 184.812l-2.09.91.045-.665-2.798-.188.058-.856 2.797.187.045-.666zM428.652 186.508l-1.229 1.92-.334-.577-2.428 1.4-.429-.742 2.429-1.403-.335-.578z"/></g><g><path fill="none" d="m434.192 204.198 44.359 1.305"/><path fill="#020202" stroke="#020202" stroke-width=".5" d="m472.685 204.509-2.07.957.03-.667-2.802-.126.039-.858 2.802.126.028-.667zM463.66 204.243l-2.071.957.03-.667-2.801-.126.039-.857 2.801.127.029-.667zM454.634 203.978l-2.07.957.029-.667-2.801-.126.04-.858 2.8.126.03-.667zM445.608 203.712l-2.069.957.029-.666-2.801-.126.038-.858 2.802.127.029-.667zM436.583 203.446l-2.07.957.029-.666-2.801-.127.038-.856 2.802.126.029-.667z"/></g><g><path fill="none" d="M472.927 190.304s7.621-5.195 12.508-1.738c6.184 4.377 5.87 16.756-10.648 16.307-14.285-.389-4.496-14.563-1.115-14.563"/><path fill="#020202" stroke="#020202" stroke-width=".5" d="m468.835 193.771-.281 2.262-.55-.378-1.586 2.313-.708-.485 1.586-2.313-.55-.376zM467.755 203.231l2.268.245-.369.556 2.338 1.549-.475.715-2.337-1.548-.368.557zM476.828 205.423l1.883-1.285.081.662 2.784-.338.103.851-2.783.338.08.663zM485.652 202.825l1.103-1.996.37.556 2.334-1.554.477.713-2.334 1.556.369.554zM489.604 194.497l-1.381-1.813.658-.115-.483-2.762.846-.148.483 2.762.656-.115zM483.786 186.687l-2.091.911.045-.665-2.798-.189.058-.856 2.797.187.044-.666zM474.539 188.383l-1.231 1.921-.334-.578-2.428 1.401-.429-.743 2.428-1.403-.334-.577z"/></g><g><path fill="none" d="M520.326 191.266c2.33.47 8.648 13.817 8.648 13.817"/><path fill="#020202" stroke="#020202" stroke-width=".5" d="m527.436 200.229-1.848-1.335.596-.301-1.26-2.504.765-.387 1.262 2.505.596-.301zM522.576 192.368l-2.16-.733.482-.462-1.943-2.024.619-.593 1.944 2.022.48-.463z"/><g><path fill="none" d="M525.982 189.583s7.006-5.033 9.926.545c2.92 5.573 2.1 7.678-1.088 10.332-3.184 2.654-5.846 4.623-5.846 4.623"/><path fill="#020202" stroke="#020202" stroke-width=".5" d="m530.15 205.227.981-2.059.402.532 2.235-1.693.519.683-2.236 1.694.404.531zM537.092 199.083l-.055-2.279.6.292 1.23-2.521.772.377-1.231 2.52.6.293zM536.254 190.134l-1.998-1.098.555-.371-1.563-2.329.713-.478 1.562 2.329.553-.373zM527.572 187.645l-1.209 1.934-.34-.574-2.412 1.428-.437-.739 2.412-1.427-.34-.575z"/></g></g><g><path fill="none" d="M533.418 205.665c6.098-.256 16.502-.592 24.965 1.345 8.461 1.935 13.801-4.486 15.01-9.523s-1.313-7.52-6.953-7.52"/><path fill="#020202" stroke="#020202" stroke-width=".5" d="m566.721 190.854 2.189-.638-.129.654 2.75.544-.166.841-2.75-.542-.129.655zM572.563 194.671l1.023 2.038-.668-.009-.035 2.805-.858-.012.036-2.804-.668-.007zM569.791 202.303l-.602 2.2-.49-.452-1.9 2.061-.631-.582 1.9-2.061-.492-.452zM562.783 206.215l-2.047 1.004.016-.666-2.805-.062.02-.857 2.803.06.013-.667zM553.912 205.54l-2.164.72.104-.659-2.77-.439.135-.847 2.769.438.104-.659zM544.836 204.775l-2.07.954.031-.666-2.803-.131.041-.857 2.801.13.031-.667zM535.764 204.78l-2.014 1.072-.006-.667-2.805.031-.009-.858 2.802-.032-.007-.667z"/></g><g><path fill="none" d="m693.467 186.979 9.008 10.426 9.635-12.758"/><path fill="#020202" stroke="#020202" stroke-width=".5" d="m711.268 184.399-.418 2.243-.527-.412-1.723 2.212-.678-.528 1.724-2.211-.527-.41zM705.825 191.605l-.419 2.243-.525-.411-1.725 2.21-.676-.527 1.724-2.212-.526-.409zM701.539 195.065l-2.103-.877.511-.429-1.801-2.15.659-.55 1.8 2.149.512-.43zM695.637 188.233l-2.105-.879.511-.428-1.799-2.151.657-.549 1.8 2.149.512-.43z"/></g><g><path fill="none" d="m680.043 207.583 44.358 1.305"/><path fill="#020202" stroke="#020202" stroke-width=".5" d="m718.537 207.894-2.07.956.029-.666-2.801-.126.039-.858 2.801.125.029-.666zM709.511 207.627l-2.07.957.03-.666-2.801-.126.039-.857 2.801.126.029-.667zM700.484 207.361l-2.069.958.03-.667-2.801-.126.039-.857 2.8.126.031-.667zM691.459 207.097l-2.07.957.03-.667-2.802-.125.039-.859 2.802.127.028-.668zM682.434 206.831l-2.071.957.031-.667-2.802-.125.039-.857 2.801.126.029-.667z"/></g><g><path fill="none" d="M256.421 194.873s6.894-3.736 9.713-1.796c2.819 1.936 3.013 7.667 1.001 9.215-2.014 1.546-8.434 2.104-14.076 4.432-5.642 2.324 31.81-2.107 40.271-.172 8.461 1.936 13.801-4.486 15.011-9.523 1.208-5.038-1.314-7.519-6.955-7.519-5.638 0-4.73 14.239-4.73 14.239"/><path fill="#020202" stroke="#020202" stroke-width=".5" d="m297.552 199.528-.847-2.117.664.064.274-2.79.854.083-.273 2.792.664.063zM299.343 191.59l1.286-1.882.316.587 2.471-1.326.406.756-2.47 1.326.316.588zM306.688 191.45l1.702 1.518-.623.238 1 2.619-.802.306-1-2.619-.624.238zM306.508 199.31l-.238 2.267-.558-.368-1.542 2.343-.716-.473 1.542-2.342-.558-.367zM300.719 205.259l-1.764 1.443-.139-.652-2.743.58-.177-.84 2.743-.579-.138-.653zM292.013 205.604l-2.126.827.071-.663-2.787-.301.091-.854 2.788.3.072-.663zM282.9 205.263l-2.011 1.074-.009-.668-2.802.035-.012-.858 2.805-.035-.009-.667zM273.858 205.63l-1.984 1.122-.025-.666-2.802.102-.031-.857 2.801-.103-.025-.667zM264.841 206.142l-1.983 1.127-.026-.667-2.801.11-.033-.858 2.801-.11-.027-.667zM255.872 206.538l-2.047 1.006.014-.666-2.803-.061.018-.857 2.803.059.014-.668z"/><path fill="#020202" stroke="#020202" stroke-width=".5" d="m258.641 205.845 1.682-1.54.174.643 2.708-.728.222.828-2.707.729.174.644zM266.932 202.497l.792-2.139.449.495 2.074-1.888.577.636-2.074 1.886.45.492zM267.434 193.479l-2.263-.283.377-.55-2.31-1.588.486-.707 2.311 1.588.378-.55zM258.18 193.087l-1.38 1.816-.286-.603-2.533 1.202-.368-.774 2.533-1.204-.287-.602z"/></g><g><path fill="none" d="M820.791 163.078s-19.332 10.785-18.668 21.335c.66 10.546 2.775 21.597 9.998 19.997 2.781-1.426 6.198-3.304 8.67-5.334 3.844-5.485 6.852-9.258 2.809-12.794-2.993-2.62-14.648 5.558-14.648 5.558"/><path fill="#020202" stroke="#020202" stroke-width=".5" d="m811.376 191.243 1.206-1.935.34.573 2.411-1.432.438.738-2.41 1.431.341.574zM818.95 186.915l1.952-1.179.043.666 2.799-.182.057.856-2.799.183.044.666zM823.719 190.027l1.176 1.954-.666.042.177 2.799-.855.055-.179-2.799-.667.044zM820.912 197.473l-.713 2.166-.466-.477-2.004 1.962-.599-.613 2.003-1.962-.467-.477zM813.801 202.551l-1.301 1.873-.311-.59-2.48 1.31-.4-.759 2.479-1.31-.312-.59zM807.169 201.284l-1.972-1.146.563-.358-1.503-2.367.723-.46 1.504 2.366.565-.358zM804.057 193.289l-1.361-1.83.658-.107-.45-2.768.847-.139.451 2.768.658-.108zM803.354 184.615l-.854-2.115.664.063.264-2.792.854.082-.262 2.791.664.061zM805.988 176.718l.471-2.232.517.422 1.776-2.169.664.544-1.776 2.169.516.423zM812.062 170.309l.891-2.099.426.515 2.16-1.787.548.661-2.161 1.788.426.512zM819.186 165.004l1.224-1.925.335.577 2.425-1.407.432.741-2.426 1.408.336.578z"/></g><g><path fill="none" d="m791.082 210.208 44.789 1.317"/><path fill="#020202" stroke="#020202" stroke-width=".5" d="m829.576 210.517-2.07.958.029-.666-2.8-.127.038-.858 2.801.126.03-.667zM820.551 210.251l-2.071.958.03-.667-2.801-.126.039-.857 2.801.126.029-.667zM811.523 209.986l-2.069.956.03-.666-2.8-.126.038-.856 2.801.125.029-.667zM802.498 209.721l-2.069.957.03-.666-2.802-.127.038-.857 2.802.125.029-.666zM793.473 209.454l-2.071.958.031-.666-2.802-.127.039-.857 2.801.126.029-.667z"/></g><g><path fill="none" d="M599.408 189.729c2.355.475 6.123 10.366 6.123 10.366"/><path fill="#020202" stroke="#020202" stroke-width=".5" d="m605.98 199.042-1.736-1.479.617-.251-1.056-2.596.793-.324 1.06 2.595.617-.253zM601.701 190.743l-2.187-.648.463-.481-2.02-1.943.594-.619 2.021 1.943.461-.48z"/><g><path fill="none" d="M605.123 188.032s7.072-5.079 10.021.55c2.949 5.628 2.121 7.752-1.098 10.432-3.217 2.681-5.902 4.669-5.902 4.669"/><path fill="#020202" stroke="#020202" stroke-width=".5" d="m609.547 203.644.982-2.059.403.531 2.234-1.693.518.684-2.235 1.694.405.532zM616.367 197.428l-.054-2.28.599.292 1.231-2.519.771.377-1.23 2.519.599.293zM615.41 188.518l-2-1.099.555-.371-1.561-2.328.711-.479 1.563 2.329.552-.373zM606.711 186.094l-1.207 1.934-.34-.574-2.412 1.428-.438-.738 2.413-1.428-.34-.574z"/></g><g><path fill="none" d="m610.936 204.413 44.787 1.316"/><path fill="#020202" stroke="#020202" stroke-width=".5" d="m649.43 204.722-2.071.957.03-.666-2.801-.126.039-.859 2.801.126.029-.667zM640.402 204.456l-2.068.957.029-.666-2.8-.126.039-.857 2.8.126.03-.667zM631.377 204.19l-2.068.957.029-.666-2.801-.126.039-.856 2.801.125.029-.666zM622.352 203.926l-2.071.957.03-.666-2.801-.126.039-.858 2.801.125.029-.666zM613.326 203.661l-2.07.957.029-.666-2.801-.127.039-.857 2.801.126.03-.667z"/></g><g><path fill="none" d="M663.305 163.276s-19.328 10.789-18.666 21.336c.658 10.548 2.773 21.597 9.998 19.998 2.783-1.43 6.199-3.305 8.668-5.334 3.844-5.486 6.854-9.258 2.811-12.795-2.994-2.619-14.65 5.557-14.65 5.557"/><path fill="#020202" stroke="#020202" stroke-width=".5" d="m653.891 191.442 1.205-1.935.34.574 2.412-1.432.437.739-2.41 1.431.342.574zM661.465 187.114l1.953-1.177.041.666 2.799-.184.056.857-2.798.183.045.665zM666.234 190.226l1.176 1.954-.666.042.178 2.799-.856.054-.179-2.799-.666.043zM663.43 197.671l-.713 2.167-.467-.477-2.004 1.962-.601-.613 2.003-1.963-.466-.476zM656.861 203.453l-1.873 1.303-.086-.661-2.781.363-.111-.852 2.781-.363-.088-.662zM649.686 201.483l-1.973-1.145.564-.359-1.504-2.366.723-.46L649 199.52l.564-.359zM646.572 193.49l-1.361-1.829.658-.108-.449-2.767.846-.139.451 2.768.658-.107zM645.869 184.815l-.853-2.115.664.065.265-2.793.854.082-.264 2.791.664.062zM648.504 176.919l.473-2.231.515.422 1.776-2.17.664.543-1.776 2.17.516.423zM654.576 170.509l.891-2.099.426.515 2.16-1.787.549.661-2.163 1.788.426.513zM661.701 165.202l1.225-1.924.334.576 2.424-1.408.431.742-2.424 1.41.334.576z"/></g></g><g><path fill="none" d="M851.887 195.584s5.867-3.307 8.268-1.588c2.4 1.712 2.564 6.788.852 8.157s-8.664 3.624-13.467 5.681c-11.824 5.068 39.03 1.173 49.961 1.952"/><path fill="#020202" stroke="#020202" stroke-width=".5" d="m894.813 208.863-2.042 1.015.011-.667-2.803-.048.015-.857 2.803.047.01-.667zM885.765 208.99l-2.017 1.067-.005-.667-2.804.023-.007-.858 2.803-.024-.006-.667zM876.733 209.247l-2.01 1.077-.01-.667-2.803.039-.013-.857 2.804-.04-.01-.667zM867.717 209.508l-2.022 1.055-.003-.667-2.803.009-.002-.857 2.803-.01-.002-.667zM858.711 209.646l-2.05 1 .016-.667-2.803-.066.021-.857 2.802.065.016-.667zM849.851 209.59l-2.22.524.163-.647-2.72-.684.209-.832 2.72.684.162-.648zM850.373 207.593l1.522-1.698.236.623 2.622-.994.304.802-2.621.994.237.625zM858.818 204.192l1.356-1.833.294.599 2.517-1.234.378.77-2.517 1.235.295.599zM862.336 195.848l-1.965-1.159.565-.354-1.489-2.375.727-.456 1.49 2.375.565-.355zM853.646 193.799l-1.38 1.815-.286-.602-2.534 1.2-.367-.775 2.534-1.201-.287-.603z"/><g><path fill="none" d="M905.82 169.332s-19.33 10.786-18.668 21.335c.661 10.546 2.777 21.598 10 19.998 2.782-1.427 6.199-3.305 8.668-5.333 3.846-5.487 6.852-9.26 2.812-12.796-2.993-2.62-14.65 5.558-14.65 5.558"/><path fill="#020202" stroke="#020202" stroke-width=".5" d="m896.408 197.497 1.205-1.935.342.573 2.41-1.433.439.738-2.411 1.433.341.573zM903.982 193.169l1.954-1.178.043.665 2.797-.182.056.856-2.798.184.044.666zM908.749 196.282l1.175 1.955-.665.042.178 2.798-.857.055-.178-2.798-.666.043zM905.943 203.728l-.712 2.166-.466-.477-2.004 1.962-.6-.613 2.003-1.962-.467-.476zM899.375 209.51l-1.872 1.302-.086-.663-2.781.364-.111-.851 2.781-.363-.087-.662zM892.2 207.539l-1.971-1.146.562-.359-1.504-2.366.725-.46 1.504 2.366.564-.358zM889.088 199.544l-1.361-1.83.658-.108-.45-2.767.847-.138.45 2.767.66-.108zM888.385 190.87l-.854-2.115.664.062.264-2.791.854.08-.262 2.792.664.063zM891.02 182.973l.47-2.232.516.422 1.777-2.169.664.544-1.777 2.17.518.421zM897.091 176.563l.892-2.099.426.515 2.16-1.787.548.662-2.161 1.787.426.513zM904.217 171.257l1.223-1.923.335.576 2.425-1.407.431.742-2.424 1.407.336.577z"/></g></g><g><path fill="none" d="M80.386 17.785s-18.18 10.147-17.558 20.066c.622 9.92 2.611 20.313 9.404 18.809 2.618-1.342 5.83-3.108 8.153-5.017 3.616-5.16 6.289-7.461 2.011-14.115-2.023-3.147-12.354 7.604-12.354 7.604"/><path fill="#020202" stroke="#020202" stroke-width=".25" d="m72.971 43.063.541-1.346.277.321 1.353-1.164.357.414-1.353 1.165.278.321zM77.377 39.506l.724-1.259.23.357 1.501-.965.295.46-1.501.965.23.357zM81.398 38.412l1.434.23-.252.341 1.436 1.06-.325.44-1.436-1.061-.252.343zM83.634 42.776l.723 1.259-.424.018.078 1.784-.546.023-.078-1.783-.425.019zM82.343 47.877l-.203 1.438-.346-.247-1.035 1.455-.446-.316 1.035-1.455-.346-.247zM78.803 52.003l-.767 1.233-.218-.365-1.534.912-.279-.47 1.535-.913-.218-.364zM73.907 55.016l-.767 1.233-.217-.365-1.535.911-.279-.469 1.535-.912-.218-.366zM69.182 55.649l-1.439-.199.245-.346-1.457-1.031.315-.446 1.458 1.031.245-.348zM65.976 51.416l-1.118-.928.392-.165-.694-1.644.503-.213.694 1.645.391-.166zM64.33 46.054l-.867-1.165.42-.068-.287-1.761.539-.089.287 1.762.419-.068zM63.623 40.39l-.781-1.224.423-.039-.16-1.777.544-.05.161 1.778.422-.038zM64.15 34.955l-.288-1.423.408.116.491-1.716.525.15-.49 1.717.408.116zM66.555 30.1l.3-1.421.329.269 1.13-1.381.423.346-1.131 1.381.33.269zM70.276 25.88l.567-1.336.271.328 1.376-1.138.348.421-1.376 1.137.271.328zM74.628 22.212l.705-1.269.235.354 1.487-.987.302.454-1.487.988.236.354zM79.364 19.011l.779-1.225.213.367 1.544-.896.275.472-1.544.896.213.368z"/></g><g><path fill="none" d="M228.154 40.816s30.084-2.191 36.061-1.389c5.978.792-8.367 13.148-16.536 14.742-2.989-6.774 0-49.215 0-49.215"/><path fill="#020202" stroke="#020202" stroke-width=".25" d="m247.187 4.455.561 1.339-.423-.035-.147 1.78-.544-.045.145-1.779-.423-.034zM246.828 10.196l.57 1.335-.423-.031-.134 1.78-.545-.04.134-1.781-.424-.031zM246.515 15.942l.585 1.329-.425-.027-.113 1.781-.546-.034.114-1.782-.425-.027zM246.242 21.688l.595 1.325-.424-.024-.1 1.782-.545-.03.1-1.783-.425-.022zM246.045 27.438l.605 1.319-.423-.02-.085 1.783-.546-.026.084-1.784-.424-.02zM245.894 33.198l.64 1.303-.426-.008-.036 1.784-.546-.012.037-1.785-.425-.007zM245.862 38.947l.641 1.303-.425-.009-.038 1.784-.546-.01.038-1.786-.425-.008zM245.999 44.719l.708 1.268-.424.013.055 1.785-.546.016-.056-1.784-.425.014zM246.438 50.517l.883 1.153-.418.075.312 1.757-.538.095-.313-1.758-.418.075zM249.666 53.972l.984-1.067.145.399 1.678-.61.187.513-1.678.61.145.399zM254.963 51.543l.75-1.244.223.362 1.522-.933.285.466-1.521.933.221.363zM259.796 48.298l.548-1.343.276.322 1.36-1.156.353.416-1.359 1.156.276.324zM264.09 44.299l.178-1.441.35.24 1.009-1.473.451.31-1.009 1.472.351.24zM264.183 39.574l-1.452-.003.196-.377-1.583-.824.253-.483 1.583.822.195-.376zM258.35 38.755l-1.284.68-.004-.424-1.785.016-.004-.547 1.785-.016-.005-.424zM252.597 38.905l-1.276.695-.008-.425-1.785.036-.011-.546 1.785-.037-.01-.425z"/><path fill="#020202" stroke="#020202" stroke-width=".25" d="m246.848 39.16-1.267.708-.014-.424-1.784.056-.017-.546 1.784-.057-.014-.424zM241.101 39.463l-1.259.724-.019-.425-1.783.077-.024-.546 1.784-.077-.019-.424zM235.358 39.807l-1.253.732-.022-.424-1.782.09-.028-.546 1.784-.09-.023-.424zM229.62 40.188l-1.25.737-.023-.423-1.783.097-.029-.546 1.782-.097-.024-.424z"/></g><g><path fill="none" d="M99.765 41.462s5.519-3.111 7.775-1.496c2.259 1.612 2.415 6.386.802 7.673s-6.751 1.755-11.268 3.69c-11.121 4.767 22.939-2.354 32.237-.143"/><path fill="#020202" stroke="#020202" stroke-width=".25" d="m128.69 50.609-1.349.538.042-.422-1.777-.176.054-.543 1.777.174.041-.422zM122.89 50.277l-1.267.707-.013-.424-1.784.056-.018-.546 1.784-.056-.013-.424zM117.137 50.569l-1.25.739-.023-.424-1.782.099-.031-.545 1.782-.1-.024-.424zM111.399 51.081l-1.232.768-.034-.423-1.779.141-.043-.544 1.779-.142-.034-.424zM105.674 51.672l-1.222.783-.039-.423-1.778.165-.05-.544 1.777-.165-.038-.423zM99.967 52.23l-1.242.751-.028-.424-1.782.116-.035-.544 1.781-.117-.028-.424z"/><path fill="#020202" stroke="#020202" stroke-width=".25" d="m95.64 52.843.758-1.239.219.365 1.529-.923.282.468-1.528.923.22.363zM100.792 50.723l1.048-1.004.119.407 1.713-.502.154.523-1.713.503.121.408zM106.271 48.924l1.011-1.043.135.403 1.692-.567.174.518-1.693.567.135.403zM109.606 44.465l-.751-1.242.424-.028-.117-1.782.545-.036.117 1.782.425-.028zM106.716 39.349l-1.362.503.053-.422-1.772-.222.068-.541 1.772.221.052-.421zM100.885 40.325l-.879 1.155-.182-.383-1.613.764-.234-.493 1.612-.765-.182-.384z"/></g><g><path fill="none" d="M138.195 50.013c5.789-.242 15.669-.562 23.705 1.277 8.037 1.838 13.107-4.261 14.256-9.042 1.146-4.784-1.248-7.142-6.604-7.142"/><path fill="#020202" stroke="#020202" stroke-width=".25" d="m169.908 35.764 1.433-.236-.132.405 1.697.554-.17.519-1.696-.554-.132.403zM174.819 37.235l.847 1.181-.421.061.256 1.767-.541.078-.256-1.766-.42.061zM175.425 42.542l.003 1.451-.378-.194-.818 1.586-.485-.251.817-1.586-.377-.194zM172.709 47.252l-.636 1.306-.253-.341-1.433 1.063-.326-.438 1.433-1.064-.253-.341zM168.317 50.339l-1.254.733-.021-.425-1.783.091-.028-.546 1.783-.09-.021-.424zM162.634 50.713l-1.314.618.016-.424-1.783-.069.02-.545 1.784.067.016-.424zM156.958 50.21l-1.363.5.054-.42-1.771-.227.069-.542 1.771.226.053-.422zM151.245 49.572l-1.364.5.055-.422-1.771-.226.069-.541 1.77.225.054-.421zM145.444 49.396l-1.29.664.001-.425-1.785-.005.001-.546 1.786.005v-.425zM139.696 49.47l-1.291.664.001-.425-1.785-.004.002-.547 1.785.005.001-.425z"/></g><g><path fill="none" d="m11.181 53.791 42.125 1.238"/><path fill="#020202" stroke="#020202" stroke-width=".25" d="m52.926 54.494-1.318.609.019-.424-1.783-.08.025-.546 1.783.08.019-.424zM47.18 54.325l-1.317.61.018-.425-1.783-.08.025-.545 1.783.08.018-.425zM41.434 54.156l-1.318.61.019-.425-1.783-.08.024-.545 1.784.08.018-.425zM35.688 53.987l-1.318.61.019-.425-1.784-.08.025-.545 1.784.08.018-.425zM29.941 53.818l-1.317.61.019-.425-1.783-.079.024-.546 1.783.08.02-.424zM24.195 53.649l-1.318.61.019-.425-1.783-.079.025-.546 1.783.08.018-.425zM18.449 53.48l-1.318.609.019-.424-1.783-.079.025-.546 1.783.08.019-.425zM12.703 53.312l-1.318.609.019-.424-1.783-.08.024-.546 1.784.08.018-.425z"/></g><g><path fill="none" d="m277.737 41.083 8.556 9.902 9.15-12.114"/><path fill="#020202" stroke="#020202" stroke-width=".25" d="m292.755 41.561-.265 1.427-.336-.262-1.098 1.408-.43-.336 1.097-1.407-.335-.262zM289.291 46.147l-.267 1.428-.335-.261-1.097 1.407-.431-.336 1.097-1.407-.335-.261zM286.744 49.21l-1.278.691-.007-.424-1.785.03-.01-.547 1.785-.031-.008-.425zM282.877 46.232l-1.339-.56.325-.273-1.146-1.368.419-.351 1.146 1.368.325-.273zM279.119 41.881l-1.34-.559.326-.273-1.146-1.368.419-.351 1.146 1.368.325-.272z"/></g><g><path fill="none" d="M337.771 36.605c14.828 3.558 4.603 17.643-2.109 16.78"/><path fill="#020202" stroke="#020202" stroke-width=".25" d="m337.196 53.535 1.1-.947.099.414 1.737-.413.125.532-1.736.413.099.412zM342.321 50.758l.51-1.36.284.316 1.325-1.196.367.406-1.326 1.196.286.315zM345.805 45.686l-.612-1.316.424.018.078-1.783.546.023-.078 1.783.425.019zM344.241 40.077l-1.334-.572.327-.27-1.133-1.379.422-.347 1.134 1.379.329-.27zM339.349 36.839l-1.452-.026.203-.374-1.57-.851.261-.48 1.569.85.202-.374z"/></g><g><path fill="none" d="M308.428 39.595c2.141.431 5.565 9.422 5.565 9.422"/><path fill="#020202" stroke="#020202" stroke-width=".25" d="m312.935 45.308-1.158-.876.383-.184-.768-1.61.493-.235.768 1.611.384-.184zM309.83 40.358l-1.354-.525.318-.281-1.179-1.339.41-.362 1.18 1.34.319-.282z"/><g><path fill="none" d="M313.622 38.051s6.428-4.617 9.108.5c2.682 5.116 1.927 7.047-.998 9.483-2.922 2.437-5.365 4.243-5.365 4.243"/><path fill="#020202" stroke="#020202" stroke-width=".25" d="m319.215 50.727.608-1.319.26.336 1.41-1.096.335.431-1.409 1.096.262.336zM323.362 46.61l.211-1.437.344.248 1.042-1.449.444.319-1.041 1.449.345.248zM323.952 40.982l-.973-1.078.412-.108-.454-1.726.529-.139.453 1.727.411-.109zM320.581 36.363l-1.441.166.15-.397-1.668-.635.195-.511 1.668.635.15-.397zM314.633 36.817l-.77 1.232-.215-.366-1.537.91-.278-.471 1.536-.909-.217-.366z"/></g></g><g><path fill="none" d="M201.374 37.19s7.235-5.898 11.876-1.973c5.872 4.969 5.575 19.022-10.111 18.514-13.567-.442-4.27-16.535-1.06-16.535"/><path fill="#020202" stroke="#020202" stroke-width=".25" d="m202.311 36.398-.701 1.271-.236-.352-1.484.993-.304-.455 1.484-.992-.237-.353zM198.071 40.427l-.136 1.445-.357-.228-.966 1.5-.459-.295.966-1.501-.358-.23zM195.896 45.85l.322 1.417-.41-.108-.451 1.728-.528-.138.449-1.728-.412-.106zM197.07 51.507l1.385.439-.3.3 1.262 1.262-.386.386-1.263-1.261-.3.3zM202.457 53.989l1.348-.541-.042.423 1.778.171-.053.544-1.777-.171-.04.423zM208.271 53.419l1.179-.849.062.419 1.765-.261.08.541-1.765.261.063.42zM213.522 50.896l.592-1.326.264.332 1.396-1.113.34.427-1.395 1.113.265.332zM216.652 45.996l-.212-1.437.402.139.58-1.688.517.177-.58 1.688.402.138zM216.798 40.001l-1.086-.962.396-.153-.643-1.666.511-.196.642 1.665.396-.153zM213.464 35.254l-1.426-.272.263-.334-1.405-1.103.338-.43 1.404 1.104.262-.335zM207.783 33.702l-1.128.915-.086-.415-1.748.361-.11-.535 1.748-.361-.086-.417z"/><path fill="#020202" stroke="#020202" stroke-width=".25" d="m202.295 35.888-.68 1.282-.241-.349-1.469 1.015-.31-.449 1.468-1.015-.243-.35z"/></g><g><path fill="none" d="M888.595 63.069s6.3-4.056 8.181-1.081c1.878 2.977 1.67 5.922-6.965 10.144-7.963 3.896-4.421-8.113-2.211-8.113"/><path fill="#020202" stroke="#020202" stroke-width=".5" d="m888.416 62.204-.859 2.112-.434-.507-2.132 1.819-.557-.652 2.132-1.821-.433-.507zM884.569 70.378l1.558 1.665-.643.181.76 2.699-.826.232-.76-2.699-.641.182zM892.5 71.5l1.24-1.913.33.58 2.438-1.388.424.745-2.436 1.388.33.58zM897.881 64.4l-1.212-1.932.664-.055-.23-2.794.855-.071.231 2.794.665-.055z"/><path fill="#020202" stroke="#020202" stroke-width=".5" d="m890.231 61.17-1.255 1.904-.326-.582-2.448 1.367-.419-.749 2.448-1.368-.327-.582z"/></g><g><path fill="none" d="M827.38 54.271c-5.359-1.088-9.547 12.494-9.791 17.507-.243 5.012 12.941 5.925 14.85-4.078 1.546-8.109.301-12.342-5.059-13.429z"/><path fill="#020202" stroke="#020202" stroke-width=".5" d="m828.105 55.592 2.28.067-.324.583 2.451 1.362-.417.75-2.451-1.361-.324.583zM832.102 61.798l.846 2.119-.665-.066-.274 2.791-.855-.085.276-2.79-.665-.065zM830.868 70.275l-.594 2.202-.491-.451-1.893 2.069-.633-.579 1.893-2.069-.493-.45zM824.063 74.641l-2.139.789.083-.661-2.782-.349.106-.851 2.782.348.082-.663zM818.55 70.948l-.693-2.173.659.112.471-2.763.846.144-.473 2.764.66.112zM820.803 62.467l-.085-2.279.603.285 1.197-2.536.776.366-1.197 2.536.604.284z"/><path fill="#020202" stroke="#020202" stroke-width=".5" d="m825.352 55.742 1.66-1.564.182.642 2.697-.769.236.825-2.697.77.183.641z"/></g><g><path fill="none" d="M774.184 40.495s-2.432 43.48-9.271 45.463c-1.986-.221-5.297.221-13.243-.884-5.074-8.385 11.257-13.904 11.257-13.904l35.093 1.106s4.636 1.099 2.868 6.398c-1.766 5.3-16.995 7.283-18.097 7.283-1.103 0 3.529-44.137 3.529-44.137"/><path fill="#020202" stroke="#020202" stroke-width=".5" d="m784.986 46.76.807 2.134-.662-.078-.326 2.785-.853-.1.326-2.785-.663-.077zM784.094 55.749l.814 2.13-.663-.075-.316 2.786-.852-.097.316-2.786-.664-.075zM783.245 64.743l.825 2.126-.663-.072-.301 2.788-.852-.092.301-2.787-.664-.072zM782.467 73.747l.846 2.117-.664-.064-.272 2.79-.855-.083.273-2.791-.664-.064zM781.916 82.819l1.021 2.04-.667-.009-.039 2.803-.858-.011.039-2.805-.668-.008zM788.766 85.765l1.775-1.431.132.654 2.749-.558.17.841-2.747.559.133.653zM797.367 82.598l1.165-1.961.354.567 2.379-1.482.454.728-2.381 1.483.354.565zM801.024 74.932l-1.687-1.535.626-.231-.974-2.63.805-.298.974 2.63.626-.233zM792.98 71.296l-2.073.952.031-.666-2.799-.132.039-.857 2.801.131.031-.667zM783.955 71.01l-2.073.952.031-.666-2.801-.131.041-.857 2.801.131.031-.667zM774.929 70.726l-2.072.953.032-.666-2.802-.133.041-.857 2.801.132.031-.667zM765.903 70.442l-2.071.952.031-.666-2.8-.132.04-.857 2.801.131.03-.666zM757.102 73.172l-1.232 1.919-.333-.578-2.43 1.399-.428-.744 2.43-1.398-.334-.579zM750.891 79.788l.57 2.208-.649-.148-.628 2.733-.836-.193.626-2.732-.651-.149zM755.389 86.284l2.134-.804-.078.663 2.784.33-.101.852-2.784-.33-.078.663zM764.338 86.19l1.452-1.758.261.614 2.581-1.097.335.789-2.58 1.098.261.615zM769.731 78.8l-.345-2.254.633.213.897-2.655.813.274-.898 2.656.632.214z"/><path fill="#020202" stroke="#020202" stroke-width=".5" d="m771.758 69.912-.616-2.196.652.136.569-2.746.84.174-.568 2.745.653.136zM773.097 60.938l-.741-2.157.661.098.411-2.774.848.126-.411 2.774.66.097zM774.093 51.937l-.812-2.132.663.076.32-2.785.853.098-.32 2.785.664.076zM774.853 42.911l-.885-2.102.664.053.223-2.796.855.069-.223 2.795.666.053z"/></g><g><path fill="none" d="M662.817 29.291s-6.876 45.813-5.368 52.693c1.51 6.879-17.456 6.037-22.152-1.68s19.13-11.576 19.13-11.576 17.832-4.011 18.796-.338c1.678 6.377 3.692 10.073 0 11.077-3.69 1.006-3.188-2.516-2.684-6.545 2.517-17.619 3.187-40.609 3.187-40.609"/><path fill="#020202" stroke="#020202" stroke-width=".5" d="m672.811 34.614.933 2.08-.666-.037-.158 2.8-.856-.049.157-2.799-.666-.037zM672.377 43.616l.891 2.1-.665-.052-.216 2.796-.855-.066.215-2.795-.666-.051zM671.789 52.608l.845 2.119-.664-.066-.278 2.79-.852-.084.276-2.79-.665-.066zM671.01 61.589l.806 2.133-.663-.077-.323 2.785-.853-.099.324-2.786-.662-.076zM669.964 70.553l.797 2.137-.662-.081-.34 2.785-.852-.104.339-2.784-.662-.08zM671.473 80.721l1.638-1.587.192.639 2.685-.804.246.823-2.685.804.192.639zM675.435 73.137l-1.539-1.682.645-.173-.728-2.708.828-.223.728 2.707.644-.173zM669.76 66.169l-2.061.977.024-.667-2.802-.098.03-.858 2.802.099.022-.667zM660.644 66.808l-1.873 1.301-.085-.661-2.782.362-.11-.852 2.78-.362-.087-.661zM651.698 68.429l-1.765 1.443-.138-.653-2.744.576-.176-.839 2.743-.578-.138-.652zM642.939 70.968l-1.549 1.673-.226-.628-2.639.948-.29-.807 2.638-.949-.227-.628zM635.295 75.931l.19 2.272-.616-.256-1.076 2.588-.792-.329 1.076-2.589-.616-.255zM638.466 84.087l2.274.161-.347.569 2.392 1.463-.448.732-2.392-1.462-.348.57zM647.254 87.139l2.1-.89-.051.665 2.795.216-.067.856-2.795-.215-.051.665zM655.847 85.257l.807-2.132.446.496 2.088-1.871.573.639-2.088 1.872.446.496zM658.143 76.521l-.896-2.097.665.049.208-2.797.856.064-.207 2.797.665.048z"/><path fill="#020202" stroke="#020202" stroke-width=".5" d="m658.8 67.547-.815-2.129.663.075.315-2.787.852.097-.314 2.786.663.075zM659.748 58.584l-.773-2.145.661.088.37-2.78.85.113-.369 2.78.661.088zM660.841 49.631l-.746-2.155.66.096.403-2.775.849.124-.403 2.775.662.095zM662.029 40.687l-.729-2.161.659.101.425-2.771.848.13-.424 2.772.66.1zM663.286 31.753l-.709-2.168.658.108.453-2.767.847.138-.452 2.767.659.107z"/></g><g><path fill="none" d="M737.984 32.857s9.773-4.445 10.663 7.997c.891 12.44-36.876 7.549-41.319 9.774-4.446 2.221 3.555 29.77-4 35.102-7.556 5.332-7.556 2.667-16.885 1.776-3.113-16.438 31.548-14.219 31.548-14.219s11.109-5.328 13.773 3.114c2.664 8.441-13.331 12.44-13.331 12.44l1.335-70.203"/><path fill="#020202" stroke="#020202" stroke-width=".5" d="m718.845 24.02.978 2.06-.667-.023-.097 2.802-.858-.029.097-2.802-.667-.023zM718.672 33.049l.979 2.059-.668-.023-.096 2.803-.858-.03.097-2.802-.667-.022zM718.5 42.076l.979 2.061-.666-.024-.097 2.803-.859-.03.097-2.803-.667-.022zM718.328 51.104l.979 2.061-.666-.023-.097 2.802-.858-.029.097-2.803-.668-.023zM718.157 60.133l.979 2.06-.667-.024-.097 2.803-.857-.03.095-2.802-.667-.022zM717.985 69.161l.978 2.059-.666-.023L718.2 74l-.857-.03.095-2.802-.666-.022zM717.813 78.188l.979 2.06-.667-.022-.097 2.802-.858-.03.097-2.802-.666-.023zM716.778 87.846l2.241.429-.413.523 2.202 1.736-.531.674-2.203-1.735-.413.525zM725.706 86.807l1.271-1.894.32.585 2.458-1.351.413.753-2.457 1.35.321.584zM732.297 80.061l-.852-2.116.664.064.268-2.791.854.081-.267 2.792.665.063zM728.529 71.71l-2.258.322.22-.63-2.646-.925.283-.81 2.647.925.22-.63z"/><path fill="#020202" stroke="#020202" stroke-width=".5" d="m719.424 72.034-1.83 1.36-.108-.66-2.767.45-.138-.847 2.768-.449-.108-.659zM710.519 72.456l-1.962 1.162-.037-.666-2.801.158-.049-.857 2.8-.159-.038-.666zM701.465 73.451l-1.822 1.37-.112-.657-2.764.466-.143-.846 2.765-.467-.112-.658zM692.463 75.916l-1.153 1.967-.357-.564-2.371 1.495-.458-.725 2.372-1.495-.357-.565zM686.21 82.883l.749 2.153-.66-.095-.402 2.775-.849-.122.401-2.776-.661-.095zM690.734 89l2.176-.684-.115.658 2.762.486-.149.845-2.762-.485-.115.657zM700.066 88.6l1.244-1.912.329.581 2.44-1.382.423.746-2.439 1.383.33.58zM706.192 81.85l-.296-2.26.626.227.957-2.636.807.292-.956 2.637.628.226z"/><path fill="#020202" stroke="#020202" stroke-width=".5" d="m707.493 72.69-1.08-2.009.667-.01-.044-2.804.859-.013.043 2.804.667-.011zM707.093 63.641l-1.152-1.968.667-.034-.144-2.801.857-.043.144 2.8.667-.035zM706.858 54.905l-.574-2.207.651.148.622-2.734.838.19-.623 2.735.651.147zM712.006 50.841l2.017-1.063.005.667 2.805-.018.005.858-2.804.019.005.668zM721.029 50.661l2.024-1.049.001.667 2.803-.001.001.858-2.804.002.001.667zM730.089 50.309l1.972-1.146.033.666 2.8-.136.042.857-2.801.137.033.666zM739.125 49.141l1.822-1.371.111.658 2.764-.468.143.847-2.764.467.112.658zM747.808 45.083l-.169-2.274.613.262 1.102-2.579.789.337-1.101 2.579.613.261zM748.114 35.923l-1.909-1.248.581-.328-1.378-2.441.747-.422 1.378 2.442.581-.329zM739.941 31.291l-1.584 1.641-.212-.632-2.657.895-.275-.812 2.657-.896-.214-.633z"/></g><g><path fill="none" d="m870.976 58.548-6.386 14.268"/><path fill="#020202" stroke="#020202" stroke-width=".5" d="m867.07 69.287-.095-2.278.604.281 1.186-2.54.777.362-1.185 2.541.605.282zM870.759 61.045l-.096-2.278.605.281 1.185-2.541.778.363-1.185 2.542.605.28z"/></g><g><path fill="none" d="M848.822 62.206c-.863 10.798 5.184 9.069 5.184 9.069"/><path fill="#020202" stroke="#020202" stroke-width=".5" d="m853.409 71.389-2.25-.368.399-.535-2.249-1.675.512-.688 2.249 1.674.398-.535zM849.818 64.506l-1.166-1.96.666-.039-.165-2.799.857-.05.166 2.799.666-.04z"/></g><g><path fill="none" d="M383.776 41.693s-5.257-6.718-7.886-8.177c-2.629-1.459-10.516 8.177-11.392 14.897-.876 6.721 10.514 14.31 16.649 16.649 6.135 2.339 26.287 6.423 30.086 4.964 3.799-1.459 5.842-4.672 5.842-4.672"/><path fill="#020202" stroke="#020202" stroke-width=".5" d="m415.662 65.817-.747 2.155-.46-.485-2.035 1.93-.59-.623 2.035-1.929-.46-.484zM408.459 69.396l-2.063.973.025-.666-2.802-.103.032-.858 2.802.103.024-.667zM399.61 68.539l-2.188.641.128-.655-2.752-.538.165-.842 2.752.538.127-.655zM390.79 66.817l-2.217.533.16-.649-2.722-.673.206-.833 2.722.673.16-.648zM382.223 64.461l-2.272.192.256-.616-2.59-1.075.33-.793 2.589 1.076.255-.617zM374.424 60.4l-2.251-.361.396-.537-2.254-1.667.511-.69 2.254 1.667.396-.537zM367.643 54.948l-1.864-1.313.592-.307-1.292-2.489.761-.395 1.293 2.488.591-.308zM365.798 47.106l-.324-2.258.63.22.924-2.647.81.282-.923 2.648.63.219zM369.619 39.339l.476-2.23.515.424 1.782-2.165.662.545-1.781 2.165.516.423zM375.245 35.327l2.205-.581-.146.65 2.736.613-.187.838-2.737-.613-.145.652zM381.651 40.363l2.072.953-.527.41 1.723 2.212-.676.528-1.723-2.212-.526.411z"/></g><g><path fill="none" d="M439.897 41.88s6.137 11.098 5.843 15.186c-.293 4.092-2.922 14.607-7.303 12.561-4.381-2.046-9.642-9.346-6.719-14.313 2.92-4.964 17.235-14.893 19.278-18.984 2.045-4.092 2.922-5.551-1.46-7.304-4.381-1.752-7.888 1.752-10.224 4.675-2.338 2.922.876 6.428.876 6.428"/><path fill="#020202" stroke="#020202" stroke-width=".5" d="m439.875 37.406-1.119-1.987.667-.023-.097-2.802.858-.03.097 2.802.667-.023zM443.527 30.881l1.255-1.904.326.582 2.447-1.37.419.749-2.447 1.37.327.582zM450.496 30.496l1.927 1.219-.575.336 1.414 2.422-.741.433-1.415-2.422-.576.338zM449 37.378l-.568 2.208-.497-.444-1.87 2.089-.639-.572 1.869-2.09-.498-.444zM442.61 43.579l-.852 2.114-.435-.506-2.128 1.827-.558-.652 2.127-1.826-.435-.506zM435.84 49.62l-.721 2.164-.465-.478-2.01 1.955-.599-.615 2.011-1.956-.466-.478zM430.049 57.357l1.147 1.971-.666.033.139 2.8-.857.043-.139-2.801-.666.034zM433.112 66.343l2.172.699-.474.469 1.976 1.991-.61.604-1.975-1.99-.473.471zM441.096 69.202l1.136-1.977.361.562 2.36-1.515.464.723-2.36 1.513.361.563zM445.716 61.228l-.514-2.222.647.166.695-2.716.831.213-.695 2.716.647.165zM445.416 51.921l-1.706-1.514.623-.24-1.006-2.617.802-.307 1.006 2.617.622-.24zM441.733 43.586l-1.854-1.325.594-.304-1.277-2.497.764-.39 1.277 2.496.594-.304z"/></g><g><path fill="none" d="M557.987 43.1s4.512-5.235 9.562-4.513c5.049.723 2.884 9.562-1.987 12.631-4.873 3.068-5.771 3.246-7.215 9.562-1.444 6.315-.182 8.116 5.952 9.379s17.139-4.508 17.139-4.508"/><path fill="#020202" stroke="#020202" stroke-width=".5" d="m577.058 66.706-1.496 1.721-.247-.62-2.606 1.033-.315-.798L575 67.009l-.247-.62zM568.725 69.192l-2.007 1.083-.012-.666-2.804.047-.014-.858 2.803-.047-.011-.668zM560.949 67.633l-2.233-.461.421-.518-2.178-1.766.541-.667 2.177 1.767.421-.52zM559.251 60.642l-.366-2.251.634.208.872-2.665.816.267-.873 2.665.634.207zM563.425 53.605l1.147-1.97.358.563 2.368-1.503.459.725-2.366 1.503.356.562zM569.972 46.954l-.175-2.274.614.261 1.097-2.581.789.335-1.096 2.581.614.261zM568.21 38.652l-2.219.528.162-.647-2.72-.678.207-.833 2.721.678.16-.647zM559.102 40.855l-.745 2.156-.46-.484-2.031 1.932-.592-.622 2.032-1.932-.46-.483z"/></g><g><path fill="none" d="M523.878 33.402s11.364 7.94 11.545 11.909c.182 3.968-9.376 13.171-13.348 9.562-3.973-3.609.543-11.183 2.705-12.99 2.163-1.807 15.168-14.449 15.168-14.449"/><path fill="#020202" stroke="#020202" stroke-width=".5" d="m535.746 30.359-.764 2.149-.454-.487-2.049 1.914-.586-.626 2.048-1.916-.456-.487zM529.236 36.607l-.78 2.143-.451-.491-2.064 1.899-.58-.631 2.063-1.899-.453-.491zM522.791 43.135l-.26 2.266-.553-.373-1.567 2.326-.712-.479 1.567-2.327-.555-.371zM519.927 52.25l1.792 1.411-.608.276 1.158 2.553-.782.354-1.158-2.553-.607.275zM527.902 55.326l1.237-1.916.331.578 2.433-1.391.427.744-2.434 1.393.332.579zM534.648 48.97l.062-2.279.584.322 1.356-2.454.751.415-1.356 2.455.585.321zM533.114 40.197l-2.167-.709.476-.467-1.965-2 .612-.602 1.966 2 .476-.468zM526.274 34.136l-2.248-.385.403-.531-2.237-1.693.518-.684 2.236 1.692.403-.533z"/></g><g><path fill="none" d="M606.244 22.754s-16.302 20.767-5.174 37.521c5.126 4.324 1.14 14.606-7.764 12.939-5.045-3.683 11.738-18.366 20.127-12.808 8.389 5.559-11.07-17.193-5.56-12.479"/><path fill="#020202" stroke="#020202" stroke-width=".5" d="m610.313 48.241-2.281-.016.312-.59-2.481-1.308.401-.759 2.48 1.307.311-.59zM609.337 52.554l2.013 1.074-.551.378 1.589 2.31-.706.486-1.59-2.309-.549.378zM616.091 58.788l-.853 2.115-.434-.507-2.128 1.828-.559-.652 2.127-1.827-.435-.506zM608.283 58.418l-1.748 1.463-.145-.651-2.737.609-.186-.838 2.737-.608-.146-.652zM599.5 61.5l-1.031 2.034-.39-.542-2.277 1.637-.5-.696 2.276-1.637-.39-.542zM592.917 68.053l-.085 2.279-.581-.33-1.382 2.441-.746-.423 1.382-2.441-.581-.328zM597.268 73.639l1.597-1.628.207.634 2.664-.874.269.815-2.665.874.208.635zM603.937 66.958l-1.034-2.033.667.005.021-2.804.858.007-.02 2.804.667.004zM601.122 58.34l-1.75-1.462.614-.258-1.083-2.586.79-.332 1.085 2.586.616-.259zM598.442 50.106l-1.185-1.949.666-.045-.192-2.797.856-.059.192 2.797.665-.047zM598.774 41.363l-.658-2.183.656.122.516-2.756.844.159-.516 2.755.655.123zM601.414 32.986l-.114-2.278.607.277 1.164-2.551.781.357-1.164 2.551.608.276zM605.519 25.153l.375-2.249.534.4 1.682-2.243.687.515-1.682 2.243.534.4z"/></g><g><path fill="none" d="M490.945 31.202c1.187 8.18 3.783 7.779 4.68 15.789 7.188 8.576-14.365-9.038-16.844-2.787s-1.82 7.228-.624 16.253c1.197 9.024 7.799 18.109 7.799 18.109"/><path fill="#020202" stroke="#020202" stroke-width=".5" d="m486.07 77.221-1.946-1.187.57-.346-1.453-2.399.734-.444 1.454 2.397.57-.346zM481.824 69.395l-1.766-1.44.611-.266-1.116-2.572.787-.342 1.116 2.573.612-.266zM479.199 60.993l-1.394-1.804.656-.12-.502-2.758.844-.154.503 2.759.656-.121zM478.043 52.242l-.981-2.058.666.021.092-2.802.858.028-.093 2.803.668.021zM479.349 44.229l1.804-1.395.119.657 2.76-.501.153.844-2.758.501.119.657zM487.452 45.739l2.28-.032-.298.596 2.508 1.254-.384.767-2.508-1.254-.298.598zM495.949 50.717l.178-2.274.566.352 1.481-2.381.728.453-1.479 2.381.567.352zM495.311 41.66l-1.717-1.501.621-.244-1.026-2.61.798-.314 1.026 2.61.622-.245zM492.279 33.324l-1.45-1.76.652-.14-.587-2.741.838-.18.588 2.741.653-.14z"/></g><g><path fill="none" d="m259.223 344.775 9.008 10.426 9.635-12.758"/><path fill="#020202" stroke="#020202" stroke-width=".5" d="m277.024 342.195-.419 2.242-.526-.411-1.724 2.211-.676-.527 1.723-2.211-.526-.41zM271.581 349.4l-.418 2.243-.526-.411-1.724 2.211-.677-.527 1.724-2.212-.526-.41zM267.296 352.861l-2.105-.879.512-.428-1.8-2.15.659-.55 1.799 2.149.512-.429zM261.392 346.029l-2.104-.88.512-.428-1.8-2.15.658-.55 1.8 2.149.512-.429z"/></g><g><path fill="none" d="m245.799 365.379 44.358 1.304"/><path fill="#020202" stroke="#020202" stroke-width=".5" d="m284.293 365.688-2.069.958.029-.667-2.802-.126.039-.857 2.802.125.029-.666zM275.267 365.423l-2.07.957.031-.667-2.801-.125.038-.859 2.801.127.029-.668zM266.241 365.157l-2.07.957.03-.667-2.802-.125.039-.857 2.801.126.031-.667zM257.215 364.892l-2.069.957.03-.666-2.802-.126.038-.858 2.802.126.029-.667zM248.19 364.627l-2.071.956.03-.666-2.8-.126.039-.856 2.8.125.03-.667z"/></g><g><path fill="none" d="M267.086 370.736c-5.359-1.089-9.548 12.494-9.791 17.507-.243 5.014 12.941 5.926 14.849-4.077 1.547-8.109.302-12.342-5.058-13.43z"/><path fill="#020202" stroke="#020202" stroke-width=".5" d="m267.811 372.058 2.28.067-.324.583 2.451 1.362-.417.75-2.451-1.362-.325.584zM271.808 378.265l.845 2.117-.664-.066-.274 2.791-.855-.084.275-2.791-.664-.064zM270.574 386.741l-.594 2.201-.491-.449-1.893 2.069-.633-.581 1.892-2.068-.493-.45zM263.77 391.107l-2.14.789.082-.662-2.781-.348.106-.851 2.782.348.082-.662zM258.255 387.414l-.692-2.173.658.113.472-2.764.846.144-.473 2.764.659.111zM260.509 378.934l-.085-2.28.603.284 1.197-2.535.776.366-1.197 2.536.604.284z"/><path fill="#020202" stroke="#020202" stroke-width=".5" d="m265.058 372.208 1.66-1.563.181.641 2.698-.769.235.825-2.696.769.183.642z"/></g><path fill="none" stroke="#010101" d="M1.5.5h352v101H1.5z"/><path fill="none" stroke="#010101" d="M352.5.5h272v101h-272z"/><path fill="none" stroke="#010101" d="M623.5.5h299v101h-299zM1.5 147.5h921.646v114H1.5zM.5 305.5h987.646v114H.5z"/></svg>