<svg xmlns="http://www.w3.org/2000/svg" width="890.93" height="356.4" overflow="visible" xml:space="preserve"><path fill="none" d="M152.333 225.178c-4.063 4.633 11.297 85.488-9.277 84.334-14.746-.832-17.096-11.596-19.13-22.316-2.035-10.723 39.71-8.4 44.635-8.693 5.507 3.186 9.27 9.566 7.534 15.359-1.736 5.793-11.02 11.012-6.958 5.215 4.063-5.797 3.189-74.48 4.639-79.119"/><path fill="#010101" stroke="#010101" stroke-width=".25" d="m172.39 222.85 1.259 3.031-.956-.081-.339 4.022-1.231-.105.339-4.02-.958-.08zM171.79 235.881l1.394 2.971-.959-.037-.158 4.032-1.234-.049.157-4.032-.959-.036zM171.482 248.87l1.386 2.974-.959-.04-.169 4.031-1.234-.051.169-4.032-.96-.04zM171.139 261.86l1.386 2.974-.959-.04-.17 4.032-1.233-.052.169-4.031-.96-.04zM170.655 274.809l1.297 3.015-.957-.069-.289 4.025-1.232-.088.288-4.025-.958-.068zM169.871 287.691l1.096 3.093-.951-.131-.554 3.997-1.223-.17.553-3.997-.951-.131zM167.302 299.397l3.261.365-.533.798 3.354 2.243-.686 1.027-3.355-2.243-.533.799zM177.129 292.567l-1.807-2.739.954-.101-.423-4.014 1.228-.129.424 4.013.955-.102z"/><path fill="#010101" stroke="#010101" stroke-width=".25" d="m172.115 280.476-3.095-1.094.701-.656-2.761-2.943.901-.845 2.761 2.943.7-.658zM159.442 277.33l-2.922 1.492.005-.96-4.035-.025.007-1.235 4.036.024.004-.96zM146.38 277.704l-2.816 1.685-.059-.958-4.028.248-.076-1.232 4.028-.248-.06-.959zM133.329 279.411l-2.473 2.157-.228-.933-3.92.958-.293-1.2 3.92-.957-.229-.934zM122.882 287.905l2.132 2.495-.935.218.916 3.93-1.203.281-.916-3.93-.936.219zM127.059 300.501l2.851 1.625-.806.522 2.195 3.387-1.036.672-2.195-3.387-.806.523zM137.192 308.763l3.253-.437-.324.903 3.798 1.362-.416 1.162-3.799-1.361-.323.904zM150.01 306.262l.362-3.262.798.533 2.239-3.357 1.028.685-2.239 3.357.8.532zM153.984 293.615l-.831-3.175.937.212.888-3.937 1.204.272-.887 3.936.937.211z"/><path fill="#010101" stroke="#010101" stroke-width=".25" d="m154.966 280.48-1.436-2.95.959.023.101-4.034 1.234.031-.1 4.034.961.023zM154.946 267.409l-1.634-2.846.959-.042-.176-4.031 1.234-.054.176 4.031.959-.043zM154.179 254.436l-1.635-2.846.959-.042-.175-4.031 1.234-.054.176 4.032.959-.043zM153.378 241.46l-1.647-2.838.959-.045-.192-4.032 1.233-.058.193 4.03.96-.047zM153.224 228.673l-1.212-3.049.955.095.402-4.015 1.229.123-.401 4.014.955.095z"/><path fill="none" d="M126.622 225.874s9.521-5.16 13.416-2.479c3.895 2.672 4.163 10.59 1.382 12.727s-11.648 2.908-19.442 6.121c-7.794 3.211 43.937-2.91 55.627-.238 11.689 2.676 19.064-6.195 20.734-13.152 1.67-6.959-1.814-10.387-9.605-10.387-7.789 0-10.573 4.277-10.573 4.277"/><path fill="#010101" stroke="#010101" stroke-width=".25" d="m178.31 223.207 1.889-2.684.443.852 3.581-1.862.569 1.096-3.58 1.861.444.853zM189.658 219.99l3.238-.532-.297.914 3.836 1.252-.384 1.174-3.836-1.253-.297.914zM197.194 226.284l1.007 3.124-.947-.159-.666 3.979-1.218-.204.666-3.98-.947-.157zM191.91 236.688l-1.439 2.949-.573-.77-3.239 2.406-.736-.991 3.239-2.407-.574-.77zM180.913 240.809l-2.935 1.47.014-.96-4.035-.057.017-1.234 4.035.055.012-.96zM167.96 240.247l-2.958 1.422.029-.96-4.034-.119.037-1.234 4.033.119.028-.96zM154.913 240.53l-2.886 1.565-.018-.96-4.034.076-.024-1.234 4.035-.077-.019-.96zM141.908 241.182l-2.848 1.631-.04-.959-4.032.17-.052-1.234 4.031-.17-.041-.96zM128.952 241.812l-2.88 1.572-.021-.96-4.035.089-.027-1.235 4.034-.088-.022-.961z"/><path fill="#010101" stroke="#010101" stroke-width=".25" d="m127.797 241.741 2.396-2.244.26.924 3.884-1.094.335 1.188-3.883 1.095.261.925zM140.402 237.734l.978-3.133.683.676 2.839-2.867.878.869-2.84 2.867.684.675zM142.505 224.276l-3.245-.487.563-.778-3.268-2.367.725-1 3.268 2.367.562-.778zM129.194 223.344l-2.027 2.581-.398-.873-3.673 1.671-.511-1.123 3.672-1.673-.399-.873z"/><g><path fill="none" d="m271.062 229.038-1.525 105.566s3.807 6.275 7.242 5.717c3.437-.545 14.209-10.316 12.192-15.627-2.016-5.307-22.068-9.287-30.49-9.91-8.422-.619-19.429-1.896-29.344 1.156-9.915 3.037-14.863 8.369-17.151 14.475-2.288 6.1 7.626 11.432 15.625 11.432s14.226-5.443 18.672-17.908 2.767-23.59.386-40.779c.763-11.063 7.243-9.537 13.72-9.152 6.48.385 9.904 6.488 20.197 8.385 10.296 1.91 30.156.795 35.445-2.666s2.761-5.99-.756-12.961c-1.146-6.475-6.48-3.807-6.48-3.807"/><path fill="#010101" stroke="#010101" stroke-width=".25" d="m312.108 264.857 3.017 1.295-.743.608 2.561 3.119-.955.784-2.56-3.119-.742.611zM317.498 274.736l-.174 3.277-.827-.486-2.043 3.48-1.065-.625 2.042-3.48-.829-.485zM308.221 280.741l-2.639 1.951-.151-.948-3.985.637-.195-1.219 3.984-.638-.152-.948zM295.516 282.064l-2.94 1.457.017-.96-4.035-.071.022-1.236 4.035.072.016-.96zM282.84 281.474l-3.195.748.235-.93-3.911-.992.303-1.196 3.912.99.234-.931zM270.844 277.087l-3.274.226.382-.881-3.702-1.606.492-1.133 3.701 1.605.382-.881zM258.281 272.735l-2.994 1.343.054-.958-4.029-.228.07-1.233 4.029.227.053-.959zM246.901 278.716l.46 3.25-.905-.317-1.335 3.808-1.165-.409 1.334-3.808-.907-.317zM246.417 291.942l1.768 2.765-.956.087.366 4.019-1.23.111-.366-4.018-.957.089zM247.509 304.682l1.405 2.966-.959-.034-.145 4.032-1.234-.044.144-4.032-.96-.033zM246.05 317.423l1.019 3.12-.948-.155-.652 3.983-1.219-.201.652-3.982-.948-.153zM241.929 329.017l-.225 3.274-.82-.499-2.097 3.448-1.056-.642 2.097-3.448-.821-.498zM234.336 337.874l-2.181 2.453-.343-.897-3.768 1.444-.442-1.153 3.768-1.445-.345-.897zM222.756 340.214l-3.273.236.379-.882-3.707-1.594.488-1.135 3.707 1.594.379-.883zM212.553 333.912l-.883-3.162.94.197.825-3.95 1.209.252-.824 3.95.94.195zM218.542 323.804l1.21-3.051.629.725 3.047-2.646.81.932-3.046 2.647.631.724zM229.198 317.723l2.354-2.286.278.919 3.863-1.165.356 1.183-3.863 1.165.278.919zM241.616 315.324l2.884-1.569.019.96 4.034-.08.025 1.235-4.035.081.02.96zM254.484 315.743l3.015-1.296-.069.957 4.025.291-.089 1.231-4.025-.29-.068.958zM267.203 317.206l3.177-.82-.214.936 3.933.903-.277 1.203-3.933-.902-.214.936zM279.527 320.271l3.281-.078-.421.862 3.626 1.771-.542 1.109-3.626-1.769-.421.863zM287.247 326.82l.743 3.196-.93-.236-.998 3.91-1.196-.306.996-3.91-.93-.236zM280.742 336.535l-1.753 2.774-.484-.829-3.483 2.038-.624-1.065 3.483-2.038-.486-.83zM271.75 335.854l-2.309-2.333.916-.285-1.201-3.853 1.179-.368 1.202 3.853.916-.287z"/><path fill="#010101" stroke="#010101" stroke-width=".25" d="m270.882 323.417-1.422-2.959.96.029.121-4.033 1.234.037-.12 4.033.96.028zM271.07 310.423l-1.422-2.958.96.029.121-4.034 1.234.038-.12 4.033.96.028zM271.258 297.429l-1.422-2.958.959.029.122-4.034 1.234.037-.121 4.034.96.028zM271.445 284.436l-1.422-2.958.96.028.121-4.033 1.234.037-.12 4.033.96.029zM271.633 271.442l-1.422-2.958.96.028.121-4.033 1.234.037-.12 4.033.96.029zM271.82 258.449l-1.421-2.958.959.028.121-4.033 1.235.037-.121 4.033.96.028zM272.009 245.455l-1.422-2.958.959.028.121-4.033 1.235.037-.121 4.033.96.028zM272.196 232.461l-1.422-2.958.96.029.121-4.033 1.234.037-.12 4.033.96.028z"/><g><path fill="none" d="M239.835 232.2s9.521-5.158 13.417-2.48c3.895 2.674 4.163 10.592 1.381 12.729-2.78 2.137-11.648 2.91-19.441 6.121-7.794 3.209 43.937-2.912 55.626-.238 11.688 2.674 19.065-6.195 20.735-13.154 1.669-6.959-1.814-10.387-9.605-10.387-7.79 0-10.573 4.277-10.573 4.277"/><path fill="#010101" stroke="#010101" stroke-width=".25" d="m291.525 229.531 1.889-2.684.442.852 3.581-1.862.57 1.095-3.58 1.862.444.852zM302.873 226.314l3.238-.53-.298.912 3.836 1.253-.383 1.174-3.836-1.252-.297.913zM310.408 232.61l1.008 3.123-.947-.158-.667 3.979-1.218-.204.666-3.979-.947-.159zM305.124 243.013l-1.44 2.95-.572-.771-3.239 2.406-.737-.991 3.239-2.406-.573-.771zM294.126 247.135l-2.935 1.469.014-.96-4.035-.056.017-1.235 4.035.056.012-.96zM281.172 246.573l-2.957 1.422.028-.959-4.033-.12.037-1.235 4.033.119.028-.96zM268.126 246.855l-2.885 1.564-.018-.96-4.035.078-.023-1.236 4.034-.076-.019-.961zM255.121 247.507l-2.849 1.631-.04-.959-4.032.17-.052-1.234 4.032-.17-.041-.96zM242.165 248.136l-2.88 1.573-.021-.959-4.035.088-.027-1.235 4.035-.089-.022-.96z"/><path fill="#010101" stroke="#010101" stroke-width=".25" d="m241.012 248.067 2.396-2.244.26.925 3.884-1.095.335 1.188-3.884 1.095.262.925zM253.617 244.057l.978-3.133.682.676 2.84-2.867.877.869-2.839 2.867.683.676zM255.719 230.6l-3.246-.487.563-.778-3.268-2.367.724-1 3.269 2.367.562-.778zM242.408 229.671l-2.028 2.581-.397-.874-3.673 1.671-.512-1.124 3.673-1.672-.398-.873z"/></g></g><g><path fill="none" d="M371.297 223.026s-2.896 86.07 1.742 92.449c4.639 6.381-15.938 8.41-20.866 8.119-4.932-.293-14.778-4.645-13.042-13.625 1.736-8.979 6.951-13.324 12.75-11.299 5.799 2.029 57.099-2.031 65.501-.582 8.404 1.449-28.401 29.568-27.533 22.609.868-6.957.286-95.061.286-95.061"/><path fill="#010101" stroke="#010101" stroke-width=".25" d="m388.988 227.875 1.481 2.929-.959-.009-.039 4.036-1.235-.012.038-4.035-.96-.009zM389.032 240.894l1.479 2.93-.96-.01-.044 4.034-1.235-.013.043-4.035-.96-.009zM389.085 253.887l1.473 2.934-.96-.013-.051 4.035-1.235-.015.05-4.036-.96-.01zM389.123 266.882l1.473 2.933-.96-.012-.051 4.035-1.235-.015.05-4.035-.96-.012zM389.13 279.873l1.464 2.937-.96-.015-.065 4.035-1.234-.02.063-4.034-.96-.015zM389.114 292.865l1.452 2.942-.96-.018-.078 4.034-1.235-.024.079-4.034-.961-.018zM389.029 305.855l1.442 2.948-.96-.022-.093 4.034-1.234-.028.092-4.035-.96-.021zM388.296 319.067l3.013 1.304-.745.606 2.552 3.127-.957.78-2.552-3.126-.743.608zM400.56 318.191l1.591-2.87.531.8 3.36-2.235.685 1.029-3.361 2.234.533.799zM410.955 310.156l1.175-3.065.638.718 3.015-2.681.821.923-3.016 2.682.64.717zM418.553 299.517l-3.136-.969.674-.683-2.875-2.832.866-.88 2.876 2.831.673-.685zM405.653 296.67l-2.892 1.551-.014-.959-4.035.058-.018-1.236 4.035-.057-.015-.961z"/><path fill="#010101" stroke="#010101" stroke-width=".25" d="m392.659 297.071-2.886 1.564-.018-.96-4.034.076-.024-1.235 4.035-.076-.019-.96zM379.667 297.561l-2.878 1.576-.022-.959-4.034.094-.029-1.235 4.034-.094-.023-.96zM366.699 297.922l-2.905 1.529-.006-.96-4.035.025-.008-1.235 4.035-.026-.007-.961zM353.702 297.575l-2.844 1.638-.043-.96-4.031.181-.055-1.234 4.031-.18-.043-.96zM341.553 302.426l.006 3.282-.853-.44-1.85 3.587-1.098-.566 1.85-3.586-.854-.44zM338.61 315.732l2.776 1.751-.828.485 2.041 3.482-1.065.624-2.041-3.481-.828.487zM349.257 324.351l3.087-1.115-.126.951 4.001.528-.162 1.225-4-.527-.125.952zM362.497 323.838l2.663-1.917.14.95 3.992-.587.18 1.221-3.993.588.142.95zM373.972 317.212l-1.52-2.908.96-.004-.015-4.035 1.235-.004.015 4.035.96-.004z"/><path fill="#010101" stroke="#010101" stroke-width=".25" d="m372.393 304.327-1.591-2.871.96-.027-.114-4.034 1.235-.034.114 4.033.96-.027zM371.788 291.369l-1.534-2.901.96-.009-.034-4.035 1.234-.009.035 4.035.961-.01zM371.664 278.398l-1.478-2.931.96.011.045-4.035 1.235.014-.045 4.035.961.009zM371.631 265.424l-1.424-2.957.96.029.117-4.035 1.235.037-.118 4.033.96.027zM371.808 252.431l-1.424-2.957.959.028.118-4.034 1.234.036-.117 4.034.96.027zM372.048 239.451l-1.393-2.971.959.037.159-4.032 1.234.049-.159 4.032.96.037zM372.377 226.467l-1.375-2.98.959.044.184-4.031 1.233.056-.183 4.031.959.043z"/><g><path fill="none" d="M345.168 235.239s9.521-5.16 13.416-2.48c3.894 2.674 4.162 10.592 1.383 12.729-2.781 2.137-11.649 2.908-19.443 6.121-7.793 3.211 43.938-2.91 55.628-.238 11.688 2.674 19.064-6.195 20.734-13.152 1.67-6.961-1.815-10.387-9.606-10.387-7.788 0-10.571 4.277-10.571 4.277"/><path fill="#010101" stroke="#010101" stroke-width=".25" d="m396.859 232.572 1.889-2.685.443.853 3.58-1.863.57 1.096-3.58 1.862.444.852zM408.206 229.356l3.239-.531-.298.913 3.836 1.252-.383 1.174-3.836-1.252-.297.914zM415.74 235.651l1.008 3.123-.947-.158-.667 3.979-1.218-.204.667-3.979-.948-.159zM410.455 246.054l-1.439 2.949-.573-.77-3.239 2.406-.737-.992 3.24-2.406-.574-.771zM399.458 250.174l-2.935 1.469.013-.96-4.035-.056.018-1.234 4.034.055.012-.96zM386.504 249.613l-2.958 1.422.029-.959-4.034-.12.037-1.235 4.033.119.028-.96zM373.456 249.895l-2.885 1.564-.018-.959-4.034.077-.024-1.235 4.035-.077-.02-.961zM360.451 250.547l-2.847 1.631-.041-.959-4.032.17-.052-1.234 4.032-.17-.041-.96zM347.496 251.176l-2.88 1.574-.021-.96-4.034.087-.028-1.234 4.035-.088-.022-.961z"/><path fill="#010101" stroke="#010101" stroke-width=".25" d="m346.346 251.105 2.395-2.243.26.924 3.885-1.094.334 1.188-3.884 1.095.262.924zM358.95 247.098l.978-3.133.682.675 2.839-2.867.878.869-2.839 2.867.683.676zM361.052 233.64l-3.246-.487.563-.778-3.267-2.368.724-1 3.268 2.368.563-.779zM347.741 232.709l-2.027 2.583-.398-.875-3.672 1.672-.512-1.124 3.673-1.672-.399-.874z"/></g></g><g><path fill="none" d="M5.44 35.191s9.521-5.16 13.416-2.48c3.894 2.674 4.162 10.59 1.383 12.729C17.457 47.577 8.59 48.348.795 51.561c-7.792 3.211 43.939-2.912 55.628-.238 11.688 2.674 19.063-6.197 20.733-13.152 1.67-6.959-1.814-10.387-9.606-10.387-7.787 0-10.57 4.275-10.57 4.275"/><path fill="#010101" stroke="#010101" stroke-width=".25" d="m57.131 32.523 1.889-2.683.443.851 3.58-1.86.57 1.095-3.58 1.862.444.852zM68.478 29.309l3.239-.531-.299.912 3.837 1.253-.383 1.174-3.837-1.252-.297.913zM76.012 35.604l1.007 3.123-.947-.159-.667 3.98-1.218-.204.667-3.98-.948-.157zM70.726 46.006l-1.439 2.95-.573-.77-3.239 2.406-.736-.992 3.239-2.406-.574-.771zM59.729 50.126l-2.935 1.47.013-.96-4.035-.056.018-1.235 4.034.055.012-.96zM46.775 49.564l-2.958 1.422.029-.959-4.034-.12.037-1.235 4.033.12.028-.96zM33.728 49.847l-2.885 1.565-.018-.96-4.034.076-.024-1.235 4.034-.076-.019-.961zM20.723 50.5l-2.848 1.631-.041-.96-4.031.17-.052-1.233 4.032-.17-.042-.96zM7.768 51.129l-2.881 1.573-.021-.96-4.034.089-.027-1.235 4.034-.089-.022-.96z"/><path fill="#010101" stroke="#010101" stroke-width=".25" d="m6.618 51.057 2.395-2.243.26.924 3.885-1.094.335 1.189-3.884 1.094.261.925zM19.223 47.051l.978-3.134.682.676 2.839-2.867.878.869-2.839 2.867.683.675zM21.324 33.592l-3.246-.487.563-.777-3.267-2.368.724-1 3.268 2.368.563-.779zM8.013 32.663l-2.027 2.581-.398-.874-3.672 1.672-.512-1.125 3.673-1.671-.399-.874z"/></g><g><path fill="none" d="M139.546 3.232s-26.444 14.758-25.538 29.189c.904 14.428 3.797 29.547 13.679 27.357 3.808-1.951 8.48-4.52 11.859-7.297 5.26-7.504 9.374-12.666 3.846-17.504-4.097-3.584-20.044 7.604-20.044 7.604"/><path fill="#010101" stroke="#010101" stroke-width=".25" d="m131.399 39.223 1.952-2.639.422.862 3.623-1.777.544 1.108-3.623 1.778.425.862zM140.777 37.018l3.239.53-.574.77 3.236 2.411-.738.991-3.236-2.411-.573.771zM142.034 46.152l-.284 3.27-.812-.514-2.159 3.409-1.044-.661 2.16-3.409-.812-.513zM133.563 54.775l-1.735 2.786-.49-.826-3.47 2.061-.63-1.061 3.469-2.062-.492-.825zM123.023 57.933l-3.123-1.009.682-.675-2.839-2.868.878-.869 2.839 2.867.682-.676zM117.479 47.191l-2.152-2.477.933-.226-.948-3.922 1.2-.291.949 3.922.933-.226zM115.205 34.855l-1.161-3.07.954.111.469-4.007 1.227.143-.469 4.009.954.11zM118.856 23.202l.258-3.272.815.508 2.133-3.426 1.048.652-2.132 3.426.816.507zM127.104 13.765l1.225-3.045.626.728 3.059-2.632.805.936-3.059 2.632.628.728zM137.264 6.025l1.735-2.786.49.826 3.47-2.06.63 1.062-3.469 2.06.49.826z"/></g><g><path fill="none" d="m124.742 95.424-11.028 33.082"/><path fill="#010101" stroke="#010101" stroke-width=".25" d="m116.568 123.687-.461-3.25.907.318 1.335-3.808 1.165.408-1.335 3.809.907.316zM120.678 111.358l-.46-3.249.906.318 1.335-3.808 1.166.408-1.335 3.808.906.317zM124.788 99.03l-.461-3.249.906.318 1.336-3.808 1.165.408-1.335 3.808.907.317z"/></g><g><path fill="none" d="M381.223 56.014c4.603 0 20.713.762 21.48 8.439.77 7.676-16.878 9.982-21.48 11.508-4.605 1.537-14.578 3.834-9.208-6.141 5.368-9.968 4.602-13.806 9.208-13.806zm0 0s28.386 9.977 38.362 8.439c9.979-1.539 26.093-6.139 34.532-2.303 8.438 3.84-28.393 24.549-28.393 24.549L423.426 0"/><path fill="#010101" stroke="#010101" stroke-width=".25" d="m422.301 2.248 1.542 2.897-.96.011.044 4.035-1.235.014-.045-4.036-.959.012zM422.646 15.238l1.542 2.898-.96.01.044 4.035-1.235.014-.045-4.035-.96.011zM422.99 28.229l1.542 2.897-.96.011.044 4.035-1.235.014-.044-4.036-.961.012zM423.335 41.219l1.541 2.898-.959.01.044 4.035-1.235.014-.044-4.035-.961.011zM423.679 54.209l1.542 2.898-.96.01.044 4.035-1.235.014-.045-4.035-.96.012zM424.023 67.2l1.542 2.898-.96.01.044 4.035-1.234.014-.045-4.035-.96.011zM424.368 80.19l1.542 2.898-.96.01.044 4.035-1.235.014-.044-4.035-.961.012zM431.898 84.417l1.729-2.79.492.825 3.465-2.067.633 1.06-3.465 2.068.493.824zM442.857 77.321l1.571-2.882.537.796 3.345-2.258.691 1.023-3.345 2.259.539.795zM454.239 69.328l-.299-3.269.889.362 1.522-3.737 1.143.466-1.521 3.737.89.362zM448.33 60.154l-3.11 1.049.146-.949-3.989-.615.189-1.221 3.988.615.145-.95zM435.133 60.605l-2.726 1.829-.108-.955-4.009.455-.14-1.226 4.01-.456-.109-.954zM422.446 63.041l-2.846 1.634-.042-.959-4.032.175-.053-1.234 4.031-.176-.042-.959zM409.771 62.376l-3.121 1.016.156-.947-3.982-.655.2-1.219 3.982.655.155-.948zM397.22 59.631l-3.216.657.262-.923-3.882-1.101.337-1.188 3.882 1.1.261-.924zM384.83 55.972l-3.25.457.318-.905-3.806-1.339.409-1.165 3.807 1.338.318-.906zM377.913 56.291l-.724 3.201-.733-.618-2.601 3.086-.944-.795 2.6-3.087-.736-.618zM371.582 68.027l.547 3.236-.914-.293-1.233 3.842-1.176-.377 1.233-3.843-.915-.292zM375.744 77.621l2.939-1.461-.016.96 4.034.068-.02 1.234-4.035-.067-.015.961zM388.769 75.159l2.374-2.266.269.921 3.873-1.13.346 1.186-3.873 1.13.27.922zM400.792 69.282l.472-3.248.779.56 2.353-3.279 1.003.72-2.352 3.279.782.559z"/><path fill="#010101" stroke="#010101" stroke-width=".25" d="m397.622 57.58-3.21.685.254-.926-3.891-1.067.327-1.191 3.891 1.067.253-.927zM384.699 55.053l-3.026 1.271.077-.957-4.022-.323.099-1.231 4.022.323.076-.958z"/></g><g><path fill="none" d="M400.95 93.048c-9.313-1.554-15.056 19.361-14.939 27.05s22.842 8.807 25.05-6.57c1.793-12.464-.793-18.926-10.111-20.48z"/><path fill="#010101" stroke="#010101" stroke-width=".25" d="m397.654 92.273 3.256.411-.545.791 3.323 2.29-.701 1.017-3.323-2.29-.544.791zM407.58 98.976l2.733 1.815-.838.466 1.958 3.528-1.079.599-1.959-3.528-.84.468zM410.284 110.625l.772 3.189-.932-.229-.961 3.92-1.2-.295.961-3.918-.933-.229zM405.322 121.209l-2.196 2.439-.338-.898-3.777 1.419-.434-1.155 3.777-1.421-.34-.899zM393.535 123.758l-3.093 1.099.131-.951-3.997-.551.168-1.223 3.998.55.13-.952zM387.746 116.798l-.975-3.134.946.169.709-3.973 1.216.218-.709 3.972.945.168zM391.113 104.666l-.153-3.279.872.402 1.687-3.666 1.122.516-1.687 3.666.873.401z"/><path fill="#010101" stroke="#010101" stroke-width=".25" d="m398.584 95.771 1.818-2.732.465.84 3.531-1.954.598 1.08-3.53 1.955.466.84z"/></g><g><path fill="none" d="M309.665 41.109c3.222.648 8.377 14.18 8.377 14.18"/><path fill="#010101" stroke="#010101" stroke-width=".25" d="m319.046 54.619-2.473-2.158.893-.352-1.48-3.755 1.149-.452 1.48 3.754.893-.353zM312.833 42.834l-3.06-1.188.721-.635-2.668-3.028.927-.816 2.668 3.027.72-.635z"/><g><path fill="none" d="M317.481 38.787s9.677-6.951 13.712.75c4.033 7.699 2.896 10.605-1.504 14.273-4.4 3.666-8.075 6.387-8.075 6.387"/><path fill="#010101" stroke="#010101" stroke-width=".25" d="m321.628 61.675 1.449-2.945.57.773 3.248-2.395.732.994-3.247 2.395.571.773zM331.697 52.998l.476-3.248.779.561 2.357-3.276 1.002.721-2.356 3.276.78.56zM332.169 40.274l-2.905-1.528.788-.549-2.306-3.311 1.013-.705 2.307 3.31.787-.55zM319.854 36.07l-1.825 2.728-.463-.841-3.535 1.945-.595-1.082 3.535-1.945-.464-.841z"/></g></g><g><path fill="none" d="M304.468 78.463s10.88-7.008 14.125-1.867 2.886 10.227-12.026 17.518c-13.752 6.729-7.636-14.014-3.819-14.014"/><path fill="#010101" stroke="#010101" stroke-width=".25" d="m297.843 85.937.645 3.217-.923-.265-1.114 3.878-1.187-.341 1.114-3.879-.923-.264zM304.203 96.032l2.306-2.335.296.913 3.838-1.246.381 1.175-3.837 1.246.297.913zM316.118 89.744l.96-3.138.686.672 2.823-2.883.883.864-2.824 2.883.687.671zM319.745 77.495l-3.094-1.095.701-.656-2.759-2.946.901-.844 2.759 2.945.7-.657zM306.876 75.778l-1.861 2.703-.452-.847-3.561 1.898-.581-1.09 3.561-1.899-.453-.847z"/></g><g><path fill="none" d="M520.635 42.814c24.892 5.971 7.728 29.615-3.539 28.166"/><path fill="#010101" stroke="#010101" stroke-width=".25" d="m518.523 71.839 2.487-2.143.221.934 3.926-.932.285 1.201-3.925.934.223.934zM530.097 65.22l.44-3.252.786.552 2.321-3.301 1.009.71-2.32 3.301.787.552zM533.534 52.38l-2.307-2.333.916-.286-1.2-3.852 1.179-.367 1.2 3.852.917-.287zM524.203 43.342l-3.281-.061.457-.844-3.548-1.923.589-1.086 3.548 1.922.457-.845z"/></g><g><path fill="none" d="M513.58 104.932s10.88-7.006 14.125-1.865c3.244 5.141 2.885 10.227-12.026 17.518-13.752 6.729-7.636-14.014-3.819-14.014"/><path fill="#010101" stroke="#010101" stroke-width=".25" d="m506.955 112.406.646 3.218-.923-.266-1.115 3.879-1.187-.341 1.114-3.879-.923-.264zM513.313 122.503l2.307-2.335.296.914 3.839-1.246.381 1.174-3.838 1.246.297.914zM525.229 116.215l.96-3.138.687.672 2.823-2.883.882.864-2.822 2.883.686.672zM528.857 103.966l-3.093-1.095.7-.657-2.758-2.945.901-.844 2.759 2.945.7-.658zM515.989 102.247l-1.861 2.703-.451-.847-3.562 1.897-.581-1.09 3.562-1.898-.453-.847z"/></g><g><path fill="none" d="M42.287 52.893c-9.256-1.881-16.49 21.578-16.909 30.234s22.35 10.232 25.645-7.041c2.671-14.008.521-21.316-8.736-23.193z"/><path fill="#010101" stroke="#010101" stroke-width=".25" d="m45.138 56.678 3.21.686-.611.741 3.117 2.564-.785.954-3.116-2.563-.61.742zM49.904 66.21l1.445 2.947-.96-.021-.089 4.034-1.235-.027.089-4.034-.961-.021zM48.448 78.22l-.177 3.278-.828-.488-2.047 3.478-1.064-.627 2.046-3.477-.828-.487zM40.425 86.545l-2.151 2.479-.355-.892-3.75 1.491-.456-1.148 3.75-1.491-.355-.892zM29.484 87.088l-2.858-1.613.804-.525-2.208-3.378 1.034-.676 2.208 3.378.803-.526zM27.856 76.147l-.678-3.211.925.256 1.075-3.889 1.19.328-1.074 3.89.926.255zM31.838 64.18l.314-3.267.806.521 2.191-3.389 1.038.671-2.191 3.389.807.52zM39.601 55.299l2.144-2.484.357.891 3.746-1.498.459 1.146-3.746 1.499.357.892z"/></g><g><path fill="none" d="M711.602 18.34S685.16 33.1 686.065 47.529c.903 14.43 3.798 29.545 13.681 27.359 3.807-1.955 8.479-4.523 11.856-7.299 5.26-7.506 9.148-10.852 2.928-20.531-2.944-4.578-17.971 11.061-17.971 11.061"/><path fill="#010101" stroke="#010101" stroke-width=".25" d="m696.74 59.606 1.056-3.107.665.692 2.91-2.795.856.89-2.91 2.796.666.692zM706.234 51.101l1.635-2.846.52.808 3.393-2.183.668 1.039-3.393 2.183.52.807zM714.562 50.334l2.448 2.186-.897.342 1.437 3.771-1.154.44-1.437-3.771-.897.343zM714.424 61.402l-.459 3.25-.782-.557-2.34 3.288-1.006-.716 2.339-3.288-.783-.556zM705.618 69.884l-1.733 2.786-.49-.825-3.47 2.062-.631-1.062 3.469-2.062-.492-.825zM695.08 73.042l-3.123-1.009.683-.676-2.839-2.867.878-.869 2.839 2.867.681-.676zM689.536 62.3l-2.152-2.477.933-.226-.949-3.922 1.2-.29.95 3.922.933-.227zM687.262 49.964l-1.16-3.07.953.112.469-4.008 1.227.144-.469 4.007.953.111zM690.912 38.311l.259-3.272.814.507 2.133-3.425 1.048.652-2.132 3.426.817.507zM699.16 28.874l1.225-3.045.626.727 3.058-2.631.806.936-3.059 2.632.627.727zM709.319 21.133l1.736-2.786.49.826 3.47-2.06.63 1.062-3.47 2.06.491.826z"/><g><path fill="none" d="M759.052 47.883s10.527-8.578 17.277-2.869c8.542 7.225 8.107 27.67-14.708 26.928-19.733-.643-6.21-24.053-1.54-24.053"/><path fill="#010101" stroke="#010101" stroke-width=".25" d="m760.727 45.837-1.353 2.99-.595-.754-3.169 2.499-.764-.969 3.168-2.499-.596-.754zM752.185 55.91l.055 3.281-.86-.426-1.795 3.613-1.106-.549 1.795-3.614-.861-.426zM752.952 69.445l3.277-.166-.397.874 3.672 1.673-.512 1.123-3.673-1.672-.397.874zM765.833 72.23l2.556-2.06.19.941 3.955-.803.246 1.211-3.955.803.193.941zM777.91 66.96l.669-3.212.744.606 2.547-3.131.958.779-2.547 3.131.746.605zM782.238 54.282l-2.192-2.443.93-.24-1.013-3.907 1.195-.309 1.013 3.906.93-.242zM774.466 43.351l-3.197.739.238-.93-3.909-1.002.306-1.196 3.909 1.001.238-.93z"/><path fill="#010101" stroke="#010101" stroke-width=".25" d="m761.213 44.995-1.614 2.858-.525-.804-3.379 2.206-.674-1.033 3.377-2.207-.526-.804z"/></g></g><g><path fill="none" d="m704.453 75.989 61.274 1.803"/><path fill="#010101" stroke="#010101" stroke-width=".25" d="m759.852 76.434-2.98 1.378.043-.959-4.031-.182.055-1.233 4.032.18.042-.959zM746.862 76.052l-2.979 1.378.043-.959-4.031-.182.055-1.233 4.031.18.042-.959zM733.872 75.67l-2.978 1.378.043-.959-4.032-.182.056-1.233 4.031.18.042-.959zM720.883 75.288l-2.979 1.377.043-.959-4.031-.182.056-1.233 4.031.181.042-.96zM707.894 74.906l-2.979 1.377.043-.959-4.031-.181.055-1.234 4.032.181.042-.96z"/></g><g><path fill="none" d="M725.373 102.004s10.881-7.006 14.125-1.865c3.245 5.141 2.887 10.225-12.024 17.516-13.752 6.729-7.638-14.012-3.819-14.012"/><path fill="#010101" stroke="#010101" stroke-width=".25" d="m718.75 109.476.646 3.217-.923-.265-1.116 3.878-1.186-.341 1.114-3.879-.923-.264zM725.107 119.576l2.306-2.336.297.913 3.838-1.245.381 1.175-3.838 1.245.298.914zM737.023 113.288l.961-3.138.686.671 2.823-2.883.883.864-2.823 2.884.686.671zM740.65 101.037l-3.093-1.095.7-.656-2.758-2.945.9-.844 2.76 2.944.7-.657zM727.782 99.32l-1.862 2.702-.451-.847-3.562 1.897-.58-1.09 3.561-1.897-.452-.847z"/></g><g><path fill="none" d="M811.649 48.893s10.527-7.174 17.275-2.4c8.542 6.047 8.107 23.146-14.708 22.527-19.733-.539-6.21-20.119-1.541-20.119"/><path fill="#010101" stroke="#010101" stroke-width=".25" d="m808.559 50.512-.918 3.151-.695-.663-2.784 2.922-.893-.852 2.783-2.922-.697-.662zM802.325 63.815l2.959 1.421-.766.577 2.426 3.224-.987.743-2.427-3.224-.766.578zM814.219 69.27l3.051-1.211-.097.955 4.015.403-.123 1.229-4.015-.403-.095.956zM827.112 66.946l1.881-2.69.445.85 3.575-1.873.573 1.094-3.574 1.873.447.85zM834.571 56.211l-1.422-2.957.96.028.12-4.033 1.235.037-.12 4.033.96.028zM827.377 44.976l-3.168.858.204-.938-3.944-.855.261-1.207 3.944.854.203-.938zM814.034 46.187l-1.838 2.719-.459-.843-3.544 1.93-.589-1.084 3.542-1.931-.459-.843z"/><g><path fill="none" d="M835.305 68.631c8.421-.352 22.792-.816 34.48 1.857s19.065-6.197 20.735-13.154c1.668-6.959-1.814-10.387-9.606-10.387"/><path fill="#010101" stroke="#010101" stroke-width=".25" d="m877.555 47.146 3.238-.53-.298.913 3.836 1.252-.383 1.174-3.836-1.252-.298.913zM888.271 50.81l1.913 2.667-.951.138.58 3.993-1.222.178-.58-3.994-.95.139zM886.919 62.071l-.735 3.198-.733-.621-2.611 3.076-.942-.8 2.612-3.076-.733-.62zM877.485 68.792l-2.834 1.656-.047-.959-4.031.204-.062-1.233 4.03-.205-.05-.959zM864.749 68.734l-3.082 1.129.122-.952-4.003-.51.156-1.225 4.003.51.12-.953zM851.76 67.449l-3.006 1.318.062-.958-4.027-.261.08-1.232 4.027.261.061-.959zM838.696 67.404l-2.918 1.502.003-.96-4.036-.01.004-1.235 4.035.01.002-.961z"/></g></g><g><path fill="none" d="M837.542 103.161s10.881-7.008 14.126-1.869c3.243 5.143 2.885 10.229-12.026 17.52-13.752 6.73-7.637-14.014-3.819-14.014"/><path fill="#010101" stroke="#010101" stroke-width=".25" d="m830.917 110.636.646 3.218-.923-.265-1.116 3.878-1.186-.341 1.114-3.878-.923-.265zM837.278 120.73l2.306-2.336.297.913 3.838-1.245.382 1.174-3.838 1.246.297.914zM849.194 114.44l.96-3.138.686.672 2.823-2.884.883.865-2.823 2.883.687.671zM852.819 102.191l-3.093-1.095.7-.656-2.759-2.945.901-.844 2.759 2.945.7-.658zM839.951 100.476l-1.862 2.703-.451-.847-3.562 1.897-.581-1.089 3.562-1.898-.453-.848z"/></g><g><path fill="none" d="M472.383 242.956s10.526-7.174 17.276-2.398c8.542 6.045 8.107 23.145-14.708 22.525-19.733-.537-6.21-20.119-1.541-20.119"/><path fill="#010101" stroke="#010101" stroke-width=".25" d="m469.293 244.575-.917 3.15-.695-.662-2.784 2.922-.894-.853 2.784-2.922-.696-.661zM463.059 257.878l2.959 1.42-.767.578 2.426 3.224-.986.742-2.427-3.223-.767.579zM474.953 263.333l3.051-1.212-.097.955 4.016.403-.123 1.229-4.016-.403-.095.956zM487.848 261.008l1.88-2.689.446.85 3.574-1.874.573 1.094-3.574 1.874.447.851zM495.306 250.275l-1.422-2.958.96.028.12-4.033 1.234.037-.12 4.033.96.028zM488.11 239.04l-3.168.858.204-.939-3.944-.855.262-1.207 3.943.855.203-.939zM474.768 240.249l-1.837 2.719-.46-.843-3.544 1.93-.59-1.084 3.543-1.93-.46-.843z"/><g><path fill="none" d="M496.038 262.692c8.421-.35 22.792-.814 34.479 1.861 11.689 2.672 19.068-6.199 20.737-13.154 1.667-6.959-1.814-10.391-9.605-10.391"/><path fill="#010101" stroke="#010101" stroke-width=".25" d="m538.291 241.207 3.239-.53-.298.912 3.835 1.254-.382 1.174-3.836-1.253-.298.913zM549.006 244.874l1.912 2.667-.949.137.579 3.993-1.223.178-.579-3.993-.951.139zM547.651 256.134l-.735 3.199-.732-.622-2.612 3.077-.941-.8 2.611-3.076-.732-.621zM538.219 262.856l-2.834 1.655-.048-.959-4.03.205-.064-1.233 4.03-.205-.049-.959zM525.482 262.798l-3.082 1.129.122-.952-4.002-.511.156-1.225 4.003.511.12-.954zM512.493 261.512l-3.006 1.319.063-.958-4.027-.262.081-1.233 4.026.261.061-.958zM499.431 261.465l-2.919 1.501.003-.96-4.036-.01.003-1.236 4.036.011.002-.96z"/></g></g><g><path fill="none" d="M508.693 244.426s-11.875 79.119-9.271 91.002c2.607 11.879-30.146 10.424-38.258-2.902s33.037-19.992 33.037-19.992 30.796-6.928 32.461-.584c2.898 11.014 6.376 17.395 0 19.131-6.374 1.734-5.505-4.348-4.634-11.305 4.346-30.43 5.503-70.133 5.503-70.133"/><path fill="#010101" stroke="#010101" stroke-width=".25" d="m526.244 252.992 1.333 2.999-.958-.058-.241 4.028-1.233-.074.241-4.027-.959-.057zM525.602 265.963l1.311 3.008-.958-.063-.27 4.026-1.232-.083.27-4.026-.959-.064zM524.805 278.905l1.242 3.037-.956-.086-.362 4.019-1.23-.111.361-4.018-.957-.085zM523.841 291.864l1.242 3.038-.957-.086-.361 4.018-1.231-.11.362-4.019-.957-.085zM522.537 304.746l1.125 3.083-.952-.122-.516 4.001-1.225-.158.515-4.002-.952-.122zM521.054 317.695l1.228 3.043-.956-.09-.38 4.018-1.229-.117.38-4.017-.957-.09zM522.997 330.649l3.281-.062-.425.861 3.617 1.789-.548 1.106-3.617-1.788-.425.862zM530.735 322.891l-2.016-2.589.944-.176-.738-3.966 1.214-.226.738 3.967.944-.177z"/><path fill="#010101" stroke="#010101" stroke-width=".25" d="m525.833 310.283-3.279.136.406-.87-3.657-1.706.522-1.119 3.657 1.705.406-.87zM512.662 308.41l-2.776 1.751-.081-.957-4.021.341-.104-1.23 4.02-.342-.082-.957zM499.716 310.284l-2.631 1.961-.155-.948-3.983.654-.2-1.219 3.982-.653-.156-.949zM486.908 312.873l-2.502 2.123-.215-.936-3.932.903-.278-1.204 3.934-.903-.217-.936zM474.353 316.623l-2.257 2.382-.316-.906-3.811 1.325-.406-1.166 3.811-1.326-.316-.907zM462.023 322.745l-.111 3.28-.837-.471-1.977 3.518-1.077-.605 1.977-3.517-.838-.471zM463.061 335.541l3.211.677-.608.743 3.122 2.556-.782.956-3.123-2.556-.607.744zM474.444 342.317l3.196-.751-.236.931 3.913.988-.302 1.197-3.912-.987-.235.931zM487.581 344.172l2.709-1.851.116.953 4.006-.489.15 1.225-4.005.49.117.954zM499.702 338.405l-.681-3.211.925.255 1.072-3.891 1.19.328-1.071 3.891.926.254zM500.506 325.267l-1.374-2.98.959.044.185-4.031 1.235.057-.186 4.031.959.043zM501.384 312.365l-1.222-3.046.956.093.389-4.017 1.229.119-.388 4.017.956.092zM502.67 299.475l-1.12-3.085.952.124.52-4.002 1.225.16-.52 4.001.952.123zM504.158 286.576l-1.095-3.094.951.132.553-3.998 1.223.17-.553 3.997.951.131zM505.816 273.696l-1.071-3.103.95.14.586-3.992 1.222.178-.585 3.994.95.138zM507.546 260.829l-1.041-3.113.949.149.624-3.988 1.22.192-.624 3.986.949.149zM509.37 247.969l-1.022-3.118.948.153.647-3.982 1.219.198-.647 3.983.948.153z"/></g><g><path fill="none" d="M583.782 247.075s8.027-4.525 11.31-2.176c3.285 2.344 3.511 9.287 1.166 11.162-2.344 1.871-11.854 4.955-18.423 7.771-16.177 6.932 53.399 1.602 68.348 2.67"/><path fill="#010101" stroke="#010101" stroke-width=".25" d="m636.831 265.236-2.922 1.493.005-.96-4.035-.022.007-1.235 4.035.022.005-.96zM623.819 265.537l-2.895 1.545-.012-.96-4.035.049-.016-1.235 4.035-.05-.012-.96zM610.828 265.895l-2.896 1.544-.011-.96-4.035.048-.015-1.235 4.035-.048-.012-.96zM597.87 266.183l-2.937 1.464.014-.959-4.034-.063.019-1.235 4.035.063.013-.961zM584.96 265.974l-3.016 1.295.07-.957-4.025-.292.089-1.231 4.026.291.068-.958z"/><path fill="#010101" stroke="#010101" stroke-width=".25" d="m579.493 264.454 2.198-2.437.337.899 3.779-1.417.433 1.156-3.778 1.417.338.899zM591.589 259.527l2.05-2.563.389.877 3.689-1.638.501 1.129-3.688 1.638.391.877zM598.144 248.628l-2.572-2.04.876-.392-1.653-3.682 1.126-.506 1.654 3.681.876-.395zM586.414 244.608l-2.089 2.532-.376-.883-3.712 1.583-.484-1.135 3.711-1.584-.378-.883z"/></g><g><path fill="none" d="M657.567 211.157s-26.442 14.758-25.538 29.188 3.798 29.547 13.681 27.359c3.807-1.953 8.479-4.521 11.857-7.297 5.26-7.506 9.375-12.668 3.846-17.506-4.097-3.582-20.043 7.604-20.043 7.604"/><path fill="#010101" stroke="#010101" stroke-width=".25" d="m649.421 247.146 1.952-2.639.423.862 3.622-1.778.544 1.11-3.622 1.777.424.862zM658.799 244.941l3.239.53-.574.77 3.236 2.411-.737.99-3.236-2.41-.574.77zM660.055 254.076l-.284 3.269-.811-.513-2.16 3.408-1.043-.66 2.159-3.41-.812-.513zM651.585 262.699l-1.734 2.786-.491-.825-3.469 2.061-.631-1.061 3.469-2.063-.492-.825zM641.046 265.857l-3.123-1.009.681-.675-2.838-2.868.878-.868 2.838 2.867.682-.677zM635.502 255.116l-2.152-2.478.932-.225-.949-3.923 1.2-.29.95 3.922.933-.227zM633.227 242.779l-1.161-3.07.954.112.469-4.008 1.227.144-.47 4.007.954.112zM636.877 231.125l.259-3.271.815.508 2.133-3.426 1.048.652-2.132 3.426.815.507zM645.126 221.689l1.225-3.045.626.728 3.059-2.631.806.936-3.06 2.632.627.727zM655.285 213.95l1.736-2.786.49.825 3.469-2.059.63 1.061-3.469 2.061.491.825z"/></g><g><path fill="none" d="M611.126 249.528s-11.875 79.117-9.271 91c2.606 11.881-30.147 10.424-38.258-2.902s33.037-19.992 33.037-19.992 30.795-6.926 32.462-.584c2.896 11.014 6.374 17.395 0 19.131-6.375 1.736-5.507-4.348-4.636-11.305 4.346-30.43 5.503-70.133 5.503-70.133"/><path fill="#010101" stroke="#010101" stroke-width=".25" d="m628.677 258.09 1.333 2.999-.958-.057-.242 4.028-1.233-.074.241-4.028-.959-.056zM628.034 271.062l1.312 3.008-.958-.064-.27 4.027-1.232-.083.269-4.027-.958-.063zM627.237 284.003l1.242 3.039-.956-.086-.362 4.018-1.229-.11.361-4.02-.957-.085zM626.273 296.962l1.243 3.038-.956-.085-.363 4.018-1.23-.11.362-4.02-.957-.085zM624.97 309.845l1.125 3.083-.952-.123-.516 4.002-1.226-.157.516-4.003-.952-.121zM623.486 322.793l1.229 3.044-.956-.09-.38 4.017-1.23-.116.38-4.018-.956-.088zM625.429 335.749l3.281-.063-.426.861 3.617 1.788-.547 1.107-3.617-1.787-.424.861zM633.169 327.993l-2.017-2.589.944-.176-.738-3.967 1.214-.226.739 3.967.944-.176z"/><path fill="#010101" stroke="#010101" stroke-width=".25" d="m628.269 315.382-3.28.137.406-.87-3.658-1.705.523-1.119 3.657 1.704.405-.871zM615.097 313.51l-2.777 1.75-.081-.956-4.02.341-.105-1.23 4.021-.342-.082-.957zM602.151 315.383l-2.631 1.961-.156-.947-3.982.652-.199-1.218 3.981-.653-.156-.948zM589.345 317.971l-2.503 2.124-.215-.935-3.933.903-.276-1.204 3.933-.903-.216-.936zM576.787 321.722l-2.257 2.383-.315-.907-3.812 1.326-.405-1.167 3.812-1.325-.317-.907zM564.459 327.843l-.112 3.281-.837-.471-1.978 3.517-1.076-.605 1.977-3.518-.838-.469zM565.493 340.64l3.212.678-.608.743 3.122 2.557-.782.955-3.124-2.556-.607.743zM576.877 347.417l3.195-.751-.235.93 3.912.988-.302 1.198-3.913-.988-.233.932zM590.012 349.273l2.71-1.852.116.954 4.006-.49.149 1.226-4.006.489.118.953zM602.136 343.506l-.682-3.211.926.255 1.071-3.89 1.191.328-1.072 3.89.927.254zM602.938 330.369l-1.373-2.981.959.044.186-4.031 1.233.057-.185 4.031.96.044zM603.817 317.467l-1.221-3.047.955.093.389-4.016 1.23.119-.389 4.016.956.092zM605.104 304.577l-1.121-3.085.952.124.521-4.002 1.225.16-.521 4.001.952.123zM606.591 291.677l-1.096-3.094.95.132.554-3.997 1.224.169-.554 3.997.952.131zM608.249 278.797l-1.071-3.101.95.138.586-3.992 1.222.179-.585 3.993.95.139zM609.979 265.93l-1.041-3.112.949.148.624-3.986 1.219.19-.623 3.988.949.147zM611.803 253.071l-1.023-3.118.948.153.648-3.982 1.219.198-.648 3.982.949.154z"/></g><g><path fill="none" d="M686.978 247.909c3.222.646 14.281 23.949 14.281 23.949"/><path fill="#010101" stroke="#010101" stroke-width=".25" d="m702.928 272.582-2.603-2 .869-.407-1.71-3.655 1.119-.523 1.71 3.655.87-.408zM697.059 260.927l-2.694-1.875.85-.447-1.881-3.571 1.093-.576 1.881 3.571.849-.448zM690.131 249.66l-3.049-1.213.726-.629-2.644-3.049.934-.81 2.642 3.049.726-.629z"/><g><path fill="none" d="M694.795 245.584s9.674-6.951 13.71.75c4.032 7.701 2.896 10.607-1.504 14.275a198.704 198.704 0 0 1-8.074 6.385"/><path fill="#010101" stroke="#010101" stroke-width=".25" d="m698.939 268.473 1.451-2.944.569.773 3.248-2.394.732.994-3.247 2.394.571.773zM709.008 259.797l.475-3.248.78.561 2.356-3.276 1.003.721-2.355 3.277.78.559zM709.481 247.073l-2.904-1.529.788-.547-2.306-3.312 1.013-.706 2.307 3.311.787-.549zM697.167 242.868l-1.824 2.727-.463-.841-3.535 1.946-.596-1.082 3.535-1.947-.465-.84z"/></g><g><path fill="none" d="m702.746 267.995 61.272 1.802"/><path fill="#010101" stroke="#010101" stroke-width=".25" d="m758.144 268.441-2.979 1.377.043-.959-4.031-.182.055-1.233 4.032.181.042-.96zM745.154 268.059l-2.978 1.377.043-.959-4.031-.182.055-1.233 4.031.181.042-.96zM732.165 267.677l-2.979 1.377.043-.959-4.032-.181.056-1.234 4.031.181.042-.96zM719.176 267.294l-2.98 1.377.043-.959-4.031-.181.056-1.234 4.031.181.042-.96zM706.187 266.913l-2.98 1.377.043-.959-4.031-.182.055-1.233 4.032.18.042-.96z"/></g><g><path fill="none" d="M774.392 211.719s-26.444 14.756-25.539 29.188c.904 14.428 3.798 29.547 13.68 27.359 3.807-1.953 8.479-4.521 11.859-7.299 5.26-7.504 9.375-12.666 3.845-17.506-4.096-3.582-20.042 7.605-20.042 7.605"/><path fill="#010101" stroke="#010101" stroke-width=".25" d="m766.247 247.706 1.951-2.639.423.862 3.623-1.777.544 1.108-3.623 1.778.424.862zM775.623 245.504l3.238.531-.573.77 3.236 2.41-.738.991-3.236-2.411-.572.772zM776.878 254.638l-.284 3.271-.811-.515-2.16 3.409-1.043-.661 2.159-3.409-.811-.513zM768.407 263.261l-1.734 2.786-.49-.825-3.469 2.062-.631-1.062 3.469-2.061-.492-.826zM757.868 266.418l-3.123-1.008.683-.675-2.839-2.868.877-.869 2.84 2.868.681-.677zM752.325 255.677l-2.153-2.477.933-.226-.949-3.923 1.2-.29.95 3.922.933-.226zM750.05 243.34l-1.16-3.069.953.111.47-4.007 1.226.143-.469 4.008.954.111zM753.699 231.687l.259-3.271.815.507 2.133-3.425 1.048.652-2.132 3.426.816.507zM761.949 222.25l1.225-3.044.626.728 3.059-2.632.806.937-3.06 2.632.627.727zM772.109 214.511l1.736-2.785.49.826 3.47-2.06.63 1.062-3.47 2.06.491.826z"/></g></g><g><path fill="none" d="M723.405 255.174s-11.875 79.121-9.271 91.002c2.606 11.881-30.148 10.426-38.258-2.904-8.111-13.324 33.036-19.99 33.036-19.99s30.795-6.928 32.462-.582c2.897 11.014 6.375 17.393 0 19.131-6.375 1.736-5.506-4.348-4.636-11.307 4.347-30.426 5.504-70.131 5.504-70.131"/><path fill="#010101" stroke="#010101" stroke-width=".25" d="m740.956 263.744 1.333 2.999-.958-.058-.242 4.028-1.233-.074.242-4.027-.959-.057zM740.313 276.714l1.312 3.009-.958-.064-.271 4.026-1.231-.082.27-4.026-.959-.064zM739.517 289.657l1.242 3.038-.956-.087-.363 4.019-1.229-.111.361-4.018-.957-.085zM738.552 302.616l1.242 3.038-.956-.087-.362 4.019-1.23-.111.361-4.018-.957-.085zM737.249 315.498l1.124 3.084-.952-.124-.516 4.002-1.224-.158.515-4.002-.953-.122zM735.764 328.447l1.228 3.043-.955-.091-.38 4.018-1.229-.117.379-4.017-.956-.089zM737.709 341.399l3.281-.062-.425.861 3.618 1.789-.548 1.106-3.617-1.788-.425.862zM745.448 333.64l-2.017-2.589.944-.176-.738-3.966 1.214-.227.738 3.968.944-.177z"/><path fill="#010101" stroke="#010101" stroke-width=".25" d="m740.545 321.033-3.279.135.406-.87-3.657-1.706.522-1.119 3.657 1.706.406-.871zM727.373 319.158l-2.776 1.751-.081-.957-4.021.34-.104-1.23 4.02-.341-.082-.957zM714.428 321.032l-2.632 1.961-.155-.948-3.982.653-.2-1.218 3.982-.653-.156-.949zM701.62 323.62l-2.502 2.124-.215-.936-3.932.903-.277-1.204 3.933-.903-.216-.936zM689.064 327.371l-2.256 2.382-.316-.907-3.81 1.326-.407-1.167 3.812-1.326-.316-.906zM676.736 333.494l-.112 3.28-.836-.471-1.977 3.518-1.078-.606 1.978-3.517-.838-.47zM677.775 346.289l3.211.678-.608.742 3.122 2.558-.783.955-3.122-2.556-.608.744zM689.158 353.066l3.195-.75-.235.931 3.912.987-.302 1.197-3.913-.987-.234.931zM702.293 354.921l2.71-1.851.116.953 4.005-.489.15 1.225-4.005.49.118.954zM714.415 349.153l-.682-3.21.926.255 1.071-3.891 1.191.327-1.07 3.891.925.254zM715.218 336.015l-1.373-2.98.959.045.185-4.032 1.234.057-.186 4.031.96.043zM716.097 323.114l-1.222-3.047.955.093.39-4.017 1.229.119-.389 4.017.956.092zM717.383 310.223l-1.121-3.085.952.124.521-4.002 1.224.16-.521 4.001.954.123zM718.87 297.324l-1.096-3.094.952.132.552-3.997 1.224.169-.553 3.997.951.131zM720.528 284.444l-1.071-3.103.95.14.586-3.992 1.222.178-.585 3.993.95.138zM722.258 271.577l-1.041-3.113.948.149.624-3.988 1.22.192-.623 3.986.949.148zM724.082 258.717l-1.022-3.119.947.154.647-3.982 1.219.197-.646 3.984.948.153z"/></g><g><path fill="none" d="m188.453 66.989 61.274 1.803"/><path fill="#010101" stroke="#010101" stroke-width=".25" d="m243.851 67.434-2.979 1.378.043-.959-4.031-.182.055-1.233 4.032.18.042-.959zM230.862 67.052l-2.979 1.378.043-.959-4.031-.182.055-1.233 4.031.18.042-.959zM217.872 66.67l-2.979 1.378.043-.959-4.031-.182.055-1.233 4.032.18.042-.959zM204.883 66.288l-2.979 1.377.043-.959-4.031-.182.055-1.233 4.031.181.042-.96zM191.894 65.906l-2.979 1.377.043-.959-4.031-.181.055-1.234 4.031.181.042-.96z"/></g><g><path fill="none" d="M227.546 3.232s-26.444 14.758-25.538 29.189c.904 14.428 3.797 29.547 13.679 27.357 3.808-1.951 8.48-4.52 11.859-7.297 5.26-7.504 9.374-12.666 3.846-17.504-4.097-3.584-20.044 7.604-20.044 7.604"/><path fill="#010101" stroke="#010101" stroke-width=".25" d="m219.399 39.223 1.952-2.639.422.862 3.623-1.777.544 1.108-3.623 1.778.425.862zM228.777 37.018l3.239.53-.574.77 3.236 2.411-.738.99-3.236-2.41-.573.771zM230.034 46.152l-.284 3.27-.812-.514-2.159 3.409-1.044-.661 2.16-3.409-.812-.513zM221.562 54.775l-1.734 2.786-.491-.826-3.469 2.061-.631-1.061 3.47-2.062-.492-.825zM211.023 57.933l-3.123-1.009.682-.675-2.839-2.868.878-.869 2.839 2.867.682-.676zM205.479 47.191l-2.152-2.477.933-.226-.948-3.922 1.2-.291.949 3.922.933-.226zM203.205 34.855l-1.161-3.07.954.111.469-4.007 1.227.143-.469 4.009.954.11zM206.856 23.202l.258-3.272.815.508 2.133-3.426 1.048.652-2.132 3.426.816.507zM215.104 13.765l1.225-3.045.626.728 3.059-2.632.806.936-3.059 2.632.627.728zM225.263 6.025l1.736-2.786.489.826 3.47-2.06.631 1.062-3.47 2.06.491.826z"/></g><g><path fill="none" d="m212.742 95.424-11.028 33.082"/><path fill="#010101" stroke="#010101" stroke-width=".25" d="m204.568 123.687-.461-3.25.907.318 1.335-3.808 1.165.408-1.335 3.809.907.316zM208.678 111.359l-.46-3.25.906.318 1.335-3.808 1.166.409-1.335 3.808.906.317zM212.788 99.031l-.461-3.25.906.318 1.336-3.808 1.165.409-1.335 3.808.907.317z"/></g><g><path fill="none" d="m291.453 65.989 61.274 1.803"/><path fill="#010101" stroke="#010101" stroke-width=".25" d="m346.851 66.434-2.979 1.378.043-.959-4.031-.182.055-1.233 4.032.18.042-.959zM333.862 66.052l-2.979 1.378.043-.959-4.031-.182.055-1.233 4.031.18.042-.959zM320.872 65.67l-2.979 1.378.044-.959-4.032-.182.055-1.233 4.032.18.042-.959zM307.883 65.288l-2.979 1.377.043-.959-4.031-.182.055-1.233 4.031.181.042-.96zM294.894 64.906l-2.979 1.377.043-.959-4.031-.181.055-1.234 4.031.181.042-.96z"/></g><g><path fill="none" d="M598.782 50.075s8.027-4.525 11.31-2.176c3.285 2.344 3.511 9.287 1.166 11.162-2.344 1.871-11.854 4.955-18.423 7.771-16.177 6.932 53.399 1.602 68.348 2.67"/><path fill="#010101" stroke="#010101" stroke-width=".25" d="m651.831 68.235-2.923 1.494.006-.96-4.035-.022.007-1.235 4.035.022.004-.961zM638.819 68.537l-2.895 1.545-.012-.96-4.035.049-.016-1.235 4.035-.05-.012-.96zM625.828 68.895l-2.895 1.544-.012-.96-4.035.048-.015-1.235 4.035-.048-.012-.961zM612.87 69.183l-2.936 1.464.014-.959-4.035-.063.02-1.234 4.034.062.014-.961zM599.96 68.974l-3.016 1.295.07-.957-4.025-.292.089-1.231 4.026.291.068-.958z"/><path fill="#010101" stroke="#010101" stroke-width=".25" d="m594.492 67.453 2.198-2.437.337.899 3.779-1.416.433 1.156-3.778 1.417.338.899zM606.589 62.527l2.05-2.563.389.877 3.689-1.638.501 1.129-3.688 1.638.391.878zM613.144 51.628l-2.572-2.039.876-.394-1.653-3.681 1.126-.506 1.654 3.681.876-.395zM601.414 47.608l-2.089 2.532-.376-.883-3.712 1.583-.484-1.136 3.711-1.583-.378-.884z"/></g><g><path fill="none" d="M593.58 104.932s10.88-7.006 14.125-1.865c3.244 5.141 2.885 10.227-12.026 17.518-13.752 6.729-7.636-14.014-3.819-14.014"/><path fill="#010101" stroke="#010101" stroke-width=".25" d="m586.955 112.406.646 3.218-.923-.266-1.115 3.879-1.187-.341 1.114-3.879-.923-.264zM593.313 122.503l2.307-2.335.296.914 3.839-1.246.381 1.174-3.838 1.246.297.914zM605.229 116.215l.96-3.138.687.672 2.823-2.883.882.864-2.822 2.883.686.672zM608.857 103.966l-3.093-1.095.7-.657-2.758-2.945.901-.844 2.759 2.945.7-.658zM595.989 102.247l-1.861 2.703-.451-.847-3.562 1.897-.581-1.09 3.562-1.898-.453-.847z"/></g></svg>