<svg xmlns="http://www.w3.org/2000/svg" width="325.087" height="596.258" overflow="visible" xml:space="preserve"><path fill="none" d="M141.857 187.929s86.559 156.53 82.405 214.188c-4.134 57.712-41.203 206.028-102.997 177.162-61.79-28.852-135.993-131.811-94.762-201.88 41.198-70.016 243.092-210.045 271.909-267.762 28.843-57.713 41.203-78.29-20.592-103.009-61.79-24.719-111.252 24.719-144.2 65.932-32.972 41.215 12.361 90.653 12.361 90.653"/><path fill="#010101" stroke="#010101" stroke-width="1.25" d="m130.115 127.515-8.936-13.763 4.777-.469-1.972-20.08 6.145-.603 1.975 20.079 4.778-.474zM142.498 71.271l3.959-15.925 3.603 3.171 13.329-15.148 4.635 4.079-13.326 15.149 3.608 3.169zM186.958 26.821l9.043-13.693 2.34 4.192 17.617-9.834 3.01 5.391-17.616 9.836 2.344 4.191zM243.851 8.1l15.002-6.652-.291 4.791L278.7 7.462l-.374 6.164-20.138-1.221-.287 4.794zM302.961 21.645l14.275 8.092-4.022 2.619 11.008 16.909-5.175 3.369-11.01-16.907-4.022 2.624zM307.828 75.707l.689 16.395-4.351-2.027-8.52 18.288-5.597-2.607 8.517-18.29-4.354-2.023zM276.404 129.906l-4.825 15.684-3.424-3.363-14.137 14.395-4.406-4.327 14.136-14.397-3.43-3.361zM230.668 175.37l-6.018 15.266-3.155-3.617-15.204 13.264-4.059-4.653 15.202-13.265-3.161-3.616zM181.957 218.214l-6.289 15.157-3.09-3.673-15.438 12.991-3.975-4.724 15.435-12.993-3.096-3.671zM132.841 260.799l-6.206 15.191-3.111-3.656-15.367 13.074-4.001-4.703 15.366-13.076-3.116-3.654zM84.423 304.364l-5.774 15.36-3.212-3.566-14.992 13.504-4.132-4.588 14.989-13.506-3.218-3.564zM38.382 351.621l-2.928 16.147-3.8-2.934-12.329 15.972-4.888-3.774 12.327-15.972-3.804-2.931zM10.031 412.56l6.83 14.92-4.794-.233-.983 20.152-6.167-.3.98-20.153-4.796-.228zM21.791 478.273l12.695 10.397-4.408 1.898 7.98 18.532-5.672 2.442-7.982-18.53-4.408 1.904zM57.087 534.499l15.202 6.18-3.651 3.117 13.101 15.344-4.696 4.009-13.102-15.342-3.649 3.122zM107.552 579.636l16.317-1.741-1.743 4.472 18.798 7.328-2.242 5.753-18.799-7.326-1.74 4.477zM172.633 569.713l3.201-16.094 3.75 2.996 12.598-15.76 4.823 3.856-12.596 15.762 3.754 2.994zM204.558 511.659l-1.656-16.326 4.463 1.767 7.426-18.76 5.741 2.272-7.424 18.761 4.468 1.763zM223.224 448.429l-4.52-15.775 4.705.949 3.988-19.779 6.053 1.22-3.986 19.779 4.709.945zM227.784 382.225l-9.591-13.316 4.749-.699-2.94-19.961 6.109-.9 2.942 19.961 4.751-.706zM209.749 318.793l-12.065-11.123 4.512-1.637-6.881-18.967 5.805-2.106 6.883 18.967 4.513-1.643z"/><path fill="#010101" stroke="#010101" stroke-width="1.25" d="m184.106 258.637-12.879-10.168 4.374-1.977-8.31-18.386 5.626-2.543 8.312 18.384 4.374-1.982zM155.196 200.068l-13.448-9.403 4.252-2.228-9.364-17.872 5.469-2.866 9.366 17.871 4.251-2.233z"/></svg>