<svg xmlns="http://www.w3.org/2000/svg" width="236.294" height="602.987" overflow="visible" xml:space="preserve"><path fill="none" d="M163.935 19.902c13.99 98.846 44.587 93.996 55.147 190.786 84.715 103.633-169.29-109.212-198.502-33.669C-8.634 252.561-.867 264.352 13.227 373.4c14.11 109.048 91.909 218.828 91.909 218.828"/><path fill="#010101" stroke="#010101" stroke-width="1.25" d="m118.9 601.879-14.331-7.991 4.004-2.648-11.127-16.831 5.151-3.405 11.128 16.83 4.004-2.653zM84.27 547.636l-13.462-9.384 4.248-2.233-9.39-17.859 5.465-2.874 9.392 17.858 4.248-2.241zM55.286 490.081l-12.64-10.465 4.419-1.875-7.88-18.574 5.683-2.411 7.883 18.572 4.419-1.88zM32.4 430.071 21.039 418.23l4.604-1.357-5.706-19.352 5.922-1.748 5.709 19.353 4.605-1.363zM18.436 367.729l-9.218-13.575 4.766-.567-2.385-20.035 6.13-.731 2.389 20.034 4.768-.572zM10 303.445 1.083 289.67l4.777-.462-1.944-20.083 6.146-.595 1.947 20.082 4.779-.468zM8.286 240.558l-4.324-15.83 4.693 1.007 4.232-19.728 6.037 1.296-4.229 19.727 4.696 1.003zM28.207 182.005l1.155-16.369 4.096 2.503 10.52-17.218 5.269 3.22-10.518 17.218 4.101 2.499zM76.567 171.547l16.306-1.845-1.715 4.483 18.845 7.208-2.205 5.767-18.846-7.205-1.711 4.487zM135.481 196.816l16.406.367-2.303 4.211 17.704 9.679-2.962 5.418-17.705-9.677-2.299 4.216zM192.609 227.807l16.406.296-2.284 4.221 17.745 9.602-2.938 5.43-17.746-9.599-2.281 4.226zM230.443 219.525l-12.457-10.681 4.451-1.799-7.561-18.706 5.725-2.314 7.563 18.706 4.45-1.804zM215.062 157.193l-11.611-11.595 4.574-1.456-6.119-19.226 5.885-1.873 6.121 19.226 4.574-1.462zM190.131 97.119l-11.818-11.385 4.547-1.538-6.464-19.113 5.849-1.978 6.466 19.112 4.548-1.543zM172.908 35.546l-9.916-13.075 4.73-.816-3.431-19.883 6.084-1.05 3.434 19.882 4.732-.821z"/></svg>