<svg xmlns="http://www.w3.org/2000/svg" width="423.313" height="559.909" overflow="visible" xml:space="preserve"><path fill="none" d="M20.102 91.515S97.68 1.504 184.498 13.923c86.816 12.42 49.586 164.401-34.163 217.179-83.784 52.749-99.232 55.817-124.049 164.4-24.834 108.593-3.127 139.556 102.342 161.272 105.456 21.71 294.686-77.521 294.686-77.521"/><path fill="#010101" stroke="#010101" stroke-width="1.25" d="m397.636 485.259-10.269 12.799-1.943-4.389-18.449 8.166-2.499-5.646 18.448-8.168-1.948-4.39zM338.373 510.942l-11.044 12.138-1.666-4.502-18.922 7.005-2.143-5.791 18.92-7.006-1.672-4.502zM277.52 532.329l-11.902 11.297-1.333-4.611-19.383 5.603-1.714-5.932 19.381-5.605-1.338-4.612zM215.688 548.948l-13.593 9.192-.559-4.767-20.039 2.348-.719-6.133 20.039-2.35-.564-4.77zM152.336 553.004l-15.293 5.95.512-4.773-20.061-2.153.659-6.139 20.061 2.151.508-4.776zM90.425 539.85l-16.233 2.402 1.56-4.539-19.081-6.556 2.006-5.84 19.082 6.555 1.556-4.543zM38.287 510.62l-14.112-8.373 4.073-2.539-10.672-17.124 5.24-3.265L33.49 496.44l4.073-2.544zM22.965 453.115l-5.659-15.404 4.762.603 2.533-20.017 6.126.776-2.531 20.016 4.765.599zM33.801 389.936l-3.482-16.035 4.633 1.253 5.268-19.477 5.96 1.613-5.265 19.476 4.637 1.249zM52.887 329.062l-.862-16.387 4.372 1.981 8.327-18.378 5.624 2.549-8.325 18.379 4.377 1.976zM88.28 279.378l7.402-14.646 2.808 3.893 16.364-11.802 3.612 5.008-16.362 11.804 2.813 3.892zM142.413 243.762l7.728-14.476 2.72 3.955 16.623-11.434 3.5 5.087-16.623 11.436 2.726 3.954zM193.724 200.787l2.434-16.228 3.888 2.815 11.835-16.34 5.001 3.622-11.834 16.341 3.892 2.813zM226.236 143.126l-1.595-16.332 4.456 1.783 7.495-18.732 5.732 2.293-7.492 18.734 4.461 1.779zM240.619 76.768l-9.764-13.189 4.74-.761-3.199-19.921 6.095-.98 3.202 19.921 4.742-.766zM208.645 16.492l-16.311 1.807 1.726-4.479-18.83-7.25 2.219-5.762 18.829 7.248L198 3.572zM141.663 9.959l-12.165 11.014-1.224-4.642-19.509 5.144-1.575-5.971 19.509-5.146-1.229-4.642zM80.73 35.304l-8.91 13.779-2.38-4.167-17.522 10.003-3.062-5.361 17.521-10.007-2.386-4.168zM27.281 74.967l-4.55 15.766-3.483-3.302L5.364 102.07l-4.48-4.249L14.766 83.18l-3.488-3.301z"/></svg>