<svg xmlns="http://www.w3.org/2000/svg" width="272.429" height="590.759" overflow="visible" xml:space="preserve"><path fill="none" d="M168.262 12.838S-13.214 244.03 110.665 430.532c57.068 48.136 12.687 162.606-86.428 144.048-56.166-40.998 130.681-204.461 224.059-142.586 93.394 61.881-123.236-191.402-61.88-138.934"/><path fill="#010101" stroke="#010101" stroke-width="1.25" d="m177.433 303.071 14.338 7.982-4.003 2.65 11.139 16.823-5.149 3.409-11.14-16.822-4.001 2.655zM215.092 356.126l14.458 7.762-3.961 2.711 11.396 16.651-5.096 3.487-11.397-16.65-3.96 2.717zM251.289 409.634l13.983 8.586-4.111 2.477 10.411 17.282-5.288 3.187-10.414-17.282-4.111 2.483zM249.083 425.938l-16.352 1.363 1.847-4.43-18.624-7.762 2.375-5.699 18.625 7.758 1.842-4.434zM183.875 415.32l-13.809 8.865-.444-4.779-20.09 1.868-.572-6.149 20.09-1.87-.45-4.781zM119.73 433.734l-9.405 13.446-2.227-4.252-17.873 9.362-2.865-5.47 17.872-9.363-2.232-4.252zM63.767 469.584l-5.654 15.406-3.24-3.541-14.885 13.621-4.168-4.556 14.883-13.622-3.246-3.54zM20.644 520.017l-.436 16.403-4.201-2.32-9.753 17.663-5.405-2.984 9.75-17.664-4.206-2.317zM31.673 580.742l14.915-6.844-.229 4.795 20.153.964-.295 6.167-20.153-.961-.225 4.797zM97.424 566.721l7.412-14.64 2.806 3.894 16.372-11.791 3.608 5.011-16.371 11.793 2.811 3.893zM137.599 512.398l-4.67-15.731 4.714.904 3.799-19.816 6.064 1.162-3.797 19.816 4.718.899z"/><path fill="#010101" stroke="#010101" stroke-width="1.25" d="m129.847 444.906-14.915-6.842 3.784-2.953-12.413-15.906 4.867-3.799 12.415 15.904 3.783-2.959zM96.162 391.702l-12.263-10.906 4.482-1.717-7.219-18.841 5.766-2.209 7.221 18.84 4.483-1.724zM77.531 331.36l-8.657-13.94 4.785-.373-1.567-20.115 6.156-.48 1.569 20.115 4.788-.378zM74.598 267.568l-6.331-15.139 4.783.393 1.65-20.109 6.154.505-1.647 20.109 4.786.387zM83.514 204.476l-3.426-16.049 4.629 1.27 5.336-19.458 5.955 1.633-5.334 19.458 4.633 1.266zM102.878 143.397l-1.135-16.37 4.404 1.908 8.02-18.515 5.666 2.455-8.017 18.514 4.409 1.904zM130.071 85.122l.515-16.401 4.191 2.34 9.839-17.614 5.391 3.011-9.837 17.615 4.195 2.338zM162.755 30.013l2.97-16.138 3.792 2.942L181.886.877l4.878 3.785-12.367 15.942 3.797 2.94z"/></svg>