<svg xmlns="http://www.w3.org/2000/svg" width="441.262" height="504.036" overflow="visible" xml:space="preserve"><path fill="none" d="M88.188 110.273s248.667 135.489 252.631 203.206c3.965 67.711-205.167 224.749-292.083 163.154-86.915-61.587 11.901-190.819 59.193-221.654C155.258 224.156 439.843 8.437 439.843 8.437"/><path fill="#010101" stroke="#010101" stroke-width="1.25" d="m440.189.757-7.29 14.701-2.838-3.872-16.273 11.928-3.651-4.98 16.273-11.93-2.843-3.87zM388.372 39.942l-7.315 14.689-2.831-3.876-16.293 11.9-3.642-4.986 16.292-11.902-2.836-3.875zM336.494 79.05l-7.338 14.677-2.825-3.88-16.313 11.873-3.634-4.992 16.311-11.875-2.83-3.88zM284.552 118.062l-7.371 14.66-2.816-3.887-16.339 11.837-3.623-5 16.338-11.839-2.822-3.886zM232.517 156.948l-7.403 14.645-2.808-3.893-16.365 11.8-3.611-5.008 16.363-11.803-2.813-3.892zM180.35 195.633l-7.487 14.601-2.785-3.909-16.432 11.708-3.583-5.029 16.431-11.709-2.791-3.909zM127.947 233.819l-7.804 14.435-2.699-3.969-16.685 11.345-3.472-5.106 16.683-11.346-2.704-3.969zM75.771 274.66l-4.214 15.86-3.552-3.228-13.57 14.932-4.569-4.153 13.568-14.933-3.558-3.226zM35.587 327.307l-.449 16.403-4.2-2.324-9.768 17.655-5.402-2.989 9.765-17.656-4.205-2.321zM11.062 389.396l5.742 15.373-4.765-.578-2.425 20.031-6.13-.743 2.423-20.03-4.768-.572zM23.287 454.257l14.165 8.284-4.057 2.564 10.78 17.055-5.219 3.299-10.782-17.054-4.057 2.571zM77.434 491.559l15.892-4.085-1.077 4.676 19.662 4.529-1.386 6.017-19.662-4.526-1.073 4.682zM144.244 488.89l11.832-11.371 1.361 4.603 19.348-5.723 1.751 5.921-19.347 5.725 1.367 4.603zM205.275 463.633l9.2-13.589 2.291 4.218 17.729-9.633 2.948 5.426-17.728 9.634 2.297 4.217zM260.719 428.177l6.915-14.882 2.935 3.799 15.966-12.336 3.775 4.886-15.964 12.337 2.941 3.797zM309.418 383.774l4.17-15.871 3.561 3.219 13.528-14.969 4.581 4.14-13.526 14.971 3.566 3.215zM346.173 325.362l-8.306-14.151 4.793-.254-1.066-20.148 6.166-.327 1.068 20.149 4.796-.259zM318.263 264.919l-15.335-5.841 3.58-3.197-13.437-15.05 4.605-4.112 13.44 15.048 3.579-3.203zM269.702 220.542l-16.068-3.334 3.028-3.725-15.656-12.727 3.895-4.791 15.657 12.725 3.025-3.729z"/><path fill="#010101" stroke="#010101" stroke-width="1.25" d="m216.762 182.208-16.26-2.21 2.762-3.926-16.502-11.609 3.552-5.05 16.504 11.607 2.759-3.931zM162.017 146.71l-16.348-1.418 2.568-4.056-17.046-10.795 3.304-5.216 17.047 10.793 2.564-4.06zM105.961 113.335l-16.395-.695 2.387-4.165-17.506-10.032 3.071-5.358 17.506 10.031 2.384-4.17z"/></svg>