<svg xmlns="http://www.w3.org/2000/svg" width="323.542" height="303.512" overflow="visible" xml:space="preserve"><path fill="none" d="M99.231 63.862s145.137-93.44 188.445-24.895c43.267 68.586 38.475 136.408-160.433 233.664C-56.196 362.394 25.4 85.728 76.315 85.728"/><path fill="#010101" stroke="#010101" stroke-width="1.25" d="M80.41 77.664 69.583 89.995l-1.746-4.471-18.794 7.34-2.246-5.751 18.793-7.342-1.752-4.471zM33.228 124.311l.073 16.409-4.272-2.189-9.2 17.956-5.495-2.815 9.198-17.957-4.276-2.186zM11.556 187.217l5.188 15.568-4.742-.747-3.142 19.93-6.099-.961L5.9 201.076l-4.744-.743zM12.687 254.016l11.995 11.198-4.522 1.609 6.762 19.009-5.818 2.069-6.764-19.007-4.523 1.614zM63.421 293.529l14.898-6.879-.217 4.795 20.155.915-.279 6.168-20.156-.913-.213 4.798zM128.032 277.809l10.297-12.777 1.933 4.394 18.468-8.126 2.486 5.652-18.466 8.127 1.939 4.395zM186.194 247.685l9.009-13.716 2.35 4.185 17.592-9.88 3.023 5.384-17.59 9.882 2.355 4.185zM241.634 212.186l6.782-14.943 2.968 3.772 15.856-12.478 3.818 4.852-15.853 12.48 2.973 3.771zM289.831 166.759l2.487-16.22 3.878 2.828 11.889-16.302 4.989 3.639-11.887 16.303 3.883 2.825zM315.125 104.05l-8.371-14.114 4.792-.276-1.156-20.142 6.165-.355 1.158 20.144 4.794-.281zM294.119 40.559l-14.637-7.418 3.896-2.804-11.784-16.377 5.012-3.606 11.786 16.375 3.895-2.809zM235.574 8.696l-14.262 8.117-.189-4.796-20.162.794-.243-6.17 20.161-.797-.194-4.798zM170.418 22.056l-10.917 12.251-1.712-4.485-18.848 7.201-2.204-5.768 18.846-7.202-1.718-4.485zM110.589 49.853l-8.62 13.962-2.467-4.117-17.309 10.367-3.172-5.296 17.307-10.371-2.473-4.117z"/></svg>