<svg xmlns="http://www.w3.org/2000/svg" width="245.804" height="326.09" overflow="visible" xml:space="preserve"><path fill="none" d="M151.628 15.862C76.866.677 18.44 190.166 15.046 260.089c-3.393 69.931 180.537 82.666 207.148-56.875 21.58-113.125 4.214-172.178-70.566-187.352z"/><path fill="#010101" stroke="#010101" stroke-width="1.25" d="m165.154 26.789 16.271-2.125-1.637 4.511 18.966 6.882-2.106 5.805-18.967-6.88-1.634 4.516zM212.111 61.651l11.985 11.209-4.523 1.604 6.746 19.016-5.819 2.064-6.749-19.014-4.524 1.61zM224.033 122.77l7.166 14.763-4.798-.125-.526 20.169-6.171-.16.522-20.17-4.801-.12zM219.989 186.319l3.768 15.971-4.655-1.17-4.918 19.568-5.988-1.506 4.916-19.567-4.659-1.166zM199.499 245.232l-2.254 16.254-3.919-2.773-11.654 16.471-5.041-3.566 11.653-16.472-3.923-2.77zM156.084 287.966l-10.133 12.907-1.99-4.37-18.363 8.36-2.558-5.619 18.362-8.362-1.994-4.369zM96.642 304.386l-14.618 7.456.03-4.8-20.176-.126.039-6.175 20.176.125.026-4.803zM39.931 289.061l-16.086-3.24 3.006-3.742-15.73-12.635 3.867-4.815 15.731 12.634 3.004-3.747zM23.843 238.288l-4.918-15.656 4.728.829 3.486-19.873 6.082 1.068-3.484 19.873 4.731.824zM37.495 175.726l-2.549-16.211 4.553 1.52 6.385-19.14 5.857 1.954-6.383 19.14 4.558 1.515zM59.384 115.342l-.64-16.396 4.345 2.039 8.574-18.264 5.589 2.624-8.572 18.265 4.349 2.036zM89.185 59.639l3.992-15.917 3.597 3.179 13.36-15.119 4.627 4.089-13.358 15.12 3.601 3.176zM135.158 23.21l14.009-8.544.334 4.788 20.127-1.406.431 6.16-20.127 1.408.339 4.791z"/></svg>