<svg xmlns="http://www.w3.org/2000/svg" width="527.391" height="579.499" overflow="visible" xml:space="preserve"><path fill="none" d="M426.487 114.14s78.454-35.686 85.599 64.192c7.152 99.864-296.017 60.607-331.691 78.457-35.687 17.835 28.534 238.982-32.112 281.783-60.648 42.8-60.648 21.408-135.533 14.263-24.993-131.961 253.247-114.139 253.247-114.139s89.179-42.771 110.562 24.993c21.392 67.765-107.019 99.862-107.019 99.862L280.263 0"/><path fill="#010101" stroke="#010101" stroke-width="1.25" d="m274.311 1.849 7.04 14.823-4.798-.166-.697 20.164-6.17-.213.694-20.165-4.799-.161zM273.073 66.814l7.04 14.823-4.798-.166-.697 20.164-6.17-.213.694-20.165-4.8-.161zM271.838 131.775l7.04 14.823-4.797-.166-.698 20.164-6.17-.213.695-20.165-4.8-.161zM270.6 196.74l7.04 14.823-4.798-.167-.697 20.165-6.17-.213.694-20.165-4.799-.161zM269.366 261.701l7.04 14.822-4.798-.166-.697 20.164-6.17-.212.694-20.165-4.8-.161zM268.127 326.665l7.04 14.823-4.797-.166-.698 20.164-6.17-.213.695-20.164-4.8-.161zM266.893 391.63l7.04 14.823-4.798-.166-.697 20.164-6.17-.213.694-20.164-4.799-.161zM265.655 456.591l7.04 14.823-4.798-.166-.697 20.164-6.17-.213.694-20.164-4.8-.161zM264.42 521.556l7.04 14.823-4.797-.166-.698 20.164-6.17-.213.695-20.164-4.8-.161zM293.671 562.112l11.052-12.13 1.663 4.503 18.927-6.992 2.14 5.792-18.926 6.994 1.669 4.503zM352.159 530.85l6.635-15.008 3.005 3.742 15.733-12.632 3.866 4.815-15.731 12.633 3.01 3.743zM383.052 471.219l-11.05-12.132 4.638-1.238-5.202-19.495 5.966-1.591 5.204 19.493 4.639-1.242zM338.27 422.484l-15.593 5.112.771-4.738-19.915-3.239.991-6.095 19.915 3.238.766-4.741z"/><path fill="#010101" stroke="#010101" stroke-width="1.25" d="m274.773 433.1-14.964 6.733.264-4.792-20.146-1.111.34-6.165 20.147 1.108.258-4.795zM209.238 432.244l-14.236 8.163-.204-4.796-20.158.861-.264-6.169 20.158-.863-.209-4.797zM143.747 437.789l-13.099 9.883-.805-4.732-19.891 3.381-1.035-6.087 19.891-3.383-.81-4.734zM78.957 452.807l-10.24 12.822-1.953-4.385-18.431 8.208-2.512-5.64 18.43-8.21-1.958-4.385zM23.47 490.327l-2.091 16.276-3.946-2.733-11.488 16.586L.87 516.94l11.485-16.587-3.951-2.73zM13.519 558.905l15.522-5.324-.706 4.748 19.957 2.967-.907 6.107-19.958-2.965-.701 4.751zM78.804 571.136l14.086-8.418.291 4.792 20.139-1.223.374 6.163-20.138 1.225.296 4.793zM143.095 549.945l6.1-15.234 3.136 3.634 15.274-13.182 4.035 4.675-15.274 13.183 3.141 3.632zM177.702 492.281l-5.588-15.428 4.76.625 2.625-20.005 6.122.803-2.623 20.005 4.762.62zM180.984 426.728l-7.612-14.538 4.8-.02-.089-20.177 6.174-.027.092 20.176 4.802-.027zM177.754 361.58l-8.235-14.193 4.794-.23-.965-20.153 6.168-.295.967 20.152 4.796-.234zM175.118 297.576l-6.161-15.209 4.779.446 1.876-20.088 6.147.573-1.873 20.09 4.782.441zM202.128 258.409l14.325-8.006.151 4.798 20.166-.639.196 6.171-20.166.642.157 4.799zM266.855 256.79l14.616-7.459-.029 4.8 20.176.123-.037 6.174-20.176-.12-.025 4.802zM332.012 255.538l14.359-7.944.13 4.798 20.169-.553.17 6.172-20.169.555.137 4.801zM397.253 250.898l13.67-9.078.519 4.772 20.058-2.18.667 6.138-20.057 2.182.523 4.774zM462.254 238.056l10.926-12.243 1.71 4.485 18.853-7.187 2.2 5.77-18.853 7.189 1.716 4.486zM517.756 194.665l-7.225-14.734 4.799.106.445-20.171 6.173.136-.443 20.171 4.801.101zM502.97 129.058l-14.822-7.042 3.823-2.902-12.199-16.071 4.918-3.733 12.201 16.069 3.822-2.908zM440.158 102.375l-10.966 12.208-1.695-4.491-18.876 7.126-2.181-5.777 18.875-7.128-1.701-4.491z"/></svg>