<svg xmlns="http://www.w3.org/2000/svg" width="102.077" height="282.282" overflow="visible" xml:space="preserve"><path fill="none" d="M86.321 16.459 0 275.375"/><path fill="#010101" stroke="#010101" stroke-width="1.25" d="m4.347 281.051-2.3-16.247 4.529 1.589 6.678-19.039 5.827 2.042-6.676 19.041 4.533 1.584zM24.897 219.412l-2.299-16.247 4.529 1.589 6.678-19.039 5.826 2.043-6.675 19.04 4.533 1.585zM45.448 157.771l-2.3-16.247 4.53 1.589 6.678-19.039 5.827 2.043-6.677 19.04 4.534 1.585zM65.995 96.133l-2.3-16.247 4.53 1.589 6.677-19.039 5.827 2.043-6.675 19.04 4.533 1.585zM86.546 34.495l-2.3-16.248 4.529 1.589L95.453.797l5.827 2.043-6.676 19.04 4.534 1.585z"/></svg>