<svg xmlns="http://www.w3.org/2000/svg" width="637.981" height="583.056" overflow="visible" xml:space="preserve"><path fill="none" d="M297.314 18.164s-29.419 526.209-112.206 550.209c-24.028-2.664-64.099 2.679-160.27-10.699-61.4-101.471 136.242-168.271 136.242-168.271l424.693 13.392s56.106 13.298 34.729 77.43c-21.37 64.148-205.688 88.148-219.017 88.148-13.343 0 42.715-534.166 42.715-534.166"/><path fill="#010101" stroke="#010101" stroke-width="1.25" d="m439.354 23.608 5.762 15.365-4.766-.571-2.398 20.033-6.131-.734 2.396-20.034-4.769-.565zM432.688 88.253l5.802 15.35-4.768-.559-2.347 20.04-6.133-.718 2.345-20.04-4.77-.554zM426.181 152.918l5.835 15.337-4.768-.548-2.304 20.044-6.134-.705 2.301-20.044-4.772-.544zM419.839 217.595l5.878 15.321-4.769-.535-2.248 20.051-6.136-.687 2.245-20.052-4.773-.529zM413.683 282.295l5.916 15.306-4.771-.523-2.199 20.056-6.137-.673 2.195-20.056-4.774-.518zM407.769 347.027l5.994 15.275-4.773-.498-2.095 20.068-6.142-.642 2.093-20.067-4.777-.494zM402.196 411.807l6.11 15.23-4.778-.462-1.942 20.083-6.146-.595 1.94-20.083-4.781-.457zM397.207 476.674l6.329 15.14-4.785-.393-1.653 20.109-6.153-.506 1.65-20.109-4.786-.388zM393.971 541.879l7.166 14.763-4.799-.125-.524 20.169-6.173-.16.523-20.17-4.801-.12zM440.467 569.153l13.18-9.776.766 4.739 19.918-3.218.985 6.096-19.918 3.219.771 4.741zM504.476 555.191l12.177-11 1.219 4.642 19.514-5.122 1.568 5.972-19.514 5.125 1.224 4.644zM566.771 533.394l9.836-13.136 2.088 4.323 18.167-8.779 2.686 5.56-18.166 8.78 2.094 4.322zM620.939 492.061l-1.522-16.339 4.449 1.803 7.579-18.698 5.722 2.319-7.577 18.699 4.452 1.8zM623.599 422.932l-15.444-5.546 3.518-3.264-13.724-14.789 4.525-4.201 13.727 14.787 3.516-3.27zM563.071 396.16l-14.909 6.854.225-4.795-20.154-.949.291-6.167 20.154.946.221-4.797zM498.125 394.113l-14.909 6.854.226-4.795-20.154-.949.291-6.167 20.154.946.221-4.796zM433.184 392.066l-14.909 6.854.225-4.795-20.154-.949.291-6.167 20.155.947.22-4.797zM368.243 390.015l-14.91 6.855.226-4.795-20.154-.95.291-6.167 20.153.947.222-4.797zM303.297 387.968l-14.909 6.855.226-4.795-20.154-.949.29-6.167 20.154.946.221-4.797zM238.356 385.921l-14.909 6.855.225-4.795-20.153-.949.29-6.167 20.154.946.221-4.797zM172.383 382.552l-13.359 9.53-.677-4.752-19.975 2.847-.872-6.112 19.975-2.851-.683-4.753zM109.93 405.179l-9.634 13.284-2.154-4.29-18.031 9.055-2.77-5.519 18.029-9.055-2.159-4.29zM53.104 440.037l-5.484 15.465-3.279-3.504-14.734 13.784-4.218-4.509 14.732-13.786-3.285-3.504zM13.324 493.802l3.396 16.055-4.627-1.278-5.372 19.447-5.952-1.644 5.37-19.448-4.63-1.274zM24.672 553.832l16.081 3.265-3.012 3.737 15.71 12.662-3.875 4.807-15.711-12.659-3.009 3.743zM88.997 570.504l15.162-6.277-.41 4.783 20.103 1.722-.527 6.152-20.103-1.719-.405 4.785zM154.132 573.068l14.901-6.873-.22 4.795 20.155.924-.282 6.168-20.156-.922-.215 4.798zM215.4 547.934l-.18-16.408 4.286 2.161 9.083-18.017 5.514 2.78-9.081 18.017 4.29 2.158zM239.37 486.487l-3.182-16.098 4.609 1.34 5.63-19.375 5.929 1.723-5.627 19.375 4.612 1.336zM255.056 423.105l-4.113-15.886 4.68 1.07 4.494-19.67 6.02 1.375-4.492 19.67 4.682 1.065zM267.291 358.984l-4.948-15.646 4.73.82 3.447-19.879 6.084 1.054-3.445 19.88 4.732.816zM276.78 294.56l-5.32-15.523 4.748.707 2.972-19.956 6.108.909-2.971 19.956 4.751.703zM284.832 229.94l-5.699-15.389 4.764.591 2.481-20.023 6.128.759-2.479 20.024 4.766.585zM291.568 165.25l-5.882-15.32 4.771.534 2.242-20.051 6.135.686-2.239 20.051 4.773.529zM297.311 100.443l-6.099-15.234 4.778.466 1.959-20.081 6.145.599-1.956 20.081 4.78.461zM302.213 35.525l-6.438-15.094 4.786.359L302.068.67l6.157.461-1.504 20.12 4.789.353z"/></svg>