<svg xmlns="http://www.w3.org/2000/svg" width="424.423" height="588.899" overflow="visible" xml:space="preserve"><path fill="none" d="M284.711 17.727s-66.936 445.949-52.26 512.913c14.695 66.963-169.917 58.76-215.633-16.355C-28.894 439.17 203.033 401.6 203.033 401.6s173.57-39.042 182.965-3.291c16.325 62.076 35.926 98.043 0 107.826-35.933 9.79-31.04-24.494-26.132-63.715 24.499-171.505 31.023-395.293 31.023-395.293"/><path fill="#010101" stroke="#010101" stroke-width="1.25" d="m383.469 87.196 6.646 15.004-4.791-.293-1.23 20.139-6.163-.376 1.228-20.139-4.794-.288zM380.247 152.026l6.481 15.076-4.787-.345-1.45 20.124-6.159-.443 1.448-20.125-4.79-.34zM376.29 216.793l6.261 15.169-4.782-.415-1.743 20.101-6.151-.533 1.74-20.101-4.784-.41zM371.304 281.505l6.076 15.244-4.776-.473-1.988 20.078-6.145-.608 1.986-20.079-4.78-.467zM365.415 346.068l5.713 15.383-4.764-.585-2.462 20.025-6.128-.754 2.459-20.025-4.767-.581zM358.027 410.49l5.376 15.503-4.75-.69-2.899 19.968-6.11-.888 2.896-19.966-4.753-.686zM350.912 476.233l8.656 13.94-4.786.373 1.566 20.116-6.156.479-1.568-20.115-4.788.378zM398.794 503.286l3.447-16.044 3.703 3.053 12.836-15.567 4.763 3.929-12.834 15.568 3.709 3.051zM403.362 437.924l-11.014-12.165 4.641-1.223-5.144-19.51 5.97-1.574 5.147 19.508 4.642-1.229z"/><path fill="#010101" stroke="#010101" stroke-width="1.25" d="m369.171 380.642-15.603 5.079.78-4.735-19.908-3.279 1.003-6.093 19.909 3.277.775-4.739zM302.9 379.361l-13.728 8.989-.488-4.774-20.072 2.049-.628-6.142 20.072-2.053-.493-4.776zM238.154 388.542l-13.038 9.963-.834-4.726-19.87 3.504-1.072-6.08 19.869-3.507-.839-4.729zM174.24 401.177l-12.727 10.36-.978-4.7-19.753 4.113-1.258-6.045 19.752-4.114-.984-4.702zM110.89 417.737l-11.739 11.466-1.399-4.592-19.301 5.878-1.799-5.907 19.301-5.88-1.404-4.593zM49.474 442.558l-8.619 13.964-2.467-4.117-17.307 10.371-3.174-5.297 17.306-10.373-2.473-4.116zM8.866 493.595l7.96 14.35-4.798.137.575 20.168-6.172.175-.577-20.168-4.801.142zM45.109 549.206l16.317 1.739-2.647 4.004 16.83 11.127-3.404 5.151-16.832-11.125-2.645 4.009zM106.491 575.011l15.89-4.094-1.074 4.677 19.664 4.517-1.382 6.017-19.665-4.513-1.07 4.681zM172.727 581.063l13.799-8.881.45 4.779 20.087-1.891.579 6.147-20.087 1.894.455 4.78zM230.127 552.05l-.314-16.406 4.304 2.126 8.936-18.09 5.536 2.735-8.934 18.09 4.308 2.123zM236.763 486.49l-6.858-14.908 4.794.224.945-20.154 6.167.289-.941 20.154 4.797.22zM240.504 421.94l-6.095-15.235 4.777.466 1.962-20.081 6.145.601-1.959 20.081 4.78.462zM246.586 357.391l-5.739-15.373 4.765.578 2.429-20.03 6.129.743-2.426 20.03 4.768.574zM253.752 292.902l-5.509-15.457 4.756.648 2.726-19.991 6.117.834-2.723 19.992 4.758.644zM261.671 228.447l-5.405-15.493 4.752.68 2.861-19.972 6.112.876-2.859 19.972 4.754.677zM270.048 164.068l-5.288-15.534 4.746.716 3.012-19.95 6.106.922-3.01 19.95 4.749.712zM278.882 99.73l-5.198-15.563 4.741.743 3.128-19.932 6.099.957-3.124 19.932 4.745.74zM288.06 35.45l-5.081-15.603 4.737.779L290.993.718l6.093 1.003-3.275 19.909 4.739.775z"/></svg>