<svg xmlns="http://www.w3.org/2000/svg" width="159.906" height="293.845" overflow="visible" xml:space="preserve"><path fill="none" d="M4.767 18.244c-25.859 323.207 155.139 271.488 155.139 271.488"/><path fill="#010101" stroke="#010101" stroke-width="1.25" d="m134.635 287.262-15.409 5.643.607-4.761-20.013-2.555.782-6.125 20.014 2.552.603-4.764zM76.695 268.312l-16.323-1.682 2.633-4.012-16.87-11.068 3.386-5.163 16.872 11.066 2.63-4.019zM35.432 224.076l-12.475-10.66 4.447-1.806-7.591-18.694 5.72-2.324 7.594 18.694 4.448-1.812zM16.22 163.628l-9.739-13.207 4.741-.752-3.164-19.926 6.098-.969 3.166 19.927 4.742-.758zM9.18 99.848 1.052 85.593l4.796-.193-.812-20.16 6.169-.249.815 20.16 4.798-.198zM10.006 35.503 3.271 20.54l4.792.264L9.174.658l6.165.34-1.108 20.146 4.796.259z"/></svg>