<svg xmlns="http://www.w3.org/2000/svg" width="208.808" height="503.318" overflow="visible" xml:space="preserve"><path fill="none" d="M42.188 17.119C338.761 119.714 134.252 525.978 0 501.071"/><path fill="#010101" stroke="#010101" stroke-width="1.25" d="m44.771 500.237 10.788-12.364 1.76 4.465 18.771-7.398 2.264 5.744-18.77 7.4 1.766 4.466zM100.261 462.92l4.588-15.755 3.475 3.311 13.919-14.605 4.47 4.259-13.918 14.608 3.48 3.309zM142.211 411.793l1.161-16.368 4.094 2.503 10.525-17.214 5.267 3.221-10.521 17.215 4.099 2.501zM172.683 353.162l-2.043-16.283 4.504 1.661 6.979-18.931 5.793 2.135-6.976 18.932 4.508 1.657zM192.158 290.478l-4.14-15.879 4.681 1.061 4.461-19.677 6.021 1.365-4.458 19.678 4.685 1.057zM199.403 224.93l-7.449-14.621 4.799.032.138-20.175 6.174.041-.135 20.176 4.803.028zM191.248 159.259l-11.003-12.174 4.642-1.22-5.128-19.514 5.972-1.569 5.13 19.513 4.643-1.225zM162.977 99.5l-14.306-8.039 4.013-2.634-11.072-16.867 5.162-3.388 11.073 16.866 4.013-2.64zM117.518 51.108l-16.168-2.802 2.903-3.823-16.066-12.204 3.734-4.917 16.069 12.202 2.9-3.827zM60.151 18.77l-16.399.602 2.05-4.34-18.244-8.617L30.195.832 48.44 9.447l2.046-4.345z"/></svg>