<svg xmlns="http://www.w3.org/2000/svg" width="621.254" height="261.767" overflow="visible" xml:space="preserve"><path fill="none" d="M18.638 236.375c91.152-3.808 246.718-8.833 373.244 20.113 126.531 28.937 206.379-67.082 224.454-142.387C634.397 38.768 596.701 1.659 512.355 1.659"/><path fill="#010101" stroke="#010101" stroke-width="1.25" d="m505.916 7.074 15.23-6.111-.462 4.777 20.083 1.942-.594 6.145-20.083-1.938-.457 4.78zM567.846 15.34l16.409-.072-2.189 4.271 17.956 9.201-2.816 5.495-17.957-9.198-2.186 4.276zM610.546 53.874l9.6 13.308-4.749.703 2.954 19.959-6.108.904-2.956-19.958-4.75.708zM609.727 115.213l2.299 16.248-4.529-1.589-6.679 19.039-5.826-2.043 6.676-19.04-4.533-1.585zM583.869 172.427l-2.929 16.146-3.799-2.933-12.329 15.971-4.888-3.773 12.327-15.972-3.804-2.931zM540.691 218.061l-7.11 14.789-2.885-3.837-16.127 12.125-3.71-4.934 16.125-12.127-2.889-3.836zM486.579 248.115l-12.612 10.498-1.029-4.688-19.708 4.328-1.324-6.031 19.706-4.33-1.035-4.689zM424.426 254.333l-15.436 5.569.63-4.759-20.002-2.649.812-6.121 20.001 2.647.626-4.762zM360.561 244.811l-15.755 4.589.927-4.709-19.795-3.9 1.194-6.059 19.796 3.898.924-4.713zM295.861 235.484l-15.373 5.739.578-4.765-20.03-2.428.743-6.129 20.03 2.426.573-4.769zM230.808 230.199l-15.039 6.565.318-4.789-20.132-1.338.409-6.16 20.133 1.335.313-4.792zM165.646 227.954l-14.763 7.164.125-4.799-20.169-.528.161-6.172 20.17.525.121-4.801zM100.502 228.046l-14.55 7.587-.013-4.8-20.176.054-.017-6.175 20.176-.055-.018-4.803zM35.449 229.84l-14.409 7.852-.101-4.799-20.171.422-.13-6.173 20.172-.425-.105-4.8z"/></svg>