<svg xmlns="http://www.w3.org/2000/svg" width="143.848" height="14.153" overflow="visible" xml:space="preserve"><path fill="none" d="m10.974 9.236 132.875 3.906"/><path fill="#010101" stroke="#010101" stroke-width=".75" d="m138.197 9.423-8.937 4.131.129-2.877-12.093-.543.166-3.701 12.094.542.126-2.878zM99.23 8.277l-8.937 4.131.129-2.877-12.092-.543.166-3.701 12.093.542.126-2.879zM60.262 7.132l-8.937 4.131.129-2.877-12.094-.543.167-3.701 12.094.542.126-2.878zM21.293 5.985l-8.937 4.132.129-2.877L.392 6.696l.166-3.7 12.094.542.126-2.879z"/></svg>