<svg xmlns="http://www.w3.org/2000/svg" width="662.646" height="275.456" overflow="visible" xml:space="preserve"><path fill="none" d="M94.21 51.454S200.382-8.394 243.794 22.688c43.45 31.014 46.44 122.847 15.426 147.63-31.017 24.766-129.883 33.742-216.767 70.974-213.956 91.702 441.303-45.29 620.192-2.745"/><path fill="#010101" stroke="#010101" stroke-width="1.25" d="m648.326 230.5-15.581 5.147.759-4.74-19.921-3.193.976-6.097 19.923 3.192.755-4.743zM583.034 224.943l-14.924 6.822.236-4.794-20.152-.993.304-6.167 20.152.99.231-4.797zM517.729 225.378l-14.479 7.721-.057-4.799-20.175.239-.074-6.174 20.175-.242-.062-4.802zM452.633 228.744l-14.181 8.255-.237-4.794-20.151.991-.304-6.167 20.152-.994-.241-4.796zM387.717 233.796l-13.984 8.584-.349-4.787-20.123 1.463-.447-6.159 20.123-1.464-.354-4.79zM322.95 239.889l-13.864 8.779-.415-4.782-20.101 1.745-.533-6.152 20.1-1.747-.42-4.784zM258.285 246.623l-13.808 8.867-.445-4.779-20.09 1.872-.573-6.147 20.089-1.875-.45-4.782zM193.696 253.656l-13.812 8.861-.443-4.78-20.09 1.862-.57-6.148 20.09-1.864-.449-4.781zM129.156 260.532l-13.917 8.694-.386-4.785-20.111 1.62-.495-6.155 20.11-1.622-.39-4.786zM64.763 266.474l-14.362 7.938-.13-4.798-20.168.544-.167-6.172 20.168-.547-.134-4.799zM4.59 273.895l3.898-15.94 3.616 3.157 13.271-15.197 4.651 4.061-13.269 15.199 3.62 3.155zM56.48 242.365l11.195-11.997 1.61 4.522 19.008-6.767 2.071 5.816-19.007 6.77 1.615 4.522zM117.476 221.6l12.196-10.98 1.21 4.645 19.524-5.088 1.558 5.974-19.524 5.091 1.217 4.646zM180.22 205.028l12.338-10.819 1.15 4.66 19.589-4.833 1.479 5.994-19.588 4.836 1.155 4.661zM243.586 185.523l9.422-13.434 2.222 4.255 17.885-9.338 2.858 5.473-17.884 9.34 2.227 4.255zM282.395 132.037l-5.107-15.595 4.737.772 3.244-19.914 6.094.993-3.241 19.914 4.74.767zM278.445 64.683 265.787 54.24l4.415-1.883-7.914-18.559 5.68-2.422 7.916 18.559 4.415-1.889zM235.078 12.513l-15.905 4.04 1.091-4.674-19.649-4.584 1.403-6.013 19.649 4.581 1.086-4.677zM168.22 14.669 156.208 25.85l-1.288-4.624-19.436 5.413-1.657-5.948 19.436-5.416-1.293-4.625zM106.388 38.152l-9.44 13.422-2.216-4.258-17.898 9.315-2.851-5.478 17.897-9.316-2.221-4.257z"/></svg>