<svg xmlns="http://www.w3.org/2000/svg" width="477.524" height="320.132" overflow="visible" xml:space="preserve"><path fill="none" d="m9.676 58.48 226.051 261.652L477.524 0"/><path fill="#010101" stroke="#010101" stroke-width="1.25" d="m463.637 8.564-3.01 16.131-3.784-2.951-12.409 15.908-4.87-3.797 12.408-15.91-3.789-2.95zM424.477 60.412l-3.01 16.131-3.784-2.952-12.41 15.909-4.869-3.797 12.408-15.911-3.79-2.949zM385.316 112.259l-3.009 16.132-3.785-2.952-12.409 15.909-4.869-3.798 12.407-15.91-3.789-2.95zM346.156 164.107l-3.01 16.132-3.784-2.952-12.409 15.909-4.869-3.798 12.407-15.91-3.789-2.95zM306.996 215.955l-3.01 16.131-3.784-2.952-12.409 15.909-4.869-3.797 12.407-15.911-3.789-2.95zM267.832 267.802l-3.01 16.132-3.784-2.952-12.409 15.909-4.869-3.798 12.407-15.91-3.789-2.95zM237.679 313.336l-15.141-6.327 3.68-3.081-12.951-15.47 4.734-3.964 12.953 15.468 3.68-3.086zM195.201 264.168l-15.14-6.327 3.68-3.081-12.951-15.47 4.734-3.964 12.953 15.468 3.679-3.086zM152.724 215.004l-15.141-6.327 3.681-3.081-12.951-15.471 4.733-3.963L146 201.63l3.679-3.086zM110.247 165.836l-15.141-6.327 3.68-3.081-12.951-15.47 4.734-3.964 12.953 15.468 3.68-3.086zM67.77 116.668l-15.142-6.327 3.681-3.081-12.952-15.47 4.735-3.964 12.953 15.468 3.68-3.086zM25.292 67.5l-15.141-6.327 3.681-3.081L.88 42.621l4.735-3.963 12.953 15.468 3.679-3.086z"/></svg>