<svg xmlns="http://www.w3.org/2000/svg" width="550.657" height="551.123" overflow="visible" xml:space="preserve"><path fill="none" d="M14.296 69.177c60.7 12.213 208 418 208 418"/><path fill="#010101" stroke="#010101" stroke-width="1.25" d="m227.942 485.413-11.953-11.244 4.529-1.591-6.691-19.035 5.825-2.047 6.693 19.034 4.529-1.598zM205.003 424.525l-12.12-11.063 4.504-1.659-6.976-18.932 5.794-2.135 6.978 18.931 4.504-1.665zM181.198 363.952l-12.323-10.836 4.472-1.743-7.325-18.8 5.754-2.241 7.327 18.798 4.473-1.748zM156.379 303.824l-12.459-10.679 4.45-1.8-7.563-18.705 5.724-2.314 7.565 18.704 4.45-1.805zM130.434 244.079l-12.745-10.337 4.399-1.919-8.067-18.493 5.659-2.469 8.07 18.492 4.4-1.925zM102.69 185.067l-13.156-9.806 4.317-2.098-8.818-18.147 5.554-2.699 8.82 18.146 4.317-2.103zM71.916 127.334l-13.907-8.712 4.134-2.439-10.255-17.376 5.318-3.139 10.256 17.375 4.134-2.445zM31.986 72.686l-16.372-1.11 2.491-4.103L.858 57.002l3.205-5.278 17.248 10.469 2.487-4.108z"/><g><path fill="none" d="M168.296 35.177s264.02-77.048 340 68c75.997 145.04-7.104 272.945-90 342-82.878 69.073-242 102-242 102"/><path fill="#010101" stroke="#010101" stroke-width="1.25" d="m206.747 545.91 12.226-10.947 1.197 4.649 19.538-5.036 1.542 5.978-19.538 5.039 1.204 4.649zM269.199 526.868l11.557-11.651 1.471 4.57 19.206-6.183 1.891 5.877-19.204 6.186 1.476 4.569zM330.263 503.368l10.532-12.584 1.851 4.428 18.616-7.782 2.381 5.697-18.615 7.785 1.858 4.428zM389.059 473.127l7.754-14.461 2.713 3.959 16.645-11.402 3.49 5.093-16.643 11.405 2.717 3.959zM440.617 432.533l5.784-15.357 3.21 3.569 15-13.495 4.13 4.59-14.998 13.496 3.215 3.567zM484.934 383.272l1.994-16.288 3.963 2.71 11.388-16.654 5.097 3.485-11.387 16.655 3.967 2.707zM518.245 326.652l-.439-16.404 4.32 2.093 8.798-18.157 5.556 2.692-8.795 18.159 4.323 2.09zM538.848 263.738l-4.893-15.663 4.727.837 3.516-19.868 6.08 1.076-3.514 19.868 4.729.832zM542.201 197.286l-9.568-13.331 4.749-.692-2.907-19.966 6.11-.89 2.91 19.966 4.751-.697zM526.659 133.229l-12.242-10.927 4.485-1.709-7.186-18.853 5.769-2.199 7.189 18.852 4.485-1.716zM495.222 74.55l-15.383-5.715 3.555-3.226-13.562-14.94 4.571-4.149 13.564 14.937 3.553-3.231zM442.375 34.182l-16.408.133 2.173-4.28-17.991-9.135 2.796-5.505 17.992 9.133 2.169-4.284zM378.961 14.106l-15.534 5.287.717-4.747-19.95-3.014.922-6.105 19.95 3.012.713-4.749zM313.437 9.366l-14.603 7.487.02-4.8-20.175-.086.025-6.175 20.176.084.016-4.802zM247.894 13.619l-13.514 9.307-.599-4.762-20.019 2.519-.771-6.126 20.018-2.521-.604-4.765zM183.174 24.979l-12.236 10.935-1.194-4.65-19.542 5.017-1.536-5.98 19.542-5.02-1.199-4.65z"/></g></svg>