<svg xmlns="http://www.w3.org/2000/svg" width="299.749" height="539.562" overflow="visible" xml:space="preserve"><path fill="none" d="M241.265 6.476S-7.098 145.092 1.405 280.616c8.497 135.522 35.669 277.507 128.479 256.951 35.756-18.339 79.642-42.464 111.38-68.535 49.4-70.484 85.909-101.931 27.483-192.814C241.095 233.22 99.974 380.085 99.974 380.085"/><path fill="#010101" stroke="#010101" stroke-width="1.25" d="m106.99 381.117 5.398-15.496 3.299 3.487 14.658-13.864 4.243 4.485-14.656 13.866 3.303 3.486zM154.187 336.942l6.209-15.19 3.11 3.657 15.37-13.071 4 4.704-15.368 13.072 3.115 3.655zM204.149 296.909l8.432-14.078 2.522 4.084 17.167-10.602 3.244 5.254-17.165 10.602 2.527 4.084zM255.89 273.243l15.334 5.841-3.58 3.198 13.436 15.051-4.605 4.112-13.439-15.05-3.579 3.202zM286.601 326.642l11.328 11.872-4.608 1.345 5.653 19.368-5.928 1.73-5.654-19.368-4.61 1.351zM285.962 385.625l1.302 16.358-4.424-1.862-7.829 18.594-5.691-2.395 7.827-18.596-4.427-1.859zM254.436 440.499 251.83 456.7l-3.857-2.857-12.007 16.215-4.963-3.675 12.006-16.216-3.863-2.853zM210.388 484.082l-8.241 14.19-2.577-4.05-17.022 10.832-3.315-5.209 17.021-10.834-2.583-4.049zM155.238 517.333l-9.51 13.373-2.194-4.27-17.946 9.221-2.822-5.492 17.945-9.223-2.199-4.27zM99.329 531.469l-16.352 1.374 1.843-4.431-18.629-7.749 2.371-5.702 18.63 7.747 1.84-4.436zM53.131 494.453l-13.085-9.904 4.333-2.065-8.684-18.212 5.573-2.658 8.687 18.211 4.332-2.072zM30.066 435.168l-10.813-12.342 4.661-1.149-4.825-19.591 5.995-1.476 4.827 19.591 4.662-1.154zM17.058 372.238l-9.417-13.439 4.757-.637-2.681-19.997 6.119-.822 2.684 19.997 4.759-.642zM9.526 308.138l-8.461-14.06 4.791-.306-1.285-20.136 6.162-.392 1.287 20.134 4.793-.31zM12.539 245.975l-3.323-16.069 4.621 1.299 5.46-19.424 5.944 1.671-5.458 19.424 4.625 1.295zM37.912 188.922l2.276-16.251 3.915 2.778 11.675-16.455 5.036 3.573-11.674 16.456 3.92 2.775zM77.501 138.916l5.182-15.57 3.347 3.44 14.463-14.068 4.305 4.427-14.461 14.069 3.352 3.439zM124.586 95.141l6.879-14.899 2.944 3.791 15.935-12.375 3.788 4.876-15.934 12.378 2.949 3.79zM175.848 55.856l7.802-14.435 2.701 3.969 16.683-11.347 3.472 5.106-16.682 11.349 2.704 3.968zM229.444 20.098l9.085-13.665 2.327 4.198L258.503.85l2.994 5.4-17.646 9.783 2.333 4.198z"/></svg>