<svg xmlns="http://www.w3.org/2000/svg" width="503.442" height="483.041" overflow="visible" xml:space="preserve"><path fill="none" d="M137.336 90.42S302.891-44.504 409.047 45.286c134.361 113.671 127.54 435.21-231.337 423.551-310.39-10.107-97.677-378.3-24.239-378.3"/><path fill="#010101" stroke="#010101" stroke-width="1.25" d="m118.086 101.756-6.138 15.219-3.127-3.642-15.308 13.143-4.022-4.685 15.306-13.145-3.131-3.64zM73.558 150.908l-1.933 16.295-3.973-2.694-11.326 16.697-5.11-3.466 11.325-16.699-3.978-2.691zM40.794 207.967l.591 16.399-4.339-2.053-8.629 18.238-5.581-2.641 8.627-18.239-4.343-2.049zM17.918 269.71l3.506 16.031-4.635-1.246-5.239 19.484-5.963-1.604 5.237-19.484-4.639-1.242zM8.446 335.567l8.344 14.13-4.793.265 1.118 20.146-6.165.343-1.12-20.146-4.795.272zM24.099 400.725l14.05 8.477-4.091 2.508 10.545 17.202-5.264 3.226-10.547-17.199-4.092 2.515zM70.992 449.189l16.405-.367-2.111 4.31 18.118 8.877-2.716 5.545-18.12-8.875-2.109 4.315zM134.278 469.874l15.416-5.622-.614 4.76 20.011 2.582-.79 6.123-20.011-2.578-.609 4.763zM199.825 474.013l14.432-7.809.087 4.799 20.173-.364.111 6.174-20.172.366.091 4.802zM265.404 469.452l13.096-9.889.807 4.732 19.889-3.388 1.037 6.087-19.889 3.39.811 4.734zM329.434 454.268l11.186-12.007 1.613 4.522 19.002-6.782 2.077 5.815-19.002 6.784 1.618 4.522zM388.925 426.103l8.66-13.937 2.455 4.124 17.338-10.32 3.157 5.306-17.336 10.321 2.46 4.125zM439.068 382.896l3.993-15.917 3.596 3.179 13.361-15.119 4.627 4.087-13.359 15.122 3.602 3.175zM474.908 327.098l-.944-16.383 4.382 1.959 8.234-18.419 5.637 2.52-8.233 18.42 4.387 1.956zM492.371 263.158l-5.73-15.376 4.764.58 2.44-20.029 6.129.747-2.438 20.028 4.768.576zM492.492 196.775l-9.805-13.157 4.736-.777-3.266-19.91 6.094-.999 3.268 19.909 4.738-.782zM475.883 133.122l-12.015-11.176 4.519-1.617-6.797-18.997 5.813-2.081 6.8 18.997 4.52-1.623zM443.249 75.618l-14.726-7.242 3.863-2.85-11.982-16.234 4.968-3.667 11.983 16.233 3.862-2.856zM395.144 29.783l-16.345-1.462 2.579-4.048-17.018-10.84 3.318-5.207 17.018 10.837 2.575-4.053zM331.104 9.564l-14.7 7.295.083-4.799-20.173-.349.107-6.173 20.173.346.078-4.802zM265.647 18.07l-12.293 10.869-1.169-4.655-19.569 4.914-1.504-5.988 19.568-4.917-1.174-4.656zM204.021 41.732l-9.684 13.248-2.138-4.297-18.064 8.986-2.751-5.528 18.063-8.989-2.143-4.297zM147.149 75.29l-7.097 14.794-2.888-3.834-16.117 12.139-3.714-4.932 16.115-12.141-2.893-3.833z"/></svg>