<svg xmlns="http://www.w3.org/2000/svg" width="581.193" height="1010.005" overflow="visible" xml:space="preserve"><path fill="none" d="M95.737 54.465s5.201-2.932 7.328-1.409c2.129 1.519 2.275 6.019.756 7.232-1.52 1.213-6.363 1.653-10.62 3.478-10.482 4.492 21.621-2.219 30.386-.135"/><path stroke="#000" stroke-width=".15" d="m119.244 62.715-1.802.795.037-.575-2.417-.152.046-.739 2.417.151.036-.575zM111.375 62.937l-1.687 1.016-.037-.576-2.416.156-.047-.74 2.416-.155-.038-.575zM103.59 63.624l-1.659 1.06-.053-.573-2.411.219-.067-.738 2.411-.219-.053-.575zM95.879 64.386l-1.725.95-.014-.576-2.421.061-.018-.74 2.42-.062-.015-.576z"/><path stroke="#000" stroke-width=".15" d="m94.463 64.118 1.423-1.362.162.553 2.323-.683.209.711-2.323.683.162.553zM101.908 61.715l1.37-1.414.183.546 2.296-.769.235.703-2.295.769.183.546zM104.658 54.783l-1.542-1.223.525-.236-.992-2.209.676-.303.992 2.208.526-.237zM97.316 52.984l-1.253 1.52-.226-.53-2.227.95-.29-.682 2.226-.95-.226-.53z"/><g opacity=".72"><path fill="none" d="M3.575 73.969h545.761"/><path fill="#FF5820" d="m536.279 75.885 7.151-1.916-7.151-1.916zM525.554 75.885l7.15-1.916-7.15-1.916zM514.828 75.885l7.151-1.916-7.151-1.916zM504.103 75.885l7.15-1.916-7.15-1.916zM493.377 75.885l7.15-1.916-7.15-1.916zM482.651 75.885l7.151-1.916-7.151-1.916zM471.926 75.885l7.15-1.916-7.15-1.916zM461.2 75.885l7.151-1.916-7.151-1.916zM450.475 75.885l7.15-1.916-7.15-1.916zM439.749 75.885l7.15-1.916-7.15-1.916zM429.023 75.885l7.151-1.916-7.151-1.916zM418.298 75.885l7.15-1.916-7.15-1.916zM407.572 75.885l7.151-1.916-7.151-1.916zM396.847 75.885l7.15-1.916-7.15-1.916zM386.121 75.885l7.15-1.916-7.15-1.916zM375.396 75.885l7.15-1.916-7.15-1.916zM364.67 75.885l7.15-1.916-7.15-1.916zM353.944 75.885l7.151-1.916-7.151-1.916zM343.219 75.885l7.15-1.916-7.15-1.916zM332.493 75.885l7.151-1.916-7.151-1.916zM321.768 75.885l7.15-1.916-7.15-1.916zM311.042 75.885l7.15-1.916-7.15-1.916zM300.316 75.885l7.151-1.916-7.151-1.916zM289.591 75.885l7.15-1.916-7.15-1.916zM278.865 75.885l7.151-1.916-7.151-1.916zM268.14 75.885l7.15-1.916-7.15-1.916zM257.414 75.885l7.15-1.916-7.15-1.916zM246.688 75.885l7.151-1.916-7.151-1.916zM235.963 75.885l7.15-1.916-7.15-1.916zM225.237 75.885l7.151-1.916-7.151-1.916zM214.512 75.885l7.15-1.916-7.15-1.916zM203.786 75.885l7.151-1.916-7.151-1.916zM193.061 75.885l7.15-1.916-7.15-1.916zM182.335 75.885l7.15-1.916-7.15-1.916zM171.609 75.885l7.151-1.916-7.151-1.916zM160.884 75.885l7.15-1.916-7.15-1.916zM150.158 75.885l7.151-1.916-7.151-1.916zM139.433 75.885l7.15-1.916-7.15-1.916zM128.707 75.885l7.15-1.916-7.15-1.916zM117.981 75.885l7.151-1.916-7.151-1.916zM107.256 75.885l7.15-1.916-7.15-1.916zM96.53 75.885l7.151-1.916-7.151-1.916zM85.805 75.885l7.15-1.916-7.15-1.916zM75.079 75.885l7.15-1.916-7.15-1.916zM64.354 75.885l7.15-1.916-7.15-1.916zM53.628 75.885l7.15-1.916-7.15-1.916zM42.902 75.885l7.151-1.916-7.151-1.916zM32.177 75.885l7.15-1.916-7.15-1.916zM21.451 75.885l7.151-1.916-7.151-1.916zM10.726 75.885l7.15-1.916-7.15-1.916zM0 75.885l7.15-1.916L0 72.053z"/><path fill-rule="evenodd" clip-rule="evenodd" fill="red" d="M3.575 73.969h545.761"/></g><g opacity=".72"><path fill="none" d="M3.575 219.5h545.376"/><path fill="#FF2020" d="m536.279 221.417 7.151-1.917-7.151-1.916zM525.554 221.417l7.15-1.917-7.15-1.916zM514.828 221.417l7.151-1.917-7.151-1.916zM504.103 221.417l7.15-1.917-7.15-1.916zM493.377 221.417l7.15-1.917-7.15-1.916zM482.651 221.417l7.151-1.917-7.151-1.916zM471.926 221.417l7.15-1.917-7.15-1.916zM461.2 221.417l7.151-1.917-7.151-1.916zM450.475 221.417l7.15-1.917-7.15-1.916zM439.749 221.417l7.15-1.917-7.15-1.916zM429.023 221.417l7.151-1.917-7.151-1.916zM418.298 221.417l7.15-1.917-7.15-1.916zM407.572 221.417l7.151-1.917-7.151-1.916zM396.847 221.417l7.15-1.917-7.15-1.916zM386.121 221.417l7.15-1.917-7.15-1.916zM375.396 221.417l7.15-1.917-7.15-1.916zM364.67 221.417l7.15-1.917-7.15-1.916zM353.944 221.417l7.151-1.917-7.151-1.916zM343.219 221.417l7.15-1.917-7.15-1.916zM332.493 221.417l7.151-1.917-7.151-1.916zM321.768 221.417l7.15-1.917-7.15-1.916zM311.042 221.417l7.15-1.917-7.15-1.916zM300.316 221.417l7.151-1.917-7.151-1.916zM289.591 221.417l7.15-1.917-7.15-1.916zM278.865 221.417l7.151-1.917-7.151-1.916zM268.14 221.417l7.15-1.917-7.15-1.916zM257.414 221.417l7.15-1.917-7.15-1.916zM246.688 221.417l7.151-1.917-7.151-1.916zM235.963 221.417l7.15-1.917-7.15-1.916zM225.237 221.417l7.151-1.917-7.151-1.916zM214.512 221.417l7.15-1.917-7.15-1.916zM203.786 221.417l7.151-1.917-7.151-1.916zM193.061 221.417l7.15-1.917-7.15-1.916zM182.335 221.417l7.15-1.917-7.15-1.916zM171.609 221.417l7.151-1.917-7.151-1.916zM160.884 221.417l7.15-1.917-7.15-1.916zM150.158 221.417l7.151-1.917-7.151-1.916zM139.433 221.417l7.15-1.917-7.15-1.916zM128.707 221.417l7.15-1.917-7.15-1.916zM117.981 221.417l7.151-1.917-7.151-1.916zM107.256 221.417l7.15-1.917-7.15-1.916zM96.53 221.417l7.151-1.917-7.151-1.916zM85.805 221.417l7.15-1.917-7.15-1.916zM75.079 221.417l7.15-1.917-7.15-1.916zM64.354 221.417l7.15-1.917-7.15-1.916zM53.628 221.417l7.15-1.917-7.15-1.916zM42.902 221.417l7.151-1.917-7.151-1.916zM32.177 221.417l7.15-1.917-7.15-1.916zM21.451 221.417l7.151-1.917-7.151-1.916zM10.726 221.417l7.15-1.917-7.15-1.916zM0 221.417l7.15-1.917L0 217.584z"/><path fill-rule="evenodd" clip-rule="evenodd" fill="red" d="M3.575 219.5h545.376"/></g><g opacity=".72"><path fill="none" d="M3.575 360.145h546.224"/><path fill="#FF5820" d="m536.279 362.06 7.151-1.915-7.151-1.916zM525.554 362.06l7.15-1.915-7.15-1.916zM514.828 362.06l7.151-1.915-7.151-1.916zM504.103 362.06l7.15-1.915-7.15-1.916zM493.377 362.06l7.15-1.915-7.15-1.916zM482.651 362.06l7.151-1.915-7.151-1.916zM471.926 362.06l7.15-1.915-7.15-1.916zM461.2 362.06l7.151-1.915-7.151-1.916zM450.475 362.06l7.15-1.915-7.15-1.916zM439.749 362.06l7.15-1.915-7.15-1.916zM429.023 362.06l7.151-1.915-7.151-1.916zM418.298 362.06l7.15-1.915-7.15-1.916zM407.572 362.06l7.151-1.915-7.151-1.916zM396.847 362.06l7.15-1.915-7.15-1.916zM386.121 362.06l7.15-1.915-7.15-1.916zM375.396 362.06l7.15-1.915-7.15-1.916zM364.67 362.06l7.15-1.915-7.15-1.916zM353.944 362.06l7.151-1.915-7.151-1.916zM343.219 362.06l7.15-1.915-7.15-1.916zM332.493 362.06l7.151-1.915-7.151-1.916zM321.768 362.06l7.15-1.915-7.15-1.916zM311.042 362.06l7.15-1.915-7.15-1.916zM300.316 362.06l7.151-1.915-7.151-1.916zM289.591 362.06l7.15-1.915-7.15-1.916zM278.865 362.06l7.151-1.915-7.151-1.916zM268.14 362.06l7.15-1.915-7.15-1.916zM257.414 362.06l7.15-1.915-7.15-1.916zM246.688 362.06l7.151-1.915-7.151-1.916zM235.963 362.06l7.15-1.915-7.15-1.916zM225.237 362.06l7.151-1.915-7.151-1.916zM214.512 362.06l7.15-1.915-7.15-1.916zM203.786 362.06l7.151-1.915-7.151-1.916zM193.061 362.06l7.15-1.915-7.15-1.916zM182.335 362.06l7.15-1.915-7.15-1.916zM171.609 362.06l7.151-1.915-7.151-1.916zM160.884 362.06l7.15-1.915-7.15-1.916zM150.158 362.06l7.151-1.915-7.151-1.916zM139.433 362.06l7.15-1.915-7.15-1.916zM128.707 362.06l7.15-1.915-7.15-1.916zM117.981 362.06l7.151-1.915-7.151-1.916zM107.256 362.06l7.15-1.915-7.15-1.916zM96.53 362.06l7.151-1.915-7.151-1.916zM85.805 362.06l7.15-1.915-7.15-1.916zM75.079 362.06l7.15-1.915-7.15-1.916zM64.354 362.06l7.15-1.915-7.15-1.916zM53.628 362.06l7.15-1.915-7.15-1.916zM42.902 362.06l7.151-1.915-7.151-1.916zM32.177 362.06l7.15-1.915-7.15-1.916zM21.451 362.06l7.151-1.915-7.151-1.916zM10.726 362.06l7.15-1.915-7.15-1.916zM0 362.06l7.15-1.915L0 358.229z"/><path fill-rule="evenodd" clip-rule="evenodd" fill="red" d="M3.575 360.145h546.224"/></g><g opacity=".72"><path fill="none" d="M3.575 508.256h542.194"/><path fill="#FF5820" d="m536.279 510.172 7.151-1.916-7.151-1.916zM525.554 510.172l7.15-1.916-7.15-1.916zM514.828 510.172l7.151-1.916-7.151-1.916zM504.103 510.172l7.15-1.916-7.15-1.916zM493.377 510.172l7.15-1.916-7.15-1.916zM482.651 510.172l7.151-1.916-7.151-1.916zM471.926 510.172l7.15-1.916-7.15-1.916zM461.2 510.172l7.151-1.916-7.151-1.916zM450.475 510.172l7.15-1.916-7.15-1.916zM439.749 510.172l7.15-1.916-7.15-1.916zM429.023 510.172l7.151-1.916-7.151-1.916zM418.298 510.172l7.15-1.916-7.15-1.916zM407.572 510.172l7.151-1.916-7.151-1.916zM396.847 510.172l7.15-1.916-7.15-1.916zM386.121 510.172l7.15-1.916-7.15-1.916zM375.396 510.172l7.15-1.916-7.15-1.916zM364.67 510.172l7.15-1.916-7.15-1.916zM353.944 510.172l7.151-1.916-7.151-1.916zM343.219 510.172l7.15-1.916-7.15-1.916zM332.493 510.172l7.151-1.916-7.151-1.916zM321.768 510.172l7.15-1.916-7.15-1.916zM311.042 510.172l7.15-1.916-7.15-1.916zM300.316 510.172l7.151-1.916-7.151-1.916zM289.591 510.172l7.15-1.916-7.15-1.916zM278.865 510.172l7.151-1.916-7.151-1.916zM268.14 510.172l7.15-1.916-7.15-1.916zM257.414 510.172l7.15-1.916-7.15-1.916zM246.688 510.172l7.151-1.916-7.151-1.916zM235.963 510.172l7.15-1.916-7.15-1.916zM225.237 510.172l7.151-1.916-7.151-1.916zM214.512 510.172l7.15-1.916-7.15-1.916zM203.786 510.172l7.151-1.916-7.151-1.916zM193.061 510.172l7.15-1.916-7.15-1.916zM182.335 510.172l7.15-1.916-7.15-1.916zM171.609 510.172l7.151-1.916-7.151-1.916zM160.884 510.172l7.15-1.916-7.15-1.916zM150.158 510.172l7.151-1.916-7.151-1.916zM139.433 510.172l7.15-1.916-7.15-1.916zM128.707 510.172l7.15-1.916-7.15-1.916zM117.981 510.172l7.151-1.916-7.151-1.916zM107.256 510.172l7.15-1.916-7.15-1.916zM96.53 510.172l7.151-1.916-7.151-1.916zM85.805 510.172l7.15-1.916-7.15-1.916zM75.079 510.172l7.15-1.916-7.15-1.916zM64.354 510.172l7.15-1.916-7.15-1.916zM53.628 510.172l7.15-1.916-7.15-1.916zM42.902 510.172l7.151-1.916-7.151-1.916zM32.177 510.172l7.15-1.916-7.15-1.916zM21.451 510.172l7.151-1.916-7.151-1.916zM10.726 510.172l7.15-1.916-7.15-1.916zM0 510.172l7.15-1.916L0 506.34z"/><path fill-rule="evenodd" clip-rule="evenodd" fill="red" d="M3.575 508.256h542.194"/></g><g opacity=".72"><path fill="none" d="M3.575 646.049h546.273"/><path fill="#FF2020" d="m536.279 647.964 7.151-1.915-7.151-1.916zM525.554 647.964l7.15-1.915-7.15-1.916zM514.828 647.964l7.151-1.915-7.151-1.916zM504.103 647.964l7.15-1.915-7.15-1.916zM493.377 647.964l7.15-1.915-7.15-1.916zM482.651 647.964l7.151-1.915-7.151-1.916zM471.926 647.964l7.15-1.915-7.15-1.916zM461.2 647.964l7.151-1.915-7.151-1.916zM450.475 647.964l7.15-1.915-7.15-1.916zM439.749 647.964l7.15-1.915-7.15-1.916zM429.023 647.964l7.151-1.915-7.151-1.916zM418.298 647.964l7.15-1.915-7.15-1.916zM407.572 647.964l7.151-1.915-7.151-1.916zM396.847 647.964l7.15-1.915-7.15-1.916zM386.121 647.964l7.15-1.915-7.15-1.916zM375.396 647.964l7.15-1.915-7.15-1.916zM364.67 647.964l7.15-1.915-7.15-1.916zM353.944 647.964l7.151-1.915-7.151-1.916zM343.219 647.964l7.15-1.915-7.15-1.916zM332.493 647.964l7.151-1.915-7.151-1.916zM321.768 647.964l7.15-1.915-7.15-1.916zM311.042 647.964l7.15-1.915-7.15-1.916zM300.316 647.964l7.151-1.915-7.151-1.916zM289.591 647.964l7.15-1.915-7.15-1.916zM278.865 647.964l7.151-1.915-7.151-1.916zM268.14 647.964l7.15-1.915-7.15-1.916zM257.414 647.964l7.15-1.915-7.15-1.916zM246.688 647.964l7.151-1.915-7.151-1.916zM235.963 647.964l7.15-1.915-7.15-1.916zM225.237 647.964l7.151-1.915-7.151-1.916zM214.512 647.964l7.15-1.915-7.15-1.916zM203.786 647.964l7.151-1.915-7.151-1.916zM193.061 647.964l7.15-1.915-7.15-1.916zM182.335 647.964l7.15-1.915-7.15-1.916zM171.609 647.964l7.151-1.915-7.151-1.916zM160.884 647.964l7.15-1.915-7.15-1.916zM150.158 647.964l7.151-1.915-7.151-1.916zM139.433 647.964l7.15-1.915-7.15-1.916zM128.707 647.964l7.15-1.915-7.15-1.916zM117.981 647.964l7.151-1.915-7.151-1.916zM107.256 647.964l7.15-1.915-7.15-1.916zM96.53 647.964l7.151-1.915-7.151-1.916zM85.805 647.964l7.15-1.915-7.15-1.916zM75.079 647.964l7.15-1.915-7.15-1.916zM64.354 647.964l7.15-1.915-7.15-1.916zM53.628 647.964l7.15-1.915-7.15-1.916zM42.902 647.964l7.151-1.915-7.151-1.916zM32.177 647.964l7.15-1.915-7.15-1.916zM21.451 647.964l7.151-1.915-7.151-1.916zM10.726 647.964l7.15-1.915-7.15-1.916zM0 647.964l7.15-1.915L0 644.133z"/><path fill-rule="evenodd" clip-rule="evenodd" fill="red" d="M3.575 646.049h546.273"/></g><g opacity=".72"><path fill="none" d="M3.575 795.175h546.273"/><path fill="#FF2020" d="m536.279 797.091 7.151-1.916-7.151-1.916zM525.554 797.091l7.15-1.916-7.15-1.916zM514.828 797.091l7.151-1.916-7.151-1.916zM504.103 797.091l7.15-1.916-7.15-1.916zM493.377 797.091l7.15-1.916-7.15-1.916zM482.651 797.091l7.151-1.916-7.151-1.916zM471.926 797.091l7.15-1.916-7.15-1.916zM461.2 797.091l7.151-1.916-7.151-1.916zM450.475 797.091l7.15-1.916-7.15-1.916zM439.749 797.091l7.15-1.916-7.15-1.916zM429.023 797.091l7.151-1.916-7.151-1.916zM418.298 797.091l7.15-1.916-7.15-1.916zM407.572 797.091l7.151-1.916-7.151-1.916zM396.847 797.091l7.15-1.916-7.15-1.916zM386.121 797.091l7.15-1.916-7.15-1.916zM375.396 797.091l7.15-1.916-7.15-1.916zM364.67 797.091l7.15-1.916-7.15-1.916zM353.944 797.091l7.151-1.916-7.151-1.916zM343.219 797.091l7.15-1.916-7.15-1.916zM332.493 797.091l7.151-1.916-7.151-1.916zM321.768 797.091l7.15-1.916-7.15-1.916zM311.042 797.091l7.15-1.916-7.15-1.916zM300.316 797.091l7.151-1.916-7.151-1.916zM289.591 797.091l7.15-1.916-7.15-1.916zM278.865 797.091l7.151-1.916-7.151-1.916zM268.14 797.091l7.15-1.916-7.15-1.916zM257.414 797.091l7.15-1.916-7.15-1.916zM246.688 797.091l7.151-1.916-7.151-1.916zM235.963 797.091l7.15-1.916-7.15-1.916zM225.237 797.091l7.151-1.916-7.151-1.916zM214.512 797.091l7.15-1.916-7.15-1.916zM203.786 797.091l7.151-1.916-7.151-1.916zM193.061 797.091l7.15-1.916-7.15-1.916zM182.335 797.091l7.15-1.916-7.15-1.916zM171.609 797.091l7.151-1.916-7.151-1.916zM160.884 797.091l7.15-1.916-7.15-1.916zM150.158 797.091l7.151-1.916-7.151-1.916zM139.433 797.091l7.15-1.916-7.15-1.916zM128.707 797.091l7.15-1.916-7.15-1.916zM117.981 797.091l7.151-1.916-7.151-1.916zM107.256 797.091l7.15-1.916-7.15-1.916zM96.53 797.091l7.151-1.916-7.151-1.916zM85.805 797.091l7.15-1.916-7.15-1.916zM75.079 797.091l7.15-1.916-7.15-1.916zM64.354 797.091l7.15-1.916-7.15-1.916zM53.628 797.091l7.15-1.916-7.15-1.916zM42.902 797.091l7.151-1.916-7.151-1.916zM32.177 797.091l7.15-1.916-7.15-1.916zM21.451 797.091l7.151-1.916-7.151-1.916zM10.726 797.091l7.15-1.916-7.15-1.916zM0 797.091l7.15-1.916L0 793.259z"/><path fill-rule="evenodd" clip-rule="evenodd" fill="red" d="M3.575 795.175h546.273"/></g><path fill="none" d="M251.311 52.04s6.821-5.559 11.194-1.859c5.536 4.683 5.254 17.93-9.531 17.449-12.788-.416-4.024-15.585-.999-15.585"/><path stroke="#000" stroke-width=".15" d="m249.197 53.562-.399 1.928-.447-.363-1.526 1.88-.575-.467 1.525-1.88-.447-.363zM245.943 60.976l1.024 1.681-.574.04.167 2.415-.74.051-.167-2.415-.575.04zM250.085 67.143l1.967-.1-.239.524 2.204 1.004-.308.674-2.203-1.003-.239.525zM257.911 66.804l1.413-1.372.166.551 2.318-.698.214.71-2.318.698.167.552zM264.553 62.721l-.266-1.951.543.193.813-2.28.698.249-.813 2.28.543.194zM265.593 54.889l-1.563-1.199.522-.244-1.028-2.193.671-.314 1.028 2.192.522-.245zM260.521 48.974l-1.919.443.143-.558-2.346-.601.184-.717 2.346.6.142-.558zM252.607 50.307l-.968 1.714-.315-.482-2.027 1.324-.405-.621 2.026-1.324-.315-.482z"/><path fill="none" d="M309.197 49.161c3.041.611 7.904 13.381 7.904 13.381"/><path stroke="#000" stroke-width=".15" d="m318.495 64.062-1.483-1.295.536-.211-.888-2.253.69-.271.887 2.252.536-.212zM315.361 56.873l-1.57-1.188.52-.248-1.043-2.186.67-.318 1.041 2.185.521-.249zM311.098 50.196l-1.836-.713.432-.381-1.6-1.816.556-.49 1.6 1.816.433-.381z"/><path fill="none" d="M316.573 46.968s9.131-6.558 12.938.708 2.734 10.009-1.418 13.469-7.62 6.026-7.62 6.026"/><path stroke="#000" stroke-width=".15" d="m319.421 68.865.87-1.766.342.464 1.949-1.437.439.596-1.949 1.437.342.464zM325.59 64.067l.824-1.788.354.455 1.91-1.487.455.585-1.91 1.487.353.454zM330.97 58.256l.285-1.948.468.336 1.414-1.966.601.433-1.414 1.966.469.336zM331.035 50.498l-1.32-1.461.556-.146-.613-2.343.717-.187.614 2.342.558-.147zM325.998 44.077l-1.893.546.114-.565-2.375-.473.145-.727 2.374.474.114-.566zM317.997 45.338l-1.096 1.637-.277-.505-2.122 1.167-.356-.649 2.121-1.167-.279-.505z"/><path fill="none" d="m400.861 44.74-7.146 21.437"/><path stroke="#000" stroke-width=".15" d="m395.957 61.698-.276-1.95.544.19.8-2.284.7.245-.801 2.285.544.191zM398.422 54.301l-.276-1.95.543.191.802-2.285.699.245-.8 2.285.544.191zM400.889 46.904l-.277-1.949.544.19.801-2.285.699.246-.801 2.284.544.191z"/><path fill="none" d="M480.682 29.112s-17.135 9.563-16.549 18.914 2.461 19.146 8.865 17.729c2.467-1.266 5.494-2.93 7.684-4.729 3.408-4.863 5.928-7.033 1.896-13.303-1.907-2.967-11.645 7.166-11.645 7.166"/><path stroke="#000" stroke-width=".15" d="m475.375 51.815.834-1.783.352.457 1.919-1.475.452.588-1.92 1.475.351.457zM480.762 48.254l1.953.251-.328.474 1.99 1.379-.423.609-1.989-1.379-.328.474zM483.239 54.056l.609 1.873-.569-.095-.395 2.389-.732-.121.396-2.389-.569-.093zM479.814 60.189l-.621 1.868-.402-.412-1.734 1.688-.518-.531 1.735-1.689-.401-.413zM474.127 64.537l-1.671 1.043-.046-.575-2.414.195-.058-.739 2.413-.194-.046-.575zM468.162 62.405l-1.471-1.309.538-.206-.866-2.262.693-.264.866 2.261.538-.207zM465.751 55.229l-1.091-1.64.572-.063-.263-2.406.736-.081.265 2.407.573-.063zM464.965 47.904l-.087-1.967.522.242 1.019-2.197.672.312-1.018 2.197.523.242zM467.801 40.786l.343-1.939.458.35 1.47-1.924.588.451-1.47 1.923.458.35zM473.257 35.486l.755-1.819.371.441 1.853-1.558.477.567-1.854 1.558.372.441zM479.342 30.812l1.012-1.689.302.489 2.061-1.272.388.631-2.059 1.272.303.49z"/><path fill="none" d="M29.813 197.301s5.201-2.932 7.328-1.409c2.129 1.519 2.275 6.019.756 7.232-1.52 1.213-6.363 1.653-10.62 3.478-10.482 4.492 21.621-2.219 30.386-.135"/><path stroke="#000" stroke-width=".15" d="m53.32 205.551-1.801.795.036-.575-2.417-.152.047-.739 2.416.151.036-.575zM45.451 205.773l-1.687 1.016-.037-.575-2.416.155-.047-.74 2.416-.155-.037-.575zM37.666 206.46l-1.659 1.061-.052-.574-2.412.22-.066-.738 2.41-.221-.053-.573zM29.955 207.223l-1.725.949-.014-.576-2.421.061-.018-.74 2.42-.062-.015-.576z"/><path stroke="#000" stroke-width=".15" d="m28.539 206.954 1.423-1.362.162.553 2.323-.683.209.711-2.323.683.163.553zM35.984 204.551l1.37-1.414.184.546 2.295-.769.235.703-2.295.769.184.547zM38.734 197.619l-1.542-1.223.525-.236-.992-2.209.676-.304.993 2.209.525-.237zM31.393 195.821l-1.253 1.519-.226-.53-2.227.95-.291-.681 2.227-.951-.227-.529z"/><path fill="none" d="M25.358 347.486c5.457-.228 14.77-.528 22.344 1.204s12.354-4.016 13.437-8.523c1.081-4.51-1.176-6.731-6.225-6.731"/><path stroke="#000" stroke-width=".15" d="m56.233 334.587 1.943-.318-.178.547 2.301.752-.23.704-2.301-.751-.179.548zM60.508 338.571l.496 1.906-.562-.128-.537 2.36-.722-.164.536-2.36-.562-.128zM57.568 345.146l-.957 1.722-.318-.48-2.018 1.338-.409-.618 2.017-1.338-.318-.48zM50.508 347.375l-1.545 1.223-.109-.566-2.377.461-.141-.728 2.377-.461-.11-.565zM43.029 347.454l-1.848.677.072-.571-2.401-.306.093-.735 2.402.306.072-.572zM35.189 346.65l-1.751.901.002-.576-2.421-.007.002-.741 2.421.006.001-.576zM27.393 346.75l-1.751.901.002-.576-2.421-.007.002-.741 2.421.006.001-.576z"/><path fill="none" d="M28.792 619.135c3.041.611 7.904 13.381 7.904 13.381"/><path stroke="#000" stroke-width=".15" d="m38.091 634.036-1.484-1.295.536-.211-.888-2.252.69-.272.888 2.252.536-.212zM34.956 626.846l-1.57-1.187.52-.248-1.043-2.186.669-.318 1.043 2.184.52-.249zM30.693 620.17l-1.836-.712.433-.381-1.601-1.817.556-.49 1.601 1.816.432-.38z"/><path fill="none" d="M36.168 616.942s9.131-6.558 12.938.709 2.734 10.01-1.418 13.469c-4.152 3.461-7.621 6.026-7.621 6.026"/><path stroke="#000" stroke-width=".15" d="m39.016 638.839.87-1.766.342.464 1.948-1.437.44.596-1.949 1.437.342.463zM45.185 634.042l.824-1.789.353.455 1.911-1.487.455.586-1.911 1.486.354.455zM50.564 628.23l.287-1.948.467.336 1.414-1.965.601.432-1.413 1.966.468.336zM50.63 620.472l-1.32-1.462.557-.145-.614-2.343.717-.188.614 2.342.558-.146zM45.593 614.051l-1.892.546.113-.565-2.375-.473.145-.726 2.374.472.113-.564zM37.592 615.312l-1.095 1.637-.278-.505-2.121 1.167-.357-.65 2.121-1.167-.278-.504z"/><path fill="none" d="m45.124 759.899-7.146 21.437"/><path stroke="#000" stroke-width=".15" d="m40.219 776.857-.276-1.95.544.191.801-2.285.699.246-.801 2.284.544.191zM42.685 769.46l-.276-1.95.544.192.801-2.285.699.246-.801 2.284.544.19zM45.151 762.063l-.276-1.949.543.191.802-2.285.699.245-.801 2.284.544.192z"/><g opacity=".72"><path fill="none" d="M3.575 937.387h546.273"/><path fill="#FF2020" d="m536.279 939.303 7.151-1.916-7.151-1.916zM525.554 939.303l7.15-1.916-7.15-1.916zM514.828 939.303l7.151-1.916-7.151-1.916zM504.103 939.303l7.15-1.916-7.15-1.916zM493.377 939.303l7.15-1.916-7.15-1.916zM482.651 939.303l7.151-1.916-7.151-1.916zM471.926 939.303l7.15-1.916-7.15-1.916zM461.2 939.303l7.151-1.916-7.151-1.916zM450.475 939.303l7.15-1.916-7.15-1.916zM439.749 939.303l7.15-1.916-7.15-1.916zM429.023 939.303l7.151-1.916-7.151-1.916zM418.298 939.303l7.15-1.916-7.15-1.916zM407.572 939.303l7.151-1.916-7.151-1.916zM396.847 939.303l7.15-1.916-7.15-1.916zM386.121 939.303l7.15-1.916-7.15-1.916zM375.396 939.303l7.15-1.916-7.15-1.916zM364.67 939.303l7.15-1.916-7.15-1.916zM353.944 939.303l7.151-1.916-7.151-1.916zM343.219 939.303l7.15-1.916-7.15-1.916zM332.493 939.303l7.151-1.916-7.151-1.916zM321.768 939.303l7.15-1.916-7.15-1.916zM311.042 939.303l7.15-1.916-7.15-1.916zM300.316 939.303l7.151-1.916-7.151-1.916zM289.591 939.303l7.15-1.916-7.15-1.916zM278.865 939.303l7.151-1.916-7.151-1.916zM268.14 939.303l7.15-1.916-7.15-1.916zM257.414 939.303l7.15-1.916-7.15-1.916zM246.688 939.303l7.151-1.916-7.151-1.916zM235.963 939.303l7.15-1.916-7.15-1.916zM225.237 939.303l7.151-1.916-7.151-1.916zM214.512 939.303l7.15-1.916-7.15-1.916zM203.786 939.303l7.151-1.916-7.151-1.916zM193.061 939.303l7.15-1.916-7.15-1.916zM182.335 939.303l7.15-1.916-7.15-1.916zM171.609 939.303l7.151-1.916-7.151-1.916zM160.884 939.303l7.15-1.916-7.15-1.916zM150.158 939.303l7.151-1.916-7.151-1.916zM139.433 939.303l7.15-1.916-7.15-1.916zM128.707 939.303l7.15-1.916-7.15-1.916zM117.981 939.303l7.151-1.916-7.151-1.916zM107.256 939.303l7.15-1.916-7.15-1.916zM96.53 939.303l7.151-1.916-7.151-1.916zM85.805 939.303l7.15-1.916-7.15-1.916zM75.079 939.303l7.15-1.916-7.15-1.916zM64.354 939.303l7.15-1.916-7.15-1.916zM53.628 939.303l7.15-1.916-7.15-1.916zM42.902 939.303l7.151-1.916-7.151-1.916zM32.177 939.303l7.15-1.916-7.15-1.916zM21.451 939.303l7.151-1.916-7.151-1.916zM10.726 939.303l7.15-1.916-7.15-1.916zM0 939.303l7.15-1.916L0 935.471z"/><path fill-rule="evenodd" clip-rule="evenodd" fill="red" d="M3.575 937.387h546.273"/></g><path fill="none" d="M92.733 198.711s4.364-2.46 6.149-1.183c1.787 1.275 1.909 5.051.635 6.069-1.275 1.018-5.34 1.388-8.912 2.918-8.796 3.77 18.143-1.862 25.498-.113"/><path stroke="#000" stroke-width=".15" d="m114.813 205.663-1.782.838.023-.576-2.42-.092.029-.741 2.419.093.022-.576zM106.938 205.58l-1.671 1.042-.046-.574-2.413.193-.059-.738 2.413-.194-.047-.574zM99.181 206.333l-1.677 1.033-.042-.574-2.415.179-.054-.739 2.414-.179-.043-.575zM91.743 208.833l-1.688-1.015.491-.301-1.268-2.063.631-.388 1.268 2.062.491-.302z"/><path stroke="#000" stroke-width=".15" d="m95.248 205.814 1.396-1.388.172.55 2.31-.726.222.707-2.309.726.173.549zM100.357 200.793l-1.019-1.685.575-.038-.159-2.415.74-.049.159 2.416.575-.038zM94.312 197.231l-1.253 1.519-.226-.53-2.227.95-.291-.681 2.227-.95-.227-.53z"/><path fill="none" d="M116.405 197.682s4.364-2.46 6.149-1.183c1.787 1.275 1.909 5.051.634 6.069-1.275 1.018-5.34 1.387-8.912 2.918-8.796 3.77 18.143-1.862 25.498-.113"/><path stroke="#000" stroke-width=".15" d="m138.486 204.634-1.782.838.023-.576-2.42-.092.029-.741 2.419.093.021-.576zM130.61 204.551l-1.67 1.042-.046-.574-2.414.193-.059-.738 2.413-.194-.046-.574zM122.854 205.305l-1.677 1.032-.042-.574-2.415.179-.054-.738 2.414-.18-.043-.575zM115.415 207.805l-1.687-1.015.49-.302-1.268-2.062.631-.388 1.269 2.062.49-.302z"/><path stroke="#000" stroke-width=".15" d="m118.919 204.785 1.397-1.388.173.549 2.309-.725.223.707-2.31.726.173.549zM124.029 199.765l-1.018-1.686.574-.037-.158-2.417.74-.048.158 2.416.575-.038zM117.984 196.202l-1.253 1.519-.226-.53-2.227.951-.29-.682 2.226-.95-.226-.53z"/><path fill="none" d="M92.223 630.258s4.364-2.46 6.149-1.182c1.786 1.274 1.909 5.05.634 6.068-1.275 1.018-5.34 1.387-8.912 2.918-8.796 3.77 36.064-1.023 43.419.727"/><path stroke="#000" stroke-width=".15" d="m131.263 637.972-1.802.794.036-.574-2.416-.151.046-.74 2.416.151.036-.575zM123.414 637.762l-1.73.941-.012-.576-2.42.049-.015-.74 2.42-.051-.011-.576zM115.622 638.042l-1.73.941-.012-.576-2.42.049-.015-.741 2.42-.049-.011-.577zM107.826 638.362l-1.722.955-.016-.576-2.42.07-.022-.74 2.42-.071-.016-.576zM100.053 638.687l-1.743.915-.003-.576-2.422.013-.003-.742 2.421-.012-.004-.577zM92.504 639.77l-1.941-.334.348-.459-1.93-1.461.447-.591 1.93 1.461.348-.46zM94.737 637.362l1.397-1.389.173.549 2.309-.725.222.707-2.309.725.173.551zM99.846 632.341l-1.018-1.685.575-.038-.159-2.416.739-.048.16 2.415.574-.037zM93.802 628.779l-1.253 1.518-.226-.529-2.227.95-.29-.681 2.226-.951-.226-.529z"/><g><path fill="none" d="M92.223 491.015s4.364-2.46 6.149-1.183c1.786 1.274 1.909 5.05.634 6.069-1.275 1.018-5.34 1.387-8.912 2.918-8.796 3.77 34.098 1.529 41.453 3.278"/><path stroke="#000" stroke-width=".15" d="m130.844 501.327-1.828.733.055-.574-2.409-.234.071-.737 2.41.234.056-.574zM123.023 500.728l-1.774.854.017-.576-2.42-.071.022-.741 2.42.071.017-.576zM115.227 500.619l-1.775.853.017-.576-2.42-.071.022-.741 2.42.072.017-.576zM107.431 500.509l-1.774.854.016-.576-2.42-.072.023-.74 2.419.071.017-.576zM99.658 500.39l-1.801.796.036-.575-2.416-.149.045-.739 2.416.149.036-.576zM92.227 500.814l-1.886-.567.401-.414-1.738-1.685.516-.532 1.738 1.685.401-.413zM94.737 498.118l1.397-1.389.172.55 2.31-.726.222.707-2.31.726.174.55zM99.847 493.097l-1.018-1.686.574-.037-.158-2.416.739-.049.159 2.416.575-.038zM93.802 489.535l-1.253 1.519-.226-.53-2.227.95-.29-.682 2.226-.95-.226-.529z"/></g><g><path fill="none" d="M90.549 341.697s4.364-2.46 6.149-1.182c1.787 1.274 1.909 5.05.635 6.069-1.275 1.019-5.34 1.388-8.912 2.918-8.796 3.77 18.143-1.862 25.498-.113"/><path stroke="#000" stroke-width=".15" d="m112.63 348.649-1.782.838.023-.576-2.42-.093.028-.74 2.42.092.021-.575zM104.754 348.565l-1.67 1.043-.046-.574-2.413.193-.06-.738 2.414-.194-.047-.574zM96.998 349.319l-1.677 1.033-.042-.574-2.415.179-.054-.739 2.414-.179-.043-.575zM89.559 351.819l-1.687-1.014.49-.302-1.268-2.063.631-.388 1.268 2.062.491-.301z"/><path stroke="#000" stroke-width=".15" d="m93.064 348.801 1.396-1.388.173.549 2.31-.726.222.707-2.31.726.173.55zM98.173 343.78l-1.018-1.685.574-.038-.158-2.416.739-.048.159 2.415.575-.038zM92.128 340.217l-1.253 1.519-.226-.53-2.227.95-.29-.682 2.226-.95-.226-.53z"/><g><path fill="none" d="M106.197 349.238c4.579-.191 12.394-.443 18.75 1.01 6.355 1.454 10.367-3.37 11.275-7.152.907-3.785-.987-5.649-5.223-5.649"/><path stroke="#000" stroke-width=".15" d="m132.016 338.506 1.943-.318-.179.547 2.302.752-.23.704-2.302-.751-.178.548zM134.819 342.691l.495 1.906-.562-.128-.536 2.361-.723-.164.537-2.361-.562-.127zM131.282 348.193l-1.545 1.222-.109-.566-2.377.461-.141-.727 2.377-.461-.11-.566zM123.858 349.412l-1.848.678.073-.572-2.402-.306.093-.735 2.402.306.073-.572zM116.07 348.529l-1.803.791.037-.575-2.416-.157.049-.739 2.415.156.037-.574zM108.231 348.502l-1.75.901.001-.576-2.421-.007.002-.741 2.421.006.001-.576z"/></g></g><g><path fill="none" d="M126.938 628.018c2.073.418 5.39 9.125 5.39 9.125"/><path stroke="#000" stroke-width=".15" d="m132.651 636.106-1.509-1.266.532-.221-.932-2.236.684-.284.932 2.234.532-.221zM128.722 629.245l-1.753-.9.469-.334-1.404-1.971.604-.43 1.404 1.971.47-.334z"/><g><path fill="none" d="M131.968 626.524s6.226-4.473 8.822.482c2.596 4.955 1.864 6.826-.967 9.186-2.832 2.359-5.196 4.109-5.196 4.109"/><path stroke="#000" stroke-width=".15" d="m136.071 640.082.847-1.778.348.459 1.93-1.462.447.592-1.93 1.461.349.459zM142.678 634.63l-.571-1.884.566.105.443-2.381.728.136-.442 2.381.567.104zM140.823 627.075l-1.742-.916.472-.33-1.384-1.987.608-.424 1.384 1.987.473-.329zM133.392 624.893l-1.096 1.637-.277-.504-2.122 1.167-.356-.65 2.12-1.168-.278-.503z"/></g></g><g><path fill="none" d="M43.935 481.274c-2.403-.687-9.758 2.732-10.148 8.978s3.123 12.881 10.539 12.491 8.587-4.294 8.197-12.491-3.124-7.417-8.588-8.978z"/><path stroke="#000" stroke-width=".15" d="m42.737 481.634 1.948-.295-.186.545 2.293.78-.24.701-2.292-.779-.185.546zM49.542 483.747l1.403 1.383-.548.178.749 2.302-.705.229-.749-2.302-.547.179zM51.731 490.834l.649 1.86-.57-.082-.344 2.397-.734-.106.344-2.396-.571-.082zM50.828 497.896l-.326 1.942-.46-.345-1.454 1.936-.592-.445 1.453-1.937-.461-.345zM45.184 501.479l-1.757.888.006-.575-2.421-.024.007-.741 2.421.023.005-.576zM37.969 500.012l-1.808-.78.446-.364-1.534-1.874.573-.469 1.534 1.873.446-.365zM35.304 493.168l-1.305-1.474.558-.141-.591-2.348.719-.181.591 2.348.559-.141zM36.779 486.705l.167-1.962.487.307 1.292-2.048.627.395-1.292 2.048.487.307z"/><path stroke="#000" stroke-width=".15" d="m42.209 482.58 1.405-1.379.169.55 2.315-.71.217.708-2.314.711.169.551z"/></g><g><path fill="none" d="M131.964 483.652c-2.017-.576-8.188 2.292-8.516 7.533-.328 5.241 2.62 10.809 8.843 10.481 6.224-.327 7.206-3.603 6.878-10.481-.326-6.878-2.619-6.223-7.205-7.533z"/><path stroke="#000" stroke-width=".15" d="m135.515 485.301 1.873.609-.41.404 1.701 1.724-.528.52-1.7-1.723-.41.405zM138.401 491.603l.648 1.859-.57-.082-.344 2.397-.733-.106.343-2.396-.57-.082zM137.388 498.475l-1.219 1.546-.237-.524-2.205 1-.306-.675 2.204-1-.238-.525zM130.928 500.26l-1.968.065.248-.52-2.185-1.043.32-.669 2.185 1.043.247-.52zM125.567 496.344l-1.305-1.475.559-.14-.591-2.348.719-.181.591 2.348.559-.141zM125.234 489.62l.167-1.962.487.307 1.292-2.047.626.395-1.291 2.048.487.307zM130.238 484.958l1.406-1.379.169.55 2.314-.711.218.709-2.315.711.17.551z"/></g><g><path fill="none" d="M278.136 476.867c-2.017-.576-8.188 2.292-8.516 7.533-.328 5.241 2.621 10.809 8.844 10.481 6.224-.328 7.206-3.604 6.878-10.481-.327-6.879-2.62-6.223-7.206-7.533z"/><path stroke="#000" stroke-width=".15" d="m281.688 478.516 1.872.609-.41.404 1.702 1.723-.529.52-1.7-1.722-.41.405zM284.572 484.817l.649 1.86-.571-.082-.343 2.397-.733-.106.343-2.396-.57-.082zM283.56 491.689l-1.219 1.547-.237-.524-2.206.999-.305-.674 2.204-1-.238-.525zM277.1 493.475l-1.969.064.248-.52-2.185-1.043.32-.668 2.185 1.042.248-.52zM271.739 489.558l-1.305-1.475.559-.14-.591-2.348.719-.18.59 2.347.559-.141zM271.406 482.834l.167-1.961.487.307 1.292-2.048.627.396-1.292 2.047.488.308zM276.41 478.172l1.406-1.379.169.551 2.314-.711.218.709-2.315.711.17.551z"/></g><g><path fill="none" d="M351.243 483.033c-2.017-.576-8.188 2.292-8.517 7.533-.327 5.241 2.621 10.809 8.844 10.481 6.225-.327 7.206-3.603 6.879-10.481-.328-6.878-2.621-6.223-7.206-7.533z"/><path stroke="#000" stroke-width=".15" d="m354.794 484.683 1.873.609-.41.404 1.7 1.723-.527.52-1.701-1.722-.41.405zM357.68 490.984l.648 1.86-.57-.082-.344 2.397-.733-.106.342-2.396-.57-.082zM356.666 497.856l-1.219 1.547-.237-.525-2.205 1-.306-.675 2.205-1-.238-.525zM350.206 499.64l-1.968.065.248-.52-2.185-1.043.319-.668 2.185 1.042.248-.52zM344.846 495.724l-1.305-1.474.559-.141-.591-2.348.718-.18.591 2.347.559-.141zM344.513 489l.167-1.961.487.307 1.292-2.048.627.396-1.292 2.047.487.308zM349.518 484.338l1.405-1.379.169.551 2.314-.711.217.709-2.314.711.17.551z"/></g><g><path fill="none" d="M417.162 483.62c-2.017-.576-8.188 2.292-8.516 7.533s2.62 10.809 8.844 10.481c6.223-.327 7.205-3.603 6.878-10.481-.327-6.878-2.62-6.223-7.206-7.533z"/><path stroke="#000" stroke-width=".15" d="m420.713 485.269 1.873.608-.41.405 1.701 1.723-.527.52-1.702-1.722-.41.405zM423.599 491.57l.647 1.86-.569-.082-.344 2.397-.733-.106.343-2.396-.57-.082zM422.586 498.442l-1.219 1.547-.237-.525-2.205 1-.306-.675 2.205-.999-.238-.525zM416.126 500.228l-1.968.064.248-.52-2.185-1.043.32-.668 2.185 1.042.247-.52zM410.766 496.311l-1.306-1.475.559-.14-.591-2.348.718-.181.591 2.348.56-.141zM410.432 489.587l.168-1.962.486.308 1.293-2.048.626.396-1.292 2.047.488.308zM415.437 484.925l1.405-1.379.17.551 2.314-.711.217.709-2.314.711.169.55z"/></g><g><path fill="none" d="M243.873 475.644c-2.017-.576-8.188 2.292-8.516 7.533-.328 5.241 2.621 10.809 8.844 10.481 6.224-.327 7.206-3.603 6.878-10.481-.328-6.878-2.62-6.222-7.206-7.533z"/><path stroke="#000" stroke-width=".15" d="m247.424 477.294 1.873.608-.41.405 1.7 1.723-.527.52-1.701-1.722-.41.404zM250.31 483.595l.648 1.86-.57-.082-.344 2.397-.733-.106.343-2.396-.571-.082zM249.296 490.467l-1.218 1.547-.238-.525-2.205 1-.306-.675 2.205-1-.239-.524zM242.836 492.252l-1.968.065.249-.52-2.185-1.043.319-.669 2.185 1.043.248-.52zM237.476 488.336l-1.305-1.475.558-.14-.59-2.348.718-.181.591 2.348.559-.141zM237.143 481.613l.167-1.963.487.308 1.292-2.048.626.396-1.292 2.048.488.307zM242.147 476.95l1.406-1.379.169.55 2.314-.71.217.708-2.314.711.17.551z"/></g><g><path fill="none" d="M304.712 486.354c2.073.417 5.39 9.124 5.39 9.124"/><path stroke="#000" stroke-width=".15" d="m310.426 494.44-1.51-1.265.532-.221-.931-2.235.683-.285.933 2.234.531-.222zM306.496 487.58l-1.752-.899.469-.334-1.404-1.972.603-.43 1.404 1.972.469-.335z"/><g><path fill="none" d="M309.742 484.858s6.227-4.472 8.822.483 1.864 6.826-.967 9.185a128.537 128.537 0 0 1-5.197 4.109"/><path stroke="#000" stroke-width=".15" d="m313.846 498.416.846-1.777.348.459 1.931-1.462.447.591-1.931 1.461.349.46zM320.453 492.965l-.571-1.885.565.106.443-2.381.728.135-.441 2.381.566.105zM318.597 485.41l-1.743-.917.472-.329-1.383-1.987.608-.423 1.385 1.986.472-.329zM311.166 483.229l-1.096 1.636-.277-.505-2.121 1.167-.358-.649 2.122-1.168-.278-.504z"/></g></g><g><path fill="none" d="M47.169 891.664s-17.136 9.564-16.549 18.914c.586 9.352 2.461 19.146 8.864 17.729 2.467-1.266 5.495-2.93 7.685-4.729 3.408-4.863 5.928-7.032 1.896-13.303-1.908-2.967-11.645 7.166-11.645 7.166"/><path stroke="#000" stroke-width=".15" d="m41.861 914.368.835-1.784.351.458 1.92-1.475.451.588-1.92 1.474.352.457zM47.249 910.806l1.953.251-.328.474 1.99 1.379-.423.609-1.989-1.379-.328.474zM49.726 916.607l.608 1.873-.568-.095-.395 2.389-.731-.121.395-2.388-.569-.095zM46.302 922.74l-.622 1.869-.401-.413-1.736 1.688-.516-.531 1.735-1.688-.402-.414zM40.613 927.088l-1.67 1.043-.046-.574-2.414.194-.059-.739 2.413-.194-.046-.574zM34.65 924.956l-1.471-1.309.538-.206-.866-2.261.692-.264.866 2.259.538-.206zM32.238 917.78l-1.091-1.64.573-.062-.263-2.408.736-.08.264 2.407.573-.063zM31.452 910.456l-.086-1.968.522.242 1.018-2.196.673.311-1.018 2.197.522.242zM34.289 903.337l.342-1.938.458.35 1.471-1.924.588.45-1.47 1.924.458.349zM39.745 898.038l.755-1.819.371.441 1.853-1.559.476.567-1.852 1.559.371.44zM45.83 893.363l1.011-1.69.303.491 2.06-1.273.389.631-2.06 1.272.303.491z"/></g><g><path fill="none" d="M139.188 899.631s-14.379 8.024-13.887 15.872c.492 7.846 2.065 16.066 7.438 14.876 2.07-1.062 4.611-2.458 6.448-3.968 2.86-4.081 4.974-5.901 1.591-11.163-1.601-2.489-9.771 6.014-9.771 6.014"/><path stroke="#000" stroke-width=".15" d="m130.811 922.444.653-1.859.394.42 1.764-1.658.507.54-1.763 1.658.395.42zM136.225 917.119l1.275-1.502.218.533 2.24-.918.281.685-2.24.918.219.534zM140.78 918.108l1.288 1.488-.56.135.566 2.354-.721.173-.565-2.354-.56.135zM139.812 924.657l-.622 1.868-.402-.412-1.735 1.687-.517-.531 1.735-1.687-.402-.414zM134.328 929.398l-1.796.809.032-.576-2.418-.132.042-.741 2.416.133.032-.575zM128.611 926.189l-1.677-1.032.494-.296-1.247-2.076.635-.381 1.247 2.075.494-.297zM126.639 919.04l-1.168-1.585.569-.09-.379-2.392.732-.115.379 2.391.569-.091zM127.609 912.061l-.086-1.967.522.242 1.018-2.197.673.313-1.018 2.196.523.242zM131.836 906.103l.756-1.818.37.441 1.853-1.559.477.568-1.853 1.557.372.442zM137.848 901.331l1.012-1.69.303.49 2.06-1.271.388.63-2.059 1.272.303.49z"/></g><g><path fill="none" d="M460.553 325.841s-14.379 8.025-13.887 15.872c.491 7.846 2.064 16.066 7.438 14.876 2.07-1.062 4.611-2.458 6.449-3.968 2.859-4.081 4.975-5.901 1.592-11.163-1.602-2.489-9.771 6.013-9.771 6.013"/><path stroke="#000" stroke-width=".15" d="m452.175 348.652.653-1.857.395.419 1.763-1.658.508.54-1.764 1.658.395.42zM457.59 343.328l1.273-1.501.219.532 2.24-.918.282.686-2.241.918.219.534zM462.145 344.316l1.289 1.489-.561.135.565 2.354-.72.173-.566-2.354-.56.135zM461.176 350.866l-.621 1.868-.402-.413-1.735 1.689-.517-.531 1.736-1.689-.403-.413zM455.693 355.608l-1.796.809.032-.576-2.417-.133.041-.739 2.417.132.031-.575zM449.976 352.399l-1.677-1.032.494-.296-1.248-2.076.636-.381 1.247 2.075.494-.297zM448.004 345.25l-1.168-1.585.568-.091-.379-2.391.733-.116.379 2.391.568-.09zM448.974 338.271l-.087-1.968.523.242 1.018-2.196.672.312-1.018 2.196.523.242zM453.201 332.313l.756-1.818.37.441 1.853-1.559.476.567-1.851 1.559.371.441zM459.212 327.541l1.013-1.69.301.49 2.06-1.272.39.631-2.06 1.272.303.49z"/></g><g><path fill="none" d="M486.625 488.927s5.723-4.665 9.393-1.56c4.646 3.929 4.409 15.045-7.997 14.642-10.73-.349-3.376-13.078-.838-13.078"/><path stroke="#000" stroke-width=".15" d="m486.205 488.908-.621 1.869-.402-.412-1.734 1.69-.516-.531 1.733-1.69-.402-.413zM482.352 495.79l.464 1.913-.559-.137-.575 2.352-.719-.176.574-2.352-.56-.136zM486.544 502.244l1.861-.643-.083.57 2.395.351-.108.733-2.395-.351-.083.571zM494.359 500.736l1.413-1.371.167.551 2.318-.699.214.71-2.319.698.167.552zM499.34 494.45l-.988-1.703.574-.028-.115-2.418.74-.035.115 2.418.576-.028zM495.98 487.78l-1.953-.251.328-.473-1.991-1.378.422-.609 1.991 1.377.327-.474z"/><path stroke="#000" stroke-width=".15" d="m488.029 487.281-1.076 1.649-.283-.502-2.108 1.191-.365-.645 2.108-1.191-.284-.502z"/></g><g><path fill="none" d="M462.873 608.358s-14.379 8.023-13.887 15.871c.492 7.846 2.064 16.066 7.438 14.877 2.069-1.063 4.61-2.459 6.448-3.969 2.859-4.081 4.975-5.901 1.592-11.163-1.602-2.489-9.771 6.013-9.771 6.013"/><path stroke="#000" stroke-width=".15" d="m454.496 631.168.652-1.858.395.42 1.765-1.659.506.541-1.763 1.658.395.42zM459.91 625.844l1.276-1.502.217.533 2.241-.917.28.685-2.239.918.218.533zM464.465 626.834l1.289 1.489-.561.135.565 2.353-.721.174-.564-2.355-.561.135zM463.496 633.383l-.621 1.867-.402-.412-1.735 1.689-.517-.531 1.735-1.689-.401-.413zM458.014 638.124l-1.796.808.032-.574-2.418-.134.041-.739 2.417.133.031-.576zM452.296 634.917l-1.677-1.034.494-.297-1.247-2.075.636-.381 1.246 2.076.494-.297zM450.324 627.766l-1.168-1.586.569-.09-.379-2.391.732-.116.379 2.391.568-.091zM451.295 620.787l-.087-1.968.522.243 1.019-2.196.672.31-1.018 2.198.523.242zM455.521 614.83l.755-1.82.37.442 1.854-1.559.477.567-1.853 1.559.371.44zM461.533 610.057l1.012-1.689.303.49 2.059-1.273.39.63-2.061 1.273.303.49z"/></g><g><path fill="none" d="M461.445 759.924s-14.379 8.024-13.886 15.871c.491 7.846 2.065 16.066 7.438 14.877 2.069-1.063 4.61-2.459 6.447-3.968 2.86-4.081 4.975-5.901 1.592-11.163-1.601-2.49-9.771 6.013-9.771 6.013"/><path stroke="#000" stroke-width=".15" d="m453.068 782.735.653-1.858.394.42 1.765-1.658.507.539-1.764 1.659.396.419zM458.482 777.411l1.275-1.502.219.533 2.24-.918.28.685-2.239.918.219.534zM463.037 778.401l1.289 1.488-.56.135.565 2.353-.721.173-.565-2.354-.561.136zM462.07 784.95l-.621 1.868-.402-.413-1.735 1.688-.517-.531 1.734-1.688-.401-.414zM456.586 789.692l-1.795.808.031-.576-2.417-.132.041-.74 2.417.133.032-.575zM450.869 786.483l-1.678-1.032.495-.296-1.247-2.076.635-.381 1.247 2.074.493-.297zM448.897 779.333l-1.168-1.585.569-.09-.379-2.392.731-.115.38 2.391.57-.09zM449.867 772.354l-.086-1.967.523.242 1.018-2.197.672.313-1.017 2.196.522.241zM454.095 766.397l.755-1.818.371.44 1.852-1.559.478.568-1.854 1.558.371.441zM460.105 761.624l1.012-1.69.303.49 2.06-1.271.389.63-2.06 1.272.303.49z"/></g><g><path fill="none" d="M458.642 902.441s-14.38 8.024-13.887 15.871c.491 7.846 2.065 16.066 7.438 14.877 2.069-1.063 4.611-2.459 6.448-3.968 2.859-4.081 4.974-5.902 1.591-11.163-1.601-2.489-9.771 6.013-9.771 6.013"/><path stroke="#000" stroke-width=".15" d="m450.264 925.252.653-1.857.395.42 1.763-1.659.507.54-1.763 1.659.396.419zM455.678 919.928l1.274-1.502.218.533 2.241-.917.28.685-2.24.919.219.532zM460.232 920.917l1.289 1.489-.56.134.566 2.354-.72.173-.567-2.355-.559.136zM459.266 927.466l-.622 1.868-.402-.413-1.736 1.689-.516-.531 1.735-1.689-.403-.412zM453.781 932.208l-1.795.808.032-.575-2.418-.133.041-.74 2.418.133.031-.576zM448.064 929l-1.676-1.033.493-.297-1.246-2.075.635-.382 1.247 2.076.494-.297zM446.093 921.849l-1.168-1.585.569-.09-.379-2.391.731-.116.38 2.391.569-.091zM447.063 914.871l-.086-1.968.522.242 1.019-2.196.671.311-1.017 2.197.523.242zM451.291 908.914l.755-1.82.37.442 1.854-1.559.476.567-1.852 1.559.371.44zM457.302 904.14l1.011-1.689.303.49 2.06-1.272.388.63-2.058 1.273.303.49z"/></g><g><path fill="none" d="M282.367 901.723s-14.379 8.023-13.887 15.871c.492 7.845 2.065 16.065 7.438 14.876 2.07-1.063 4.611-2.458 6.448-3.968 2.86-4.08 4.974-5.901 1.591-11.164-1.601-2.489-9.771 6.014-9.771 6.014"/><path stroke="#000" stroke-width=".15" d="m273.989 924.533.654-1.858.394.42 1.764-1.658.508.539-1.764 1.659.395.419zM279.404 919.208l1.275-1.5.218.532 2.24-.918.281.685-2.24.919.219.533zM283.958 920.198l1.289 1.488-.559.135.564 2.354-.721.172-.565-2.353-.56.134zM282.991 926.747l-.621 1.869-.402-.413-1.736 1.688-.516-.531 1.735-1.689-.402-.413zM277.508 931.49l-1.796.807.032-.575-2.418-.133.041-.739 2.418.133.031-.576zM271.79 928.282l-1.677-1.032.493-.297-1.246-2.076.635-.381 1.247 2.075.494-.297zM269.818 921.131l-1.168-1.585.569-.09-.379-2.391.731-.116.38 2.391.569-.09zM270.789 914.153l-.087-1.968.523.242 1.018-2.196.672.311-1.018 2.197.523.242zM275.015 908.195l.756-1.819.37.442 1.853-1.559.477.568-1.853 1.557.371.442zM281.026 903.422l1.012-1.689.303.49 2.06-1.271.389.63-2.06 1.272.303.49z"/></g><g><path fill="none" d="M352.547 902.765s-14.379 8.025-13.887 15.871 2.064 16.066 7.438 14.877c2.07-1.063 4.611-2.459 6.449-3.967 2.859-4.082 4.975-5.902 1.592-11.164-1.602-2.488-9.771 6.014-9.771 6.014"/><path stroke="#000" stroke-width=".15" d="m344.17 925.577.652-1.858.395.42 1.764-1.658.507.54-1.763 1.658.395.42zM349.584 920.252l1.274-1.501.219.533 2.24-.918.281.685-2.24.919.219.533zM354.139 921.242l1.289 1.488-.561.135.566 2.354-.721.173-.566-2.354-.56.134zM353.171 927.791l-.622 1.869-.402-.413-1.735 1.688-.516-.531 1.735-1.689-.402-.413zM347.687 932.533l-1.796.807.032-.575-2.417-.133.041-.74 2.416.134.032-.576zM341.97 929.324l-1.677-1.032.494-.297-1.247-2.076.636-.381 1.246 2.075.494-.297zM339.998 922.173l-1.168-1.585.568-.089-.378-2.392.732-.115.379 2.39.569-.09zM340.969 915.195l-.087-1.968.522.242 1.019-2.196.673.311-1.019 2.197.523.242zM345.195 909.238l.756-1.82.37.442 1.853-1.559.476.568-1.851 1.558.371.441zM351.207 904.464l1.012-1.689.302.49 2.061-1.271.389.63-2.06 1.272.303.49z"/></g><g><path fill="none" d="M421.098 899.998s-14.379 8.023-13.887 15.871c.491 7.845 2.064 16.065 7.438 14.876 2.07-1.063 4.611-2.458 6.449-3.968 2.859-4.08 4.975-5.901 1.592-11.164-1.602-2.49-9.771 6.014-9.771 6.014"/><path stroke="#000" stroke-width=".15" d="m412.721 922.807.652-1.857.395.42 1.763-1.66.508.54-1.764 1.66.395.419zM418.135 917.482l1.273-1.501.219.533 2.24-.918.281.686-2.24.918.219.533zM422.689 918.472l1.29 1.488-.561.135.564 2.355-.72.173-.565-2.355-.56.135zM421.723 925.021l-.622 1.868-.402-.412-1.736 1.688-.516-.532 1.735-1.687-.403-.413zM416.238 929.764l-1.795.809.032-.575-2.418-.133.041-.74 2.418.132.031-.575zM410.521 926.556l-1.677-1.033.494-.296-1.247-2.075.636-.382 1.246 2.075.494-.297zM408.549 919.406l-1.168-1.585.568-.09-.379-2.392.733-.115.379 2.391.568-.091zM409.519 912.427l-.087-1.968.523.243 1.018-2.197.672.312-1.018 2.197.523.241zM413.746 906.469l.755-1.818.37.441 1.854-1.558.476.567-1.852 1.559.371.44zM419.758 901.697l1.012-1.689.302.49 2.06-1.272.389.631-2.06 1.271.303.491z"/></g><g><path fill="none" d="M497.905 901.507s-14.379 8.023-13.887 15.871c.492 7.845 2.065 16.065 7.438 14.876 2.07-1.063 4.611-2.458 6.448-3.968 2.86-4.08 4.974-5.901 1.591-11.164-1.6-2.489-9.771 6.014-9.771 6.014"/><path stroke="#000" stroke-width=".15" d="m489.527 924.318.654-1.859.394.42 1.765-1.658.507.54-1.764 1.658.396.42zM494.942 918.993l1.275-1.501.219.532 2.24-.918.28.686-2.239.918.219.534zM499.496 919.982l1.289 1.488-.56.135.565 2.354-.721.173-.565-2.354-.561.135zM498.529 926.531l-.621 1.869-.402-.413-1.735 1.688-.517-.531 1.736-1.688-.402-.414zM493.047 931.274l-1.797.809.032-.576-2.417-.133.041-.74 2.417.133.031-.576zM487.328 928.066l-1.676-1.032.494-.297-1.248-2.075.636-.382 1.247 2.075.494-.297zM485.356 920.916l-1.168-1.585.569-.091-.379-2.391.731-.116.38 2.391.57-.09zM486.327 913.937l-.087-1.968.524.242 1.017-2.196.672.312-1.017 2.196.523.242zM490.554 907.979l.755-1.818.371.44 1.853-1.558.477.568-1.854 1.557.371.442zM496.564 903.207l1.012-1.69.303.49 2.06-1.271.389.63-2.059 1.272.303.49z"/></g><g><path fill="none" d="M236.186 339.899s5.724-4.664 9.394-1.561c4.645 3.93 4.409 15.046-7.998 14.643-10.73-.349-3.376-13.078-.838-13.078"/><path stroke="#000" stroke-width=".15" d="m235.764 339.88-.619 1.87-.403-.413-1.734 1.69-.517-.531 1.734-1.69-.402-.412zM231.911 346.762l.465 1.913-.559-.136-.575 2.352-.72-.176.575-2.352-.56-.136zM236.105 353.215l1.862-.642-.084.57 2.396.351-.108.734-2.396-.352-.083.57zM243.921 351.708l1.413-1.372.166.552 2.319-.699.213.71-2.318.699.167.551zM248.9 345.421l-.988-1.703.575-.027-.115-2.419.739-.035.117 2.418.575-.028zM245.542 338.751l-1.954-.251.328-.473-1.99-1.378.422-.609 1.99 1.377.328-.474z"/><path stroke="#000" stroke-width=".15" d="m237.591 338.253-1.077 1.649-.283-.502-2.108 1.191-.365-.645 2.108-1.191-.283-.502z"/></g><g><path fill="none" d="M237.121 631.092s5.724-4.664 9.394-1.561c4.645 3.93 4.409 15.046-7.998 14.643-10.73-.35-3.376-13.078-.838-13.078"/><path stroke="#000" stroke-width=".15" d="m236.699 631.074-.619 1.869-.403-.413-1.734 1.69-.517-.531L235.16 632l-.402-.414zM232.846 637.956l.466 1.913-.56-.136-.575 2.351-.719-.175.574-2.353-.56-.136zM237.041 644.409l1.861-.643-.084.57 2.396.352-.108.732-2.396-.35-.083.57zM244.856 642.901l1.414-1.371.166.551 2.318-.698.213.709-2.318.699.167.551zM249.835 636.615l-.988-1.703.575-.028-.115-2.419.739-.035.117 2.418.575-.027zM246.477 629.944l-1.954-.25.328-.474-1.991-1.378.423-.609 1.99 1.378.328-.474z"/><path stroke="#000" stroke-width=".15" d="m238.526 629.447-1.077 1.648-.283-.501-2.108 1.19-.365-.645 2.108-1.191-.283-.501z"/></g><g><path fill="none" d="M238.055 765.428s5.724-4.664 9.394-1.561c4.645 3.93 4.409 15.046-7.998 14.643-10.73-.35-3.376-13.078-.838-13.078"/><path stroke="#000" stroke-width=".15" d="m237.635 765.41-.62 1.868-.402-.412-1.734 1.689-.517-.53 1.733-1.691-.402-.412zM233.782 772.291l.465 1.913-.559-.137-.575 2.352-.72-.176.574-2.352-.559-.137zM237.975 778.745l1.861-.643-.084.57 2.396.352-.108.732-2.395-.35-.083.569zM245.791 777.237l1.413-1.371.166.551 2.318-.698.213.709-2.318.698.167.552zM250.77 770.952l-.989-1.703.575-.028-.115-2.419.739-.035.117 2.419.575-.028zM247.411 764.282l-1.953-.251.328-.474-1.991-1.379.422-.608 1.991 1.378.327-.475z"/><path stroke="#000" stroke-width=".15" d="m239.46 763.782-1.076 1.648-.283-.501-2.109 1.191-.364-.645 2.108-1.191-.284-.502z"/></g><g><path fill="none" d="M303.338 345.592c2.073.417 5.389 9.125 5.389 9.125"/><path stroke="#000" stroke-width=".15" d="m309.051 353.679-1.51-1.265.532-.222-.93-2.235.683-.285.932 2.235.531-.222zM305.121 346.817l-1.752-.899.469-.334-1.404-1.972.603-.429 1.405 1.971.469-.334z"/><g><path fill="none" d="M308.367 344.097s6.227-4.472 8.822.483c2.596 4.956 1.865 6.826-.967 9.185s-5.197 4.109-5.197 4.109"/><path stroke="#000" stroke-width=".15" d="m312.471 357.655.847-1.778.348.459 1.93-1.461.447.59-1.93 1.462.348.459zM319.078 352.203l-.571-1.885.565.105.444-2.38.728.135-.442 2.381.566.105zM317.223 344.648l-1.744-.917.473-.329-1.384-1.987.608-.423 1.385 1.986.472-.33zM309.791 342.467l-1.096 1.636-.277-.504-2.121 1.167-.358-.65 2.122-1.167-.279-.505z"/></g></g><g><path fill="none" d="M304.336 634.863c2.074.417 5.391 9.124 5.391 9.124"/><path stroke="#000" stroke-width=".15" d="m310.049 642.95-1.508-1.266.531-.221-.931-2.235.683-.284.932 2.234.532-.222zM306.12 636.088l-1.752-.898.47-.334-1.405-1.973.603-.429 1.405 1.971.469-.335z"/><g><path fill="none" d="M309.366 633.368s6.227-4.473 8.823.482 1.863 6.826-.968 9.186-5.196 4.109-5.196 4.109"/><path stroke="#000" stroke-width=".15" d="m313.471 646.925.845-1.777.349.459 1.93-1.462.447.591-1.93 1.462.349.459zM320.077 641.473l-.571-1.885.566.106.442-2.38.728.136-.441 2.38.566.104zM318.221 633.918l-1.742-.917.472-.329-1.385-1.986.61-.424 1.383 1.987.472-.331zM310.789 631.737l-1.095 1.637-.278-.504-2.121 1.166-.357-.649 2.122-1.168-.279-.504z"/></g></g><g><path fill="none" d="M301.674 769.584c2.073.416 5.39 9.123 5.39 9.123"/><path stroke="#000" stroke-width=".15" d="m307.387 777.67-1.509-1.264.531-.222-.93-2.234.683-.285.932 2.234.531-.223zM303.457 770.81l-1.752-.899.469-.334-1.404-1.972.603-.43 1.404 1.972.47-.334z"/><g><path fill="none" d="M306.703 768.088s6.227-4.473 8.822.483c2.596 4.955 1.865 6.825-.967 9.185s-5.196 4.109-5.196 4.109"/><path stroke="#000" stroke-width=".15" d="m310.807 781.647.847-1.777.348.459 1.93-1.462.447.591-1.93 1.46.348.46zM317.414 776.195l-.571-1.884.566.105.443-2.38.728.134-.441 2.381.566.105zM315.559 768.639l-1.743-.916.472-.33-1.384-1.986.609-.424 1.383 1.986.473-.329zM308.127 766.458l-1.095 1.637-.278-.505-2.121 1.168-.357-.65 2.12-1.167-.277-.505z"/></g></g><g><path fill="none" d="M483.492 625.36c2.074.418 5.39 9.125 5.39 9.125"/><path stroke="#000" stroke-width=".15" d="m489.205 633.448-1.509-1.266.533-.222-.932-2.235.683-.284.932 2.234.531-.221zM485.275 626.586l-1.752-.899.47-.334-1.404-1.972.603-.429 1.405 1.97.469-.334z"/><g><path fill="none" d="M488.522 623.866s6.226-4.473 8.822.482c2.596 4.955 1.864 6.826-.967 9.186s-5.196 4.109-5.196 4.109"/><path stroke="#000" stroke-width=".15" d="m492.626 637.423.847-1.777.347.459 1.931-1.462.447.591-1.93 1.462.348.459zM499.233 631.971l-.571-1.885.567.106.441-2.38.728.136-.441 2.38.566.104zM497.377 624.417l-1.742-.917.472-.33-1.384-1.986.608-.424 1.384 1.987.473-.33zM489.946 622.235l-1.094 1.637-.279-.505-2.121 1.167-.356-.649 2.12-1.168-.278-.504z"/></g></g><g><path fill="none" d="m382.742 332.288-5.997 17.988"/><path stroke="#000" stroke-width=".15" d="m377.837 349.246-.276-1.95.543.19.802-2.284.699.245-.801 2.285.544.19zM380.303 341.849l-.276-1.95.543.191.802-2.285.699.246-.801 2.284.544.19zM382.77 334.452l-.277-1.95.544.191.801-2.285.699.246-.801 2.284.543.191z"/></g><g><path fill="none" d="m384.708 484.001-5.997 17.989"/><path stroke="#000" stroke-width=".15" d="m379.803 500.959-.277-1.95.544.191.801-2.285.699.246-.8 2.284.543.191zM382.27 493.562l-.277-1.949.544.19.801-2.284.699.245-.801 2.284.543.191zM384.734 486.166l-.275-1.95.543.19.802-2.284.699.245-.802 2.285.545.19z"/></g><g><path fill="none" d="m385.876 623.491-5.997 17.988"/><path stroke="#000" stroke-width=".15" d="m380.971 640.448-.276-1.949.543.19.802-2.284.698.245-.8 2.284.544.191zM383.438 633.051l-.278-1.949.544.19.802-2.284.699.245-.801 2.285.543.19zM385.902 625.655l-.275-1.949.543.19.802-2.285.698.245-.801 2.285.545.191z"/></g><g><path fill="none" d="M269.019 632.079c2.074.416 5.39 9.125 5.39 9.125"/><path stroke="#000" stroke-width=".15" d="m274.732 640.166-1.509-1.266.532-.222-.932-2.234.684-.285.932 2.234.532-.222zM270.802 633.304l-1.752-.899.47-.334-1.405-1.972.603-.43 1.405 1.972.469-.334z"/><g><path fill="none" d="M274.049 630.583s6.226-4.473 8.822.483c2.596 4.955 1.864 6.825-.967 9.185-2.832 2.359-5.197 4.108-5.197 4.108"/><path stroke="#000" stroke-width=".15" d="m278.152 644.141.848-1.777.347.459 1.93-1.461.448.59-1.931 1.462.349.46zM284.76 638.69l-.572-1.885.566.106.442-2.381.729.136-.443 2.379.568.106zM282.903 631.134l-1.742-.917.472-.329-1.383-1.987.607-.423 1.385 1.986.472-.329zM275.472 628.954l-1.095 1.636-.277-.506-2.121 1.168-.358-.649 2.121-1.167-.278-.505z"/></g></g><g><path fill="none" d="M342.771 634.961c2.074.417 5.39 9.125 5.39 9.125"/><path stroke="#000" stroke-width=".15" d="m348.484 643.047-1.508-1.264.532-.222-.932-2.234.684-.285.931 2.234.532-.223zM344.555 636.187l-1.752-.898.468-.335-1.404-1.972.604-.429 1.404 1.971.47-.334z"/><g><path fill="none" d="M347.802 633.466s6.226-4.472 8.822.483c2.596 4.955 1.864 6.825-.967 9.185-2.832 2.359-5.196 4.109-5.196 4.109"/><path stroke="#000" stroke-width=".15" d="m351.904 647.024.848-1.777.348.459 1.929-1.461.448.589-1.93 1.463.349.459zM358.512 641.573l-.571-1.885.567.105.441-2.38.729.135-.442 2.38.567.106zM356.656 634.018l-1.742-.918.473-.328-1.385-1.987.609-.423 1.383 1.986.473-.33zM349.226 631.836l-1.095 1.637-.278-.505-2.122 1.167-.356-.649 2.12-1.167-.278-.505z"/></g></g><g><path fill="none" d="M304.479 919.957c2.074.416 5.391 9.125 5.391 9.125"/><path stroke="#000" stroke-width=".15" d="m310.191 928.044-1.508-1.265.532-.222-.932-2.235.684-.284.931 2.234.533-.223zM306.263 921.182l-1.752-.898.469-.335-1.405-1.972.604-.43 1.405 1.972.469-.335z"/><g><path fill="none" d="M309.509 918.462s6.227-4.473 8.823.482 1.863 6.824-.968 9.186c-2.831 2.357-5.196 4.107-5.196 4.107"/><path stroke="#000" stroke-width=".15" d="m313.611 932.019.848-1.777.348.459 1.93-1.461.447.591-1.93 1.461.348.459zM320.221 926.568l-.573-1.885.567.106.441-2.381.729.135-.442 2.381.567.105zM318.363 919.013l-1.742-.917.473-.329-1.385-1.987.609-.423 1.383 1.986.473-.33zM310.933 916.833l-1.095 1.635-.278-.504-2.122 1.167-.356-.649 2.12-1.167-.278-.505z"/></g></g><g><path fill="none" d="m384.788 775.706-5.997 17.988"/><path stroke="#000" stroke-width=".15" d="m379.883 792.663-.277-1.95.544.191.801-2.284.699.245-.8 2.284.544.191zM382.35 785.266l-.277-1.949.544.19.801-2.284.699.245-.801 2.284.543.191zM384.814 777.87l-.275-1.95.543.19.802-2.284.699.245-.802 2.285.545.19z"/></g><g><path fill="none" d="m387.664 913.698-5.997 17.989"/><path stroke="#000" stroke-width=".15" d="m382.76 930.656-.277-1.95.544.19.801-2.284.699.245-.8 2.285.544.19zM385.226 923.258l-.277-1.949.543.191.802-2.286.699.246-.801 2.285.544.19zM387.691 915.862l-.276-1.95.544.191.801-2.285.699.246-.801 2.284.544.191z"/></g><g><path fill="none" d="m134.712 773.921-5.997 17.989"/><path stroke="#000" stroke-width=".15" d="m129.806 790.879-.276-1.95.544.191.801-2.285.699.246-.801 2.285.544.189zM132.272 783.483l-.275-1.95.543.19.801-2.285.7.246-.801 2.285.544.19zM134.738 776.085l-.276-1.949.544.191.801-2.285.699.246-.8 2.284.544.19z"/></g><g><path fill="none" d="m280.849 762.567-5.997 17.988"/><path stroke="#000" stroke-width=".15" d="m275.944 779.525-.276-1.95.543.191.802-2.285.699.245-.801 2.284.544.192zM278.41 772.127l-.276-1.949.543.191.802-2.285.699.246-.801 2.284.543.19zM280.875 764.731l-.275-1.949.543.189.801-2.284.7.245-.801 2.285.543.191z"/></g><g><path fill="none" d="m419.377 773.835-5.996 17.989"/><path stroke="#000" stroke-width=".15" d="m414.473 790.793-.277-1.949.544.19.801-2.284.699.245-.801 2.285.543.19zM416.938 783.397l-.276-1.95.543.19.802-2.285.699.246-.801 2.285.544.19zM419.404 776l-.276-1.95.544.191.801-2.285.699.246-.801 2.284.543.19z"/></g><g><path fill="none" d="m495.123 776.029-5.996 17.988"/><path stroke="#000" stroke-width=".15" d="m490.219 792.987-.277-1.949.544.189.801-2.284.699.245-.8 2.285.543.191zM492.684 785.59l-.276-1.95.543.191.802-2.286.699.247-.801 2.285.544.189zM495.15 778.193l-.276-1.949.544.19.801-2.285.699.246-.801 2.284.543.191z"/></g><g><path fill="none" d="M90.85 779.982s4.364-2.461 6.149-1.183c1.786 1.275 1.909 5.051.634 6.068-1.275 1.019-5.34 1.388-8.912 2.918-8.796 3.771 36.064-1.023 43.419.727"/><path stroke="#000" stroke-width=".15" d="m129.89 787.695-1.802.795.036-.575-2.416-.152.046-.739 2.416.15.036-.574zM122.042 787.485l-1.73.941-.012-.576-2.421.049-.015-.74 2.421-.05-.012-.576zM114.25 787.764l-1.73.942-.012-.577-2.421.049-.015-.74 2.421-.049-.012-.576zM106.453 788.084l-1.722.956-.016-.576-2.42.07-.021-.741 2.419-.07-.016-.576zM98.681 788.411l-1.743.914-.003-.576-2.422.013-.003-.741 2.421-.013-.004-.576zM91.131 789.493l-1.94-.333.348-.46-1.931-1.461.448-.591 1.93 1.462.347-.46zM93.364 787.084l1.397-1.388.173.551 2.31-.727.221.707-2.309.727.173.548zM98.473 782.065l-1.018-1.686.575-.038-.159-2.416.739-.048.16 2.415.574-.038zM92.429 778.501l-1.253 1.52-.226-.53-2.227.951-.29-.682 2.226-.951-.226-.529z"/></g><g><path fill="none" d="M93.654 922.189s4.364-2.461 6.149-1.182c1.786 1.273 1.909 5.049.634 6.068-1.275 1.018-5.34 1.387-8.912 2.917-8.796 3.771 36.064-1.022 43.419.727"/><path stroke="#000" stroke-width=".15" d="m132.694 929.902-1.801.795.036-.574-2.417-.153.047-.739 2.416.151.036-.575zM124.846 929.692l-1.73.941-.012-.576-2.42.049-.015-.74 2.42-.05-.011-.576zM117.054 929.972l-1.73.941-.011-.576-2.421.049-.015-.741 2.42-.049-.011-.576zM109.257 930.291l-1.721.956-.017-.576-2.42.07-.021-.741 2.42-.07-.017-.576zM101.486 930.617l-1.744.915-.003-.576-2.421.012-.004-.74 2.421-.014-.003-.576zM93.936 931.7l-1.941-.333.348-.459-1.93-1.462.447-.591 1.931 1.461.347-.459zM96.168 929.292l1.397-1.388.172.55 2.31-.726.222.707-2.31.726.173.549zM101.279 924.272l-1.019-1.686.575-.037-.159-2.416.74-.049.159 2.416.575-.038zM95.233 920.708l-1.253 1.52-.226-.53-2.227.95-.29-.682 2.226-.95-.226-.529z"/></g><g><path fill="none" d="m243.805 494.298 33.318.979"/><path stroke="#000" stroke-width=".15" d="m277.044 494.564-1.788.827.026-.576-2.418-.108.033-.741 2.418.109.026-.576zM269.25 494.335l-1.787.827.026-.576-2.419-.108.034-.741 2.418.109.025-.576zM261.457 494.106l-1.788.826.026-.575-2.419-.109.034-.74 2.419.109.025-.576zM253.663 493.877l-1.788.826.026-.575-2.418-.109.034-.74 2.418.108.025-.575zM245.869 493.648l-1.787.826.026-.575-2.419-.109.034-.74 2.418.108.026-.575z"/></g><g><path fill="none" d="m242.871 645.22 33.317.98"/><path stroke="#000" stroke-width=".15" d="m276.109 645.487-1.787.826.026-.575-2.419-.109.034-.74 2.418.108.026-.576zM268.315 645.258l-1.787.826.026-.576-2.419-.108.034-.74 2.418.108.026-.576zM260.522 645.028l-1.788.827.026-.575-2.418-.11.033-.74 2.419.11.025-.577zM252.729 644.799l-1.788.826.026-.575-2.419-.108.034-.74 2.418.107.026-.575zM244.935 644.571l-1.788.826.026-.576-2.419-.109.034-.74 2.419.109.025-.577z"/></g><g><path fill="none" d="m244.74 779.557 33.318.98"/><path stroke="#000" stroke-width=".15" d="m277.979 779.824-1.788.826.026-.575-2.418-.11.033-.739 2.418.108.026-.576zM270.185 779.594l-1.787.826.026-.574-2.419-.109.034-.74 2.418.108.025-.575zM262.392 779.366l-1.788.826.026-.576-2.419-.109.034-.74 2.418.108.026-.575zM254.598 779.136l-1.787.826.025-.575-2.418-.109.033-.74 2.419.109.026-.576zM246.804 778.907l-1.787.826.026-.575-2.419-.109.034-.74 2.418.108.026-.576z"/></g><g><path fill="none" d="m243.675 931.479 33.318.979"/><path stroke="#000" stroke-width=".15" d="m276.914 931.746-1.788.826.026-.575-2.419-.11.034-.739 2.419.108.025-.576zM269.12 931.516l-1.787.827.025-.576-2.419-.108.034-.741 2.419.109.025-.576zM261.326 931.288l-1.787.826.025-.575-2.418-.11.034-.74 2.418.108.026-.575zM253.533 931.058l-1.788.826.026-.575-2.418-.109.033-.74 2.419.109.025-.576zM245.739 930.829l-1.787.827.026-.576-2.419-.109.033-.74 2.419.108.025-.576z"/></g><g><path fill="none" d="M237.243 918.485s5.724-4.664 9.394-1.56c4.645 3.93 4.409 15.045-7.998 14.643-10.73-.35-3.376-13.078-.837-13.078"/><path stroke="#000" stroke-width=".15" d="m236.822 918.467-.62 1.869-.402-.413-1.734 1.691-.517-.531 1.734-1.69-.403-.413zM232.969 925.348l.465 1.914-.559-.137-.575 2.352-.719-.176.573-2.351-.559-.137zM237.163 931.801l1.861-.642-.084.57 2.396.352-.108.732-2.395-.351-.083.571zM244.979 930.294l1.413-1.371.166.551 2.318-.698.214.71-2.318.698.166.552zM249.957 924.008l-.988-1.703.575-.027-.116-2.419.74-.035.116 2.418.576-.028zM246.599 917.338l-1.953-.251.327-.473-1.991-1.378.423-.61 1.99 1.378.328-.473z"/><path stroke="#000" stroke-width=".15" d="m238.648 916.839-1.077 1.649-.283-.502-2.108 1.19-.364-.645 2.107-1.191-.283-.502z"/></g><g><path fill="none" d="m313.792 933.898 33.317.98"/><path stroke="#000" stroke-width=".15" d="m347.031 934.166-1.788.827.027-.576-2.419-.109.034-.74 2.418.108.025-.575zM339.237 933.937l-1.788.826.027-.576-2.419-.108.033-.741 2.419.109.026-.575zM331.443 933.708l-1.787.826.026-.576-2.418-.109.033-.74 2.418.108.025-.575zM323.65 933.478l-1.788.826.027-.575-2.419-.109.034-.74 2.418.109.025-.576zM315.856 933.249l-1.788.826.027-.575-2.419-.11.033-.74 2.419.109.026-.576z"/></g><g><path fill="none" d="m382.343 930.194 33.317.979"/><path stroke="#000" stroke-width=".15" d="m415.582 930.46-1.788.827.026-.576-2.419-.109.035-.739 2.418.108.025-.576zM407.788 930.231l-1.788.827.026-.576-2.419-.108.034-.741 2.419.109.025-.576zM399.994 930.002l-1.787.827.025-.576-2.418-.109.034-.74 2.418.108.025-.575zM392.201 929.773l-1.788.826.026-.575-2.418-.109.034-.74 2.418.109.025-.576zM384.407 929.543l-1.788.828.027-.577-2.419-.108.033-.74 2.419.108.025-.576z"/></g><g><path fill="none" d="m454.477 932.638 33.318.98"/><path stroke="#000" stroke-width=".15" d="m487.717 932.906-1.788.826.026-.576-2.419-.109.033-.74 2.419.109.026-.576zM479.922 932.676l-1.787.826.026-.575-2.419-.108.033-.74 2.419.108.026-.576zM472.129 932.447l-1.787.826.025-.575-2.418-.109.033-.74 2.418.109.026-.577zM464.336 932.218l-1.788.826.026-.576-2.419-.108.033-.74 2.419.108.026-.575zM456.541 931.989l-1.787.826.026-.575-2.419-.109.034-.74 2.418.109.026-.577z"/></g><g><path fill="none" d="m312.857 784.461 33.318.979"/><path stroke="#000" stroke-width=".15" d="m346.097 784.727-1.788.826.026-.575-2.419-.108.034-.741 2.418.109.027-.575zM338.303 784.499l-1.787.826.025-.576-2.418-.108.033-.74 2.418.107.026-.575zM330.51 784.269l-1.788.827.026-.576-2.419-.108.033-.741 2.419.109.026-.576zM322.716 784.041l-1.788.826.026-.575-2.419-.11.034-.74 2.418.109.027-.576zM314.922 783.811l-1.787.826.025-.575-2.418-.108.033-.741 2.418.109.026-.575z"/></g><g><path fill="none" d="m315.626 648.545 33.317.979"/><path stroke="#000" stroke-width=".15" d="m348.865 648.811-1.787.826.026-.575-2.418-.108.033-.741 2.418.109.025-.575zM341.071 648.583l-1.787.826.027-.576-2.42-.108.034-.74 2.419.107.025-.575zM333.277 648.353l-1.787.827.026-.576-2.418-.108.033-.741 2.419.109.025-.576zM325.484 648.125l-1.787.826.026-.576-2.418-.109.033-.74 2.418.109.025-.576zM317.69 647.895l-1.787.826.027-.575-2.42-.108.034-.741 2.419.109.025-.575z"/></g><g><path fill="none" d="m313.793 501.185 33.316.979"/><path stroke="#000" stroke-width=".15" d="m347.031 501.452-1.787.826.026-.576-2.418-.108.033-.74 2.419.108.025-.576zM339.238 501.222l-1.787.827.026-.576-2.419-.108.034-.74 2.418.108.025-.576zM331.444 500.994l-1.788.826.027-.576-2.419-.108.034-.74 2.418.108.026-.576zM323.65 500.764l-1.787.827.026-.576-2.418-.108.033-.74 2.419.108.025-.576zM315.857 500.536l-1.787.826.026-.576-2.419-.108.034-.74 2.418.108.025-.576z"/></g><g><path fill="none" d="m380.585 499.95 33.317.98"/><path stroke="#000" stroke-width=".15" d="m413.824 500.217-1.788.826.027-.575-2.419-.109.034-.74 2.418.108.025-.576zM406.03 499.988l-1.788.826.027-.575-2.419-.109.033-.74 2.419.108.025-.576zM398.236 499.758l-1.787.826.026-.575-2.418-.109.033-.739 2.418.108.025-.576zM390.443 499.529l-1.788.826.027-.575-2.419-.109.034-.74 2.418.109.025-.576zM382.649 499.3l-1.788.826.027-.575-2.419-.109.033-.74 2.419.109.025-.576z"/></g><g><path fill="none" d="m383.055 642.021 33.318.979"/><path stroke="#000" stroke-width=".15" d="m416.293 642.288-1.787.826.026-.576-2.419-.109.033-.739 2.419.107.026-.575zM408.5 642.058l-1.787.826.025-.575-2.418-.108.034-.741 2.417.109.026-.576zM400.706 641.829l-1.787.827.026-.575-2.42-.11.035-.74 2.419.109.025-.576zM392.912 641.6l-1.787.826.026-.575-2.419-.108.034-.741 2.419.109.025-.576zM385.119 641.372l-1.787.826.025-.576-2.418-.109.034-.739 2.418.107.025-.575z"/></g><g><path fill="none" d="M409.873 625.717c2.072.416 5.39 9.125 5.39 9.125"/><path stroke="#000" stroke-width=".15" d="m415.586 633.804-1.51-1.264.532-.223-.931-2.234.684-.286.932 2.235.531-.222zM411.656 626.943l-1.752-.9.469-.334-1.404-1.971.603-.43 1.405 1.972.469-.334z"/><g><path fill="none" d="M414.902 624.221s6.227-4.472 8.822.484c2.596 4.955 1.865 6.825-.967 9.184-2.832 2.36-5.196 4.11-5.196 4.11"/><path stroke="#000" stroke-width=".15" d="m419.006 637.78.847-1.778.347.459 1.931-1.461.447.59-1.93 1.462.348.46zM425.613 632.329l-.571-1.885.566.105.443-2.381.728.136-.442 2.38.567.106zM423.758 624.773l-1.743-.917.472-.329-1.383-1.987.607-.423 1.385 1.986.472-.329zM416.326 622.592l-1.095 1.636-.278-.505-2.121 1.168-.356-.65 2.12-1.167-.278-.505z"/></g></g><g><path fill="none" d="m381.24 789.273 33.319.98"/><path stroke="#000" stroke-width=".15" d="m414.479 789.542-1.788.826.027-.576-2.419-.109.033-.74 2.419.108.025-.576zM406.686 789.311l-1.788.826.026-.575-2.418-.108.033-.741 2.418.109.025-.575zM398.892 789.083l-1.788.826.027-.576-2.42-.109.034-.74 2.419.108.025-.576zM391.098 788.853l-1.787.826.026-.575-2.419-.109.033-.741 2.419.11.026-.576zM383.305 788.624l-1.787.826.025-.575-2.418-.109.033-.74 2.418.107.026-.575z"/></g><g><path fill="none" d="m457.186 790.934 33.318.981"/><path stroke="#000" stroke-width=".15" d="m490.426 791.202-1.788.826.026-.575-2.419-.109.033-.74 2.419.107.026-.575zM482.631 790.973l-1.787.826.026-.576-2.419-.108.033-.74 2.419.108.026-.576zM474.838 790.744l-1.787.826.025-.575-2.418-.11.033-.74 2.418.109.026-.576zM467.045 790.514l-1.788.826.026-.575-2.419-.108.033-.74 2.419.107.026-.575zM459.25 790.286l-1.787.826.026-.576-2.419-.109.034-.74 2.418.108.026-.576z"/></g><g><path fill="none" d="M243.669 353.463c6.136-.191 16.607-.443 25.124 1.01 8.517 1.454 13.892-3.37 15.108-7.152 1.216-3.785-1.322-5.648-7-5.648"/><path stroke="#000" stroke-width=".15" d="m281.148 342.597 1.863.639-.416.398 1.673 1.75-.537.512-1.672-1.75-.416.398zM282.119 348.289l-.494 1.906-.428-.384-1.617 1.802-.552-.495 1.617-1.803-.429-.384zM276.647 352.524l-1.605 1.141-.08-.571-2.398.338-.103-.734 2.397-.338-.08-.57zM269.037 353.542l-1.729.941-.012-.575-2.421.05-.015-.742 2.42-.049-.011-.577zM261.346 353.14l-1.829.729.056-.573-2.409-.239.073-.737 2.409.238.057-.573zM253.503 352.659l-1.753.895.003-.575-2.421-.015.004-.741 2.421.014.003-.576zM245.707 352.733l-1.754.896.004-.576-2.422-.014.005-.742 2.421.015.003-.577z"/></g><g><path fill="none" d="M314.788 359.781c6.136-.191 16.607-.443 25.124 1.011s13.892-3.37 15.107-7.153c1.217-3.784-1.32-5.648-6.998-5.648"/><path stroke="#000" stroke-width=".15" d="m352.268 348.915 1.863.638-.417.398 1.673 1.751-.537.511-1.672-1.75-.416.398zM353.238 354.606l-.494 1.907-.429-.385-1.616 1.803-.552-.495 1.617-1.803-.43-.384zM347.766 358.842l-1.605 1.14-.081-.57-2.396.338-.104-.734 2.398-.338-.082-.571zM340.155 359.86l-1.729.941-.012-.576-2.42.05-.015-.741 2.419-.05-.011-.576zM332.465 359.458l-1.83.729.056-.573-2.409-.239.073-.737 2.41.238.056-.573zM324.623 358.976l-1.754.896.003-.577-2.421-.014.004-.741 2.422.014.002-.576zM316.826 359.051l-1.754.895.003-.576-2.421-.015.005-.741 2.421.014.003-.576z"/></g><g><path fill="none" d="M378.014 353.229c6.137-.191 16.607-.443 25.124 1.011s13.892-3.37 15.108-7.152c1.215-3.784-1.322-5.648-7-5.648"/><path stroke="#000" stroke-width=".15" d="m415.493 342.363 1.862.638-.416.398 1.672 1.751-.535.512-1.673-1.75-.417.398zM416.463 348.055l-.493 1.906-.429-.384-1.617 1.802-.551-.495 1.616-1.802-.428-.385zM410.992 352.29l-1.605 1.141-.08-.571-2.398.338-.102-.734 2.396-.338-.08-.57zM403.381 353.308l-1.729.941-.012-.576-2.421.05-.015-.741 2.421-.05-.013-.576zM395.689 352.906l-1.828.729.057-.573-2.41-.239.074-.738 2.408.239.057-.574zM387.848 352.424l-1.754.895.004-.575-2.422-.015.005-.741 2.421.014.003-.576zM380.051 352.499l-1.754.895.004-.576-2.422-.015.006-.74 2.42.014.004-.577z"/></g><g><path fill="none" d="M454.453 356.034c6.137-.191 16.607-.443 25.125 1.011 8.516 1.454 13.891-3.37 15.107-7.153 1.216-3.784-1.322-5.648-6.999-5.648"/><path stroke="#000" stroke-width=".15" d="m491.933 345.167 1.862.639-.416.398 1.673 1.751-.536.511-1.672-1.75-.417.398zM492.902 350.859l-.492 1.907-.43-.385-1.616 1.803-.551-.496 1.617-1.802-.43-.385zM487.432 355.095l-1.606 1.14-.08-.57-2.397.338-.103-.734 2.397-.338-.08-.571zM479.821 356.113l-1.729.942-.012-.576-2.421.049-.014-.74 2.419-.05-.011-.576zM472.13 355.71l-1.829.729.056-.573-2.41-.239.074-.737 2.409.238.056-.573zM464.288 355.229l-1.754.896.003-.577-2.421-.014.005-.741 2.421.014.003-.576zM456.491 355.303l-1.754.896.003-.576-2.42-.015.004-.741 2.421.014.003-.576z"/></g><g><path fill="none" d="m354.934 766.449-5.996 17.988"/><path stroke="#000" stroke-width=".15" d="m350.029 783.407-.275-1.949.543.189.801-2.284.699.245-.801 2.285.544.19zM352.495 776.01l-.276-1.95.544.19.801-2.285.7.246-.802 2.286.544.189zM354.961 768.613l-.275-1.949.543.19.8-2.285.7.246-.801 2.284.544.191z"/></g><g><path fill="none" d="M458.02 472.319s-14.38 8.024-13.887 15.871c.491 7.846 2.064 16.066 7.438 14.876 2.07-1.062 4.611-2.458 6.449-3.967 2.859-4.081 4.973-5.902 1.59-11.164-1.6-2.489-9.771 6.013-9.771 6.013"/><path stroke="#000" stroke-width=".15" d="m449.641 495.129.654-1.857.394.419 1.764-1.658.507.54-1.763 1.658.395.42zM455.056 489.805l1.274-1.502.219.533 2.24-.918.28.686-2.239.918.219.533zM459.61 490.794l1.288 1.489-.559.134.565 2.354-.72.173-.566-2.354-.559.135zM458.643 497.344l-.622 1.868-.402-.413-1.734 1.689-.518-.531 1.737-1.689-.403-.413zM453.16 502.085l-1.796.809.032-.576-2.417-.132.041-.74 2.417.133.031-.576zM447.442 498.877l-1.676-1.033.494-.296-1.248-2.075.635-.382 1.248 2.075.494-.297zM445.471 491.727l-1.169-1.585.569-.09-.379-2.391.732-.116.379 2.391.569-.091zM446.44 484.748l-.086-1.967.523.242 1.018-2.196.671.311-1.017 2.197.523.242zM450.667 478.791l.755-1.819.371.441 1.853-1.558.477.567-1.853 1.558.371.441zM456.679 474.018l1.011-1.689.303.49 2.06-1.272.389.63-2.059 1.273.303.49z"/></g><g><path fill="none" d="m453.759 503.329 33.317.979"/><path stroke="#000" stroke-width=".15" d="m486.998 503.595-1.788.826.026-.575-2.419-.109.035-.74 2.418.108.025-.575zM479.204 503.366l-1.788.826.026-.574-2.419-.11.034-.74 2.419.108.025-.575zM471.41 503.137l-1.787.826.025-.576-2.418-.108.034-.74 2.418.108.025-.575zM463.617 502.908l-1.788.826.026-.575-2.418-.109.034-.74 2.418.108.025-.576zM455.823 502.679l-1.788.825.027-.574-2.419-.109.033-.74 2.419.108.025-.576z"/></g><g><path fill="none" d="m457.811 640.068 33.318.979"/><path stroke="#000" stroke-width=".15" d="m491.05 640.334-1.788.827.026-.576-2.419-.108.034-.74 2.418.107.027-.575zM483.256 640.106l-1.787.826.025-.576-2.418-.108.033-.741 2.418.109.026-.576zM475.463 639.875l-1.788.828.026-.576-2.419-.109.034-.74 2.418.109.026-.576zM467.669 639.647l-1.788.826.026-.575-2.419-.108.034-.741 2.418.108.027-.575zM459.875 639.418l-1.787.827.025-.577-2.418-.108.034-.74 2.417.108.026-.576z"/></g><path fill="none" stroke="#000" d="M79.742 1.357h70.989v1008.148H79.742z"/><path fill="none" stroke="#000" d="M2.576.5h503.811v144.021H2.576z"/><text transform="translate(553.924 81.284)" fill="red" font-family="'Myriad-Roman'" font-size="18">IML</text><text transform="translate(553.51 223.466)" fill="red" font-family="'Myriad-Roman'" font-size="18">IML</text><text transform="translate(550.51 366.466)" fill="red" font-family="'Myriad-Roman'" font-size="18">IML</text><text transform="translate(552.51 511.466)" fill="red" font-family="'Myriad-Roman'" font-size="18">IML</text><path fill="none" stroke="#000" d="M2.576 144.099h503.813V288.12H2.576zM2.576 288.518h503.813v144.021H2.576z"/><path fill="none" stroke="#000" d="M2.576 432.196h503.813v144.021H2.576zM2.576 576.629h503.813V720.65H2.576z"/><path fill="none" stroke="#000" d="M2.575 576.629h503.813V720.65H2.575zM2.576 720.651h503.813v144.021H2.576zM3.393 865.423h503.812v144.021H3.393z"/><path fill="none" stroke="#000" d="M150.909 1.357h70.989v1008.148h-70.989zM222.076 1.357h70.989v1008.148h-70.989zM293.242 1.357h70.988v1008.148h-70.988zM364.409 1.357h70.989v1008.148h-70.989zM435.576 1.357h70.988v1008.148h-70.988z"/><text transform="translate(547.447 651.243)" fill="red" font-family="'Myriad-Roman'" font-size="18">IML</text><text transform="translate(550.447 800.243)" fill="red" font-family="'Myriad-Roman'" font-size="18">IML</text><text transform="translate(546.447 943.243)" fill="red" font-family="'Myriad-Roman'" font-size="18">IML</text><g fill="#8B8B8B" font-family="'Myriad-Roman'" font-size="18"><text transform="translate(4.518 164.305)">UA</text><text transform="translate(4.518 309.054)">UB</text><text transform="translate(4.518 451.056)">UC</text><text transform="translate(4.518 597.055)">UD</text><text transform="translate(4.518 739.325)">UE</text><text transform="translate(4.518 883.305)">UF</text><text transform="translate(83.518 19.305)">UA</text><text transform="translate(156.518 19.305)">UB</text><text transform="translate(224.518 19.305)">UC</text><text transform="translate(296.518 19.305)">UD</text><text transform="translate(369.518 19.305)">UE</text><text transform="translate(437.518 19.305)">UF</text><text transform="translate(83.518 164.305)">UAUA</text><text transform="translate(83.518 309.054)">UBUB</text><text transform="translate(83.518 451.056)">UAUC</text><text transform="translate(83.518 597.055)">UAUD</text><text transform="translate(83.518 739.325)">UAUE</text><text transform="translate(83.518 883.305)">UAUF</text><text transform="translate(224.518 164.305)">UCUA</text><text transform="translate(224.518 309.054)">UCUB</text><text transform="translate(224.518 451.056)">UCUC</text><text transform="translate(224.518 597.054)">UCUD</text><text transform="translate(224.518 739.325)">UCUE</text><text transform="translate(224.518 883.305)">UCUF</text><text transform="translate(296.518 164.305)">UDUA</text><text transform="translate(296.518 309.054)">UDUB</text><text transform="translate(296.518 451.056)">UDUC</text><text transform="translate(296.518 597.054)">UDUD</text><text transform="translate(296.518 739.325)">UDUE</text><text transform="translate(296.518 883.305)">UDUF</text><text transform="translate(369.518 164.305)">UEUA</text><text transform="translate(369.518 309.054)">UEUB</text><text transform="translate(369.518 451.056)">UEUC</text><text transform="translate(369.518 597.054)">UEUD</text><text transform="translate(369.518 739.325)">UEUE</text><text transform="translate(369.518 883.305)">UEUF</text><text transform="translate(437.518 164.305)">UFUA</text><text transform="translate(437.518 309.054)">UFUB</text><text transform="translate(437.518 451.056)">UFUC</text><text transform="translate(437.518 597.054)">UFUD</text><text transform="translate(437.518 739.325)">UFUE</text><text transform="translate(437.518 883.305)">UFUF</text></g></svg>